<svg width="70" height="70" viewBox="0 0 70 70" fill="none" xmlns="http://www.w3.org/2000/svg">
<g clip-path="url(#clip0_1268_6008)">
<path d="M47.6151 12.97H21.9051C19.7851 12.97 18.5151 14.24 18.5151 16.37V48.79C18.5151 51.13 20.2751 52.19 21.9051 52.19H48.0951C50.1751 52.19 51.4751 50.43 51.4751 48.79V16.85C51.4751 14.49 49.9551 12.97 47.6151 12.97ZM49.4751 48.79C49.4751 49.47 48.9451 50.19 48.0951 50.19H21.9051C21.3851 50.19 20.5151 50.01 20.5151 48.79V16.37C20.5151 15.36 20.9051 14.97 21.9051 14.97H47.6151C49.4751 14.97 49.4751 16.38 49.4751 16.85V48.79ZM47.6151 12.97H21.9051C19.7851 12.97 18.5151 14.24 18.5151 16.37V48.79C18.5151 51.13 20.2751 52.19 21.9051 52.19H48.0951C50.1751 52.19 51.4751 50.43 51.4751 48.79V16.85C51.4751 14.49 49.9551 12.97 47.6151 12.97ZM49.4751 48.79C49.4751 49.47 48.9451 50.19 48.0951 50.19H21.9051C21.3851 50.19 20.5151 50.01 20.5151 48.79V16.37C20.5151 15.36 20.9051 14.97 21.9051 14.97H47.6151C49.4751 14.97 49.4751 16.38 49.4751 16.85V48.79ZM51.1851 7.2H44.6451C44.1651 6.38 43.1551 5.04 41.6651 5.04H39.8551C39.4351 3.4 38.1551 0 34.7551 0C31.3551 0 29.9351 3.43 29.4551 5.04H27.1351C25.4251 5.04 24.5551 6.33 24.1951 7.44H18.8051C15.8651 7.44 13.9951 11.31 13.9951 13.97V50.47C13.9951 54.5 16.4751 57 20.4751 57H50.2351C53.6251 57 55.9951 53.94 55.9951 51.19V12.77C55.9951 9.28 53.5551 7.2 51.1851 7.2ZM25.9951 8.51C26.0351 8.26 26.2451 7.04 27.1351 7.04H30.2351C30.7151 7.04 31.1251 6.7 31.2151 6.23C31.2251 6.19 32.0451 2 34.7551 2C37.4651 2 38.0451 6.14 38.0551 6.18C38.1251 6.68 38.5451 7.04 39.0451 7.04H41.6651C42.1151 7.04 42.7151 7.8 43.0451 8.43V9.85H25.9951V8.51ZM53.9951 51.19C53.9951 52.78 52.5651 55 50.2351 55H20.4751C17.5851 55 15.9951 53.39 15.9951 50.47V13.97C15.9951 11.99 17.3551 9.44 18.8051 9.44H23.9951V10.85C23.9951 11.4 24.4451 11.85 24.9951 11.85H44.0451C44.5951 11.85 45.0451 11.4 45.0451 10.85V9.2H51.1851C52.2751 9.2 53.9951 10.17 53.9951 12.77V51.19ZM47.6151 12.97H21.9051C19.7851 12.97 18.5151 14.24 18.5151 16.37V48.79C18.5151 51.13 20.2751 52.19 21.9051 52.19H48.0951C50.1751 52.19 51.4751 50.43 51.4751 48.79V16.85C51.4751 14.49 49.9551 12.97 47.6151 12.97ZM49.4751 48.79C49.4751 49.47 48.9451 50.19 48.0951 50.19H21.9051C21.3851 50.19 20.5151 50.01 20.5151 48.79V16.37C20.5151 15.36 20.9051 14.97 21.9051 14.97H47.6151C49.4751 14.97 49.4751 16.38 49.4751 16.85V48.79ZM47.6151 12.97H21.9051C19.7851 12.97 18.5151 14.24 18.5151 16.37V48.79C18.5151 51.13 20.2751 52.19 21.9051 52.19H48.0951C50.1751 52.19 51.4751 50.43 51.4751 48.79V16.85C51.4751 14.49 49.9551 12.97 47.6151 12.97ZM49.4751 48.79C49.4751 49.47 48.9451 50.19 48.0951 50.19H21.9051C21.3851 50.19 20.5151 50.01 20.5151 48.79V16.37C20.5151 15.36 20.9051 14.97 21.9051 14.97H47.6151C49.4751 14.97 49.4751 16.38 49.4751 16.85V48.79ZM47.6151 12.97H21.9051C19.7851 12.97 18.5151 14.24 18.5151 16.37V48.79C18.5151 51.13 20.2751 52.19 21.9051 52.19H48.0951C50.1751 52.19 51.4751 50.43 51.4751 48.79V16.85C51.4751 14.49 49.9551 12.97 47.6151 12.97ZM49.4751 48.79C49.4751 49.47 48.9451 50.19 48.0951 50.19H21.9051C21.3851 50.19 20.5151 50.01 20.5151 48.79V16.37C20.5151 15.36 20.9051 14.97 21.9051 14.97H47.6151C49.4751 14.97 49.4751 16.38 49.4751 16.85V48.79Z" fill="white"/>
<path d="M49.4746 16.85V48.79C49.4746 49.47 48.9446 50.19 48.0946 50.19H21.9046C21.3846 50.19 20.5146 50.01 20.5146 48.79V16.37C20.5146 15.36 20.9046 14.97 21.9046 14.97H47.6146C49.4746 14.97 49.4746 16.38 49.4746 16.85Z" fill="#FFD500"/>
<path d="M45.035 28.9999L33.245 40.0299L27.165 34.3299L30.485 31.2399L33.235 33.8099L41.705 25.8999L45.035 28.9999Z" fill="#F5370D"/>
<path d="M41.7055 24.7099L33.2355 32.61L30.4855 30.0499L25.8955 34.33L33.2555 41.22L46.3155 28.99L41.7055 24.7V24.7099ZM30.4855 31.24L33.2355 33.81L41.7055 25.9L45.0455 29L33.2555 40.0299L27.1655 34.34L30.4855 31.25V31.24Z" fill="#272729"/>
</g>
<defs>
<clipPath id="clip0_1268_6008">
<rect width="42" height="57" fill="white" transform="translate(13.9951)"/>
</clipPath>
</defs>
</svg>
