<svg width="71" height="70" viewBox="0 0 71 70" fill="none" xmlns="http://www.w3.org/2000/svg">
<g clip-path="url(#clip0_1268_5821)">
<path d="M55.8179 1H20.1679C17.6579 1 15.6079 3.78 15.6079 7.2V34.61H11.3779C10.8279 34.61 10.3779 35.05 10.3779 35.61V50.27C10.3779 52.35 12.2979 53.87 14.9479 53.87H45.5479V55C45.5479 55.41 45.7979 55.78 46.1879 55.93C46.5679 56.08 46.9979 55.98 47.2779 55.68L49.1079 53.69L50.6779 55.63C50.8679 55.87 51.1579 56 51.4579 56C51.5679 56 51.6879 55.98 51.7979 55.94C52.1979 55.79 52.4579 55.41 52.4579 54.98L52.4379 53.87H53.6779C55.1879 53.87 56.8179 52.23 56.8179 49.79V8.2H59.3779C59.9279 8.2 60.3779 7.75 60.3779 7.2C60.3779 5.06 59.4279 1 55.8179 1ZM15.6079 50.27C15.6079 50.63 15.0979 51.32 14.5679 51.85C13.4579 51.76 12.3779 51.26 12.3779 50.27V36.61H15.6079V50.27ZM49.9379 51.53C49.7579 51.31 49.4879 51.17 49.1979 51.16C48.9079 51.14 48.6279 51.27 48.4279 51.48L47.5479 52.44V50.61C48.0579 50.73 48.5779 50.79 49.0979 50.79C49.5279 50.8 49.9679 50.75 50.3779 50.65L50.4079 52.11L49.9379 51.53ZM50.8479 48.31C50.8479 48.31 50.8279 48.32 50.8179 48.33C50.3079 48.64 49.7579 48.79 49.1479 48.79C48.4179 48.78 47.6779 48.63 47.0279 48.29C47.0179 48.28 47.0079 48.28 46.9979 48.28C45.9879 47.73 45.4079 46.82 45.4079 45.78C45.4079 43.97 46.3979 42.04 49.1579 42.04C49.8379 42.04 50.4179 42.2 50.8979 42.52C50.8979 42.52 50.8979 42.53 50.9179 42.53C52.1179 43.33 52.4379 44.95 52.4379 45.78C52.4379 46.52 51.8779 47.66 50.8479 48.31ZM47.5479 40.22V8.2H50.1879L50.4479 40.19C49.5079 39.97 48.4179 40.02 47.5479 40.22ZM54.8179 49.79C54.8179 51.16 54.0179 51.87 53.6779 51.87H52.4079L52.3679 49.68C53.6079 48.7 54.4379 47.17 54.4379 45.78C54.4379 44.39 53.9079 42.42 52.4479 41.19L52.1879 8.2H54.8179V49.79ZM24.6879 6.2C24.1279 6.2 23.6879 6.65 23.6879 7.2C23.6879 7.75 24.1279 8.2 24.6879 8.2H45.5479V41.14C44.0879 42.24 43.4079 44.01 43.4079 45.78C43.4079 47.36 44.1979 48.8 45.5479 49.73V51.87H17.0979C17.3879 51.38 17.6079 50.83 17.6079 50.27V7.2C17.6079 4.8 18.9579 3 20.1679 3H55.8179C57.5379 3 58.1079 4.96 58.2879 6.2H24.6879Z" fill="#272729"/>
<path d="M24.6877 8.2H45.5477V41.14C44.0877 42.24 43.4077 44.01 43.4077 45.78C43.4077 47.36 44.1977 48.8 45.5477 49.73V51.87H17.0977C17.3877 51.38 17.6077 50.83 17.6077 50.27V7.2C17.6077 4.8 18.9577 3 20.1677 3H55.8177C57.5377 3 58.1077 4.96 58.2877 6.2H24.6877C24.1277 6.2 23.6877 6.65 23.6877 7.2C23.6877 7.75 24.1277 8.2 24.6877 8.2Z" fill="#FFD500"/>
<path d="M54.8175 8.19995V49.79C54.8175 51.16 54.0175 51.8699 53.6775 51.8699H52.4075L52.3675 49.68C53.6075 48.7 54.4375 47.1699 54.4375 45.7799C54.4375 44.3899 53.9075 42.4199 52.4475 41.1899L52.1875 8.19995H54.8175Z" fill="#FFD500"/>
<path d="M50.4479 40.1899C49.5079 39.9699 48.4179 40.02 47.5479 40.22V8.19995H50.1879L50.4479 40.1899Z" fill="#FFD500"/>
<path d="M52.4382 45.78C52.4382 46.52 51.8782 47.66 50.8482 48.31C50.8382 48.32 50.8282 48.32 50.8182 48.33C50.3082 48.64 49.7582 48.79 49.1482 48.79C48.4182 48.78 47.6782 48.63 47.0282 48.29C47.0182 48.28 47.0082 48.28 46.9982 48.28C45.9882 47.73 45.4082 46.82 45.4082 45.78C45.4082 43.97 46.3982 42.04 49.1582 42.04C49.8382 42.04 50.4182 42.2 50.8982 42.52C50.8982 42.52 50.9082 42.53 50.9182 42.53C52.1182 43.33 52.4382 44.95 52.4382 45.78Z" fill="#F5370D"/>
</g>
<defs>
<clipPath id="clip0_1268_5821">
<rect width="50" height="55" fill="white" transform="translate(10.3779 1)"/>
</clipPath>
</defs>
</svg>
