<svg width="70" height="70" viewBox="0 0 70 70" fill="none" xmlns="http://www.w3.org/2000/svg">
<g clip-path="url(#clip0_1268_5826)">
<path d="M47.62 14.97H21.91C19.79 14.97 18.52 16.24 18.52 18.37V50.79C18.52 53.13 20.28 54.19 21.91 54.19H48.1C50.18 54.19 51.48 52.43 51.48 50.79V18.85C51.48 16.49 49.96 14.97 47.62 14.97ZM49.48 50.79C49.48 51.47 48.95 52.19 48.1 52.19H21.91C21.39 52.19 20.52 52.01 20.52 50.79V18.37C20.52 17.36 20.91 16.97 21.91 16.97H47.62C49.48 16.97 49.48 18.38 49.48 18.85V50.79ZM47.62 14.97H21.91C19.79 14.97 18.52 16.24 18.52 18.37V50.79C18.52 53.13 20.28 54.19 21.91 54.19H48.1C50.18 54.19 51.48 52.43 51.48 50.79V18.85C51.48 16.49 49.96 14.97 47.62 14.97ZM49.48 50.79C49.48 51.47 48.95 52.19 48.1 52.19H21.91C21.39 52.19 20.52 52.01 20.52 50.79V18.37C20.52 17.36 20.91 16.97 21.91 16.97H47.62C49.48 16.97 49.48 18.38 49.48 18.85V50.79ZM51.19 9.2H44.65C44.17 8.38 43.16 7.04 41.67 7.04H39.86C39.44 5.4 38.16 2 34.76 2C31.36 2 29.94 5.43 29.46 7.04H27.14C25.43 7.04 24.56 8.33 24.2 9.44H18.81C15.87 9.44 14 13.31 14 15.97V52.47C14 56.5 16.48 59 20.48 59H50.24C53.63 59 56 55.94 56 53.19V14.77C56 11.28 53.56 9.2 51.19 9.2ZM26 10.51C26.04 10.26 26.25 9.04 27.14 9.04H30.24C30.72 9.04 31.13 8.7 31.22 8.23C31.23 8.19 32.05 4 34.76 4C37.47 4 38.05 8.14 38.06 8.18C38.13 8.68 38.55 9.04 39.05 9.04H41.67C42.12 9.04 42.72 9.8 43.05 10.43V11.85H26V10.51ZM54 53.19C54 54.78 52.57 57 50.24 57H20.48C17.59 57 16 55.39 16 52.47V15.97C16 13.99 17.36 11.44 18.81 11.44H24V12.85C24 13.4 24.45 13.85 25 13.85H44.05C44.6 13.85 45.05 13.4 45.05 12.85V11.2H51.19C52.28 11.2 54 12.17 54 14.77V53.19ZM47.62 14.97H21.91C19.79 14.97 18.52 16.24 18.52 18.37V50.79C18.52 53.13 20.28 54.19 21.91 54.19H48.1C50.18 54.19 51.48 52.43 51.48 50.79V18.85C51.48 16.49 49.96 14.97 47.62 14.97ZM49.48 50.79C49.48 51.47 48.95 52.19 48.1 52.19H21.91C21.39 52.19 20.52 52.01 20.52 50.79V18.37C20.52 17.36 20.91 16.97 21.91 16.97H47.62C49.48 16.97 49.48 18.38 49.48 18.85V50.79ZM47.62 14.97H21.91C19.79 14.97 18.52 16.24 18.52 18.37V50.79C18.52 53.13 20.28 54.19 21.91 54.19H48.1C50.18 54.19 51.48 52.43 51.48 50.79V18.85C51.48 16.49 49.96 14.97 47.62 14.97ZM49.48 50.79C49.48 51.47 48.95 52.19 48.1 52.19H21.91C21.39 52.19 20.52 52.01 20.52 50.79V18.37C20.52 17.36 20.91 16.97 21.91 16.97H47.62C49.48 16.97 49.48 18.38 49.48 18.85V50.79ZM47.62 14.97H21.91C19.79 14.97 18.52 16.24 18.52 18.37V50.79C18.52 53.13 20.28 54.19 21.91 54.19H48.1C50.18 54.19 51.48 52.43 51.48 50.79V18.85C51.48 16.49 49.96 14.97 47.62 14.97ZM49.48 50.79C49.48 51.47 48.95 52.19 48.1 52.19H21.91C21.39 52.19 20.52 52.01 20.52 50.79V18.37C20.52 17.36 20.91 16.97 21.91 16.97H47.62C49.48 16.97 49.48 18.38 49.48 18.85V50.79Z" fill="#272729"/>
<path d="M49.4795 18.85V50.79C49.4795 51.47 48.9495 52.19 48.0995 52.19H21.9095C21.3895 52.19 20.5195 52.01 20.5195 50.79V18.37C20.5195 17.36 20.9095 16.97 21.9095 16.97H47.6195C49.4795 16.97 49.4795 18.38 49.4795 18.85Z" fill="#FFD500"/>
<path d="M45.0399 30.9999L33.2499 42.0299L27.1699 36.3299L30.4899 33.2399L33.2399 35.8099L41.7099 27.8999L45.0399 30.9999Z" fill="#F5370D"/>
<path d="M41.7104 26.7099L33.2404 34.61L30.4904 32.0499L25.9004 36.33L33.2604 43.22L46.3204 30.99L41.7104 26.7V26.7099ZM30.4904 33.24L33.2404 35.81L41.7104 27.9L45.0504 31L33.2604 42.0299L27.1704 36.34L30.4904 33.25V33.24Z" fill="#272729"/>
</g>
<defs>
<clipPath id="clip0_1268_5826">
<rect width="42" height="57" fill="white" transform="translate(14 2)"/>
</clipPath>
</defs>
</svg>
