<svg width="70" height="70" viewBox="0 0 70 70" fill="none" xmlns="http://www.w3.org/2000/svg">
<g clip-path="url(#clip0_1268_5824)">
<path d="M51.1496 28.33C51.1496 30.44 50.7796 32.4501 49.9596 34.4701C49.1396 36.3901 47.9396 38.13 46.4796 39.69C44.9196 41.16 43.1796 42.3501 41.2596 43.0801C37.3196 44.7301 32.9196 44.7301 28.9896 43.0801C27.0696 42.3501 25.3296 41.16 23.7696 39.69C22.2996 38.13 21.1096 36.3901 20.2896 34.4701C19.5596 32.4501 19.0996 30.44 19.0996 28.33C19.0996 24.03 20.7496 19.99 23.7696 16.97C26.7896 13.95 30.8196 12.3 35.1296 12.3C39.4396 12.3 43.4696 13.95 46.4896 16.97C49.5096 19.99 51.1596 24.02 51.1596 28.33H51.1496Z" fill="#FFD500"/>
<path d="M32.5604 13.58C33.1004 13.48 33.4604 12.96 33.3604 12.42C33.2604 11.88 32.7404 11.52 32.2004 11.62C28.8004 12.24 25.7204 13.85 23.2804 16.29C20.8404 18.73 19.2204 21.81 18.6104 25.21C18.5104 25.75 18.8704 26.27 19.4104 26.37C19.4704 26.38 19.5304 26.39 19.5904 26.39C20.0604 26.39 20.4904 26.05 20.5704 25.57C21.1104 22.58 22.5404 19.86 24.6904 17.71C26.8404 15.56 29.5604 14.13 32.5504 13.59L32.5604 13.58Z" fill="#272729"/>
<path d="M38.9298 13.81C41.6898 14.52 44.1698 16 46.1098 18.09C48.0498 20.18 49.3398 22.76 49.8498 25.56C49.9398 26.04 50.3598 26.38 50.8299 26.38C50.8899 26.38 50.9498 26.38 51.0098 26.36C51.5498 26.26 51.9099 25.74 51.8098 25.2C51.2298 22.02 49.7598 19.09 47.5598 16.73C45.3598 14.36 42.5498 12.68 39.4198 11.87C38.8798 11.73 38.3398 12.05 38.1998 12.59C38.0598 13.13 38.3798 13.67 38.9198 13.81H38.9298Z" fill="#272729"/>
<path d="M63.6498 24.99C63.4298 24.8 63.1298 24.72 62.8398 24.77L58.7398 25.46C57.4498 14.39 48.5498 5.69001 37.4598 4.65001L37.8698 1.13001C37.8998 0.85001 37.8098 0.56001 37.6198 0.35001C37.4298 0.14001 37.1598 0.0100098 36.8698 0.0100098H33.4298C33.1398 0.0100098 32.8698 0.13001 32.6798 0.35001C32.4898 0.57001 32.3998 0.85001 32.4398 1.14001L32.8798 4.66001C21.8798 5.73001 13.0298 14.38 11.7098 25.36L8.16977 24.77C7.87977 24.72 7.57977 24.8 7.35977 24.99C7.13977 25.18 7.00977 25.46 7.00977 25.75V29.87C7.00977 30.15 7.12977 30.43 7.33977 30.62C7.54977 30.81 7.82977 30.9 8.11977 30.87L11.6498 30.47C12.7098 41.79 21.6098 50.7 32.9298 51.79L32.4498 55.89C32.4198 56.17 32.5098 56.46 32.6998 56.67C32.8898 56.88 33.1598 57 33.4498 57H36.8898C37.1698 57 37.4398 56.88 37.6298 56.67C37.8198 56.46 37.9098 56.18 37.8798 55.89L37.4398 51.79C48.8398 50.75 57.7798 41.8 58.8098 30.4L62.8998 30.86C63.1798 30.9 63.4698 30.8 63.6798 30.61C63.8898 30.42 64.0098 30.15 64.0098 29.86V25.74C64.0098 25.45 63.8798 25.17 63.6598 24.98L63.6498 24.99ZM35.7498 2.00001L35.3498 5.44001C35.3498 5.44001 35.3498 5.45001 35.3498 5.46001L35.1798 6.88001L35.0098 5.50001C35.0098 5.50001 35.0098 5.47001 35.0098 5.45001L34.5798 2.01001H35.7598L35.7498 2.00001ZM12.4398 28.37L8.99977 28.76V26.93L12.4198 27.5H12.4398L15.5198 28.02L12.4598 28.36C12.4598 28.36 12.4498 28.36 12.4398 28.36V28.37ZM34.5598 55L35.0298 50.99C35.0298 50.99 35.0298 50.98 35.0298 50.97L35.1798 49.65L35.3198 50.97L35.7498 55H34.5498H34.5598ZM37.2098 49.81L36.2098 40.59C36.1598 40.08 35.7298 39.7 35.2198 39.7C34.7098 39.7 34.2898 40.08 34.2298 40.58L33.1598 49.8C22.7698 48.83 14.5998 40.64 13.6398 30.25L22.8598 29.21C23.3598 29.15 23.7298 28.74 23.7498 28.24C23.7598 27.74 23.4098 27.31 22.9198 27.23L13.6898 25.69C14.8598 15.58 22.9998 7.60001 33.1398 6.63001L34.2298 15.3C34.2898 15.8 34.7198 16.18 35.2198 16.18C35.7298 16.18 36.1498 15.8 36.2098 15.3L37.2198 6.64001C47.4198 7.58001 55.6198 15.6 56.7598 25.79L48.0898 27.24C47.5998 27.32 47.2398 27.75 47.2598 28.25C47.2698 28.75 47.6498 29.16 48.1498 29.22L56.8098 30.19C55.8798 40.65 47.6698 48.87 37.2098 49.81ZM61.9998 28.76L57.9898 28.31C57.9898 28.31 57.9798 28.31 57.9698 28.31L55.4698 28.03L61.9898 26.94V28.76H61.9998Z" fill="#272729"/>
<path d="M38.15 25.85C36.74 24.43 34.26 24.43 32.85 25.85C32.14 26.55 31.75 27.5 31.75 28.5C31.75 28.99 31.85 29.48 32.04 29.93C32.23 30.39 32.5 30.8 32.85 31.15C33.2 31.5 33.61 31.77 34.07 31.96C34.52 32.15 35.01 32.25 35.5 32.25C35.99 32.25 36.48 32.15 36.94 31.96C37.39 31.77 37.8 31.5 38.15 31.15C38.5 30.8 38.78 30.39 38.97 29.93C39.15 29.48 39.25 28.99 39.25 28.5C39.25 27.5 38.86 26.55 38.15 25.85ZM37.12 29.17C37.03 29.38 36.9 29.57 36.74 29.74C36.57 29.9 36.38 30.03 36.17 30.11C35.74 30.29 35.26 30.29 34.83 30.11C34.62 30.03 34.43 29.9 34.26 29.74C34.1 29.57 33.97 29.38 33.88 29.17C33.8 28.95 33.75 28.73 33.75 28.5C33.75 28.03 33.93 27.59 34.26 27.26C34.59 26.93 35.03 26.75 35.5 26.75C35.97 26.75 36.41 26.93 36.74 27.26C37.07 27.59 37.25 28.03 37.25 28.5C37.25 28.73 37.21 28.95 37.12 29.17Z" fill="#272729"/>
<path d="M38.0297 28.5C38.0297 28.83 37.9697 29.15 37.8397 29.47C37.7097 29.77 37.5197 30.05 37.2897 30.29C37.0397 30.52 36.7697 30.71 36.4697 30.83C35.8497 31.09 35.1497 31.09 34.5297 30.83C34.2297 30.71 33.9497 30.53 33.7097 30.29C33.4797 30.04 33.2897 29.77 33.1597 29.47C33.0397 29.15 32.9697 28.83 32.9697 28.5C32.9697 27.82 33.2297 27.18 33.7097 26.71C34.1897 26.23 34.8197 25.97 35.4997 25.97C36.1797 25.97 36.8197 26.23 37.2897 26.71C37.7697 27.19 38.0297 27.82 38.0297 28.5Z" fill="#F5370D"/>
<path d="M30.5297 40.35C30.0297 40.12 29.4397 40.34 29.1997 40.84L28.0697 43.31C27.8397 43.81 28.0597 44.41 28.5597 44.64C28.6897 44.7 28.8397 44.73 28.9797 44.73C29.3597 44.73 29.7197 44.51 29.8897 44.15L31.0197 41.68C31.2497 41.18 31.0297 40.58 30.5297 40.35Z" fill="#272729"/>
<path d="M38.4003 42.75C37.8603 42.87 37.5203 43.4 37.6403 43.94C37.7403 44.41 38.1603 44.73 38.6203 44.73C38.6903 44.73 38.7603 44.73 38.8403 44.71C42.1003 43.99 45.0503 42.34 47.3703 39.94C49.6903 37.53 51.2303 34.53 51.8303 31.24C51.9303 30.7 51.5703 30.18 51.0303 30.08C50.4903 29.98 49.9703 30.34 49.8703 30.88C49.3403 33.78 47.9803 36.43 45.9403 38.55C43.9003 40.67 41.2903 42.13 38.4203 42.76L38.4003 42.75Z" fill="#272729"/>
<path d="M25.4404 37.72L23.1704 39.99C22.7804 40.38 22.7804 41.01 23.1704 41.4C23.3704 41.6 23.6204 41.69 23.8804 41.69C24.1404 41.69 24.3904 41.59 24.5904 41.4L26.8604 39.13C27.2504 38.74 27.2504 38.11 26.8604 37.72C26.4704 37.33 25.8404 37.33 25.4504 37.72H25.4404Z" fill="#272729"/>
<path d="M24.1696 33.37C23.8896 32.9 23.2696 32.74 22.7996 33.03L19.9696 34.73C19.4996 35.01 19.3396 35.63 19.6296 36.1C19.8196 36.41 20.1496 36.59 20.4896 36.59C20.6596 36.59 20.8396 36.54 20.9996 36.45L23.8296 34.75C24.2996 34.47 24.4596 33.85 24.1696 33.38V33.37Z" fill="#272729"/>
</g>
<defs>
<clipPath id="clip0_1268_5824">
<rect width="57" height="57" fill="white" transform="translate(7)"/>
</clipPath>
</defs>
</svg>
