<svg width="134" height="134" viewBox="0 0 134 134" fill="none" xmlns="http://www.w3.org/2000/svg">
<path d="M43.4109 112.25C44.0709 112.25 44.6109 111.71 44.6109 111.05V13.41H90.5309V111.05C90.5309 111.72 91.0709 112.25 91.7309 112.25C92.3909 112.25 92.9309 111.71 92.9309 111.05V12.2C92.9309 11.54 92.3909 11 91.7309 11H43.4109C42.7509 11 42.2109 11.54 42.2109 12.2V111.05C42.2109 111.72 42.7509 112.25 43.4109 112.25Z" fill="white"/>
<path d="M92.9796 115.91H82.4196V92.3602C82.4196 91.7002 81.8796 91.1602 81.2196 91.1602H53.9596C53.2996 91.1602 52.7596 91.7002 52.7596 92.3602V115.91H40.0496C39.3896 115.91 38.8496 116.45 38.8496 117.11V122.21C38.8496 122.88 39.3896 123.41 40.0496 123.41C40.7096 123.41 41.2496 122.87 41.2496 122.21V118.31H92.9896C93.6496 118.31 94.1896 117.77 94.1896 117.1C94.1896 116.43 93.6496 115.9 92.9896 115.9L92.9796 115.91ZM55.1596 93.5702H61.8396V115.92H55.1596V93.5702ZM64.2496 93.5702H70.9296V115.92H64.2496V93.5702ZM73.3396 115.92V93.5702H80.0196V115.92H73.3396Z" fill="white"/>
<path d="M37.63 34.55H14.2C13.54 34.55 13 35.09 13 35.75V74.1301C13 74.7901 13.54 75.3301 14.2 75.3301C14.86 75.3301 15.4 74.7901 15.4 74.1301V36.96H37.63C38.29 36.96 38.83 36.42 38.83 35.76C38.83 35.1 38.29 34.56 37.63 34.56V34.55Z" fill="white"/>
<path d="M121.8 34.55H98.3699C97.7099 34.55 97.1699 35.09 97.1699 35.75C97.1699 36.41 97.7099 36.9501 98.3699 36.9501H120.6V113.26C119.84 112.73 118.91 112.41 117.92 112.41C117.01 112.41 116.14 112.67 115.41 113.13C114.44 111.17 112.41 109.84 110.09 109.84C107.77 109.84 105.79 111.13 104.81 113.06C104.1 112.64 103.28 112.41 102.42 112.41C99.8299 112.41 97.7199 114.52 97.7199 117.11C97.7199 119.7 99.8299 121.81 102.42 121.81C103.25 121.81 104.62 121.79 106.08 121.76C107.59 121.74 109.14 121.71 110.09 121.71C111.09 121.71 112.66 121.73 114.18 121.76C115.65 121.79 117.05 121.81 117.91 121.81C120.22 121.81 122.15 120.12 122.53 117.92C122.81 117.7 123 117.36 123 116.97V35.76C123 35.1 122.46 34.56 121.8 34.56V34.55ZM117.92 119.39C117.07 119.39 115.69 119.37 114.23 119.34C112.7 119.32 111.12 119.29 110.1 119.29C109.08 119.29 107.56 119.31 106.05 119.34C104.6 119.36 103.23 119.39 102.43 119.39C101.17 119.39 100.14 118.36 100.14 117.1C100.14 115.84 101.17 114.81 102.43 114.81C103.23 114.81 103.96 115.22 104.38 115.9C104.65 116.34 105.17 116.56 105.67 116.44C106.17 116.32 106.55 115.9 106.6 115.39C106.79 113.59 108.3 112.24 110.11 112.24C111.92 112.24 113.53 113.71 113.63 115.57C113.66 116.11 114.05 116.57 114.58 116.68C115.11 116.79 115.65 116.54 115.9 116.05C116.29 115.28 117.07 114.8 117.94 114.8C119.2 114.8 120.23 115.83 120.23 117.09C120.23 118.35 119.2 119.38 117.94 119.38H117.92V119.39Z" fill="white"/>
<path d="M33.0004 44.9199H24.3504C23.6904 44.9199 23.1504 45.4599 23.1504 46.1199V58.3399C23.1504 58.9999 23.6904 59.5399 24.3504 59.5399H33.0004C33.6604 59.5399 34.2004 58.9999 34.2004 58.3399V46.1199C34.2004 45.4599 33.6604 44.9199 33.0004 44.9199ZM31.8004 57.1399H25.5604V47.3299H31.8004V57.1399Z" fill="white"/>
<path d="M62.6 44.9299H53.95C53.29 44.9299 52.75 45.4699 52.75 46.1299V58.3499C52.75 59.0099 53.29 59.5499 53.95 59.5499H62.6C63.26 59.5499 63.8 59.0099 63.8 58.3499V46.1299C63.8 45.4699 63.26 44.9299 62.6 44.9299ZM61.39 57.1399H55.15V47.3299H61.39V57.1399Z" fill="white"/>
<path d="M61.3904 46.8301H55.1504C54.8742 46.8301 54.6504 47.0539 54.6504 47.3301V57.1401C54.6504 57.4162 54.8742 57.6401 55.1504 57.6401H61.3904C61.6665 57.6401 61.8904 57.4162 61.8904 57.1401V47.3301C61.8904 47.0539 61.6665 46.8301 61.3904 46.8301Z" fill="#F5370D"/>
<path d="M61.3904 47.3301V57.1401H55.1504V47.3301H61.3904ZM61.3904 46.3301H55.1504C54.6004 46.3301 54.1504 46.7801 54.1504 47.3301V57.1401C54.1504 57.6901 54.6004 58.1401 55.1504 58.1401H61.3904C61.9404 58.1401 62.3904 57.6901 62.3904 57.1401V47.3301C62.3904 46.7801 61.9404 46.3301 61.3904 46.3301Z" fill="#272729"/>
<path d="M81.2992 22.3401H72.6492C71.9892 22.3401 71.4492 22.8801 71.4492 23.5401V35.7601C71.4492 36.4201 71.9892 36.9601 72.6492 36.9601H81.2992C81.9592 36.9601 82.4992 36.4201 82.4992 35.7601V23.5401C82.4992 22.8801 81.9592 22.3401 81.2992 22.3401ZM80.0892 34.5501H73.8492V24.7401H80.0892V34.5501Z" fill="white"/>
<path d="M80.0896 24.24H73.8496C73.5735 24.24 73.3496 24.4638 73.3496 24.74V34.55C73.3496 34.8261 73.5735 35.05 73.8496 35.05H80.0896C80.3657 35.05 80.5896 34.8261 80.5896 34.55V24.74C80.5896 24.4638 80.3657 24.24 80.0896 24.24Z" fill="#F5370D"/>
<path d="M80.0896 24.74V34.55H73.8496V24.74H80.0896ZM80.0896 23.74H73.8496C73.2996 23.74 72.8496 24.19 72.8496 24.74V34.55C72.8496 35.1 73.2996 35.55 73.8496 35.55H80.0896C80.6396 35.55 81.0896 35.1 81.0896 34.55V24.74C81.0896 24.19 80.6396 23.74 80.0896 23.74Z" fill="#272729"/>
<path d="M81.2895 67.51H72.6395C71.9795 67.51 71.4395 68.05 71.4395 68.71V80.93C71.4395 81.59 71.9795 82.13 72.6395 82.13H81.2895C81.9495 82.13 82.4895 81.59 82.4895 80.93V68.71C82.4895 68.05 81.9495 67.51 81.2895 67.51ZM80.0895 79.73H73.8495V69.92H80.0895V79.73Z" fill="white"/>
<path d="M80.0896 69.4199H73.8496C73.5735 69.4199 73.3496 69.6438 73.3496 69.9199V79.7299C73.3496 80.0061 73.5735 80.2299 73.8496 80.2299H80.0896C80.3657 80.2299 80.5896 80.0061 80.5896 79.7299V69.9199C80.5896 69.6438 80.3657 69.4199 80.0896 69.4199Z" fill="#F5370D"/>
<path d="M80.0896 69.9199V79.7299H73.8496V69.9199H80.0896ZM80.0896 68.9199H73.8496C73.2996 68.9199 72.8496 69.3699 72.8496 69.9199V79.7299C72.8496 80.2799 73.2996 80.7299 73.8496 80.7299H80.0896C80.6396 80.7299 81.0896 80.2799 81.0896 79.7299V69.9199C81.0896 69.3699 80.6396 68.9199 80.0896 68.9199Z" fill="#272729"/>
<path d="M102.399 59.5499H111.049C111.709 59.5499 112.249 59.0099 112.249 58.3499V46.1299C112.249 45.4699 111.709 44.9299 111.049 44.9299H102.399C101.739 44.9299 101.199 45.4699 101.199 46.1299V58.3499C101.199 59.0099 101.739 59.5499 102.399 59.5499ZM103.599 47.3299H109.839V57.1399H103.599V47.3299Z" fill="white"/>
<path d="M101.199 80.2401C101.199 80.9001 101.739 81.4401 102.399 81.4401H111.049C111.709 81.4401 112.249 80.9001 112.249 80.2401V68.0201C112.249 67.3601 111.709 66.8201 111.049 66.8201H102.399C101.739 66.8201 101.199 67.3601 101.199 68.0201V80.2401ZM103.609 69.2301H109.849V79.0401H103.609V69.2301Z" fill="white"/>
<path d="M101.199 102.13C101.199 102.79 101.739 103.33 102.399 103.33H111.049C111.709 103.33 112.249 102.79 112.249 102.13V89.91C112.249 89.25 111.709 88.71 111.049 88.71H102.399C101.739 88.71 101.199 89.25 101.199 89.91V102.13ZM103.609 91.12H109.849V100.93H103.609V91.12Z" fill="white"/>
<path d="M33.0004 67.49H24.3504C23.6904 67.49 23.1504 68.03 23.1504 68.69V74.12C23.1504 74.78 23.6904 75.32 24.3504 75.32C25.0104 75.32 25.5504 74.78 25.5504 74.12V69.89H31.7904V80.9C31.7904 81.56 32.3304 82.1 32.9904 82.1C33.6504 82.1 34.1904 81.56 34.1904 80.9V68.68C34.1904 68.02 33.6504 67.48 32.9904 67.48H33.0004V67.49Z" fill="white"/>
<path d="M21.6003 79.1299C18.8603 79.1299 16.8703 82.8099 15.6803 85.8999C14.2003 89.7499 13.3203 94.4599 13.3203 98.4999C13.3203 101.9 13.9103 104.66 15.0603 106.7C16.2703 108.85 18.1003 110.12 20.3903 110.45V122.21C20.3903 122.88 20.9303 123.41 21.5903 123.41C22.2503 123.41 22.7903 122.87 22.7903 122.21V110.45C25.0803 110.12 26.9103 108.84 28.1203 106.7C29.2803 104.66 29.8603 101.9 29.8603 98.4999C29.8603 94.4499 28.9803 89.7399 27.5003 85.8999C26.3203 82.8099 24.3303 79.1299 21.5803 79.1299H21.6003ZM26.0403 105.52C25.0503 107.28 23.6003 108.14 21.6003 108.14C19.6003 108.14 18.1603 107.28 17.1603 105.52C16.2303 103.86 15.7303 101.44 15.7303 98.4999C15.7303 94.7299 16.5503 90.3399 17.9303 86.7599C19.4003 82.9299 20.9303 81.5399 21.6003 81.5399C22.2703 81.5399 23.8003 82.9299 25.2703 86.7599C26.6503 90.3399 27.4703 94.7299 27.4703 98.4999C27.4703 101.44 26.9803 103.86 26.0403 105.52Z" fill="white"/>
<path d="M81.2406 44.9299H72.5906C71.9306 44.9299 71.3906 45.4699 71.3906 46.1299V58.3499C71.3906 59.0099 71.9306 59.5499 72.5906 59.5499H81.2406C81.9006 59.5499 82.4406 59.0099 82.4406 58.3499V46.1299C82.4406 45.4699 81.9006 44.9299 81.2406 44.9299ZM80.0306 57.1399H73.7906V47.3299H80.0306V57.1399Z" fill="white"/>
<path d="M80.031 46.8298H73.791C73.5149 46.8298 73.291 47.0537 73.291 47.3298V57.1398C73.291 57.416 73.5149 57.6398 73.791 57.6398H80.031C80.3072 57.6398 80.531 57.416 80.531 57.1398V47.3298C80.531 47.0537 80.3072 46.8298 80.031 46.8298Z" fill="#FFD300"/>
<path d="M80.031 47.3298V57.1398H73.791V47.3298H80.031ZM80.031 46.3298H73.791C73.241 46.3298 72.791 46.7798 72.791 47.3298V57.1398C72.791 57.6898 73.241 58.1398 73.791 58.1398H80.031C80.581 58.1398 81.031 57.6898 81.031 57.1398V47.3298C81.031 46.7798 80.581 46.3298 80.031 46.3298Z" fill="#272729"/>
<path d="M62.5395 67.46H53.8895C53.2295 67.46 52.6895 68 52.6895 68.66V80.88C52.6895 81.54 53.2295 82.08 53.8895 82.08H62.5395C63.1995 82.08 63.7395 81.54 63.7395 80.88V68.66C63.7395 68 63.1995 67.46 62.5395 67.46ZM61.3295 79.67H55.0895V69.86H61.3295V79.67Z" fill="white"/>
<path d="M61.3298 69.3599H55.0898C54.8137 69.3599 54.5898 69.5837 54.5898 69.8599V79.6699C54.5898 79.946 54.8137 80.1699 55.0898 80.1699H61.3298C61.606 80.1699 61.8298 79.946 61.8298 79.6699V69.8599C61.8298 69.5837 61.606 69.3599 61.3298 69.3599Z" fill="#FFD300"/>
<path d="M61.3298 69.8599V79.6699H55.0898V69.8599H61.3298ZM61.3298 68.8599H55.0898C54.5398 68.8599 54.0898 69.3099 54.0898 69.8599V79.6699C54.0898 80.2199 54.5398 80.6699 55.0898 80.6699H61.3298C61.8798 80.6699 62.3298 80.2199 62.3298 79.6699V69.8599C62.3298 69.3099 61.8798 68.8599 61.3298 68.8599Z" fill="#272729"/>
<path d="M62.5395 22.3401H53.8895C53.2295 22.3401 52.6895 22.8801 52.6895 23.5401V35.7601C52.6895 36.4201 53.2295 36.9601 53.8895 36.9601H62.5395C63.1995 36.9601 63.7395 36.4201 63.7395 35.7601V23.5401C63.7395 22.8801 63.1995 22.3401 62.5395 22.3401ZM61.3295 34.5501H55.0895V24.7401H61.3295V34.5501Z" fill="white"/>
<path d="M61.3298 24.24H55.0898C54.8137 24.24 54.5898 24.4638 54.5898 24.74V34.55C54.5898 34.8261 54.8137 35.05 55.0898 35.05H61.3298C61.606 35.05 61.8298 34.8261 61.8298 34.55V24.74C61.8298 24.4638 61.606 24.24 61.3298 24.24Z" fill="#FFD300"/>
<path d="M61.3298 24.74V34.55H55.0898V24.74H61.3298ZM61.3298 23.74H55.0898C54.5398 23.74 54.0898 24.19 54.0898 24.74V34.55C54.0898 35.1 54.5398 35.55 55.0898 35.55H61.3298C61.8798 35.55 62.3298 35.1 62.3298 34.55V24.74C62.3298 24.19 61.8798 23.74 61.3298 23.74Z" fill="#272729"/>
</svg>
