<svg width="134" height="134" viewBox="0 0 134 134" fill="none" xmlns="http://www.w3.org/2000/svg">
<path d="M74.312 73.5366C71.4118 68.7036 60.8125 50.533 60.8125 43.1706C60.8125 35.8082 66.8687 29.6689 74.312 29.6689C81.7554 29.6689 87.8137 35.7251 87.8137 43.1706C87.8137 50.6161 77.2123 68.7036 74.312 73.5366Z" fill="#FFD405"/>
<path d="M74.3109 30.5214C81.2855 30.5214 86.9602 36.1961 86.9602 43.1707C86.9602 49.2823 78.8392 64.2458 74.3109 71.8852C69.7826 64.2479 61.6637 49.2844 61.6637 43.1707C61.6637 36.1961 67.3363 30.5214 74.3109 30.5214ZM74.3109 28.8167C66.3838 28.8167 59.959 35.2436 59.959 43.1707C59.959 51.9992 74.3109 75.1796 74.3109 75.1796C74.3109 75.1796 88.665 51.9992 88.665 43.1707C88.665 35.2436 82.238 28.8167 74.3109 28.8167Z" fill="#010101"/>
<path d="M94.5926 107.962H85.7684C85.2975 107.962 84.916 107.58 84.916 107.11V73.9456C84.916 73.4747 85.2975 73.0933 85.7684 73.0933H98.1684C98.6393 73.0933 99.0207 73.4747 99.0207 73.9456V103.534C99.0207 105.976 97.0347 107.962 94.5926 107.962ZM86.6208 106.257H94.5926C96.095 106.257 97.316 105.036 97.316 103.534V74.798H86.6208V106.257Z" fill="white"/>
<path d="M45.9416 107.962H34.4281C31.986 107.962 30 105.976 30 103.534V61.7079C30 59.2658 31.986 57.2798 34.4281 57.2798H45.9395C46.4104 57.2798 46.7919 57.6612 46.7919 58.1322V107.112C46.7919 107.583 46.4104 107.964 45.9395 107.964L45.9416 107.962ZM34.4281 58.9845C32.9258 58.9845 31.7048 60.2077 31.7048 61.7079V103.534C31.7048 105.036 32.9258 106.257 34.4281 106.257H45.0871V58.9845H34.4281Z" fill="white"/>
<path d="M85.7675 107.962H45.9422C45.4713 107.962 45.0898 107.58 45.0898 107.109C45.0898 106.639 45.4713 106.257 45.9422 106.257H85.7675C86.2384 106.257 86.6199 106.639 86.6199 107.109C86.6199 107.58 86.2384 107.962 85.7675 107.962Z" fill="white"/>
<path d="M58.4061 58.9845H45.9422C45.4713 58.9845 45.0898 58.6031 45.0898 58.1322C45.0898 57.6612 45.4713 57.2798 45.9422 57.2798H58.4061C58.8771 57.2798 59.2585 57.6612 59.2585 58.1322C59.2585 58.6031 58.8771 58.9845 58.4061 58.9845Z" fill="white"/>
<path d="M98.1659 74.7983C97.695 74.7983 97.3135 74.4169 97.3135 73.9459V61.5417C97.3135 60.131 96.1671 58.9845 94.7564 58.9845H90.0086C89.5377 58.9845 89.1562 58.6031 89.1562 58.1322C89.1562 57.6612 89.5377 57.2798 90.0086 57.2798H94.7564C97.1068 57.2798 99.0183 59.1912 99.0183 61.5417V73.9459C99.0183 74.4169 98.6368 74.7983 98.1659 74.7983Z" fill="white"/>
<path d="M56.0061 70.4594H30.8524C30.3814 70.4594 30 70.078 30 69.607C30 69.1361 30.3814 68.7546 30.8524 68.7546H56.0061C56.477 68.7546 56.8584 69.1361 56.8584 69.607C56.8584 70.078 56.477 70.4594 56.0061 70.4594Z" fill="white"/>
<path d="M85.765 85.9108H77.1688C76.6978 85.9108 76.3164 85.5294 76.3164 85.0584C76.3164 84.5875 76.6978 84.2061 77.1688 84.2061H85.765C86.236 84.2061 86.6174 84.5875 86.6174 85.0584C86.6174 85.5294 86.236 85.9108 85.765 85.9108Z" fill="white"/>
<path d="M61.6121 107.962C61.1412 107.962 60.7598 107.581 60.7598 107.11V80.9779C60.7598 80.7478 60.8514 80.5304 61.0155 80.3685L65.8037 75.6762C66.1404 75.3459 66.6795 75.3522 67.0098 75.6889C67.3401 76.0256 67.3337 76.5648 66.997 76.8951L62.4645 81.3359V107.11C62.4645 107.581 62.0831 107.962 61.6121 107.962Z" fill="white"/>
<path d="M61.6111 94.6371H45.9422C45.4713 94.6371 45.0898 94.2557 45.0898 93.7848C45.0898 93.3138 45.4713 92.9324 45.9422 92.9324H61.6111C62.082 92.9324 62.4634 93.3138 62.4634 93.7848C62.4634 94.2557 62.082 94.6371 61.6111 94.6371Z" fill="white"/>
<path d="M80.4282 43.1703C80.4282 46.5457 77.6921 49.2819 74.3166 49.2819C70.9412 49.2819 68.2051 46.5457 68.2051 43.1703C68.2051 39.7949 70.9412 37.0566 74.3166 37.0566C77.6921 37.0566 80.4282 39.7949 80.4282 43.1703Z" fill="#E73D1C"/>
<path d="M74.3156 76.0319C74.0194 76.0319 73.7467 75.8784 73.5911 75.6291C73.0008 74.6744 59.1113 52.1397 59.1113 43.1705C59.1113 34.7853 65.9325 27.9641 74.3156 27.9641C82.6988 27.9641 89.5221 34.7853 89.5221 43.1705C89.5221 52.1376 75.6326 74.6723 75.0402 75.6291C74.8846 75.8806 74.6097 76.0319 74.3156 76.0319ZM74.3156 29.6689C66.8722 29.6689 60.8161 35.725 60.8161 43.1705C60.8161 50.6161 71.4154 68.7035 74.3156 73.5365C77.2158 68.7035 87.8173 50.533 87.8173 43.1705C87.8173 35.8081 81.7612 29.6689 74.3156 29.6689Z" fill="white"/>
<path d="M74.3151 49.7082C70.7095 49.7082 67.7773 46.7761 67.7773 43.1705C67.7773 39.5649 70.7095 36.6306 74.3151 36.6306C77.9206 36.6306 80.8528 39.5649 80.8528 43.1705C80.8528 46.7761 77.9206 49.7082 74.3151 49.7082ZM74.3151 37.483C71.1805 37.483 68.6297 40.0337 68.6297 43.1705C68.6297 46.3072 71.1805 48.8559 74.3151 48.8559C77.4497 48.8559 80.0005 46.3051 80.0005 43.1705C80.0005 40.0359 77.4497 37.483 74.3151 37.483Z" fill="#010101"/>
</svg>
