<svg width="134" height="134" viewBox="0 0 134 134" fill="none" xmlns="http://www.w3.org/2000/svg">
<path d="M82.1489 26.03C78.9789 22.1 74.4889 19.64 69.4989 19.11C64.3189 18.55 59.3289 20.16 55.4689 23.64C51.2189 27.46 48.8689 33.02 48.8789 39.3V39.36C49.1989 45.77 53.0189 51.31 59.3289 54.57C59.7389 54.79 59.9189 54.98 60.0789 55.4C61.0589 57.93 62.0889 60.49 63.0789 62.97C63.5989 64.26 64.1189 65.56 64.6289 66.85C64.8889 67.48 65.5589 69.17 67.5489 69.17H67.5889C69.5689 69.15 70.2189 67.51 70.4989 66.82C70.9589 65.66 71.4189 64.51 71.8789 63.35C72.9389 60.71 74.0289 57.98 75.0789 55.27C75.2089 54.96 75.3489 54.81 75.7289 54.62C81.9189 51.48 85.4389 46.42 86.1789 39.57C86.6989 34.71 85.2689 29.9 82.1489 26.03ZM83.5589 39.28C82.9189 45.19 79.8789 49.55 74.5389 52.26C73.5789 52.75 72.9889 53.38 72.6289 54.32C71.5789 57.02 70.4889 59.74 69.4389 62.37C68.9789 63.53 68.5089 64.68 68.0489 65.84C67.7789 66.53 67.7089 66.53 67.5689 66.53C67.4289 66.53 67.3489 66.53 67.0889 65.87C66.5789 64.59 66.0589 63.3 65.5389 61.99C64.5489 59.52 63.5189 56.97 62.5489 54.44C62.1489 53.42 61.5289 52.74 60.5489 52.23C55.0189 49.38 51.8089 44.77 51.5189 39.26C51.5189 33.76 53.5489 28.91 57.2389 25.6C60.5389 22.63 64.7989 21.26 69.2289 21.73C73.5089 22.18 77.3789 24.3 80.1089 27.68C82.7789 31 84.0089 35.12 83.5589 39.28Z" fill="white"/>
<path d="M83.5595 39.2802C82.9195 45.1902 79.8795 49.5502 74.5395 52.2602C73.5795 52.7502 72.9895 53.3802 72.6295 54.3202C71.5795 57.0202 70.4895 59.7402 69.4395 62.3702C68.9795 63.5302 68.5095 64.6802 68.0495 65.8402C67.7795 66.5302 67.7095 66.5302 67.5695 66.5302C67.4295 66.5302 67.3495 66.5302 67.0895 65.8702C66.5795 64.5902 66.0595 63.3002 65.5395 61.9902C64.5495 59.5202 63.5195 56.9702 62.5495 54.4402C62.1495 53.4202 61.5295 52.7402 60.5495 52.2302C55.0195 49.3802 51.8095 44.7702 51.5195 39.2602C51.5195 33.7602 53.5495 28.9102 57.2395 25.6002C60.5395 22.6302 64.7995 21.2602 69.2295 21.7302C73.5095 22.1802 77.3795 24.3002 80.1095 27.6802C82.7795 31.0002 84.0095 35.1202 83.5595 39.2802Z" fill="#FFD500"/>
<path d="M67.5695 67.0301C67.0495 67.0301 66.8595 66.6601 66.6195 66.0501L64.7295 61.3101C63.8495 59.1101 62.9395 56.8501 62.0795 54.6101C61.7295 53.7101 61.1995 53.1201 60.3195 52.6601C54.6195 49.7201 51.3195 44.9701 51.0195 39.2701C51.0195 33.6001 53.1095 28.6201 56.8995 25.2101C60.2995 22.1501 64.6995 20.7301 69.2795 21.2101C73.6895 21.6701 77.6795 23.8501 80.4995 27.3401C83.2595 30.7701 84.5195 35.0201 84.0595 39.3101C83.3995 45.3901 80.2695 49.8901 74.7695 52.6801C73.9095 53.1201 73.4095 53.6501 73.0995 54.4701C72.1695 56.8701 71.2095 59.2701 70.2695 61.6201L69.9095 62.5301C69.6795 63.1201 69.4395 63.7001 69.1995 64.2901L68.5195 66.0001C68.2795 66.6201 68.0995 67.0101 67.5795 67.0101L67.5695 67.0301ZM67.5295 22.1401C63.8395 22.1401 60.3495 23.4701 57.5795 25.9701C53.9995 29.1801 52.0295 33.9001 52.0295 39.2601C52.3095 44.5601 55.4195 49.0201 60.7895 51.7901C61.8795 52.3601 62.5895 53.1401 63.0295 54.2601C63.8895 56.5001 64.7895 58.7501 65.6695 60.9501L67.5695 65.6901V65.7101C67.5695 65.7101 67.5895 65.6801 67.5995 65.6601L68.2895 63.9401C68.5295 63.3601 68.7595 62.7701 68.9895 62.1801L69.3495 61.2701C70.2895 58.9201 71.2495 56.5201 72.1795 54.1301C72.5795 53.0801 73.2495 52.3601 74.3295 51.8101C79.5195 49.1801 82.4595 44.9401 83.0795 39.2201C83.5095 35.2001 82.3295 31.2101 79.7395 27.9901C77.0895 24.7101 73.3495 22.6601 69.1995 22.2201C68.6495 22.1601 68.0995 22.1301 67.5495 22.1301L67.5295 22.1401Z" fill="#272729"/>
<path d="M67.571 95.9599C73.001 95.9599 77.431 91.5399 77.451 86.0999C77.451 83.4499 76.441 80.9599 74.571 79.0899C72.711 77.2199 70.221 76.1899 67.581 76.1899C64.941 76.1899 62.451 77.2299 60.591 79.0899C58.731 80.9499 57.701 83.4599 57.711 86.0999C57.731 91.5399 62.161 95.9599 67.581 95.9599H67.571ZM60.481 86.0099C60.491 82.1299 63.671 78.9799 67.571 78.9799C71.471 78.9799 74.661 82.1399 74.671 86.0199C74.671 87.9399 73.941 89.7399 72.611 91.0799C71.281 92.4199 69.491 93.1599 67.581 93.1699C65.671 93.1699 63.881 92.4299 62.551 91.0799C61.221 89.7399 60.481 87.9399 60.491 86.0199H60.481V86.0099Z" fill="white"/>
<path d="M98.2095 91.9799C103.31 91.9799 107.47 87.8299 107.48 82.7199C107.48 80.2299 106.53 77.8899 104.78 76.1399C103.03 74.3799 100.7 73.4099 98.2095 73.4099C95.7195 73.4099 93.3895 74.3799 91.6395 76.1399C89.8895 77.8999 88.9295 80.2399 88.9395 82.7199C88.9595 87.8299 93.1195 91.9799 98.2095 91.9799ZM91.5495 82.6399C91.5495 78.9999 94.5395 76.0299 98.2095 76.0299C101.88 76.0299 104.87 78.9899 104.88 82.6399C104.88 84.4499 104.19 86.1299 102.94 87.3999C101.69 88.6599 100.01 89.3599 98.2095 89.3599C96.4095 89.3599 94.7395 88.6599 93.4795 87.3999C92.2295 86.1399 91.5395 84.4499 91.5495 82.6399Z" fill="white"/>
<path d="M115.661 104.97C115.661 98.7501 111.181 93.5101 105.041 92.5101C104.261 92.3801 103.471 92.3701 102.801 92.3701H93.6211C92.9511 92.3701 92.1511 92.3901 91.3811 92.5101C87.1211 93.2001 83.5311 96.0001 81.8211 99.9101C79.8911 98.1201 77.4911 96.9501 74.8411 96.5301C74.0411 96.4001 73.2211 96.3801 72.4511 96.3701H62.6811C61.9111 96.3701 61.0911 96.3901 60.2911 96.5301C57.2811 97.0201 54.5611 98.4901 52.5311 100.71C50.9911 96.4301 47.2111 93.2601 42.6611 92.5201C41.8811 92.3901 41.0911 92.3801 40.4211 92.3801H31.2411C30.5711 92.3801 29.7711 92.4001 28.9911 92.5201C22.8511 93.5101 18.3911 98.7501 18.3711 104.98V114.28C18.3711 116.34 19.5911 117.58 21.6411 117.58H49.0011V119.7C49.0011 121.9 50.3011 123.21 52.4911 123.21H82.6811C84.8611 123.21 86.1611 121.9 86.1611 119.7V117.58H112.391C114.441 117.58 115.661 116.34 115.661 114.28V104.97ZM108.271 114.93H107.771V109.7C107.771 108.8 107.251 108.2 106.481 108.19C105.691 108.19 105.181 108.78 105.171 109.69V114.91H91.2611V109.69C91.2611 108.78 90.7511 108.19 89.9611 108.19C89.1711 108.19 88.6611 108.79 88.6611 109.7V114.92H86.1611V109.77C86.1611 107.02 85.3311 104.39 83.7911 102.15C84.8711 98.4201 87.9111 95.7301 91.8011 95.0901C92.6411 94.9501 93.5111 94.9401 94.4211 94.9301C94.6611 94.9301 94.9111 94.9301 95.1611 94.9201L95.0811 95.8201C95.0111 96.5501 94.9511 97.2501 94.8811 97.9601C94.8311 98.5301 94.7711 99.1001 94.7211 99.6701C94.5911 101.06 94.4511 102.49 94.3411 103.91C94.3111 104.37 94.4311 104.92 94.6711 105.37C95.2211 106.41 95.8211 107.46 96.3911 108.47C96.5711 108.79 96.7611 109.12 96.9411 109.44C97.3811 110.22 97.9211 110.34 98.2111 110.34C98.5011 110.34 99.0411 110.22 99.4911 109.44C99.6711 109.12 99.8611 108.79 100.041 108.47C100.611 107.46 101.211 106.42 101.761 105.37C102.001 104.92 102.131 104.37 102.091 103.91C101.981 102.48 101.841 101.03 101.711 99.6201C101.661 99.0701 101.601 98.5201 101.551 97.9601C101.481 97.2601 101.421 96.5501 101.361 95.8201L101.281 94.9201C101.531 94.9201 101.781 94.9301 102.021 94.9301C102.931 94.9401 103.801 94.9501 104.641 95.0901C109.591 95.9001 113.061 100.01 113.081 105.08V114.42C113.081 114.91 112.811 114.91 112.711 114.91H111.091C110.161 114.91 109.231 114.91 108.291 114.9L108.271 114.93ZM77.7511 114.84C77.7511 113.89 77.2011 113.24 76.3711 113.23C75.5311 113.23 74.9811 113.85 74.9811 114.82V120.38H60.1611V114.82C60.1611 113.85 59.6111 113.23 58.7811 113.23C57.9511 113.23 57.4011 113.86 57.3911 114.83V120.39H56.6711C55.7511 120.39 54.8211 120.4 53.9011 120.4H52.1511C52.0411 120.4 51.7611 120.4 51.7511 119.87V109.91C51.7511 107.95 52.2611 106.05 53.2011 104.42C54.7811 101.68 57.5311 99.8101 60.7311 99.2801C61.6211 99.1301 62.5411 99.1201 63.5211 99.1101C63.7811 99.1101 64.0411 99.1101 64.3111 99.1001C64.2111 100.22 64.1111 101.28 64.0111 102.33C63.9511 102.91 63.9011 103.49 63.8411 104.07C63.7011 105.57 63.5411 107.13 63.4311 108.66C63.3911 109.15 63.5211 109.73 63.7811 110.21C64.3911 111.36 65.0511 112.52 65.6811 113.63C65.8511 113.93 66.0311 114.24 66.2011 114.54C66.6711 115.38 67.2511 115.5 67.5511 115.5C67.8511 115.5 68.4311 115.37 68.9011 114.54C69.0711 114.24 69.2411 113.94 69.4111 113.63C70.0511 112.51 70.7011 111.36 71.3111 110.21C71.5711 109.73 71.7011 109.15 71.6611 108.66C71.5411 107.13 71.3911 105.57 71.2511 104.07C71.1911 103.49 71.1411 102.91 71.0811 102.33C71.0311 101.81 70.9911 101.28 70.9411 100.75C70.8911 100.21 70.8411 99.6601 70.7911 99.0901H71.5811C72.5511 99.0901 73.4711 99.1201 74.3711 99.2601C77.0311 99.6901 79.3911 101.06 81.0111 103.1C81.5411 103.76 81.9911 104.5 82.3511 105.28C83.0111 106.71 83.3411 108.26 83.3511 109.9V119.85C83.3511 120.37 83.0611 120.37 82.9511 120.37H77.7111V114.82L77.7511 114.84ZM99.4611 104.08C99.1111 104.81 98.7111 105.51 98.2711 106.26C98.2511 106.3 98.2211 106.34 98.2011 106.38C98.1711 106.33 98.1411 106.28 98.1211 106.24C97.6911 105.5 97.2911 104.81 96.9511 104.09C96.8911 103.97 96.9411 103.69 96.9711 103.46C96.9911 103.34 97.0011 103.23 97.0111 103.11C97.2511 100.55 97.5011 97.9901 97.7411 95.4301L97.7811 95.0101H98.6111L98.6511 95.4401C98.9011 98.0001 99.1411 100.55 99.3811 103.11C99.3911 103.23 99.4111 103.35 99.4211 103.46C99.4511 103.69 99.5011 103.97 99.4411 104.09H99.4611V104.08ZM68.9011 108.81C68.5311 109.58 68.1011 110.32 67.6511 111.11C67.6211 111.16 67.5911 111.21 67.5611 111.26C67.5311 111.21 67.5011 111.16 67.4711 111.11C67.0111 110.32 66.5811 109.58 66.2211 108.81C66.1611 108.69 66.2211 108.39 66.2511 108.14C66.2711 108.02 66.2911 107.89 66.3011 107.77C66.5211 105.42 66.7511 103.03 66.9711 100.72L67.1211 99.1401H68.0111L68.2011 101.15C68.4111 103.35 68.6211 105.56 68.8311 107.76C68.8311 107.89 68.8611 108.01 68.8811 108.14C68.9211 108.38 68.9611 108.68 68.9011 108.8V108.81ZM44.0811 108.2C43.6811 108.2 43.3311 108.36 43.1011 108.65C42.8911 108.91 42.7811 109.27 42.7811 109.7V114.92H28.8811V109.7C28.8811 108.79 28.3711 108.2 27.5811 108.2C26.7911 108.2 26.2811 108.81 26.2811 109.71V114.93H25.7811C24.8511 114.93 23.9211 114.94 22.9911 114.94H21.3711C21.2711 114.94 21.0111 114.94 21.0011 114.45V105.11C21.0211 100.04 24.4811 95.9401 29.4411 95.1201C30.2811 94.9801 31.1511 94.9701 32.0611 94.9601H32.8011L32.7211 95.8601C32.6511 96.5801 32.5911 97.2901 32.5211 97.9901C32.4711 98.5401 32.4111 99.0901 32.3611 99.6501C32.2311 101.06 32.0811 102.5 31.9811 103.94C31.9511 104.4 32.0711 104.94 32.3111 105.4C32.8611 106.45 33.4611 107.49 34.0311 108.5C34.2111 108.82 34.4011 109.15 34.5811 109.47C35.0311 110.25 35.5711 110.37 35.8511 110.37H35.8611C36.1411 110.37 36.6911 110.25 37.1311 109.46C37.2911 109.18 37.4411 108.91 37.6011 108.63C38.2011 107.58 38.8211 106.49 39.4011 105.39C39.6411 104.94 39.7611 104.39 39.7311 103.93C39.6211 102.51 39.4811 101.08 39.3511 99.6901C39.2911 99.1201 39.2411 98.5501 39.1911 97.9801C39.1311 97.3501 39.0711 96.7101 39.0211 96.0601C38.9911 95.6901 38.9511 95.3201 38.9211 94.9401C39.1711 94.9401 39.4211 94.9501 39.6611 94.9501C40.5711 94.9501 41.4411 94.9701 42.2811 95.1101C46.6911 95.8301 49.9311 99.1201 50.5911 103.5C49.5711 105.42 49.0311 107.59 49.0311 109.79V114.94H48.4311C47.4911 114.94 46.5511 114.94 45.6111 114.93H45.4311V109.71C45.4311 108.8 44.9211 108.21 44.1311 108.2H44.0811ZM37.0711 104.1C36.7311 104.82 36.3311 105.51 35.9011 106.24C35.8711 106.29 35.8411 106.34 35.8111 106.4C35.7911 106.36 35.7611 106.32 35.7411 106.28C35.3111 105.54 34.9011 104.83 34.5611 104.1C34.5011 103.98 34.5511 103.7 34.5811 103.47C34.6011 103.36 34.6111 103.24 34.6211 103.12C34.8611 100.5 35.1211 97.8401 35.3611 95.2701L35.3811 95.0201H36.2211L36.4811 97.7201C36.6511 99.5201 36.8211 101.32 36.9911 103.12C36.9911 103.24 37.0211 103.36 37.0411 103.48C37.0711 103.71 37.1211 103.99 37.0611 104.1H37.0711Z" fill="white"/>
<path d="M35.8306 91.9799C40.9306 91.9799 45.0806 87.8299 45.1006 82.7199C45.1006 80.2299 44.1506 77.8899 42.4006 76.1299C40.6506 74.3699 38.3206 73.3999 35.8306 73.3999C33.3406 73.3999 31.0106 74.3699 29.2606 76.1299C27.5106 77.8899 26.5506 80.2299 26.5606 82.7099C26.5806 87.8199 30.7406 91.9699 35.8306 91.9699V91.9799ZM29.1706 82.6699C29.1806 79.0299 32.1706 76.0599 35.8306 76.0599C39.4906 76.0599 42.4906 79.0199 42.5006 82.6699C42.5006 84.4799 41.8206 86.1599 40.5706 87.4299C39.3206 88.6899 37.6406 89.3899 35.8406 89.3899C34.0406 89.3899 32.3606 88.6899 31.1106 87.4299C29.8606 86.1699 29.1706 84.4799 29.1706 82.6699Z" fill="white"/>
<path d="M61.9487 41.9401L58.9688 39.1401L62.0887 36.2301L64.8487 38.8201L73.3787 30.8301L76.4987 33.7701L67.7687 41.9401L64.8687 44.6501L61.9487 41.9401Z" fill="#F5370D"/>
<path d="M73.3802 31.5199L75.7702 33.7699L67.4302 41.5799L64.8702 43.9699L62.2902 41.5699L59.7002 39.1399L62.0902 36.9199L64.6902 39.3599C64.6902 39.3599 64.7902 39.4199 64.8502 39.4199C64.9102 39.4199 64.9602 39.3999 65.0002 39.3599L73.3802 31.5199ZM73.3802 30.1499L72.6902 30.7899L64.8402 38.1399L62.7702 36.1999L62.0902 35.5599L61.4102 36.1999L59.0202 38.4199L58.2402 39.1499L59.0202 39.8799L61.6102 42.3099L64.1902 44.7099L64.8702 45.3399L65.5502 44.6999L68.1102 42.3099L76.4502 34.4999L77.2302 33.7699L76.4502 33.0399L74.0602 30.7899L73.3802 30.1499Z" fill="#272729"/>
<path d="M45.56 41.48H20.99C18.98 41.48 18.01 42.47 18 44.51V59.54C18 61.58 18.98 62.57 20.99 62.57H23.88C26.16 62.57 28.52 62.57 30.84 62.6C31.08 62.6 31.4 62.72 31.58 62.87C33.61 64.55 35.61 66.29 37.48 67.92C37.84 68.24 38.62 68.92 39.63 68.92C40.06 68.92 40.54 68.79 41.04 68.47C42.18 67.72 42.51 66.55 42.03 64.99C41.78 64.2 41.55 63.41 41.31 62.57H41.69C43.02 62.58 44.32 62.58 45.62 62.57C47.52 62.57 48.52 61.56 48.52 59.66C48.53 54.58 48.53 49.51 48.52 44.43C48.52 42.48 47.52 41.48 45.56 41.48ZM46.42 59.66C46.42 60.38 46.34 60.46 45.61 60.46H38.5L38.9 61.81C39.02 62.22 39.13 62.62 39.24 63C39.5 63.9 39.75 64.76 40.01 65.62C40.28 66.45 40.1 66.56 39.89 66.7C39.68 66.84 39.55 66.93 38.87 66.34C36.99 64.69 34.97 62.94 32.93 61.25C32.37 60.79 31.59 60.5 30.87 60.49C29.2 60.46 27.5 60.46 25.83 60.46H20.99C20.17 60.46 20.11 60.44 20.11 59.54V44.51C20.11 43.61 20.17 43.59 20.99 43.59H45.56C46.36 43.59 46.42 43.65 46.42 44.43V59.66Z" fill="white"/>
<path d="M46.4194 44.4301V59.6601C46.4194 60.3801 46.3394 60.4601 45.6094 60.4601H38.4994L38.8994 61.8101C39.0194 62.2201 39.1294 62.6201 39.2394 63.0001C39.4994 63.9001 39.7494 64.7601 40.0094 65.6201C40.2794 66.4501 40.0994 66.5601 39.8894 66.7001C39.6794 66.8401 39.5494 66.9301 38.8694 66.3401C36.9894 64.6901 34.9694 62.9401 32.9294 61.2501C32.3694 60.7901 31.5894 60.5001 30.8694 60.4901C29.1994 60.4601 27.4994 60.4601 25.8294 60.4601H20.9894C20.1694 60.4601 20.1094 60.4401 20.1094 59.5401V44.5101C20.1094 43.6101 20.1694 43.5901 20.9894 43.5901H45.5594C46.3594 43.5901 46.4194 43.6501 46.4194 44.4301Z" fill="#FFD500"/>
<path d="M39.6294 67.3001C39.2894 67.3001 38.9694 67.0801 38.5494 66.7201C37.0794 65.4301 34.8594 63.5001 32.6194 61.6401C32.1494 61.2501 31.4794 61.0001 30.8694 61.0001C29.1994 60.9701 27.4994 60.9701 25.8394 60.9701H20.9894C19.8694 60.9701 19.6094 60.7001 19.6094 59.5501V44.5201C19.6094 43.3601 19.8694 43.1001 20.9894 43.1001H45.5594C46.6294 43.1001 46.9194 43.3901 46.9194 44.4401V59.6701C46.9194 60.6701 46.6094 60.9701 45.6094 60.9701H39.1694L39.7194 62.8701C39.9794 63.7701 40.2294 64.6301 40.4894 65.4901C40.7694 66.3401 40.6794 66.7901 40.1694 67.1301C39.9794 67.2601 39.7994 67.3201 39.6194 67.3201L39.6294 67.3001ZM20.6194 59.9501C20.7194 59.9501 20.8794 59.9501 20.9894 59.9501H25.8294C27.4994 59.9501 29.2094 59.9501 30.8794 59.9801C31.7094 59.9901 32.5994 60.3201 33.2494 60.8501C35.5094 62.7201 37.7294 64.6601 39.1994 65.9501C39.4194 66.1501 39.5494 66.2301 39.6194 66.2701L39.6694 66.2401C39.6694 66.2401 39.6394 66.0801 39.5394 65.7701C39.2794 64.9001 39.0294 64.0401 38.7694 63.1301L37.8394 59.9501H45.6194C45.7694 59.9501 45.8594 59.9501 45.9194 59.9501C45.9194 59.8901 45.9194 59.8001 45.9194 59.6601V44.4301C45.9194 44.3701 45.9194 44.2101 45.9194 44.1001C45.8094 44.1001 45.6394 44.1001 45.5694 44.1001H20.9894C20.8794 44.1001 20.7294 44.1001 20.6194 44.1001C20.6094 44.2201 20.6094 44.4201 20.6094 44.5101V59.5401C20.6094 59.6301 20.6094 59.8301 20.6194 59.9501Z" fill="#272729"/>
<path d="M22.8008 54.56H27.8308V49.5H22.8008V54.56ZM25.9608 51.37V52.68H24.6708V51.37H25.9608Z" fill="#272729"/>
<path d="M27.1603 50.26H23.5703V53.85H27.1603V50.26Z" fill="#F5370D"/>
<path d="M30.75 54.56H35.78V49.5H30.75V54.56ZM33.91 51.37V52.68H32.62V51.37H33.91Z" fill="#272729"/>
<path d="M35.1095 50.26H31.5195V53.85H35.1095V50.26Z" fill="#F5370D"/>
<path d="M38.6914 54.56H43.7214V49.5H38.6914V54.56ZM41.8514 51.37V52.68H40.5614V51.37H41.8514Z" fill="#272729"/>
<path d="M43.0607 50.26H39.4707V53.85H43.0607V50.26Z" fill="#F5370D"/>
<path d="M87.1091 44.43C87.0991 49.51 87.0991 54.58 87.1091 59.66C87.1091 61.56 88.1091 62.57 90.0091 62.57C91.3091 62.58 92.6091 62.58 93.9391 62.57H94.3191C94.0791 63.41 93.8491 64.2 93.5991 64.99C93.1191 66.55 93.4491 67.72 94.5891 68.47C95.0891 68.79 95.5691 68.92 95.9991 68.92C97.0091 68.92 97.7891 68.24 98.1491 67.92C100.019 66.29 102.019 64.55 104.049 62.87C104.229 62.72 104.549 62.6 104.789 62.6C107.109 62.57 109.469 62.57 111.749 62.57H114.639C116.649 62.57 117.629 61.58 117.629 59.54V44.51C117.619 42.47 116.649 41.48 114.639 41.48H90.0691C88.1091 41.48 87.1091 42.48 87.1091 44.43ZM89.2091 44.43C89.2091 43.65 89.2691 43.59 90.0691 43.59H114.639C115.459 43.59 115.519 43.61 115.519 44.51V59.54C115.519 60.44 115.459 60.46 114.639 60.46H109.799C108.129 60.46 106.429 60.46 104.759 60.49C104.039 60.49 103.259 60.79 102.699 61.25C100.659 62.94 98.6391 64.69 96.7591 66.34C96.0791 66.93 95.9491 66.84 95.7391 66.7C95.5291 66.56 95.3491 66.45 95.6191 65.62C95.8791 64.76 96.1291 63.9 96.3891 63C96.4991 62.62 96.6091 62.22 96.7291 61.81L97.1291 60.46H90.0191C89.2891 60.46 89.2091 60.38 89.2091 59.66V44.43Z" fill="white"/>
<path d="M90.069 43.5901H114.639C115.459 43.5901 115.519 43.6101 115.519 44.5101V59.5401C115.519 60.4401 115.459 60.4601 114.639 60.4601H109.799C108.129 60.4601 106.429 60.4601 104.759 60.4901C104.039 60.4901 103.259 60.7901 102.699 61.2501C100.659 62.9401 98.639 64.6901 96.759 66.3401C96.079 66.9301 95.949 66.8401 95.739 66.7001C95.529 66.5601 95.349 66.4501 95.619 65.6201C95.879 64.7601 96.129 63.9001 96.389 63.0001C96.499 62.6201 96.609 62.2201 96.729 61.8101L97.129 60.4601H90.019C89.289 60.4601 89.209 60.3801 89.209 59.6601V44.4301C89.209 43.6501 89.269 43.5901 90.069 43.5901Z" fill="#FFD500"/>
<path d="M96.0088 67.3001C95.8388 67.3001 95.6588 67.2401 95.4688 67.1201C94.9488 66.7801 94.8688 66.3301 95.1488 65.4701C95.4088 64.6201 95.6587 63.7601 95.9187 62.8701L96.4688 60.9701H90.0287C89.0287 60.9701 88.7188 60.6701 88.7188 59.6701V44.4401C88.7188 43.3901 89.0088 43.1001 90.0788 43.1001H114.649C115.769 43.1001 116.029 43.3701 116.029 44.5201V59.5501C116.029 60.7001 115.769 60.9701 114.649 60.9701H109.799C108.139 60.9701 106.439 60.9701 104.779 61.0001C104.169 61.0001 103.499 61.2601 103.029 61.6501C100.839 63.4601 98.7087 65.3201 97.0987 66.7301C96.6787 67.1001 96.3488 67.3201 96.0088 67.3201V67.3001ZM89.7288 59.9501C89.7888 59.9501 89.8787 59.9501 90.0287 59.9501H97.8087L96.8787 63.1301C96.6187 64.0301 96.3687 64.8901 96.1087 65.7601C95.9887 66.1401 95.9887 66.2701 95.9987 66.2901C96.0487 66.2601 96.1787 66.1901 96.4487 65.9601C98.0587 64.5401 100.199 62.6801 102.399 60.8601C103.049 60.3201 103.939 60.0001 104.769 59.9801C106.439 59.9501 108.139 59.9501 109.819 59.9501H114.659C114.769 59.9501 114.919 59.9501 115.029 59.9501C115.039 59.8301 115.039 59.6301 115.039 59.5401V44.5101C115.039 44.4201 115.039 44.2201 115.029 44.1001C114.929 44.1001 114.769 44.1001 114.659 44.1001H90.0887C90.0187 44.1001 89.8487 44.1001 89.7387 44.1001C89.7387 44.2101 89.7387 44.3701 89.7387 44.4301V59.6601C89.7387 59.8001 89.7387 59.8901 89.7387 59.9501H89.7288Z" fill="#272729"/>
<path d="M112.829 49.5H107.799V54.56H112.829V49.5ZM110.959 51.37V52.68H109.669V51.37H110.959Z" fill="#272729"/>
<path d="M108.469 53.85H112.059V50.26H108.469V53.85Z" fill="#F5370D"/>
<path d="M104.887 49.5H99.8574V54.56H104.887V49.5ZM103.017 51.37V52.68H101.727V51.37H103.017Z" fill="#272729"/>
<path d="M100.527 53.85H104.117V50.26H100.527V53.85Z" fill="#F5370D"/>
<path d="M96.9382 49.5H91.9082V54.56H96.9382V49.5ZM95.0682 51.37V52.68H93.7782V51.37H95.0682Z" fill="#272729"/>
<path d="M92.5781 53.85H96.1681V50.26H92.5781V53.85Z" fill="#F5370D"/>
</svg>
