<svg width="67" height="67" viewBox="0 0 67 67" fill="none" xmlns="http://www.w3.org/2000/svg">
<g clip-path="url(#clip0_1280_18875)">
<path d="M58.8096 13.93C58.7696 13.38 58.5296 13.07 58.3396 12.9C58.0796 12.67 57.6996 12.56 57.2996 12.6C56.4096 12.67 55.5296 12.7 54.6896 12.7C52.6696 12.7 50.7896 12.51 48.9296 12.12C43.4296 10.97 38.7796 8.44 35.1196 4.59C34.9096 4.37 34.6996 4.21 34.4896 4.1C34.1996 3.96 33.8596 3.96 33.5796 4.09C33.3596 4.19 33.1196 4.37 32.8496 4.64C27.5096 10.06 21.0796 12.69 13.1996 12.69C12.4196 12.69 11.6196 12.66 10.8096 12.61C10.7596 12.61 10.7096 12.61 10.6596 12.61C10.1496 12.61 9.28955 12.78 9.19955 13.94V14.07C9.15955 14.48 9.11955 14.87 9.09955 15.25C8.76955 21.03 9.19955 26.22 10.3996 31.13C12.7796 40.84 18.0296 49.02 25.9796 55.42C28.1696 57.18 30.5796 58.72 33.3296 60.12C33.4696 60.19 33.6396 60.23 33.7996 60.23H34.1496C34.3096 60.23 34.4696 60.19 34.6096 60.12L34.6496 60.1C44.3696 55.12 51.4296 47.43 55.6396 37.26C57.3996 33.02 58.4396 28.42 58.8396 23.19C59.0596 20.36 59.0496 17.33 58.8096 13.94V13.93ZM56.7996 23.03C56.4096 28.04 55.4096 32.43 53.7396 36.47C49.7596 46.09 43.1096 53.38 33.9696 58.14C31.4596 56.84 29.2696 55.43 27.2696 53.81C19.6696 47.7 14.6696 39.9 12.3996 30.63C11.2496 25.93 10.8396 20.93 11.1596 15.36C11.1696 15.14 11.1896 14.92 11.2096 14.69C20.4396 15.17 27.8796 12.45 34.0196 6.39C37.9196 10.33 42.7896 12.94 48.5196 14.13C51.1596 14.68 53.8096 14.86 56.8096 14.69C56.9996 17.74 56.9996 20.47 56.8096 23.02L56.7996 23.03Z" fill="white"/>
<path d="M52.5603 25.44C52.2703 29.35 51.4903 32.78 50.1703 35.95C47.0303 43.56 41.7603 49.3 34.4903 53.03H34.4603C34.3603 53.09 34.2403 53.12 34.1203 53.12H33.8603C33.7403 53.12 33.6303 53.09 33.5103 53.05C31.4503 51.99 29.6603 50.85 28.0203 49.53C22.0703 44.74 18.1703 38.63 16.3703 31.38C15.4703 27.72 15.1703 23.83 15.4003 19.51C15.4103 19.22 15.4403 18.94 15.4703 18.63V18.53C15.5403 17.68 16.1903 17.55 16.5703 17.55H16.6703C17.2703 17.59 17.8703 17.61 18.4603 17.61C24.3503 17.61 29.1503 15.64 33.1503 11.6C33.3603 11.39 33.5303 11.26 33.6903 11.19C33.9003 11.09 34.1603 11.09 34.3803 11.2C34.5303 11.27 34.6903 11.39 34.8403 11.55C37.5903 14.43 41.0503 16.32 45.1603 17.19C46.5603 17.47 47.9603 17.62 49.4603 17.62C50.0903 17.62 50.7503 17.59 51.4103 17.55C51.7003 17.52 52.0003 17.61 52.1903 17.77C52.3403 17.9 52.5103 18.14 52.5403 18.53C52.7203 21.07 52.7203 23.33 52.5503 25.45L52.5603 25.44Z" fill="#FFD500"/>
<path d="M43.3409 28.55L31.3309 39.78L25.1309 33.98L28.5109 30.83L31.3109 33.45L39.9409 25.39L43.3409 28.55Z" fill="#F5370D"/>
<path d="M39.9401 24.18L31.3101 32.23L28.5101 29.62L23.8301 33.98L31.3301 41L44.6401 28.55L39.9401 24.18ZM28.5101 30.83L31.3101 33.45L39.9401 25.39L43.3401 28.55L31.3301 39.79L25.1301 33.99L28.5101 30.84V30.83Z" fill="#272729"/>
</g>
<defs>
<clipPath id="clip0_1280_18875">
<rect width="50" height="56.22" fill="white" transform="translate(9 4)"/>
</clipPath>
</defs>
</svg>
