<svg width="135" height="125" viewBox="0 0 135 125" fill="none" xmlns="http://www.w3.org/2000/svg">
<path d="M128.782 103.876H124.441V58.6648C124.441 57.9935 123.899 57.4473 123.224 57.4473H115.797V45.7871C115.797 45.3661 115.581 44.9765 115.226 44.7539C114.868 44.5313 114.423 44.5104 114.044 44.6948L102.655 50.271L102.776 28.6236C102.776 28.3941 102.714 28.1714 102.596 27.9766C102.345 27.5696 96.1115 18 67.2148 18C38.318 18 32.2027 27.5801 31.9591 27.9871C31.8444 28.1749 31.7852 28.3906 31.7817 28.6097L31.6635 50.2814L20.2537 44.6948C19.878 44.5104 19.4292 44.5313 19.0744 44.7539C18.7161 44.9765 18.5004 45.3661 18.5004 45.7871V57.4473H11.0736C10.4023 57.4473 9.85613 57.9935 9.85613 58.6648V103.876H6.21751C5.54614 103.876 5 104.422 5 105.094C5 105.765 5.54614 106.311 6.21751 106.311H128.782C129.457 106.311 130 105.765 130 105.094C130 104.422 129.457 103.876 128.782 103.876ZM14.1765 103.601H12.2911V59.8823H14.1765V103.601ZM18.5004 103.601H16.6116V59.8823H18.5004V103.601ZM20.9355 47.7385L31.653 52.9878V103.876H20.9355V47.7385ZM100.22 50.2988C86.7923 45.3557 72.5231 43.5955 57.7738 45.0705C55.3249 45.3174 52.8655 45.6549 50.4236 46.0793L50.3609 46.0897C46.8406 46.7054 43.355 47.4985 39.9634 48.4586C39.9565 48.4586 39.953 48.4586 39.946 48.4586C37.9597 49.0222 36.0048 49.6413 34.0985 50.3162L34.2168 29.0063C35.3299 27.6009 42.2419 20.4315 67.2148 20.4315C92.1876 20.4315 99.1622 27.6114 100.338 29.0167L100.22 50.2953V50.2988ZM38.9859 103.876H34.0881V93.9135C35.4795 93.5517 37.1214 93.1552 38.9859 92.7516V103.876ZM38.9859 90.2609C37.1423 90.6506 35.5004 91.0402 34.0881 91.4019V80.5939C35.476 80.0895 37.1179 79.5364 38.9859 78.9764V90.2609ZM38.9859 76.4266C37.3266 76.9136 35.6917 77.4423 34.0881 78.0093V67.3613C35.476 66.8569 37.1179 66.3038 38.9859 65.7403V76.4266ZM38.9859 63.194C37.3266 63.681 35.6917 64.2097 34.0881 64.7733V52.9077C35.476 52.4068 37.1179 51.8537 38.9859 51.2902V63.194ZM49.4078 103.876H41.4209V92.2507C43.8107 91.7811 46.4858 91.3254 49.4078 90.9323V103.876ZM49.4078 88.4764C46.4962 88.8626 43.8212 89.3078 41.4209 89.7705V78.2807C43.8073 77.6302 46.4823 76.9971 49.4078 76.4474V88.4764ZM49.4078 73.9463C46.7154 74.4403 44.0438 75.0421 41.4209 75.7413V65.0446C43.8073 64.3976 46.4823 63.761 49.4078 63.2148V73.9463ZM49.4078 60.7137C46.7154 61.2077 44.0438 61.8095 41.4209 62.5087V50.5945C43.8073 49.944 46.4823 49.3109 49.4078 48.7647V60.7137ZM56.3441 103.876H51.8428V90.6262C53.2934 90.4558 54.7927 90.3027 56.3441 90.174V103.876ZM65.9312 103.876H58.7792V89.9896C61.0716 89.8366 63.4613 89.7357 65.9312 89.7009V103.876ZM65.9312 87.2694C63.0717 87.3076 60.3202 87.4363 57.6938 87.6277C57.6486 87.6207 57.6069 87.6137 57.5616 87.6137C57.4538 87.6137 57.3494 87.6311 57.2486 87.659C55.3771 87.8016 53.5752 87.979 51.8428 88.1773V76.023C56.1145 75.3273 60.8489 74.8368 65.9312 74.7394V87.2694ZM65.9312 72.2696C63.2318 72.3218 60.5115 72.4818 57.7738 72.7566C55.798 72.9549 53.8187 73.2158 51.8428 73.5289V62.7904C56.1145 62.0947 60.8489 61.6042 65.9312 61.5034V72.2696ZM65.9312 47.2759V59.037C63.2318 59.0892 60.5115 59.2492 57.7738 59.5206C55.798 59.7188 53.8187 59.9797 51.8428 60.2963V48.3369C56.1215 47.6446 60.8628 47.1507 65.9555 47.0533C65.9416 47.1263 65.9312 47.1994 65.9312 47.2759ZM75.9634 103.876H68.3662V89.6905C70.829 89.6974 73.3649 89.7774 75.9634 89.9409V103.876ZM82.1066 103.876H78.3985V90.1149C79.6229 90.2122 80.8578 90.3305 82.1066 90.4697V103.876ZM82.1066 88.0207C77.3444 87.5024 72.7423 87.2728 68.3662 87.2554V74.722C72.7388 74.7464 77.341 75.0699 82.1066 75.8074V88.0207ZM82.1066 73.3237C77.5914 72.6384 73.0101 72.2801 68.3662 72.2557V61.4895C72.7388 61.5138 77.341 61.8373 82.1066 62.5748V73.3237ZM82.1066 60.0911C77.5914 59.4058 73.0101 59.0475 68.3662 59.0196V47.2759C68.3662 47.1959 68.3592 47.1159 68.3418 47.0359C72.7214 47.0602 77.3305 47.3837 82.1066 48.1247V60.0911ZM92.5285 103.876H84.5417V90.7654C87.1645 91.1097 89.8291 91.548 92.5285 92.0907V103.876ZM92.5285 89.6105C89.8291 89.0782 87.1645 88.6504 84.5417 88.3129V76.2178C87.1645 76.6979 89.8291 77.3066 92.5285 78.058V89.6105ZM92.5285 75.5256C89.8952 74.809 87.2306 74.2072 84.5417 73.7237V62.9853C87.1645 63.4653 89.8291 64.0706 92.5285 64.8254V75.5256ZM92.5285 62.293C89.8952 61.5729 87.2306 60.9746 84.5417 60.4911V48.5351C87.1645 49.0117 89.8291 49.6205 92.5285 50.3753V62.293ZM100.209 103.876H94.9635V92.6055C96.7028 92.9951 98.4526 93.4265 100.209 93.9065V103.876ZM100.209 91.3845C98.4526 90.9149 96.6994 90.4905 94.9635 90.1149V78.7781C96.7028 79.3173 98.4526 79.9156 100.209 80.5835V91.3845ZM100.209 77.985C98.4769 77.3449 96.7272 76.757 94.9635 76.2248V65.542C96.7028 66.0812 98.4526 66.683 100.209 67.3509V77.985ZM100.209 64.7489C98.4769 64.1123 96.7272 63.5244 94.9635 62.9922V51.0919C96.7028 51.6311 98.4526 52.2329 100.209 52.9008V64.7489ZM102.644 52.9878L113.362 47.7385V103.876H102.644V52.9878ZM117.686 103.601H115.797V59.8823H117.686V103.601ZM122.006 103.601H120.121V59.8823H122.006V103.601Z" fill="white"/>
<path d="M100.209 64.9228C100.188 64.9228 100.167 64.9228 100.15 64.9124C98.4033 64.2689 96.6397 63.681 94.9143 63.1592C94.8412 63.1383 94.7891 63.0687 94.7891 62.9922V51.0919C94.7891 51.0363 94.8169 50.9841 94.8586 50.9528C94.8899 50.9319 94.9247 50.918 94.963 50.918C94.9804 50.918 94.9978 50.918 95.0152 50.9249C96.7753 51.4711 98.5425 52.0798 100.271 52.7373C100.337 52.7616 100.383 52.8277 100.383 52.9008V64.7489C100.383 64.8046 100.355 64.8602 100.31 64.8915C100.282 64.9124 100.244 64.9228 100.209 64.9228Z" fill="#E73D1C"/>
<path d="M94.9631 51.0919C96.7024 51.6311 98.4521 52.2329 100.209 52.9008V64.7489C98.4765 64.1123 96.7267 63.5244 94.9631 62.9922V51.0919ZM94.9631 50.7441C94.89 50.7441 94.817 50.7684 94.7579 50.8102C94.6674 50.8762 94.6152 50.9806 94.6152 51.0919V62.9922C94.6152 63.1453 94.7161 63.2809 94.8622 63.3262C96.5806 63.8445 98.3408 64.4358 100.087 65.0759C100.125 65.0898 100.167 65.0968 100.205 65.0968C100.275 65.0968 100.344 65.0759 100.404 65.0342C100.498 64.9681 100.553 64.8637 100.553 64.7489V52.9008C100.553 52.7547 100.463 52.626 100.331 52.5773C98.5982 51.9164 96.8241 51.3076 95.064 50.7615C95.0292 50.751 94.9944 50.7475 94.9596 50.7475L94.9631 50.7441Z" fill="#1D1D1B"/>
<path d="M92.5295 89.7844C92.5295 89.7844 92.5086 89.7844 92.4947 89.7844C89.8823 89.2696 87.1968 88.8347 84.5183 88.4903C84.4313 88.4799 84.3652 88.4069 84.3652 88.3164V76.2213C84.3652 76.1691 84.3896 76.1204 84.4279 76.0891C84.4592 76.0613 84.4974 76.0474 84.5392 76.0474C84.5496 76.0474 84.56 76.0474 84.5705 76.0474C87.2386 76.5344 89.931 77.1571 92.5713 77.8911C92.6478 77.9119 92.7 77.9815 92.7 78.058V89.6105C92.7 89.6626 92.6756 89.7113 92.6373 89.7461C92.606 89.7705 92.5678 89.7844 92.526 89.7844H92.5295Z" fill="#FFD405"/>
<path d="M84.5432 76.2178C87.166 76.6979 89.8306 77.3066 92.53 78.058V89.6105C89.8306 89.0782 87.166 88.6504 84.5432 88.3129V76.2178ZM84.5432 75.87C84.4632 75.87 84.3832 75.8978 84.3205 75.95C84.2405 76.0161 84.1953 76.1135 84.1953 76.2178V88.3129C84.1953 88.4869 84.324 88.6364 84.4979 88.6573C87.173 89.0017 89.8515 89.4365 92.4605 89.9514C92.4813 89.9548 92.5057 89.9583 92.5266 89.9583C92.6066 89.9583 92.6831 89.9305 92.7492 89.8783C92.8292 89.8122 92.8744 89.7148 92.8744 89.6105V78.058C92.8744 77.9015 92.7701 77.7658 92.6205 77.7241C89.9767 76.9866 87.2774 76.3674 84.6023 75.8769C84.5814 75.8735 84.5606 75.87 84.5397 75.87H84.5432Z" fill="#1D1D1B"/>
<path d="M41.422 89.9444C41.3802 89.9444 41.342 89.9305 41.3107 89.9061C41.2689 89.8748 41.248 89.8226 41.248 89.7705V78.2806C41.248 78.2006 41.3002 78.1345 41.3768 78.1137C43.9892 77.4006 46.6816 76.7849 49.3775 76.277C49.388 76.277 49.3984 76.277 49.4088 76.277C49.4506 76.277 49.4889 76.2909 49.5202 76.3187C49.5584 76.35 49.5828 76.4022 49.5828 76.4509V88.4799C49.5828 88.5669 49.5167 88.6399 49.4332 88.6538C46.7234 89.0121 44.0414 89.447 41.4568 89.9444C41.4463 89.9444 41.4359 89.9444 41.4255 89.9444H41.422Z" fill="#FFD405"/>
<path d="M49.4089 76.4474V88.4764C46.4974 88.8626 43.8223 89.3078 41.4221 89.7705V78.2806C43.8084 77.6302 46.4834 76.997 49.4089 76.4474ZM49.4089 76.0996C49.3881 76.0996 49.3672 76.0996 49.3463 76.1065C46.6435 76.6144 43.9475 77.2336 41.3316 77.9467C41.1786 77.9885 41.0742 78.1241 41.0742 78.2806V89.7705C41.0742 89.8748 41.1194 89.9722 41.1994 90.0383C41.2621 90.0905 41.3421 90.1183 41.4221 90.1183C41.443 90.1183 41.4673 90.1183 41.4882 90.1114C44.0728 89.6139 46.7513 89.1791 49.4542 88.8208C49.6281 88.7965 49.7568 88.6504 49.7568 88.4764V76.4474C49.7568 76.3431 49.7116 76.2457 49.6316 76.1796C49.569 76.1274 49.489 76.0996 49.4089 76.0996Z" fill="#1D1D1B"/>
<path d="M34.088 64.9472C34.0532 64.9472 34.0184 64.9367 33.9871 64.9159C33.9419 64.8846 33.9141 64.8289 33.9141 64.7733V52.9077C33.9141 52.8347 33.9593 52.7686 34.0289 52.7443C35.5977 52.1772 37.25 51.6311 38.9372 51.1232C38.9546 51.1197 38.9719 51.1163 38.9859 51.1163C39.0241 51.1163 39.0589 51.1267 39.0902 51.1511C39.1354 51.1824 39.1598 51.2345 39.1598 51.2902V63.194C39.1598 63.2705 39.1076 63.3401 39.0346 63.3609C37.4135 63.8375 35.7682 64.3663 34.1471 64.9367C34.1297 64.9437 34.1089 64.9472 34.088 64.9472Z" fill="#E73D1C"/>
<path d="M38.986 51.2902V63.194C37.3267 63.681 35.6917 64.2097 34.0881 64.7733V52.9077C35.4761 52.4068 37.118 51.8537 38.986 51.2902ZM38.986 50.9423C38.9512 50.9423 38.9199 50.9458 38.8851 50.9563C37.198 51.4641 35.5421 52.0103 33.9698 52.5808C33.8307 52.6295 33.7402 52.7616 33.7402 52.9077V64.7733C33.7402 64.8846 33.7959 64.9924 33.8863 65.0585C33.9455 65.1002 34.015 65.1211 34.0881 65.1211C34.1264 65.1211 34.1646 65.1142 34.2029 65.1002C35.8204 64.5297 37.4623 64.001 39.0834 63.5279C39.2329 63.4862 39.3338 63.347 39.3338 63.194V51.2902C39.3338 51.1789 39.2816 51.078 39.1947 51.0119C39.1355 50.9667 39.0625 50.9423 38.986 50.9423Z" fill="#1D1D1B"/>
<path d="M20.9358 47.7385L31.6533 52.9878V103.876H20.9358V47.7385ZM20.9358 47.3907C20.8731 47.3907 20.807 47.4081 20.7514 47.4429C20.6505 47.5055 20.5879 47.6168 20.5879 47.7385V103.876C20.5879 104.068 20.7444 104.224 20.9358 104.224H31.6533C31.8446 104.224 32.0012 104.068 32.0012 103.876V52.9878C32.0012 52.8556 31.9246 52.7338 31.8064 52.6747L21.0888 47.4255C21.0401 47.4011 20.9879 47.3907 20.9358 47.3907Z" fill="#1D1D1B"/>
<path d="M113.362 47.7385V103.876H102.645V52.9878L113.362 47.7385ZM113.362 47.3907C113.31 47.3907 113.258 47.4011 113.209 47.4255L102.492 52.6747C102.373 52.7338 102.297 52.8556 102.297 52.9878V103.876C102.297 104.068 102.453 104.224 102.645 104.224H113.362C113.554 104.224 113.71 104.068 113.71 103.876V47.7385C113.71 47.6168 113.648 47.5055 113.547 47.4429C113.491 47.4081 113.428 47.3907 113.362 47.3907Z" fill="#1D1D1B"/>
<path d="M76.4194 27.9349C76.2002 27.5662 75.8037 27.34 75.3758 27.34L60.3239 27.3053L59.7708 25.1798C59.6317 24.6441 59.1481 24.2684 58.595 24.2684H55.6765C55.0016 24.2684 54.459 24.8146 54.459 25.486C54.459 26.1573 55.0016 26.7035 55.6765 26.7035H57.6523L60.2961 36.8888C60.4352 37.428 60.9187 37.8002 61.4753 37.8002H71.0728C71.5215 37.8002 71.9355 37.5532 72.1477 37.1601L76.4472 29.135C76.649 28.7558 76.6385 28.3001 76.4194 27.9349ZM70.3458 35.3652H62.4145L60.957 29.7403L73.3443 29.7716L70.3458 35.3652Z" fill="white"/>
<path d="M62.4151 35.5391C62.335 35.5391 62.2655 35.4869 62.2481 35.4069L60.7906 29.782C60.7766 29.7298 60.7905 29.6742 60.8219 29.6324C60.8532 29.5907 60.9053 29.5664 60.961 29.5664L73.3483 29.5977C73.4109 29.5977 73.4666 29.629 73.4979 29.6811C73.5292 29.7333 73.5292 29.7994 73.5014 29.8516L70.5028 35.4452C70.4715 35.5008 70.4124 35.5356 70.3497 35.5356H62.4185L62.4151 35.5391Z" fill="#E73D1C"/>
<path d="M60.9581 29.7403L73.3454 29.7716L70.3469 35.3652H62.4157L60.9581 29.7403ZM60.9581 29.3924C60.8503 29.3924 60.7494 29.4411 60.6833 29.5281C60.6172 29.6116 60.5929 29.7229 60.6207 29.8272L62.0782 35.4521C62.1165 35.6052 62.2557 35.713 62.4157 35.713H70.3469C70.4756 35.713 70.5939 35.6435 70.653 35.5287L73.6515 29.9351C73.7107 29.8273 73.7072 29.6985 73.6446 29.5907C73.582 29.4863 73.4707 29.4203 73.3454 29.4203L60.9581 29.3889V29.3924Z" fill="#1D1D1B"/>
<path d="M70.7346 40.437C70.7346 41.2197 70.098 41.8562 69.3118 41.8562C68.5257 41.8562 67.8926 41.2197 67.8926 40.437C67.8926 39.6543 68.5292 39.0142 69.3118 39.0142C70.0945 39.0142 70.7346 39.6508 70.7346 40.437Z" fill="white"/>
<path d="M64.4104 40.437C64.4104 41.2197 63.7738 41.8562 62.9911 41.8562C62.2084 41.8562 61.5684 41.2197 61.5684 40.437C61.5684 39.6543 62.2049 39.0142 62.9911 39.0142C63.7773 39.0142 64.4104 39.6508 64.4104 40.437Z" fill="white"/>
<path d="M33.9238 50.5667L34.0456 28.9506L34.0838 28.9019C35.2283 27.4583 42.1959 20.2611 67.2175 20.2611C92.2391 20.2611 99.2658 27.4653 100.473 28.9089L100.515 28.9576L100.393 50.5493L100.16 50.4623C86.7568 45.5296 72.505 43.7729 57.7905 45.2444C55.3485 45.4914 52.8787 45.8288 50.4541 46.2532L50.3915 46.2636C46.8747 46.8793 43.3821 47.6759 40.0114 48.6291L39.9766 48.636C37.9764 49.203 36.0179 49.8257 34.1569 50.4866L33.9238 50.5701V50.5667ZM34.39 29.0724L34.2717 50.0762C36.0771 49.4431 37.966 48.8447 39.8966 48.2986L39.9314 48.2917C43.3056 47.3385 46.8051 46.5419 50.3289 45.9227L50.3915 45.9123C52.8265 45.4879 55.3033 45.1505 57.7522 44.9035C72.4319 43.4355 86.6594 45.1679 100.042 50.0553L100.16 29.0898C98.8519 27.5627 91.5538 20.6159 67.2105 20.6159C42.8673 20.6159 35.6249 27.5488 34.39 29.0724ZM69.3116 42.0302C68.4315 42.0302 67.7184 41.3171 67.7184 40.437C67.7184 39.5569 68.4315 38.8403 69.3116 38.8403C70.1917 38.8403 70.9083 39.5569 70.9083 40.437C70.9083 41.3171 70.1917 42.0302 69.3116 42.0302ZM69.3116 39.1882C68.6263 39.1882 68.0663 39.7482 68.0663 40.437C68.0663 41.1257 68.6263 41.6823 69.3116 41.6823C69.9969 41.6823 70.5604 41.1223 70.5604 40.437C70.5604 39.7517 70.0004 39.1882 69.3116 39.1882ZM62.991 42.0302C62.1109 42.0302 61.3943 41.3171 61.3943 40.437C61.3943 39.5569 62.1109 38.8403 62.991 38.8403C63.8711 38.8403 64.5842 39.5569 64.5842 40.437C64.5842 41.3171 63.8711 42.0302 62.991 42.0302ZM62.991 39.1882C62.3022 39.1882 61.7422 39.7482 61.7422 40.437C61.7422 41.1257 62.3022 41.6823 62.991 41.6823C63.6798 41.6823 64.2363 41.1223 64.2363 40.437C64.2363 39.7517 63.6763 39.1882 62.991 39.1882ZM71.0718 37.9741H61.4743C60.8378 37.9741 60.2847 37.5463 60.1281 36.9305L57.5192 26.8774H55.679C54.9102 26.8774 54.2875 26.2547 54.2875 25.4859C54.2875 24.7172 54.9102 24.0945 55.679 24.0945H58.5975C59.2306 24.0945 59.7837 24.5224 59.9403 25.1346L60.4586 27.1313L75.3748 27.1661C75.8618 27.1661 76.3175 27.427 76.568 27.8444C76.815 28.2584 76.8289 28.7837 76.5993 29.215L72.2997 37.2401C72.0562 37.6924 71.5866 37.9706 71.0718 37.9706V37.9741ZM55.6755 24.4424C55.1015 24.4424 54.6319 24.912 54.6319 25.4859C54.6319 26.0599 55.1015 26.5295 55.6755 26.5295H57.787L60.4655 36.8436C60.5838 37.3028 61.0012 37.6263 61.4778 37.6263H71.0753C71.4614 37.6263 71.8127 37.4175 71.9971 37.0766L76.2966 29.0515C76.4671 28.728 76.4601 28.3349 76.2723 28.0218C76.0845 27.7053 75.7436 27.5105 75.3783 27.5105L60.1907 27.4757L59.6028 25.2216C59.4846 24.7624 59.0706 24.4389 58.5941 24.4389H55.6755V24.4424Z" fill="#1D1D1B"/>
</svg>
