<svg width="135" height="125" viewBox="0 0 135 125" fill="none" xmlns="http://www.w3.org/2000/svg">
<path d="M123.547 109.574H120.549V49.992C120.549 49.5228 120.325 49.0869 119.947 48.8129L102.667 36.3035C102.227 35.988 101.65 35.9382 101.165 36.1831C100.683 36.4239 100.372 36.918 100.363 37.4577L100.197 47.6296L86.189 36.3492C85.7614 36.0046 85.1677 35.9299 84.6695 36.1624C84.1671 36.3949 83.8391 36.8931 83.8267 37.4453L83.5775 47.3598L68.7639 36.316C68.3197 35.988 67.7301 35.9382 67.2361 36.1873C66.7462 36.4364 66.4389 36.9429 66.4431 37.4951L66.5344 48.626L59.4888 48.5513V42.3568C59.4888 41.8835 59.2605 41.4393 58.8702 41.1694C58.4841 40.8954 57.99 40.8331 57.5416 40.9909L48.2499 44.3539L47.0874 22.3784C47.0459 21.6062 46.4065 21 45.6343 21H30.1564C29.3966 21 28.7614 21.5896 28.7074 22.3493L26.5485 52.1966L16.2022 55.9374C15.6251 56.145 15.2431 56.693 15.2431 57.3033V109.574H12.4531C11.6518 109.574 11 110.222 11 111.028C11 111.833 11.6518 112.481 12.4531 112.481H16.4721C16.5468 112.489 16.6215 112.501 16.6963 112.501H119.096C119.171 112.501 119.241 112.489 119.316 112.481H123.547C124.348 112.481 125 111.829 125 111.028C125 110.226 124.348 109.574 123.547 109.574ZM31.5099 23.9063H44.2559L45.3935 45.3835L29.5419 51.1171L31.5099 23.9063ZM56.5826 109.574H18.1494V58.3246L28.45 54.6005C28.45 54.6005 28.4708 54.5922 28.4791 54.5922L56.5826 44.4286V109.574ZM94.0359 109.574H80.6173V93.3118H94.0359V109.574ZM117.643 109.574H96.9422V91.8587C96.9422 91.0574 96.2903 90.4056 95.489 90.4056H79.1642C78.3629 90.4056 77.7111 91.0574 77.7111 91.8587V109.574H59.4888V51.4576L67.9834 51.5489C68.3778 51.5406 68.7515 51.3994 69.0255 51.1254C69.3037 50.8514 69.4573 50.4736 69.4531 50.0833L69.3743 40.3972L84.0924 51.3662C84.5283 51.6942 85.1096 51.7482 85.5953 51.5074C86.0852 51.2707 86.4008 50.7808 86.4132 50.2411L86.6582 40.4595L100.691 51.7607C101.123 52.1053 101.717 52.18 102.219 51.9433C102.721 51.7067 103.049 51.2043 103.058 50.6521L103.224 40.2975L117.643 50.731V109.574Z" fill="white"/>
<path d="M74.1492 56.7719H65.3516C64.5503 56.7719 63.8984 57.4196 63.8984 58.225V67.0227C63.8984 67.824 64.5503 68.4758 65.3516 68.4758H74.1492C74.9505 68.4758 75.6024 67.824 75.6024 67.0227V58.225C75.6024 57.4196 74.9505 56.7719 74.1492 56.7719ZM72.6961 65.5695H66.8047V59.6781H72.6961V65.5695Z" fill="white"/>
<path d="M72.6966 59.4706H66.8052C66.6906 59.4706 66.5977 59.5635 66.5977 59.6781V65.5695C66.5977 65.6842 66.6906 65.7771 66.8052 65.7771H72.6966C72.8113 65.7771 72.9042 65.6842 72.9042 65.5695V59.6781C72.9042 59.5635 72.8113 59.4706 72.6966 59.4706Z" fill="#FFD405"/>
<path d="M72.6972 59.6781V65.5695H66.8058V59.6781H72.6972ZM72.6972 59.263H66.8058C66.5775 59.263 66.3906 59.4498 66.3906 59.6781V65.5695C66.3906 65.7979 66.5775 65.9847 66.8058 65.9847H72.6972C72.9256 65.9847 73.1124 65.7979 73.1124 65.5695V59.6781C73.1124 59.4498 72.9256 59.263 72.6972 59.263Z" fill="#1D1D1B"/>
<path d="M91.8855 56.7719H83.0879C82.2866 56.7719 81.6348 57.4196 81.6348 58.225V67.0227C81.6348 67.824 82.2866 68.4758 83.0879 68.4758H91.8855C92.691 68.4758 93.3387 67.824 93.3387 67.0227V58.225C93.3387 57.4196 92.691 56.7719 91.8855 56.7719ZM90.4324 65.5695H84.541V59.6781H90.4324V65.5695Z" fill="white"/>
<path d="M109.626 56.7719H100.828C100.023 56.7719 99.375 57.4196 99.375 58.225V67.0227C99.375 67.824 100.023 68.4758 100.828 68.4758H109.626C110.427 68.4758 111.079 67.824 111.079 67.0227V58.225C111.079 57.4196 110.427 56.7719 109.626 56.7719ZM108.173 65.5695H102.281V59.6781H108.173V65.5695Z" fill="white"/>
<path d="M108.173 59.4706H102.282C102.167 59.4706 102.074 59.5635 102.074 59.6781V65.5695C102.074 65.6842 102.167 65.7771 102.282 65.7771H108.173C108.288 65.7771 108.381 65.6842 108.381 65.5695V59.6781C108.381 59.5635 108.288 59.4706 108.173 59.4706Z" fill="#E73D1E"/>
<path d="M108.174 59.6781V65.5695H102.282V59.6781H108.174ZM108.174 59.263H102.282C102.054 59.263 101.867 59.4498 101.867 59.6781V65.5695C101.867 65.7979 102.054 65.9847 102.282 65.9847H108.174C108.402 65.9847 108.589 65.7979 108.589 65.5695V59.6781C108.589 59.4498 108.402 59.263 108.174 59.263Z" fill="#1D1D1B"/>
<path d="M74.1492 72.8144H65.3516C64.5503 72.8144 63.8984 73.4621 63.8984 74.2675V83.0652C63.8984 83.8665 64.5503 84.5183 65.3516 84.5183H74.1492C74.9505 84.5183 75.6024 83.8665 75.6024 83.0652V74.2675C75.6024 73.4621 74.9505 72.8144 74.1492 72.8144ZM72.6961 81.612H66.8047V75.7206H72.6961V81.612Z" fill="white"/>
<path d="M91.8855 72.8144H83.0879C82.2866 72.8144 81.6348 73.4621 81.6348 74.2675V83.0652C81.6348 83.8665 82.2866 84.5183 83.0879 84.5183H91.8855C92.691 84.5183 93.3387 83.8665 93.3387 83.0652V74.2675C93.3387 73.4621 92.691 72.8144 91.8855 72.8144ZM90.4324 81.612H84.541V75.7206H90.4324V81.612Z" fill="white"/>
<path d="M90.4349 75.5131H84.5435C84.4289 75.5131 84.3359 75.606 84.3359 75.7207V81.6121C84.3359 81.7267 84.4289 81.8196 84.5435 81.8196H90.4349C90.5496 81.8196 90.6425 81.7267 90.6425 81.6121V75.7207C90.6425 75.606 90.5496 75.5131 90.4349 75.5131Z" fill="#FFD405"/>
<path d="M90.4335 75.7207V81.6121H84.5421V75.7207H90.4335ZM90.4335 75.3055H84.5421C84.3138 75.3055 84.127 75.4923 84.127 75.7207V81.6121C84.127 81.8404 84.3138 82.0272 84.5421 82.0272H90.4335C90.6619 82.0272 90.8487 81.8404 90.8487 81.6121V75.7207C90.8487 75.4923 90.6619 75.3055 90.4335 75.3055Z" fill="#1D1D1B"/>
<path d="M109.626 72.8144H100.828C100.023 72.8144 99.375 73.4621 99.375 74.2675V83.0652C99.375 83.8665 100.023 84.5183 100.828 84.5183H109.626C110.427 84.5183 111.079 83.8665 111.079 83.0652V74.2675C111.079 73.4621 110.427 72.8144 109.626 72.8144ZM108.173 81.612H102.281V75.7206H108.173V81.612Z" fill="white"/>
<path d="M100.828 102.114H112.632C113.433 102.114 114.085 101.462 114.085 100.661V91.8629C114.085 91.0616 113.433 90.4097 112.632 90.4097H100.828C100.027 90.4097 99.375 91.0616 99.375 91.8629V100.661C99.375 101.462 100.027 102.114 100.828 102.114ZM102.281 93.316H111.179V99.2074H102.281V93.316Z" fill="white"/>
<path d="M62.3457 102.114H74.1493C74.9506 102.114 75.6024 101.462 75.6024 100.661V91.8629C75.6024 91.0616 74.9506 90.4097 74.1493 90.4097H62.3457C61.5444 90.4097 60.8926 91.0616 60.8926 91.8629V100.661C60.8926 101.462 61.5444 102.114 62.3457 102.114ZM63.7988 93.316H72.6961V99.2074H63.7988V93.316Z" fill="white"/>
<path d="M35.1567 83.3019L33.6621 84.7965L32.7861 85.6725C32.7113 85.739 32.6491 85.822 32.6075 85.9216C32.5619 86.013 32.5411 86.1126 32.5411 86.2123C32.5411 86.3119 32.5577 86.4157 32.5992 86.5071C32.6366 86.6025 32.6906 86.6897 32.7612 86.7645C32.8359 86.835 32.9189 86.8932 33.0144 86.9305C33.1099 86.9679 33.2137 86.9845 33.3133 86.9845C33.413 86.9804 33.5168 86.9596 33.6081 86.9181C33.6995 86.8766 33.7825 86.8184 33.8531 86.7396L34.5838 86.013L36.0369 84.5599C35.684 84.1405 35.3934 83.7212 35.1526 83.3019H35.1567ZM33.6621 84.7965L32.7861 85.6725C32.7113 85.739 32.6491 85.822 32.6075 85.9216C32.5619 86.013 32.5411 86.1126 32.5411 86.2123C32.5411 86.3119 32.5577 86.4157 32.5992 86.5071C32.6366 86.6025 32.6906 86.6897 32.7612 86.7645C32.8359 86.835 32.9189 86.8932 33.0144 86.9305C33.1099 86.9679 33.2137 86.9845 33.3133 86.9845C33.413 86.9804 33.5168 86.9596 33.6081 86.9181C33.6995 86.8766 33.7825 86.8184 33.8531 86.7396L34.5838 86.013C34.235 85.6103 33.9278 85.2075 33.6621 84.7924V84.7965ZM33.6621 84.7965L32.7861 85.6725C32.7113 85.739 32.6491 85.822 32.6075 85.9216C32.5619 86.013 32.5411 86.1126 32.5411 86.2123C32.5411 86.3119 32.5577 86.4157 32.5992 86.5071C32.6366 86.6025 32.6906 86.6897 32.7612 86.7645C32.8359 86.835 32.9189 86.8932 33.0144 86.9305C33.1099 86.9679 33.2137 86.9845 33.3133 86.9845C33.413 86.9804 33.5168 86.9596 33.6081 86.9181C33.6995 86.8766 33.7825 86.8184 33.8531 86.7396L34.5838 86.013C34.235 85.6103 33.9278 85.2075 33.6621 84.7924V84.7965ZM48.0564 98.5846C47.8612 97.966 46.5327 93.8018 44.4775 89.4299C44.1163 88.6535 43.726 87.8688 43.3192 87.0966C42.0155 84.6263 40.5001 82.2764 38.8518 80.6572C37.6188 79.4241 36.0162 78.6436 34.289 78.4277C34.2309 78.4194 34.1728 78.4152 34.1188 78.411C33.4836 78.3446 32.84 78.3571 32.2131 78.4484C31.0838 78.6062 29.9919 79.0172 29.0245 79.6483V75.0813C29.0245 74.882 28.9457 74.6869 28.8045 74.5457C28.6633 74.4046 28.4682 74.3257 28.2689 74.3257C28.0696 74.3257 27.8703 74.4046 27.7292 74.5457C27.588 74.6869 27.5091 74.882 27.5091 75.0813V79.3203L23.7476 75.5588C23.677 75.484 23.594 75.4218 23.4985 75.3802C23.4072 75.3387 23.3034 75.318 23.2037 75.3138C23.1041 75.3138 23.0003 75.3304 22.9089 75.3719C22.8135 75.4135 22.7263 75.4633 22.6557 75.538C22.581 75.6086 22.527 75.6916 22.4896 75.7913C22.4481 75.8826 22.4315 75.9864 22.4356 76.086C22.4356 76.1898 22.4564 76.2895 22.5021 76.3808C22.5436 76.4722 22.5976 76.5594 22.6764 76.6299L26.438 80.3915H22.2031V80.3998C21.9997 80.3998 21.8087 80.4786 21.6634 80.6198C21.5222 80.761 21.4434 80.9519 21.4434 81.1554C21.4434 81.3588 21.5222 81.5498 21.6634 81.6951C21.8087 81.8363 21.9997 81.9152 22.2031 81.9152H26.7701C25.782 83.4223 25.3419 85.22 25.5287 87.0094C25.7114 88.803 26.5044 90.4762 27.7832 91.7508C32.7321 96.7994 44.627 100.611 45.6982 100.951C46.0303 101.105 46.3998 101.159 46.7569 101.096C47.1181 101.034 47.4502 100.864 47.7118 100.602C47.9733 100.345 48.1436 100.013 48.2058 99.6516C48.2681 99.2904 48.2141 98.9168 48.0564 98.5888V98.5846ZM46.6365 99.5105C46.5991 99.552 46.5493 99.5769 46.4953 99.5852C46.4413 99.5894 46.3873 99.5811 46.3417 99.5603C46.296 99.5354 46.2545 99.5146 46.2088 99.5022C46.1175 99.4814 40.1389 97.6048 34.8661 94.8273L37.9011 91.7923C38.0422 91.6511 38.1211 91.456 38.1211 91.2567C38.1211 91.0574 38.0422 90.8623 37.9011 90.7211C37.7599 90.5758 37.5648 90.4969 37.3613 90.4969C37.1579 90.4969 36.9669 90.5758 36.8258 90.7211L33.4794 94.0675C31.6734 93.0254 30.0293 91.8878 28.8543 90.6755C27.7084 89.542 27.0483 88.01 26.9943 86.3991C26.9445 84.7882 27.5133 83.2188 28.5803 82.0107C29.5061 80.9603 30.76 80.2503 32.1301 79.9929C32.3335 79.9555 32.537 79.9265 32.7445 79.9098C33.2262 79.8642 33.7078 79.8808 34.1811 79.9472C35.2813 80.0967 36.3317 80.5409 37.2202 81.2384L33.6579 84.8007L32.7819 85.6767C32.7072 85.7431 32.6449 85.8262 32.6034 85.9258C32.5577 86.0171 32.537 86.1168 32.537 86.2164C32.537 86.3161 32.5536 86.4199 32.5951 86.5112C32.6324 86.6067 32.6864 86.6939 32.757 86.7686C32.8317 86.8392 32.9148 86.8973 33.0103 86.9347C33.1058 86.9721 33.2095 86.9887 33.3092 86.9887C33.4088 86.9845 33.5126 86.9637 33.604 86.9222C33.6953 86.8807 33.7783 86.8226 33.8489 86.7437L34.5796 86.0171L38.308 82.2888C39.4746 83.5759 40.5748 85.2532 41.5671 87.0592C41.92 87.7028 42.2646 88.3671 42.5926 89.0313C45.009 93.9429 46.5949 99.0123 46.6198 99.0953C46.6365 99.141 46.6531 99.1783 46.678 99.2198C46.7029 99.2697 46.7153 99.3278 46.7029 99.3776C46.6946 99.4316 46.6738 99.4814 46.6323 99.5146L46.6365 99.5105ZM33.6579 84.7924L32.7819 85.6684C32.7072 85.7348 32.6449 85.8179 32.6034 85.9175C32.5577 86.0088 32.537 86.1085 32.537 86.2081C32.537 86.3078 32.5536 86.4116 32.5951 86.5029C32.6324 86.5984 32.6864 86.6856 32.757 86.7603C32.8317 86.8309 32.9148 86.889 33.0103 86.9264C33.1058 86.9637 33.2095 86.9804 33.3092 86.9804C33.4088 86.9762 33.5126 86.9554 33.604 86.9139C33.6953 86.8724 33.7783 86.8143 33.8489 86.7354L34.5796 86.0088C34.2309 85.6061 33.9237 85.2034 33.6579 84.7882V84.7924Z" fill="white"/>
<path d="M35.1562 83.3019L33.6616 84.7924C33.9314 85.2117 34.2345 85.6144 34.5833 86.0171L36.0364 84.564C35.6835 84.1447 35.3929 83.7254 35.1521 83.306L35.1562 83.3019ZM49.4841 72.6318C48.936 72.1335 47.8607 71.5149 46.7771 71.1911C46.3785 71.0748 45.9675 70.9959 45.5398 70.9752L45.8429 70.6929C46.2581 70.3067 46.2789 69.6549 45.8928 69.2439C45.5066 68.8287 44.859 68.808 44.4438 69.1941L42.4094 71.0914L40.5494 69.219C40.1508 68.8163 39.5031 68.8163 39.1004 69.2148C38.6977 69.6134 38.6935 70.2652 39.0963 70.668L39.3952 70.971C38.9219 70.9835 38.4527 71.0541 38.0043 71.1911C36.8917 71.5108 35.8329 72.1294 35.2808 72.6318C33.9024 73.6822 32.553 75.8702 32.2126 78.4484C32.1669 78.7681 32.142 79.0878 32.1337 79.4199C32.1254 79.6109 32.1295 79.8061 32.1337 79.9929C32.3371 79.9555 32.5406 79.9265 32.7482 79.9099C33.2298 79.8642 33.7114 79.8808 34.1847 79.9472C34.1805 79.7894 34.1805 79.6358 34.1847 79.4822C34.193 79.121 34.2304 78.7723 34.2926 78.4318C34.6289 76.468 35.6793 74.8986 36.5554 74.2468L36.6052 74.2053L36.6509 74.1638C36.8667 73.9603 39.1212 72.611 42.6543 72.611C46.1875 72.611 47.923 73.9686 48.1223 74.1638L48.1679 74.2053L48.2219 74.2468C49.2432 75.0066 50.5137 77.0451 50.5884 79.4822C50.659 81.8155 49.6252 84.6097 45.9094 86.9555C45.6603 87.1132 45.3156 87.2461 44.9544 87.3208C44.5849 87.3955 44.2819 87.3914 44.1033 87.3499C43.7919 87.2751 43.6632 87.2212 43.5262 87.1672L43.4183 87.1257C43.3892 87.1132 43.356 87.1049 43.3269 87.0966C43.0571 87.0053 42.7997 86.9679 42.3886 86.9679C42.0399 86.9679 41.8074 86.9928 41.579 87.0551C41.9319 87.6986 42.2765 88.3629 42.6045 89.0272C42.617 89.0313 42.6294 89.0313 42.646 89.0313C42.6627 89.0355 42.6876 89.0396 42.7042 89.048L42.7748 89.0729C43.0529 89.185 43.3394 89.2763 43.63 89.3386C43.9082 89.405 44.1947 89.4299 44.4811 89.4258C44.7842 89.4216 45.0831 89.3801 45.3696 89.3261C45.9467 89.2099 46.4989 88.994 47.0054 88.6867C51.2818 85.9839 52.7308 82.5379 52.6394 79.4158C52.5522 76.4306 51.041 73.815 49.4882 72.6276L49.4841 72.6318ZM33.6616 84.7965C33.9314 85.2117 34.2345 85.6144 34.5833 86.0171L36.0364 84.564C35.6835 84.1447 35.3929 83.7254 35.1521 83.306L33.6574 84.8007L33.6616 84.7965ZM35.1562 83.3019L33.6616 84.7965C33.9314 85.2117 34.2345 85.6144 34.5833 86.0171L36.0364 84.564C35.6835 84.1447 35.3929 83.7254 35.1521 83.306L35.1562 83.3019Z" fill="white"/>
<path d="M44.4083 87.5948C44.2754 87.5948 44.155 87.5824 44.0554 87.5616C43.7357 87.4827 43.5945 87.4287 43.4575 87.3748L43.3413 87.3291C43.3122 87.3166 43.2915 87.3125 43.2749 87.3042C43.2167 87.2876 43.1586 87.2461 43.1337 87.1921C41.6515 84.3855 40.1652 82.239 38.7079 80.8108C37.5163 79.6192 35.9428 78.8511 34.2696 78.6394C34.2115 78.6311 34.1575 78.602 34.1201 78.5522C34.0828 78.5024 34.0703 78.4443 34.0786 78.382C34.4274 76.3393 35.511 74.7367 36.4285 74.0558L36.5074 73.9894C36.7275 73.7818 39.0442 72.3826 42.6604 72.3826C46.5548 72.3826 48.2653 73.9811 48.2819 73.9935L48.3193 74.0267L48.3567 74.0558C49.5233 74.9235 50.7398 77.0575 50.8145 79.4614C50.8768 81.5415 50.1004 84.5598 46.0317 87.1257C45.7618 87.3 45.3964 87.4412 45.0062 87.5201C44.7986 87.5616 44.5993 87.5824 44.4124 87.5824L44.4083 87.5948Z" fill="#E73D1E"/>
<path d="M42.6516 72.611C46.1807 72.611 47.9203 73.9686 48.1195 74.1638L48.1652 74.2053L48.2192 74.2468C49.2405 75.0066 50.511 77.0451 50.5857 79.4822C50.6563 81.8155 49.6225 84.6097 45.9066 86.9554C45.6575 87.1132 45.3129 87.2461 44.9517 87.3208C44.7441 87.3623 44.5573 87.3789 44.4037 87.3789C44.2833 87.3789 44.1795 87.3665 44.0965 87.3499C43.7892 87.2751 43.6564 87.2212 43.5194 87.1672L43.4114 87.1257C43.3823 87.1132 43.3491 87.1049 43.3201 87.0966C42.0164 84.6263 40.501 82.2764 38.8527 80.6572C37.6197 79.4241 36.0171 78.6436 34.2899 78.4277C34.6262 76.4639 35.6766 74.8945 36.5526 74.2426L36.6025 74.2011L36.6481 74.1596C36.864 73.9562 39.1185 72.6068 42.6516 72.6068M42.6516 72.1667C38.9607 72.1667 36.6232 73.5784 36.3451 73.8358L36.316 73.8607L36.2745 73.8939C35.3403 74.5872 34.2152 76.2438 33.8581 78.3446C33.8374 78.465 33.8664 78.5854 33.937 78.6809C34.0076 78.7764 34.1155 78.8428 34.2359 78.8553C35.8593 79.0587 37.3872 79.8061 38.5414 80.9603C39.982 82.376 41.4601 84.5059 42.9298 87.2917C42.9838 87.3997 43.0834 87.4786 43.1997 87.5118C43.2204 87.5159 43.2287 87.5201 43.2412 87.5242L43.3657 87.5699C43.5111 87.628 43.6688 87.6862 43.9968 87.765C44.1214 87.7941 44.2584 87.8066 44.4078 87.8066C44.6071 87.8066 44.8189 87.7817 45.0431 87.7401C45.4624 87.6529 45.8527 87.4993 46.1474 87.3125C50.2992 84.6927 51.0922 81.5913 51.03 79.4573C50.9552 76.9828 49.6931 74.7782 48.4849 73.8814L48.4475 73.8524L48.4185 73.8275C48.4185 73.8275 46.6332 72.1626 42.6516 72.1626V72.1667Z" fill="#1D1D1B"/>
<path d="M46.4745 99.8094C46.3956 99.8094 46.3209 99.7928 46.2544 99.7595C46.2088 99.7346 46.1838 99.7222 46.1506 99.7139C46.1174 99.7056 40.0558 97.8123 34.7706 95.0223C34.7083 94.9891 34.6668 94.931 34.6543 94.8604C34.646 94.7898 34.6668 94.7193 34.7166 94.6694L37.7515 91.6345C37.8512 91.5348 37.9093 91.3978 37.9093 91.2567C37.9093 91.1155 37.8553 90.9785 37.7515 90.8789C37.6519 90.7751 37.5149 90.7169 37.3696 90.7169C37.2243 90.7169 37.0914 90.7751 36.9918 90.8747L33.6454 94.2211C33.6039 94.2626 33.5458 94.2875 33.4876 94.2875C33.4503 94.2875 33.4129 94.2792 33.3755 94.2584C31.3121 93.0668 29.7842 91.9459 28.7006 90.829C27.5174 89.6541 26.8323 88.0805 26.7783 86.4074C26.7285 84.73 27.3098 83.1192 28.4183 81.8653C29.3691 80.7858 30.6727 80.0468 32.0885 79.777C32.2629 79.7479 32.4871 79.7105 32.7237 79.6898C32.9189 79.6732 33.114 79.6649 33.305 79.6649C33.6039 79.6649 33.907 79.6856 34.2059 79.7271C35.3518 79.8849 36.4396 80.3457 37.353 81.064C37.4028 81.1014 37.4319 81.1595 37.436 81.2259C37.436 81.2882 37.4152 81.3505 37.3737 81.3962L35.3061 83.4637L33.8364 84.9293C33.8364 84.9293 33.8239 84.9501 33.8156 84.9584L32.9396 85.8344C32.8773 85.8884 32.8358 85.9465 32.8109 86.0088C32.7777 86.0835 32.7611 86.1458 32.7611 86.2164C32.7611 86.2911 32.7735 86.3659 32.7985 86.424C32.8234 86.4987 32.8649 86.5568 32.9189 86.615C32.9687 86.6606 33.031 86.7022 33.0974 86.7312C33.1597 86.752 33.2344 86.7644 33.3091 86.7644C33.3755 86.7644 33.4503 86.7437 33.5167 86.7146C33.5748 86.6897 33.6288 86.6482 33.6869 86.59L34.4218 85.8593L38.1501 82.131C38.1916 82.0895 38.2498 82.0646 38.3079 82.0646H38.312C38.3743 82.0646 38.4283 82.0937 38.4698 82.1352C39.5534 83.3309 40.662 84.9501 41.7622 86.9471C42.1192 87.5948 42.4638 88.2632 42.7918 88.9275C45.258 93.9429 46.8232 98.9956 46.8315 99.033C46.8357 99.0413 46.8523 99.0745 46.8689 99.1036C46.9187 99.1949 46.9395 99.3029 46.9187 99.4066C46.9021 99.5146 46.8523 99.6059 46.7775 99.6724C46.7277 99.7305 46.6322 99.7845 46.5284 99.8011C46.516 99.8011 46.4786 99.8011 46.4662 99.8011L46.4745 99.8094Z" fill="#FFD405"/>
<path d="M33.3128 79.8808C33.6075 79.8808 33.8982 79.9015 34.1846 79.943C35.2849 80.0925 36.3353 80.5368 37.2238 81.2343L35.1562 83.3018L33.6615 84.7923L32.7855 85.6725C32.7108 85.739 32.6485 85.822 32.607 85.9216C32.5613 86.013 32.5405 86.1126 32.5405 86.2123C32.5405 86.3119 32.5571 86.4157 32.5987 86.507C32.636 86.6025 32.69 86.6897 32.7606 86.7644C32.8353 86.835 32.9183 86.8932 33.0138 86.9305C33.1093 86.9679 33.2131 86.9845 33.3128 86.9845C33.4124 86.9803 33.5162 86.9596 33.6075 86.9181C33.6989 86.8765 33.7819 86.8184 33.8525 86.7395L34.5832 86.013L38.3115 82.2847C39.4782 83.5717 40.5784 85.249 41.5707 87.0551C41.9236 87.6986 42.2682 88.3629 42.5962 89.0272C45.0125 93.9388 46.5985 99.0081 46.6234 99.0911C46.64 99.1368 46.6566 99.1742 46.6816 99.2157C46.7065 99.2655 46.7189 99.3236 46.7065 99.3735C46.6982 99.4274 46.6774 99.4772 46.6359 99.5105C46.5985 99.552 46.5487 99.5769 46.4947 99.5852C46.4864 99.5852 46.4781 99.5852 46.4698 99.5852C46.4241 99.5852 46.3826 99.5769 46.3411 99.5561C46.2954 99.5312 46.2539 99.5105 46.2082 99.498C46.1169 99.4772 40.1383 97.6006 34.8655 94.8231L37.9005 91.7881C38.0417 91.647 38.1205 91.4518 38.1205 91.2525C38.1205 91.0533 38.0417 90.8581 37.9005 90.717C37.7593 90.5716 37.5642 90.4928 37.3608 90.4928C37.1573 90.4928 36.9663 90.5716 36.8252 90.717L33.4788 94.0633C31.6728 93.0212 30.0287 91.8836 28.8537 90.6713C27.7078 89.5378 27.0477 88.0058 26.9937 86.3949C26.9439 84.784 27.5127 83.2147 28.5797 82.0065C29.5056 80.9561 30.7594 80.2461 32.1295 79.9887C32.3329 79.9514 32.5364 79.9223 32.744 79.9057C32.9308 79.8891 33.1218 79.8808 33.3086 79.8808M33.3086 79.4407C33.1093 79.4407 32.9059 79.449 32.7025 79.4697C32.5115 79.4863 32.3122 79.5113 32.0548 79.5569C30.585 79.8351 29.2357 80.6032 28.2517 81.72C27.1058 83.0112 26.5038 84.6802 26.5536 86.4115C26.6118 88.147 27.3176 89.7703 28.5424 90.9868C29.6301 92.112 31.1746 93.2496 33.2588 94.4494C33.3294 94.4909 33.4041 94.5075 33.4788 94.5075C33.5951 94.5075 33.7072 94.4619 33.7902 94.3788L37.1366 91.0325C37.1988 90.9702 37.2777 90.937 37.3608 90.937C37.448 90.937 37.5268 90.9702 37.5808 91.0283C37.6431 91.0906 37.6763 91.1695 37.6763 91.2567C37.6763 91.3439 37.6431 91.4228 37.585 91.4809L34.55 94.5159C34.4504 94.6155 34.4047 94.7567 34.4254 94.8937C34.4462 95.0307 34.5334 95.1511 34.6579 95.2175C39.8851 97.9743 45.6394 99.7886 46.0795 99.9215C46.0795 99.9215 46.1086 99.9339 46.1128 99.9339C46.1294 99.9422 46.1418 99.9505 46.1584 99.9588C46.2581 100.005 46.3619 100.025 46.4698 100.025C46.4906 100.025 46.5113 100.025 46.5321 100.025C46.5445 100.025 46.557 100.025 46.5653 100.021C46.7106 99.9962 46.8476 99.9256 46.9473 99.8218C47.0511 99.7222 47.1175 99.5935 47.1424 99.444C47.1673 99.2904 47.1424 99.1326 47.0677 98.9998C47.0552 98.979 47.0469 98.9583 47.0386 98.9375C46.8891 98.4601 45.3488 93.6149 42.9948 88.8279C42.6626 88.1594 42.318 87.4869 41.961 86.8392C40.8524 84.8214 39.7356 83.1898 38.6395 81.9816C38.5565 81.8902 38.4444 81.8404 38.324 81.8363C38.324 81.8363 38.3157 81.8363 38.3115 81.8363C38.1953 81.8363 38.0832 81.8819 38.0001 81.965L34.2718 85.6933L33.5453 86.4157C33.4996 86.4614 33.4705 86.4863 33.4415 86.4987C33.4 86.5153 33.3501 86.5278 33.3003 86.5278C33.2712 86.5278 33.2256 86.5195 33.1799 86.507C33.1467 86.4904 33.1093 86.4655 33.0761 86.4365C33.0471 86.4032 33.0263 86.37 33.0138 86.341C33.0138 86.3327 33.0097 86.3244 33.0055 86.3161C32.9931 86.2828 32.9848 86.2413 32.9848 86.1956C32.9848 86.1583 32.9931 86.1292 33.0097 86.096C33.0097 86.0877 33.018 86.0794 33.018 86.0711C33.0304 86.042 33.0512 86.013 33.0761 85.9881C33.0844 85.9839 33.0886 85.9756 33.0969 85.9673L33.9729 85.0913C33.9729 85.0913 33.9978 85.0664 34.0061 85.0539L35.4634 83.6008L37.531 81.5332C37.6223 81.446 37.668 81.3214 37.6597 81.1927C37.6514 81.0682 37.5891 80.9519 37.4936 80.8731C36.5512 80.1299 35.426 79.6524 34.2386 79.4905C33.9314 79.449 33.6158 79.4241 33.3086 79.4241V79.4407Z" fill="#1D1D1B"/>
</svg>
