<svg width="135" height="125" viewBox="0 0 135 125" fill="none" xmlns="http://www.w3.org/2000/svg">
<path d="M129.836 19.9162H102.216V12.164C102.216 11.5221 101.694 11 101.052 11H31.9337C31.2885 11 30.7697 11.5221 30.7697 12.164V19.9162H9.60154C8.95968 19.9162 8.43754 20.4384 8.43754 21.0802V32.544V44.2571L3.1297 54.5968C3.1297 54.5968 3.12305 54.62 3.11973 54.63C3.08314 54.6999 3.05654 54.773 3.03991 54.8528C3.03658 54.8628 3.02993 54.8728 3.02661 54.8861C3.00998 54.9659 3 55.0457 3 55.1289V60.9622C3 61.604 3.52214 62.1262 4.164 62.1262H8.43754V91.02V113.412C8.43754 114.057 8.95968 114.576 9.60154 114.576H129.836C130.478 114.576 131 114.057 131 113.412V32.5473V21.0802C131 20.4384 130.478 19.9162 129.836 19.9162ZM33.0977 13.328H99.888V21.0636C99.888 21.0636 99.8846 21.0769 99.8846 21.0802C99.8846 21.0869 99.888 21.0902 99.888 21.0969V26.7938H33.0977V13.328ZM10.7655 33.7113H13.8485L10.7655 39.7175V33.7113ZM10.6392 45.0686C10.6458 45.052 10.6558 45.0353 10.6624 45.0154L16.2995 34.0372C16.3527 33.9308 16.3827 33.821 16.4026 33.7113H93.6522C93.6722 33.821 93.7055 33.9308 93.7587 34.0372L99.9877 46.1761C99.9977 46.1927 100.004 46.2126 100.014 46.2293L103.985 53.9649H48.4924V51.6801C48.4924 51.0382 47.9736 50.5161 47.3284 50.5161H13.8784C13.2332 50.5161 12.7144 51.0382 12.7144 51.6801V53.9649H6.06963L10.6392 45.0686ZM96.2064 33.7113H99.888V40.8782L96.2064 33.7113ZM13.8784 86.64H29.925L33.1409 89.856H10.7655V62.1262H12.7144V85.476C12.7144 86.1179 13.2332 86.64 13.8784 86.64ZM31.2286 84.6512C31.0091 84.4351 30.7132 84.312 30.4039 84.312H15.0424V52.8441H46.1644V84.312H41.1027C40.4608 84.312 39.9387 84.8341 39.9387 85.476V93.3646L31.2286 84.6512ZM42.2667 86.64H47.3284C47.9736 86.64 48.4924 86.1179 48.4924 85.476V83.6269H69.7171C70.3623 83.6269 70.8811 83.1048 70.8811 82.4629V62.1262H75.6868V82.4629C75.6868 83.1048 76.2089 83.6269 76.8508 83.6269H96.4359C97.0811 83.6269 97.5999 83.1048 97.5999 82.4629V62.1262H99.888V89.856H42.2667V86.64ZM55.9886 71.0258V81.2989H48.4924V71.0258H55.9886ZM48.4924 68.6978V62.1262H55.9886V68.6978H48.4924ZM68.5531 71.0258V81.2989H58.3166V71.0258H68.5531ZM58.3166 68.6978V62.1262H68.5531V68.6978H58.3166ZM85.481 71.0258V81.2989H78.0148V71.0258H85.481ZM78.0148 68.6978V62.1262H85.481V68.6978H78.0148ZM95.2719 71.0258V81.2989H87.809V71.0258H95.2719ZM87.809 68.6978V62.1262H95.2719V68.6978H87.809ZM48.4924 59.7982V56.2929H104.727V59.7982H48.4924ZM102.216 62.1262H103.756V86.5469C103.756 87.1921 104.278 87.7109 104.92 87.7109H115.562C116.207 87.7109 116.726 87.1921 116.726 86.5469V55.1322C116.726 54.487 116.207 53.9682 115.562 53.9682H106.603L105.269 51.3708H118.226V101.35H102.216V62.1262ZM106.084 85.3829V62.1062C106.636 62.0131 107.055 61.5375 107.055 60.9622V56.2962H114.398V85.3829H106.084ZM104.075 49.0428L102.216 45.4178V33.7113H118.226V49.0428H104.075ZM5.328 59.7982V56.2929H12.7144V59.7982H5.328ZM19.9478 112.248L22.6982 106.79L25.4486 112.248H19.9478ZM36.8724 112.248L38.1628 109.561C38.206 109.471 38.2293 109.371 38.2293 109.271V102.46H40.1183V109.271C40.1183 109.371 40.1415 109.471 40.1848 109.561L41.4752 112.248H36.8724ZM27.2478 101.13V99.1679H50.3282V101.13H27.2478ZM53.3613 112.248L56.1083 106.79L58.8587 112.248H53.3579H53.3613ZM85.481 107.602V112.248H61.0969L58.3465 106.79H60.6745C61.2266 106.79 61.6722 106.342 61.6722 105.793V94.4621C61.6722 93.9133 61.2266 93.4644 60.6745 93.4644C60.1224 93.4644 59.6768 93.9133 59.6768 94.4621V104.795H51.5454C50.9967 104.795 50.5477 105.241 50.5477 105.793C50.5477 106.345 50.9967 106.79 51.5454 106.79H53.8767L51.1264 112.248H42.9385C42.9252 112.208 42.9119 112.165 42.8919 112.125L41.4486 109.122V102.46H50.9933C51.3625 102.46 51.6585 102.161 51.6585 101.795V98.5028C51.6585 98.137 51.3625 97.8377 50.9933 97.8377H26.5826C26.2168 97.8377 25.9175 98.137 25.9175 98.5028V101.795C25.9175 102.161 26.2168 102.46 26.5826 102.46H36.899V109.122L35.4556 112.125C35.4357 112.165 35.4224 112.208 35.4091 112.248H27.6834L24.9331 106.79H27.2611C27.8131 106.79 28.2588 106.342 28.2588 105.793C28.2588 105.244 27.8131 104.795 27.2611 104.795H19.133V94.4621C19.133 93.9133 18.6841 93.4644 18.1353 93.4644C17.5866 93.4644 17.1376 93.9133 17.1376 94.4621V105.793C17.1376 106.342 17.5832 106.79 18.1353 106.79H20.4633L17.7129 112.248H10.7655V92.184H35.4689L40.2812 96.9963C40.5041 97.2191 40.8 97.3388 41.106 97.3388C41.2557 97.3388 41.4053 97.3089 41.5483 97.249C41.984 97.0694 42.2667 96.6437 42.2667 96.1748V92.184H99.888V101.433H93.4926C92.8508 101.433 92.3286 101.952 92.3286 102.597V106.438H86.645C85.9998 106.438 85.481 106.96 85.481 107.602ZM128.672 112.248H87.809V108.766H128.672V112.248ZM128.672 106.438H94.6566V103.761H101.052C101.202 103.761 101.345 103.728 101.478 103.678H128.672V106.438ZM128.672 101.35H120.554V33.7113H128.672V101.35ZM128.672 31.38H10.7655V22.2442H30.7697V27.9578C30.7697 28.603 31.2885 29.1218 31.9337 29.1218H101.052C101.694 29.1218 102.216 28.603 102.216 27.9578V22.2442H128.672V31.38Z" fill="white"/>
<path d="M55.9867 70.8595H48.4905C48.3987 70.8595 48.3242 70.9339 48.3242 71.0258V81.2989C48.3242 81.3907 48.3987 81.4652 48.4905 81.4652H55.9867C56.0785 81.4652 56.1529 81.3907 56.1529 81.2989V71.0258C56.1529 70.9339 56.0785 70.8595 55.9867 70.8595Z" fill="#FFD405"/>
<path d="M55.9869 71.0258V81.2989H48.4908V71.0258H55.9869ZM55.9869 70.6932H48.4908C48.3079 70.6932 48.1582 70.8429 48.1582 71.0258V81.2989C48.1582 81.4818 48.3079 81.6315 48.4908 81.6315H55.9869C56.1698 81.6315 56.3195 81.4818 56.3195 81.2989V71.0258C56.3195 70.8429 56.1698 70.6932 55.9869 70.6932Z" fill="#1D1D1B"/>
<path d="M68.5532 61.9599H58.3167C58.2248 61.9599 58.1504 62.0343 58.1504 62.1262V68.6978C58.1504 68.7896 58.2248 68.8641 58.3167 68.8641H68.5532C68.6451 68.8641 68.7195 68.7896 68.7195 68.6978V62.1262C68.7195 62.0343 68.6451 61.9599 68.5532 61.9599Z" fill="#FFD405"/>
<path d="M68.5535 62.1262V68.6978H58.3169V62.1262H68.5535ZM68.5535 61.7936H58.3169C58.134 61.7936 57.9844 61.9433 57.9844 62.1262V68.6978C57.9844 68.8807 58.134 69.0304 58.3169 69.0304H68.5535C68.7364 69.0304 68.8861 68.8807 68.8861 68.6978V62.1262C68.8861 61.9433 68.7364 61.7936 68.5535 61.7936Z" fill="#1D1D1B"/>
<path d="M68.5532 70.8595H58.3167C58.2248 70.8595 58.1504 70.9339 58.1504 71.0258V81.2989C58.1504 81.3907 58.2248 81.4652 58.3167 81.4652H68.5532C68.6451 81.4652 68.7195 81.3907 68.7195 81.2989V71.0258C68.7195 70.9339 68.6451 70.8595 68.5532 70.8595Z" fill="#E73D1C"/>
<path d="M68.5535 71.0258V81.2989H58.3169V71.0258H68.5535ZM68.5535 70.6932H58.3169C58.134 70.6932 57.9844 70.8429 57.9844 71.0258V81.2989C57.9844 81.4818 58.134 81.6315 58.3169 81.6315H68.5535C68.7364 81.6315 68.8861 81.4818 68.8861 81.2989V71.0258C68.8861 70.8429 68.7364 70.6932 68.5535 70.6932Z" fill="#1D1D1B"/>
<path d="M85.4821 70.8595H78.0159C77.9241 70.8595 77.8496 70.9339 77.8496 71.0258V81.2989C77.8496 81.3907 77.9241 81.4652 78.0159 81.4652H85.4821C85.574 81.4652 85.6484 81.3907 85.6484 81.2989V71.0258C85.6484 70.9339 85.574 70.8595 85.4821 70.8595Z" fill="#FFD405"/>
<path d="M85.4824 71.0258V81.2989H78.0162V71.0258H85.4824ZM85.4824 70.6932H78.0162C77.8333 70.6932 77.6836 70.8429 77.6836 71.0258V81.2989C77.6836 81.4818 77.8333 81.6315 78.0162 81.6315H85.4824C85.6653 81.6315 85.815 81.4818 85.815 81.2989V71.0258C85.815 70.8429 85.6653 70.6932 85.4824 70.6932Z" fill="#1D1D1B"/>
<path d="M95.2718 61.9599H87.8089C87.717 61.9599 87.6426 62.0343 87.6426 62.1262V68.6978C87.6426 68.7896 87.717 68.8641 87.8089 68.8641H95.2718C95.3636 68.8641 95.4381 68.7896 95.4381 68.6978V62.1262C95.4381 62.0343 95.3636 61.9599 95.2718 61.9599Z" fill="#E73D1C"/>
<path d="M95.272 62.1262V68.6978H87.8091V62.1262H95.272ZM95.272 61.7936H87.8091C87.6262 61.7936 87.4766 61.9433 87.4766 62.1262V68.6978C87.4766 68.8807 87.6262 69.0304 87.8091 69.0304H95.272C95.455 69.0304 95.6046 68.8807 95.6046 68.6978V62.1262C95.6046 61.9433 95.455 61.7936 95.272 61.7936Z" fill="#1D1D1B"/>
<path d="M85.4821 61.9599H78.0159C77.9241 61.9599 77.8496 62.0343 77.8496 62.1262V68.6978C77.8496 68.7896 77.9241 68.8641 78.0159 68.8641H85.4821C85.574 68.8641 85.6484 68.7896 85.6484 68.6978V62.1262C85.6484 62.0343 85.574 61.9599 85.4821 61.9599Z" fill="#FFD405"/>
<path d="M85.4824 62.1262V68.6978H78.0162V62.1262H85.4824ZM85.4824 61.7936H78.0162C77.8333 61.7936 77.6836 61.9433 77.6836 62.1262V68.6978C77.6836 68.8807 77.8333 69.0304 78.0162 69.0304H85.4824C85.6653 69.0304 85.815 68.8807 85.815 68.6978V62.1262C85.815 61.9433 85.6653 61.7936 85.4824 61.7936Z" fill="#1D1D1B"/>
<path d="M95.272 71.0258V81.2989H87.8091V71.0258H95.272ZM95.272 70.6932H87.8091C87.6262 70.6932 87.4766 70.8429 87.4766 71.0258V81.2989C87.4766 81.4818 87.6262 81.6315 87.8091 81.6315H95.272C95.455 81.6315 95.6046 81.4818 95.6046 81.2989V71.0258C95.6046 70.8429 95.455 70.6932 95.272 70.6932Z" fill="#1D1D1B"/>
<path d="M115.562 89.6863H104.92C104.278 89.6863 103.756 90.2085 103.756 90.8503V98.3232C103.756 98.9651 104.278 99.4872 104.92 99.4872H115.562C116.204 99.4872 116.726 98.9651 116.726 98.3232V90.8503C116.726 90.2085 116.204 89.6863 115.562 89.6863ZM114.398 97.1592H106.084V92.0143H114.398V97.1592Z" fill="white"/>
<path d="M43.2384 75.3292H42.4702C42.0545 70.1977 38.3097 65.9973 33.4043 64.8865C33.7202 64.4043 33.9065 63.8256 33.9065 63.2037C33.9065 61.5076 32.5263 60.1241 30.8269 60.1241C29.1274 60.1241 27.7506 61.5076 27.7506 63.2037C27.7506 63.8256 27.9368 64.4043 28.2528 64.8898C23.3474 65.9973 19.6026 70.201 19.1869 75.3292H18.1094C17.5839 75.3292 17.1582 75.7583 17.1582 76.2837C17.1582 76.8092 17.5839 77.2349 18.1094 77.2349H43.2384C43.7639 77.2349 44.1929 76.8092 44.1929 76.2837C44.1929 75.7583 43.7639 75.3292 43.2384 75.3292ZM30.8269 62.0297C31.4754 62.0297 32.0042 62.5552 32.0042 63.2037C32.0042 63.8522 31.4754 64.381 30.8269 64.381C30.1784 64.381 29.6529 63.8522 29.6529 63.2037C29.6529 62.5552 30.1817 62.0297 30.8269 62.0297ZM21.0958 75.3292C21.5747 70.3839 25.7585 66.5028 30.8302 66.5028C35.9019 66.5028 40.0823 70.3839 40.5646 75.3292H21.0958Z" fill="white"/>
<path d="M21.0964 75.4955C21.0498 75.4955 21.0033 75.4756 20.9733 75.4423C20.9434 75.4091 20.9268 75.3625 20.9301 75.3159C21.4256 70.1977 25.6825 66.3398 30.8308 66.3398C35.979 66.3398 40.2325 70.1977 40.7314 75.3159C40.7347 75.3625 40.7214 75.4091 40.6882 75.4423C40.6582 75.4756 40.6117 75.4955 40.5651 75.4955H21.0964Z" fill="#E73D1C"/>
<path d="M30.8304 66.5028C35.9021 66.5028 40.0825 70.3839 40.5648 75.3292H21.096C21.5749 70.3839 25.7587 66.5028 30.8304 66.5028ZM30.8304 66.1702C28.3062 66.1702 25.8851 67.1114 24.016 68.8175C22.1603 70.5136 21.0062 72.815 20.7635 75.2993C20.7535 75.3924 20.7868 75.4856 20.8466 75.5554C20.9098 75.6252 20.9996 75.6651 21.0927 75.6651H40.5614C40.6546 75.6651 40.7443 75.6252 40.8075 75.5554C40.8707 75.4856 40.9007 75.3924 40.8907 75.2993C40.6479 72.815 39.4939 70.5136 37.6381 68.8175C35.7691 67.1114 33.3513 66.1702 30.8271 66.1702H30.8304Z" fill="#1D1D1B"/>
<path d="M28.5224 68.5115C26.813 69.2332 25.6124 70.4371 24.9539 72.0933C24.761 72.5822 24.9972 73.1343 25.486 73.3305C25.6024 73.377 25.7188 73.397 25.8386 73.397C26.2177 73.397 26.5735 73.1709 26.7232 72.795C27.1921 71.6144 28.0236 70.7863 29.264 70.2642C29.7496 70.0613 29.9757 69.5026 29.7695 69.017C29.5667 68.5315 29.008 68.3053 28.5224 68.5115Z" fill="white"/>
<path d="M39.4928 22.6167L38.5416 20.9472H38.1259V22.6167H36.7324V17.392H38.8775C39.2234 17.392 39.546 17.4685 39.8287 17.6182C40.1147 17.7712 40.3441 17.984 40.5071 18.2567C40.6701 18.5294 40.7499 18.8387 40.7499 19.1813C40.7499 19.5238 40.6601 19.8364 40.4872 20.1158C40.3441 20.3419 40.1546 20.5282 39.9284 20.6645L41.0725 22.6167H39.4994H39.4928ZM38.8077 19.6369C38.9806 19.6369 39.1136 19.5936 39.2101 19.5038C39.3032 19.4174 39.3464 19.3143 39.3464 19.1713C39.3464 19.0748 39.3265 18.995 39.2866 18.9252C39.2467 18.8587 39.1901 18.8054 39.1103 18.7655C39.0272 18.7256 38.9241 18.7024 38.8077 18.7024H38.1292V19.6336H38.8077V19.6369Z" fill="white"/>
<path d="M43.0977 22.6167V17.392H46.3635V18.7057H44.4911V19.3376H46.1806V20.6246H44.4911V21.2997H46.44V22.6167H43.0977Z" fill="white"/>
<path d="M50.5385 22.7132C49.9299 22.7132 49.4344 22.5469 49.0552 22.2209C48.6728 21.8884 48.4766 21.4328 48.4766 20.8607V20.6944H49.8767V20.8607C49.8767 20.9539 49.8933 21.0303 49.9266 21.0969C49.9598 21.1634 50.0031 21.2166 50.0563 21.2565C50.1161 21.2997 50.186 21.333 50.2658 21.3563C50.3489 21.3795 50.4354 21.3928 50.5285 21.3928C50.7114 21.3928 50.8644 21.3529 50.9941 21.2665C51.1039 21.1933 51.1538 21.1068 51.1538 20.9871C51.1538 20.9439 51.1438 20.9073 51.1238 20.8774C51.0972 20.8375 51.0673 20.8042 51.0374 20.7809C51.0141 20.7643 50.9609 20.7344 50.8511 20.6944C50.758 20.6579 50.6782 20.6313 50.6117 20.6146C50.5418 20.598 50.4387 20.5714 50.3024 20.5381L50.0496 20.475C49.9931 20.4616 49.9066 20.435 49.7935 20.4018C49.6771 20.3685 49.5873 20.3353 49.5242 20.3087C49.4643 20.2821 49.3845 20.2455 49.288 20.1956C49.1816 20.1424 49.0985 20.0858 49.0353 20.0293C48.9787 19.9794 48.9189 19.9162 48.8524 19.8431C48.7759 19.7599 48.7193 19.6701 48.6794 19.577C48.6428 19.4939 48.6129 19.3941 48.5863 19.2843C48.5597 19.1746 48.5464 19.0515 48.5464 18.9285C48.5464 18.413 48.726 18.0039 49.0818 17.7146C49.4277 17.4352 49.9 17.2922 50.4853 17.2922C51.0706 17.2922 51.5528 17.4486 51.8921 17.7545C52.2379 18.0671 52.4109 18.4962 52.4109 19.0316V19.1979H51.0307V19.0316C51.0307 18.8853 50.9841 18.7822 50.8844 18.709C50.7713 18.6259 50.6316 18.5826 50.4554 18.5826C50.2991 18.5826 50.1627 18.6159 50.0529 18.6791C49.9665 18.729 49.9299 18.7888 49.9299 18.8786C49.9299 18.9152 49.9365 18.9451 49.9532 18.9717C49.9798 19.0116 50.0064 19.0416 50.0363 19.0615C50.0596 19.0782 50.1062 19.1048 50.2093 19.1447C50.299 19.1779 50.3789 19.2012 50.4421 19.2178L50.7447 19.291C50.8977 19.3309 51.0108 19.3575 51.0872 19.3808C51.1637 19.4041 51.2735 19.4373 51.4198 19.4905C51.5728 19.5438 51.6892 19.597 51.7757 19.6468C51.8555 19.6967 51.9519 19.7599 52.0584 19.8397C52.1781 19.9295 52.2712 20.0326 52.3344 20.1391C52.3942 20.2422 52.4475 20.3619 52.4907 20.5016C52.5339 20.6446 52.5572 20.8009 52.5572 20.9672C52.5572 21.3396 52.4608 21.6656 52.2679 21.9383C52.0783 22.2043 51.8289 22.4039 51.5262 22.5269C51.2336 22.6466 50.901 22.7065 50.5318 22.7065L50.5385 22.7132Z" fill="white"/>
<path d="M55.6797 22.6167V18.7123H54.3262V17.392H58.4368V18.7123H57.0765V22.6167H55.6797Z" fill="white"/>
<path d="M63.3887 22.6167L63.0462 21.6888H61.3301L60.9942 22.6167H59.5176L61.5629 17.392H62.7868L64.8986 22.6167H63.3887ZM62.5872 20.4317L62.1848 19.3342L61.7857 20.4317H62.5872Z" fill="white"/>
<path d="M68.81 22.7231C68.1848 22.7231 67.6626 22.5236 67.2502 22.1312C66.8345 21.7354 66.625 21.2266 66.625 20.6146V17.3953H68.0185V20.5647C68.0185 20.8208 68.0883 21.017 68.238 21.17C68.3843 21.3197 68.5705 21.3928 68.81 21.3928C69.0494 21.3928 69.239 21.3197 69.3853 21.17C69.535 21.0204 69.6048 20.8208 69.6048 20.5681V17.3987H70.9917V20.618C70.9917 21.2299 70.7821 21.742 70.3664 22.1345C69.954 22.5269 69.4286 22.7265 68.8067 22.7265L68.81 22.7231Z" fill="white"/>
<path d="M76.235 22.6167L75.2838 20.9472H74.8681V22.6167H73.4746V17.392H75.6197C75.9656 17.392 76.2882 17.4685 76.5708 17.6182C76.8569 17.7712 77.0863 17.984 77.2493 18.2567C77.4122 18.5294 77.4921 18.8387 77.4921 19.1813C77.4921 19.5238 77.4023 19.8364 77.2293 20.1158C77.0863 20.3419 76.8968 20.5282 76.6706 20.6645L77.8147 22.6167H76.2416H76.235ZM75.5499 19.6369C75.7228 19.6369 75.8558 19.5936 75.9523 19.5038C76.0454 19.4174 76.0886 19.3143 76.0886 19.1713C76.0886 19.0748 76.0687 18.995 76.0288 18.9252C75.9888 18.8587 75.9323 18.8054 75.8525 18.7655C75.7693 18.7256 75.6663 18.7024 75.5499 18.7024H74.8714V19.6336H75.5499V19.6369Z" fill="white"/>
<path d="M83.0996 22.6167L82.7571 21.6888H81.041L80.7051 22.6167H79.2285L81.2738 17.392H82.4977L84.6095 22.6167H83.0996ZM82.2981 20.4317L81.8957 19.3342L81.4966 20.4317H82.2981Z" fill="white"/>
<path d="M89.9015 22.6167L87.936 19.9096V22.6167H86.5625V17.392H87.7731L89.6654 20.026V17.392H91.0323V22.6167H89.9015Z" fill="white"/>
<path d="M94.5131 22.6167V18.7123H93.1562V17.392H97.2702V18.7123H95.9066V22.6167H94.5131Z" fill="white"/>
</svg>
