<svg width="135" height="125" viewBox="0 0 135 125" fill="none" xmlns="http://www.w3.org/2000/svg">
<path d="M53.9063 36.6676H47.1983C46.5289 36.6676 45.9844 37.2087 45.9844 37.8816V44.5896C45.9844 45.259 46.5289 45.8035 47.1983 45.8035H53.9063C54.5792 45.8035 55.1203 45.259 55.1203 44.5896V37.8816C55.1203 37.2087 54.5792 36.6676 53.9063 36.6676ZM52.6924 43.3756H48.4123V39.0955H52.6924V43.3756Z" fill="white"/>
<path d="M65.0723 36.6676H58.3643C57.6915 36.6676 57.1504 37.2087 57.1504 37.8816V44.5896C57.1504 45.259 57.6915 45.8035 58.3643 45.8035H65.0723C65.7417 45.8035 66.2863 45.259 66.2863 44.5896V37.8816C66.2863 37.2087 65.7417 36.6676 65.0723 36.6676ZM63.8584 43.3756H59.5783V39.0955H63.8584V43.3756Z" fill="white"/>
<path d="M76.2325 36.5601H69.5245C68.8551 36.5601 68.3105 37.1047 68.3105 37.7741V44.4821C68.3105 45.1515 68.8551 45.696 69.5245 45.696H76.2325C76.9019 45.696 77.4465 45.1515 77.4465 44.4821V37.7741C77.4465 37.1047 76.9019 36.5601 76.2325 36.5601ZM75.0185 43.2681H70.7385V38.988H75.0185V43.2681Z" fill="white"/>
<path d="M87.8911 36.5601H81.1866C80.5137 36.5601 79.9727 37.1047 79.9727 37.7741V44.4821C79.9727 45.1515 80.5137 45.696 81.1866 45.696H87.8911C88.564 45.696 89.1051 45.1515 89.1051 44.4821V37.7741C89.1051 37.1047 88.564 36.5601 87.8911 36.5601ZM86.6772 43.2681H82.4006V38.988H86.6772V43.2681Z" fill="white"/>
<path d="M53.9063 48.8141H47.1983C46.5289 48.8141 45.9844 49.3587 45.9844 50.0281V56.7361C45.9844 57.4055 46.5289 57.95 47.1983 57.95H53.9063C54.5792 57.95 55.1203 57.4055 55.1203 56.7361V50.0281C55.1203 49.3587 54.5792 48.8141 53.9063 48.8141ZM52.6924 55.5221H48.4123V51.2421H52.6924V55.5221Z" fill="white"/>
<path d="M65.0723 48.8141H58.3643C57.6915 48.8141 57.1504 49.3587 57.1504 50.0281V56.7361C57.1504 57.4055 57.6915 57.95 58.3643 57.95H65.0723C65.7417 57.95 66.2863 57.4055 66.2863 56.7361V50.0281C66.2863 49.3587 65.7417 48.8141 65.0723 48.8141ZM63.8584 55.5221H59.5783V51.2421H63.8584V55.5221Z" fill="white"/>
<path d="M76.2325 48.7066H69.5245C68.8551 48.7066 68.3105 49.2512 68.3105 49.9206V56.6286C68.3105 57.298 68.8551 57.8425 69.5245 57.8425H76.2325C76.9019 57.8425 77.4465 57.298 77.4465 56.6286V49.9206C77.4465 49.2512 76.9019 48.7066 76.2325 48.7066ZM75.0185 55.4146H70.7385V51.1346H75.0185V55.4146Z" fill="white"/>
<path d="M87.8911 48.7066H81.1866C80.5137 48.7066 79.9727 49.2512 79.9727 49.9206V56.6286C79.9727 57.298 80.5137 57.8425 81.1866 57.8425H87.8911C88.564 57.8425 89.1051 57.298 89.1051 56.6286V49.9206C89.1051 49.2512 88.564 48.7066 87.8911 48.7066ZM86.6772 55.4146H82.4006V51.1346H86.6772V55.4146Z" fill="white"/>
<path d="M53.9063 60.9607H47.1983C46.5289 60.9607 45.9844 61.5052 45.9844 62.1746V68.8826C45.9844 69.5555 46.5289 70.0966 47.1983 70.0966H53.9063C54.5792 70.0966 55.1203 69.5555 55.1203 68.8826V62.1746C55.1203 61.5052 54.5792 60.9607 53.9063 60.9607ZM52.6924 67.6686H48.4123V63.3886H52.6924V67.6686Z" fill="white"/>
<path d="M65.0723 60.9607H58.3643C57.6915 60.9607 57.1504 61.5052 57.1504 62.1746V68.8826C57.1504 69.5555 57.6915 70.0966 58.3643 70.0966H65.0723C65.7417 70.0966 66.2863 69.5555 66.2863 68.8826V62.1746C66.2863 61.5052 65.7417 60.9607 65.0723 60.9607ZM63.8584 67.6686H59.5783V63.3886H63.8584V67.6686Z" fill="white"/>
<path d="M76.2325 60.8566H69.5245C68.8551 60.8566 68.3105 61.3977 68.3105 62.0706V68.7786C68.3105 69.448 68.8551 69.9925 69.5245 69.9925H76.2325C76.9019 69.9925 77.4465 69.448 77.4465 68.7786V62.0706C77.4465 61.3977 76.9019 60.8566 76.2325 60.8566ZM75.0185 67.5646H70.7385V63.2845H75.0185V67.5646Z" fill="white"/>
<path d="M87.8911 60.8566H81.1866C80.5137 60.8566 79.9727 61.3977 79.9727 62.0706V68.7786C79.9727 69.448 80.5137 69.9925 81.1866 69.9925H87.8911C88.564 69.9925 89.1051 69.448 89.1051 68.7786V62.0706C89.1051 61.3977 88.564 60.8566 87.8911 60.8566ZM86.6772 67.5646H82.4006V63.2845H86.6772V67.5646Z" fill="white"/>
<path d="M53.9063 73.1107H47.1983C46.5289 73.1107 45.9844 73.6552 45.9844 74.3246V81.0326C45.9844 81.702 46.5289 82.2466 47.1983 82.2466H53.9063C54.5792 82.2466 55.1203 81.702 55.1203 81.0326V74.3246C55.1203 73.6552 54.5792 73.1107 53.9063 73.1107ZM52.6924 79.8186H48.4123V75.5386H52.6924V79.8186Z" fill="white"/>
<path d="M87.8911 73.0031H81.1866C80.5137 73.0031 79.9727 73.5477 79.9727 74.2171V80.9251C79.9727 81.5945 80.5137 82.139 81.1866 82.139H87.8911C88.564 82.139 89.1051 81.5945 89.1051 80.9251V74.2171C89.1051 73.5477 88.564 73.0031 87.8911 73.0031ZM86.6772 79.7111H82.4006V75.4311H86.6772V79.7111Z" fill="white"/>
<path d="M53.9063 85.2572H47.1983C46.5289 85.2572 45.9844 85.8017 45.9844 86.4711V93.1791C45.9844 93.8485 46.5289 94.3931 47.1983 94.3931H53.9063C54.5792 94.3931 55.1203 93.8485 55.1203 93.1791V86.4711C55.1203 85.8017 54.5792 85.2572 53.9063 85.2572ZM52.6924 91.9652H48.4123V87.6851H52.6924V91.9652Z" fill="white"/>
<path d="M87.8911 85.1497H81.1866C80.5137 85.1497 79.9727 85.6942 79.9727 86.3636V93.0716C79.9727 93.7445 80.5137 94.2856 81.1866 94.2856H87.8911C88.564 94.2856 89.1051 93.7445 89.1051 93.0716V86.3636C89.1051 85.6942 88.564 85.1497 87.8911 85.1497ZM86.6772 91.8576H82.4006V87.5776H86.6772V91.8576Z" fill="white"/>
<path d="M53.9063 97.4037H47.1983C46.5289 97.4037 45.9844 97.9482 45.9844 98.6176V105.326C45.9844 105.999 46.5289 106.54 47.1983 106.54H53.9063C54.5792 106.54 55.1203 105.999 55.1203 105.326V98.6176C55.1203 97.9482 54.5792 97.4037 53.9063 97.4037ZM52.6924 104.112H48.4123V99.8316H52.6924V104.112Z" fill="white"/>
<path d="M87.8911 97.2997H81.1866C80.5137 97.2997 79.9727 97.8407 79.9727 98.5136V105.222C79.9727 105.891 80.5137 106.436 81.1866 106.436H87.8911C88.564 106.436 89.1051 105.891 89.1051 105.222V98.5136C89.1051 97.8407 88.564 97.2997 87.8911 97.2997ZM86.6772 104.008H82.4006V99.7276H86.6772V104.008Z" fill="white"/>
<path d="M123.786 109.377H117.869V68.3866L119.516 69.722C119.738 69.8989 120.009 69.9925 120.283 69.9925C120.46 69.9925 120.637 69.9509 120.803 69.8711C121.226 69.67 121.493 69.2433 121.493 68.7786V60.7318C121.493 60.3606 121.327 60.0103 121.036 59.7814L93.7076 38.0862C93.6868 38.0689 93.666 38.0585 93.6417 38.0446V31.7181C93.6417 31.0487 93.1006 30.5042 92.4278 30.5042H81.901V27.3687H86.0215C86.6909 27.3687 87.2355 26.8242 87.2355 26.1548V13.214C87.2355 12.5445 86.6909 12 86.0215 12H48.7842C48.1148 12 47.5703 12.5445 47.5703 13.214V26.1548C47.5703 26.8242 48.1148 27.3687 48.7842 27.3687H53.2585V30.5042H42.5688C41.8994 30.5042 41.3548 31.0487 41.3548 31.7181V38.0446C41.334 38.0585 41.3097 38.0689 41.2889 38.0862L13.9644 59.7814C13.6731 60.0103 13.5031 60.3606 13.5031 60.7318V68.7786C13.5031 69.2433 13.7737 69.67 14.1968 69.8711C14.3633 69.9509 14.5402 69.9925 14.7171 69.9925C14.9911 69.9925 15.2616 69.8989 15.4802 69.722L17.1311 68.3866V109.377H11.214C10.5445 109.377 10 109.921 10 110.591C10 111.26 10.5445 111.805 11.214 111.805H123.786C124.455 111.805 125 111.26 125 110.591C125 109.921 124.455 109.377 123.786 109.377ZM41.3548 109.377H37.869V61.7549C37.869 61.0821 37.3245 60.541 36.6551 60.541C35.9856 60.541 35.4411 61.0821 35.4411 61.7549V109.377H32.049V69.0838C32.049 68.4109 31.5079 67.8698 30.835 67.8698C30.1621 67.8698 29.621 68.4109 29.621 69.0838V109.377H26.2324V72.2574C26.2324 71.588 25.6878 71.0435 25.0184 71.0435C24.349 71.0435 23.8044 71.588 23.8044 72.2574V109.377H19.5591V66.4235L41.3548 48.8037V109.377ZM41.3548 45.6821H41.3513L15.9311 66.2362V61.3179L41.3548 41.135V45.6821ZM49.9982 24.9408V14.4279H84.8076V24.9408H49.9982ZM79.4731 27.3687V30.5042H55.6865V27.3687H79.4731ZM67.9058 87.9903C67.2364 87.9903 66.6918 88.5349 66.6918 89.2043V108.961H59.5781V82.1494H76.2509V108.961H69.1198V89.2043C69.1198 88.5349 68.5752 87.9903 67.9058 87.9903ZM76.2509 79.7215H59.5781V73.9535H76.2509V79.7215ZM91.2138 109.377H78.6788V72.7395C78.6788 72.0701 78.1343 71.5256 77.4649 71.5256H58.3641C57.6912 71.5256 57.1501 72.0701 57.1501 72.7395V109.377H43.7827V32.9321H91.2138V109.377ZM93.6417 41.135L119.065 61.3179V66.2362L93.6487 45.6856C93.6487 45.6856 93.6452 45.6856 93.6417 45.6856V41.1385V41.135ZM115.441 109.377H112.569V72.2574C112.569 71.588 112.025 71.0435 111.355 71.0435C110.686 71.0435 110.141 71.588 110.141 72.2574V109.377H106.749V69.0838C106.749 68.4109 106.208 67.8698 105.535 67.8698C104.862 67.8698 104.321 68.4109 104.321 69.0838V109.377H100.932V61.7549C100.932 61.0821 100.388 60.541 99.7185 60.541C99.049 60.541 98.5045 61.0821 98.5045 61.7549V109.377H93.6417V48.8037L115.441 66.4269V109.377Z" fill="white"/>
<path d="M86.677 87.5776H82.4004V91.8576H86.677V87.5776Z" fill="#E73D1C"/>
<path d="M52.6941 99.8316H48.4141V104.112H52.6941V99.8316Z" fill="#FFD405"/>
<path d="M86.677 63.2845H82.4004V67.5646H86.677V63.2845Z" fill="#FFD405"/>
<path d="M52.6941 63.3886H48.4141V67.6686H52.6941V63.3886Z" fill="#E73D1C"/>
<path d="M75.0184 51.1346H70.7383V55.4146H75.0184V51.1346Z" fill="#E73D1C"/>
<path d="M76.2521 82.1495V108.961H69.121V89.2043C69.121 88.5349 68.5764 87.9903 67.907 87.9903C67.2376 87.9903 66.6931 88.5349 66.6931 89.2043V108.961H59.5793V82.1495H76.2521ZM76.2521 81.8026H59.5793C59.3885 81.8026 59.2324 81.9587 59.2324 82.1495V108.961C59.2324 109.151 59.3885 109.307 59.5793 109.307H66.6931C66.8838 109.307 67.0399 109.151 67.0399 108.961V89.2043C67.0399 88.7256 67.4284 88.3372 67.907 88.3372C68.3857 88.3372 68.7741 88.7256 68.7741 89.2043V108.961C68.7741 109.151 68.9302 109.307 69.121 109.307H76.2521C76.4429 109.307 76.599 109.151 76.599 108.961V82.1495C76.599 81.9587 76.4429 81.8026 76.2521 81.8026Z" fill="#1D1D1B"/>
<path d="M55.6553 22.3741V20.2688H54.0841V22.3741H52.6309V16.9287H54.0841V18.8953H55.6553V16.9287H57.1017V22.3741H55.6553Z" fill="white"/>
<path d="M56.9279 17.1021V22.2042H55.8284V20.0988H53.9103V22.2042H52.8039V17.1021H53.9103V19.0687H55.8284V17.1021H56.9279ZM57.2747 16.7552H55.4815V18.7219H54.2572V16.7552H52.457V22.5476H54.2572V20.4422H55.4815V22.5476H57.2747V16.7552Z" fill="white"/>
<path d="M62.3419 22.4851C61.5234 22.4851 60.8297 22.2111 60.2782 21.6735C59.7267 21.1359 59.4492 20.4561 59.4492 19.6514C59.4492 18.8467 59.7267 18.1704 60.2782 17.6293C60.8227 17.0917 61.5199 16.8177 62.3419 16.8177C62.8795 16.8177 63.3755 16.9425 63.8125 17.1853C64.2496 17.4247 64.5999 17.768 64.8531 18.2051C65.1028 18.6386 65.2277 19.1242 65.2277 19.6514C65.2277 20.4595 64.9502 21.1394 64.4022 21.677C63.8542 22.2146 63.1605 22.4851 62.3419 22.4851ZM62.3419 18.2051C61.9326 18.2051 61.5997 18.3403 61.3187 18.6178C61.0412 18.8953 60.9094 19.2317 60.9094 19.6514C60.9094 20.0711 61.0447 20.4075 61.3187 20.685C61.5962 20.9625 61.9292 21.0943 62.3384 21.0943C62.6124 21.0943 62.8483 21.0353 63.0668 20.9104C63.2853 20.7856 63.4518 20.6191 63.5732 20.3971C63.6981 20.1786 63.7605 19.9289 63.7605 19.6514C63.7605 19.2352 63.6287 18.8953 63.3547 18.6178C63.0807 18.3403 62.7477 18.2051 62.3419 18.2051Z" fill="white"/>
<path d="M62.3415 16.9911C62.8514 16.9911 63.3127 17.1056 63.7289 17.3379C64.1451 17.5669 64.4677 17.886 64.7035 18.2918C64.9359 18.6976 65.0538 19.1519 65.0538 19.6514C65.0538 20.4145 64.7937 21.0492 64.2804 21.5521C63.7636 22.0585 63.1184 22.3117 62.3415 22.3117C61.5646 22.3117 60.916 22.055 60.3992 21.5486C59.8824 21.0423 59.6222 20.4075 59.6222 19.6514C59.6222 18.8953 59.8824 18.2606 60.3992 17.7542C60.916 17.2443 61.5646 16.9911 62.3415 16.9911ZM62.3415 21.2677C62.6433 21.2677 62.9138 21.1983 63.1566 21.0596C63.3994 20.9209 63.5901 20.7301 63.7289 20.4804C63.8676 20.2341 63.937 19.9566 63.937 19.6514C63.937 19.1901 63.7844 18.8051 63.4826 18.4964C63.1774 18.1877 62.7993 18.0316 62.345 18.0316C61.8906 18.0316 61.5091 18.1877 61.2004 18.4964C60.8917 18.8051 60.7391 19.1901 60.7391 19.6514C60.7391 20.1127 60.8917 20.4977 61.2004 20.8064C61.5091 21.1151 61.8906 21.2677 62.3415 21.2677ZM62.3415 16.6443C61.4709 16.6443 60.7356 16.9356 60.1564 17.5079C59.5737 18.0802 59.2754 18.8016 59.2754 19.6514C59.2754 20.5012 59.5702 21.2226 60.1564 21.7949C60.7391 22.3672 61.4744 22.6586 62.3415 22.6586C63.2086 22.6586 63.9405 22.3707 64.5232 21.7984C65.1059 21.2296 65.4007 20.5046 65.4007 19.6514C65.4007 19.093 65.2689 18.5797 65.0053 18.1183C64.7347 17.6536 64.3636 17.2894 63.8954 17.0327C63.4341 16.7726 62.9103 16.6443 62.3415 16.6443ZM62.3415 20.9209C61.9808 20.9209 61.686 20.8029 61.4466 20.5601C61.2038 20.3173 61.0859 20.0191 61.0859 19.6514C61.0859 19.2837 61.2038 18.9855 61.4466 18.7427C61.6894 18.4999 61.9842 18.3785 62.345 18.3785C62.7057 18.3785 62.9936 18.4964 63.2364 18.7392C63.4757 18.982 63.5901 19.2803 63.5901 19.6514C63.5901 19.8977 63.5346 20.1162 63.4271 20.3104C63.3196 20.5046 63.1739 20.6503 62.9866 20.7578C62.7959 20.8654 62.5843 20.9209 62.345 20.9209H62.3415Z" fill="white"/>
<path d="M68.3999 22.3741V18.3022H66.9883V16.9287H71.2753V18.3022H69.8567V22.3741H68.3999Z" fill="white"/>
<path d="M71.101 17.1021V18.1288H69.679V22.2007H68.5725V18.1288H67.1574V17.1021H71.101ZM71.4479 16.7552H66.8105V18.4756H68.2257V22.5476H70.0258V18.4756H71.4479V16.7552Z" fill="white"/>
<path d="M73.4863 22.3742V16.9287H76.8924V18.2953H74.9396V18.9543H76.7016V20.2965H74.9396V21.0006H76.9721V22.3742H73.4863Z" fill="white"/>
<path d="M76.7185 17.1021V18.1218H74.7658V19.1277H76.5278V20.1266H74.7658V21.1775H76.7983V22.2042H73.6593V17.1021H76.7185ZM77.0654 16.7553H73.3125V22.5476H77.1451V20.8272H75.1126V20.47H76.8746V18.7774H75.1126V18.4652H77.0654V16.7518V16.7553Z" fill="white"/>
<path d="M79.3789 22.3741V16.9287H80.8357V21.0006H82.7884V22.3741H79.3789Z" fill="white"/>
<path d="M80.6623 17.1021V21.1741H82.615V22.2007H79.5558V17.1021H80.6623ZM81.0091 16.7552H79.209V22.5476H82.9619V20.8272H81.0091V16.7552Z" fill="white"/>
</svg>
