<svg width="136" height="125" viewBox="0 0 136 125" fill="none" xmlns="http://www.w3.org/2000/svg">
<path d="M117.276 46.2271L68.4544 11.1577C68.0436 10.8615 67.4915 10.8615 67.0808 11.1577L18.2591 46.2271C17.9494 46.4493 17.7676 46.8061 17.7676 47.1832V104.771C17.7676 105.421 18.2961 105.95 18.9459 105.95H37.8558C38.5055 105.95 39.0341 105.421 39.0341 104.771C39.0341 104.122 38.5055 103.593 37.8558 103.593H31.0688V57.6431H104.466V103.593H97.6794C97.0296 103.593 96.5011 104.122 96.5011 104.771C96.5011 105.421 97.0296 105.95 97.6794 105.95H116.589C117.239 105.95 117.768 105.421 117.768 104.771V47.1832C117.768 46.8028 117.586 46.4459 117.276 46.2271ZM115.411 103.596H106.823V56.4648C106.823 55.815 106.294 55.2865 105.645 55.2865H29.8905C29.2408 55.2865 28.7122 55.815 28.7122 56.4648V103.593H20.1242V47.7892L67.7676 13.5648L115.411 47.7892V103.596Z" fill="white"/>
<path d="M50.6016 37.4404V45.4629C50.6016 46.1127 51.1301 46.6412 51.7799 46.6412H84.2132C84.8629 46.6412 85.3915 46.1127 85.3915 45.4629V37.4404C85.3915 36.7907 84.8629 36.2621 84.2132 36.2621H51.7799C51.1301 36.2621 50.6016 36.7907 50.6016 37.4404ZM52.9581 38.6187H83.0349V44.2846H52.9581V38.6187Z" fill="white"/>
<path d="M86.6178 84.0941C86.6178 84.0941 86.6111 84.0671 86.6043 84.0503C86.5976 84.0133 86.5841 83.9762 86.5707 83.9392C86.5639 83.9224 86.5572 83.9055 86.5505 83.8887C86.5336 83.8551 86.5168 83.8214 86.4966 83.7911C86.4865 83.7776 86.4798 83.7642 86.4697 83.7507C86.4394 83.7069 86.4091 83.6665 86.372 83.6295C86.372 83.6295 86.3698 83.6284 86.3653 83.6261C86.3316 83.5891 86.2913 83.5588 86.2509 83.5285C86.2374 83.5184 86.2206 83.5117 86.2071 83.5016C86.1768 83.4814 86.1431 83.4645 86.1128 83.4511C86.0926 83.441 86.0758 83.4342 86.0556 83.4275C86.0455 83.4208 86.032 83.4174 86.0219 83.4107L77.3968 80.5188L77.3766 69.2745V69.2611C77.3733 69.1937 77.3665 69.1264 77.3497 69.0624C77.3497 69.0523 77.343 69.0456 77.3396 69.0355C77.3261 68.9816 77.3059 68.9278 77.2824 68.8806C77.2723 68.8604 77.2622 68.8402 77.2487 68.8234C77.2251 68.783 77.2016 68.746 77.1746 68.7123C77.1578 68.6955 77.1443 68.6786 77.1275 68.6618C77.0972 68.6248 77.0602 68.5945 77.0198 68.5642C77.0097 68.5574 77.0029 68.544 76.9895 68.5372C76.9895 68.5339 76.9794 68.5339 76.976 68.5305C76.9255 68.4968 76.8716 68.4665 76.811 68.443C76.8043 68.443 76.8009 68.4363 76.7942 68.4329L67.8224 65.0428C67.6305 64.9687 67.415 64.9653 67.2197 65.0327L58.2479 68.039C58.2479 68.039 58.2243 68.0491 58.2109 68.0558C58.194 68.0626 58.1738 68.0693 58.157 68.0794C58.1233 68.0929 58.093 68.1097 58.0627 68.1299C58.0459 68.14 58.0324 68.1467 58.019 68.1568C57.9752 68.1871 57.9382 68.2174 57.9011 68.2545C57.9011 68.2545 57.8978 68.2545 57.8978 68.2578C57.8607 68.2949 57.8271 68.3353 57.7968 68.379C57.7867 68.3925 57.7799 68.406 57.7698 68.4194C57.753 68.4497 57.7328 68.4834 57.7193 68.517C57.7126 68.5339 57.7025 68.5507 57.6958 68.5675C57.6823 68.6046 57.6722 68.6416 57.6621 68.6786C57.6587 68.6955 57.6554 68.7089 57.652 68.7224C57.6419 68.7729 57.6352 68.8234 57.6352 68.8773V80.6905L49.5184 83.4107C49.5184 83.4107 49.4949 83.4208 49.4814 83.4275C49.4612 83.4342 49.4444 83.441 49.4275 83.4511C49.3939 83.4645 49.3636 83.4814 49.3333 83.5016C49.3164 83.5117 49.303 83.5184 49.2895 83.5285C49.2457 83.5588 49.2087 83.5891 49.1717 83.6261C49.1717 83.6261 49.1683 83.6261 49.1683 83.6295C49.1313 83.6665 49.0976 83.7069 49.0673 83.7507C49.0572 83.7642 49.0505 83.7776 49.0404 83.7911C49.0202 83.8214 49.0033 83.8551 48.9899 83.8887C48.9798 83.9055 48.973 83.9224 48.9663 83.9392C48.9528 83.9762 48.9427 84.0133 48.9326 84.0503C48.9293 84.0671 48.9225 84.0806 48.9225 84.0941C48.9124 84.1446 48.9057 84.1951 48.9023 84.2489C48.9023 84.2489 48.9057 84.2557 48.9057 84.259C48.9057 84.2624 48.9023 84.2624 48.9023 84.2658V96.244C48.9023 96.6109 49.1245 96.9375 49.4612 97.0789L58.9347 100.971C58.9347 100.971 58.9582 100.977 58.9683 100.981C59.002 100.994 59.039 101.004 59.0761 101.014C59.0929 101.018 59.1097 101.021 59.1266 101.024C59.1703 101.035 59.2175 101.038 59.2646 101.038C59.268 101.038 59.2747 101.038 59.2781 101.038C59.3319 101.038 59.3858 101.031 59.4363 101.021C59.4497 101.018 59.4632 101.014 59.4767 101.011C59.5171 101.001 59.5575 100.991 59.5945 100.977C59.6046 100.977 59.6113 100.971 59.6214 100.967L67.7685 97.6141L75.9155 100.967C75.9155 100.967 75.9357 100.974 75.9425 100.977C75.9829 100.991 76.0199 101.004 76.0603 101.011C76.0738 101.014 76.0872 101.018 76.1007 101.021C76.1546 101.031 76.2051 101.038 76.2589 101.038C76.2657 101.038 76.269 101.038 76.2758 101.038C76.3195 101.038 76.3666 101.035 76.4138 101.024C76.4306 101.021 76.4475 101.018 76.4643 101.014C76.5013 101.004 76.535 100.994 76.572 100.981C76.5821 100.981 76.5922 100.981 76.6023 100.971L86.0758 97.0789C86.4124 96.9375 86.6346 96.6109 86.6346 96.244V84.2489C86.6346 84.1951 86.6279 84.1446 86.6178 84.0941ZM75.5991 80.6703L73.7037 81.4513L68.9097 83.2625V73.0518L75.5789 70.5706L75.5991 80.6703ZM58.3792 98.7958L50.7035 95.6413V85.5619L58.3792 88.4235V98.7958ZM59.2781 86.8378L52.4978 84.3095L58.7562 82.2122L65.183 84.6395L59.2781 86.8378ZM60.1769 98.7958V88.4235L66.8494 85.9423L66.8663 96.042L60.1769 98.7958ZM67.1087 83.4241L59.4329 80.2697V70.1902L67.1087 73.0518V83.4241ZM61.2306 68.9379L67.4857 66.8405L73.9158 69.2678L68.0109 71.4661L61.2306 68.9379ZM75.3601 98.7958L68.6707 96.042L68.6876 85.9423L75.3601 88.4235V98.7958ZM76.2589 86.8378L70.5257 84.7068L74.3737 83.1211L76.7807 82.2122L83.0392 84.3095L76.2589 86.8378ZM84.8335 95.6413L77.1578 98.7958V88.4235L84.8335 85.5619V95.6413Z" fill="white"/>
<path d="M68.013 71.6344C67.9928 71.6344 67.9726 71.6311 67.9558 71.6243L61.1756 69.0961C61.1082 69.0725 61.0645 69.0052 61.0645 68.9345C61.0645 68.8638 61.1116 68.7998 61.1789 68.7796L67.434 66.6822C67.4508 66.6755 67.471 66.6721 67.4878 66.6721C67.508 66.6721 67.5282 66.6755 67.5484 66.6822L73.9785 69.1095C74.0425 69.1331 74.0863 69.197 74.0863 69.2677C74.0863 69.3384 74.0425 69.399 73.9752 69.426L68.0702 71.6243C68.05 71.6311 68.0299 71.6344 68.013 71.6344Z" fill="#E73D1C"/>
<path d="M67.4882 66.8405L73.9183 69.2678L68.0134 71.4661L61.2331 68.9378L67.4882 66.8405ZM67.4882 66.5038C67.4512 66.5038 67.4175 66.5106 67.3805 66.5207L61.1254 68.618C60.9907 68.6618 60.8999 68.7897 60.8965 68.9311C60.8965 69.0725 60.9807 69.2038 61.1153 69.2509L67.8955 71.7792C67.9326 71.7927 67.973 71.7994 68.0134 71.7994C68.0538 71.7994 68.0942 71.7927 68.1312 71.7792L74.0361 69.5809C74.1674 69.5304 74.255 69.4058 74.255 69.2678C74.255 69.1264 74.1674 69.0018 74.0361 68.9513L67.606 66.524C67.569 66.5106 67.5286 66.5038 67.4882 66.5038Z" fill="#1D1D1B"/>
<path d="M67.1077 83.5925C67.0875 83.5925 67.064 83.5891 67.0438 83.579L59.368 80.4245C59.3041 80.3976 59.2637 80.337 59.2637 80.2697V70.1902C59.2637 70.1364 59.2906 70.0825 59.3344 70.0522C59.3613 70.032 59.395 70.0219 59.432 70.0219C59.4522 70.0219 59.4724 70.0253 59.4892 70.032L67.165 72.8936C67.2323 72.9171 67.2761 72.9811 67.2761 73.0518V83.4241C67.2761 83.4814 67.2491 83.5319 67.202 83.5655C67.1751 83.5857 67.1414 83.5925 67.1077 83.5925Z" fill="#E73D1C"/>
<path d="M59.4323 70.1902L67.1081 73.0518V83.4241L59.4323 80.2697V70.1902ZM59.4323 69.8536C59.365 69.8536 59.2977 69.8738 59.2405 69.9142C59.1496 69.9781 59.0957 70.0791 59.0957 70.1902V80.2697C59.0957 80.4077 59.1765 80.5289 59.3044 80.5794L66.9802 83.7338C67.0206 83.7507 67.0643 83.7608 67.1081 83.7608C67.1754 83.7608 67.2394 83.7406 67.2966 83.7035C67.3909 83.6396 67.4448 83.5352 67.4448 83.4241V73.0518C67.4448 72.9104 67.3572 72.7858 67.2259 72.7353L59.5502 69.8738C59.5132 69.8603 59.4727 69.8536 59.4323 69.8536Z" fill="#1D1D1B"/>
<path d="M68.9105 83.4309C68.8768 83.4309 68.8432 83.4208 68.8162 83.4006C68.7691 83.3703 68.7422 83.3164 68.7422 83.2626V73.0518C68.7422 72.9811 68.786 72.9172 68.8533 72.8936L75.5224 70.4124C75.5426 70.4057 75.5628 70.4023 75.5796 70.4023C75.6133 70.4023 75.647 70.4124 75.6773 70.4326C75.721 70.4629 75.748 70.5168 75.748 70.5707L75.7682 80.6703C75.7682 80.7376 75.7278 80.8016 75.6638 80.8252L73.7684 81.6062L68.9711 83.4208C68.9509 83.4275 68.9307 83.4309 68.9105 83.4309Z" fill="#E73D1C"/>
<path d="M75.58 70.5707L75.6002 80.6703L73.7048 81.4513L68.9109 83.2625V73.0518L75.58 70.5707ZM75.58 70.234C75.5396 70.234 75.4992 70.2407 75.4622 70.2542L68.7931 72.7353C68.6618 72.7858 68.5742 72.9104 68.5742 73.0518V83.2625C68.5742 83.3736 68.6281 83.478 68.719 83.5386C68.7762 83.579 68.8435 83.5992 68.9109 83.5992C68.9513 83.5992 68.9917 83.5925 69.0287 83.579L73.8227 81.7678L75.7281 80.9834C75.8561 80.9329 75.9369 80.8083 75.9369 80.6703L75.9167 70.5707C75.9167 70.4596 75.8628 70.3586 75.7719 70.2946C75.7147 70.2542 75.6473 70.234 75.58 70.234Z" fill="#1D1D1B"/>
<path d="M76.259 87.0061C76.2388 87.0061 76.2186 87.0028 76.2017 86.996L70.4685 84.865C70.4046 84.8415 70.3608 84.7809 70.3574 84.7102C70.3574 84.6395 70.3978 84.5789 70.4618 84.5519L74.3097 82.9663L76.7202 82.054C76.7404 82.0472 76.7606 82.0438 76.7808 82.0438C76.7976 82.0438 76.8178 82.0439 76.8347 82.054L83.0931 84.1513C83.1604 84.1749 83.2075 84.2355 83.2075 84.3062C83.2075 84.3769 83.1638 84.4408 83.0965 84.4678L76.3162 86.996C76.296 87.0028 76.2758 87.0061 76.259 87.0061Z" fill="#FFD405"/>
<path d="M76.7813 82.2122L83.0397 84.3095L76.2594 86.8378L70.5262 84.7068L74.3742 83.1211L76.7813 82.2122ZM76.7813 81.8755C76.7409 81.8755 76.7005 81.8822 76.6634 81.8957L74.2563 82.8047L70.3983 84.3937C70.2703 84.4476 70.1862 84.5721 70.1896 84.7101C70.1896 84.8482 70.2805 84.9727 70.4084 85.0199L76.1416 87.1509C76.1786 87.1644 76.2191 87.1711 76.2594 87.1711C76.2998 87.1711 76.3402 87.1644 76.3773 87.1509L83.1575 84.6226C83.2922 84.5721 83.3797 84.4442 83.3763 84.3028C83.3763 84.1614 83.2821 84.0335 83.1474 83.9897L76.889 81.8923C76.8553 81.8822 76.8183 81.8755 76.7813 81.8755Z" fill="#1D1D1B"/>
<path d="M77.1586 98.9641C77.1249 98.9641 77.0946 98.954 77.0643 98.9372C77.0172 98.9069 76.9902 98.853 76.9902 98.7958V88.4234C76.9902 88.3527 77.034 88.2888 77.1013 88.2652L84.7771 85.4036C84.7973 85.3969 84.8175 85.3935 84.8343 85.3935C84.868 85.3935 84.9016 85.4036 84.9319 85.4238C84.9757 85.4541 85.0026 85.508 85.0026 85.5619V95.6413C85.0026 95.7086 84.9622 95.7726 84.8983 95.7962L77.2225 98.9506C77.2023 98.9574 77.1788 98.9641 77.1586 98.9641Z" fill="#FFD405"/>
<path d="M84.8347 85.5619V95.6413L77.1589 98.7958V88.4235L84.8347 85.5619ZM84.8347 85.2252C84.7943 85.2252 84.7539 85.232 84.7168 85.2454L77.0411 88.107C76.9098 88.1575 76.8223 88.2821 76.8223 88.4235V98.7958C76.8223 98.9069 76.8795 99.0146 76.9704 99.0752C77.0276 99.1123 77.0916 99.1324 77.1589 99.1324C77.2027 99.1324 77.2465 99.1257 77.2869 99.1055L84.9626 95.9511C85.0905 95.9006 85.1713 95.776 85.1713 95.6413V85.5619C85.1713 85.4508 85.1174 85.3498 85.0265 85.2858C84.9693 85.2454 84.902 85.2252 84.8347 85.2252Z" fill="#1D1D1B"/>
<path d="M75.3577 98.9641C75.3375 98.9641 75.3139 98.9608 75.2937 98.9507L68.6044 96.1968C68.5404 96.1699 68.5 96.1093 68.5 96.042L68.5168 85.9423C68.5168 85.8884 68.5438 85.8346 68.5875 85.8043C68.6145 85.7841 68.6481 85.774 68.6852 85.774C68.7054 85.774 68.7256 85.7774 68.7424 85.7841L75.4149 88.2652C75.4822 88.2888 75.526 88.3528 75.526 88.4235V98.7958C75.526 98.853 75.4991 98.9035 75.4519 98.9372C75.425 98.9574 75.3913 98.9641 75.3577 98.9641Z" fill="#FFD405"/>
<path d="M68.6855 85.9423L75.358 88.4234V98.7958L68.6687 96.0419L68.6855 85.9423ZM68.6855 85.6056C68.6182 85.6056 68.5509 85.6258 68.4936 85.6662C68.4027 85.7302 68.3489 85.8312 68.3489 85.9423L68.332 96.0419C68.332 96.18 68.4128 96.3012 68.5408 96.355L75.2301 99.1089C75.2705 99.1257 75.3143 99.1358 75.358 99.1358C75.4254 99.1358 75.4893 99.1156 75.5465 99.0786C75.6408 99.0146 75.6947 98.9103 75.6947 98.7992V88.4268C75.6947 88.2854 75.6072 88.1609 75.4759 88.1104L68.8034 85.6292C68.7663 85.6157 68.7259 85.609 68.6855 85.609V85.6056Z" fill="#1D1D1B"/>
<path d="M60.1742 98.9641C60.1405 98.9641 60.1102 98.954 60.0799 98.9372C60.0328 98.9069 60.0059 98.853 60.0059 98.7958V88.4235C60.0059 88.3528 60.0496 88.2888 60.117 88.2652L66.7895 85.7841C66.8097 85.7774 66.8299 85.774 66.8467 85.774C66.8804 85.774 66.914 85.7841 66.9443 85.8043C66.9881 85.8346 67.015 85.8885 67.015 85.9423L67.0318 96.042C67.0318 96.1093 66.9914 96.1733 66.9275 96.1968L60.2382 98.9507C60.218 98.9608 60.1944 98.9641 60.1742 98.9641Z" fill="#FFD405"/>
<path d="M66.8471 85.9423L66.8639 96.042L60.1745 98.7958V88.4235L66.8471 85.9423ZM66.8471 85.6057C66.8067 85.6057 66.7663 85.6124 66.7292 85.6259L60.0567 88.107C59.9254 88.1575 59.8379 88.2821 59.8379 88.4235V98.7958C59.8379 98.9069 59.8951 99.0146 59.986 99.0752C60.0433 99.1123 60.1072 99.1324 60.1745 99.1324C60.2183 99.1324 60.2621 99.1257 60.3025 99.1055L66.9918 96.3517C67.1197 96.3012 67.2005 96.1766 67.2005 96.0386L67.1837 85.9389C67.1837 85.8278 67.1298 85.7268 67.0389 85.6629C66.9817 85.6225 66.9144 85.6023 66.8471 85.6023V85.6057Z" fill="#1D1D1B"/>
<path d="M59.2747 87.0061C59.2545 87.0061 59.2343 87.0028 59.2175 86.996L52.4373 84.4678C52.3699 84.4442 52.3262 84.3769 52.3262 84.3062C52.3262 84.2355 52.3733 84.1715 52.4406 84.1513L58.699 82.054C58.7159 82.0472 58.7327 82.0438 58.7529 82.0438C58.7731 82.0438 58.7933 82.0472 58.8135 82.054L65.2403 84.4812C65.3042 84.5048 65.348 84.5688 65.348 84.6395C65.348 84.7102 65.3042 84.7708 65.2369 84.7977L59.332 86.996C59.3118 87.0028 59.2916 87.0061 59.2747 87.0061Z" fill="#FFD405"/>
<path d="M58.7533 82.2122L65.18 84.6394L59.2751 86.8378L52.4949 84.3095L58.7533 82.2122ZM58.7533 81.8755C58.7162 81.8755 58.6826 81.8822 58.6455 81.8923L52.3871 83.9897C52.2525 84.0335 52.1616 84.1614 52.1582 84.3028C52.1582 84.4442 52.2424 84.5755 52.377 84.6226L59.1573 87.1509C59.1943 87.1644 59.2347 87.1711 59.2751 87.1711C59.3155 87.1711 59.3559 87.1644 59.3929 87.1509L65.2979 84.9525C65.4292 84.902 65.5167 84.7775 65.5167 84.6394C65.5167 84.5014 65.4292 84.3735 65.2979 84.323L58.8711 81.8957C58.8341 81.8822 58.7937 81.8755 58.7533 81.8755Z" fill="#1D1D1B"/>
<path d="M58.3773 98.9641C58.3571 98.9641 58.3335 98.9607 58.3133 98.9506L50.6376 95.7962C50.5736 95.7693 50.5332 95.7086 50.5332 95.6413V85.5619C50.5332 85.508 50.5601 85.4541 50.6039 85.4238C50.6308 85.4036 50.6645 85.3935 50.7015 85.3935C50.7217 85.3935 50.7419 85.3969 50.7588 85.4036L58.4345 88.2652C58.5018 88.2888 58.5456 88.3527 58.5456 88.4234V98.7958C58.5456 98.853 58.5187 98.9035 58.4715 98.9372C58.4446 98.9574 58.4109 98.9641 58.3773 98.9641Z" fill="#FFD405"/>
<path d="M50.7019 85.5619L58.3776 88.4235V98.7958L50.7019 95.6413V85.5619ZM50.7019 85.2252C50.6346 85.2252 50.5672 85.2454 50.51 85.2858C50.4191 85.3498 50.3652 85.4508 50.3652 85.5619V95.6413C50.3652 95.7794 50.446 95.9006 50.574 95.9511L58.2497 99.1055C58.2901 99.1224 58.3339 99.1324 58.3776 99.1324C58.4449 99.1324 58.5089 99.1123 58.5661 99.0752C58.6604 99.0113 58.7143 98.9069 58.7143 98.7958V88.4235C58.7143 88.2821 58.6267 88.1575 58.4955 88.107L50.8197 85.2454C50.7827 85.232 50.7423 85.2252 50.7019 85.2252Z" fill="#1D1D1B"/>
</svg>
