<svg width="43" height="81" viewBox="0 0 43 81" fill="none" xmlns="http://www.w3.org/2000/svg">
<path fill-rule="evenodd" clip-rule="evenodd" d="M6.97972e-06 0.156806L6.89212e-06 1.15889C0.846448 1.10403 1.70025 1.07617 2.56055 1.07617C24.0997 1.07617 41.5606 18.5371 41.5606 40.0762C41.5605 61.6153 24.0997 79.0762 2.56055 79.0762C1.70024 79.0762 0.846441 79.0483 8.76043e-08 78.9935L0 79.9955C0.846635 80.049 1.70042 80.0762 2.56055 80.0762C24.6519 80.0762 42.5605 62.1676 42.5606 40.0762C42.5606 17.9848 24.6519 0.0761754 2.56055 0.0761719C1.70043 0.0761718 0.846641 0.10332 6.97972e-06 0.156806Z" fill="#FFD300"/>
</svg>
