<svg width="110" height="110" viewBox="0 0 110 110" fill="none" xmlns="http://www.w3.org/2000/svg">
<path d="M105.001 86.8499C105.001 97.6099 96.2512 106.36 85.5012 106.36C74.7512 106.36 65.9912 97.6099 65.9912 86.8499C65.9912 76.0899 74.7412 67.3499 85.5012 67.3499C85.7912 67.3499 86.0912 67.3499 86.4312 67.3799C85.3012 66.9599 84.1312 66.5799 82.9812 66.2399C83.5912 66.1799 84.2112 66.1499 84.8312 66.1499C86.6312 66.1499 88.3812 66.3799 90.0512 66.8199C91.1312 67.3299 92.1312 67.8699 92.9912 68.4599C93.1812 68.5999 93.3112 68.7799 93.3712 69.0099C100.441 72.1499 105.001 79.1399 105.001 86.8499Z" fill="#FFD500"/>
<path d="M98.5311 92.2799L96.3011 88.7299C96.2111 88.5799 96.0711 88.4599 95.9111 88.3799L90.3711 85.7199C90.3411 85.3599 90.3111 85.0399 90.2811 84.7299L93.0911 82.3299L96.2611 82.6799C96.2611 82.6799 96.3311 82.6899 96.3711 82.6899C96.8511 82.6899 97.2611 82.3199 97.3111 81.8399C97.3711 81.3099 96.9911 80.8399 96.4611 80.7899L92.8811 80.3999C92.8811 80.3999 92.8111 80.3999 92.7811 80.3999C92.5611 80.3999 92.3411 80.4799 92.1611 80.6299L89.9311 82.5299C89.9011 82.3899 89.8711 82.2599 89.8411 82.1399L88.2711 83.9299C88.5311 85.6499 88.6611 88.0699 88.6611 90.4799C88.6611 93.6699 87.6711 96.1799 86.7811 97.7899V85.6399L84.8811 87.8199V97.7899C84.0011 96.1799 83.0111 93.6699 83.0111 90.4799V89.9599L77.9211 95.7899V100.81C77.9211 101.33 78.3511 101.76 78.8711 101.76C79.3911 101.76 79.8311 101.33 79.8311 100.81V93.8599L81.2611 92.8199C81.9911 98.2199 85.0311 101.35 85.1611 101.48V101.5C85.1611 101.5 85.2411 101.56 85.2811 101.58C85.3011 101.6 85.3111 101.61 85.3211 101.61C85.3711 101.64 85.4111 101.67 85.4611 101.69C85.5111 101.71 85.5611 101.72 85.6211 101.74C85.7011 101.74 85.7611 101.76 85.8311 101.76H85.9711C85.9711 101.76 86.0011 101.76 86.0111 101.75C86.0511 101.75 86.1011 101.73 86.1411 101.71H86.1811C86.1811 101.71 86.2811 101.67 86.3311 101.64H86.3511C86.3511 101.64 86.4611 101.54 86.5011 101.5C86.6311 101.37 89.6811 98.2399 90.4011 92.8399L91.8411 93.8799V100.83C91.8411 101.35 92.2611 101.78 92.7911 101.78C93.3211 101.78 93.7411 101.35 93.7411 100.83V93.3899C93.7411 93.0799 93.6011 92.7899 93.3511 92.6099L90.5611 90.5999V90.5099C90.5611 90.1199 90.5511 89.1199 90.5011 87.8999L94.8311 89.9899L96.9111 93.2999C97.0911 93.5799 97.3911 93.7499 97.7211 93.7499C97.9011 93.7499 98.0711 93.6999 98.2211 93.5999C98.6711 93.3299 98.8111 92.7299 98.5311 92.2899V92.2799ZM93.3711 69.0099C93.3111 68.7799 93.1811 68.5999 92.9911 68.4599C92.1311 67.8699 91.1311 67.3299 90.0511 66.8199C84.1311 64.0299 75.7911 62.4499 73.8411 62.1099L70.9311 56.1899L70.9111 56.1699C70.8811 56.0999 70.8411 56.0399 70.7911 55.9899C70.3611 55.4899 68.1711 53.0199 67.0511 52.2299C68.7511 49.6499 70.0211 46.6899 70.8211 43.4199C72.0311 42.4599 75.8711 39.0899 75.8711 34.9799C75.8711 30.4099 74.7811 28.5899 71.8311 28.2799V17.3599C71.8311 12.0999 69.4111 8.64989 64.0011 6.18989C58.4711 3.66989 54.0111 3.63989 53.8211 3.63989H53.2011C53.0211 3.63989 48.5611 3.66989 43.0211 6.18989C37.6111 8.64989 35.2011 12.0999 35.2011 17.3599V28.2799C32.1411 28.6099 30.8411 30.6099 30.8411 34.9899C30.8411 39.3699 35.2511 42.6999 36.1911 43.3699C37.0411 46.8199 38.3911 49.9199 40.2211 52.5899C39.0311 53.5999 37.2811 55.5899 36.9311 55.9799C36.8811 56.0399 36.8511 56.0999 36.8111 56.1699C36.8111 56.1699 36.8011 56.1699 36.7911 56.1899L33.8811 62.0999C31.5811 62.5099 20.3311 64.6499 14.7311 68.4599C8.50111 72.7099 5.10111 80.3699 5.03111 83.2899C4.96111 85.8899 5.03111 98.2799 5.03111 98.4099C5.03111 98.9299 5.46111 99.3599 5.98111 99.3599C6.24111 99.3599 6.48111 99.2499 6.66111 99.0699C6.84111 98.8899 6.94111 98.6499 6.93111 98.3999C6.93111 98.2799 6.87111 85.8799 6.93111 83.3399C6.99111 81.3099 9.79111 74.1399 15.8011 70.0399C16.0511 69.8799 16.3211 69.7099 16.6511 69.5099C19.6411 78.5499 21.1511 87.7399 21.3811 98.4199C21.3911 98.9399 21.8211 99.3599 22.3411 99.3599H22.3611C22.6111 99.3599 22.8511 99.2499 23.0311 99.0599C23.2011 98.8799 23.3011 98.6299 23.2911 98.3799C23.0511 87.3799 21.4811 77.9199 18.3611 68.6099C23.7811 66.0199 31.6811 64.4499 34.0611 64.0099L43.8111 79.4999C43.9711 79.7499 44.2211 79.9099 44.5211 79.9399H44.6111C44.8711 79.9399 45.1211 79.8399 45.3011 79.6499L50.6911 74.0499L52.5611 81.4999V98.3999C52.5611 98.9299 52.9911 99.3499 53.5111 99.3499C54.0311 99.3499 54.4611 98.9299 54.4611 98.3999V81.5299L56.9411 73.9599L62.4211 79.6499C62.6011 79.8299 62.8511 79.9399 63.1111 79.9399C63.1411 79.9399 63.1711 79.9399 63.2011 79.9299C63.4911 79.8999 63.7511 79.7499 63.9111 79.4899L73.6611 64.0099C75.0611 64.2699 78.9311 65.0199 82.9811 66.2399C84.1311 66.5799 85.3011 66.9599 86.4311 67.3799C86.0911 67.3599 85.7911 67.3499 85.5011 67.3499C85.1611 67.3499 84.8311 67.3599 84.5011 67.3799C84.2311 67.3899 83.9611 67.4099 83.6911 67.4399C83.5511 67.4499 83.4211 67.4599 83.2911 67.4799C83.0411 67.4999 82.8011 67.5299 82.5611 67.5799C82.3311 67.6099 82.1011 67.6499 81.8711 67.6999C81.6811 67.7299 81.4811 67.7699 81.2911 67.8199C80.9011 67.8999 80.5211 67.9899 80.1411 68.1099C79.9511 68.1499 79.7711 68.2099 79.5911 68.2699C79.3311 68.3499 79.0611 68.4399 78.8011 68.5399C78.2011 68.7599 77.6211 68.9999 77.0511 69.2799C76.4811 69.5499 75.9311 69.8499 75.3911 70.1799C74.8511 70.5099 74.3311 70.8599 73.8311 71.2299C73.3311 71.6099 72.8511 71.9999 72.3911 72.4199C72.1611 72.6299 71.9311 72.8499 71.7111 73.0699C71.2711 73.5099 70.8611 73.9699 70.4511 74.4499C67.6711 77.8199 65.9911 82.1499 65.9911 86.8499C65.9911 97.5999 74.7411 106.36 85.5011 106.36C86.1711 106.36 86.8411 106.33 87.4911 106.26C90.9611 105.91 94.1611 104.65 96.8411 102.71C97.7111 102.09 98.5311 101.4 99.2811 100.64C99.5011 100.42 99.7211 100.19 99.9311 99.9599C100.351 99.4999 100.751 99.0199 101.121 98.5199C101.501 98.0199 101.851 97.4999 102.171 96.9599C102.501 96.4199 102.801 95.8699 103.071 95.2999C103.351 94.7299 103.601 94.1499 103.811 93.5499C103.911 93.2899 104.001 93.0199 104.081 92.7599C104.141 92.5799 104.201 92.3999 104.241 92.2099C104.361 91.8299 104.451 91.4499 104.531 91.0599C104.581 90.8699 104.621 90.6699 104.651 90.4799C104.701 90.2499 104.741 90.0199 104.771 89.7899C104.821 89.5499 104.851 89.3099 104.871 89.0599C104.891 88.9299 104.901 88.7999 104.911 88.6599C104.941 88.3899 104.961 88.1199 104.971 87.8499C104.991 87.5199 105.001 87.1899 105.001 86.8499C105.001 79.1399 100.441 72.1499 93.3711 69.0099ZM71.8311 35.8599V30.1699C73.2211 30.3399 73.9711 31.1899 73.9711 34.9699C73.9711 37.0099 72.6311 38.9299 71.4511 40.2299C71.6511 38.8099 71.7811 37.3399 71.8311 35.8599ZM32.7411 34.9899C32.7411 31.2299 33.6411 30.3599 35.1911 30.1799V35.8299H35.2311L35.1911 35.8499C35.2411 37.4099 35.3811 38.9199 35.6011 40.3899C34.2711 39.0899 32.7411 37.1399 32.7411 34.9899ZM68.9511 56.7799C68.6711 57.3699 68.4211 57.8999 68.1611 58.3799L67.7311 55.4599C68.1211 55.8699 68.5511 56.3299 68.9511 56.7799ZM37.1011 17.3599C37.1011 12.8299 39.0411 10.0999 43.8111 7.92989C48.9811 5.57989 53.1711 5.54989 53.2111 5.54989H53.8211C53.8211 5.54989 58.0511 5.56989 63.2211 7.92989C67.9811 10.0899 69.9311 12.8299 69.9311 17.3599V26.0099C67.4411 25.1299 61.0511 23.1799 53.5111 23.1799C45.9711 23.1799 39.5911 25.1299 37.1011 26.0099V17.3599ZM37.1011 28.0399C39.0311 27.3199 45.7011 25.0799 53.5111 25.0799C61.3211 25.0799 68.0011 27.3199 69.9311 28.0299V33.7199C67.0711 31.4499 61.2411 27.7399 53.5111 27.7399C45.7811 27.7399 39.9511 31.4399 37.1011 33.7199V28.0399ZM37.1111 36.2199C38.3711 35.0699 44.7611 29.6399 53.5111 29.6399C62.2611 29.6399 68.6611 35.0699 69.9111 36.2199C69.8211 38.4099 69.5311 40.5399 69.0711 42.5499C69.0511 42.6099 69.0311 42.6899 69.0211 42.7899C66.5211 53.2499 59.1611 58.9099 53.5111 58.9099C47.2911 58.9099 37.7911 51.6999 37.1111 36.2199ZM39.9911 55.4599L39.5611 58.3799C39.3111 57.8999 39.0511 57.3699 38.7811 56.7799C39.1711 56.3299 39.6011 55.8699 39.9911 55.4599ZM44.7711 77.4499L35.6111 62.9099L37.6411 58.7999C40.4511 64.3599 44.5111 68.9099 49.7011 72.3299L44.7711 77.4499ZM56.0311 71.3399H56.0211C56.0211 71.3399 56.0211 71.3499 56.0011 71.3599C55.9511 71.3899 55.9211 71.4199 55.8811 71.4499C55.8611 71.4699 55.8511 71.4799 55.8311 71.4899C55.8011 71.5299 55.7811 71.5599 55.7511 71.5999C55.7311 71.6299 55.7211 71.6399 55.7111 71.6499C55.6911 71.6899 55.6711 71.7299 55.6511 71.7699V71.7899C55.6511 71.7899 55.6311 71.8199 55.6211 71.8299V71.8499L53.6211 77.9399L52.1111 71.9199C52.1111 71.9199 52.1011 71.8899 52.0911 71.8799C52.0911 71.8399 52.0711 71.8099 52.0611 71.7899C52.0411 71.7499 52.0211 71.7099 52.0011 71.6799C52.0011 71.6499 51.9811 71.6299 51.9711 71.6099C51.9411 71.5699 51.9111 71.5399 51.8811 71.4999H51.8711C51.8711 71.4999 51.8511 71.4699 51.8411 71.4599C51.7911 71.4199 51.7411 71.3799 51.6911 71.3399L51.6611 71.3599L51.6811 71.3299C47.2511 68.5999 43.7811 65.2299 41.0911 61.0199C41.0911 60.9899 41.0911 60.9699 41.1111 60.9399L42.0011 54.8699C45.3011 58.5899 49.6011 60.8099 53.5111 60.8099C57.6411 60.8099 62.1111 58.3999 65.4811 54.3499C65.5311 54.2999 65.5711 54.2399 65.6211 54.1799L66.6211 60.9399C66.6211 60.9399 66.6311 60.9999 66.6311 61.0199C63.9411 65.2299 60.4711 68.6099 56.0311 71.3399ZM62.9511 77.4499L58.0211 72.3299C63.2111 68.8999 67.2711 64.3499 70.0811 58.7999L72.1111 62.9099L62.9511 77.4499ZM93.4811 71.7899C93.6511 71.6999 93.7911 71.5599 93.8811 71.3799C94.4511 71.6999 95.0211 72.0599 95.5911 72.4499L90.7911 77.9899L89.1911 79.8299C88.9011 79.1899 88.4511 78.6599 87.8611 78.2599C87.8711 78.2299 87.8811 78.1999 87.8911 78.1699C88.6711 75.4599 90.5011 73.3699 93.4811 71.7899ZM88.6611 90.4699C88.6611 93.6599 87.6711 96.1699 86.7811 97.7799V85.5199H86.7911L88.2611 83.8199C88.2611 83.8199 88.2611 83.8799 88.2611 83.9199C88.5211 85.6399 88.6511 88.0599 88.6511 90.4699H88.6611ZM83.0111 89.8899L84.8811 87.7199V97.7799C84.0011 96.1699 83.0111 93.6599 83.0111 90.4699V89.8899ZM85.8411 81.4799C84.9411 81.4799 84.3211 81.2999 84.0911 81.1599C84.1611 80.2599 84.9211 79.5599 85.8411 79.5599C86.7611 79.5599 87.5111 80.2599 87.5911 81.1599C87.3611 81.2999 86.7411 81.4799 85.8411 81.4799ZM84.8811 83.3299V84.8199L83.1111 86.8599C83.1111 86.8599 83.1111 86.8099 83.1211 86.7899C83.2111 85.2399 83.3611 83.9199 83.5511 83.0099C83.5811 83.0099 83.6111 83.0299 83.6511 83.0499C83.9911 83.1699 84.4111 83.2699 84.8811 83.3299ZM85.5111 69.2499C87.7211 69.2599 89.8811 69.6599 91.9311 70.4799C88.8911 72.2599 86.9211 74.6699 86.0711 77.6499H85.5111C84.6411 74.5799 82.5911 72.1299 79.4111 70.3399C81.3711 69.6099 83.4211 69.2499 85.5111 69.2499ZM67.8911 86.8399C67.8911 80.1499 71.6011 74.1399 77.5911 71.1199C77.6411 71.3999 77.8211 71.6399 78.0711 71.7799H78.0811C81.0711 73.3699 82.9011 75.4599 83.6711 78.1699C83.6911 78.2199 83.7011 78.2699 83.7311 78.3099C82.8311 78.9499 82.2711 79.9399 82.1911 81.0399C82.0111 81.3899 81.8511 81.8699 81.7211 82.4799L79.4911 80.5799C79.3211 80.4299 79.1011 80.3499 78.8711 80.3499H78.7611L75.1811 80.7399C74.6611 80.7899 74.2811 81.2599 74.3411 81.7899C74.3911 82.2699 74.8011 82.6299 75.2811 82.6299H75.3911L78.5611 82.2799L81.3711 84.6799C81.3411 84.9899 81.3111 85.3099 81.2811 85.6699L75.7511 88.3299C75.5811 88.4099 75.4511 88.5299 75.3511 88.6799L73.1211 92.2299C72.8511 92.6699 72.9811 93.2699 73.4211 93.5399C73.5711 93.6399 73.7511 93.6899 73.9311 93.6899C74.2611 93.6899 74.5611 93.5199 74.7411 93.2399L76.8111 89.9299L81.1411 87.8399C81.1311 88.2499 81.1111 88.6799 81.1011 89.0899V89.1399L72.6711 98.8799C72.6711 98.8799 72.6311 98.8399 72.6111 98.8199C69.5711 95.5399 67.8911 91.2999 67.8911 86.8399ZM85.4911 104.49V104.47C81.3011 104.47 77.2511 102.96 74.0711 100.23L77.9211 95.7799V100.8C77.9211 101.32 78.3511 101.75 78.8711 101.75C79.3911 101.75 79.8311 101.32 79.8311 100.8V93.8499L81.2611 92.8099C81.9911 98.2099 85.0311 101.34 85.1611 101.47V101.49C85.1611 101.49 85.2411 101.55 85.2811 101.57C85.3011 101.59 85.3111 101.6 85.3211 101.6C85.3711 101.63 85.4111 101.66 85.4611 101.68C85.5111 101.7 85.5611 101.71 85.6211 101.73C85.7011 101.73 85.7611 101.75 85.8311 101.75H85.9711C85.9711 101.75 86.0011 101.75 86.0111 101.74C86.0511 101.74 86.1011 101.72 86.1411 101.7H86.1811C86.1811 101.7 86.2811 101.66 86.3311 101.63H86.3511C86.3511 101.63 86.4611 101.53 86.5011 101.49C86.6311 101.36 89.6811 98.2299 90.4011 92.8299L91.8411 93.8699V100.82C91.8411 101.34 92.2611 101.77 92.7911 101.77C93.3211 101.77 93.7411 101.34 93.7411 100.82V93.3799C93.7411 93.0699 93.6011 92.7799 93.3511 92.5999L90.5611 90.5899V90.4999C90.5611 90.1099 90.5511 89.1099 90.5011 87.8899L94.8311 89.9799L96.9111 93.2899C97.0911 93.5699 97.3911 93.7399 97.7211 93.7399C97.9011 93.7399 98.0711 93.6899 98.2211 93.5899C98.6711 93.3199 98.8111 92.7199 98.5311 92.2799L96.3011 88.7299C96.2111 88.5799 96.0711 88.4599 95.9111 88.3799L90.3711 85.7199C90.3411 85.3599 90.3111 85.0399 90.2811 84.7299L93.0911 82.3299L96.2611 82.6799C96.2611 82.6799 96.3311 82.6899 96.3711 82.6899C96.8511 82.6899 97.2611 82.3199 97.3111 81.8399C97.3711 81.3099 96.9911 80.8399 96.4611 80.7899L92.8811 80.3999C92.8811 80.3999 92.8111 80.3999 92.7811 80.3999C92.5611 80.3999 92.3411 80.4799 92.1611 80.6299L89.9311 82.5299C89.9011 82.3899 89.8711 82.2599 89.8411 82.1399C89.8311 82.1099 89.8311 82.0799 89.8211 82.0499L97.0711 73.6799C97.0711 73.6799 97.1311 73.7299 97.1611 73.7599C100.931 77.1099 103.081 81.8899 103.081 86.8999C103.081 96.6099 95.1911 104.49 85.4911 104.5V104.49ZM98.5311 92.2799L96.3011 88.7299C96.2111 88.5799 96.0711 88.4599 95.9111 88.3799L90.3711 85.7199C90.3411 85.3599 90.3111 85.0399 90.2811 84.7299L93.0911 82.3299L96.2611 82.6799C96.2611 82.6799 96.3311 82.6899 96.3711 82.6899C96.8511 82.6899 97.2611 82.3199 97.3111 81.8399C97.3711 81.3099 96.9911 80.8399 96.4611 80.7899L92.8811 80.3999C92.8811 80.3999 92.8111 80.3999 92.7811 80.3999C92.5611 80.3999 92.3411 80.4799 92.1611 80.6299L89.9311 82.5299C89.9011 82.3899 89.8711 82.2599 89.8411 82.1399L88.2711 83.9299C88.5311 85.6499 88.6611 88.0699 88.6611 90.4799C88.6611 93.6699 87.6711 96.1799 86.7811 97.7899V85.6399L84.8811 87.8199V97.7899C84.0011 96.1799 83.0111 93.6699 83.0111 90.4799V89.9599L77.9211 95.7899V100.81C77.9211 101.33 78.3511 101.76 78.8711 101.76C79.3911 101.76 79.8311 101.33 79.8311 100.81V93.8599L81.2611 92.8199C81.9911 98.2199 85.0311 101.35 85.1611 101.48V101.5C85.1611 101.5 85.2411 101.56 85.2811 101.58C85.3011 101.6 85.3111 101.61 85.3211 101.61C85.3711 101.64 85.4111 101.67 85.4611 101.69C85.5111 101.71 85.5611 101.72 85.6211 101.74C85.7011 101.74 85.7611 101.76 85.8311 101.76H85.9711C85.9711 101.76 86.0011 101.76 86.0111 101.75C86.0511 101.75 86.1011 101.73 86.1411 101.71H86.1811C86.1811 101.71 86.2811 101.67 86.3311 101.64H86.3511C86.3511 101.64 86.4611 101.54 86.5011 101.5C86.6311 101.37 89.6811 98.2399 90.4011 92.8399L91.8411 93.8799V100.83C91.8411 101.35 92.2611 101.78 92.7911 101.78C93.3211 101.78 93.7411 101.35 93.7411 100.83V93.3899C93.7411 93.0799 93.6011 92.7899 93.3511 92.6099L90.5611 90.5999V90.5099C90.5611 90.1199 90.5511 89.1199 90.5011 87.8999L94.8311 89.9899L96.9111 93.2999C97.0911 93.5799 97.3911 93.7499 97.7211 93.7499C97.9011 93.7499 98.0711 93.6999 98.2211 93.5999C98.6711 93.3299 98.8111 92.7299 98.5311 92.2899V92.2799Z" fill="#272729"/>
<path d="M49.7013 72.3298L44.7713 77.4498L35.6113 62.9098L37.6413 58.7998C40.4513 64.3598 44.5113 68.9098 49.7013 72.3298Z" fill="#F5370D"/>
<path d="M72.1115 62.9098L62.9515 77.4498L58.0215 72.3298C63.2115 68.8998 67.2715 64.3498 70.0815 58.7998L72.1115 62.9098Z" fill="#F5370D"/>
<path d="M95.6808 72.3899L72.5508 98.8799L74.0608 100.2L97.1908 73.7099L95.6808 72.3899Z" fill="#F5370D"/>
</svg>
