<svg width="111" height="111" viewBox="0 0 111 111" fill="none" xmlns="http://www.w3.org/2000/svg">
<path d="M106.946 71.6635V71.6357C106.946 71.6357 106.955 71.543 106.965 71.506V71.3392C106.965 71.3392 106.955 71.2558 106.937 71.2095C106.928 71.1539 106.909 71.1168 106.891 71.0705C106.891 71.0705 106.881 71.0519 106.881 71.0427C106.863 70.9963 106.844 70.9593 106.816 70.9222C106.789 70.8851 106.761 70.8481 106.733 70.8017C106.733 70.8017 106.668 70.7184 106.631 70.6906H106.622C106.622 70.6906 106.557 70.635 106.52 70.6164C106.511 70.6164 106.501 70.6072 106.492 70.5979C106.455 70.5794 106.418 70.5516 106.372 70.533L98.273 66.8636C97.7448 66.6227 97.124 66.8636 96.8923 67.3825C96.6606 67.9014 96.8923 68.5315 97.4112 68.7632L103.073 71.3299L57.5941 86.3598L41.7581 80.9205C41.582 80.8556 41.3874 80.8464 41.2021 80.8834L5.86058 88.3891C5.29533 88.5096 4.93395 89.0655 5.05441 89.6308C5.15634 90.1219 5.59185 90.4555 6.0737 90.4555C6.14783 90.4555 6.22196 90.4555 6.29609 90.4369L41.3318 82.9776L57.2234 88.4354C57.4366 88.5096 57.6775 88.5096 57.8906 88.4354L103.805 73.2573L100.673 79.2711C100.404 79.7808 100.608 80.4109 101.118 80.6796C101.627 80.9483 102.257 80.7444 102.526 80.2348L106.844 71.9415C106.844 71.9415 106.844 71.923 106.854 71.9137C106.854 71.9044 106.854 71.8952 106.863 71.8859C106.872 71.8581 106.881 71.8303 106.9 71.8025C106.918 71.7469 106.928 71.7006 106.937 71.6542H106.946V71.6635Z" fill="#1D1D1B"/>
<path d="M9.72482 86.5914C10.2993 86.5914 10.7719 86.128 10.7719 85.5443V76.4448C10.7719 75.3421 11.6707 74.4433 12.7734 74.4433H35.8835C36.1244 74.4433 36.319 74.6379 36.319 74.8788V78.4C36.319 78.9745 36.7823 79.4471 37.3661 79.4471C37.9498 79.4471 38.4132 78.9838 38.4132 78.4V69.0967C38.4132 67.994 39.312 67.0951 40.4147 67.0951H63.5247C63.7656 67.0951 63.9602 67.2897 63.9602 67.5307V72.8032C63.9602 73.3777 64.4235 73.8503 65.0073 73.8503C65.5911 73.8503 66.0544 73.3869 66.0544 72.8032V62.3601C66.0544 61.2574 66.9532 60.3586 68.0559 60.3586H91.166C91.4069 60.3586 91.6015 60.5532 91.6015 60.7941V71.4596C91.6015 72.0341 92.0648 72.5066 92.6486 72.5066C93.2324 72.5066 93.6957 72.0433 93.6957 71.4596V60.7941C93.6957 59.4042 92.5652 58.2644 91.166 58.2644H68.0559C65.8042 58.2644 63.9695 60.0991 63.9695 62.3508V65.038C63.8305 65.0102 63.6822 65.001 63.534 65.001H40.4239C38.1722 65.001 36.3375 66.8357 36.3375 69.0874V72.3862C36.1985 72.3584 36.0503 72.3491 35.902 72.3491H12.7642C10.5125 72.3491 8.67773 74.1838 8.67773 76.4355V85.535C8.67773 86.1095 9.14105 86.5821 9.72482 86.5821H9.71556L9.72482 86.5914Z" fill="#1D1D1B"/>
<path d="M22.911 42.0393C18.5651 42.0393 15.0254 45.579 15.0254 49.9249C15.0254 54.2708 18.5651 57.8105 22.911 57.8105C27.2569 57.8105 30.7966 54.2708 30.7966 49.9249C30.7966 45.579 27.2569 42.0393 22.911 42.0393ZM22.911 55.7163C19.7141 55.7163 17.1196 53.1218 17.1196 49.9249C17.1196 46.728 19.7141 44.1242 22.911 44.1242C26.1078 44.1242 28.7024 46.728 28.7024 49.9249C28.7024 53.1218 26.1078 55.7163 22.911 55.7163Z" fill="#1D1D1B"/>
<path d="M28.702 49.9247C28.702 53.1216 26.1074 55.7161 22.9106 55.7161C19.7137 55.7161 17.1191 53.1216 17.1191 49.9247C17.1191 46.7278 19.7137 44.124 22.9106 44.124C26.1074 44.124 28.702 46.7278 28.702 49.9247Z" fill="#FFD500"/>
<path d="M62.8207 56.2443C62.6539 56.0961 58.725 52.5656 52.7205 52.4637C48.6526 52.3988 46.3175 52.4915 44.0565 53.205C43.5932 53.3533 42.4812 53.8444 41.4898 54.4652C40.5446 55.049 39.7384 55.7439 39.4512 56.0219C37.5053 57.8937 36.7084 60.4327 36.9308 64.0187C36.9678 64.5747 37.4219 65.0009 37.9686 65.0009C37.9686 65.0009 38.0149 64.9917 38.0334 64.9917C38.608 64.9546 39.0435 64.4635 39.0064 63.8797C38.8211 60.9145 39.3956 58.9501 40.8874 57.5138C41.0635 57.3377 41.7677 56.7354 42.5832 56.2258C43.4357 55.6976 44.3901 55.2806 44.6866 55.188C45.9468 54.7895 47.2904 54.6042 49.0881 54.5486L48.495 61.6373C48.4765 61.8875 48.5414 62.1377 48.6989 62.3415L50.3298 64.5654C50.5244 64.8342 50.8394 64.9917 51.173 64.9917H51.2101C51.5529 64.9824 51.8772 64.7971 52.0533 64.5098L53.5822 62.0821C53.7027 61.8875 53.7583 61.6558 53.7398 61.4149L53.0448 54.5579C58.03 54.7803 61.3751 57.7547 61.4122 57.7825C61.8385 58.1717 62.4964 58.1439 62.8855 57.7177C63.2747 57.2914 63.2469 56.6335 62.8207 56.2443ZM51.1081 62.0913L50.617 61.4242L51.0803 55.8737L51.627 61.2759L51.1081 62.0913Z" fill="#1D1D1B"/>
<path d="M52.3959 61.8411L51.0893 63.9075L49.8477 62.221L50.4963 54.5486L51.6731 54.5579L52.3959 61.8411Z" fill="#F5370D"/>
<path d="M11.9203 71.5244H11.9851C12.5597 71.4874 12.9952 70.9963 12.9674 70.4125C12.8006 67.7716 13.3102 66.0296 14.5982 64.7693C14.7558 64.6118 15.3581 64.0744 16.0716 63.6296C16.8221 63.157 17.6468 62.7956 17.897 62.7122C19.6298 62.147 21.5387 62.0821 24.9116 62.1377C28.1918 62.1933 30.4621 63.7686 31.5184 64.6952C31.9539 65.0751 32.6118 65.0381 32.9918 64.6025C33.3717 64.167 33.3253 63.5091 32.8991 63.1292C31.6296 62.008 28.8961 60.1177 24.9486 60.0528C21.3441 59.988 19.2684 60.0713 17.2576 60.7293C16.8407 60.8682 15.8492 61.313 14.9596 61.869C14.1164 62.3972 13.4029 63.0273 13.1342 63.2867C11.3921 64.9917 10.6786 67.299 10.8825 70.5515C10.9195 71.1075 11.3736 71.5337 11.9203 71.5337V71.5244Z" fill="#1D1D1B"/>
<path d="M85.1055 42.5117H74.6903C68.7599 42.5117 63.9414 47.3302 63.9414 53.2606V55.7995C63.9414 56.374 64.4047 56.8466 64.9885 56.8466C65.563 56.8374 66.0356 56.374 66.0356 55.7903V53.2513C66.0356 49.3132 68.6765 45.9866 72.281 44.9395L78.9342 56.6242C79.1103 56.9393 79.4531 57.1431 79.8145 57.1524H79.8423C80.2037 57.1524 80.528 56.9671 80.7226 56.6706L88.0707 45.1248C91.3881 46.3387 93.7602 49.5263 93.7602 53.2606V55.7995C93.7602 56.374 94.2235 56.8466 94.8073 56.8466C95.3911 56.8466 95.8544 56.3833 95.8544 55.7995V53.2606C95.8544 47.3302 91.036 42.5117 85.1055 42.5117ZM77.1366 49.2576L74.4864 44.6059H77.6555L77.1366 49.2576ZM79.8886 54.0853L78.8971 52.3432L79.7589 44.5966H79.935L80.806 52.6397L79.8886 54.0853ZM82.6037 49.8135L82.0384 44.5966H85.0963C85.365 44.5966 85.6337 44.6059 85.9024 44.6337L82.6037 49.8135Z" fill="#1D1D1B"/>
<path d="M77.6554 44.606L77.1457 49.2576L74.4863 44.606H77.6554Z" fill="#FFD500"/>
<path d="M85.9031 44.6337L82.6043 49.8136L82.0391 44.5967H85.0969C85.3657 44.5967 85.6344 44.6059 85.9031 44.6337Z" fill="#FFD500"/>
<path d="M51.0618 32.365C46.0117 32.365 41.8975 36.4792 41.8975 41.5293C41.8975 46.5794 46.0117 50.6936 51.0618 50.6936C56.1119 50.6936 60.2261 46.5794 60.2261 41.5293C60.2261 36.4792 56.1119 32.365 51.0618 32.365ZM51.0618 48.5995C47.1607 48.5995 43.9916 45.4304 43.9916 41.5293C43.9916 37.6282 47.1607 34.4592 51.0618 34.4592C54.9629 34.4592 58.1319 37.6282 58.1319 41.5293C58.1319 45.4304 54.9629 48.5995 51.0618 48.5995Z" fill="#1D1D1B"/>
<path d="M51.0614 48.5998C54.9625 48.5998 58.1315 45.4307 58.1315 41.5296C58.1315 37.6285 54.9625 34.4595 51.0614 34.4595C47.1603 34.4595 43.9912 37.6285 43.9912 41.5296C43.9912 45.4307 47.1603 48.5998 51.0614 48.5998Z" fill="#FFD500"/>
<path d="M80.0098 19.7539C74.1535 19.7539 69.3906 24.5168 69.3906 30.373C69.3906 36.2293 74.1535 40.9922 80.0098 40.9922C85.866 40.9922 90.6289 36.2293 90.6289 30.373C90.6289 24.5168 85.8568 19.7539 80.0098 19.7539ZM80.0098 38.898C75.3025 38.898 71.4755 35.071 71.4755 30.373C71.4755 25.675 75.3025 21.8481 80.0098 21.8481C84.717 21.8481 88.5347 25.6658 88.5347 30.373C88.5347 35.0803 84.7078 38.898 80.0098 38.898Z" fill="#1D1D1B"/>
<path d="M88.525 30.3729C88.525 35.0709 84.698 38.8978 80 38.8978C75.3021 38.8978 71.4658 35.0709 71.4658 30.3729C71.4658 25.6749 75.2928 21.8479 80 21.8479C84.7073 21.8479 88.525 25.6656 88.525 30.3729Z" fill="#FFD500"/>
<path d="M81.4266 53.2328L79.8698 55.6883L78.3965 53.2328L79.1563 44.5596L80.5555 44.5688L81.4266 53.2328Z" fill="#F5370D"/>
</svg>
