<svg width="111" height="111" viewBox="0 0 111 111" fill="none" xmlns="http://www.w3.org/2000/svg">
<path d="M90.5226 43.2437H85.0254C84.4801 43.2437 84.0385 43.6853 84.0385 44.2306C84.0385 44.7759 84.4801 45.2175 85.0254 45.2175H90.5226C92.156 45.2175 93.4834 46.545 93.4834 48.1783V61.5537H80.113C79.5677 61.5537 79.126 61.9954 79.126 62.5407V74.4208H70.1598C69.6145 74.4208 69.1728 74.8625 69.1728 75.4078C69.1728 75.9531 69.6145 76.3947 70.1598 76.3947H79.126V99.9528H53.1303V71.0974L58.3783 65.953C58.7681 65.5705 58.773 64.9463 58.3931 64.5565C58.0106 64.1666 57.3864 64.1617 56.9966 64.5417L51.4525 69.9747C51.2625 70.1598 51.1564 70.4139 51.1564 70.6804V84.5221H34.988V58.5016H45.6542C46.1995 58.5016 46.6412 58.06 46.6412 57.5147C46.6412 56.9694 46.1995 56.5278 45.6542 56.5278H34.988V45.2151H48.4325C48.9777 45.2151 49.4194 44.7734 49.4194 44.2281C49.4194 43.6829 48.9777 43.2412 48.4325 43.2412H20.6701C17.8425 43.2412 15.543 45.5408 15.543 48.3683V96.7971C15.543 99.6246 17.8425 101.924 20.6701 101.924H90.3302C93.1577 101.924 95.4573 99.6246 95.4573 96.7971V48.1783C95.4573 45.4569 93.2441 43.2437 90.5226 43.2437ZM51.1564 86.4984V99.9552H34.988V86.4984H51.1564ZM20.6701 45.2175H33.0117V56.5302H17.5168V48.3708C17.5168 46.6313 18.9306 45.2175 20.6701 45.2175ZM17.5168 96.7995V58.5041H33.0141V99.9528H20.6701C18.9306 99.9528 17.5168 98.539 17.5168 96.7995ZM93.4834 96.7995C93.4834 98.539 92.0696 99.9528 90.3302 99.9528H81.0999V63.5276H93.4834V96.7995Z" fill="#272729"/>
<path d="M66.8572 18.842C62.4111 18.842 58.7939 22.4616 58.7939 26.9077C58.7939 31.3539 62.4111 34.971 66.8572 34.971C71.3033 34.971 74.9204 31.3539 74.9204 26.9077C74.9204 22.4616 71.3033 18.842 66.8572 18.842ZM66.8572 32.9971C63.4991 32.9971 60.7678 30.2658 60.7678 26.9077C60.7678 23.5497 63.4991 20.8159 66.8572 20.8159C70.2152 20.8159 72.9465 23.5497 72.9465 26.9077C72.9465 30.2658 70.2152 32.9971 66.8572 32.9971Z" fill="#272729"/>
<path d="M66.8559 9.30078C57.1469 9.30078 49.249 17.1987 49.249 26.9076C49.249 37.2902 65.3311 63.3846 66.017 64.49C66.1971 64.7787 66.5129 64.9563 66.8559 64.9563C67.1988 64.9563 67.5147 64.7787 67.6948 64.49C68.3782 63.3846 84.4603 37.2902 84.4603 26.9076C84.4603 17.1987 76.5623 9.30078 66.8559 9.30078ZM66.8559 62.0671C63.4978 56.4712 51.2229 35.4323 51.2229 26.9076C51.2229 18.383 58.2375 11.2746 66.8559 11.2746C75.4743 11.2746 82.4864 18.2868 82.4864 26.9076C82.4864 35.5285 70.2139 56.4712 66.8559 62.0671Z" fill="#272729"/>
<path d="M66.8566 11.2749C58.2382 11.2749 51.2236 18.2871 51.2236 26.9079C51.2236 35.5287 63.4986 56.4714 66.8566 62.0673C70.2147 56.4714 82.4872 35.4325 82.4872 26.9079C82.4872 18.3833 75.475 11.2749 66.8566 11.2749ZM66.8566 34.9711C62.4105 34.9711 58.7934 31.354 58.7934 26.9079C58.7934 22.4618 62.4105 18.8422 66.8566 18.8422C71.3028 18.8422 74.9199 22.4618 74.9199 26.9079C74.9199 31.354 71.3028 34.9711 66.8566 34.9711Z" fill="#FFD504"/>
<path d="M72.9453 26.9075C72.9453 30.2655 70.214 32.9969 66.856 32.9969C63.4979 32.9969 60.7666 30.2655 60.7666 26.9075C60.7666 23.5495 63.4979 20.8157 66.856 20.8157C70.214 20.8157 72.9453 23.5495 72.9453 26.9075Z" fill="#E73D1C"/>
</svg>
