<svg width="36" height="36" viewBox="0 0 36 36" fill="none" xmlns="http://www.w3.org/2000/svg">
<path d="M27.4163 9H8.16604C7.7019 9 7.25678 9.18262 6.92859 9.50769C6.60039 9.83276 6.41602 10.2736 6.41602 10.7334V25.4669C6.41602 25.9266 6.60039 26.3675 6.92859 26.6926C7.25678 27.0176 7.7019 27.2002 8.16604 27.2002H27.4163C27.8804 27.2002 28.3256 27.0176 28.6538 26.6926C28.9819 26.3675 29.1663 25.9266 29.1663 25.4669V10.7334C29.1663 10.2736 28.9819 9.83276 28.6538 9.50769C28.3256 9.18262 27.8804 9 27.4163 9Z" stroke="#FFD500" stroke-width="2" stroke-linecap="round" stroke-linejoin="round"/>
<path d="M6.41602 15.0664L16.6712 20.8649C16.9862 21.0394 17.3817 21.1332 17.7912 21.1332C18.2007 21.1332 18.5962 21.0394 18.9112 20.8649L29.1663 15.0664" stroke="#FFD500" stroke-width="2" stroke-linecap="round" stroke-linejoin="round"/>
</svg>
