<svg width="120" height="120" viewBox="0 0 120 120" fill="none" xmlns="http://www.w3.org/2000/svg">
<rect x="27.5977" y="27.5999" width="66" height="66" fill="#272729"/>
<path d="M102.428 17.5724C91.1717 6.322 75.9146 0 60 0C44.0854 0 28.8227 6.322 17.5724 17.5724C6.322 28.8227 0 44.0854 0 60C0 75.9146 6.322 91.1773 17.5724 102.428C28.8227 113.678 44.0854 120 60 120C75.9146 120 91.1717 113.678 102.428 102.428C113.678 91.1773 120 75.9146 120 60C120 44.0854 113.678 28.8227 102.428 17.5724ZM85.7376 62.5794C85.3105 63.3661 84.698 64.0461 83.9506 64.5406L55.5886 83.4504C54.7682 83.9955 53.8129 84.3158 52.8238 84.3608C51.8348 84.4114 50.857 84.1922 49.986 83.7258C49.1149 83.2593 48.39 82.5625 47.8786 81.714C47.3729 80.871 47.1087 79.8988 47.1087 78.9098V41.0846C47.1087 40.0955 47.3729 39.129 47.8786 38.2748C48.39 37.4319 49.1149 36.7407 49.986 36.2742C50.857 35.8078 51.8348 35.5886 52.8238 35.6336C53.8129 35.6786 54.7682 35.9933 55.5886 36.544L83.9506 55.465C84.698 55.9595 85.3105 56.6339 85.7376 57.4262C86.159 58.2186 86.3782 59.1009 86.3782 60C86.3782 60.8991 86.159 61.7814 85.7376 62.5794Z" fill="#FFD300"/>
</svg>
