<svg width="47" height="47" viewBox="0 0 47 47" fill="none" xmlns="http://www.w3.org/2000/svg">
<path d="M24.527 17.9333C25.1494 18.1108 25.7165 18.4435 26.175 18.9002C26.6335 19.357 26.9684 19.9228 27.1481 20.5445M24.429 14.5635C27.4064 15.4041 29.7779 17.7657 30.6185 20.7245M24.0627 10.6486C29.1087 12.0741 33.1266 16.0746 34.5508 21.0883M41.6828 26.2027C41.6828 34.0808 35.2262 40.4914 27.2922 40.4914H18.8962C18.6863 40.4911 18.4837 40.5685 18.3275 40.7087L14.5927 44.0698V40.4716C14.5923 40.2972 14.5377 40.1274 14.4365 39.9854C14.3353 39.8435 14.1924 39.7366 14.0277 39.6794C8.28888 37.6642 4.43359 32.2482 4.43359 26.2027V18.6274C4.43359 10.7467 10.8901 4.3374 18.8242 4.3374H27.2922C35.2262 4.3374 41.6828 10.748 41.6828 18.6262V26.2027ZM31.2307 31.3617C30.4683 32.5288 28.2693 33.8921 27.024 33.095C26.9619 33.0627 20.7897 29.8705 17.5366 26.5789C14.4946 23.5021 12.4769 20.0851 12.2013 19.6083C11.5308 17.7409 12.2721 15.5606 13.217 14.7461L15.134 13.091L18.6479 17.1077C18.722 17.1901 18.7788 17.2865 18.8149 17.3913C18.8511 17.4961 18.8658 17.607 18.8583 17.7176C18.8508 17.8282 18.8211 17.9361 18.7711 18.035C18.7211 18.1339 18.6518 18.2218 18.5672 18.2934L17.5292 19.1899C17.4055 19.2961 17.3155 19.4361 17.2703 19.5927C17.2251 19.7493 17.2266 19.9157 17.2746 20.0714C19.0464 25.7879 22.4895 26.9104 25.0038 27.7299L25.3701 27.8503C25.5477 27.9105 25.7402 27.9098 25.9174 27.8484C26.0945 27.787 26.2462 27.6684 26.3485 27.5113L26.9482 26.5925C27.0712 26.405 27.2636 26.274 27.4831 26.2281C27.7026 26.1823 27.9313 26.2254 28.1191 26.3479L32.6138 29.2471L31.2307 31.3617Z" stroke="#DBDBDB" stroke-linecap="round" stroke-linejoin="bevel"/>
</svg>
