<svg width="47" height="47" viewBox="0 0 47 47" fill="none" xmlns="http://www.w3.org/2000/svg">
<path d="M38.46 9H7.98528C7.25051 9 6.54584 9.2891 6.02628 9.80371C5.50673 10.3183 5.21484 11.0163 5.21484 11.744V35.0685C5.21484 35.7962 5.50673 36.4942 6.02628 37.0088C6.54584 37.5234 7.25051 37.8125 7.98528 37.8125H38.46C39.1948 37.8125 39.8995 37.5234 40.419 37.0088C40.9386 36.4942 41.2305 35.7962 41.2305 35.0685V11.744C41.2305 11.0163 40.9386 10.3183 40.419 9.80371C39.8995 9.2891 39.1948 9 38.46 9Z" stroke="white" stroke-linecap="round" stroke-linejoin="round"/>
<path d="M5.21484 18.604L21.4496 27.7836C21.9483 28.0597 22.5744 28.2082 23.2227 28.2082C23.8709 28.2082 24.4971 28.0597 24.9957 27.7836L41.2305 18.604" stroke="white" stroke-linecap="round" stroke-linejoin="round"/>
</svg>
