<svg width="47" height="47" viewBox="0 0 47 47" fill="none" xmlns="http://www.w3.org/2000/svg">
<path d="M33.6155 4.3374H14.1465C8.95649 4.3374 6.49805 6.97216 6.49805 12.5322V33.3917C6.49805 38.9518 8.95649 41.5866 14.1465 41.5866H33.6155C38.8055 41.5866 41.264 38.9518 41.264 33.3917V12.5322C41.264 6.97216 38.8055 4.3374 33.6155 4.3374ZM23.881 33.1471C18.7952 33.1471 15.2566 29.827 15.2566 23.9056C15.2566 17.9843 19.236 14.6654 23.881 14.6654C28.526 14.6654 32.5054 17.9855 32.5054 23.9056C32.5054 29.8282 28.9668 33.1471 23.881 33.1471ZM33.6155 14.2333C32.5352 14.2333 31.6872 13.3045 31.6872 12.1684C31.6872 11.0311 32.534 10.1023 33.6142 10.1023C34.6944 10.1023 35.5425 11.0311 35.5425 12.1684C35.5425 13.3045 34.6957 14.2333 33.6155 14.2333Z" stroke="#DBDBDB"/>
</svg>
