<svg width="111" height="111" viewBox="0 0 111 111" fill="none" xmlns="http://www.w3.org/2000/svg">
<path d="M59.8 33.0896C59.83 34.8696 59.83 36.6696 59.8 38.4496C59.8 39.4096 59.37 39.9296 58.44 40.1196C57.97 40.2096 57.48 40.2596 56.96 40.3196C56.6 40.3596 56.24 40.3996 55.87 40.4496C54.82 40.6096 53.87 41.4396 53.4 42.6196C52.92 43.8296 53.04 45.1096 53.71 45.9696C53.93 46.2496 54.15 46.5196 54.37 46.7896C54.62 47.0996 54.86 47.3796 55.09 47.6796C55.76 48.5496 55.72 49.3496 54.97 50.1296C53.63 51.4896 52.42 52.7096 51.24 53.8496C50.33 54.7396 49.44 54.4096 48.86 53.9796C48.78 53.9096 48.69 53.8496 48.6 53.7896C48.37 53.6196 48.15 53.4596 48.01 53.2996C46.73 51.7696 45.14 51.5096 43.28 52.5296C42.61 52.8896 41.61 53.4396 41.57 54.8896C41.54 55.6796 41.44 56.4996 41.26 57.3196C41.08 58.1996 40.56 58.6196 39.64 58.6496C39.01 58.6696 38.36 58.6696 37.72 58.6596H36.02C35.43 58.6596 34.87 58.6596 34.3 58.6496C33.23 58.6196 32.72 58.1896 32.52 57.1496C32.46 56.8096 32.43 56.4496 32.39 56.0696C32.35 55.5496 32.3 55.0196 32.17 54.4696C31.99 53.7296 31.42 53.1096 30.95 52.7696C30.29 52.3096 29.55 52.0896 29.04 51.9896C28.53 51.8896 27.71 51.9096 27.11 52.2996C26.6 52.6296 26.15 53.0096 25.71 53.3796C25.45 53.5896 25.22 53.7896 24.97 53.9796C24.15 54.6096 23.33 54.5596 22.6 53.8496C21.37 52.6496 20.12 51.3996 18.88 50.1296C18.12 49.3396 18.08 48.5396 18.75 47.6796L18.84 47.5596C19.29 46.9896 19.7 46.4496 20.16 45.9496C20.99 45.0396 20.86 44.1296 20.67 43.3496C20.04 40.6296 17.95 40.2796 16.43 40.2496C14.51 40.2096 14.04 39.7096 14.04 37.6896V36.3996C14.04 35.3396 14.04 34.2596 14.06 33.1896C14.08 32.0596 14.5 31.5596 15.61 31.3596C16.01 31.2796 16.43 31.2396 16.87 31.1996C17.23 31.1696 17.61 31.1296 17.98 31.0696C19.05 30.9196 20 30.0796 20.47 28.8896C20.95 27.6896 20.82 26.4196 20.15 25.5596C19.94 25.2996 19.73 25.0396 19.52 24.7796C19.26 24.4696 19.01 24.1696 18.77 23.8596C18.09 22.9696 18.13 22.1896 18.89 21.4096C20.22 20.0396 21.44 18.8196 22.61 17.6896C23.35 16.9696 24.15 16.9296 24.98 17.5596L25.13 17.6696C25.6 18.0196 26.04 18.3596 26.41 18.7296C27.58 19.8896 28.78 19.6896 29.81 19.3496C31.58 18.7496 32.43 17.5696 32.41 15.7296C32.41 15.2396 32.47 14.6996 32.61 14.1296C32.8 13.3596 33.33 12.9196 34.09 12.8996C36.06 12.8496 37.97 12.8496 39.77 12.8996C40.57 12.9196 41.11 13.3796 41.28 14.2096C41.45 15.0096 41.56 15.8696 41.61 16.7796C41.66 17.9196 42.26 18.6796 43.38 19.0296C43.48 19.0596 43.61 19.1196 43.74 19.1796C44.03 19.3196 44.38 19.4896 44.81 19.5296C45.26 19.5796 46.13 19.5996 46.81 19.1796C47.33 18.8696 47.78 18.4796 48.22 18.1096C48.45 17.9096 48.67 17.7296 48.89 17.5596C49.69 16.9396 50.53 16.9796 51.25 17.6896C52.59 18.9896 53.79 20.1796 54.9 21.3396C54.9 21.3396 54.9 21.3496 54.92 21.3496C54.96 21.3996 55.01 21.4396 55.05 21.4896C55.71 22.1696 55.75 22.9896 55.17 23.7896C54.95 24.0796 54.72 24.3596 54.47 24.6596L54.37 24.7796C52.66 26.8696 52.6 27.6396 53.99 29.9796C54.29 30.4896 54.91 30.9096 55.52 31.0196C56.02 31.1096 56.52 31.1596 57 31.2096C57.47 31.2596 57.92 31.3096 58.35 31.3896C59.32 31.5796 59.79 32.1096 59.81 33.0896H59.8Z" fill="#FFD500"/>
<path d="M36.9296 21.7095C29.1896 21.7095 22.8896 28.0095 22.8896 35.7495C22.8896 43.4895 29.1896 49.7895 36.9296 49.7895C44.6696 49.7895 50.9697 43.4895 50.9697 35.7495C50.9697 28.0095 44.6696 21.7095 36.9296 21.7095ZM36.9296 47.7595C30.3096 47.7595 24.9196 42.3695 24.9196 35.7495C24.9196 29.1295 30.3096 23.7395 36.9296 23.7395C43.5496 23.7395 48.9396 29.1295 48.9396 35.7495C48.9396 42.3695 43.5496 47.7595 36.9296 47.7595Z" fill="#272729"/>
<path d="M36.9299 47.7595C43.5599 47.7595 48.9399 42.3795 48.9399 35.7495C48.9399 29.1195 43.5599 23.7395 36.9299 23.7395C30.2999 23.7395 24.9199 29.1195 24.9199 35.7495C24.9199 42.3795 30.2999 47.7595 36.9299 47.7595Z" fill="#FFD500"/>
<path d="M44.1697 35.2996L38.3598 40.7696C37.8998 41.1396 37.3897 41.3396 36.8797 41.3396C36.8297 41.3396 36.7798 41.3396 36.6898 41.3296C35.8698 41.3296 35.1198 40.8896 34.6898 40.1396C34.6698 40.1096 34.6498 40.0696 34.6398 40.0396L29.9597 29.8296C29.8097 29.4896 29.8298 29.1296 30.0298 28.8296C30.2298 28.5296 30.5698 28.3396 30.9398 28.3396C31.2598 28.3396 31.5598 28.4896 31.7598 28.7596L37.5098 36.4296L43.0098 33.6496C43.1498 33.5796 43.2998 33.5496 43.4498 33.5496C43.8598 33.5496 44.2698 33.7996 44.4298 34.1996C44.5798 34.5796 44.4797 35.0196 44.1697 35.2996Z" fill="#F5370D"/>
<path d="M45.3596 33.8296C44.9396 32.7596 43.5896 32.2396 42.5596 32.7596L37.8096 35.1596L32.5596 28.1596C32.1696 27.6396 31.5796 27.3396 30.9296 27.3396C30.2396 27.3396 29.5696 27.6996 29.1896 28.2896C28.8096 28.8796 28.7596 29.5896 29.0496 30.2396L33.7296 40.4496C33.7696 40.5596 33.8296 40.6596 33.8596 40.6896C34.4296 41.6896 35.5096 42.3196 36.6496 42.3296C36.7296 42.3296 36.7996 42.3396 36.8796 42.3396C37.6296 42.3396 38.3596 42.0596 38.9896 41.5396L44.8596 36.0296C45.4596 35.4696 45.6596 34.5996 45.3596 33.8296ZM44.1696 35.2996L38.3596 40.7696C37.8996 41.1396 37.3896 41.3396 36.8796 41.3396C36.8296 41.3396 36.7796 41.3396 36.6896 41.3296C35.8696 41.3296 35.1196 40.8896 34.6896 40.1396C34.6696 40.1096 34.6496 40.0696 34.6396 40.0396L29.9596 29.8296C29.8096 29.4896 29.8296 29.1296 30.0296 28.8296C30.2296 28.5296 30.5696 28.3396 30.9396 28.3396C31.2596 28.3396 31.5596 28.4896 31.7596 28.7596L37.5096 36.4296L43.0096 33.6496C43.1496 33.5796 43.2996 33.5496 43.4496 33.5496C43.8596 33.5496 44.2696 33.7996 44.4296 34.1996C44.5796 34.5796 44.4796 35.0196 44.1696 35.2996Z" fill="#272729"/>
<path d="M49.3195 76.1395C49.3795 78.1295 51.0095 79.7295 53.0095 79.7295C55.0095 79.7295 56.7095 78.0695 56.7095 76.0295C56.7095 74.5795 55.8795 73.3395 54.6695 72.7295L56.0095 64.5395H56.1095C57.2995 64.5395 58.3595 63.9695 59.0395 63.0995L68.5595 67.3395C68.6195 69.3295 70.2495 70.9195 72.2495 70.9195C74.2495 70.9195 75.9495 69.2595 75.9495 67.2195C75.9495 66.1495 75.4995 65.1895 74.7695 64.5195L78.5895 55.5395L83.2395 57.5095L81.7595 45.4695L72.0695 52.7695L76.7195 54.7395L72.9595 63.5895C72.7295 63.5395 72.4895 63.5195 72.2495 63.5195C70.8895 63.5195 69.7095 64.2495 69.0695 65.3395L59.7995 61.2095C59.7995 61.0895 59.8195 60.9595 59.8195 60.8295C59.8195 58.7895 58.1595 57.1295 56.1195 57.1295C54.0795 57.1295 52.4195 58.7895 52.4195 60.8295C52.4195 62.1095 53.0695 63.2395 54.0595 63.9095L52.6795 72.3395C51.4595 72.4495 50.4095 73.1495 49.8195 74.1495L44.3095 71.7895C44.3095 71.7195 44.3195 71.6495 44.3195 71.5795C44.3195 69.5395 42.6595 67.8795 40.6195 67.8795C38.5795 67.8795 36.9195 69.5395 36.9195 71.5795C36.9195 72.5395 37.2895 73.4095 37.8795 74.0595L32.8295 82.3995C32.4595 82.2695 32.0595 82.1995 31.6395 82.1995C29.5995 82.1995 27.9395 83.8595 27.9395 85.8995C27.9395 87.9395 29.5995 89.5995 31.6395 89.5995C33.6795 89.5995 35.3395 87.9395 35.3395 85.8995C35.3395 85.0095 35.0295 84.1895 34.4995 83.5495L39.5995 75.1295C39.9195 75.2195 40.2595 75.2695 40.6095 75.2695C41.8595 75.2695 42.9595 74.6495 43.6295 73.6995L49.2995 76.1295H49.3195V76.1395Z" fill="#272729"/>
<path d="M84.1895 75.5596H64.4495C63.8895 75.5596 63.4395 76.0096 63.4395 76.5696C63.4395 77.1296 63.8895 77.5796 64.4495 77.5796H84.1895C84.7495 77.5796 85.1995 77.1296 85.1995 76.5696C85.1995 76.0096 84.7495 75.5596 84.1895 75.5596Z" fill="#272729"/>
<path d="M84.1895 81.5596H64.4495C63.8895 81.5596 63.4395 82.0096 63.4395 82.5696C63.4395 83.1296 63.8895 83.5796 64.4495 83.5796H84.1895C84.7495 83.5796 85.1995 83.1296 85.1995 82.5696C85.1995 82.0096 84.7495 81.5596 84.1895 81.5596Z" fill="#272729"/>
<path d="M84.1898 87.5496H49.3098C48.7498 87.5496 48.2998 87.9996 48.2998 88.5596C48.2998 89.1196 48.7498 89.5696 49.3098 89.5696H84.1898C84.7498 89.5696 85.1998 89.1196 85.1998 88.5596C85.1998 87.9996 84.7498 87.5496 84.1898 87.5496Z" fill="#272729"/>
<path d="M75.9598 92.8496H49.3098C48.7498 92.8496 48.2998 93.2996 48.2998 93.8596C48.2998 94.4196 48.7498 94.8696 49.3098 94.8696H75.9598C76.5198 94.8696 76.9698 94.4196 76.9698 93.8596C76.9698 93.2996 76.5198 92.8496 75.9598 92.8496Z" fill="#272729"/>
<path d="M81.5996 19.6095H56.0496C54.9996 18.5295 53.8896 17.4195 52.6596 16.2295C51.2196 14.8195 49.2496 14.7095 47.6396 15.9395C47.3796 16.1495 47.1296 16.3495 46.8996 16.5595C46.4996 16.8895 46.1296 17.2095 45.7396 17.4495C45.6696 17.4895 45.4196 17.5495 45.0096 17.5095C44.9296 17.5095 44.7396 17.4095 44.5996 17.3395C44.4096 17.2595 44.2096 17.1595 43.9796 17.0895C43.6496 16.9795 43.6296 16.9195 43.6196 16.6595C43.5696 15.6495 43.4396 14.6795 43.2496 13.7795C42.8896 12.0495 41.5396 10.8995 39.8096 10.8595C37.9796 10.8395 36.0296 10.8395 34.0296 10.8595C32.3396 10.8995 31.0296 11.9695 30.6296 13.6495C30.4496 14.3795 30.3696 15.0895 30.3696 15.7395C30.3796 16.7095 30.0996 17.0995 29.1496 17.4195C28.3396 17.6895 28.1496 17.5995 27.8296 17.2895C27.3596 16.8195 26.8496 16.4295 26.3496 16.0495L26.1996 15.9295C24.5696 14.6995 22.6496 14.8095 21.1896 16.2195C20.0096 17.3695 18.7696 18.5995 17.4196 19.9795C15.9596 21.4895 15.8596 23.3895 17.1496 25.0795C17.4096 25.4195 17.6796 25.7495 17.9396 26.0695C18.1496 26.3095 18.3496 26.5595 18.5496 26.8095C18.7696 27.0895 18.7796 27.6195 18.5796 28.1395C18.3796 28.6395 18.0196 29.0095 17.6796 29.0595C17.3496 29.1095 17.0196 29.1395 16.6696 29.1795C16.1996 29.2195 15.7196 29.2595 15.2396 29.3595C13.1696 29.7395 12.0596 31.0495 12.0196 33.1495C11.9896 34.2395 11.9996 35.3395 11.9996 36.3995C11.9996 36.8295 12.0096 37.2595 12.0096 37.6895C12.0096 40.7995 13.3596 42.2095 16.3896 42.2795C17.8896 42.3095 18.4296 42.6695 18.6996 43.8095C18.8396 44.3895 18.7996 44.4295 18.6596 44.5795C18.1496 45.1395 17.6796 45.7395 17.2396 46.3195L17.1496 46.4395C15.8496 48.1195 15.9496 50.0195 17.4296 51.5395C18.1796 52.2995 18.9296 53.0595 19.6796 53.8095V89.4295C19.6796 95.1595 24.3396 99.8295 30.0796 99.8295H81.5996C87.3396 99.8295 91.9996 95.1595 91.9996 89.4295V29.9995C91.9996 24.2695 87.3396 19.6095 81.5996 19.6095ZM18.8796 50.1295C18.1196 49.3395 18.0796 48.5395 18.7496 47.6795L18.8396 47.5595C19.2896 46.9895 19.6996 46.4495 20.1596 45.9495C20.9896 45.0395 20.8596 44.1295 20.6696 43.3495C20.0396 40.6295 17.9496 40.2795 16.4296 40.2495C14.5096 40.2095 14.0396 39.7095 14.0396 37.6895V36.3995C14.0396 35.3395 14.0396 34.2595 14.0596 33.1895C14.0796 32.0595 14.4996 31.5595 15.6096 31.3595C16.0096 31.2795 16.4296 31.2395 16.8696 31.1995C17.2296 31.1695 17.6096 31.1295 17.9796 31.0695C19.0496 30.9195 19.9996 30.0795 20.4696 28.8895C20.9496 27.6895 20.8196 26.4195 20.1496 25.5595C19.9396 25.2995 19.7296 25.0395 19.5196 24.7795C19.2596 24.4695 19.0096 24.1695 18.7696 23.8595C18.0896 22.9695 18.1296 22.1895 18.8896 21.4095C20.2196 20.0395 21.4396 18.8195 22.6096 17.6895C23.3496 16.9695 24.1496 16.9295 24.9796 17.5595L25.1296 17.6695C25.5996 18.0195 26.0396 18.3595 26.4096 18.7295C27.5796 19.8895 28.7796 19.6895 29.8096 19.3495C31.5796 18.7495 32.4296 17.5695 32.4096 15.7295C32.4096 15.2395 32.4696 14.6995 32.6096 14.1295C32.7996 13.3595 33.3296 12.9195 34.0896 12.8995C36.0596 12.8495 37.9696 12.8495 39.7696 12.8995C40.5696 12.9195 41.1096 13.3795 41.2796 14.2095C41.4496 15.0095 41.5596 15.8695 41.6096 16.7795C41.6596 17.9195 42.2596 18.6795 43.3796 19.0295C43.4796 19.0595 43.6096 19.1195 43.7396 19.1795C44.0296 19.3195 44.3796 19.4895 44.8096 19.5295C45.2596 19.5795 46.1296 19.5995 46.8096 19.1795C47.3296 18.8695 47.7796 18.4795 48.2196 18.1095C48.4496 17.9095 48.6696 17.7295 48.8896 17.5595C49.6896 16.9395 50.5296 16.9795 51.2496 17.6895C52.5896 18.9895 53.7896 20.1795 54.8996 21.3395C54.8996 21.3395 54.8996 21.3395 54.9196 21.3395C54.9596 21.3895 55.0096 21.4295 55.0496 21.4795C55.7096 22.1595 55.7496 22.9795 55.1696 23.7795C54.9496 24.0695 54.7196 24.3495 54.4696 24.6495L54.3696 24.7695C52.6596 26.8595 52.5996 27.6295 53.9896 29.9695C54.2896 30.4795 54.9096 30.8995 55.5196 31.0095C56.0196 31.0995 56.5196 31.1495 56.9996 31.1995C57.4696 31.2495 57.9196 31.2995 58.3496 31.3795C59.3196 31.5695 59.7896 32.0995 59.8096 33.0795C59.8396 34.8595 59.8396 36.6595 59.8096 38.4395C59.7996 39.3995 59.3796 39.9195 58.4496 40.1095C57.9796 40.1995 57.4896 40.2495 56.9696 40.3095C56.6096 40.3495 56.2496 40.3895 55.8796 40.4395C54.8296 40.5995 53.8796 41.4295 53.4096 42.6095C52.9296 43.8195 53.0496 45.0995 53.7196 45.9595C53.9396 46.2395 54.1596 46.5095 54.3796 46.7795C54.6296 47.0895 54.8696 47.3695 55.0996 47.6695C55.7696 48.5395 55.7296 49.3395 54.9796 50.1195C53.6396 51.4795 52.4296 52.6995 51.2496 53.8395C50.3396 54.7295 49.4496 54.3995 48.8696 53.9695C48.7896 53.8995 48.6996 53.8395 48.6096 53.7795C48.3796 53.6095 48.1596 53.4495 48.0196 53.2895C46.7396 51.7595 45.1496 51.4995 43.2896 52.5195C42.6196 52.8795 41.6196 53.4295 41.5796 54.8795C41.5496 55.6695 41.4496 56.4895 41.2696 57.3095C41.0896 58.1895 40.5696 58.6095 39.6496 58.6395C39.0196 58.6595 38.3696 58.6595 37.7296 58.6495H36.0296C35.4396 58.6495 34.8796 58.6495 34.3096 58.6395C33.2396 58.6095 32.7296 58.1795 32.5296 57.1395C32.4696 56.7995 32.4396 56.4395 32.3996 56.0595C32.3596 55.5395 32.3096 55.0095 32.1796 54.4595C31.9996 53.7195 31.4296 53.0995 30.9596 52.7595C30.2996 52.2995 29.5596 52.0795 29.0496 51.9795C28.5396 51.8795 27.7196 51.8995 27.1196 52.2895C26.6096 52.6195 26.1596 52.9995 25.7196 53.3695C25.4596 53.5795 25.2296 53.7795 24.9796 53.9695C24.1596 54.5995 23.3396 54.5495 22.6096 53.8395C21.3796 52.6395 20.1296 51.3895 18.8896 50.1195H18.8796V50.1295ZM89.9697 89.4295C89.9697 94.0395 86.2197 97.7995 81.5996 97.7995H30.0796C25.4596 97.7995 21.7096 94.0395 21.7096 89.4295V55.7195C23.0796 56.7095 24.7896 56.6695 26.2096 55.5695C26.4896 55.3595 26.7496 55.1395 27.0096 54.9295C27.4296 54.5795 27.8196 54.2595 28.2196 53.9895C28.2896 53.9595 28.4896 53.9295 28.6496 53.9595C29.0896 54.0495 29.4896 54.2095 29.7796 54.4095C30.0096 54.5795 30.1796 54.8295 30.1996 54.9395C30.2996 55.3395 30.3396 55.7795 30.3796 56.2395C30.4196 56.6495 30.4596 57.0695 30.5396 57.4995C30.8996 59.4895 32.2296 60.6095 34.2496 60.6695C34.8496 60.6895 35.4596 60.6695 36.0396 60.6695H39.7096C41.5696 60.5995 42.8596 59.5295 43.2396 57.7395C43.4496 56.7895 43.5696 55.8495 43.5996 54.9395C43.5996 54.6895 43.5996 54.6495 44.2496 54.2895C45.3796 53.6795 45.8996 53.9195 46.4596 54.5895C46.7496 54.9495 47.1096 55.1995 47.4196 55.4295C47.4996 55.4795 47.5696 55.5295 47.6496 55.5895C49.2896 56.8195 51.2096 56.7095 52.6596 55.2895C53.8496 54.1395 55.0696 52.9095 56.4196 51.5295C57.8896 50.0195 57.9996 48.1095 56.6996 46.4295C56.4496 46.1095 56.1896 45.7895 55.9396 45.4895C55.7296 45.2295 55.5196 44.9695 55.3096 44.7095C55.0796 44.4295 55.0696 43.8895 55.2796 43.3595C55.4796 42.8695 55.8396 42.4995 56.1696 42.4495C56.4996 42.3995 56.8196 42.3695 57.1696 42.3295C57.7196 42.2695 58.2796 42.2095 58.8396 42.0995C60.7096 41.7195 61.7996 40.3895 61.8296 38.4795C61.8596 36.6695 61.8596 34.8395 61.8296 33.0395C61.7996 31.1095 60.6296 29.7495 58.7196 29.3895C58.2096 29.2895 57.6996 29.2395 57.2096 29.1895C56.7496 29.1395 56.3096 29.0895 55.8896 29.0095C55.8396 28.9995 55.7596 28.9495 55.7196 28.9095C55.3796 28.3395 55.0196 27.7095 55.0496 27.4195C55.0696 27.1395 55.4996 26.5995 55.9396 26.0595L56.0496 25.9295C56.2896 25.6195 56.5496 25.3095 56.7996 24.9795C57.5696 23.9295 57.7796 22.7295 57.4496 21.6295H81.6096C86.2297 21.6295 89.9797 25.3895 89.9797 29.9995V89.4295H89.9697Z" fill="#272729"/>
</svg>
