<svg width="111" height="111" viewBox="0 0 111 111" fill="none" xmlns="http://www.w3.org/2000/svg">
<path d="M67.8298 51.8102C67.8298 55.4302 66.0098 58.7602 62.9698 60.7302C61.3498 61.7902 60.3298 63.5402 59.8798 66.0702H57.7398V56.0302C59.6098 55.5302 60.9898 53.8302 60.9898 51.8102C60.9898 49.4002 59.0198 47.4402 56.6098 47.4402C54.1998 47.4402 52.2398 49.4002 52.2398 51.8102C52.2398 53.8902 53.6998 55.6302 55.6498 56.0702V66.0702H53.4998C53.0598 63.5402 52.0398 61.7902 50.4198 60.7302C47.3698 58.7602 45.5598 55.4302 45.5598 51.8102H45.5498C45.5498 45.7502 50.3398 41.1802 56.6898 41.1802C63.0398 41.1802 67.8298 45.7502 67.8298 51.8102Z" fill="#FFD500"/>
<path d="M36.1796 91.83L38.4596 95.84L35.1196 98.97L31.2696 96.43C31.0996 96.32 30.8996 96.25 30.6896 96.25H30.5796C30.0896 96.25 29.6596 96.59 29.5496 97.06L28.4696 101.55H23.8896L22.8096 97.06C22.7296 96.72 22.4896 96.45 22.1696 96.32C21.8496 96.19 21.4896 96.23 21.1996 96.42L17.3496 98.96L14.0096 95.83L16.2896 91.82C16.4796 91.49 16.4696 91.09 16.2896 90.77C16.1396 90.51 15.8896 90.33 15.6096 90.27L11.1396 89.19V84.61L15.5996 83.54C15.8896 83.48 16.1396 83.3 16.2896 83.04C16.4796 82.72 16.4796 82.31 16.2896 81.99L14.0096 77.98L17.3496 74.85L21.1996 77.39C21.3696 77.5 21.5696 77.57 21.7796 77.57H21.8896C22.3796 77.57 22.8096 77.23 22.9196 76.76L23.9996 72.27H28.5796L29.6596 76.76C29.7396 77.1 29.9796 77.37 30.2996 77.5C30.6196 77.63 30.9796 77.59 31.2696 77.4L35.1196 74.86L38.4596 77.99L36.1796 82C35.9896 82.33 35.9996 82.73 36.1796 83.05C36.3296 83.31 36.5796 83.49 36.8596 83.55L41.3297 84.62V89.2L36.8696 90.28C36.5796 90.34 36.3196 90.52 36.1696 90.78C35.9796 91.1 35.9796 91.51 36.1696 91.83H36.1796Z" fill="#FFD500"/>
<path d="M101.89 24.4601V29.0401H101.88L97.3899 30.1101C97.0699 30.1901 96.7999 30.4101 96.6599 30.7201C96.5299 31.0301 96.5499 31.3801 96.7099 31.6601L98.9899 35.6701L95.6499 38.8001L91.7999 36.2601C91.6299 36.1501 91.4299 36.0801 91.2199 36.0801H91.1099C90.6199 36.0801 90.1899 36.4201 90.0799 36.8901L88.9999 41.3801H84.4199L83.3399 36.8901C83.2599 36.5501 83.0199 36.2801 82.6999 36.1501C82.3799 36.0201 82.0199 36.0601 81.7299 36.2501L77.8799 38.7901L74.5399 35.6601L76.8199 31.6501C77.0099 31.3201 76.9999 30.9201 76.8199 30.6001C76.6699 30.3401 76.4199 30.1601 76.1399 30.1001L71.6699 29.0201V24.4401L76.1299 23.3701C76.4199 23.3101 76.6799 23.1301 76.8299 22.8701C77.0199 22.5501 77.0199 22.1401 76.8299 21.8201L74.5499 17.8101L77.8899 14.6801L81.7399 17.2201C81.9099 17.3301 82.1099 17.4001 82.3199 17.4001H82.4299C82.9199 17.4001 83.3499 17.0601 83.4599 16.5901L84.5399 12.1001H89.1199L90.1999 16.5901C90.2799 16.9301 90.5199 17.2001 90.8399 17.3301C91.1599 17.4601 91.5199 17.4201 91.8099 17.2301L95.6599 14.6901L98.9999 17.8201L96.7199 21.8301C96.5599 22.1201 96.5399 22.4701 96.6699 22.7701C96.7999 23.0801 97.0699 23.3001 97.3999 23.3801L101.89 24.4601Z" fill="#FFD500"/>
<path d="M56.6899 38.52C48.8199 38.52 42.8799 44.23 42.8799 51.81C42.8799 56.34 45.1499 60.52 48.9599 62.98C49.8699 63.57 50.4599 64.6 50.7899 66.17V70.11C50.7899 72.74 52.9299 74.88 55.5599 74.88H57.8199C60.4599 74.88 62.5899 72.74 62.5899 70.11V66.14C62.9199 64.59 63.5099 63.57 64.4199 62.98C68.2299 60.51 70.4999 56.34 70.4999 51.81C70.4999 44.23 64.5599 38.52 56.6899 38.52ZM59.9299 70.11H59.9199C59.9199 71.27 58.9799 72.21 57.8199 72.21H55.5699C54.4099 72.21 53.4699 71.26 53.4699 70.11V68.74H59.9299V70.11ZM62.9699 60.73C61.3499 61.79 60.3299 63.54 59.8799 66.07H57.7399V56.03C59.6099 55.53 60.9899 53.83 60.9899 51.81C60.9899 49.4 59.0199 47.44 56.6099 47.44C54.1999 47.44 52.2399 49.4 52.2399 51.81C52.2399 53.89 53.6999 55.63 55.6499 56.07V66.07H53.4999C53.0599 63.54 52.0399 61.79 50.4199 60.73C47.3699 58.76 45.5599 55.43 45.5599 51.81H45.5499C45.5499 45.75 50.3399 41.18 56.6899 41.18C63.0399 41.18 67.8299 45.75 67.8299 51.81C67.8299 55.43 66.0099 58.76 62.9699 60.73ZM56.6099 54.08C55.3599 54.08 54.3399 53.06 54.3399 51.81C54.3399 50.56 55.3599 49.53 56.6099 49.53C57.8599 49.53 58.8899 50.55 58.8899 51.81C58.8899 53.07 57.8699 54.08 56.6099 54.08Z" fill="#272729"/>
<path d="M59.9284 51.8123C59.9284 53.6474 58.4429 55.1184 56.6078 55.1184C54.7727 55.1184 53.3018 53.6328 53.3018 51.8123C53.3018 49.9918 54.7873 48.4917 56.6078 48.4917C58.4283 48.4917 59.9284 49.9772 59.9284 51.8123Z" fill="#F5370D"/>
<path d="M59.9197 68.74V70.11C59.9197 71.27 58.9797 72.21 57.8197 72.21H55.5697C54.4097 72.21 53.4697 71.26 53.4697 70.11V68.74H59.9197Z" fill="#FDE25A"/>
<path d="M89.5402 51.1801C88.9602 50.3501 88.0002 49.8501 86.9802 49.8501C85.9602 49.8501 85.0102 50.3501 84.4202 51.1801L75.8802 63.3301C75.2002 64.2901 75.1202 65.5301 75.6602 66.5701C76.2002 67.6101 77.2602 68.2601 78.4402 68.2601H81.1602V80.8901H55.2002V83.5601H83.8302V65.5801H78.4402C78.2002 65.5801 78.0802 65.4301 78.0402 65.3301C77.9902 65.2401 77.9302 65.0601 78.0702 64.8601L86.6102 52.7101C86.7302 52.5401 86.9002 52.5201 86.9802 52.5201C87.0602 52.5201 87.2402 52.5501 87.3502 52.7101L95.8902 64.8601C96.0302 65.0601 95.9702 65.2401 95.9202 65.3301C95.8702 65.4201 95.7602 65.5801 95.5202 65.5801H90.1302V83.8601C90.1302 87.4201 87.2402 90.3101 83.6802 90.3101H55.3002V92.9801H83.6802C88.7102 92.9801 92.8002 88.8901 92.8002 83.8601V68.2501H95.5202C96.6902 68.2501 97.7602 67.6001 98.3002 66.5601C98.8402 65.5201 98.7602 64.2801 98.0802 63.3201L89.5402 51.1701V51.1801Z" fill="#272729"/>
<path d="M26.15 79.55C22.07 79.55 18.75 82.87 18.75 86.95C18.75 91.03 22.07 94.35 26.15 94.35C30.23 94.35 33.55 91.03 33.55 86.95C33.55 82.87 30.23 79.55 26.15 79.55Z" fill="#272729"/>
<path d="M26.1502 91.44C28.6299 91.44 30.6402 89.4297 30.6402 86.95C30.6402 84.4702 28.6299 82.46 26.1502 82.46C23.6704 82.46 21.6602 84.4702 21.6602 86.95C21.6602 89.4297 23.6704 91.44 26.1502 91.44Z" fill="white"/>
<path d="M42.65 82.7702L38.72 81.8302L40.72 78.3202C40.96 77.8902 40.88 77.3602 40.52 77.0302L35.96 72.7602C35.6 72.4202 35.06 72.3802 34.65 72.6502L31.36 74.8202L30.44 70.9902C30.33 70.5102 29.9 70.1802 29.41 70.1802H23.16C22.67 70.1802 22.24 70.5202 22.13 70.9902L21.19 74.8802L17.81 72.6502C17.4 72.3802 16.86 72.4302 16.5 72.7602L11.94 77.0302C11.58 77.3702 11.5 77.9002 11.74 78.3202L13.74 81.8302L9.81 82.7702C9.33 82.8802 9 83.3102 9 83.8002V90.0502C9 90.5402 9.34 90.9702 9.81 91.0802L13.74 92.0202L11.74 95.5302C11.5 95.9602 11.58 96.4902 11.94 96.8202L16.5 101.09C16.86 101.43 17.4 101.47 17.81 101.2L21.1 99.0302L22.02 102.86C22.13 103.34 22.56 103.67 23.05 103.67H29.3C29.79 103.67 30.22 103.33 30.33 102.86L31.27 98.9702L34.65 101.2C35.06 101.47 35.6 101.42 35.96 101.09L40.52 96.8202C40.88 96.4802 40.96 95.9502 40.72 95.5302L38.72 92.0202L42.65 91.0802C43.13 90.9702 43.46 90.5402 43.46 90.0502V83.8002C43.46 83.3102 43.12 82.8802 42.65 82.7702ZM36.88 90.2802C36.59 90.3402 36.33 90.5202 36.18 90.7802C35.99 91.1002 35.99 91.5102 36.18 91.8302L38.46 95.8402L35.12 98.9702L31.27 96.4302C31.1 96.3202 30.9 96.2502 30.69 96.2502H30.58C30.09 96.2502 29.66 96.5902 29.55 97.0602L28.47 101.55H23.89L22.81 97.0602C22.73 96.7202 22.49 96.4502 22.17 96.3202C21.85 96.1902 21.49 96.2302 21.2 96.4202L17.35 98.9602L14.01 95.8302L16.29 91.8202C16.48 91.4902 16.47 91.0902 16.29 90.7702C16.14 90.5102 15.89 90.3302 15.61 90.2702L11.14 89.1902V84.6102L15.6 83.5402C15.89 83.4802 16.14 83.3002 16.29 83.0402C16.48 82.7202 16.48 82.3102 16.29 81.9902L14.01 77.9802L17.35 74.8502L21.2 77.3902C21.37 77.5002 21.57 77.5702 21.78 77.5702H21.89C22.38 77.5702 22.81 77.2302 22.92 76.7602L24 72.2702H28.58L29.66 76.7602C29.74 77.1002 29.98 77.3702 30.3 77.5002C30.62 77.6302 30.98 77.5902 31.27 77.4002L35.12 74.8602L38.46 77.9902L36.18 82.0002C35.99 82.3302 36 82.7302 36.18 83.0502C36.33 83.3102 36.58 83.4902 36.86 83.5502L41.33 84.6202V89.2002L36.87 90.2802H36.88Z" fill="#272729"/>
<path d="M52.0398 90.3398H49.0498V93.0098H52.0398V90.3398Z" fill="#272729"/>
<path d="M23.4601 62.4902C24.0401 63.3202 25.0001 63.8202 26.0201 63.8202C27.0401 63.8202 27.9901 63.3202 28.5801 62.4902L37.1201 50.3402C37.8001 49.3802 37.8801 48.1402 37.3401 47.1002C36.8001 46.0602 35.7401 45.4102 34.5601 45.4102H31.8401V32.7802H57.7901V30.1102H29.1701V48.0902H34.5601C34.8001 48.0902 34.9201 48.2402 34.9601 48.3402C35.0101 48.4302 35.0701 48.6102 34.9301 48.8102L26.3901 60.9602C26.2701 61.1302 26.1001 61.1502 26.0201 61.1502C25.9401 61.1502 25.7601 61.1202 25.6501 60.9602L17.1101 48.8102C16.9701 48.6102 17.0301 48.4302 17.0801 48.3402C17.1301 48.2502 17.2401 48.0902 17.4801 48.0902H22.8701V29.8002C22.8701 26.2402 25.7601 23.3502 29.3201 23.3502H57.7001V20.6802H29.3201C24.2901 20.6802 20.2001 24.7702 20.2001 29.8002V45.4102H17.4801C16.3101 45.4102 15.2401 46.0602 14.7001 47.1002C14.1601 48.1402 14.2401 49.3802 14.9201 50.3402L23.4601 62.4902Z" fill="#272729"/>
<path d="M86.8502 19.3101C82.7702 19.3101 79.4502 22.6301 79.4502 26.7101C79.4502 30.7901 82.7702 34.1101 86.8502 34.1101C90.9302 34.1101 94.2502 30.7901 94.2502 26.7101C94.2502 22.6301 90.9302 19.3101 86.8502 19.3101ZM86.8502 31.2001C84.3702 31.2001 82.3602 29.1801 82.3602 26.7101C82.3602 24.2401 84.3802 22.2201 86.8502 22.2201C89.3202 22.2201 91.3402 24.2401 91.3402 26.7101C91.3402 29.1801 89.3202 31.2001 86.8502 31.2001Z" fill="#272729"/>
<path d="M88.5671 30.8543C90.8581 29.9054 91.9461 27.2788 90.9971 24.9878C90.0481 22.6968 87.4216 21.6089 85.1306 22.5579C82.8396 23.5068 81.7517 26.1333 82.7007 28.4243C83.6496 30.7153 86.2761 31.8033 88.5671 30.8543Z" fill="white"/>
<path d="M103.19 22.59L99.26 21.65L101.26 18.14C101.5 17.71 101.42 17.18 101.06 16.85L96.5 12.58C96.14 12.24 95.6 12.2 95.19 12.47L91.9 14.64L90.98 10.81C90.87 10.33 90.44 10 89.95 10H83.7C83.21 10 82.78 10.34 82.67 10.81L81.73 14.7L78.35 12.47C77.94 12.2 77.4 12.25 77.04 12.58L72.48 16.85C72.12 17.19 72.04 17.72 72.28 18.14L74.28 21.65L70.35 22.59C69.87 22.7 69.54 23.13 69.54 23.62V29.87C69.54 30.36 69.88 30.79 70.35 30.9L74.28 31.84L72.28 35.35C72.04 35.78 72.12 36.31 72.48 36.64L77.04 40.91C77.4 41.25 77.94 41.29 78.35 41.02L81.64 38.85L82.56 42.68C82.67 43.16 83.1 43.49 83.59 43.49H89.84C90.33 43.49 90.76 43.15 90.87 42.68L91.81 38.79L95.19 41.02C95.6 41.29 96.14 41.25 96.5 40.91L101.06 36.64C101.42 36.3 101.5 35.77 101.26 35.35L99.26 31.84L103.19 30.9C103.67 30.79 104 30.36 104 29.87V23.62C104 23.13 103.66 22.7 103.19 22.59ZM101.89 29.04H101.88L97.39 30.11C97.07 30.19 96.8 30.41 96.66 30.72C96.53 31.03 96.55 31.38 96.71 31.66L98.99 35.67L95.65 38.8L91.8 36.26C91.63 36.15 91.43 36.08 91.22 36.08H91.11C90.62 36.08 90.19 36.42 90.08 36.89L89 41.38H84.42L83.34 36.89C83.26 36.55 83.02 36.28 82.7 36.15C82.38 36.02 82.02 36.06 81.73 36.25L77.88 38.79L74.54 35.66L76.82 31.65C77.01 31.32 77 30.92 76.82 30.6C76.67 30.34 76.42 30.16 76.14 30.1L71.67 29.02V24.44L76.13 23.37C76.42 23.31 76.68 23.13 76.83 22.87C77.02 22.55 77.02 22.14 76.83 21.82L74.55 17.81L77.89 14.68L81.74 17.22C81.91 17.33 82.11 17.4 82.32 17.4H82.43C82.92 17.4 83.35 17.06 83.46 16.59L84.54 12.1H89.12L90.2 16.59C90.28 16.93 90.52 17.2 90.84 17.33C91.16 17.46 91.52 17.42 91.81 17.23L95.66 14.69L99 17.82L96.72 21.83C96.56 22.12 96.54 22.47 96.67 22.77C96.8 23.08 97.07 23.3 97.4 23.38L101.89 24.46V29.04Z" fill="#272729"/>
<path d="M63.9402 20.6499H60.9502V23.3199H63.9402V20.6499Z" fill="#272729"/>
</svg>
