<svg width="140" height="107" viewBox="0 0 140 107" fill="none" xmlns="http://www.w3.org/2000/svg">
<path d="M70.0328 79.7964H43.0156V45.7134C43.0156 45.0352 42.4657 44.4853 41.7876 44.4853H36.2797L66.7885 15.067L78.3817 24.8181C78.7483 25.1297 79.2615 25.1939 79.6923 24.9923C80.123 24.7906 80.3979 24.3599 80.3979 23.8742V14.6454H90.0849V37.0437C90.0849 37.3736 90.2132 37.6852 90.4423 37.9143L97.3707 44.8519H95.0154C94.3372 44.8519 93.7874 45.4018 93.7874 46.0799V49.1684C93.7874 49.8466 94.3372 50.3965 95.0154 50.3965C95.6936 50.3965 96.2435 49.8466 96.2435 49.1684V47.3172H100.34C100.835 47.3172 101.284 47.0147 101.476 46.5565C101.669 46.0983 101.559 45.5667 101.211 45.2185L92.541 36.5488V13.4082C92.541 12.7301 91.9911 12.1802 91.3129 12.1802H79.1699C78.4917 12.1802 77.9418 12.7301 77.9418 13.4082V21.2348L67.5217 12.4734C67.036 12.0702 66.3303 12.0977 65.8812 12.5284L32.3755 44.8244C32.0181 45.1727 31.899 45.7042 32.0914 46.1716C32.2747 46.639 32.733 46.9414 33.237 46.9414H40.5595V81.0153C40.5595 81.6935 41.1094 82.2434 41.7876 82.2434H70.0328C70.711 82.2434 71.2608 81.6935 71.2608 81.0153C71.2608 80.3371 70.711 79.7873 70.0328 79.7873V79.7964Z" fill="#272729"/>
<path d="M77.2272 52.0825C77.9054 52.0825 78.4552 51.5326 78.4552 50.8544V48.6458C78.4552 47.9676 77.9054 47.4177 77.2272 47.4177H56.4419C55.7637 47.4177 55.2139 47.9676 55.2139 48.6458V69.431C55.2139 70.1092 55.7637 70.6591 56.4419 70.6591H69.8405C70.5187 70.6591 71.0686 70.1092 71.0686 69.431C71.0686 68.7529 70.5187 68.203 69.8405 68.203H57.67V49.8738H75.9991V50.8544C75.9991 51.5326 76.549 52.0825 77.2272 52.0825Z" fill="#272729"/>
<path d="M99.8732 57.7646H97.2246C97.2338 57.7096 97.2429 57.6455 97.2429 57.5905V54.9694C97.2429 54.2912 96.6931 53.7414 96.0149 53.7414H93.3846C92.9631 52.0734 91.2126 50.8179 89.114 50.8179C87.0153 50.8179 85.2648 52.0643 84.8433 53.7414H82.1214C81.4432 53.7414 80.8933 54.2912 80.8933 54.9694V57.5905C80.8933 57.6455 80.9025 57.7005 80.9117 57.7646H76.9434C74.5331 57.7646 72.5811 59.7258 72.5811 62.1361V90.5555C72.5811 92.9658 74.5331 94.927 76.9434 94.927H99.8732C102.283 94.927 104.245 92.9658 104.245 90.5555V62.1361C104.245 59.7258 102.283 57.7646 99.8732 57.7646ZM83.3494 57.5905V56.1975H86.0438C86.0438 56.1975 86.1263 56.1975 86.1721 56.1883C86.2088 56.1883 86.2546 56.1883 86.2913 56.17H86.3096C86.3096 56.17 86.3646 56.1517 86.3921 56.1425C86.4379 56.1333 86.4837 56.115 86.5295 56.0967C86.5662 56.0875 86.5937 56.06 86.6304 56.0417C86.667 56.0234 86.7037 56.005 86.7403 55.9867C86.7678 55.9592 86.7953 55.9317 86.832 55.9042C86.8595 55.8767 86.887 55.8584 86.9145 55.8309C86.9419 55.8034 86.9694 55.7667 86.9878 55.7301C87.0153 55.7026 87.0428 55.6751 87.0611 55.6384C87.0794 55.6109 87.0977 55.5743 87.1161 55.5376C87.1344 55.501 87.1619 55.4735 87.1711 55.4368C87.1894 55.4002 87.1986 55.3543 87.2077 55.3177C87.2169 55.281 87.2352 55.2444 87.2352 55.2077C87.2444 55.1527 87.2444 55.1069 87.2535 55.0611C87.2535 55.0336 87.2627 55.0061 87.2627 54.9786V54.9603C87.2627 54.9603 87.2535 54.8778 87.2444 54.832C87.2444 54.7953 87.2352 54.7495 87.2352 54.7128V54.6945C87.2169 54.6395 87.2077 54.5845 87.2077 54.5204C87.2077 53.9338 87.9959 53.274 89.114 53.274C90.232 53.274 91.0294 53.9338 91.0294 54.5204C91.0294 54.5753 91.0202 54.6395 91.0019 54.6945V54.7128C91.0019 54.7128 90.9927 54.7953 90.9927 54.832C90.9835 54.8778 90.9744 54.9144 90.9744 54.9603V54.9786C90.9744 54.9786 90.9835 55.0336 90.9835 55.0611C90.9835 55.1069 90.9927 55.1527 91.0019 55.2077C91.0019 55.2444 91.0202 55.281 91.0294 55.3177C91.0385 55.3543 91.0477 55.4002 91.066 55.4368C91.0752 55.4735 91.1027 55.501 91.121 55.5376C91.1393 55.5743 91.1577 55.6109 91.176 55.6384C91.1943 55.6751 91.2218 55.7026 91.2401 55.7301C91.2676 55.7667 91.2951 55.7942 91.3226 55.8309C91.3501 55.8584 91.3776 55.8767 91.4051 55.9042C91.4418 55.9317 91.4692 55.9592 91.4967 55.9867C91.5334 56.005 91.5701 56.0234 91.6067 56.0417C91.6434 56.06 91.6709 56.0783 91.7075 56.0967C91.7534 56.115 91.7992 56.1333 91.845 56.1425C91.8725 56.1517 91.9 56.17 91.9275 56.17H91.9458C92.0283 56.1883 92.1016 56.1975 92.1933 56.1975H94.7868V57.5905C94.7868 57.6455 94.8052 57.7005 94.8052 57.7646H83.3403C83.3494 57.7096 83.3586 57.6455 83.3586 57.5905H83.3494ZM101.789 90.5555C101.789 91.6094 100.927 92.4617 99.8732 92.4617H76.9526C75.8986 92.4617 75.0372 91.6094 75.0372 90.5555V62.1361C75.0372 61.0822 75.8986 60.2207 76.9526 60.2207H99.8823C100.936 60.2207 101.789 61.0822 101.789 62.1361V90.5555Z" fill="#272729"/>
<path d="M101.789 62.1363V90.5557C101.789 91.6096 100.927 92.4619 99.8731 92.4619H76.9525C75.8986 92.4619 75.0371 91.6096 75.0371 90.5557V62.1363C75.0371 61.0824 75.8986 60.2209 76.9525 60.2209H99.8823C100.936 60.2209 101.789 61.0824 101.789 62.1363Z" fill="#FFD500"/>
<path d="M80.2233 73.1519C79.8109 73.1519 79.4077 72.9961 79.0961 72.7212L76.9332 70.7691C76.5942 70.4667 76.4017 70.0543 76.3742 69.6052C76.3467 69.1562 76.5025 68.7254 76.8049 68.3864C77.1257 68.0289 77.5839 67.8273 78.0605 67.8273C78.4729 67.8273 78.8761 67.9831 79.1877 68.2581L80.1867 69.1653L83.2843 66.2052C83.5959 65.9028 84.0175 65.7378 84.4482 65.7378C84.9064 65.7378 85.3555 65.9302 85.6671 66.2602C85.9787 66.5901 86.1436 67.0117 86.1345 67.4699C86.1253 67.919 85.942 68.3405 85.6121 68.6521L81.3781 72.6937C81.0665 72.987 80.6449 73.1611 80.2142 73.1611L80.2233 73.1519Z" fill="#F5370D"/>
<path d="M84.4576 66.1868C84.7784 66.1868 85.1083 66.3151 85.3466 66.5717C85.814 67.0666 85.7956 67.8456 85.3099 68.313L81.0759 72.3546C80.8376 72.5837 80.5169 72.6937 80.2236 72.6937C79.9303 72.6937 79.6371 72.5837 79.3988 72.3729L77.2359 70.4209C76.7319 69.9718 76.6952 69.1928 77.1443 68.6888C77.3826 68.423 77.7217 68.2855 78.0607 68.2855C78.354 68.2855 78.6473 68.3863 78.8856 68.5971L80.2053 69.7885L83.6145 66.5351C83.8528 66.306 84.1644 66.196 84.4668 66.196M84.4668 65.2795C83.9077 65.2795 83.3854 65.4903 82.9821 65.8752L80.1869 68.5421L79.4996 67.9281C79.1055 67.5707 78.5923 67.3782 78.0607 67.3782C77.4559 67.3782 76.8694 67.6348 76.4661 68.0931C75.678 68.9729 75.7513 70.3384 76.6311 71.1265L78.7939 73.0786C79.188 73.436 79.7012 73.6285 80.2328 73.6285C80.7643 73.6285 81.3233 73.4085 81.7174 73.0328L85.9514 68.9912C86.3639 68.5971 86.6021 68.0656 86.6113 67.4882C86.6205 66.9108 86.4097 66.3701 86.0156 65.9486C85.6124 65.527 85.0533 65.2887 84.4668 65.2887V65.2795Z" fill="#272729"/>
<path d="M80.2243 81.4735C79.8119 81.4735 79.4087 81.3177 79.0971 81.0427L76.9342 79.0907C76.2469 78.4675 76.1827 77.4044 76.8059 76.7079C77.1267 76.3505 77.5849 76.1489 78.0615 76.1489C78.483 76.1489 78.8771 76.3046 79.1887 76.5796L80.1877 77.4869L83.2853 74.5267C83.606 74.2243 84.0184 74.0593 84.4492 74.0593C84.9074 74.0593 85.3565 74.2518 85.6681 74.5817C85.9797 74.9116 86.1446 75.3332 86.1355 75.7914C86.1263 76.2405 85.943 76.6621 85.6131 76.9737L81.379 81.0152C81.0675 81.3085 80.6459 81.4826 80.2151 81.4826L80.2243 81.4735Z" fill="#F5370D"/>
<path d="M84.458 74.5083C84.7788 74.5083 85.1087 74.6366 85.347 74.8932C85.8144 75.3881 85.7961 76.167 85.3103 76.6344L81.0763 80.676C80.838 80.9051 80.5173 81.0151 80.224 81.0151C79.9307 81.0151 79.6375 80.9051 79.3992 80.6943L77.2363 78.7423C76.7323 78.2932 76.6956 77.5142 77.1447 77.0102C77.383 76.7444 77.7221 76.6069 78.0612 76.6069C78.3544 76.6069 78.6477 76.7078 78.886 76.9185L80.2057 78.1099L83.6149 74.8565C83.8532 74.6274 84.1648 74.5083 84.4672 74.5083M84.4672 73.5918C83.9082 73.5918 83.3858 73.8026 82.9825 74.1875L82.6984 74.4624L80.1873 76.8636L79.5 76.2404C79.1059 75.8829 78.5927 75.6905 78.0612 75.6905C77.4563 75.6905 76.8698 75.9471 76.4665 76.4053C76.0816 76.8361 75.8892 77.3768 75.9166 77.9541C75.9441 78.5315 76.2007 79.0539 76.6223 79.4388L78.7852 81.3908C79.1792 81.7483 79.6925 81.9407 80.224 81.9407C80.7555 81.9407 81.3146 81.7208 81.7087 81.345L85.9427 77.3034C86.3551 76.9094 86.5934 76.3778 86.6025 75.8005C86.6117 75.2231 86.4009 74.6824 86.0068 74.2608C85.6036 73.8392 85.0446 73.601 84.458 73.601L84.4672 73.5918Z" fill="#272729"/>
<path d="M80.2233 89.5933C79.8109 89.5933 79.4077 89.4375 79.0961 89.1626L76.9332 87.2106C76.2459 86.5965 76.1818 85.5243 76.8049 84.8278C77.1257 84.4703 77.5839 84.2687 78.0605 84.2687C78.4729 84.2687 78.8761 84.4245 79.1877 84.6995L80.1867 85.6068L83.2843 82.6466C83.5959 82.3442 84.0175 82.1792 84.4482 82.1792C84.9064 82.1792 85.3555 82.3717 85.6671 82.7016C85.9787 83.0315 86.1437 83.4622 86.1345 83.9113C86.1253 84.3604 85.942 84.7819 85.6121 85.0935L81.3781 89.1351C81.0665 89.4284 80.6449 89.6025 80.2142 89.6025L80.2233 89.5933Z" fill="#F5370D"/>
<path d="M84.4576 82.6285C84.7784 82.6285 85.1083 82.7568 85.3466 83.0134C85.814 83.5083 85.7956 84.2873 85.3099 84.7547L81.0759 88.7962C80.8376 89.0254 80.5169 89.1353 80.2236 89.1353C79.9303 89.1353 79.6371 89.0254 79.3988 88.8146L77.2359 86.8625C76.7319 86.4135 76.6952 85.6345 77.1443 85.1304C77.3826 84.8646 77.7217 84.7272 78.0607 84.7272C78.354 84.7272 78.6473 84.828 78.8856 85.0388L80.2053 86.2302L83.6145 82.9767C83.8528 82.7476 84.1644 82.6376 84.4668 82.6376M84.4668 81.7212C83.9077 81.7212 83.3854 81.932 82.9821 82.3169L80.1869 84.9838L79.4996 84.3698C79.1055 84.0123 78.5923 83.8199 78.0607 83.8199C77.4559 83.8199 76.8694 84.0765 76.4661 84.5347C75.678 85.4145 75.7513 86.78 76.6311 87.5682L78.7939 89.5202C79.188 89.8777 79.7012 90.0701 80.2328 90.0701C80.7643 90.0701 81.3233 89.8502 81.7174 89.4744L85.9514 85.4328C86.3639 85.0388 86.6021 84.5072 86.6113 83.9299C86.6205 83.3525 86.4097 82.8118 86.0156 82.3902C85.6124 81.9686 85.0533 81.7304 84.4668 81.7304V81.7212Z" fill="#272729"/>
<path d="M89.489 70.5037C88.5542 70.5037 87.8027 69.743 87.8027 68.8174C87.8027 67.8918 88.5634 67.1311 89.489 67.1311H99.0018C99.9366 67.1311 100.688 67.8918 100.688 68.8174C100.688 69.743 99.9275 70.5037 99.0018 70.5037H89.489Z" fill="#F5370D"/>
<path d="M99.0021 67.5803C99.6802 67.5803 100.23 68.1302 100.23 68.8083C100.23 69.4865 99.6802 70.0364 99.0021 70.0364H89.4892C88.8111 70.0364 88.2612 69.4865 88.2612 68.8083C88.2612 68.1302 88.8111 67.5803 89.4892 67.5803H99.0021ZM99.0021 66.6638H89.4892C88.307 66.6638 87.3447 67.6261 87.3447 68.8083C87.3447 69.9906 88.307 70.9528 89.4892 70.9528H99.0021C100.184 70.9528 101.147 69.9906 101.147 68.8083C101.147 67.6261 100.184 66.6638 99.0021 66.6638Z" fill="#272729"/>
<path d="M89.489 78.7515C88.5542 78.7515 87.8027 77.9908 87.8027 77.0652C87.8027 76.1396 88.5634 75.3789 89.489 75.3789H99.0018C99.9366 75.3789 100.688 76.1396 100.688 77.0652C100.688 77.9908 99.9275 78.7515 99.0018 78.7515H89.489Z" fill="#F5370D"/>
<path d="M99.0021 75.8281C99.6802 75.8281 100.23 76.378 100.23 77.0561C100.23 77.7343 99.6802 78.2842 99.0021 78.2842H89.4892C88.8111 78.2842 88.2612 77.7343 88.2612 77.0561C88.2612 76.378 88.8111 75.8281 89.4892 75.8281H99.0021ZM99.0021 74.9116H89.4892C88.307 74.9116 87.3447 75.8739 87.3447 77.0561C87.3447 78.2384 88.307 79.2006 89.4892 79.2006H99.0021C100.184 79.2006 101.147 78.2384 101.147 77.0561C101.147 75.8739 100.184 74.9116 99.0021 74.9116Z" fill="#272729"/>
<path d="M89.489 86.9907C88.5542 86.9907 87.8027 86.2301 87.8027 85.3045C87.8027 84.3788 88.5634 83.6182 89.489 83.6182H99.0018C99.9366 83.6182 100.688 84.3788 100.688 85.3045C100.688 86.2301 99.9275 86.9907 99.0018 86.9907H89.489Z" fill="#F5370D"/>
<path d="M99.0021 84.0764C99.6802 84.0764 100.23 84.6262 100.23 85.3044C100.23 85.9826 99.6802 86.5325 99.0021 86.5325H89.4892C88.8111 86.5325 88.2612 85.9826 88.2612 85.3044C88.2612 84.6262 88.8111 84.0764 89.4892 84.0764H99.0021ZM99.0021 83.1599H89.4892C88.307 83.1599 87.3447 84.1222 87.3447 85.3044C87.3447 86.4867 88.307 87.4489 89.4892 87.4489H99.0021C100.184 87.4489 101.147 86.4867 101.147 85.3044C101.147 84.1222 100.184 83.1599 99.0021 83.1599Z" fill="#272729"/>
</svg>
