<svg width="130" height="141" viewBox="0 0 130 141" fill="none" xmlns="http://www.w3.org/2000/svg">
<mask id="mask0_1285_2" style="mask-type:luminance" maskUnits="userSpaceOnUse" x="35" y="28" width="95" height="106">
<path d="M129.912 28H35V133.244H129.912V28Z" fill="white"/>
</mask>
<g mask="url(#mask0_1285_2)">
<path d="M129.763 128.136L128.27 123.589C128.022 122.829 127.494 122.219 126.784 121.856C126.495 121.707 126.182 121.608 125.852 121.567L111.038 76.0377C111.864 75.7406 112.318 74.8329 112.037 73.9911L106.285 56.4133C106.153 56.0089 105.856 55.6706 105.468 55.4725C105.08 55.2745 104.643 55.2415 104.222 55.3735L102.877 55.8109C101.73 48.3011 98.5606 41.2122 93.4606 34.7258C90.1266 30.5005 84.977 28 79.5964 28C79.4479 28 79.2911 28 79.1343 28C69.5201 28.2641 64.0735 32.935 62.4808 42.2851V60.49H58.2638V58.1051C58.2638 56.7682 57.3807 55.5963 56.1264 55.2084V50.6531C56.1264 47.4759 53.8239 44.736 50.7705 44.2822C48.7982 43.9851 46.768 44.6453 45.3569 46.0564C44.1685 47.2448 43.5083 48.8375 43.5083 50.521V60.4983H43.0297C38.7384 60.5065 35.2228 63.8736 35.0083 68.0988C35 68.2391 35 68.3712 35 68.5115V125.214C35 125.355 35 125.487 35.0083 125.627C35.2228 129.86 38.7384 133.236 43.0214 133.236H83.7639C88.1708 133.236 91.7688 129.638 91.7688 125.214V68.5032C91.7688 64.0881 88.1708 60.4983 83.7639 60.4983H82.7076V56.7847C82.7076 56.0419 82.1052 55.4395 81.3625 55.4395H81.0489V46.0482H87.3868C88.0387 46.0482 88.5669 45.52 88.5669 44.8681V40.0074C88.5669 39.3554 88.0387 38.8273 87.3868 38.8273H67.4488C66.7886 38.8273 66.2604 39.3554 66.2604 40.0074V44.8681C66.2604 45.52 66.7968 46.0482 67.4488 46.0482H74.2488V55.4395H73.7702C73.0275 55.4395 72.4168 56.0419 72.4168 56.7847V60.4983H64.3046V42.5161C65.7405 34.2224 70.6095 30.0714 79.1755 29.8403C84.1353 29.7 88.93 31.9612 92.0082 35.8646C96.9844 42.1778 100.046 49.0851 101.102 56.3886L99.7903 56.8259C99.3694 56.958 99.0393 57.2468 98.8412 57.6429C98.6432 58.0308 98.6101 58.4682 98.7422 58.8808L104.494 76.4586C104.717 77.1353 105.344 77.5809 106.054 77.5809C106.169 77.5809 106.293 77.5644 106.409 77.5397L121.28 123.217C121.131 123.39 121.007 123.58 120.908 123.778C120.545 124.496 120.487 125.297 120.735 126.056L122.229 130.603C122.476 131.362 123.005 131.973 123.714 132.336C124.127 132.551 124.597 132.658 125.059 132.658C125.373 132.658 125.687 132.609 125.984 132.509L127.857 131.891C128.608 131.643 129.227 131.115 129.582 130.405C129.945 129.704 130.003 128.895 129.763 128.136ZM55.2268 56.925C55.8788 56.925 56.4152 57.4614 56.4152 58.1133V60.5065H54.0302V58.1133C54.0302 57.4614 54.5749 56.925 55.2268 56.925ZM45.3321 50.5375C45.3321 49.3409 45.8025 48.2186 46.6525 47.3686C47.6511 46.3618 49.087 45.8914 50.4899 46.106C52.6521 46.4278 54.2778 48.3919 54.2778 50.6696V55.2415C53.0564 55.6458 52.1982 56.8094 52.1982 58.1133V60.5065H45.3321V50.5375ZM89.9368 125.223C89.9368 128.631 87.1722 131.404 83.7639 131.404H43.0297C39.6214 131.404 36.8403 128.631 36.8403 125.223V119.85H89.9368V125.223ZM89.9368 118.01H36.8403V111.87H89.9368V118.01ZM89.9368 110.038H36.8403V84.6038H89.9368V110.038ZM89.9368 82.7635H36.8403V76.6236H89.9368V82.7635ZM68.1007 44.2161V40.6676H86.7348V44.2161H68.1007ZM80.8756 57.2798V60.5065H74.2571V57.2798H80.8756ZM76.0891 55.4395V46.0564H79.2168V55.4395H76.0891ZM83.7722 62.3386C87.1722 62.3386 89.9368 65.1032 89.9368 68.5032V74.7833H36.8403V68.5032C36.8403 65.1114 39.6131 62.3386 43.0297 62.3386H52.1982V62.4129H58.2555V62.3386H83.7722ZM106.186 75.6911L100.558 58.5012L104.601 57.1808L110.23 74.3707L106.186 75.6911ZM108.158 76.9785L109.289 76.6071L124.011 121.839L122.881 122.21L108.158 76.9785ZM127.288 130.149L125.414 130.76C125.125 130.859 124.812 130.834 124.548 130.694C124.275 130.554 124.069 130.323 123.978 130.034L122.485 125.478C122.386 125.19 122.41 124.876 122.551 124.604C122.691 124.34 122.922 124.133 123.219 124.042L125.084 123.423C125.2 123.382 125.323 123.366 125.439 123.366C125.621 123.366 125.794 123.407 125.959 123.49C126.231 123.63 126.429 123.869 126.528 124.158L128.014 128.705C128.212 129.299 127.882 129.951 127.288 130.149Z" fill="#272729"/>
<path d="M36.8408 84.6036V110.038H89.9373V84.6036H36.8408ZM63.3891 108.61C57.34 108.61 52.4215 103.683 52.4215 97.6343C52.4215 91.5852 57.34 86.6668 63.3891 86.6668C69.4381 86.6668 74.3566 91.5852 74.3566 97.6343C74.3566 103.683 69.4381 108.61 63.3891 108.61Z" fill="#FFD500"/>
<path d="M63.3885 86.6667C57.3394 86.6667 52.4209 91.5852 52.4209 97.6343C52.4209 103.683 57.3394 108.61 63.3885 108.61C69.4375 108.61 74.356 103.683 74.356 97.6343C74.356 91.5852 69.4375 86.6667 63.3885 86.6667ZM63.3885 106.77C58.3544 106.77 54.2529 102.677 54.2529 97.6343C54.2529 95.3649 55.0865 93.211 56.6049 91.5275L69.5035 104.418C67.82 105.936 65.6579 106.77 63.3885 106.77ZM70.7332 103.056L57.9666 90.2896C59.5345 89.1342 61.4409 88.4988 63.3885 88.4988C68.4225 88.4988 72.524 92.6003 72.524 97.6343C72.524 99.5819 71.8885 101.488 70.7332 103.056Z" fill="#272729"/>
<path d="M69.5035 104.418C67.82 105.936 65.6579 106.77 63.3884 106.77C58.3544 106.77 54.2529 102.677 54.2529 97.6344C54.2529 95.365 55.0864 93.2111 56.6049 91.5276L69.5035 104.418Z" fill="#F5370D"/>
<path d="M72.5242 97.6344C72.5242 99.582 71.8887 101.488 70.7334 103.056L57.9668 90.2897C59.5348 89.1343 61.4411 88.4989 63.3887 88.4989C68.4227 88.4989 72.5242 92.6004 72.5242 97.6344Z" fill="#F5370D"/>
</g>
</svg>
