<svg width="130" height="140" viewBox="0 0 130 140" fill="none" xmlns="http://www.w3.org/2000/svg">
<g clip-path="url(#clip0_1280_18880)">
<path d="M88.6517 29H56.6802C53.7317 29 51.3317 31.4557 51.3317 34.464V46.2428C50.3117 47.0847 49.2488 47.9267 48.1088 48.5669C47.9031 48.681 47.6888 48.795 47.4831 48.9002C46.6688 49.33 45.8288 49.7773 45.126 50.514C44.3631 51.3296 43.5574 52.1365 42.7774 52.9083C41.9545 53.724 41.106 54.5659 40.2831 55.443C39.0402 56.7673 37.4202 58.5477 35.9374 60.5036C32.0802 65.5904 29.4317 71.6508 26.8688 77.5095C24.6317 82.6315 22.3174 87.9288 19.2231 92.4544C18.906 92.9192 19.0174 93.5683 19.4802 93.9015C19.6517 94.0243 19.8574 94.0857 20.0545 94.0857C20.3717 94.0857 20.6888 93.9278 20.886 93.6384C24.0831 88.955 26.4402 83.5611 28.7202 78.3515C31.2317 72.6068 33.8288 66.6604 37.5317 61.7753C38.9631 59.8984 40.5317 58.1706 41.7402 56.8726C42.5374 56.0218 43.3774 55.1974 44.1831 54.3905C44.9717 53.6012 45.7945 52.7943 46.5831 51.9523C47.046 51.4612 47.706 51.1191 48.4088 50.7508C48.6317 50.628 48.8545 50.514 49.0774 50.3824C49.8831 49.9351 50.6288 49.4089 51.3574 48.8564V48.8827L52.4374 47.9969C52.626 47.839 52.8145 47.6899 53.0031 47.532C53.166 47.4005 53.3288 47.2601 53.4917 47.1286C54.6317 46.1989 55.7374 45.3394 56.9717 44.7079C56.9974 44.6904 57.0231 44.6816 57.0488 44.6728C57.0488 44.6816 57.0574 44.6816 57.066 44.6904C57.5202 45.05 57.8888 45.6376 58.1802 46.4357C58.9174 48.4441 58.806 50.8034 57.8888 52.7417C56.8345 54.9606 55.0517 56.8287 53.3117 58.5477C53.2517 58.6091 53.1831 58.6705 53.1231 58.7407C53.0545 58.8021 52.986 58.8723 52.9174 58.9512C52.5231 59.3634 52.0945 59.8633 51.5717 60.4948C51.5545 60.5123 51.546 60.5299 51.5288 60.5474L51.3317 60.7842C50.8774 61.3543 50.406 61.9419 49.9088 62.5734C49.6774 62.8716 49.4374 63.1786 49.1888 63.4855C48.1688 64.7748 45.7688 68.0725 45.5802 70.8615C45.486 72.3525 45.9488 74.0101 46.4031 75.6151C46.6517 76.5009 46.8831 77.3341 46.9945 78.0445C47.3031 80.0354 47.0545 82 46.806 83.8944C46.446 86.7536 44.8517 89.4549 42.5545 91.1301C42.1002 91.4546 41.9888 92.1036 42.3145 92.5684C42.6402 93.042 43.2745 93.1473 43.7288 92.814C46.4717 90.8231 48.3745 87.5868 48.8117 84.1663C49.0602 82.2193 49.3517 80.0091 49.0002 77.7288C48.8717 76.8868 48.6145 75.9922 48.3488 75.045C47.946 73.6154 47.5345 72.1332 47.6031 71.0018C47.7231 69.2039 49.3088 66.6166 50.7574 64.7923C50.9545 64.5467 51.1431 64.3099 51.3317 64.0731V105.821C51.3317 108.838 53.7317 111.285 56.6717 111.285H88.6517C91.6003 111.285 94.0002 108.838 94.0002 105.821V34.464C94.0002 31.4557 91.6003 29 88.6517 29ZM91.9774 105.821C91.9774 107.689 90.486 109.215 88.6602 109.215H56.6802C54.846 109.215 53.3631 107.689 53.3631 105.821V61.5472C53.4917 61.3981 53.6031 61.249 53.7231 61.1175L53.7574 61.0824C53.8602 60.9596 53.9717 60.8368 54.066 60.7316C54.0831 60.7053 54.1002 60.6877 54.1174 60.6702C54.2202 60.565 54.3145 60.4597 54.4002 60.3632C54.4174 60.3632 54.4345 60.3369 54.4431 60.3194L54.7174 60.0387C56.586 58.1882 58.5145 56.1709 59.7145 53.645C60.8802 51.1718 61.0174 48.2863 60.0831 45.7165C60.0231 45.5674 59.9717 45.4271 59.9117 45.2868C59.5088 44.322 58.9774 43.5853 58.3174 43.0591C58.2917 43.0415 58.2574 43.0152 58.2145 42.9801C58.1888 42.9626 58.1545 42.9363 58.1202 42.9187C58.1202 42.9187 58.0945 42.9012 58.0774 42.8924C58.0602 42.8749 58.0345 42.8661 58.0174 42.8486C57.9831 42.831 57.9574 42.8135 57.9231 42.796C57.9231 42.796 57.906 42.796 57.8974 42.7784C57.846 42.7609 57.8031 42.7346 57.7517 42.717C57.7002 42.6995 57.6402 42.6819 57.5802 42.6556C57.5288 42.6381 57.4688 42.6206 57.4088 42.6118C57.4088 42.6118 57.3917 42.6118 57.3831 42.6118C57.3145 42.6118 57.246 42.5942 57.1774 42.5855C57.0831 42.5855 56.9974 42.5855 56.9117 42.603C56.8945 42.603 56.8688 42.603 56.8517 42.603C56.7745 42.603 56.6974 42.6293 56.6202 42.6556C56.6031 42.6556 56.586 42.6556 56.5688 42.6556C56.4831 42.6819 56.4145 42.7083 56.346 42.7433H56.3288C56.2345 42.7872 56.1574 42.8223 56.0888 42.8574C55.866 42.9714 55.6431 43.0942 55.4288 43.2169C55.3602 43.2608 55.2917 43.3047 55.2231 43.3485C55.0774 43.4362 54.9317 43.5239 54.786 43.6204C54.7088 43.673 54.6317 43.7169 54.5631 43.7695C54.4174 43.866 54.2802 43.9624 54.1431 44.0589C54.0745 44.1115 54.006 44.1554 53.9374 44.1992C53.7831 44.3133 53.6288 44.4273 53.4745 44.5501C53.4402 44.5676 53.406 44.5939 53.3802 44.6202V34.464C53.3802 32.5959 54.8631 31.0698 56.6974 31.0698H88.6774C90.5031 31.0698 91.9945 32.5959 91.9945 34.464V105.821H91.9774Z" fill="#272729"/>
<path d="M91.9688 34.464V105.821C91.9688 107.689 90.4773 109.215 88.6516 109.215H56.6716C54.8373 109.215 53.3545 107.689 53.3545 105.821V61.5472C53.4831 61.3981 53.5945 61.249 53.7145 61.1175L53.7488 61.0824C53.8516 60.9596 53.9631 60.8368 54.0573 60.7316C54.0745 60.7053 54.0916 60.6877 54.1088 60.6702C54.2116 60.5649 54.3059 60.4597 54.3916 60.3632C54.4088 60.3545 54.4345 60.3194 54.4345 60.3194L54.7088 60.0387C56.5773 58.1881 58.5059 56.1709 59.7059 53.645C60.8716 51.1718 61.0088 48.2863 60.0745 45.7165C60.0145 45.5674 59.9631 45.4271 59.9031 45.2868C59.5002 44.322 58.9688 43.5853 58.3088 43.0591C58.2831 43.0415 58.2488 43.0152 58.2059 42.9801C58.1802 42.9626 58.1459 42.9363 58.1116 42.9187C58.1031 42.91 58.0859 42.8924 58.0688 42.8924C58.0516 42.8749 58.0259 42.8661 58.0088 42.8486C57.9745 42.831 57.9488 42.8135 57.9145 42.796C57.9059 42.7784 57.8973 42.7784 57.8888 42.7784C57.8373 42.7609 57.7945 42.7346 57.7431 42.717C57.7431 42.717 57.7431 42.717 57.7431 42.7082C57.6916 42.6907 57.6316 42.6732 57.5716 42.6469H57.5631C57.5116 42.6293 57.4516 42.6118 57.3916 42.603C57.3831 42.603 57.3745 42.603 57.3659 42.5942L57.1602 42.5679C57.0659 42.5679 56.9802 42.5767 56.8945 42.5855C56.8773 42.5855 56.8516 42.5855 56.8345 42.5942C56.7573 42.603 56.6802 42.6205 56.6031 42.6469C56.5859 42.6469 56.5688 42.6556 56.5516 42.6556C56.4659 42.6819 56.3973 42.7082 56.3288 42.7433H56.3116C56.2173 42.7872 56.1402 42.8223 56.0716 42.8573C55.8488 42.9714 55.6259 43.0941 55.4116 43.2169C55.3431 43.2608 55.2745 43.3046 55.2059 43.3485C55.0602 43.4362 54.9145 43.5239 54.7688 43.6204C54.6916 43.673 54.6145 43.7169 54.5459 43.7695C54.4002 43.866 54.2631 43.9624 54.1259 44.0589C54.0573 44.1115 53.9888 44.1554 53.9202 44.1992C53.7659 44.3132 53.6116 44.4273 53.4573 44.55C53.4231 44.5676 53.3631 44.6202 53.3631 44.6202V34.464C53.3631 32.5959 54.8459 31.0698 56.6802 31.0698H88.6602C90.4859 31.0698 91.9773 32.5959 91.9773 34.464H91.9688Z" fill="#FFD500"/>
<path d="M16.8394 91.2879C16.2309 90.4459 15.3309 89.8934 14.3194 89.7443C13.308 89.5864 12.2966 89.8495 11.4737 90.4722L4.41086 95.831C3.96515 96.173 3.87086 96.822 4.19658 97.2781C4.53086 97.7342 5.16515 97.8307 5.61086 97.4974L12.6823 92.1386C13.068 91.8404 13.548 91.7176 14.028 91.7966C14.508 91.8667 14.928 92.1298 15.2194 92.5245L40.5994 127.563C40.8909 127.957 41.0109 128.448 40.9337 128.94C40.8651 129.431 40.608 129.86 40.2223 130.159L36.3051 133.132C35.8594 133.474 35.7651 134.123 36.0909 134.579C36.288 134.851 36.5966 135 36.9051 135C37.1109 135 37.3251 134.939 37.5051 134.798L41.4223 131.825C42.2451 131.202 42.7851 130.281 42.9309 129.247C43.0851 128.212 42.828 127.177 42.2194 126.335L16.8394 91.2879Z" fill="#272729"/>
<path d="M49.917 110.636C43.9856 110.636 39.7599 115.766 39.2542 118.397C39.1513 118.959 39.5028 119.503 40.0513 119.617C40.1199 119.617 40.1885 119.634 40.2485 119.634C40.7199 119.634 41.1485 119.292 41.2428 118.792C41.5856 117.021 45.0399 112.697 49.917 112.697C50.4742 112.697 50.9285 112.232 50.9285 111.662C50.9285 111.092 50.4742 110.627 49.917 110.627V110.636Z" fill="#272729"/>
<path d="M84.0825 62.0998L69.8711 75.7116L62.5254 68.6864L66.5282 64.8713L69.8454 68.0374L80.0625 58.2759L84.0825 62.0998Z" fill="#F5370D"/>
<path d="M80.0626 56.8112L69.8455 66.5639L66.5284 63.4066L60.9912 68.6864L69.8712 77.185L85.6255 62.0998L80.0626 56.8112ZM66.5284 64.8712L69.8455 68.0374L80.0626 58.2758L84.0826 62.0998L69.8712 75.7115L62.5341 68.6864L66.5369 64.8712H66.5284Z" fill="#272729"/>
</g>
<defs>
<clipPath id="clip0_1280_18880">
<rect width="90" height="106" fill="white" transform="translate(4 29)"/>
</clipPath>
</defs>
</svg>
