<svg width="130" height="140" viewBox="0 0 130 140" fill="none" xmlns="http://www.w3.org/2000/svg">
<path d="M108.37 34.2101V22.8901C108.37 21.6001 107.49 20.5101 106.23 20.2301L103.14 19.5701C101.26 19.1501 99.3 18.7301 97.16 18.2801C95.38 17.9001 93.6 17.5201 91.82 17.1401L89.18 16.5701L86.95 16.0901C79.75 14.5501 72.3 12.9601 64.85 11.5101C64.35 11.4101 63.82 11.3601 63.18 11.3501C62.58 11.3601 62.04 11.4101 61.55 11.5001C53.58 13.0601 45.28 14.8401 37.95 16.4101L37.18 16.5701C34.53 17.1401 31.87 17.7101 29.21 18.2801C26.95 18.7601 24.99 19.1801 23.22 19.5701L20.14 20.2301C18.88 20.5001 18 21.5901 18 22.8901V34.4101C18 47.4901 18 57.7201 18.02 68.3701C18.02 69.9501 18.21 71.6101 18.59 73.3001C22.65 91.5401 33.24 105.01 50.07 113.32L47.75 117.66L45.35 122.16C44.91 122.98 44.53 123.93 44.96 124.73C45.42 125.55 46.45 125.71 47.29 125.76C47.64 125.79 47.98 125.8 48.33 125.82L48.84 125.85C50.08 125.9 51.01 125.97 51.86 126.07C52.16 126.1 52.56 126.3 52.73 126.51C53.48 127.37 54.19 128.3 54.79 129.1C55.1 129.51 55.41 129.9 55.71 130.31C56.12 130.82 56.75 131.49 57.55 131.49C57.6 131.49 57.65 131.49 57.7 131.49C58.58 131.42 59.11 130.65 59.48 129.99C59.85 129.3 60.22 128.6 60.58 127.91C60.73 127.64 60.87 127.36 61.02 127.09C61.17 126.81 61.32 126.53 61.47 126.26C62.43 124.46 63.4 122.66 64.38 120.82L65.22 119.25L65.35 119L67.08 122.27C67.68 123.39 68.28 124.51 68.88 125.64C69.66 127.1 70.44 128.57 71.22 130.03C71.54 130.64 72.08 131.46 72.98 131.52C72.99 131.53 73.06 131.53 73.11 131.53C73.93 131.53 74.54 130.87 74.99 130.3L75.19 130.04C75.34 129.84 75.5 129.65 75.66 129.45C76.36 128.56 76.99 127.76 77.58 126.87C78 126.23 78.43 126 79.15 126H79.23C79.37 126 79.51 126 79.65 126C80.68 126 81.72 125.91 82.64 125.82C82.9 125.8 83.16 125.78 83.42 125.75C84.3 125.69 85.27 125.52 85.71 124.74C86.13 123.96 85.79 123.08 85.35 122.25C85.24 122.04 85.12 121.82 84.99 121.62L83 117.81L81.65 115.26C80.99 114.02 80.34 112.78 79.68 111.54C94.56 103.13 104.01 90.2601 107.78 73.2901C108.17 71.5601 108.36 69.9001 108.36 68.3601C108.39 57.7101 108.39 47.4201 108.39 34.4001V34.2001H108.37V34.2101ZM78.03 110.4L77.43 110.73L77.26 110.83L77.35 111L77.67 111.6L77.78 111.82C78.97 114.09 80.17 116.38 81.39 118.65L83.32 122.3L83.42 122.49C83.53 122.68 83.64 122.88 83.74 123.08C83.96 123.49 84.04 123.73 84.08 123.85C83.97 123.88 83.74 123.94 83.27 123.98C83.13 123.99 82.99 124 82.84 124.02C82.71 124.03 82.59 124.04 82.47 124.05C81.43 124.14 80.57 124.22 79.68 124.22C79.54 124.22 79.4 124.22 79.26 124.22H79.11C77.79 124.22 76.83 124.75 76.08 125.88C75.57 126.64 74.99 127.38 74.43 128.09L74.23 128.34C73.96 128.67 73.74 128.95 73.56 129.21C73.35 129.47 73.21 129.61 73.13 129.69C73.06 129.62 72.95 129.47 72.79 129.17C71.76 127.25 70.72 125.31 69.69 123.37L68.65 121.41L66.64 117.62C66.57 117.49 66.5 117.37 66.42 117.23L66.32 117.06L65.47 115.61L65.29 115.3L65.12 115.61L63.63 118.39C62.36 120.76 61.11 123.08 59.89 125.4C59.56 125.99 59.26 126.53 58.99 127.06C58.59 127.84 58.24 128.5 57.89 129.11C57.76 129.35 57.64 129.54 57.54 129.65C57.46 129.58 57.32 129.45 57.11 129.2C56.81 128.81 56.51 128.41 56.21 128.02C55.58 127.18 54.84 126.21 54.08 125.34C53.62 124.79 52.8 124.37 52.05 124.29C51.14 124.18 50.22 124.12 49.33 124.07L48.93 124.05C48.47 124.05 47.98 124.01 47.41 123.97C47.09 123.96 46.83 123.92 46.62 123.86C46.6 123.86 46.58 123.85 46.57 123.84C46.6 123.7 46.68 123.45 46.92 122.99L47 122.83C48.69 119.66 50.38 116.5 52.08 113.34L52.42 112.7L52.52 112.52L52.34 112.43L51.69 112.11C34.88 104.09 24.33 90.9001 20.33 72.9201C19.98 71.3301 19.8 69.7901 19.8 68.3601C19.77 57.7201 19.77 47.4301 19.77 34.4101V22.8901C19.77 22.4501 20.07 22.0801 20.5 21.9801L23.58 21.3101C25.56 20.8801 27.57 20.4501 29.57 20.0301L32.44 19.4101C34.14 19.0401 35.84 18.6801 37.54 18.3201L40.45 17.7001C47.12 16.2801 54.68 14.6601 61.86 13.2601C62.28 13.1801 62.71 13.1301 63.17 13.1201C63.63 13.1201 64.06 13.1701 64.5 13.2601C72.6 14.8401 80.69 16.5801 88.51 18.2501L88.81 18.3101C90.51 18.6701 92.21 19.0401 93.91 19.4001L96.78 20.0201C98.79 20.4401 100.79 20.8701 102.77 21.3001L105.85 21.9701C106.27 22.0701 106.57 22.4401 106.57 22.8701V34.3901C106.58 48.7401 106.57 58.5401 106.57 68.1401V68.3401C106.56 69.7401 106.38 71.2701 106.02 72.9001C102.3 89.6301 92.88 102.25 78.03 110.39V110.4Z" fill="black"/>
<path d="M97.0795 32.8101C97.0795 32.7101 97.0695 32.6101 97.0595 32.5101C97.0595 32.4001 97.0395 32.3001 97.0395 32.1901L97.0095 31.9001C96.9895 31.7601 96.9795 31.6101 96.9695 31.4601C96.9695 31.4401 96.9695 31.4101 96.9695 31.3801C96.9595 31.2201 96.9295 31.1101 96.8995 30.9901C96.8995 30.9901 96.8995 30.9401 96.8795 30.8901V30.8501L96.8595 30.8301C96.8595 30.8301 96.8295 30.7501 96.8195 30.7101C96.7995 30.6501 96.7895 30.6101 96.7695 30.5601C96.7495 30.5101 96.7295 30.4701 96.6995 30.4401C96.6795 30.3801 96.6495 30.3301 96.6295 30.2801V30.2501L96.5795 30.1901C96.5695 30.1601 96.5395 30.1101 96.4995 30.0701C96.4695 30.0201 96.3995 29.9301 96.3395 29.8501L96.3095 29.8101C95.8995 29.3401 95.3595 29.0301 94.7595 28.8901C92.0395 28.3201 89.3495 27.7801 86.8195 27.2701C81.4995 26.2101 74.8795 24.9001 68.6795 23.2601C67.0495 22.8201 65.3695 22.6001 63.5595 22.6001C63.4395 22.6001 63.3195 22.6001 63.1995 22.6001C63.0795 22.6001 62.9595 22.6001 62.8395 22.6001C61.0195 22.6001 59.3395 22.8201 57.6995 23.2601C51.4695 24.9001 44.5895 26.2701 39.5695 27.2701C37.1595 27.7501 34.3695 28.3201 31.6295 28.8901C31.0195 29.0201 30.4895 29.3301 30.0995 29.8101C30.0295 29.8901 29.9195 30.0201 29.8295 30.1701C29.7595 30.2901 29.6795 30.4201 29.6295 30.5701C29.5795 30.6801 29.5395 30.8101 29.4995 30.9401L29.4795 31.0001C29.4395 31.1801 29.4195 31.3201 29.4095 31.4701C29.3895 31.6101 29.3795 31.7501 29.3695 31.8901L29.3495 32.2001C29.3295 32.4101 29.3095 32.6201 29.2995 32.8201C29.2895 33.0501 29.2795 33.2701 29.2795 33.4901V39.8401C29.2695 47.8001 29.2795 54.8101 29.2895 61.2901V66.0701C29.2895 67.6901 29.2895 69.3601 29.6595 71.0801C29.6995 71.2401 29.7395 71.4001 29.7695 71.5601C29.8095 71.7201 29.8495 71.8901 29.8895 72.0501L29.9795 72.4501C30.0195 72.6401 30.0695 72.8201 30.1095 73.0101C30.2695 73.6401 30.4495 74.2701 30.6295 74.8901L30.7295 75.2201C30.8395 75.5701 30.9395 75.9101 31.0695 76.2601C31.1195 76.4201 31.1795 76.5901 31.2395 76.7601C31.2995 76.9401 31.3595 77.1101 31.4195 77.2701C31.4295 77.3101 31.4495 77.3401 31.4595 77.3801C31.4695 77.4201 31.4895 77.4701 31.4995 77.5101C31.5495 77.6401 31.5895 77.7701 31.6395 77.9001C31.7195 78.1201 31.7895 78.3401 31.8795 78.5601C32.0995 79.1601 32.3395 79.7501 32.5795 80.3201C32.8295 80.9201 33.0895 81.4901 33.3495 82.0401L33.5195 82.3801C33.6295 82.6001 33.7395 82.8201 33.8495 83.0401C33.9595 83.2701 34.0695 83.4901 34.1895 83.7001C34.4795 84.2501 34.7795 84.7901 35.0795 85.3201C35.4095 85.8801 35.7095 86.3901 36.0095 86.8601L36.0395 86.9201C36.3695 87.4301 36.6995 87.9401 37.0495 88.4501C37.4195 88.9601 37.7795 89.4601 38.1495 89.9401C38.4295 90.3001 38.7095 90.6501 38.9995 91.0101C39.1695 91.2301 39.3395 91.4301 39.5195 91.6301L39.7295 91.8701C39.8395 92.0001 39.9595 92.1401 40.0795 92.2701C40.2595 92.4701 40.4495 92.6801 40.6395 92.8901L40.9195 93.2001C41.1495 93.4701 41.4195 93.7501 41.7895 94.1201C42.6795 95.0401 43.5995 95.8901 44.5095 96.6701C44.6595 96.8001 44.9595 97.0801 45.2795 97.3801C45.5695 97.6601 45.8095 97.8701 45.9995 98.0301C45.9795 98.0801 45.9695 98.1301 45.9495 98.1801C45.9395 98.2401 45.9195 98.2901 45.9095 98.3401C45.8895 98.4001 45.8795 98.4201 45.8695 98.4501C45.8495 98.5301 45.8195 98.6201 45.8195 98.7201C45.8095 98.8701 45.7995 99.0201 45.8195 99.1801C45.8295 99.3601 45.8595 99.5101 45.8995 99.6501C45.9595 99.8601 46.0295 100.06 46.1295 100.24C46.2995 100.56 46.5195 100.85 46.7895 101.12C46.8095 101.14 46.8495 101.18 46.8795 101.22L46.9295 101.26C46.9295 101.26 46.9995 101.34 47.0595 101.4L47.1595 101.49C47.2595 101.57 47.3595 101.66 47.4595 101.77C47.5995 101.9 47.7195 102.02 47.8295 102.13C47.9495 102.24 48.0495 102.34 48.1495 102.45L48.2095 102.51C48.2095 102.51 48.2695 102.57 48.2895 102.6C48.2895 102.6 48.2895 102.6 48.2995 102.61L48.3595 102.69H48.3795C48.3795 102.69 48.4195 102.73 48.4395 102.75C48.4695 102.78 48.4995 102.82 48.5295 102.85L48.5595 102.9L48.5995 102.95C48.5995 102.95 48.6695 103.04 48.7095 103.07C49.5495 104.12 49.9495 105.16 49.9495 106.31V106.71C49.9595 106.85 49.9695 106.97 49.9895 107.09C49.9895 107.24 50.0195 107.36 50.0395 107.47C50.0395 107.47 50.0395 107.5 50.0395 107.53L50.0595 107.64C50.0695 107.71 50.0895 107.77 50.1195 107.83C50.1195 107.85 50.1295 107.88 50.1495 107.93V107.99L50.1695 108.01L50.1995 108.08C50.1995 108.08 50.2095 108.11 50.2195 108.13C50.2295 108.19 50.2595 108.26 50.3095 108.32C50.5095 108.77 50.7895 109.16 51.1295 109.49C51.3095 109.65 51.4895 109.78 51.6595 109.89C52.2895 110.27 53.0495 110.49 53.9895 110.56C55.2595 110.68 56.3095 111.16 57.2095 112.03C57.2895 112.1 57.3395 112.15 57.3995 112.22C57.4495 112.28 57.4995 112.32 57.5395 112.37L57.5595 112.4L57.6195 112.47C57.6595 112.51 57.6995 112.56 57.7395 112.6C57.7795 112.65 57.8095 112.69 57.8495 112.73V112.75L57.8895 112.79V112.81C58.0695 113.03 58.2495 113.21 58.4195 113.38L58.4795 113.44H58.4895L58.6195 113.57L58.6895 113.65C58.6895 113.65 58.7395 113.71 58.7595 113.73C58.8395 113.84 58.9295 113.95 59.0095 114.04C59.5895 114.68 60.3095 115.03 61.0795 115.03C61.5195 115.03 61.9995 114.91 62.5395 114.65C63.7795 114.04 65.0395 113.73 66.2895 113.73C67.3095 113.73 68.3395 113.93 69.3595 114.34C69.7995 114.52 70.2395 114.61 70.6495 114.61C71.4195 114.61 72.1195 114.29 72.6895 113.7L72.7395 113.66C72.9295 113.47 73.1095 113.23 73.2795 112.93C73.4995 112.58 73.7095 112.26 73.9495 111.95C73.9795 111.91 73.9995 111.89 74.0195 111.86C74.0495 111.83 74.0795 111.79 74.1095 111.75C74.2595 111.56 74.3995 111.41 74.5395 111.27C74.6295 111.17 74.7095 111.09 74.7995 111.01C74.9195 110.89 75.0095 110.81 75.0895 110.76C75.1795 110.69 75.2695 110.62 75.3495 110.56L75.4095 110.52C75.4095 110.52 75.5095 110.45 75.5595 110.41C75.6195 110.37 75.6695 110.33 75.7195 110.29C75.7795 110.26 75.8495 110.21 75.9295 110.17L76.0395 110.11C76.6995 109.74 77.4395 109.47 78.2595 109.31C79.1195 109.14 79.7595 108.83 80.2395 108.36C80.2795 108.31 80.2995 108.29 80.3095 108.28L80.3295 108.26H80.3595L80.4095 108.19L80.4795 108.15V108.11C80.4795 108.11 80.5395 108.05 80.5595 108C80.5795 107.98 80.6195 107.95 80.6395 107.9C80.6995 107.82 80.7395 107.76 80.7895 107.68L80.8595 107.54L80.9195 107.42C80.9695 107.31 81.0095 107.21 81.0395 107.1C81.0595 107.07 81.0695 107.01 81.0795 106.95C81.1195 106.82 81.1595 106.67 81.1895 106.51C81.2295 106.26 81.2495 106.06 81.2595 105.84V105.42C81.1895 103.36 81.8195 101.72 83.1795 100.4C83.3395 100.24 83.4595 100.08 83.5595 99.9301L83.5895 99.8801C83.6595 99.7801 83.7395 99.6601 83.7995 99.6101C83.9195 99.5001 84.0195 99.3801 84.1295 99.2501C84.2695 99.0801 84.3595 98.9201 84.4495 98.7701C84.6195 98.4401 84.7195 98.1101 84.7495 97.7601C84.7495 97.6301 84.7495 97.5001 84.7495 97.3801C84.7395 97.2501 84.7195 97.1201 84.6895 96.9701C84.6395 96.7901 84.5795 96.6301 84.5095 96.4501L84.4895 96.3901C84.4495 96.3201 84.4095 96.2501 84.3595 96.1701L84.2995 96.0701L84.2795 96.0301C84.2495 95.9601 84.2095 95.8901 84.1595 95.8101L84.1195 95.7401C83.9395 95.4701 83.7795 95.2101 83.6495 94.9601L83.7195 94.8801C83.7795 94.8201 83.8495 94.7501 83.9195 94.6701C83.9595 94.6201 84.0095 94.5801 84.0495 94.5301C84.1695 94.4101 84.2795 94.3001 84.3895 94.1801C84.6095 93.9501 84.8095 93.7501 84.9995 93.5601L85.2595 93.3001C85.2595 93.3001 85.3295 93.2301 85.3595 93.2001C85.4095 93.1501 85.4595 93.1001 85.4995 93.0401C85.5795 92.9701 85.6595 92.8801 85.7195 92.8201L85.7795 92.7601L86.2495 92.2201L86.7195 91.6901L86.7395 91.6701V91.6501L86.8795 91.4901C87.1295 91.1901 87.3795 90.8901 87.6095 90.5901C87.6995 90.4801 87.7795 90.3701 87.8695 90.2501C87.9495 90.1601 88.0495 90.0401 88.1295 89.9201C88.1695 89.8901 88.2095 89.8301 88.2495 89.7801L88.4695 89.4801C88.7095 89.1601 88.9495 88.8401 89.1795 88.5101C89.2395 88.4101 89.2995 88.3301 89.3595 88.2401C89.3995 88.1801 89.4495 88.1201 89.4895 88.0501L89.5495 87.9601C89.6095 87.8801 89.6595 87.8001 89.7195 87.7201C89.9295 87.4101 90.1395 87.1001 90.3295 86.8001L90.5495 86.4501C90.7395 86.1401 90.9295 85.8301 91.1095 85.5201C91.1395 85.4601 91.1695 85.4101 91.1895 85.3501C91.4095 85.0001 91.6295 84.6001 91.8395 84.2001C91.8795 84.1201 91.9295 84.0301 91.9795 83.9501C92.0295 83.8601 92.0795 83.7801 92.1195 83.6901C92.2595 83.4301 92.3895 83.1701 92.5195 82.9101C92.5995 82.7601 92.6695 82.6001 92.7495 82.4501C92.7895 82.3701 92.8295 82.2801 92.8695 82.2001C92.9095 82.1201 92.9395 82.0401 92.9795 81.9601C93.1895 81.5201 93.3895 81.0801 93.5895 80.6501C93.6595 80.4801 93.7195 80.3401 93.7795 80.2001C93.9295 79.8401 94.0795 79.4701 94.2295 79.1001L94.3595 78.7801C94.4095 78.6601 94.4495 78.5301 94.4895 78.4101C94.6895 77.9101 94.8795 77.3901 95.0595 76.8701C95.0795 76.7901 95.0895 76.7501 95.1095 76.7001C95.1395 76.6201 95.1495 76.5701 95.1695 76.5101C95.3395 76.0401 95.4995 75.5301 95.6395 75.0401C95.6695 74.9601 95.6995 74.8601 95.7295 74.7501L95.8495 74.3401C95.9695 73.9001 96.0995 73.4501 96.2195 73.0001C96.3895 72.3501 96.5495 71.6801 96.6895 71.0401C96.7695 70.6701 96.8295 70.2701 96.8895 69.7601V69.6801C96.9295 69.4901 96.9495 69.3001 96.9695 69.1201C96.9695 69.0101 96.9695 68.9101 96.9695 68.8201C96.9695 68.7501 96.9695 68.6801 96.9795 68.6101C96.9795 68.5501 96.9795 68.4801 96.9795 68.4201C96.9995 68.1501 97.0095 67.8901 97.0095 67.6201C97.0395 67.0901 97.0395 66.5501 97.0395 66.0301V59.0801C97.0595 52.6201 97.0595 46.1301 97.0595 39.8101V33.5801L97.0795 33.4501C97.0795 33.3001 97.0795 33.1501 97.0595 33.0001V32.7801L97.0795 32.8101ZM82.7195 90.1901C82.7395 90.0401 82.7595 89.8801 82.7895 89.7201C82.8095 89.6401 82.8295 89.5401 82.8395 89.4501C82.8395 89.3901 82.8595 89.3201 82.8895 89.2601C82.9195 89.1001 82.9295 88.9801 82.9395 88.8501V88.7401C82.9395 88.6801 82.9395 88.6201 82.9495 88.5601C83.1095 87.8701 82.9895 87.2101 82.6095 86.6501C82.5195 86.5201 82.4295 86.4101 82.3395 86.3301C82.0895 86.0701 81.7495 85.8401 81.3195 85.6501C79.8595 85.0201 78.7295 84.2201 77.8595 83.1801C77.6795 82.9501 77.4895 82.7101 77.3195 82.4601C77.1395 82.1901 76.9895 81.9201 76.8495 81.6701C76.6495 81.2901 76.4695 80.8701 76.2895 80.3501C75.8895 79.1601 74.9895 78.5101 73.7595 78.5101C73.5695 78.5101 73.3795 78.5301 73.1795 78.5601C72.5895 78.6501 72.0095 78.7001 71.4595 78.7001C69.5295 78.7001 67.8395 78.1301 66.2995 76.9601L66.1695 76.8601C65.6195 76.4201 65.0495 76.2001 64.4495 76.2001C64.1295 76.2001 63.8195 76.2601 63.5095 76.3901C63.1495 76.5401 62.8195 76.7601 62.4795 77.0701C61.2895 78.1601 59.9595 78.8701 58.5295 79.1701C57.9495 79.3001 57.3695 79.3701 56.7895 79.3701C56.5195 79.3701 56.2595 79.3701 56.0095 79.3401C55.8895 79.3401 55.7595 79.3301 55.6395 79.3301C54.1095 79.3301 53.0795 80.1601 52.6595 81.7301C51.9895 84.1601 50.6295 85.8801 48.4895 86.9801C48.4095 87.0101 48.3395 87.0701 48.2495 87.1301C48.1495 87.1901 48.0595 87.2401 47.9695 87.3001L47.8995 87.3501L47.8195 87.4101C47.7395 87.4701 47.6695 87.5301 47.5995 87.5901C47.4895 87.6801 47.4095 87.7801 47.3395 87.8701C47.2795 87.9301 47.2195 88.0001 47.1795 88.0801C47.0895 88.2001 46.9995 88.3601 46.9495 88.5101C46.9095 88.5701 46.8895 88.6601 46.8595 88.7601C46.7095 89.2401 46.7295 89.8101 46.9195 90.4401C46.9195 90.4701 46.9395 90.5101 46.9495 90.5501C46.9595 90.5901 46.9695 90.6301 46.9795 90.6701L46.9895 90.7201C47.0095 90.7901 47.0295 90.8701 47.0495 90.9501C47.1495 91.3801 47.2395 91.8101 47.3095 92.2401C47.3595 92.7001 47.3995 93.0701 47.3995 93.4601C47.3995 94.0801 47.3295 94.6801 47.1795 95.2901L47.1595 95.3801C47.1395 95.4601 47.1195 95.5301 47.0995 95.6101C47.0195 95.8601 46.9295 96.1101 46.8195 96.3701C46.7095 96.2601 46.5995 96.1601 46.4995 96.0601C46.1795 95.7801 45.8995 95.5201 45.7495 95.3901L45.7295 95.3701L45.6895 95.3201L45.6295 95.2601H45.6095C44.6395 94.4101 43.8195 93.6301 43.0595 92.8501C42.7495 92.5401 42.4495 92.2301 42.1495 91.9101L41.8195 91.5601L41.4295 91.1201C41.1695 90.8201 40.9095 90.5201 40.6595 90.2201C39.5495 88.8801 38.4995 87.4301 37.5295 85.9301C34.6595 81.4301 32.5895 76.3001 31.3795 70.6801C31.0495 69.1501 31.0495 67.5801 31.0495 66.0501V65.5501C31.0195 56.9701 31.0195 48.2601 31.0195 39.8301V33.4801C31.0195 33.3601 31.0195 33.2401 31.0395 33.1201C31.0395 33.0501 31.0395 32.9801 31.0495 32.9201C31.0495 32.8601 31.0495 32.7901 31.0495 32.7301C31.0595 32.6501 31.0695 32.5601 31.0695 32.4701V32.3501L31.1095 32.0801C31.1095 32.0101 31.1195 31.9401 31.1295 31.8801C31.1295 31.7901 31.1495 31.6901 31.1495 31.5801C31.1695 31.1401 31.5195 30.7501 31.9595 30.6401C34.2395 30.1501 36.5595 29.6901 38.5995 29.2801L39.8795 29.0201C45.2195 27.9601 51.8695 26.6401 58.1195 24.9901C59.6395 24.5801 61.1895 24.3901 62.8895 24.3901H63.3995C65.0795 24.3901 66.6395 24.5901 68.1695 24.9901C74.3995 26.6401 81.0595 27.9601 86.4095 29.0201C87.2395 29.1901 88.1095 29.3701 89.0195 29.5501C90.7195 29.8901 92.5295 30.2601 94.3295 30.6401C94.5995 30.7001 94.7795 30.8601 94.8895 30.9801C94.9595 31.0701 95.0295 31.1701 95.0595 31.2601C95.1095 31.3601 95.1395 31.4801 95.1495 31.5801C95.1495 31.6501 95.1495 31.7101 95.1595 31.7801C95.1595 31.7901 95.1595 31.8101 95.1595 31.8301C95.1595 31.8301 95.1595 31.8501 95.1595 31.8601C95.1695 31.9401 95.1795 32.0001 95.1795 32.0601L95.1995 32.3501L95.2595 32.9401V33.2001C95.2595 33.3101 95.2595 33.4001 95.2595 33.4901V39.8401C95.2595 41.7901 95.2595 43.7601 95.2695 45.7401C95.2695 49.1001 95.2695 52.4801 95.2595 55.8701C95.2595 59.1101 95.2495 62.3501 95.2395 65.5701V66.0601C95.2395 67.5801 95.2395 69.1601 94.8995 70.6901C94.5395 72.3201 94.1495 73.7801 93.7095 75.1601L93.6095 75.4801C93.5095 75.8001 93.4095 76.1101 93.2995 76.4201C92.8895 77.6301 92.4095 78.8501 91.8795 80.0701C91.5495 80.8301 91.1795 81.6101 90.7895 82.3901C90.3895 83.1701 89.9795 83.9201 89.5695 84.6201C89.0795 85.4501 88.5595 86.2801 88.0195 87.0701C87.4295 87.9301 86.8795 88.6801 86.3195 89.3801C85.6995 90.1701 85.0795 90.9101 84.4695 91.5701C84.3895 91.6601 84.2195 91.8401 83.9995 92.0701C83.8495 92.2301 83.6695 92.4101 83.4895 92.6001C83.4295 92.6701 83.3695 92.7301 83.3095 92.7801L83.2195 92.8701C83.2195 92.8701 83.1295 92.9701 83.0795 93.0101C83.0395 93.0601 82.9895 93.1001 82.9495 93.1501L82.9195 93.1801C82.8895 93.0901 82.8695 93.0001 82.8495 92.9101C82.7895 92.6801 82.7595 92.4601 82.7295 92.2701C82.6995 92.0901 82.6695 91.9001 82.6595 91.7201C82.6395 91.4701 82.6395 91.2201 82.6395 90.9701C82.6395 90.7101 82.6695 90.4601 82.6995 90.2001L82.7195 90.1901Z" fill="black"/>
<path d="M53.4298 51.2301L53.4098 47.6201C53.3898 43.4801 50.5598 40.5901 46.5298 40.5901H46.4698L37.9998 40.6301H37.7998V40.8301L37.8798 58.1701V58.3701H38.0798L46.5498 58.3301C50.5398 58.3101 53.4298 55.3201 53.4198 51.2301H53.4298ZM45.9898 44.9301C47.8598 44.9301 48.7698 45.8701 48.7798 47.7901L48.7998 51.1001C48.7998 52.9901 47.8798 53.9501 46.0398 53.9601L42.4698 53.9801L42.4298 44.9501L45.9998 44.9301H45.9898Z" fill="black"/>
<path d="M88.4498 58.0801V57.8801L88.4298 53.9701V53.7701H88.2298L80.8398 53.8001L88.3898 43.8801L88.4298 43.8301V43.7601L88.4198 40.5401L88.4098 40.3401H88.2098L75.4198 40.4001H75.2198V40.6001L75.2398 44.5001V44.7001H75.4398L82.3698 44.6601L74.8398 54.5801L74.7998 54.6401V54.7101L74.8198 57.9501V58.1501L75.0198 58.1401L88.2498 58.0801H88.4498Z" fill="black"/>
<path d="M71.1198 49.4701L70.9798 49.3301L70.8398 49.4701L65.2298 55.1301L63.5198 53.4401L69.1098 47.7901L69.2498 47.6501L69.1098 47.5101L66.5198 44.9401L66.3798 44.8001L66.2398 44.9401L62.4798 48.7401L60.6298 50.6001L58.9098 48.8901L64.4098 43.3501L64.5498 43.2101L64.4098 43.0701L61.8398 40.5201L61.6898 40.3801L61.5498 40.5201L55.9398 46.1801L55.7998 46.3301L55.9398 46.4701L58.3698 48.8801L55.9398 51.3301L55.7998 51.4701L55.9398 51.6201L57.7998 53.4601L55.9598 55.3201L55.8198 55.4601L55.9598 55.6001L58.5398 58.1601L58.6798 58.3001L58.8198 58.1601L60.6598 56.2901L62.5398 58.1301L62.6798 58.2701L62.8198 58.1301L65.2298 55.7001L67.6798 58.1201L67.8198 58.2601L67.9598 58.1201L73.7198 52.3201L73.8598 52.1701L73.7098 52.0301L71.1198 49.4701Z" fill="black"/>
<path d="M45.0498 71.34L44.8498 71.32C44.3798 71.32 44.0498 71.21 43.8198 70.98C43.5898 70.75 43.4698 70.41 43.4598 69.97L43.4398 66.38H45.9098V64.49H43.4098V62.74V62.54H42.8298L42.7698 62.6L39.8498 65.73L39.7998 65.79V66.4H41.3098L41.3298 70.13C41.3298 70.77 41.4598 71.33 41.7198 71.82C41.9898 72.31 42.3598 72.69 42.8398 72.94C43.3198 73.19 43.8798 73.31 44.5198 73.31H45.9998V71.33H45.0598L45.0498 71.34Z" fill="black"/>
<path d="M55.9398 64.6401V64.4401H54.2298L54.1998 64.6001L54.0698 65.3001C53.2598 64.6001 52.2898 64.2601 51.1198 64.2601C49.8198 64.2601 48.7198 64.7101 47.8498 65.5901C46.9898 66.4501 46.5498 67.5601 46.5498 68.8801C46.5498 70.2001 46.9998 71.2901 47.8798 72.1701C48.7398 73.0301 49.8298 73.4701 51.1198 73.4701C52.2798 73.4701 53.2498 73.1201 54.0598 72.4301L54.1798 73.0901L54.2098 73.2601H55.9798V73.0601L55.9398 64.6401ZM49.0398 67.5601C49.2498 67.1701 49.5598 66.8601 49.9498 66.6401C50.3398 66.4201 50.7598 66.3101 51.2598 66.3001C51.9898 66.3001 52.5698 66.5101 53.0298 66.9601L53.0798 67.0301C53.5598 67.5201 53.7998 68.1201 53.7998 68.8601C53.7998 69.6001 53.5698 70.2101 53.0998 70.7001C52.6198 71.1901 52.0298 71.4301 51.2798 71.4301C50.5298 71.4301 49.9198 71.2001 49.4398 70.7101C48.9498 70.2201 48.7098 69.6301 48.7098 68.8801C48.7098 68.3901 48.8198 67.9601 49.0398 67.5601Z" fill="black"/>
<path d="M64.4696 69.7101H64.3396L64.2896 69.8301C64.0896 70.3101 63.7896 70.6801 63.3796 70.9601L63.3396 70.9901C62.9396 71.2501 62.5096 71.3701 62.0296 71.3701C61.3296 71.3701 60.7596 71.1301 60.2796 70.6501C59.8096 70.1601 59.5696 69.5601 59.5596 68.8301C59.5596 68.3301 59.6596 67.9001 59.8796 67.5201C60.0996 67.1201 60.3896 66.8201 60.7596 66.6001C61.1296 66.3801 61.5296 66.2701 61.9996 66.2601C62.5096 66.2601 62.9696 66.3901 63.3796 66.6401C63.7796 66.8901 64.0896 67.2401 64.2896 67.6801L64.3396 67.7901H66.4296L66.3696 67.5401C66.1296 66.5201 65.5996 65.7001 64.7996 65.1101C64.0096 64.5101 63.0696 64.2101 61.9996 64.2101C60.6996 64.2101 59.5996 64.6601 58.7096 65.5501C57.8296 66.4301 57.3896 67.5301 57.3996 68.8301C57.3996 70.1201 57.8496 71.2301 58.7496 72.1101C59.6296 72.9801 60.7196 73.4201 61.9896 73.4201C63.0996 73.4201 64.0496 73.1001 64.8496 72.4701C65.6496 71.8301 66.1696 71.0001 66.4096 69.9801L66.4696 69.7301H64.4696V69.7101Z" fill="black"/>
<path d="M71.9696 71.22L71.6496 71.2C71.1796 71.2 70.8496 71.09 70.6196 70.86C70.3896 70.63 70.2696 70.29 70.2596 69.85L70.2396 66.26H72.7096V64.37H70.2096V62.62V62.42H69.6296L69.5696 62.48L66.6496 65.61L66.5996 65.67V66.28H68.1096L68.1296 70.01C68.1296 70.65 68.2596 71.21 68.5196 71.7C68.7796 72.19 69.1496 72.55 69.6396 72.82C70.1196 73.07 70.6796 73.2 71.3196 73.2H72.7996V71.22H71.9696Z" fill="black"/>
<path d="M76.1798 64.5501V64.3501H75.9798H74.2498H74.0498V64.5501L74.0898 72.9701V73.1701H74.2898H76.0098H76.2098V72.9601L76.1798 64.5501Z" fill="black"/>
<path d="M75.9998 63.4401H76.1998V63.2401V61.4601V61.2601H75.9998H74.2098H74.0098V61.4601V63.2401V63.4401H74.2098H75.9998Z" fill="black"/>
<path d="M86.66 69.8501L86.7201 69.6001H84.59L84.5401 69.7201C84.3401 70.2001 84.04 70.5701 83.63 70.8501L83.5701 70.8901V70.9101C83.1701 71.1501 82.75 71.2601 82.26 71.2601C81.56 71.2601 80.9901 71.0201 80.5101 70.5401C80.0401 70.0501 79.8 69.4501 79.79 68.7201C79.79 68.2201 79.89 67.7901 80.11 67.4101C80.33 67.0101 80.62 66.7101 80.9901 66.4901C81.3601 66.2701 81.76 66.1601 82.23 66.1501C82.74 66.1501 83.2001 66.2801 83.6101 66.5301C84.0101 66.7801 84.32 67.1301 84.52 67.5701L84.5701 67.6801H86.66L86.6001 67.4301C86.3601 66.4101 85.8301 65.5901 85.0301 65.0001C84.2401 64.4001 83.3 64.1001 82.23 64.1001C80.94 64.1001 79.8301 64.5501 78.9401 65.4301C78.0601 66.3001 77.62 67.4001 77.63 68.7101C77.63 70.0001 78.0801 71.1101 78.9801 71.9901C79.8601 72.8601 80.9501 73.3001 82.2201 73.3001C83.3301 73.3001 84.28 72.9801 85.08 72.3501C85.88 71.7101 86.4001 70.8801 86.6401 69.8601L86.66 69.8501Z" fill="black"/>
<path d="M82.55 98.1101C82.34 98.3001 82.19 98.5101 82.08 98.6801L82.05 98.7201C82 98.7901 81.94 98.8901 81.89 98.9201C80.11 100.67 79.25 102.88 79.33 105.52C79.33 105.62 79.33 105.7 79.33 105.79C79.29 106.74 78.98 107.11 78.06 107.29C77.77 107.34 77.52 107.4 77.3 107.47C76.91 107.58 76.52 107.72 76.12 107.88C74.26 108.67 72.75 110.04 71.62 111.94C71.29 112.5 71.05 112.58 70.84 112.58C70.7 112.58 70.52 112.54 70.32 112.46C69.04 111.95 67.73 111.7 66.43 111.7H66.22C65.63 111.7 65.04 111.78 64.46 111.9C63.56 112.08 62.65 112.39 61.75 112.84C61.54 112.95 61.37 113 61.23 113C61.08 113 60.88 112.94 60.56 112.53C60.39 112.32 60.23 112.15 60.06 111.99L60.02 111.95C59.89 111.83 59.77 111.71 59.71 111.63C59.59 111.46 59.46 111.3 59.31 111.14C57.98 109.61 56.3 108.74 54.29 108.56L54.21 108.54C53.79 108.5 53.45 108.43 53.17 108.32C53.06 108.28 52.96 108.23 52.87 108.17C52.56 107.99 52.35 107.71 52.24 107.33C52.16 107.06 52.13 106.75 52.13 106.4C52.13 104.77 51.57 103.27 50.41 101.82C50.04 101.36 49.59 100.88 49 100.31C48.85 100.17 48.69 100.02 48.53 99.8801C48.06 99.4501 48 99.2201 48 99.0701C48 98.9301 48.07 98.7401 48.2 98.5001C48.73 97.6401 49.1 96.7401 49.32 95.8301C49.72 94.1801 49.69 92.3701 49.19 90.4601C49.13 90.2301 49.08 90.0301 49.01 89.8601C48.87 89.3901 48.91 89.2601 49.36 89.0201H49.38C49.44 88.9701 49.5 88.9201 49.56 88.8901C52.21 87.5001 53.97 85.2901 54.78 82.3201C54.98 81.5901 55.22 81.4801 55.72 81.4801H55.95C56.25 81.5201 56.56 81.5201 56.9 81.5201C57.64 81.5201 58.38 81.4301 59.07 81.2701C60.86 80.8901 62.53 80.0201 64.02 78.6701C64.17 78.5301 64.31 78.4301 64.43 78.3801C64.48 78.3601 64.53 78.3501 64.56 78.3501C64.7 78.3501 64.87 78.4601 64.99 78.5501L65.15 78.6701C67.04 80.1101 69.21 80.8401 71.6 80.8401C72.27 80.8401 72.95 80.7901 73.65 80.6701C73.76 80.6501 73.85 80.6401 73.93 80.6401C74.26 80.6401 74.33 80.7601 74.43 81.0401C75.45 84.0801 77.54 86.3001 80.63 87.6201C80.85 87.7201 80.98 87.8201 81.03 87.8901C81.03 87.9101 81.08 87.9701 81.03 88.1701V88.1901L81 88.3101V88.3501C81 88.4801 80.98 88.5901 80.98 88.7001V88.8101C80.68 90.0701 80.62 91.3501 80.8 92.6001C81.04 94.1301 81.64 95.6301 82.61 97.0601C82.97 97.5901 82.92 97.7701 82.55 98.1201V98.1101Z" fill="#FFD500"/>
<path d="M73.2201 93.2L63.1001 102.68L57.8701 97.79L60.7201 95.13L63.0801 97.34L70.3601 90.54L73.2201 93.2Z" fill="#F5370D"/>
<path d="M70.36 89.52L63.09 96.31L60.73 94.11L56.79 97.78L63.11 103.7L74.33 93.2L70.37 89.52H70.36ZM60.72 95.13L63.08 97.33L70.35 90.54L73.21 93.2L63.09 102.67L57.86 97.78L60.71 95.13H60.72Z" fill="#272729"/>
<path d="M65.2796 51.4201L62.6896 48.8301L60.6696 50.8501L58.6496 48.8301L56.0596 51.4201L58.0796 53.4401L56.0596 55.4601L58.6496 58.0501L60.6696 56.0301L62.6896 58.0501L65.2796 55.4601L63.2596 53.4401L65.2796 51.4201Z" fill="#FF0000"/>
</svg>
