<svg width="130" height="140" viewBox="0 0 130 140" fill="none" xmlns="http://www.w3.org/2000/svg">
<g clip-path="url(#clip0_1280_17480)">
<mask id="mask0_1280_17480" style="mask-type:luminance" maskUnits="userSpaceOnUse" x="9" y="36" width="101" height="80">
<path d="M109.827 36H9.82715V115.57H109.827V36Z" fill="white"/>
</mask>
<g mask="url(#mask0_1280_17480)">
<path d="M75.8875 89.88C73.1075 92.75 71.1275 95.5099 69.7175 98.5099C68.1575 95.7999 65.5175 95.33 62.9475 95.33C62.2275 95.33 61.5075 95.37 60.8275 95.4C52.8375 95.82 46.5875 92.9199 42.2575 86.7799C39.1675 82.3999 38.1975 77.2299 39.5275 72.2299C40.9575 66.8699 44.9075 62.3299 50.3875 59.7699C55.5875 57.3399 61.7575 57.1099 67.3175 59.1299C72.6275 61.0699 76.7675 64.78 78.9875 69.58C81.9975 76.07 80.6375 84.98 75.8875 89.88Z" fill="#FFD500"/>
<path d="M48.7274 72.59C47.6174 72.59 46.5774 73.07 45.7974 73.89C45.0174 74.72 44.5974 75.83 44.6374 76.96C44.6774 78.1 45.1574 79.15 45.9974 79.93C46.7874 80.66 47.7974 81.06 48.8474 81.06H49.0074C51.2374 80.97 53.1474 78.92 53.0974 76.67C53.0474 74.41 51.0474 72.53 48.7274 72.59ZM48.9074 78.53C48.4774 78.55 48.0574 78.39 47.7174 78.08C47.3674 77.76 47.1774 77.33 47.1574 76.87C47.1374 76.41 47.3074 75.97 47.6374 75.63C47.9474 75.3 48.3474 75.11 48.7774 75.1H48.8174C49.7374 75.1 50.5574 75.85 50.5774 76.72C50.5874 77.6 49.7674 78.5 48.9074 78.53Z" fill="#272729"/>
<path d="M73.7467 73.91C72.9367 73.07 71.8467 72.59 70.7567 72.58H70.7167C68.3967 72.58 66.4867 74.43 66.4267 76.72C66.3767 78.97 68.3167 81 70.5867 81.06H70.6767C71.7167 81.06 72.7667 80.61 73.5967 79.83C74.4367 79.03 74.9367 77.95 74.9667 76.89C74.9867 75.82 74.5467 74.73 73.7467 73.91ZM71.8567 78C71.4867 78.34 71.0467 78.55 70.6467 78.53C69.7567 78.51 68.9267 77.66 68.9567 76.78C68.9767 75.87 69.7867 75.11 70.7167 75.11H70.7367C71.1567 75.11 71.5967 75.32 71.9367 75.67C72.2667 76.01 72.4467 76.43 72.4367 76.83C72.4367 77.22 72.2067 77.66 71.8567 78Z" fill="#272729"/>
<path d="M73.587 76.84C73.567 77.49 73.207 78.22 72.627 78.78C72.017 79.34 71.287 79.69 70.617 79.66C69.137 79.63 67.757 78.22 67.807 76.75C67.837 75.24 69.187 73.98 70.727 73.98H70.757C71.457 73.98 72.187 74.33 72.747 74.91C73.297 75.47 73.597 76.17 73.577 76.84H73.587Z" fill="#F5370D"/>
<path d="M81.277 68.5199C78.767 63.0999 74.117 58.9299 68.177 56.7599C62.007 54.4999 55.127 54.7599 49.317 57.4799C43.167 60.3499 38.707 65.49 37.087 71.58C35.567 77.32 36.667 83.2299 40.197 88.2399C44.987 95.0299 52.167 98.3799 60.957 97.9199C65.267 97.6999 67.377 97.7699 68.247 101.79C68.357 102.29 68.757 102.68 69.267 102.76C69.337 102.78 69.407 102.78 69.477 102.78C69.917 102.78 70.327 102.56 70.557 102.18C70.737 101.88 70.897 101.64 71.027 101.44C71.287 101.04 71.487 100.73 71.647 100.36C72.947 97.3199 74.877 94.5499 77.697 91.6399C83.117 86.0499 84.697 75.8899 81.277 68.5199ZM75.887 89.8799C73.107 92.7499 71.127 95.5099 69.717 98.5099C68.157 95.7999 65.517 95.3299 62.947 95.3299C62.227 95.3299 61.507 95.3699 60.827 95.3999C52.837 95.8199 46.587 92.9199 42.257 86.7799C39.167 82.3999 38.197 77.2299 39.527 72.2299C40.957 66.8699 44.907 62.3299 50.387 59.7699C55.587 57.3399 61.757 57.1099 67.317 59.1299C72.627 61.0699 76.767 64.7799 78.987 69.5799C81.997 76.07 80.637 84.9799 75.887 89.8799Z" fill="#272729"/>
<path d="M62.7173 73.74C61.9673 72.99 60.9473 72.58 59.8373 72.58H59.7973C57.4273 72.6 55.6173 74.4 55.5773 76.76C55.5673 77.89 55.9973 78.96 56.7973 79.78C57.5873 80.59 58.6273 81.04 59.7273 81.05H59.7773C60.8573 81.05 61.8873 80.63 62.6573 79.87C63.4673 79.07 63.9173 77.99 63.9273 76.83C63.9273 75.62 63.5073 74.52 62.7173 73.74ZM60.8973 78.07H60.8873C60.5873 78.37 60.1873 78.54 59.7573 78.53C59.3273 78.52 58.9173 78.34 58.6073 78.02C58.2773 77.68 58.0973 77.25 58.1073 76.8C58.1273 75.82 58.8473 75.11 59.8173 75.11C60.2773 75.11 60.6573 75.25 60.9373 75.52C61.2473 75.83 61.4073 76.29 61.4073 76.82C61.4073 77.3 61.2273 77.75 60.8973 78.07Z" fill="#272729"/>
<path d="M101.807 70.3C101.467 70.11 101.437 70.09 101.417 69.33C101.297 61.99 98.9371 55.32 94.5872 50.05C89.3072 43.64 78.8971 36 59.2472 36C37.8572 36 27.7372 46 23.6072 51.96C20.1972 56.89 18.3372 62.9 18.2272 69.32C18.2272 70.08 18.1772 70.1 17.8372 70.29C11.7472 73.69 9.04715 79.01 10.0172 85.67C10.9272 91.86 14.7472 96.14 21.0872 98.07C21.2772 98.13 21.5872 98.42 21.6572 98.56C25.0272 106.41 30.9672 111.11 39.2772 112.52C39.3772 112.56 39.6372 112.77 39.8072 112.9C40.0472 113.09 40.3172 113.31 40.6272 113.5C40.8872 113.65 41.1472 113.84 41.4372 114.04C42.2672 114.62 43.2172 115.28 44.3572 115.4C45.5471 115.53 46.7372 115.57 47.9272 115.57C48.9272 115.57 49.9172 115.54 50.8872 115.51C51.2372 115.5 51.5872 115.49 51.9372 115.48C54.9372 115.4 56.9772 113.41 57.1372 110.4C57.2072 109.11 57.2072 107.76 57.1372 106.3C56.9972 103.27 54.8572 101.21 51.8172 101.15C51.3472 101.14 50.8872 101.13 50.4172 101.11C48.5172 101.06 46.5572 101 44.6072 101.22C43.4571 101.35 42.4772 101.96 41.6072 102.5C41.2972 102.69 40.9972 102.88 40.7172 103.03C40.4172 103.19 40.1872 103.39 40.0072 103.55C40.0072 103.55 39.9772 103.58 39.9672 103.59C37.3472 103.52 33.2172 100.66 31.5372 97.93C32.8772 97.16 33.6272 95.86 33.6372 94.19C33.6572 88.33 33.6772 80.63 33.6372 72.9C33.6272 70.45 32.1472 68.88 29.5872 68.61C29.5072 68.6 29.4172 68.59 29.3372 68.58C29.2672 66.45 29.6972 64.34 30.6572 62.01C32.3272 57.95 40.7872 47.41 59.6072 47.41C78.4272 47.41 87.4671 58.22 89.0271 62.01C89.9871 64.34 90.4071 66.45 90.3471 68.58C90.2671 68.58 90.1771 68.6 90.0971 68.61C87.5371 68.89 86.0571 70.46 86.0371 72.9C85.9971 80.51 86.0071 87.94 86.0371 94.19C86.0471 97.5 88.7171 98.09 89.5971 98.28C89.7071 98.31 89.8271 98.31 89.9371 98.31L98.2071 98.12C98.3371 98.12 98.4671 98.09 98.5872 98.06C104.917 96.13 108.747 91.84 109.657 85.66C110.627 78.99 107.927 73.67 101.837 70.28L101.807 70.3ZM106.827 85.28C106.087 90.32 103.087 93.7 97.9171 95.33L90.0172 95.52C88.9472 95.26 88.8372 94.94 88.8372 94.21C88.8172 87.96 88.7971 80.54 88.8372 72.94C88.8372 72.09 89.0972 71.58 90.3772 71.44C90.7872 71.4 91.1871 71.34 91.6272 71.28L91.8271 71.25C92.4771 71.17 92.9771 70.65 93.0471 70C93.3772 67.04 92.9072 64.08 91.6171 60.94C90.8571 59.09 88.1972 54.99 83.0572 51.37C76.7571 46.93 68.6372 44.59 59.5772 44.59C35.0272 44.59 28.0872 60.78 28.0172 60.94C26.7272 64.08 26.2572 67.04 26.5872 70C26.6572 70.65 27.1672 71.16 27.8072 71.25L27.9972 71.28C28.4372 71.34 28.8472 71.39 29.2572 71.44C30.5372 71.58 30.7872 72.1 30.7872 72.94C30.8272 80.66 30.8172 88.36 30.7872 94.21C30.7872 94.87 30.5972 95.51 29.2872 95.8C28.8972 95.89 28.5672 96.13 28.3672 96.48C28.1672 96.83 28.1272 97.24 28.2472 97.62C29.6472 101.95 36.0872 106.63 40.3272 106.44C41.0472 106.4 41.5272 105.98 41.8472 105.7C41.9072 105.65 41.9972 105.57 42.0172 105.56C42.3871 105.36 42.7372 105.14 43.0772 104.93C43.7472 104.51 44.3872 104.12 44.8972 104.06C46.6472 103.86 48.4272 103.91 50.3072 103.97C50.7872 103.98 51.2572 104 51.7372 104.01C53.3172 104.04 54.2172 104.91 54.2872 106.46C54.3472 107.84 54.3472 109.09 54.2872 110.29C54.2071 111.8 53.3472 112.65 51.8472 112.68C51.4972 112.68 51.1472 112.7 50.7872 112.71C48.7472 112.77 46.6372 112.83 44.6472 112.61C44.2172 112.56 43.6172 112.14 43.0372 111.74C42.7271 111.52 42.3972 111.3 42.0572 111.09C41.9272 111.01 41.7572 110.87 41.5772 110.73C41.1272 110.36 40.5572 109.9 39.7772 109.76C32.3372 108.5 27.2472 104.47 24.2472 97.47C23.8472 96.54 22.8872 95.68 21.9072 95.38C16.6172 93.77 13.5572 90.37 12.8172 85.27C12.0172 79.79 14.1672 75.58 19.2172 72.77C21.0072 71.77 21.0372 70.28 21.0572 69.38C21.1572 63.51 22.8372 58.04 25.9372 53.58C29.7472 48.07 39.1472 38.83 59.2472 38.83C77.7971 38.83 87.5172 45.91 92.4072 51.85C96.3472 56.63 98.4871 62.69 98.5971 69.39C98.6171 70.28 98.6471 71.78 100.437 72.78C105.477 75.59 107.637 79.8 106.837 85.28H106.827Z" fill="#272729"/>
<path d="M62.7169 76.84C62.6969 77.49 62.3369 78.22 61.7569 78.78C61.1469 79.34 60.4169 79.69 59.7469 79.66C58.2669 79.63 56.8869 78.22 56.9369 76.75C56.9669 75.24 58.3169 73.98 59.8569 73.98H59.8869C60.5869 73.98 61.3169 74.33 61.8769 74.91C62.4269 75.47 62.7269 76.17 62.7069 76.84H62.7169Z" fill="#F5370D"/>
<path d="M51.7374 76.84C51.7174 77.49 51.3574 78.22 50.7774 78.78C50.1674 79.34 49.4374 79.69 48.7674 79.66C47.2874 79.63 45.9074 78.22 45.9574 76.75C45.9874 75.24 47.3374 73.98 48.8774 73.98H48.9074C49.6074 73.98 50.3374 74.33 50.8974 74.91C51.4474 75.47 51.7474 76.17 51.7274 76.84H51.7374Z" fill="#F5370D"/>
</g>
</g>
<defs>
<clipPath id="clip0_1280_17480">
<rect width="100.03" height="79.57" fill="white" transform="translate(9.82715 36)"/>
</clipPath>
</defs>
</svg>
