<svg width="71" height="70" viewBox="0 0 71 70" fill="none" xmlns="http://www.w3.org/2000/svg">
<path d="M52.0478 40.7748C52.2578 40.6448 52.4378 40.5048 52.5978 40.3448C53.6478 39.3648 53.9878 37.9248 54.3178 36.5248C54.5378 35.6148 54.7378 34.7648 55.0978 34.1848C55.4378 33.6348 56.0078 33.2348 56.6178 32.8048C57.5378 32.1648 58.5778 31.4348 58.9878 30.0648C59.4078 28.6548 58.9078 27.3648 58.4678 26.2348C58.1578 25.4448 57.8678 24.7048 57.8678 23.9648C57.8678 23.4048 58.2078 22.6648 58.5378 21.9548C59.0278 20.8948 59.5878 19.6848 59.2978 18.4848C58.9078 16.8348 57.7778 15.9448 56.7878 15.1548C56.1378 14.6348 55.5178 14.1548 55.0978 13.4748C54.7378 12.8848 54.5278 11.9348 54.3178 11.0148C53.9878 9.54483 53.6478 8.01483 52.6078 7.02483C51.6178 6.10483 50.3378 6.05483 49.2078 6.01483C48.4278 5.98483 47.6878 5.95483 47.1778 5.65483C46.6278 5.34483 46.1278 4.66483 45.5978 3.94483C44.8178 2.89483 43.9378 1.70483 42.5878 1.30483C41.0378 0.844826 39.5478 1.34483 38.1178 1.83483C37.1378 2.16483 36.2078 2.47483 35.3178 2.47483C34.5178 2.47483 33.6578 2.14483 32.7578 1.78483C31.4478 1.27483 30.0978 0.744826 28.6478 1.13483C27.3378 1.48483 26.6078 2.58483 25.9678 3.56483C25.5478 4.21483 25.1378 4.83483 24.6578 5.08483C24.0578 5.39483 23.1978 5.44483 22.2878 5.50483C20.9978 5.57483 19.5378 5.66483 18.4878 6.60483C17.2978 7.66483 17.0378 9.35483 16.8178 10.8448C16.6578 11.8648 16.5078 12.8348 16.1178 13.4748C15.7478 14.0648 15.0378 14.4848 14.2878 14.9348C13.1678 15.6048 11.8978 16.3548 11.4878 17.8948C11.1278 19.2148 11.7478 20.5448 12.2978 21.7148C12.6678 22.5048 13.0478 23.3248 13.0478 23.9648C13.0478 24.6948 12.7078 25.4348 12.3378 26.2248C11.8178 27.3548 11.2178 28.6348 11.6478 30.0648C12.0578 31.4648 13.2878 32.1848 14.3678 32.8248C15.0978 33.2548 15.7878 33.6548 16.1178 34.1848C16.5078 34.8148 16.6578 35.7348 16.8178 36.6948C17.0478 38.1148 17.2978 39.7148 18.4878 40.7748C18.5978 40.8648 18.7078 40.9548 18.8178 41.0348L11.6878 57.9048C11.5378 58.2448 11.5978 58.6448 11.8278 58.9248C12.0678 59.2148 12.4378 59.3448 12.8078 59.2748L20.3278 57.7448L24.6078 63.5948C24.8178 63.8848 25.1678 64.0348 25.5378 63.9948C25.8978 63.9548 26.1978 63.7148 26.3378 63.3848L33.7578 45.2948C34.3478 45.0548 34.8478 44.8948 35.3178 44.8948C36.1078 44.8948 36.9278 45.1148 37.7378 45.3548L44.8678 63.3748C44.9978 63.7048 45.2978 63.9448 45.6578 63.9948C45.7078 63.9948 45.7478 64.0048 45.7978 64.0048C46.1078 64.0048 46.3978 63.8648 46.5878 63.6148L51.1578 57.7448L58.1078 59.2748C58.4778 59.3548 58.8578 59.2248 59.0878 58.9348C59.3278 58.6448 59.3878 58.2548 59.2478 57.9048L52.0478 40.7748ZM25.1678 60.9748L21.5578 56.0448C21.3678 55.7848 21.0678 55.6348 20.7478 55.6348C20.6878 55.6348 20.6178 55.6448 20.5478 55.6548L14.2678 56.9348L20.6878 41.7448C21.1178 41.8148 21.5378 41.8448 21.9478 41.8748C22.7378 41.9248 23.4778 41.9748 24.0778 42.2948C24.6678 42.6048 25.2578 43.2448 25.8878 43.9248C26.8078 44.9248 27.8578 46.0548 29.2578 46.3948C29.9178 46.5548 30.5478 46.4948 31.1678 46.3448L25.1678 60.9748ZM50.9678 55.6548C50.5878 55.5748 50.1978 55.7148 49.9578 56.0248L46.0878 61.0048L40.1578 46.0348C41.0778 46.2148 42.0078 46.2548 42.9578 45.9648C44.2478 45.5548 44.8978 44.5148 45.4178 43.6748C45.7978 43.0648 46.1178 42.5448 46.5878 42.2748C47.1378 41.9548 48.0378 41.8148 48.9078 41.6748C49.3278 41.6148 49.7478 41.5448 50.1678 41.4548L56.6578 56.9048L50.9678 55.6548Z" fill="black"/>
<path d="M56.5973 26.9649C56.9673 27.9149 57.2973 28.7349 57.0673 29.4949C56.8673 30.1649 56.3373 30.5649 55.4773 31.1649C54.7573 31.6649 53.9573 32.2349 53.3973 33.1249C52.8673 33.9849 52.6173 35.0449 52.3773 36.0649C52.1073 37.1749 51.8373 38.3249 51.2273 38.8949C51.0573 39.0549 50.7973 39.1949 50.4373 39.3149C50.4373 39.3149 50.434 39.3182 50.4273 39.3249C49.9073 39.4949 49.2673 39.5949 48.5973 39.7049C47.5473 39.8649 46.4573 40.0349 45.5873 40.5449C44.6773 41.0649 44.1673 41.8949 43.7173 42.6149C43.2373 43.3949 42.9173 43.8749 42.3573 44.0549C41.3373 44.3749 40.1273 43.9949 38.7973 43.5949C38.7973 43.5949 38.7907 43.5915 38.7773 43.5849C37.7373 43.2649 36.5573 42.8949 35.3173 42.8949C34.2973 42.8949 33.3773 43.2749 32.5773 43.6249C32.5773 43.6249 32.574 43.6282 32.5673 43.6349L32.1973 43.8049C31.2773 44.2249 30.4073 44.6149 29.7273 44.4549C28.9173 44.2549 28.1273 43.3949 27.3573 42.5649C26.6473 41.7949 25.9073 40.9949 24.9973 40.5249C24.0273 40.0149 22.9973 39.9449 22.0873 39.8749C21.4773 39.8349 20.9073 39.7949 20.4373 39.6349C20.4373 39.6349 20.4273 39.6349 20.4173 39.6249C20.1973 39.5549 19.9873 39.4249 19.8173 39.2749C19.1673 38.6949 18.9773 37.5749 18.7873 36.3849C18.6073 35.2649 18.4173 34.1049 17.8173 33.1249C17.2273 32.1849 16.2473 31.6049 15.3873 31.0949C14.5473 30.6049 13.7473 30.1349 13.5573 29.4949C13.3573 28.7949 13.7273 27.9949 14.1573 27.0749C14.5773 26.1649 15.0473 25.1349 15.0473 23.9649C15.0473 22.8749 14.5773 21.8549 14.1073 20.8649C13.6873 19.9549 13.2473 19.0249 13.4173 18.4049C13.6173 17.6549 14.3973 17.1949 15.3073 16.6549C16.1873 16.1249 17.1873 15.5349 17.8173 14.5249C18.4273 13.5449 18.6073 12.3249 18.7873 11.1449C18.9873 9.87487 19.1673 8.67487 19.8173 8.09487C20.3473 7.62487 21.3473 7.56487 22.4073 7.49487C23.4873 7.43487 24.6073 7.36487 25.5873 6.85487C26.5273 6.36487 27.1173 5.45487 27.6473 4.66487C28.1273 3.92487 28.5873 3.22487 29.1673 3.06487C29.9773 2.85487 30.9773 3.23487 32.0273 3.65487C33.0673 4.05487 34.1373 4.47487 35.3173 4.47487C36.4973 4.47487 37.6673 4.09487 38.7473 3.72487C39.9473 3.32487 41.0773 2.94487 42.0173 3.22487C42.7273 3.43487 43.3373 4.25487 43.9873 5.13487C44.6173 5.98487 45.2673 6.86487 46.1773 7.38487C47.1173 7.93487 48.1873 7.97487 49.1273 8.00487C50.0273 8.04487 50.7973 8.07487 51.2273 8.48487C51.8273 9.04487 52.1073 10.2749 52.3673 11.4549C52.6073 12.5349 52.8573 13.6549 53.3973 14.5249C54.0073 15.5049 54.8273 16.1549 55.5473 16.7249C56.4273 17.4249 57.1173 17.9749 57.3573 18.9449C57.4773 19.4749 57.0973 20.3149 56.7273 21.1149C56.3073 22.0249 55.8673 22.9649 55.8673 23.9649C55.8673 25.0849 56.2573 26.0849 56.5973 26.9649Z" fill="#FFD500"/>
<path d="M47.1688 19.0749L31.8687 33.3949L23.9688 26.0049L28.2687 21.9949L31.8387 25.3249L42.8387 15.0549L47.1688 19.0749Z" fill="#F5370D"/>
<path d="M42.8384 13.5149L31.8484 23.7749L28.2784 20.4549L22.3184 26.0049L31.8684 34.9449L48.8284 19.0749L42.8484 13.5049L42.8384 13.5149ZM28.2784 21.9949L31.8484 25.3249L42.8384 15.0549L47.1684 19.0749L31.8684 33.3949L23.9684 26.0049L28.2784 21.9949Z" fill="#272729"/>
</svg>
