<svg width="70" height="70" viewBox="0 0 70 70" fill="none" xmlns="http://www.w3.org/2000/svg">
<g clip-path="url(#clip0_1287_99)">
<path d="M64.59 14.15C64.59 14.15 64.59 14.14 64.57 14.14L35.53 1.24C34.84 0.92 34.02 0.92 33.33 1.24L4.43 14.17C4.43 14.17 4.41 14.18 4.39 14.18C3.53 14.61 3 15.46 3 16.41C3 17.36 3.53 18.22 4.39 18.64C4.4 18.64 4.41 18.65 4.42 18.65L17.38 24.55V35.97C17.38 37.12 18.02 38.15 19.06 38.66C21.71 39.96 28.53 42.99 34.5 42.99C40.47 42.99 47.28 39.96 49.93 38.66C50.97 38.15 51.62 37.12 51.62 35.97V24.5L56.72 22.18V30.43C55.74 30.8 55.03 31.73 55.03 32.83V36.03C55.03 36.52 55.43 36.92 55.93 36.92H59.31C59.81 36.92 60.22 36.52 60.22 36.03V32.83C60.22 31.74 59.51 30.8 58.52 30.43V21.37L64.57 18.62C64.57 18.62 64.59 18.62 64.59 18.61C65.46 18.19 66 17.34 66 16.38C66 15.42 65.46 14.58 64.59 14.15ZM49.82 35.97C49.82 36.44 49.55 36.86 49.13 37.06C46.59 38.31 40.09 41.21 34.5 41.21C28.91 41.21 22.4 38.31 19.87 37.06C19.44 36.86 19.18 36.44 19.18 35.97V25.37L33.32 31.8C33.66 31.97 34.04 32.05 34.42 32.05C34.8 32.05 35.17 31.97 35.52 31.8L49.82 25.32V35.97ZM58.41 35.14H56.83V32.84C56.83 32.41 57.19 32.06 57.62 32.06C58.05 32.06 58.41 32.41 58.41 32.84V35.14ZM63.81 17.01L34.76 30.19C34.76 30.19 34.74 30.2 34.73 30.2C34.54 30.29 34.3 30.29 34.1 30.2C34.1 30.2 34.09 30.19 34.08 30.19L5.19 17.04C4.84 16.86 4.8 16.54 4.8 16.41C4.8 16.28 4.84 15.96 5.19 15.79L34.09 2.87C34.09 2.87 34.11 2.86 34.12 2.86C34.31 2.76 34.55 2.76 34.75 2.86C34.76 2.86 34.77 2.87 34.78 2.87L63.81 15.76C64.16 15.94 64.19 16.25 64.19 16.38C64.19 16.51 64.15 16.82 63.81 17.01Z" fill="white"/>
<path d="M59.8599 16.4C59.8599 16.51 59.8299 16.78 59.5399 16.94L34.7199 28.2C34.7199 28.2 34.6999 28.2 34.6899 28.2C34.5299 28.28 34.3199 28.28 34.1499 28.2C34.1499 28.2 34.1499 28.2 34.1299 28.2L9.45988 16.96C9.15988 16.81 9.12988 16.53 9.12988 16.42C9.12988 16.31 9.15988 16.04 9.45988 15.89L34.1499 4.85998C34.1499 4.85998 34.1699 4.85998 34.1799 4.85998C34.3399 4.76998 34.5499 4.76998 34.7199 4.85998C34.7199 4.85998 34.7399 4.85998 34.7499 4.85998L59.5499 15.87C59.8499 16.02 59.8699 16.29 59.8699 16.4H59.8599Z" fill="#FFD500"/>
<path d="M34.4997 40.21C28.9397 40.21 22.2297 37.11 20.3097 36.16C20.1997 36.11 20.1797 36.03 20.1797 35.97V26.92L32.9097 32.71C33.3397 32.93 33.8797 33.05 34.4197 33.05C34.9597 33.05 35.4797 32.93 35.9597 32.7L48.8197 26.87V35.97C48.8197 36.05 48.7797 36.12 48.6997 36.16C46.2197 37.38 39.8797 40.21 34.4997 40.21Z" fill="#F5370D"/>
</g>
<defs>
<clipPath id="clip0_1287_99">
<rect width="63" height="41.99" fill="white" transform="translate(3 1)"/>
</clipPath>
</defs>
</svg>
