<svg width="70" height="70" viewBox="0 0 70 70" fill="none" xmlns="http://www.w3.org/2000/svg">
<path d="M54.4008 19.7122C51.4708 10.2022 41.4208 4.86222 31.9308 7.81222C22.4508 10.7622 17.1508 20.8622 20.0808 30.3722C21.2808 34.2922 23.7708 37.6622 27.1008 39.9322L26.7308 40.6922C26.5408 40.6622 26.3308 40.6522 26.1208 40.6422C24.7508 40.6122 22.7208 41.0422 21.6008 43.1922C20.9808 44.3822 19.4008 47.1922 17.8808 49.9022C17.2808 50.9822 16.3708 52.6522 15.4808 54.3022C13.9408 57.1822 15.0608 60.7622 17.9608 62.2522C18.8108 62.6822 19.7108 62.8922 20.6008 62.8922C22.7108 62.8922 24.7308 61.7522 25.7708 59.7622L31.5708 48.6522C32.8008 46.3022 31.8508 44.2522 30.9108 43.0822C30.7208 42.8422 30.5208 42.6322 30.3308 42.4422L30.6308 41.8222C32.1908 42.4522 33.8408 42.8522 35.5208 43.0122C37.8908 43.2422 40.2808 42.9922 42.5608 42.2822C52.0408 39.3322 57.3308 29.2222 54.4008 19.7122ZM29.2208 48.6922L24.1508 58.4622C23.2008 60.3122 20.9208 61.0322 19.0708 60.0722C17.2208 59.1222 16.5008 56.8422 17.4608 54.9922L22.5208 45.2222C23.4808 43.3722 25.7508 42.6522 27.6008 43.6022C28.9008 44.2722 29.6408 45.6022 29.6408 46.9622C29.6408 47.5522 29.5008 48.1422 29.2208 48.6922ZM53.4808 27.0822C52.5908 34.3622 46.7308 40.2522 39.4608 41.2022C28.7308 42.5922 19.6908 33.5722 21.0708 22.8522C22.0008 15.5722 27.8908 9.70222 35.1808 8.80222C45.8408 7.48222 54.7908 16.4222 53.4808 27.0822Z" fill="#272729"/>
<path d="M45.2314 25.7521C45.1414 26.7721 44.8514 27.7521 44.3914 28.6621L44.3414 28.7421C43.8514 29.6621 43.1714 30.5021 42.3714 31.1621C41.5614 31.8321 40.6314 32.3321 39.6214 32.6421C37.6114 33.2721 35.3914 33.0621 33.5314 32.0821C31.6714 31.1021 30.2514 29.3921 29.6314 27.3821C29.0014 25.3321 29.2014 23.1721 30.1914 21.2721C31.1914 19.3821 32.8614 18.0021 34.9014 17.3721C35.6814 17.1221 36.4714 17.0021 37.2714 17.0021C37.5114 17.0021 37.7614 17.0121 38.0114 17.0421C39.0614 17.1421 40.0614 17.4321 41.0014 17.9221C41.9314 18.4121 42.7414 19.0721 43.4214 19.8921C44.0914 20.7021 44.6014 21.6221 44.9214 22.6421C45.2314 23.6421 45.3314 24.6921 45.2314 25.7521Z" fill="#F5370D"/>
<path d="M46.351 22.1821C45.971 20.9921 45.371 19.8921 44.571 18.9221C43.771 17.9621 42.801 17.1821 41.691 16.6021C40.591 16.0121 39.391 15.6621 38.141 15.5421C36.901 15.4321 35.651 15.5621 34.461 15.9421C32.031 16.6821 30.051 18.3321 28.871 20.5821C27.681 22.8221 27.441 25.4021 28.191 27.8221C28.941 30.2121 30.631 32.2521 32.831 33.4121C34.201 34.1321 35.731 34.5021 37.271 34.5021C38.211 34.5021 39.151 34.3621 40.061 34.0821C41.261 33.7121 42.361 33.1221 43.331 32.3221C44.251 31.5621 45.041 30.6021 45.611 29.5521L45.671 29.4421C46.251 28.3321 46.611 27.1421 46.731 25.8921C46.851 24.6321 46.721 23.3921 46.351 22.1821ZM44.341 28.7421C43.851 29.6621 43.171 30.5021 42.371 31.1621C41.561 31.8321 40.631 32.3321 39.621 32.6421C37.611 33.2721 35.391 33.0621 33.531 32.0821C31.671 31.1021 30.251 29.3921 29.631 27.3821C29.001 25.3321 29.201 23.1721 30.191 21.2721C31.191 19.3821 32.861 18.0021 34.901 17.3721C35.681 17.1221 36.471 17.0021 37.271 17.0021C37.511 17.0021 37.761 17.0121 38.011 17.0421C39.061 17.1421 40.061 17.4321 41.001 17.9221C41.931 18.4121 42.741 19.0721 43.421 19.8921C44.091 20.7021 44.601 21.6221 44.921 22.6421C45.231 23.6421 45.331 24.6921 45.231 25.7521C45.141 26.7721 44.851 27.7521 44.391 28.6621L44.341 28.7421Z" fill="#272729"/>
<path d="M37.2716 8.67212C28.2516 8.67212 20.9316 15.9821 20.9316 25.0121C20.9316 34.0421 28.2516 41.3421 37.2716 41.3421C46.2916 41.3421 53.6116 34.0321 53.6116 25.0121C53.6116 15.9921 46.3016 8.67212 37.2716 8.67212ZM37.2716 37.0521C30.6116 37.0521 25.2316 31.6621 25.2316 25.0121C25.2316 18.3621 30.6116 12.9621 37.2716 12.9621C43.9316 12.9621 49.3216 18.3521 49.3216 25.0121C49.3216 31.6721 43.9316 37.0521 37.2716 37.0521Z" fill="#FFD500"/>
</svg>
