<svg width="71" height="70" viewBox="0 0 71 70" fill="none" xmlns="http://www.w3.org/2000/svg">
<g clip-path="url(#clip0_1268_5822)">
<path d="M56.6675 33.94C56.6675 39.85 54.3675 45.42 50.1975 49.61C45.9975 53.84 40.3975 56.16 34.4475 56.16H34.4175C31.4875 56.16 28.6275 55.59 25.9175 54.47C23.1975 53.34 20.7775 51.71 18.7075 49.62C18.7075 49.62 18.6875 49.62 18.6775 49.6C14.5175 45.41 12.2275 39.85 12.2275 33.94C12.2275 28.03 14.5175 22.46 18.6875 18.27H18.6975C20.7675 16.17 23.1975 14.54 25.9175 13.41C28.6275 12.29 31.4875 11.72 34.4175 11.72H34.4775C37.4075 11.72 40.2675 12.29 42.9775 13.41C45.6975 14.54 48.1275 16.18 50.2075 18.26C52.2975 20.36 53.9075 22.8 55.0075 25.46C56.0975 28.11 56.6775 30.98 56.6775 33.94H56.6675Z" fill="#272729"/>
<path d="M57.3779 17.72C57.7479 18.09 58.4179 18.09 58.7879 17.72L63.0879 13.42C63.4779 13.03 63.4779 12.4 63.0879 12.01L56.3679 5.29C56.1779 5.1 55.9279 5 55.6479 5C55.3679 5 55.1179 5.12 54.9379 5.31L50.6379 9.88C50.2679 10.27 50.2779 10.89 50.6579 11.27L51.2679 11.89L50.7679 12.36C46.0879 8.82 40.3279 6.88 34.4379 6.88C19.5179 6.88 7.37793 19.02 7.37793 33.94C7.37793 48.86 19.5179 61 34.4379 61C49.3579 61 61.4979 48.86 61.4979 33.94C61.4979 28.03 59.5579 22.26 55.9879 17.57L56.6679 17.01L57.3779 17.72ZM52.7079 13.28L55.2179 15.62L54.7179 16.02C53.9679 15.18 53.1679 14.38 52.3279 13.64L52.7079 13.28ZM59.4979 33.94C59.4979 47.76 48.2579 59 34.4379 59C20.6179 59 9.37793 47.76 9.37793 33.94C9.37793 20.12 20.6179 8.88 34.4379 8.88C40.1579 8.88 45.7479 10.85 50.1879 14.44C50.1879 14.45 50.2079 14.46 50.2079 14.46C51.5279 15.53 52.7379 16.73 53.8179 18.05C57.4879 22.51 59.5079 28.15 59.4979 33.94ZM53.4079 11.19L52.7579 10.54L55.6879 7.43L60.9679 12.71L58.0779 15.6L57.4579 14.97C57.4579 14.97 57.4179 14.94 57.4079 14.93L53.4079 11.19Z" fill="#272729"/>
<path d="M51.7083 33.94C51.7083 33.39 52.1583 32.94 52.7083 32.94H54.6383C54.4083 28.26 52.5983 23.86 49.4483 20.38L48.2983 21.49C47.8983 21.88 47.2583 21.86 46.8783 21.47C46.4983 21.07 46.5083 20.43 46.9083 20.05L48.0383 18.97C46.3283 17.4 44.3683 16.16 42.2083 15.26C40.0383 14.36 37.7683 13.85 35.4383 13.74V15.67C35.4383 16.22 34.9883 16.67 34.4383 16.67C33.8883 16.67 33.4383 16.22 33.4383 15.67V13.74C31.1083 13.85 28.8383 14.36 26.6783 15.26C24.4883 16.17 22.5183 17.43 20.7783 19.02L21.7483 20.11C22.1183 20.52 22.0883 21.15 21.6683 21.52C21.2583 21.89 20.6283 21.85 20.2583 21.44L19.3683 20.45C16.2583 23.91 14.4683 28.28 14.2383 32.94H15.8983C16.4583 32.94 16.8983 33.39 16.8983 33.94C16.8983 34.49 16.4583 34.94 15.8983 34.94H14.2383C14.4583 39.57 16.2383 43.91 19.3183 47.37L20.2183 46.22C20.5583 45.79 21.1783 45.7 21.6183 46.04C22.0583 46.38 22.1383 47.01 21.7983 47.45L20.7383 48.81C22.4783 50.42 24.4683 51.7 26.6783 52.62C28.8383 53.52 31.1083 54.03 33.4383 54.14V52.21C33.4383 51.65 33.8883 51.21 34.4383 51.21C34.9883 51.21 35.4383 51.65 35.4383 52.21V54.14C40.1683 53.91 44.5983 52.06 48.0883 48.86L46.8583 47.51C46.4883 47.1 46.5183 46.46 46.9283 46.09C47.3383 45.72 47.9683 45.75 48.3483 46.16L49.4983 47.44C52.6183 43.97 54.4183 39.6 54.6383 34.94H52.7083C52.1583 34.94 51.7083 34.49 51.7083 33.94ZM43.4783 42.97C43.2783 43.17 43.0283 43.27 42.7683 43.27C42.5083 43.27 42.2583 43.17 42.0583 42.97L36.1483 37.06C35.6183 37.29 35.0383 37.39 34.4483 37.35C33.5583 37.28 32.7283 36.9 32.0983 36.28C31.4683 35.65 31.0883 34.81 31.0283 33.93C30.9883 33.34 31.0883 32.76 31.3183 32.23L22.7183 23.63C22.3283 23.24 22.3283 22.61 22.7183 22.22C23.1083 21.82 23.7383 21.82 24.1283 22.22L32.5783 30.66C32.6983 30.58 32.8183 30.5 32.9383 30.43C33.4083 30.18 33.9183 30.03 34.4483 29.99C34.9583 29.96 35.5083 30.03 35.9983 30.22C36.4983 30.4 36.9383 30.69 37.3183 31.06C37.6883 31.43 37.9783 31.88 38.1583 32.38C38.3483 32.88 38.4183 33.41 38.3783 33.93C38.3483 34.45 38.1983 34.97 37.9383 35.44C37.8683 35.56 37.7983 35.68 37.7183 35.8L43.4783 41.56C43.8683 41.95 43.8683 42.58 43.4783 42.97Z" fill="#FFD500"/>
<path d="M44.8284 41.43L39.5984 36.2C39.8384 35.68 39.9784 35.12 40.0184 34.56C40.0684 33.91 39.9684 33.22 39.7284 32.6C39.5084 31.99 39.1384 31.4 38.6684 30.93C38.1584 30.43 37.5884 30.08 36.9784 29.85C36.4884 29.66 35.8984 29.56 35.3184 29.56C35.2184 29.56 35.1184 29.56 35.0284 29.57C34.4484 29.61 33.8984 29.75 33.3784 29.99L25.4684 22.09C25.1084 21.71 24.5984 21.49 24.0584 21.49C23.5184 21.49 23.0184 21.71 22.6384 22.1C22.2684 22.46 22.0684 22.97 22.0684 23.5C22.0684 24.03 22.2684 24.53 22.6484 24.91L30.8084 33.07C30.6784 33.56 30.6384 34.07 30.6684 34.57C30.7484 35.7 31.2284 36.76 32.0284 37.56C32.8284 38.35 33.8884 38.83 35.0084 38.92C35.1284 38.92 35.2384 38.92 35.3384 38.92C35.7384 38.92 36.1384 38.87 36.5184 38.77L41.9884 44.24C42.3684 44.62 42.8784 44.83 43.4084 44.83C43.9384 44.83 44.4384 44.62 44.8284 44.24C45.5984 43.46 45.5984 42.2 44.8284 41.42V41.43ZM44.1184 43.54C43.9184 43.74 43.6684 43.84 43.4084 43.84C43.1484 43.84 42.8984 43.74 42.6984 43.54L36.7884 37.63C36.3284 37.83 35.8384 37.93 35.3384 37.93C35.2584 37.93 35.1684 37.93 35.0884 37.93C34.1984 37.86 33.3684 37.48 32.7384 36.86C32.1084 36.23 31.7284 35.39 31.6684 34.51C31.6284 33.92 31.7284 33.34 31.9584 32.81L23.3584 24.21C22.9684 23.82 22.9684 23.19 23.3584 22.8C23.5484 22.6 23.8084 22.5 24.0584 22.5C24.3084 22.5 24.5684 22.6 24.7684 22.8L33.2184 31.24C33.3384 31.16 33.4584 31.08 33.5784 31.01C34.0484 30.76 34.5584 30.61 35.0884 30.57H35.3184C35.7584 30.57 36.2184 30.64 36.6384 30.8C37.1384 30.98 37.5784 31.27 37.9584 31.64C38.3284 32.01 38.6184 32.46 38.7984 32.96C38.9884 33.46 39.0584 33.99 39.0184 34.51C38.9884 35.03 38.8384 35.55 38.5784 36.02C38.5084 36.14 38.4384 36.26 38.3584 36.38L44.1184 42.14C44.5084 42.53 44.5084 43.16 44.1184 43.55V43.54Z" fill="#272729"/>
<path d="M44.1179 43.54C43.9179 43.74 43.6679 43.84 43.4079 43.84C43.1479 43.84 42.8979 43.74 42.6979 43.54L36.7879 37.63C36.3279 37.83 35.8379 37.93 35.3379 37.93C35.2579 37.93 35.1679 37.93 35.0879 37.93C34.1979 37.86 33.3679 37.48 32.7379 36.86C32.1079 36.23 31.7279 35.39 31.6679 34.51C31.6279 33.92 31.7279 33.34 31.9579 32.81L23.3579 24.21C22.9679 23.82 22.9679 23.19 23.3579 22.8C23.5479 22.6 23.8079 22.5 24.0579 22.5C24.3079 22.5 24.5679 22.6 24.7679 22.8L33.2179 31.24C33.3379 31.16 33.4579 31.08 33.5779 31.01C34.0479 30.76 34.5579 30.61 35.0879 30.57H35.3179C35.7579 30.57 36.2179 30.64 36.6379 30.8C37.1379 30.98 37.5779 31.27 37.9579 31.64C38.3279 32.01 38.6179 32.46 38.7979 32.96C38.9879 33.46 39.0579 33.99 39.0179 34.51C38.9879 35.03 38.8379 35.55 38.5779 36.02C38.5079 36.14 38.4379 36.26 38.3579 36.38L44.1179 42.14C44.5079 42.53 44.5079 43.16 44.1179 43.55V43.54Z" fill="#F5370D"/>
</g>
<defs>
<clipPath id="clip0_1268_5822">
<rect width="56" height="56" fill="white" transform="translate(7.37793 5)"/>
</clipPath>
</defs>
</svg>
