<svg width="134" height="134" viewBox="0 0 134 134" fill="none" xmlns="http://www.w3.org/2000/svg">
<path d="M121.985 88.02V87.99C121.985 87.99 121.985 87.89 122.005 87.85V87.67C122.005 87.67 121.995 87.58 121.975 87.53C121.965 87.47 121.945 87.43 121.925 87.38C121.925 87.38 121.925 87.36 121.925 87.35C121.905 87.3 121.885 87.26 121.855 87.22C121.825 87.18 121.795 87.14 121.765 87.09C121.765 87.09 121.695 87 121.655 86.97H121.645C121.645 86.97 121.575 86.91 121.535 86.89C121.535 86.89 121.515 86.88 121.505 86.87C121.465 86.85 121.425 86.82 121.375 86.8L112.635 82.84C112.065 82.58 111.395 82.84 111.145 83.4C110.895 83.96 111.145 84.64 111.705 84.89L117.815 87.66L68.735 103.88L51.645 98.01C51.455 97.94 51.245 97.93 51.045 97.97L12.895 106.07C12.285 106.2 11.895 106.8 12.025 107.41C12.135 107.94 12.605 108.3 13.125 108.3C13.205 108.3 13.285 108.3 13.365 108.28L51.175 100.23L68.325 106.12C68.555 106.2 68.815 106.2 69.045 106.12L118.595 89.74L115.215 96.23C114.925 96.78 115.145 97.46 115.695 97.75C116.245 98.04 116.925 97.82 117.215 97.27L121.875 88.32C121.875 88.32 121.875 88.3 121.875 88.29C121.875 88.28 121.875 88.27 121.885 88.26C121.895 88.23 121.905 88.2 121.925 88.17C121.945 88.11 121.955 88.06 121.965 88.01H121.975L121.985 88.02Z" fill="white"/>
<path d="M17.0653 104.13C17.6853 104.13 18.1953 103.63 18.1953 103V93.1801C18.1953 91.9901 19.1653 91.0201 20.3553 91.0201H45.2953C45.5553 91.0201 45.7653 91.2301 45.7653 91.4901V95.2901C45.7653 95.9101 46.2653 96.4201 46.8953 96.4201C47.5253 96.4201 48.0253 95.9201 48.0253 95.2901V85.2501C48.0253 84.0601 48.9953 83.0901 50.1853 83.0901H75.1253C75.3853 83.0901 75.5953 83.3001 75.5953 83.5601V89.2501C75.5953 89.8701 76.0953 90.3801 76.7253 90.3801C77.3553 90.3801 77.8553 89.8801 77.8553 89.2501V77.9801C77.8553 76.7901 78.8253 75.8201 80.0153 75.8201H104.955C105.215 75.8201 105.425 76.0301 105.425 76.2901V87.8001C105.425 88.4201 105.925 88.9301 106.555 88.9301C107.185 88.9301 107.685 88.4301 107.685 87.8001V76.2901C107.685 74.7901 106.465 73.5601 104.955 73.5601H80.0153C77.5853 73.5601 75.6053 75.5401 75.6053 77.9701V80.8701C75.4553 80.8401 75.2953 80.8301 75.1353 80.8301H50.1953C47.7653 80.8301 45.7853 82.8101 45.7853 85.2401V88.8001C45.6353 88.7701 45.4753 88.7601 45.3153 88.7601H20.3553C17.9253 88.7601 15.9453 90.7401 15.9453 93.1701V102.99C15.9453 103.61 16.4453 104.12 17.0753 104.12H17.0653V104.13Z" fill="white"/>
<path d="M31.2854 56.05C26.5954 56.05 22.7754 59.8701 22.7754 64.5601C22.7754 69.2501 26.5954 73.07 31.2854 73.07C35.9754 73.07 39.7954 69.2501 39.7954 64.5601C39.7954 59.8701 35.9754 56.05 31.2854 56.05ZM31.2854 70.8101C27.8354 70.8101 25.0354 68.0101 25.0354 64.5601C25.0354 61.1101 27.8354 58.3 31.2854 58.3C34.7354 58.3 37.5354 61.1101 37.5354 64.5601C37.5354 68.0101 34.7354 70.8101 31.2854 70.8101Z" fill="white"/>
<path d="M37.5449 64.5601C37.5449 68.0101 34.7449 70.8101 31.2949 70.8101C27.8449 70.8101 25.0449 68.0101 25.0449 64.5601C25.0449 61.1101 27.8449 58.3 31.2949 58.3C34.7449 58.3 37.5449 61.1101 37.5449 64.5601Z" fill="#FFD300"/>
<path d="M31.2949 71.3101C27.5749 71.3101 24.5449 68.2801 24.5449 64.5601C24.5449 60.8401 27.5749 57.8 31.2949 57.8C35.0149 57.8 38.0449 60.8301 38.0449 64.5601C38.0449 68.2901 35.0149 71.3101 31.2949 71.3101ZM31.2949 58.8C28.1249 58.8 25.5449 61.3801 25.5449 64.5601C25.5449 67.7401 28.1249 70.3101 31.2949 70.3101C34.4649 70.3101 37.0449 67.7301 37.0449 64.5601C37.0449 61.3901 34.4649 58.8 31.2949 58.8Z" fill="#272729"/>
<path d="M47.5458 80.82H47.6158C48.2358 80.78 48.7058 80.25 48.6658 79.62C48.4658 76.42 49.0858 74.3 50.6958 72.75C50.8858 72.56 51.6458 71.91 52.5258 71.36C53.4458 70.79 54.4758 70.34 54.7958 70.24C56.1558 69.81 57.6058 69.61 59.5458 69.55L58.9058 77.2C58.8858 77.47 58.9558 77.74 59.1258 77.96L60.8858 80.36C61.0958 80.65 61.4358 80.82 61.7958 80.82H61.8358C62.2058 80.81 62.5558 80.61 62.7458 80.3L64.3958 77.68C64.5258 77.47 64.5858 77.22 64.5658 76.96L63.8158 69.56C69.1958 69.8 72.8058 73.01 72.8458 73.04C73.3058 73.46 74.0158 73.43 74.4358 72.97C74.8558 72.51 74.8258 71.8 74.3658 71.38C74.1858 71.22 69.9458 67.41 63.4658 67.3C59.0758 67.23 56.5558 67.33 54.1158 68.1C53.6158 68.26 52.4158 68.79 51.3458 69.46C50.3258 70.09 49.4558 70.84 49.1458 71.14C47.0458 73.16 46.1858 75.9 46.4258 79.77C46.4658 80.37 46.9558 80.83 47.5458 80.83V80.82ZM61.7258 77.68L61.1958 76.96L61.6958 70.97L62.2858 76.8L61.7258 77.69V77.68Z" fill="white"/>
<path d="M19.4338 87.87H19.5038C20.1238 87.83 20.5938 87.3 20.5638 86.67C20.3838 83.82 20.9338 81.94 22.3238 80.58C22.4938 80.41 23.1438 79.83 23.9138 79.35C24.7238 78.84 25.6138 78.45 25.8838 78.36C27.7538 77.75 29.8138 77.68 33.4538 77.74C36.9938 77.8 39.4438 79.5 40.5838 80.5C41.0538 80.91 41.7638 80.87 42.1738 80.4C42.5838 79.93 42.5338 79.22 42.0738 78.81C40.7038 77.6 37.7538 75.56 33.4938 75.49C29.6038 75.42 27.3638 75.51 25.1938 76.22C24.7438 76.37 23.6738 76.85 22.7138 77.45C21.8038 78.02 21.0338 78.7 20.7438 78.98C18.8638 80.82 18.0938 83.31 18.3138 86.82C18.3538 87.42 18.8438 87.88 19.4338 87.88V87.87Z" fill="white"/>
<path d="M98.4142 56.5601H87.1742C80.7742 56.5601 75.5742 61.7601 75.5742 68.1601V70.9001C75.5742 71.5201 76.0742 72.0301 76.7042 72.0301C77.3242 72.0201 77.8342 71.5201 77.8342 70.8901V68.1501C77.8342 63.9001 80.6842 60.3101 84.5742 59.1801L91.7542 71.7901C91.9442 72.1301 92.3142 72.3501 92.7042 72.3601H92.7342C93.1242 72.3601 93.4742 72.1601 93.6842 71.8401L101.614 59.3801C105.194 60.6901 107.754 64.1301 107.754 68.1601V70.9001C107.754 71.5201 108.254 72.0301 108.884 72.0301C109.514 72.0301 110.014 71.5301 110.014 70.9001V68.1601C110.014 61.7601 104.814 56.5601 98.4142 56.5601ZM89.8142 63.8401L86.9542 58.8201H90.3742L89.8142 63.8401ZM95.7142 64.4401L95.1042 58.8101H98.4042C98.6942 58.8101 98.9842 58.8201 99.2742 58.8501L95.7142 64.4401Z" fill="white"/>
<path d="M61.6654 45.6099C56.2154 45.6099 51.7754 50.0499 51.7754 55.4999C51.7754 60.9499 56.2154 65.3899 61.6654 65.3899C67.1154 65.3899 71.5554 60.9499 71.5554 55.4999C71.5554 50.0499 67.1154 45.6099 61.6654 45.6099ZM61.6654 63.1299C57.4554 63.1299 54.0354 59.7099 54.0354 55.4999C54.0354 51.2899 57.4554 47.8699 61.6654 47.8699C65.8754 47.8699 69.2954 51.2899 69.2954 55.4999C69.2954 59.7099 65.8754 63.1299 61.6654 63.1299Z" fill="white"/>
<path d="M61.6749 63.1301C65.8849 63.1301 69.3049 59.7101 69.3049 55.5001C69.3049 51.2901 65.8849 47.8701 61.6749 47.8701C57.4649 47.8701 54.0449 51.2901 54.0449 55.5001C54.0449 59.7101 57.4649 63.1301 61.6749 63.1301Z" fill="#FFD300" stroke="#272729" stroke-miterlimit="10"/>
<path d="M92.9053 32C86.5853 32 81.4453 37.14 81.4453 43.46C81.4453 49.78 86.5853 54.92 92.9053 54.92C99.2253 54.92 104.365 49.78 104.365 43.46C104.365 37.14 99.2253 32 92.9053 32ZM92.9053 52.66C87.8253 52.66 83.6953 48.53 83.6953 43.46C83.6953 38.39 87.8253 34.26 92.9053 34.26C97.9853 34.26 102.105 38.38 102.105 43.46C102.105 48.54 97.9753 52.66 92.9053 52.66Z" fill="white"/>
<path d="M102.105 43.46C102.105 48.53 97.9753 52.66 92.9053 52.66C87.8353 52.66 83.6953 48.53 83.6953 43.46C83.6953 38.39 87.8253 34.26 92.9053 34.26C97.9853 34.26 102.105 38.38 102.105 43.46Z" fill="#FFD300"/>
<path d="M92.9053 53.16C87.5553 53.16 83.1953 48.81 83.1953 43.46C83.1953 38.11 87.5553 33.76 92.9053 33.76C98.2553 33.76 102.605 38.11 102.605 43.46C102.605 48.81 98.2553 53.16 92.9053 53.16ZM92.9053 34.76C88.1053 34.76 84.1953 38.66 84.1953 43.46C84.1953 48.26 88.1053 52.16 92.9053 52.16C97.7053 52.16 101.605 48.26 101.605 43.46C101.605 38.66 97.7053 34.76 92.9053 34.76Z" fill="#272729"/>
<path d="M92.8039 72.13C92.5139 72.13 92.2439 71.97 92.1039 71.72L90.5039 68.91V68.67L91.7839 57.27H93.4639L95.0239 68.73L94.9439 68.94L93.5339 71.69C93.3939 71.96 93.1239 72.13 92.8239 72.13H92.8039Z" fill="#F5370D"/>
<path d="M92.9738 57.82L94.4438 68.64C94.4438 68.64 94.4438 68.68 94.4338 68.7L93.0237 71.44C92.9737 71.53 92.8838 71.58 92.7938 71.58C92.7038 71.58 92.6238 71.54 92.5738 71.45L91.0538 68.79C91.0538 68.79 91.0338 68.75 91.0438 68.72L92.2638 57.81H92.9738M93.9238 56.72H91.2838L91.1738 57.69L89.9537 68.6C89.9237 68.85 89.9738 69.11 90.1038 69.33L91.6238 71.99C91.8638 72.41 92.3138 72.67 92.7938 72.67C93.3038 72.67 93.7638 72.39 93.9938 71.94L95.4038 69.2C95.5138 68.98 95.5637 68.73 95.5237 68.49L94.0538 57.67L93.9238 56.72Z" fill="#272729"/>
<path d="M61.7862 80.4898C61.5362 80.4898 61.3162 80.3598 61.1962 80.1398L59.8262 77.7398V77.5298L60.9162 67.8198H62.3462L63.6762 77.5998L63.5962 77.7898L62.3962 80.1198C62.2762 80.3498 62.0462 80.4898 61.7862 80.4898Z" fill="#F5370D"/>
<path d="M61.936 68.2899L63.186 77.5199C63.186 77.5199 63.186 77.5599 63.186 77.5799L61.986 79.9099C61.946 79.9899 61.866 80.0299 61.786 80.0299C61.706 80.0299 61.636 79.9899 61.596 79.9199L60.306 77.6499C60.306 77.6499 60.2961 77.6099 60.2961 77.5899L61.3361 68.2899H61.946M62.756 67.3599H60.506L60.416 68.1899L59.376 77.4899C59.356 77.7099 59.396 77.9199 59.506 78.1099L60.7961 80.3799C60.9961 80.7399 61.3861 80.9599 61.7961 80.9599C62.2261 80.9599 62.6261 80.7199 62.8161 80.3399L64.016 78.0099C64.116 77.8199 64.146 77.6099 64.116 77.3999L62.8661 68.1699L62.756 67.3599Z" fill="#272729"/>
</svg>
