<svg width="134" height="134" viewBox="0 0 134 134" fill="none" xmlns="http://www.w3.org/2000/svg">
<path d="M78.3598 73.8218C74.9983 68.2201 62.7129 47.1591 62.7129 38.6255C62.7129 30.0919 69.7324 22.9761 78.3598 22.9761C86.9873 22.9761 94.0092 29.9956 94.0092 38.6255C94.0092 47.2554 81.7214 68.2201 78.3598 73.8218Z" fill="#FFD405"/>
<path d="M78.3595 23.9642C86.4436 23.9642 93.021 30.5416 93.021 38.6257C93.021 45.7094 83.6081 63.0532 78.3595 71.9078C73.1109 63.0556 63.7005 45.7119 63.7005 38.6257C63.7005 30.5416 70.2755 23.9642 78.3595 23.9642ZM78.3595 21.9883C69.1714 21.9883 61.7246 29.4376 61.7246 38.6257C61.7246 48.8585 78.3595 75.7263 78.3595 75.7263C78.3595 75.7263 94.9969 48.8585 94.9969 38.6257C94.9969 29.4376 87.5476 21.9883 78.3595 21.9883Z" fill="#010101"/>
<path d="M101.868 113.723H91.6403C91.0945 113.723 90.6523 113.281 90.6523 112.735V74.2958C90.6523 73.75 91.0945 73.3079 91.6403 73.3079H106.013C106.559 73.3079 107.001 73.75 107.001 74.2958V108.591C107.001 111.421 104.699 113.723 101.868 113.723ZM92.6283 111.747H101.868C103.61 111.747 105.025 110.332 105.025 108.591V75.2838H92.6283V111.747Z" fill="white"/>
<path d="M45.4775 113.723H32.1325C29.302 113.723 27 111.421 27 108.591V60.1113C27 57.2807 29.302 54.9788 32.1325 54.9788H45.475C46.0208 54.9788 46.463 55.4209 46.463 55.9667V112.738C46.463 113.284 46.0208 113.726 45.475 113.726L45.4775 113.723ZM32.1325 56.9547C30.3912 56.9547 28.9759 58.3724 28.9759 60.1113V108.591C28.9759 110.332 30.3912 111.747 32.1325 111.747H44.487V56.9547H32.1325Z" fill="white"/>
<path d="M91.6385 113.723H45.4782C44.9323 113.723 44.4902 113.281 44.4902 112.735C44.4902 112.189 44.9323 111.747 45.4782 111.747H91.6385C92.1844 111.747 92.6265 112.189 92.6265 112.735C92.6265 113.281 92.1844 113.723 91.6385 113.723Z" fill="white"/>
<path d="M59.9248 56.9547H45.4782C44.9323 56.9547 44.4902 56.5126 44.4902 55.9667C44.4902 55.4209 44.9323 54.9788 45.4782 54.9788H59.9248C60.4706 54.9788 60.9127 55.4209 60.9127 55.9667C60.9127 56.5126 60.4706 56.9547 59.9248 56.9547Z" fill="white"/>
<path d="M106.007 75.284C105.461 75.284 105.019 74.8419 105.019 74.296V59.9186C105.019 58.2835 103.69 56.9547 102.055 56.9547H96.5524C96.0066 56.9547 95.5645 56.5126 95.5645 55.9667C95.5645 55.4209 96.0066 54.9788 96.5524 54.9788H102.055C104.78 54.9788 106.995 57.1943 106.995 59.9186V74.296C106.995 74.8419 106.553 75.284 106.007 75.284Z" fill="white"/>
<path d="M57.1429 70.2552H27.988C27.4421 70.2552 27 69.8131 27 69.2673C27 68.7214 27.4421 68.2793 27.988 68.2793H57.1429C57.6887 68.2793 58.1309 68.7214 58.1309 69.2673C58.1309 69.8131 57.6887 70.2552 57.1429 70.2552Z" fill="white"/>
<path d="M91.6352 88.1644H81.6716C81.1257 88.1644 80.6836 87.7223 80.6836 87.1764C80.6836 86.6306 81.1257 86.1885 81.6716 86.1885H91.6352C92.1811 86.1885 92.6232 86.6306 92.6232 87.1764C92.6232 87.7223 92.1811 88.1644 91.6352 88.1644Z" fill="white"/>
<path d="M63.6403 113.723C63.0945 113.723 62.6523 113.281 62.6523 112.735V82.4468C62.6523 82.18 62.7585 81.9281 62.9487 81.7404L68.4986 76.3016C68.8889 75.9188 69.5138 75.9262 69.8966 76.3164C70.2795 76.7067 70.272 77.3316 69.8818 77.7144L64.6283 82.8617V112.735C64.6283 113.281 64.1862 113.723 63.6403 113.723Z" fill="white"/>
<path d="M63.6395 98.2789H45.4782C44.9323 98.2789 44.4902 97.8368 44.4902 97.2909C44.4902 96.7451 44.9323 96.303 45.4782 96.303H63.6395C64.1854 96.303 64.6275 96.7451 64.6275 97.2909C64.6275 97.8368 64.1854 98.2789 63.6395 98.2789Z" fill="white"/>
<path d="M85.4487 38.625C85.4487 42.5374 82.2773 45.7087 78.365 45.7087C74.4526 45.7087 71.2812 42.5374 71.2812 38.625C71.2812 34.7127 74.4526 31.5388 78.365 31.5388C82.2773 31.5388 85.4487 34.7127 85.4487 38.625Z" fill="#E73D1C"/>
<path d="M78.3651 76.714C78.0217 76.714 77.7056 76.5361 77.5253 76.2472C76.8411 75.1406 60.7422 49.0212 60.7422 38.6253C60.7422 28.9062 68.6484 21 78.3651 21C88.0817 21 95.9904 28.9062 95.9904 38.6253C95.9904 49.0188 79.8915 75.1382 79.2048 76.2472C79.0245 76.5386 78.7059 76.714 78.3651 76.714ZM78.3651 22.9759C69.7376 22.9759 62.7181 29.9954 62.7181 38.6253C62.7181 47.2552 75.0035 68.2199 78.3651 73.8217C81.7266 68.2199 94.0145 47.1589 94.0145 38.6253C94.0145 30.0918 86.995 22.9759 78.3651 22.9759Z" fill="white"/>
<path d="M78.3648 46.2031C74.1857 46.2031 70.7871 42.8045 70.7871 38.6254C70.7871 34.4462 74.1857 31.0452 78.3648 31.0452C82.5439 31.0452 85.9425 34.4462 85.9425 38.6254C85.9425 42.8045 82.5439 46.2031 78.3648 46.2031ZM78.3648 32.0331C74.7316 32.0331 71.7751 34.9896 71.7751 38.6254C71.7751 42.2611 74.7316 45.2151 78.3648 45.2151C81.9981 45.2151 84.9546 42.2586 84.9546 38.6254C84.9546 34.9921 81.9981 32.0331 78.3648 32.0331Z" fill="#010101"/>
</svg>
