<svg width="67" height="67" viewBox="0 0 67 67" fill="none" xmlns="http://www.w3.org/2000/svg">
<path d="M32.6101 37.166C38.9779 37.166 44.1401 32.0038 44.1401 25.636C44.1401 19.2681 38.9779 14.106 32.6101 14.106C26.2422 14.106 21.0801 19.2681 21.0801 25.636C21.0801 32.0038 26.2422 37.166 32.6101 37.166Z" fill="#FFD300"/>
<path d="M32.5 28.9961C30.5658 28.9961 29 27.4226 29 25.4961C29 23.5696 30.5735 21.9961 32.5 21.9961C34.4265 21.9961 36 23.5696 36 25.4961C36 27.4226 34.4265 28.9961 32.5 28.9961Z" fill="#F5370D"/>
<path d="M53.79 15.1062C53.31 15.3162 53.1 15.8762 53.31 16.3562C57.13 24.8962 55.26 35.0762 48.64 41.6862C39.79 50.5362 25.39 50.5362 16.54 41.6862C12.25 37.4062 9.89 31.7062 9.89 25.6362C9.89 19.5662 12.25 13.8762 16.54 9.58617C23.13 2.99617 33.28 1.10617 41.8 4.88617C42.28 5.09617 42.84 4.88617 43.05 4.40617C43.26 3.92617 43.05 3.36617 42.57 3.15617C38.08 1.16617 33.14 0.566173 28.28 1.42617C23.31 2.30617 18.79 4.66617 15.2 8.24617C10.56 12.8962 8 19.0662 8 25.6362C8 32.2062 10.56 38.3862 15.2 43.0262C20 47.8262 26.29 50.2162 32.59 50.2162C38.89 50.2162 45.19 47.8162 49.98 43.0262C53.57 39.4362 55.94 34.8962 56.81 29.9062C57.66 25.0362 57.05 20.0762 55.04 15.5762C54.83 15.0962 54.26 14.8862 53.79 15.0962V15.1062Z" fill="white"/>
<path d="M33.8805 20.456C34.3905 20.586 34.9005 20.276 35.0305 19.766C35.1605 19.256 34.8505 18.746 34.3405 18.616C31.8905 18.006 29.2605 18.736 27.4705 20.526C24.6505 23.346 24.6505 27.936 27.4705 30.766C28.8805 32.176 30.7405 32.886 32.5905 32.886C34.4405 32.886 36.3005 32.186 37.7105 30.776C39.5205 28.966 40.2405 26.296 39.5905 23.816C39.4605 23.306 38.9405 23.006 38.4305 23.136C37.9205 23.266 37.6205 23.786 37.7505 24.296C38.2305 26.126 37.7005 28.096 36.3605 29.436C34.2805 31.516 30.8905 31.516 28.8005 29.436C26.7205 27.356 26.7205 23.966 28.8005 21.876C30.1405 20.536 32.0305 20.016 33.8705 20.466L33.8805 20.456Z" fill="#272729"/>
<path d="M39.4913 12.3563C39.7013 11.8763 39.4913 11.3163 39.0113 11.1063C32.9613 8.4463 26.0413 9.7363 21.3612 14.4063C15.1712 20.5963 15.1712 30.6763 21.3612 36.8663C24.4612 39.9663 28.5212 41.5063 32.5913 41.5063C36.6613 41.5063 40.7313 39.9563 43.8213 36.8663C48.4513 32.2363 49.7613 25.1063 47.0913 19.1363C46.8813 18.6563 46.3113 18.4463 45.8413 18.6563C45.3613 18.8663 45.1513 19.4263 45.3613 19.9063C47.7213 25.1663 46.5613 31.4363 42.4813 35.5163C39.7513 38.2463 36.1712 39.6063 32.5913 39.6063C29.0113 39.6063 25.4312 38.2463 22.7013 35.5163C17.2513 30.0663 17.2513 21.1863 22.7013 15.7363C26.8113 11.6263 32.9113 10.4763 38.2413 12.8263C38.7213 13.0363 39.2813 12.8263 39.4913 12.3463V12.3563Z" fill="white"/>
<path d="M57.9505 5.82624C57.8305 5.48624 57.5305 5.23624 57.1705 5.18624L53.3805 4.69624L52.8105 0.806243C52.7505 0.456243 52.5105 0.156243 52.1705 0.0462432C51.8305 -0.0637568 51.4505 0.0262432 51.2005 0.276243L42.3005 9.17624C42.0805 9.39624 41.9805 9.70624 42.0405 10.0062L42.7305 14.0162L32.3105 25.5262L32.6405 25.8962L44.0805 15.3462L48.0105 15.9662C48.3105 16.0162 48.6105 15.9162 48.8305 15.6962L57.7305 6.80624C57.9805 6.54624 58.0705 6.16624 57.9505 5.82624ZM47.8305 14.0162H47.8205L44.5705 13.5062L43.9905 10.1662L51.2105 2.94624L51.6105 5.67624C51.6705 6.09624 52.0105 6.41624 52.4305 6.47624L55.0205 6.81624L47.8305 14.0162Z" fill="white"/>
</svg>
