<svg width="67" height="67" viewBox="0 0 67 67" fill="none" xmlns="http://www.w3.org/2000/svg">
<g clip-path="url(#clip0_1674_13)">
<path d="M63.6088 15.7908L54.7029 1.28285C54.3281 0.667516 53.7356 0.242849 53.0384 0.0781826C52.3413 -0.0864841 51.618 0.0261826 51.008 0.398849L48.0887 2.21018C47.47 2.58285 47.0517 3.18085 46.8861 3.87418C46.86 3.99552 46.8338 4.11685 46.8251 4.23818L41.2828 5.72885L35.6273 4.19485C33.5533 3.63152 31.3834 3.90018 29.5186 4.95752L26.0067 6.95085C25.9283 6.88152 25.8411 6.82085 25.7366 6.76885C23.9501 5.91952 22.0591 5.56418 20.2204 5.21752C20.1856 5.20885 20.1507 5.20885 20.1158 5.20885C20.2291 4.77552 20.2378 4.32485 20.1333 3.87418C19.9764 3.18085 19.5407 2.59152 18.9394 2.21018L16.0114 0.398849C15.3927 0.0261826 14.6781 -0.0864841 13.981 0.0781826C13.2838 0.242849 12.6913 0.667516 12.3166 1.28285L3.40185 15.7908C2.62627 17.0475 3.01842 18.7115 4.28199 19.4915L7.20999 21.2942C7.6457 21.5628 8.12499 21.6929 8.60427 21.6929C8.64785 21.6929 8.6827 21.6842 8.71756 21.6842C9.25785 22.4555 9.85913 23.1748 10.5127 23.8335L9.98113 24.6048C9.51056 25.2722 9.32756 26.0868 9.46699 26.8929C9.60642 27.7075 10.0596 28.4095 10.7306 28.8775L11.0007 29.0682C11.5236 29.4322 12.1248 29.6229 12.7436 29.6229C12.9266 29.6229 13.1096 29.6055 13.2838 29.5795C13.4058 29.5535 13.5278 29.5275 13.6411 29.4928C13.5017 29.9608 13.4668 30.4635 13.5627 30.9662C13.7108 31.8155 14.1814 32.5522 14.8873 33.0548C15.4363 33.4362 16.0724 33.6355 16.726 33.6355C16.9177 33.6355 17.1094 33.6268 17.3011 33.5922C17.3621 33.5748 17.4318 33.5575 17.5016 33.5402C17.4928 33.7655 17.5016 33.9908 17.5451 34.2162C17.6846 35.0308 18.1377 35.7328 18.8 36.2009C19.3228 36.5648 19.9328 36.7555 20.5516 36.7555C20.7346 36.7555 20.9088 36.7382 21.0918 36.7122C21.6321 36.6169 22.1288 36.3742 22.5384 36.0275C22.7563 36.5562 23.1223 37.0155 23.6016 37.3535C24.1244 37.7175 24.7257 37.9169 25.3531 37.9169C25.5274 37.9169 25.7104 37.8995 25.8847 37.8648C26.6951 37.7262 27.3923 37.2755 27.8628 36.5995L28.0633 36.3222C28.133 36.4348 28.2288 36.5475 28.3421 36.6342L30.1808 38.0555C30.9041 38.6708 31.793 39.0002 32.7341 39.0002C32.83 39.0002 32.9258 39.0002 33.013 38.9915C34.0674 38.9222 35.026 38.4369 35.7144 37.6395C35.9323 37.3882 36.1153 37.1195 36.2634 36.8249C37.832 37.6049 39.7927 37.2582 40.9953 35.8715C41.3003 35.5162 41.5443 35.1175 41.7011 34.6928C42.2763 34.9355 42.895 35.0395 43.5311 34.9962C44.5856 34.9268 45.5441 34.4415 46.2326 33.6442C46.6857 33.1242 46.982 32.5088 47.1214 31.8588C47.4003 31.8935 47.6878 31.9109 47.9754 31.8848C49.0298 31.8155 49.9884 31.3302 50.6768 30.5415C51.3653 29.7442 51.7051 28.7215 51.6354 27.6728C51.5744 26.7802 51.2258 25.9569 50.642 25.3069C51.801 24.9082 53.0558 24.4228 54.1974 23.7555C55.3913 23.0535 56.3324 22.2128 56.9773 21.2768C57.4043 21.5455 57.901 21.6929 58.3977 21.6929C58.8944 21.6929 59.365 21.5628 59.8007 21.2942L62.7287 19.4915C63.9923 18.7115 64.3844 17.0475 63.6088 15.7908ZM8.93542 19.2055C8.82213 19.3875 8.58685 19.4482 8.40385 19.3355L5.47585 17.5242C5.29285 17.4115 5.24056 17.1775 5.35385 16.9955L14.2686 2.48752C14.3383 2.37485 14.4516 2.33152 14.5038 2.31418C14.5648 2.30552 14.6781 2.28818 14.7914 2.36618L17.7194 4.16885C17.8414 4.24685 17.8763 4.35085 17.8937 4.41152C17.9024 4.46352 17.9198 4.57618 17.8414 4.69752L8.93542 19.2055ZM14.9221 24.7868L13.3797 26.9968C13.2664 27.1615 13.0921 27.2742 12.883 27.3088C12.6826 27.3435 12.4821 27.3088 12.3166 27.1789L12.0464 26.9968C11.8808 26.8755 11.7676 26.7022 11.7327 26.5028C11.6978 26.3035 11.7414 26.0955 11.8547 25.9308L13.3971 23.7208C13.5191 23.5475 13.6934 23.4348 13.8938 23.4002C14.0943 23.3655 14.3034 23.4002 14.469 23.5302L14.7391 23.7208C15.079 23.9635 15.1661 24.4402 14.9221 24.7868ZM17.5016 30.9315C17.3534 31.1395 17.1443 31.2782 16.9003 31.3215C16.6476 31.3648 16.4036 31.3042 16.2031 31.1655C15.994 31.0268 15.8633 30.8102 15.8197 30.5675C15.7761 30.3162 15.8371 30.0735 15.9766 29.8655L19.7586 24.4488C19.9328 24.1888 20.2291 24.0502 20.5167 24.0502C20.6997 24.0502 20.8914 24.1022 21.0483 24.2148C21.4666 24.5095 21.5711 25.0902 21.2748 25.5149L17.5016 30.9315ZM21.1877 34.1295C21.0657 34.2942 20.8914 34.4069 20.691 34.4415C20.4906 34.4849 20.2901 34.4328 20.1246 34.3202C19.9503 34.1988 19.8457 34.0255 19.8021 33.8175C19.7673 33.6182 19.8108 33.4188 19.9328 33.2455L24.5253 26.6588C24.7693 26.3209 25.2486 26.2342 25.5971 26.4768C25.7627 26.5895 25.876 26.7715 25.9108 26.9708C25.9457 27.1702 25.9021 27.3695 25.7801 27.5429L21.1877 34.1295ZM28.0546 32.3095L25.9806 35.2822C25.8673 35.4468 25.693 35.5595 25.4838 35.5942C25.2834 35.6375 25.083 35.5942 24.9174 35.4729C24.7518 35.3515 24.6386 35.1782 24.6037 34.9702C24.5688 34.7708 24.6124 34.5715 24.7257 34.3982L26.7997 31.4342C26.9217 31.2608 27.096 31.1482 27.2964 31.1135C27.34 31.1049 27.3836 31.1048 27.4271 31.1048C27.584 31.1048 27.7408 31.1482 27.8716 31.2348C28.0371 31.3562 28.1504 31.5295 28.1853 31.7288C28.2201 31.9368 28.1766 32.1362 28.0546 32.3095ZM48.9514 29.0335H48.9427C48.6551 29.3629 48.2543 29.5622 47.8186 29.5969C47.3828 29.6229 46.9558 29.4842 46.6334 29.1982C46.6334 29.1982 46.6276 29.1924 46.616 29.1808H46.6073L38.4071 22.3428C37.9191 21.9355 37.1958 22.0049 36.795 22.4902C36.3854 22.9842 36.4551 23.7035 36.9431 24.1108L44.8731 30.7235C44.969 31.2262 44.8383 31.7462 44.4984 32.1448C44.2108 32.4742 43.81 32.6735 43.3743 32.7082C42.9386 32.7342 42.5116 32.5955 42.1804 32.3008L41.4746 31.6942L34.355 25.5495C33.8757 25.1422 33.1524 25.1942 32.7341 25.6709C32.3246 26.1562 32.3768 26.8842 32.8561 27.3002L39.662 33.1675C39.6881 33.6095 39.5574 34.0342 39.2611 34.3722C38.6686 35.0569 37.6228 35.1348 36.9431 34.5368L36.2808 33.9562L32.8997 31.0182C32.4204 30.6022 31.6884 30.6628 31.2788 31.1395C30.8606 31.6248 30.9128 32.3442 31.3921 32.7689L34.3637 35.3342C34.3114 35.6288 34.1894 35.9149 33.989 36.1402C33.3877 36.8335 32.3507 36.9028 31.6623 36.3048C31.6448 36.2875 31.6274 36.2702 31.61 36.2615L29.7451 34.8142C29.597 34.7102 29.4401 34.6409 29.2658 34.6062L29.9368 33.6355C30.4074 32.9682 30.5904 32.1535 30.451 31.3475C30.3028 30.5328 29.8584 29.8309 29.1874 29.3629C28.743 29.0508 28.2288 28.8688 27.6973 28.8168C28.1417 28.1582 28.3073 27.3608 28.1678 26.5808C28.0284 25.7662 27.5753 25.0642 26.913 24.5962C26.242 24.1282 25.4228 23.9462 24.6211 24.0849C24.29 24.1455 23.9763 24.2582 23.6887 24.4142C23.5406 23.5995 23.0874 22.8542 22.3641 22.3428C20.9088 21.3202 18.8958 21.6755 17.8676 23.1402L17.3273 23.9289C17.2053 23.1142 16.7783 22.3428 16.055 21.8402L15.7848 21.6495C15.1138 21.1815 14.3034 20.9995 13.493 21.1382C12.883 21.2508 12.3253 21.5368 11.8896 21.9702C11.4887 21.5368 11.114 21.0862 10.7654 20.6095C10.809 20.5488 10.8526 20.4882 10.8961 20.4275L19.0963 7.06352C19.2706 7.28018 19.5058 7.44485 19.7934 7.49685C21.0396 7.73085 22.3206 7.96485 23.5144 8.37218C22.6866 8.84885 21.9633 9.50752 21.4143 10.2875L17.7978 15.4268C17.4754 15.8948 17.5277 16.5189 17.9373 16.9175C19.9851 18.9282 22.6343 19.3702 25.5971 18.2175C26.2246 17.9662 26.8084 17.5675 27.2964 17.0475L29.4663 14.7248C29.8758 14.2828 30.3987 13.9535 30.9826 13.7715L32.83 13.1735C32.8997 13.1562 32.9781 13.1475 33.0566 13.1735C33.1263 13.1908 33.196 13.2255 33.257 13.2688L48.7858 26.7195C49.117 27.0142 49.3174 27.4129 49.3523 27.8462C49.3784 28.2882 49.239 28.7128 48.9514 29.0422V29.0335ZM53.0384 21.7622C51.8097 22.4902 50.3457 22.9928 49.0647 23.4088C48.934 23.4522 48.8207 23.5215 48.7161 23.5995L34.7558 11.5095C34.3986 11.2062 33.9803 10.9982 33.5271 10.9028C33.0653 10.8075 32.5773 10.8248 32.1328 10.9722L30.2767 11.5702C29.3356 11.8735 28.4728 12.4195 27.7931 13.1388L25.6146 15.4615C25.3618 15.7302 25.0743 15.9382 24.7606 16.0595C22.9828 16.7528 21.545 16.7008 20.2901 15.8688L23.2878 11.6048C23.6538 11.0935 24.1244 10.6602 24.6734 10.3482L30.6427 6.95952C31.9847 6.20552 33.5358 6.00618 35.026 6.41352L40.9778 8.02552C41.1783 8.07752 41.3787 8.07752 41.5791 8.02552L47.531 6.43085L55.4523 19.3355C55.0688 20.2195 54.2323 21.0602 53.0384 21.7622ZM61.5261 17.5328L58.5981 19.3355C58.4151 19.4482 58.1798 19.3962 58.0666 19.2142L49.1606 4.70618C49.0821 4.58485 49.0996 4.47218 49.1083 4.41152C49.1257 4.35952 49.1693 4.24685 49.2826 4.17752L52.2106 2.37485C52.2803 2.33152 52.35 2.31418 52.411 2.31418C52.4458 2.31418 52.4807 2.32285 52.4981 2.32285C52.5591 2.34018 52.6637 2.38352 52.7334 2.49618L61.6394 17.0042C61.7527 17.1862 61.7004 17.4115 61.5261 17.5328Z" fill="white"/>
<path d="M58.3882 19.8207C58.1007 19.8207 57.8479 19.6734 57.6911 19.4307L48.7851 4.9314C48.6195 4.68007 48.6631 4.42874 48.6718 4.34207C48.7764 4.01274 48.9332 3.87407 49.0465 3.80474L51.9745 2.00207C52.1052 1.92407 52.2534 1.87207 52.4015 1.87207H52.5235L52.5845 1.88074L52.6107 1.89807C52.8198 1.95874 52.9854 2.08007 53.0987 2.26207L62.0047 16.7701C62.2399 17.1427 62.1354 17.6194 61.7694 17.8794L58.8239 19.6994C58.6932 19.7774 58.5451 19.8207 58.3882 19.8207Z" fill="#FFD500"/>
<path d="M52.4102 2.31405C52.4102 2.31405 52.4799 2.32272 52.4973 2.32272C52.5583 2.34005 52.6629 2.38339 52.7326 2.49605L61.6386 17.0041C61.7519 17.1861 61.6996 17.4114 61.5253 17.5327L58.5973 19.3354C58.5363 19.3787 58.4579 19.3961 58.3882 19.3961C58.2575 19.3961 58.1355 19.3354 58.0658 19.2141L49.1598 4.70605C49.0813 4.58472 49.0988 4.47205 49.1075 4.41139C49.1249 4.35939 49.1685 4.24672 49.2818 4.17739L52.2098 2.37472C52.2795 2.33139 52.3492 2.31405 52.4102 2.31405ZM52.4102 1.44739C52.1836 1.44739 51.9483 1.51672 51.7479 1.63805L48.8199 3.44072C48.6456 3.54472 48.4016 3.76139 48.2796 4.13405L48.2535 4.21205V4.29005C48.1925 4.61939 48.2535 4.91405 48.4278 5.17405L57.3251 19.6647C57.5603 20.0374 57.9525 20.2627 58.3969 20.2627C58.6322 20.2627 58.8588 20.1934 59.0592 20.0721L61.9872 18.2694H62.0046L62.0221 18.2434C62.5711 17.8621 62.7279 17.1167 62.3793 16.5447L53.4733 2.03672C53.3078 1.76805 53.0463 1.56872 52.7326 1.48205L52.6193 1.44739H52.5496C52.5061 1.44739 52.4625 1.43872 52.4102 1.43872V1.44739Z" fill="#272729"/>
<path d="M8.6098 19.8206C8.46165 19.8206 8.31351 19.7773 8.1828 19.6993L5.2548 17.8879C4.87137 17.6539 4.74937 17.1513 4.99337 16.7613L13.8907 2.25328C13.9952 2.07995 14.1608 1.95861 14.3612 1.88928C14.4745 1.86328 14.5268 1.86328 14.5878 1.86328C14.7534 1.86328 14.9015 1.90661 15.0322 2.00195L17.9428 3.79595C18.2129 3.96928 18.2827 4.20328 18.3088 4.28995C18.3524 4.55861 18.3088 4.75795 18.2042 4.93128L9.7078 18.7719L9.30694 19.4306C9.1588 19.6733 8.88865 19.8206 8.6098 19.8206Z" fill="#FFD500"/>
<path d="M14.5865 2.30527C14.6475 2.30527 14.7172 2.31393 14.7869 2.36593L17.7149 4.1686C17.8369 4.2466 17.8718 4.3506 17.8892 4.41127C17.8979 4.46326 17.9153 4.57593 17.8369 4.69726L8.9309 19.2053C8.85247 19.3266 8.73047 19.3959 8.59975 19.3959C8.53004 19.3959 8.46032 19.3786 8.39932 19.3353L5.47132 17.5239C5.28832 17.4113 5.23604 17.1773 5.34932 16.9953L14.264 2.48726C14.3338 2.3746 14.447 2.33127 14.4993 2.31393C14.5255 2.31393 14.5516 2.31393 14.5865 2.31393M14.5865 1.44726C14.4993 1.44726 14.4296 1.44727 14.3773 1.4646H14.2989L14.2205 1.49927C13.837 1.62927 13.6279 1.86326 13.5146 2.0366L4.60861 16.5359C4.43432 16.8133 4.38204 17.1513 4.45175 17.4719C4.53018 17.8013 4.73061 18.0786 5.01818 18.2519L7.94618 20.0633C8.14661 20.1846 8.37318 20.2539 8.60847 20.2539C9.04418 20.2539 9.44504 20.0286 9.68032 19.6559L10.4995 18.3299H10.482L18.5776 5.14793C18.6822 4.98326 18.8129 4.67126 18.7432 4.26393V4.21193L18.7258 4.1686C18.6386 3.8566 18.4556 3.60526 18.1855 3.43193L15.2575 1.62926C15.057 1.49926 14.8305 1.42993 14.5865 1.42993V1.44726Z" fill="#272729"/>
</g>
<defs>
<clipPath id="clip0_1674_13">
<rect width="61" height="39" fill="white" transform="translate(3)"/>
</clipPath>
</defs>
</svg>
