<svg width="67" height="67" viewBox="0 0 67 67" fill="none" xmlns="http://www.w3.org/2000/svg">
<g clip-path="url(#clip0_1280_18874)">
<path d="M62.3139 32.6469L58.0267 31.5811C57.9273 31.1627 57.8178 30.7444 57.6885 30.3459C57.5493 29.9176 57.3901 29.5092 57.2111 29.1008L60.0857 25.6644C60.3742 25.3157 60.3643 24.8177 60.0658 24.479L57.3404 21.4111C57.042 21.0924 56.5745 21.0226 56.1965 21.2418L52.4067 23.5228C51.6706 23.0546 50.8948 22.6662 50.0791 22.3474L49.6912 17.875C49.6514 17.4268 49.2933 17.0782 48.8457 17.0483L44.7475 16.8192C44.3099 16.7893 43.9219 17.0782 43.8225 17.5065L42.7482 21.7996C42.3304 21.8892 41.9127 22.0088 41.5148 22.1383C41.0871 22.2777 40.6792 22.4371 40.2714 22.6164L36.8397 19.7377C36.4916 19.4488 35.9942 19.4488 35.656 19.7477L32.5924 22.4869C32.2741 22.7757 32.2044 23.2539 32.4233 23.6324L34.7011 27.4274C34.2336 28.1645 33.8357 28.9415 33.5274 29.7483L29.0612 30.1467C28.6136 30.1866 28.2655 30.5452 28.2356 30.9934L28.0068 35.0972C27.9869 35.5355 28.2754 35.924 28.6932 36.0236L32.9803 37.0994C33.0798 37.5177 33.1892 37.9261 33.3185 38.3345C33.4578 38.7528 33.6169 39.1712 33.796 39.5796L30.9213 43.0161C30.6328 43.3547 30.6328 43.8627 30.9412 44.2014L33.6666 47.2594C33.9551 47.5881 34.4326 47.6578 34.8105 47.4387L38.6003 45.1576C39.3364 45.6258 40.1123 46.0143 40.918 46.333L41.3158 50.7954C41.3556 51.2437 41.7137 51.6023 42.1613 51.6222L46.2595 51.8612H46.3092C46.727 51.8612 47.0851 51.5724 47.1845 51.174L48.2588 46.8709C48.6766 46.7812 49.0844 46.6717 49.4922 46.5322C49.91 46.4027 50.3278 46.2434 50.7356 46.0541L54.1673 48.9427C54.5055 49.2316 55.0128 49.2216 55.351 48.9228L58.4047 46.1836C58.733 45.8947 58.8026 45.4166 58.5838 45.0481L56.3059 41.253C56.7734 40.5159 57.1613 39.739 57.4796 38.9222L61.9458 38.5337C62.3835 38.4939 62.7416 38.1353 62.7615 37.6771L63.0002 33.5832C63.0201 33.1449 62.7316 32.7565 62.3139 32.6469ZM61.0009 36.7906L56.7436 37.179C56.3855 37.2089 56.0771 37.448 55.9677 37.7966C55.6196 38.8325 55.1222 39.8087 54.4956 40.7052C54.2867 40.994 54.2767 41.3825 54.4657 41.6913L56.654 45.3469L54.7343 47.0601L51.4518 44.311C51.1733 44.0719 50.7853 44.0321 50.467 44.1914C49.9697 44.4405 49.4624 44.6496 48.9352 44.819C48.418 44.9883 47.9007 45.1278 47.3735 45.2174C47.0155 45.2772 46.7369 45.5361 46.6474 45.8848L45.6129 50.0185L43.0466 49.8691L42.6686 45.6059C42.6388 45.2373 42.4001 44.9385 42.0519 44.819C41.0174 44.4803 40.0426 43.9823 39.1474 43.3547C38.859 43.1456 38.471 43.1356 38.1627 43.3149L34.5121 45.5063L32.8013 43.5838L35.5466 40.2968C35.7853 40.0179 35.8251 39.6394 35.666 39.3107C35.4173 38.8226 35.2084 38.3046 35.0294 37.7767C34.8702 37.2687 34.731 36.7408 34.6414 36.2128C34.5818 35.8642 34.3231 35.5754 33.975 35.4857L29.847 34.4597L29.9962 31.8899L34.2535 31.5114C34.6116 31.4815 34.92 31.2325 35.0393 30.8938C35.3775 29.8579 35.8749 28.8717 36.5015 27.9852C36.7104 27.6864 36.7204 27.2979 36.5413 26.9991L34.353 23.3435L36.2727 21.6203L39.5453 24.3794C39.8238 24.6085 40.2117 24.6583 40.54 24.499C41.0274 24.2499 41.5446 24.0408 42.0619 23.8615C42.5791 23.6921 43.0964 23.5626 43.6235 23.473C43.9816 23.4132 44.2601 23.1443 44.3497 22.8056L45.3742 18.6719L47.9505 18.8213L48.3185 23.0845C48.3583 23.4431 48.597 23.7519 48.9352 23.8615C49.9796 24.2101 50.9544 24.6982 51.8497 25.3257C52.1381 25.5349 52.5261 25.5548 52.8344 25.3656L56.475 23.1742L58.1958 25.0966L55.4405 28.3837C55.2117 28.6626 55.1719 29.051 55.3311 29.3698C55.5798 29.8579 55.7887 30.3758 55.9677 30.9037C56.1269 31.4117 56.2661 31.9397 56.3556 32.4676C56.4153 32.8162 56.6739 33.1051 57.0221 33.1848L61.1501 34.2207L61.0009 36.7906Z" fill="white"/>
<path d="M49.5724 33.0055C48.8363 30.7643 46.4092 29.5292 44.1712 30.2662C41.9331 31.0133 40.6997 33.4338 41.4358 35.6849C42.0326 37.4878 43.7037 38.6333 45.514 38.6333C45.9517 38.6333 46.3993 38.5636 46.8369 38.4241C49.085 37.687 50.3084 35.2566 49.5724 33.0055ZM46.5186 37.4281C45.693 37.697 44.8177 37.6273 44.0518 37.2388C43.2759 36.8503 42.709 36.183 42.4404 35.3562C41.8834 33.6629 42.8084 31.8201 44.5094 31.2623C46.2003 30.7045 48.0405 31.6309 48.5976 33.3342C49.1546 35.0275 48.2196 36.8703 46.5286 37.4281H46.5186Z" fill="#272729"/>
<path d="M46.5577 37.5376C45.7022 37.8165 44.797 37.7468 44.0013 37.3384C43.1956 36.93 42.6087 36.2427 42.3302 35.3861C41.7533 33.623 42.7082 31.7205 44.4787 31.1428C46.2394 30.5651 48.1392 31.5213 48.7161 33.2943C49.2931 35.0574 48.3282 36.9599 46.5676 37.5376H46.5577Z" fill="#F5370D"/>
<path d="M56.8024 34.151C56.0664 33.9817 55.5093 33.384 55.38 32.627C55.3104 32.1987 55.191 31.7305 55.0319 31.2126C54.8528 30.6846 54.6638 30.2264 54.445 29.7981C54.1068 29.1208 54.1963 28.314 54.6837 27.7263L56.882 25.0966L56.2852 24.4293L53.3508 26.1923C53.0524 26.3716 52.7142 26.4712 52.3661 26.4712C51.9682 26.4712 51.5803 26.3517 51.2719 26.1226C50.4662 25.5548 49.571 25.1066 48.626 24.7879C47.9198 24.5588 47.4125 23.9312 47.323 23.1443L47.0246 19.7377L46.1294 19.6879L45.3038 23.0348C45.1148 23.7619 44.5179 24.3097 43.7819 24.4293C43.3044 24.5089 42.8369 24.6285 42.3794 24.7779C41.8422 24.9671 41.3946 25.1564 40.9669 25.3755C40.7083 25.505 40.4198 25.5648 40.1313 25.5648C39.6837 25.5648 39.256 25.4054 38.8979 25.1166L36.2819 22.9152L35.6154 23.5129L37.386 26.4613C37.764 27.0988 37.7341 27.9155 37.3064 28.5331C36.7295 29.3399 36.2819 30.2364 35.9735 31.1926C35.7248 31.9098 35.0783 32.4079 34.3422 32.4676L30.9404 32.7664L30.8906 33.653L34.2229 34.4797C34.949 34.669 35.4961 35.2666 35.6154 36.0037C35.6851 36.432 35.8044 36.9002 35.9636 37.4181C36.1426 37.9361 36.3316 38.4142 36.5504 38.8326C36.8787 39.5199 36.7792 40.3267 36.3018 40.8944L34.1035 43.5241L34.7003 44.1915L37.6545 42.4184C37.953 42.2491 38.2812 42.1595 38.6194 42.1595C39.0173 42.1595 39.4052 42.279 39.7036 42.5081C40.5392 43.0858 41.4244 43.544 42.3595 43.8428C43.0856 44.0919 43.5829 44.7293 43.6426 45.4864L43.941 48.893L44.8263 48.9428L45.6618 45.6059C45.8508 44.8788 46.4476 44.3309 47.1837 44.2014C47.6114 44.1317 48.079 44.0122 48.6061 43.8329C49.0836 43.6835 49.5312 43.4942 49.9987 43.2651C50.2573 43.1356 50.5557 43.0659 50.8442 43.0659C51.2918 43.0659 51.7295 43.2253 52.0677 43.5141L54.6937 45.7155L55.3601 45.1278L53.5995 42.1893C53.2016 41.5319 53.2315 40.7151 53.6592 40.1175C54.2361 39.2908 54.6937 38.3943 55.002 37.4779C55.2308 36.7408 55.8774 36.2328 56.6433 36.1631L60.0451 35.8642L60.0949 34.9678L56.7825 34.141L56.8024 34.151ZM47.1141 39.2509C45.8011 39.6792 44.4085 39.5697 43.1751 38.9521C41.9417 38.3246 41.0365 37.2687 40.5988 35.9539C39.7136 33.2446 41.1857 30.326 43.8913 29.4395C46.5969 28.553 49.5113 30.0272 50.3966 32.7366C51.2819 35.4459 49.7998 38.3644 47.1042 39.2509H47.1141Z" fill="#FFD500"/>
<path d="M28.2059 44.5999L25.0527 43.8129C24.9831 43.5042 24.9035 43.1954 24.8041 42.9065C24.7046 42.5878 24.5852 42.2889 24.4559 41.9901L26.5647 39.47C26.7736 39.2111 26.7736 38.8525 26.5547 38.6035L24.5554 36.3523C24.3365 36.1133 23.9884 36.0635 23.7198 36.2328L20.9347 37.9062C20.3976 37.5576 19.8206 37.2787 19.2238 37.0396L18.9354 33.7526C18.9055 33.4238 18.6469 33.1649 18.3186 33.1449L15.3047 32.9756C14.9864 32.9557 14.698 33.1649 14.6283 33.4836L13.8425 36.6412C13.5342 36.7109 13.2258 36.7906 12.9373 36.8902C12.619 36.9898 12.3206 37.1093 12.0222 37.2388L9.50565 35.1271C9.24703 34.918 8.88893 34.918 8.64026 35.1271L6.39225 37.1392C6.15352 37.3484 6.10379 37.707 6.27289 37.9759L7.94397 40.7649C7.59583 41.3028 7.30737 41.8806 7.07859 42.4682L3.7961 42.7571C3.46785 42.787 3.20923 43.046 3.18933 43.3747L3.00034 46.4028C2.99039 46.7215 3.19928 47.0104 3.50763 47.0801L6.66082 47.867C6.73045 48.1758 6.81002 48.4746 6.90949 48.7734C7.00896 49.0822 7.12832 49.391 7.25764 49.6898L5.14888 52.2099C4.94 52.4589 4.94 52.8275 5.15883 53.0765L7.15817 55.3276C7.36705 55.5667 7.72514 55.6165 7.99371 55.4571L10.7789 53.7837C11.316 54.1323 11.8929 54.4112 12.4798 54.6503L12.7682 57.9274C12.7981 58.2561 13.0567 58.525 13.385 58.535L16.3989 58.7143H16.4387C16.747 58.7143 17.0056 58.5051 17.0852 58.2063L17.871 55.0487C18.1794 54.979 18.4778 54.8993 18.7762 54.7997C19.0846 54.7001 19.3929 54.5905 19.6913 54.4511L22.2079 56.5727C22.4566 56.7819 22.8246 56.7819 23.0733 56.5628L25.3213 54.5507C25.56 54.3415 25.6098 53.9829 25.4506 53.714L23.7795 50.9249C24.1277 50.3871 24.4062 49.8093 24.6449 49.2117L27.9274 48.9228C28.2457 48.893 28.5143 48.634 28.5242 48.2953L28.7033 45.2871C28.7132 44.9684 28.5043 44.6795 28.196 44.5999H28.2059ZM27.2411 47.6479L24.1177 47.9367C23.8591 47.9566 23.6303 48.1359 23.5507 48.3949C23.2921 49.1519 22.934 49.8691 22.4665 50.5365C22.3173 50.7457 22.3074 51.0345 22.4466 51.2636L24.058 53.953L22.6456 55.2081L20.2384 53.186C20.0295 53.0068 19.751 52.9769 19.5123 53.0964C19.1442 53.2757 18.7762 53.4351 18.3883 53.5546C18.0103 53.6741 17.6323 53.7837 17.2444 53.8435C16.9858 53.8833 16.7769 54.0825 16.7072 54.3315L15.9513 57.3696L14.0613 57.26L13.7828 54.1323C13.7629 53.8634 13.5839 53.6442 13.3253 53.5546C12.5693 53.3056 11.8531 52.937 11.1867 52.4788C10.9778 52.3294 10.6893 52.3195 10.4606 52.4489L7.77488 54.0626L6.52156 52.6482L8.54079 50.2377C8.71984 50.0285 8.74968 49.7595 8.63031 49.5105C8.45127 49.1519 8.29212 48.7734 8.16281 48.385C8.04344 48.0164 7.94397 47.6279 7.87435 47.2395C7.83456 46.9805 7.63562 46.7713 7.38695 46.7016L4.35313 45.9446L4.46254 44.052L7.58588 43.7731C7.84451 43.7532 8.07328 43.5639 8.16281 43.3149C8.41148 42.5579 8.77952 41.8308 9.23708 41.1733C9.38628 40.9542 9.39623 40.6653 9.26692 40.4462L7.65551 37.7568L9.06798 36.4918L11.4751 38.5138C11.684 38.6831 11.9625 38.723 12.2013 38.6035C12.5594 38.4242 12.9373 38.2648 13.3153 38.1353C13.6933 38.0158 14.0713 37.9162 14.4592 37.8464C14.7178 37.8066 14.9267 37.6074 14.9964 37.3584L15.7523 34.3203L17.6423 34.4299L17.9108 37.5576C17.9407 37.8166 18.1197 38.0457 18.3684 38.1253C19.1343 38.3843 19.8505 38.7429 20.507 39.2011C20.7159 39.3505 21.0043 39.3704 21.2331 39.231L23.9088 37.6173L25.1721 39.0318L23.1529 41.4423C22.9838 41.6515 22.9539 41.9304 23.0733 42.1694C23.2523 42.528 23.4115 42.9065 23.5408 43.295C23.6602 43.6635 23.7596 44.052 23.8293 44.4405C23.869 44.6995 24.068 44.9086 24.3167 44.9684L27.3505 45.7254L27.2411 47.618V47.6479Z" fill="white"/>
<path d="M18.8449 44.8688C18.3078 43.2153 16.5273 42.3189 14.8761 42.8568C13.2249 43.4046 12.3297 45.1776 12.8668 46.8311C13.3045 48.1559 14.5379 49.0026 15.8608 49.0026C16.1791 49.0026 16.5074 48.9528 16.8356 48.8432C18.4868 48.3053 19.382 46.5223 18.8449 44.8688ZM16.5969 48.116C15.9901 48.3153 15.3436 48.2655 14.7766 47.9766C14.2096 47.6877 13.7919 47.1997 13.5929 46.592C13.1851 45.347 13.8615 43.9923 15.1148 43.5839C16.3582 43.1755 17.711 43.8528 18.1188 45.1079C18.5266 46.353 17.8403 47.7077 16.5969 48.116Z" fill="#272729"/>
<path d="M16.627 48.1957C16.0004 48.4049 15.3339 48.3452 14.747 48.0463C14.1602 47.7475 13.7225 47.2395 13.5136 46.612C13.0859 45.3171 13.7921 43.9226 15.0852 43.4943C16.3783 43.0659 17.7709 43.7732 18.1986 45.0681C18.6263 46.363 17.9102 47.7575 16.627 48.1858V48.1957Z" fill="#F5370D"/>
<path d="M24.1572 45.7055C23.6201 45.5859 23.2023 45.1477 23.1128 44.5899C23.0631 44.2711 22.9736 43.9325 22.8542 43.5539C22.7249 43.1655 22.5856 42.8268 22.4265 42.518C22.1778 42.02 22.2474 41.4323 22.6055 40.994L24.2269 39.0616L23.7892 38.5736L21.6407 39.8685C21.4218 39.9979 21.1732 40.0677 20.9245 40.0677C20.6261 40.0677 20.3476 39.978 20.1188 39.8087C19.522 39.3903 18.8655 39.0616 18.1692 38.8325C17.6519 38.6632 17.2739 38.205 17.2143 37.6273L16.9954 35.1271L16.3389 35.0873L15.7322 37.5476C15.5929 38.0855 15.1553 38.4839 14.6181 38.5736C14.27 38.6333 13.9318 38.713 13.5936 38.8325C13.2056 38.972 12.8675 39.1114 12.5591 39.2708C12.3701 39.3605 12.1513 39.4103 11.9424 39.4103C11.6141 39.4103 11.2958 39.3007 11.0372 39.0816L9.11745 37.4679L8.63005 37.9062L9.92315 40.0776C10.2017 40.5458 10.1818 41.1434 9.86347 41.6016C9.4457 42.1993 9.11745 42.8467 8.87872 43.5639C8.68973 44.0918 8.22223 44.4604 7.67514 44.5002L5.17846 44.7194L5.13867 45.3668L7.58562 45.9744C8.11281 46.1139 8.52063 46.5521 8.61016 47.09C8.65989 47.4088 8.74941 47.7474 8.86878 48.1259C8.99809 48.5045 9.13735 48.8531 9.30644 49.1718C9.55512 49.6798 9.47554 50.2675 9.11745 50.6859L7.50605 52.6183L7.94371 53.1063L10.1121 51.8015C10.331 51.672 10.5697 51.6122 10.8184 51.6122C11.1168 51.6122 11.3953 51.7019 11.6141 51.8712C12.2209 52.2995 12.8774 52.6282 13.5637 52.8573C14.1009 53.0466 14.459 53.5048 14.5087 54.0626L14.7275 56.5627L15.3741 56.6026L15.9908 54.1522C16.1301 53.6143 16.5677 53.2159 17.1049 53.1263C17.4232 53.0765 17.7614 52.9868 18.1493 52.8573C18.4974 52.7478 18.8356 52.6083 19.1738 52.439C19.3628 52.3394 19.5816 52.2896 19.8005 52.2896C20.1287 52.2896 20.457 52.4091 20.6957 52.6183L22.6254 54.2319L23.1128 53.7936L21.8197 51.6321C21.5213 51.154 21.5511 50.5464 21.8694 50.1081C22.2972 49.5005 22.6254 48.8431 22.8542 48.1758C23.0233 47.6379 23.5007 47.2594 24.0578 47.2096L26.5545 46.9904L26.5942 46.333L24.1672 45.7254L24.1572 45.7055ZM17.0452 49.4507C16.0803 49.7695 15.0558 49.6898 14.1506 49.2316C13.2454 48.7734 12.579 47.9965 12.2607 47.0303C11.6042 45.0481 12.6884 42.8965 14.6778 42.2391C16.6572 41.5817 18.8058 42.6674 19.4623 44.6596C20.1188 46.6418 19.0246 48.7933 17.0452 49.4507Z" fill="#FFD500"/>
<path d="M28.6241 18.2237L26.1274 17.6061C26.0677 17.3671 26.0081 17.118 25.9285 16.8889C25.8489 16.6399 25.7594 16.4009 25.65 16.1618L27.3211 14.1597C27.4902 13.9605 27.4802 13.6617 27.3111 13.4724L25.7196 11.6894C25.5505 11.5002 25.272 11.4603 25.0531 11.5898L22.8449 12.9146C22.4172 12.6457 21.9596 12.4166 21.4921 12.2273L21.2634 9.62753C21.2435 9.36855 21.0346 9.15937 20.766 9.14941L18.3986 9C18.14 8.98008 17.9212 9.14941 17.8615 9.39843L17.2348 11.8986C16.9961 11.9484 16.7474 12.0181 16.5187 12.0978C16.27 12.1775 16.0313 12.2671 15.7925 12.3767L13.7932 10.7033C13.5943 10.534 13.2959 10.534 13.1069 10.7033L11.3264 12.297C11.1374 12.4664 11.0976 12.7453 11.2269 12.9644L12.5498 15.1757C12.2813 15.604 12.0425 16.0622 11.8635 16.5304L9.26734 16.7595C9.00872 16.7794 8.79983 16.9886 8.78988 17.2575L8.66057 19.6481C8.65063 19.9071 8.81972 20.1262 9.05845 20.186L11.5551 20.8135C11.6148 21.0526 11.6745 21.2916 11.7541 21.5307C11.8337 21.7697 11.9232 22.0188 12.0326 22.2578L10.3615 24.2599C10.1924 24.4591 10.1924 24.758 10.3714 24.9472L11.963 26.7302C12.1321 26.9195 12.4106 26.9593 12.6294 26.8298L14.8376 25.505C15.2653 25.774 15.7229 26.0031 16.1904 26.1923L16.4192 28.7921C16.4391 29.0511 16.648 29.2602 16.9165 29.2702L19.3038 29.4097H19.3337C19.5724 29.4097 19.7813 29.2403 19.8409 29.0112L20.4676 26.5011C20.7063 26.4513 20.9451 26.3816 21.1838 26.3019C21.4225 26.2222 21.6712 26.1326 21.9099 26.023L23.9092 27.7064C24.1082 27.8757 24.4066 27.8657 24.5956 27.6964L26.3761 26.1027C26.5651 25.9333 26.6049 25.6544 26.4756 25.4453L25.1526 23.234C25.4212 22.8057 25.65 22.3475 25.839 21.8793L28.4351 21.6502C28.6937 21.6303 28.9026 21.4211 28.9126 21.1522L29.0518 18.7715C29.0618 18.5126 28.8927 18.2934 28.6539 18.2237H28.6241ZM27.8582 20.6342L25.3814 20.8633C25.1725 20.8832 24.9935 21.0227 24.9338 21.2219C24.7348 21.8295 24.4364 22.3973 24.0783 22.9152C23.959 23.0846 23.949 23.3137 24.0585 23.4929L25.3317 25.6246L24.2176 26.6206L22.3078 25.0169C22.1486 24.8775 21.9199 24.8576 21.7309 24.9472C21.4424 25.0966 21.144 25.2162 20.8356 25.3158C20.5372 25.4154 20.2289 25.4951 19.9305 25.5449C19.7216 25.5748 19.5624 25.7341 19.5027 25.9333L18.896 28.3438L17.4039 28.2542L17.1851 25.774C17.1652 25.5548 17.026 25.3855 16.827 25.3158C16.2203 25.1166 15.6533 24.8277 15.136 24.4591C14.9669 24.3396 14.7382 24.3297 14.5591 24.4392L12.4305 25.7142L11.4358 24.5986L13.0372 22.6861C13.1765 22.5268 13.1964 22.3076 13.1069 22.1084C12.9577 21.8195 12.8383 21.5207 12.7388 21.2119C12.6493 20.9131 12.5697 20.6043 12.51 20.3055C12.4802 20.1063 12.3211 19.9369 12.1221 19.8772L9.71495 19.2795L9.80447 17.7854L12.2813 17.5663C12.4901 17.5464 12.6692 17.4069 12.7388 17.2077C12.9378 16.6001 13.2262 16.0323 13.5943 15.5144C13.7136 15.345 13.7236 15.1159 13.6142 14.9366L12.3409 12.805L13.455 11.799L15.3648 13.4027C15.524 13.5322 15.7527 13.562 15.9417 13.4724C16.2302 13.323 16.5286 13.2035 16.827 13.1038C17.1254 13.0042 17.4338 12.9345 17.7322 12.8747C17.9411 12.8449 18.1002 12.6855 18.1599 12.4863L18.7567 10.0758L20.2587 10.1654L20.4775 12.6457C20.4974 12.8548 20.6367 13.0341 20.8356 13.0939C21.4424 13.2931 22.0094 13.582 22.5366 13.9505C22.7057 14.07 22.9344 14.08 23.1135 13.9704L25.2322 12.6955L26.2368 13.8111L24.6354 15.7235C24.5061 15.8829 24.4762 16.112 24.5757 16.3013C24.7249 16.5901 24.8443 16.8889 24.9437 17.1977C25.0333 17.4966 25.1128 17.8053 25.1725 18.1042C25.2024 18.3034 25.3615 18.4727 25.5604 18.5225L27.9676 19.1301L27.8781 20.6242L27.8582 20.6342Z" fill="white"/>
<path d="M21.2043 18.4328C20.7766 17.128 19.3641 16.4108 18.0611 16.8391C16.758 17.2674 16.0418 18.6819 16.4696 19.9967C16.8177 21.0426 17.7925 21.7199 18.8469 21.7199C19.1055 21.7199 19.3641 21.6801 19.6227 21.6004C20.9357 21.1721 21.642 19.7576 21.2143 18.4428L21.2043 18.4328ZM19.4238 21.0027C18.9464 21.1621 18.4291 21.1223 17.9815 20.8932C17.5339 20.6641 17.1957 20.2756 17.0365 19.7975C16.7083 18.8114 17.2554 17.7356 18.2401 17.4168C19.2249 17.0881 20.2991 17.636 20.6174 18.6221C20.9457 19.6082 20.3986 20.684 19.4139 21.0027H19.4238Z" fill="#272729"/>
<path d="M19.4446 21.0725C18.9472 21.2319 18.4201 21.192 17.9525 20.953C17.485 20.7139 17.1369 20.3155 16.9777 19.8174C16.6396 18.7915 17.1966 17.6858 18.2311 17.3471C19.2556 17.0085 20.3597 17.5663 20.6979 18.6022C21.0361 19.6282 20.4691 20.7338 19.4446 21.0725Z" fill="#F5370D"/>
<path d="M25.4116 19.1002C24.9839 19.0006 24.6556 18.652 24.586 18.2137C24.5462 17.9647 24.4766 17.6858 24.3871 17.3969C24.2876 17.0881 24.1682 16.8192 24.0489 16.5801C23.8499 16.1917 23.9096 15.7135 24.1881 15.3749L25.4713 13.8409L25.1231 13.4524L23.4123 14.4784C23.2432 14.588 23.0442 14.6378 22.8453 14.6378C22.6165 14.6378 22.3877 14.5681 22.2087 14.4286C21.7412 14.0999 21.214 13.8409 20.6669 13.6517C20.2591 13.5222 19.9607 13.1536 19.9109 12.6954L19.7418 10.7132L19.2246 10.6833L18.7372 12.6357C18.6278 13.054 18.2796 13.3728 17.8519 13.4524C17.5734 13.5023 17.3048 13.562 17.0363 13.6517C16.7279 13.7612 16.4594 13.8708 16.2107 14.0003C16.0615 14.07 15.8924 14.1099 15.7233 14.1099C15.4647 14.1099 15.216 14.0202 15.0071 13.8509L13.4852 12.5659L13.0973 12.9146L14.1218 14.6378C14.3407 15.0063 14.3307 15.4844 14.0721 15.843C13.7339 16.3112 13.4753 16.8292 13.2962 17.3969C13.147 17.8153 12.779 18.1041 12.3413 18.144L10.3619 18.3233L10.332 18.8412L12.2717 19.3194C12.6895 19.4289 13.0078 19.7775 13.0873 20.2059C13.1271 20.4549 13.1968 20.7338 13.2863 21.0226C13.3857 21.3215 13.5051 21.6004 13.6245 21.8494C13.8135 22.2478 13.7637 22.7259 13.4753 23.0447L12.1921 24.5786L12.5403 24.9671L14.2611 23.9312C14.4302 23.8316 14.6291 23.7818 14.8281 23.7818C15.0568 23.7818 15.2856 23.8515 15.4647 23.981C15.9521 24.3197 16.4693 24.5786 17.0164 24.7579C17.4441 24.9074 17.7326 25.2759 17.7624 25.7142L17.9414 27.6964L18.4587 27.7263L18.9461 25.7839C19.0555 25.3556 19.4036 25.0368 19.8314 24.9671C20.08 24.9273 20.3486 24.8575 20.657 24.7579C20.9355 24.6683 21.1941 24.5587 21.4627 24.4292C21.6119 24.3495 21.7909 24.3097 21.96 24.3097C22.2186 24.3097 22.4773 24.3994 22.6662 24.5687L24.1981 25.8437L24.586 25.495L23.5615 23.7818C23.3327 23.4033 23.3426 22.9252 23.6013 22.5765C23.9395 22.0984 24.1981 21.5804 24.3771 21.0426C24.5064 20.6143 24.8844 20.3154 25.332 20.2756L27.3115 20.0963L27.3413 19.5783L25.4116 19.0903V19.1002ZM19.7717 22.0685C19.0058 22.3175 18.1901 22.2578 17.4739 21.8892C16.7578 21.5306 16.2306 20.9031 15.972 20.1461C15.4547 18.5723 16.3101 16.869 17.8917 16.351C19.4633 15.8331 21.1643 16.6897 21.6815 18.2735C22.1987 19.8473 21.3334 21.5506 19.7617 22.0685H19.7717Z" fill="#FFD500"/>
</g>
<defs>
<clipPath id="clip0_1280_18874">
<rect width="60" height="49.7143" fill="white" transform="translate(3 9)"/>
</clipPath>
</defs>
</svg>
