<svg width="67" height="67" viewBox="0 0 67 67" fill="none" xmlns="http://www.w3.org/2000/svg">
<g clip-path="url(#clip0_1280_18876)">
<path d="M63.6088 15.7909L54.7029 1.28291C54.3281 0.667577 53.7356 0.24291 53.0384 0.0782437C52.3413 -0.086423 51.618 0.0262437 51.008 0.39891L48.0887 2.21024C47.47 2.58291 47.0517 3.18091 46.8861 3.87424C46.86 3.99558 46.8338 4.11691 46.8251 4.23824L41.2828 5.72891L35.6273 4.19491C33.5533 3.63158 31.3834 3.90024 29.5186 4.95758L26.0067 6.95091C25.9283 6.88158 25.8411 6.82091 25.7366 6.76891C23.9501 5.91958 22.0591 5.56424 20.2204 5.21758C20.1856 5.20891 20.1507 5.20891 20.1158 5.20891C20.2291 4.77558 20.2378 4.32491 20.1333 3.87424C19.9764 3.18091 19.5407 2.59158 18.9394 2.21024L16.0114 0.39891C15.3927 0.0262437 14.6781 -0.086423 13.981 0.0782437C13.2838 0.24291 12.6913 0.667577 12.3166 1.28291L3.40185 15.7909C2.62627 17.0476 3.01842 18.7116 4.28199 19.4916L7.20999 21.2942C7.6457 21.5629 8.12499 21.6929 8.60427 21.6929C8.64785 21.6929 8.6827 21.6842 8.71756 21.6842C9.25785 22.4556 9.85913 23.1749 10.5127 23.8336L9.98113 24.6049C9.51056 25.2722 9.32756 26.0869 9.46699 26.8929C9.60642 27.7076 10.0596 28.4096 10.7306 28.8776L11.0007 29.0682C11.5236 29.4322 12.1248 29.6229 12.7436 29.6229C12.9266 29.6229 13.1096 29.6056 13.2838 29.5796C13.4058 29.5536 13.5278 29.5276 13.6411 29.4929C13.5017 29.9609 13.4668 30.4636 13.5627 30.9662C13.7108 31.8156 14.1814 32.5522 14.8873 33.0549C15.4363 33.4362 16.0724 33.6356 16.726 33.6356C16.9177 33.6356 17.1094 33.6269 17.3011 33.5922C17.3621 33.5749 17.4318 33.5576 17.5016 33.5402C17.4928 33.7656 17.5016 33.9909 17.5451 34.2162C17.6846 35.0309 18.1377 35.7329 18.8 36.2009C19.3228 36.5649 19.9328 36.7556 20.5516 36.7556C20.7346 36.7556 20.9088 36.7382 21.0918 36.7122C21.6321 36.6169 22.1288 36.3742 22.5384 36.0276C22.7563 36.5562 23.1223 37.0156 23.6016 37.3536C24.1244 37.7176 24.7257 37.9169 25.3531 37.9169C25.5274 37.9169 25.7104 37.8996 25.8847 37.8649C26.6951 37.7262 27.3923 37.2756 27.8628 36.5996L28.0633 36.3222C28.133 36.4349 28.2288 36.5476 28.3421 36.6342L30.1808 38.0556C30.9041 38.6709 31.793 39.0002 32.7341 39.0002C32.83 39.0002 32.9258 39.0002 33.013 38.9916C34.0674 38.9222 35.026 38.4369 35.7144 37.6396C35.9323 37.3882 36.1153 37.1196 36.2634 36.8249C37.832 37.6049 39.7927 37.2582 40.9953 35.8716C41.3003 35.5162 41.5443 35.1176 41.7011 34.6929C42.2763 34.9356 42.895 35.0396 43.5311 34.9962C44.5856 34.9269 45.5441 34.4416 46.2326 33.6442C46.6857 33.1242 46.982 32.5089 47.1214 31.8589C47.4003 31.8936 47.6878 31.9109 47.9754 31.8849C49.0298 31.8156 49.9884 31.3302 50.6768 30.5416C51.3653 29.7442 51.7051 28.7216 51.6354 27.6729C51.5744 26.7802 51.2258 25.9569 50.642 25.3069C51.801 24.9082 53.0558 24.4229 54.1974 23.7556C55.3913 23.0536 56.3324 22.2129 56.9773 21.2769C57.4043 21.5456 57.901 21.6929 58.3977 21.6929C58.8944 21.6929 59.365 21.5629 59.8007 21.2942L62.7287 19.4916C63.9923 18.7116 64.3844 17.0476 63.6088 15.7909ZM8.93542 19.2056C8.82213 19.3876 8.58685 19.4482 8.40385 19.3356L5.47585 17.5242C5.29285 17.4116 5.24056 17.1776 5.35385 16.9956L14.2686 2.48758C14.3383 2.37491 14.4516 2.33158 14.5038 2.31424C14.5648 2.30558 14.6781 2.28824 14.7914 2.36624L17.7194 4.16891C17.8414 4.24691 17.8763 4.35091 17.8937 4.41158C17.9024 4.46358 17.9198 4.57624 17.8414 4.69758L8.93542 19.2056ZM14.9221 24.7869L13.3797 26.9969C13.2664 27.1616 13.0921 27.2742 12.883 27.3089C12.6826 27.3436 12.4821 27.3089 12.3166 27.1789L12.0464 26.9969C11.8808 26.8756 11.7676 26.7022 11.7327 26.5029C11.6978 26.3036 11.7414 26.0956 11.8547 25.9309L13.3971 23.7209C13.5191 23.5476 13.6934 23.4349 13.8938 23.4002C14.0943 23.3656 14.3034 23.4002 14.469 23.5302L14.7391 23.7209C15.079 23.9636 15.1661 24.4402 14.9221 24.7869ZM17.5016 30.9316C17.3534 31.1396 17.1443 31.2782 16.9003 31.3216C16.6476 31.3649 16.4036 31.3042 16.2031 31.1656C15.994 31.0269 15.8633 30.8102 15.8197 30.5676C15.7761 30.3162 15.8371 30.0736 15.9766 29.8656L19.7586 24.4489C19.9328 24.1889 20.2291 24.0502 20.5167 24.0502C20.6997 24.0502 20.8914 24.1022 21.0483 24.2149C21.4666 24.5096 21.5711 25.0902 21.2748 25.5149L17.5016 30.9316ZM21.1877 34.1296C21.0657 34.2942 20.8914 34.4069 20.691 34.4416C20.4906 34.4849 20.2901 34.4329 20.1246 34.3202C19.9503 34.1989 19.8457 34.0256 19.8021 33.8176C19.7673 33.6182 19.8108 33.4189 19.9328 33.2456L24.5253 26.6589C24.7693 26.3209 25.2486 26.2342 25.5971 26.4769C25.7627 26.5896 25.876 26.7716 25.9108 26.9709C25.9457 27.1702 25.9021 27.3696 25.7801 27.5429L21.1877 34.1296ZM28.0546 32.3096L25.9806 35.2822C25.8673 35.4469 25.693 35.5596 25.4838 35.5942C25.2834 35.6376 25.083 35.5942 24.9174 35.4729C24.7518 35.3516 24.6386 35.1782 24.6037 34.9702C24.5688 34.7709 24.6124 34.5716 24.7257 34.3982L26.7997 31.4342C26.9217 31.2609 27.096 31.1482 27.2964 31.1136C27.34 31.1049 27.3836 31.1049 27.4271 31.1049C27.584 31.1049 27.7408 31.1482 27.8716 31.2349C28.0371 31.3562 28.1504 31.5296 28.1853 31.7289C28.2201 31.9369 28.1766 32.1362 28.0546 32.3096ZM48.9514 29.0336H48.9427C48.6551 29.3629 48.2543 29.5622 47.8186 29.5969C47.3828 29.6229 46.9558 29.4842 46.6334 29.1982C46.6334 29.1982 46.6276 29.1925 46.616 29.1809H46.6073L38.4071 22.3429C37.9191 21.9356 37.1958 22.0049 36.795 22.4902C36.3854 22.9842 36.4551 23.7036 36.9431 24.1109L44.8731 30.7236C44.969 31.2262 44.8383 31.7462 44.4984 32.1449C44.2108 32.4742 43.81 32.6736 43.3743 32.7082C42.9386 32.7342 42.5116 32.5956 42.1804 32.3009L41.4746 31.6942L34.355 25.5496C33.8757 25.1422 33.1524 25.1942 32.7341 25.6709C32.3246 26.1562 32.3768 26.8842 32.8561 27.3002L39.662 33.1676C39.6881 33.6096 39.5574 34.0342 39.2611 34.3722C38.6686 35.0569 37.6228 35.1349 36.9431 34.5369L36.2808 33.9562L32.8997 31.0182C32.4204 30.6022 31.6884 30.6629 31.2788 31.1396C30.8606 31.6249 30.9128 32.3442 31.3921 32.7689L34.3637 35.3342C34.3114 35.6289 34.1894 35.9149 33.989 36.1402C33.3877 36.8336 32.3507 36.9029 31.6623 36.3049C31.6448 36.2876 31.6274 36.2702 31.61 36.2616L29.7451 34.8142C29.597 34.7102 29.4401 34.6409 29.2658 34.6062L29.9368 33.6356C30.4074 32.9682 30.5904 32.1536 30.451 31.3476C30.3028 30.5329 29.8584 29.8309 29.1874 29.3629C28.743 29.0509 28.2288 28.8689 27.6973 28.8169C28.1417 28.1582 28.3073 27.3609 28.1678 26.5809C28.0284 25.7662 27.5753 25.0642 26.913 24.5962C26.242 24.1282 25.4228 23.9462 24.6211 24.0849C24.29 24.1456 23.9763 24.2582 23.6887 24.4142C23.5406 23.5996 23.0874 22.8542 22.3641 22.3429C20.9088 21.3202 18.8958 21.6756 17.8676 23.1402L17.3273 23.9289C17.2053 23.1142 16.7783 22.3429 16.055 21.8402L15.7848 21.6496C15.1138 21.1816 14.3034 20.9996 13.493 21.1382C12.883 21.2509 12.3253 21.5369 11.8896 21.9702C11.4887 21.5369 11.114 21.0862 10.7654 20.6096C10.809 20.5489 10.8526 20.4882 10.8961 20.4276L19.0963 7.06358C19.2706 7.28024 19.5058 7.44491 19.7934 7.49691C21.0396 7.73091 22.3206 7.96491 23.5144 8.37224C22.6866 8.84891 21.9633 9.50758 21.4143 10.2876L17.7978 15.4269C17.4754 15.8949 17.5277 16.5189 17.9373 16.9176C19.9851 18.9282 22.6343 19.3702 25.5971 18.2176C26.2246 17.9662 26.8084 17.5676 27.2964 17.0476L29.4663 14.7249C29.8758 14.2829 30.3987 13.9536 30.9826 13.7716L32.83 13.1736C32.8997 13.1562 32.9781 13.1476 33.0566 13.1736C33.1263 13.1909 33.196 13.2256 33.257 13.2689L48.7858 26.7196C49.117 27.0142 49.3174 27.4129 49.3523 27.8462C49.3784 28.2882 49.239 28.7129 48.9514 29.0422V29.0336ZM53.0384 21.7622C51.8097 22.4902 50.3457 22.9929 49.0647 23.4089C48.934 23.4522 48.8207 23.5216 48.7161 23.5996L34.7558 11.5096C34.3986 11.2062 33.9803 10.9982 33.5271 10.9029C33.0653 10.8076 32.5773 10.8249 32.1328 10.9722L30.2767 11.5702C29.3356 11.8736 28.4728 12.4196 27.7931 13.1389L25.6146 15.4616C25.3618 15.7302 25.0743 15.9382 24.7606 16.0596C22.9828 16.7529 21.545 16.7009 20.2901 15.8689L23.2878 11.6049C23.6538 11.0936 24.1244 10.6602 24.6734 10.3482L30.6427 6.95958C31.9847 6.20558 33.5358 6.00624 35.026 6.41358L40.9778 8.02558C41.1783 8.07758 41.3787 8.07758 41.5791 8.02558L47.531 6.43091L55.4523 19.3356C55.0688 20.2196 54.2323 21.0602 53.0384 21.7622ZM61.5261 17.5329L58.5981 19.3356C58.4151 19.4482 58.1798 19.3962 58.0666 19.2142L49.1606 4.70624C49.0821 4.58491 49.0996 4.47224 49.1083 4.41158C49.1257 4.35958 49.1693 4.24691 49.2826 4.17758L52.2106 2.37491C52.2803 2.33158 52.35 2.31424 52.411 2.31424C52.4458 2.31424 52.4807 2.32291 52.4981 2.32291C52.5591 2.34024 52.6637 2.38358 52.7334 2.49624L61.6394 17.0042C61.7527 17.1862 61.7004 17.4116 61.5261 17.5329Z" fill="white"/>
<path d="M58.3882 19.8207C58.1007 19.8207 57.8479 19.6733 57.6911 19.4307L48.7851 4.93134C48.6195 4.68001 48.6631 4.42868 48.6718 4.34201C48.7764 4.01268 48.9332 3.87401 49.0465 3.80468L51.9745 2.00201C52.1052 1.92401 52.2534 1.87201 52.4015 1.87201H52.5235L52.5845 1.88068L52.6107 1.89801C52.8198 1.95868 52.9854 2.08001 53.0987 2.26201L62.0047 16.77C62.2399 17.1427 62.1354 17.6193 61.7694 17.8793L58.8239 19.6993C58.6932 19.7773 58.5451 19.8207 58.3882 19.8207Z" fill="#FFD500"/>
<path d="M52.4102 2.31399C52.4102 2.31399 52.4799 2.32266 52.4973 2.32266C52.5583 2.33999 52.6629 2.38333 52.7326 2.49599L61.6386 17.004C61.7519 17.186 61.6996 17.4113 61.5253 17.5327L58.5973 19.3353C58.5363 19.3787 58.4579 19.396 58.3882 19.396C58.2575 19.396 58.1355 19.3353 58.0658 19.214L49.1598 4.70599C49.0813 4.58466 49.0988 4.47199 49.1075 4.41133C49.1249 4.35933 49.1685 4.24666 49.2818 4.17733L52.2098 2.37466C52.2795 2.33133 52.3492 2.31399 52.4102 2.31399ZM52.4102 1.44733C52.1836 1.44733 51.9483 1.51666 51.7479 1.63799L48.8199 3.44066C48.6456 3.54466 48.4016 3.76133 48.2796 4.13399L48.2535 4.21199V4.28999C48.1925 4.61933 48.2535 4.91399 48.4278 5.17399L57.3251 19.6647C57.5603 20.0373 57.9525 20.2627 58.3969 20.2627C58.6322 20.2627 58.8588 20.1933 59.0592 20.072L61.9872 18.2693H62.0046L62.0221 18.2433C62.5711 17.862 62.7279 17.1167 62.3793 16.5447L53.4733 2.03666C53.3078 1.76799 53.0463 1.56866 52.7326 1.48199L52.6193 1.44733H52.5496C52.5061 1.44733 52.4625 1.43866 52.4102 1.43866V1.44733Z" fill="#272729"/>
<path d="M8.6098 19.8207C8.46165 19.8207 8.31351 19.7773 8.1828 19.6993L5.2548 17.888C4.87137 17.654 4.74937 17.1513 4.99337 16.7613L13.8907 2.25334C13.9952 2.08001 14.1608 1.95868 14.3612 1.88934C14.4745 1.86334 14.5268 1.86334 14.5878 1.86334C14.7534 1.86334 14.9015 1.90668 15.0322 2.00201L17.9428 3.79601C18.2129 3.96934 18.2827 4.20334 18.3088 4.29001C18.3524 4.55868 18.3088 4.75801 18.2042 4.93134L9.7078 18.772L9.30694 19.4307C9.1588 19.6733 8.88865 19.8207 8.6098 19.8207Z" fill="#F5370D"/>
<path d="M14.5884 2.30533C14.6494 2.30533 14.7191 2.31399 14.7888 2.36599L17.7168 4.16866C17.8388 4.24666 17.8737 4.35066 17.8911 4.41133C17.8998 4.46333 17.9173 4.57599 17.8388 4.69733L8.93285 19.2053C8.85442 19.3267 8.73242 19.396 8.60171 19.396C8.53199 19.396 8.46228 19.3787 8.40128 19.3353L5.47328 17.524C5.29028 17.4113 5.23799 17.1773 5.35128 16.9953L14.266 2.48733C14.3357 2.37466 14.449 2.33133 14.5013 2.31399C14.5274 2.31399 14.5536 2.31399 14.5884 2.31399M14.5884 1.44733C14.5013 1.44733 14.4316 1.44733 14.3793 1.46466H14.3008L14.2224 1.49933C13.839 1.62933 13.6298 1.86333 13.5166 2.03666L4.61056 16.536C4.43628 16.8133 4.38399 17.1513 4.45371 17.472C4.53213 17.8013 4.73256 18.0787 5.02013 18.252L7.94813 20.0633C8.14856 20.1847 8.37513 20.254 8.61042 20.254C9.04613 20.254 9.44699 20.0287 9.68228 19.656L10.5014 18.33H10.484L18.5796 5.14799C18.6841 4.98333 18.8148 4.67133 18.7451 4.26399V4.21199L18.7277 4.16866C18.6406 3.85666 18.4576 3.60533 18.1874 3.43199L15.2594 1.62933C15.059 1.49933 14.8324 1.42999 14.5884 1.42999V1.44733Z" fill="#272729"/>
</g>
<defs>
<clipPath id="clip0_1280_18876">
<rect width="61" height="39" fill="white" transform="translate(3)"/>
</clipPath>
</defs>
</svg>
