<svg width="136" height="126" viewBox="0 0 136 126" fill="none" xmlns="http://www.w3.org/2000/svg">
<path d="M124.055 103.107H122.49V41.6215C122.49 41.262 122.32 40.9255 122.035 40.7098C121.748 40.4941 121.375 40.4222 121.032 40.5203L95.3315 47.8367V41.6215C95.3315 41.262 95.1649 40.9255 94.8773 40.7098C94.5898 40.4941 94.2205 40.4222 93.8741 40.5203L68.1734 47.8367V41.6215C68.1734 41.262 68.0068 40.9255 67.7192 40.7098C67.4349 40.4941 67.0624 40.4222 66.7193 40.5203L41.0186 47.8367V18.5382C41.0186 17.9076 40.5055 17.3945 39.8749 17.3945H18.517C17.883 17.3945 17.3733 17.9076 17.3733 18.5382V103.107H12.341C11.7103 103.107 11.1973 103.62 11.1973 104.251C11.1973 104.882 11.7103 105.395 12.341 105.395H124.055C124.689 105.395 125.199 104.882 125.199 104.251C125.199 103.62 124.689 103.107 124.055 103.107ZM38.7312 103.107H19.6607V90.4185H38.7312V103.107ZM38.7312 88.1311H19.6607V84.37H38.7312V88.1311ZM38.7312 82.0825H19.6607V33.7005H38.7312V82.0825ZM38.7312 31.4131H19.6607V27.3873H38.7312V31.4131ZM38.7312 25.0998H19.6607V19.6819H38.7312V25.0998ZM55.9162 103.107H49.7761V92.1275H55.9162V103.107ZM65.886 103.107H58.2036V90.9838C58.2036 90.3532 57.6905 89.8401 57.0599 89.8401H48.6324C48.0017 89.8401 47.4887 90.3532 47.4887 90.9838V103.107H41.0186V50.2156L65.886 43.1377V103.107ZM83.1919 103.107H77.0519V92.0949H83.1919V103.107ZM93.0441 103.107H85.4793V90.9512C85.4793 90.3172 84.9663 89.8075 84.3356 89.8075H75.9081C75.2775 89.8075 74.7644 90.3172 74.7644 90.9512V103.107H68.1734V50.2156L93.0441 43.1377V103.107ZM110.837 103.107H104.697V92.1275H110.837V103.107ZM120.202 103.107H113.124V90.9838C113.124 90.3532 112.611 89.8401 111.981 89.8401H103.553C102.922 89.8401 102.409 90.3532 102.409 90.9838V103.107H95.3315V50.2156L120.202 43.1377V103.107Z" fill="white"/>
<path d="M60.1482 55.7838H45.548C44.9173 55.7838 44.4043 56.2969 44.4043 56.9275V64.3028C44.4043 64.9335 44.9173 65.4465 45.548 65.4465H60.1482C60.7789 65.4465 61.2919 64.9335 61.2919 64.3028V56.9275C61.2919 56.2969 60.7789 55.7838 60.1482 55.7838ZM59.0045 63.1591H46.6917V58.0712H59.0045V63.1591Z" fill="white"/>
<path d="M59.0055 57.9079H46.6927C46.6024 57.9079 46.5293 57.981 46.5293 58.0712V63.1591C46.5293 63.2493 46.6024 63.3225 46.6927 63.3225H59.0055C59.0957 63.3225 59.1689 63.2493 59.1689 63.1591V58.0712C59.1689 57.981 59.0957 57.9079 59.0055 57.9079Z" fill="#FFD405"/>
<path d="M59.0048 58.0712V63.1591H46.692V58.0712H59.0048ZM59.0048 57.7445H46.692C46.5123 57.7445 46.3652 57.8915 46.3652 58.0712V63.1591C46.3652 63.3388 46.5123 63.4859 46.692 63.4859H59.0048C59.1845 63.4859 59.3316 63.3388 59.3316 63.1591V58.0712C59.3316 57.8915 59.1845 57.7445 59.0048 57.7445Z" fill="#1D1D1B"/>
<path d="M60.1482 70.3448H45.548C44.9173 70.3448 44.4043 70.8579 44.4043 71.4886V78.8638C44.4043 79.4945 44.9173 80.0075 45.548 80.0075H60.1482C60.7789 80.0075 61.2919 79.4945 61.2919 78.8638V71.4886C61.2919 70.8579 60.7789 70.3448 60.1482 70.3448ZM59.0045 77.7201H46.6917V72.6323H59.0045V77.7201Z" fill="white"/>
<path d="M59.0055 72.4689H46.6927C46.6024 72.4689 46.5293 72.542 46.5293 72.6323V77.7201C46.5293 77.8104 46.6024 77.8835 46.6927 77.8835H59.0055C59.0957 77.8835 59.1689 77.8104 59.1689 77.7201V72.6323C59.1689 72.542 59.0957 72.4689 59.0055 72.4689Z" fill="#E73D1C"/>
<path d="M59.0048 72.6323V77.7201H46.692V72.6323H59.0048ZM59.0048 72.3055H46.692C46.5123 72.3055 46.3652 72.4525 46.3652 72.6323V77.7201C46.3652 77.8998 46.5123 78.0469 46.692 78.0469H59.0048C59.1845 78.0469 59.3316 77.8998 59.3316 77.7201V72.6323C59.3316 72.4525 59.1845 72.3055 59.0048 72.3055Z" fill="#1D1D1B"/>
<path d="M87.9295 55.7838H73.3293C72.6986 55.7838 72.1855 56.2969 72.1855 56.9275V64.3028C72.1855 64.9335 72.6986 65.4465 73.3293 65.4465H87.9295C88.5602 65.4465 89.0732 64.9335 89.0732 64.3028V56.9275C89.0732 56.2969 88.5602 55.7838 87.9295 55.7838ZM86.7858 63.1591H74.473V58.0712H86.7858V63.1591Z" fill="white"/>
<path d="M86.7867 57.9079H74.4739C74.3837 57.9079 74.3105 57.981 74.3105 58.0712V63.1591C74.3105 63.2493 74.3837 63.3225 74.4739 63.3225H86.7867C86.877 63.3225 86.9501 63.2493 86.9501 63.1591V58.0712C86.9501 57.981 86.877 57.9079 86.7867 57.9079Z" fill="#E73D1C"/>
<path d="M86.7861 58.0712V63.1591H74.4733V58.0712H86.7861ZM86.7861 57.7445H74.4733C74.2935 57.7445 74.1465 57.8915 74.1465 58.0712V63.1591C74.1465 63.3388 74.2935 63.4859 74.4733 63.4859H86.7861C86.9658 63.4859 87.1128 63.3388 87.1128 63.1591V58.0712C87.1128 57.8915 86.9658 57.7445 86.7861 57.7445Z" fill="#1D1D1B"/>
<path d="M87.9295 70.3448H73.3293C72.6986 70.3448 72.1855 70.8579 72.1855 71.4886V78.8638C72.1855 79.4945 72.6986 80.0075 73.3293 80.0075H87.9295C88.5602 80.0075 89.0732 79.4945 89.0732 78.8638V71.4886C89.0732 70.8579 88.5602 70.3448 87.9295 70.3448ZM86.7858 77.7201H74.473V72.6323H86.7858V77.7201Z" fill="white"/>
<path d="M86.7867 72.4689H74.4739C74.3837 72.4689 74.3105 72.542 74.3105 72.6323V77.7201C74.3105 77.8104 74.3837 77.8835 74.4739 77.8835H86.7867C86.877 77.8835 86.9501 77.8104 86.9501 77.7201V72.6323C86.9501 72.542 86.877 72.4689 86.7867 72.4689Z" fill="#FFD405"/>
<path d="M86.7861 72.6323V77.7201H74.4733V72.6323H86.7861ZM86.7861 72.3055H74.4733C74.2935 72.3055 74.1465 72.4525 74.1465 72.6323V77.7201C74.1465 77.8998 74.2935 78.0469 74.4733 78.0469H86.7861C86.9658 78.0469 87.1128 77.8998 87.1128 77.7201V72.6323C87.1128 72.4525 86.9658 72.3055 86.7861 72.3055Z" fill="#1D1D1B"/>
<path d="M115.241 55.7838H100.638C100.007 55.7838 99.4941 56.2969 99.4941 56.9275V64.3028C99.4941 64.9335 100.007 65.4465 100.638 65.4465H115.241C115.872 65.4465 116.385 64.9335 116.385 64.3028V56.9275C116.385 56.2969 115.872 55.7838 115.241 55.7838ZM114.098 63.1591H101.782V58.0712H114.098V63.1591Z" fill="white"/>
<path d="M114.099 57.9079H101.783C101.692 57.9079 101.619 57.981 101.619 58.0712V63.1591C101.619 63.2493 101.692 63.3225 101.783 63.3225H114.099C114.189 63.3225 114.262 63.2493 114.262 63.1591V58.0712C114.262 57.981 114.189 57.9079 114.099 57.9079Z" fill="#FFD405"/>
<path d="M114.098 58.0712V63.1591H101.782V58.0712H114.098ZM114.098 57.7445H101.782C101.602 57.7445 101.455 57.8915 101.455 58.0712V63.1591C101.455 63.3388 101.602 63.4859 101.782 63.4859H114.098C114.278 63.4859 114.425 63.3388 114.425 63.1591V58.0712C114.425 57.8915 114.278 57.7445 114.098 57.7445Z" fill="#1D1D1B"/>
<path d="M115.241 70.3448H100.638C100.007 70.3448 99.4941 70.8579 99.4941 71.4886V78.8638C99.4941 79.4945 100.007 80.0075 100.638 80.0075H115.241C115.872 80.0075 116.385 79.4945 116.385 78.8638V71.4886C116.385 70.8579 115.872 70.3448 115.241 70.3448ZM114.098 77.7201H101.782V72.6323H114.098V77.7201Z" fill="white"/>
<path d="M114.099 72.4689H101.783C101.692 72.4689 101.619 72.542 101.619 72.6323V77.7201C101.619 77.8104 101.692 77.8835 101.783 77.8835H114.099C114.189 77.8835 114.262 77.8104 114.262 77.7201V72.6323C114.262 72.542 114.189 72.4689 114.099 72.4689Z" fill="#E73D1C"/>
<path d="M114.098 72.6323V77.7201H101.782V72.6323H114.098ZM114.098 72.3055H101.782C101.602 72.3055 101.455 72.4525 101.455 72.6323V77.7201C101.455 77.8998 101.602 78.0469 101.782 78.0469H114.098C114.278 78.0469 114.425 77.8998 114.425 77.7201V72.6323C114.425 72.4525 114.278 72.3055 114.098 72.3055Z" fill="#1D1D1B"/>
</svg>
