<svg width="136" height="126" viewBox="0 0 136 126" fill="none" xmlns="http://www.w3.org/2000/svg">
<path d="M130.685 18.0023H103.041V10.2436C103.041 9.60119 102.519 9.07861 101.876 9.07861H32.7002C32.0544 9.07861 31.5352 9.60119 31.5352 10.2436V18.0023H10.3492C9.70682 18.0023 9.18424 18.5249 9.18424 19.1673V30.6407V42.3637L3.87196 52.712C3.87196 52.712 3.8653 52.7353 3.86197 52.7453C3.82535 52.8152 3.79873 52.8884 3.78209 52.9683C3.77876 52.9783 3.77209 52.9882 3.76876 53.0016C3.75212 53.0814 3.74219 53.1613 3.74219 53.2445V59.0827C3.74219 59.7251 4.26476 60.2477 4.90716 60.2477H9.18424V89.1657V111.577C9.18424 112.222 9.70682 112.742 10.3492 112.742H130.685C131.327 112.742 131.85 112.222 131.85 111.577V30.644V19.1673C131.85 18.5249 131.327 18.0023 130.685 18.0023ZM33.8651 11.4086H100.711V19.1507C100.711 19.1507 100.708 19.164 100.708 19.1673C100.708 19.174 100.711 19.1773 100.711 19.184V24.8857H33.8651V11.4086ZM11.5142 31.809H14.5997L11.5142 37.8202V31.809ZM11.3878 43.1758C11.3944 43.1592 11.4043 43.1425 11.411 43.1226L17.0529 32.1352C17.1061 32.0286 17.136 31.9188 17.156 31.809H94.4705C94.4905 31.9188 94.5238 32.0286 94.577 32.1352L100.811 44.2842C100.821 44.3008 100.828 44.3208 100.838 44.3375L104.812 52.0796H49.2727V49.7929C49.2727 49.1505 48.7535 48.6279 48.1077 48.6279H14.6297C13.984 48.6279 13.4647 49.1505 13.4647 49.7929V52.0796H6.81439L11.3878 43.1758ZM97.0268 31.809H100.711V38.9819L97.0268 31.809ZM14.6297 84.7821H30.6897L33.9084 88.0008H11.5142V60.2477H13.4647V83.6171C13.4647 84.2595 13.984 84.7821 14.6297 84.7821ZM31.9945 82.7917C31.7748 82.5753 31.4786 82.4522 31.169 82.4522H15.7947V50.9579H46.9428V82.4522H41.8768C41.2344 82.4522 40.7118 82.9747 40.7118 83.6171V91.5123L31.9945 82.7917ZM43.0418 84.7821H48.1077C48.7535 84.7821 49.2727 84.2595 49.2727 83.6171V81.7665H70.5153C71.161 81.7665 71.6802 81.2439 71.6802 80.6015V60.2477H76.4899V80.6015C76.4899 81.2439 77.0125 81.7665 77.6549 81.7665H97.2565C97.9022 81.7665 98.4215 81.2439 98.4215 80.6015V60.2477H100.711V88.0008H43.0418V84.7821ZM56.7752 69.1548V79.4365H49.2727V69.1548H56.7752ZM49.2727 66.8248V60.2477H56.7752V66.8248H49.2727ZM69.3503 69.1548V79.4365H59.1051V69.1548H69.3503ZM59.1051 66.8248V60.2477H69.3503V66.8248H59.1051ZM86.2923 69.1548V79.4365H78.8199V69.1548H86.2923ZM78.8199 66.8248V60.2477H86.2923V66.8248H78.8199ZM96.0915 69.1548V79.4365H88.6223V69.1548H96.0915ZM88.6223 66.8248V60.2477H96.0915V66.8248H88.6223ZM49.2727 57.9178V54.4095H105.554V57.9178H49.2727ZM103.041 60.2477H104.583V84.6889C104.583 85.3346 105.105 85.8539 105.748 85.8539H116.399C117.044 85.8539 117.564 85.3346 117.564 84.6889V53.2479C117.564 52.6021 117.044 52.0829 116.399 52.0829H107.432L106.097 49.4833H119.065V99.5041H103.041V60.2477ZM106.912 83.5239V60.2277C107.465 60.1345 107.884 59.6586 107.884 59.0827V54.4128H115.234V83.5239H106.912ZM104.902 47.1534L103.041 43.5253V31.809H119.065V47.1534H104.902ZM6.07214 57.9178V54.4095H13.4647V57.9178H6.07214ZM20.7042 110.412L23.4569 104.95L26.2096 110.412H20.7042ZM37.643 110.412L38.9345 107.722C38.9777 107.632 39.001 107.532 39.001 107.433V100.616H40.8916V107.433C40.8916 107.532 40.9149 107.632 40.9581 107.722L42.2496 110.412H37.643ZM28.0103 99.2844V97.3206H51.1101V99.2844H28.0103ZM54.1457 110.412L56.895 104.95L59.6477 110.412H54.1424H54.1457ZM86.2923 105.762V110.412H61.8878L59.1351 104.95H61.4651C62.0176 104.95 62.4636 104.5 62.4636 103.951V92.6107C62.4636 92.0615 62.0176 91.6122 61.4651 91.6122C60.9125 91.6122 60.4665 92.0615 60.4665 92.6107V102.952H52.3284C51.7791 102.952 51.3298 103.398 51.3298 103.951C51.3298 104.503 51.7791 104.95 52.3284 104.95H54.6616L51.909 110.412H43.7141C43.7008 110.372 43.6875 110.328 43.6676 110.288L42.223 107.283V100.616H51.7758C52.1452 100.616 52.4415 100.316 52.4415 99.9501V96.6549C52.4415 96.2887 52.1452 95.9892 51.7758 95.9892H27.3446C26.9784 95.9892 26.6789 96.2887 26.6789 96.6549V99.9501C26.6789 100.316 26.9784 100.616 27.3446 100.616H37.6696V107.283L36.225 110.288C36.205 110.328 36.1918 110.372 36.1784 110.412H28.4463L25.6937 104.95H28.0236C28.5761 104.95 29.0222 104.5 29.0222 103.951C29.0222 103.402 28.5761 102.952 28.0236 102.952H19.8887V92.6107C19.8887 92.0615 19.4393 91.6122 18.8901 91.6122C18.3409 91.6122 17.8916 92.0615 17.8916 92.6107V103.951C17.8916 104.5 18.3376 104.95 18.8901 104.95H21.2201L18.4675 110.412H11.5142V90.3307H36.2383L41.0547 95.1471C41.2777 95.3701 41.5739 95.4899 41.8801 95.4899C42.0299 95.4899 42.1797 95.4599 42.3228 95.4C42.7589 95.2203 43.0418 94.7942 43.0418 94.3249V90.3307H100.711V99.5873H94.3107C93.6683 99.5873 93.1458 100.107 93.1458 100.752V104.597H87.4573C86.8116 104.597 86.2923 105.119 86.2923 105.762ZM129.52 110.412H88.6223V106.927H129.52V110.412ZM129.52 104.597H95.4757V101.917H101.876C102.026 101.917 102.169 101.884 102.302 101.834H129.52V104.597ZM129.52 99.5041H121.395V31.809H129.52V99.5041ZM129.52 29.4757H11.5142V20.3323H31.5352V26.0507C31.5352 26.6964 32.0544 27.2156 32.7002 27.2156H101.876C102.519 27.2156 103.041 26.6964 103.041 26.0507V20.3323H129.52V29.4757Z" fill="white"/>
<path d="M56.7767 69.1549V79.4367H49.2743V69.1549H56.7767ZM56.7767 68.8221H49.2743C49.0912 68.8221 48.9414 68.9719 48.9414 69.1549V79.4367C48.9414 79.6198 49.0912 79.7695 49.2743 79.7695H56.7767C56.9598 79.7695 57.1096 79.6198 57.1096 79.4367V69.1549C57.1096 68.9719 56.9598 68.8221 56.7767 68.8221Z" fill="#1D1D1B"/>
<path d="M56.7767 60.2478V66.825H49.2743V60.2478H56.7767ZM56.7767 59.915H49.2743C49.0912 59.915 48.9414 60.0648 48.9414 60.2478V66.825C48.9414 67.008 49.0912 67.1578 49.2743 67.1578H56.7767C56.9598 67.1578 57.1096 67.008 57.1096 66.825V60.2478C57.1096 60.0648 56.9598 59.915 56.7767 59.915Z" fill="#1D1D1B"/>
<path d="M69.3495 60.2479V66.825H59.1043V60.2479H69.3495ZM69.3495 59.915H59.1043C58.9213 59.915 58.7715 60.0648 58.7715 60.2479V66.825C58.7715 67.0081 58.9213 67.1578 59.1043 67.1578H69.3495C69.5325 67.1578 69.6823 67.0081 69.6823 66.825V60.2479C69.6823 60.0648 69.5325 59.915 69.3495 59.915Z" fill="#1D1D1B"/>
<path d="M69.3495 69.1549V79.4367H59.1043V69.1549H69.3495ZM69.3495 68.8221H59.1043C58.9213 68.8221 58.7715 68.9719 58.7715 69.1549V79.4367C58.7715 79.6198 58.9213 79.7695 59.1043 79.7695H69.3495C69.5325 79.7695 69.6823 79.6198 69.6823 79.4367V69.1549C69.6823 68.9719 69.5325 68.8221 69.3495 68.8221Z" fill="#1D1D1B"/>
<path d="M86.2956 69.1549V79.4367H78.8231V69.1549H86.2956ZM86.2956 68.8221H78.8231C78.64 68.8221 78.4902 68.9719 78.4902 69.1549V79.4367C78.4902 79.6198 78.64 79.7695 78.8231 79.7695H86.2956C86.4786 79.7695 86.6284 79.6198 86.6284 79.4367V69.1549C86.6284 68.9719 86.4786 68.8221 86.2956 68.8221Z" fill="#1D1D1B"/>
<path d="M96.0911 60.2478V66.825H88.6219V60.2478H96.0911ZM96.0911 59.915H88.6219C88.4388 59.915 88.2891 60.0648 88.2891 60.2478V66.825C88.2891 67.008 88.4388 67.1578 88.6219 67.1578H96.0911C96.2742 67.1578 96.424 67.008 96.424 66.825V60.2478C96.424 60.0648 96.2742 59.915 96.0911 59.915Z" fill="#1D1D1B"/>
<path d="M86.2956 60.2478V66.825H78.8231V60.2478H86.2956ZM86.2956 59.915H78.8231C78.64 59.915 78.4902 60.0648 78.4902 60.2478V66.825C78.4902 67.008 78.64 67.1578 78.8231 67.1578H86.2956C86.4786 67.1578 86.6284 67.008 86.6284 66.825V60.2478C86.6284 60.0648 86.4786 59.915 86.2956 59.915Z" fill="#1D1D1B"/>
<path d="M96.0911 69.1549V79.4367H88.6219V69.1549H96.0911ZM96.0911 68.8221H88.6219C88.4388 68.8221 88.2891 68.9719 88.2891 69.1549V79.4367C88.2891 79.6198 88.4388 79.7695 88.6219 79.7695H96.0911C96.2742 79.7695 96.424 79.6198 96.424 79.4367V69.1549C96.424 68.9719 96.2742 68.8221 96.0911 68.8221Z" fill="#1D1D1B"/>
<path d="M40.7105 91.6789C40.6672 91.6789 40.624 91.6623 40.5941 91.629L31.8767 82.9083C31.6869 82.7219 31.434 82.6187 31.1677 82.6187H15.7934C15.7002 82.6187 15.627 82.5455 15.627 82.4523V50.958C15.627 50.8648 15.7002 50.7916 15.7934 50.7916H46.9415C47.0347 50.7916 47.1079 50.8648 47.1079 50.958V82.4523C47.1079 82.5455 47.0347 82.6187 46.9415 82.6187H41.8755C41.3263 82.6187 40.8769 83.0681 40.8769 83.6173V91.5125C40.8769 91.579 40.837 91.639 40.7737 91.6656C40.7538 91.6756 40.7305 91.6789 40.7105 91.6789Z" fill="#FFD405"/>
<path d="M46.9419 50.958V82.4523H41.8759C41.2335 82.4523 40.7109 82.9749 40.7109 83.6173V91.5125L31.9936 82.7918C31.7739 82.5755 31.4777 82.4523 31.1681 82.4523H15.7938V50.958H46.9419ZM46.9419 50.6251H15.7938C15.6107 50.6251 15.4609 50.7749 15.4609 50.958V82.4523C15.4609 82.6354 15.6107 82.7852 15.7938 82.7852H31.1681C31.3911 82.7852 31.6008 82.8717 31.7606 83.0281L40.4746 91.7455C40.5379 91.8087 40.6244 91.842 40.7109 91.842C40.7542 91.842 40.7975 91.8354 40.8374 91.8154C40.9606 91.7655 41.0438 91.6423 41.0438 91.5092V83.6139C41.0438 83.1546 41.4166 82.7818 41.8759 82.7818H46.9419C47.1249 82.7818 47.2747 82.632 47.2747 82.449V50.958C47.2747 50.7749 47.1249 50.6251 46.9419 50.6251Z" fill="#1D1D1B"/>
<path d="M100.71 11.4087V19.1508C100.71 19.1508 100.707 19.1642 100.707 19.1675C100.707 19.1741 100.71 19.1775 100.71 19.1841V24.8859H33.8641V11.4087H100.71ZM100.71 11.0759H33.8641C33.681 11.0759 33.5312 11.2257 33.5312 11.4087V24.8859C33.5312 25.0689 33.681 25.2187 33.8641 25.2187H100.71C100.893 25.2187 101.043 25.0689 101.043 24.8859V19.1841C101.043 19.1841 101.043 19.1741 101.043 19.1675C101.043 19.1608 101.043 19.1575 101.043 19.1508V11.4087C101.043 11.2257 100.893 11.0759 100.71 11.0759Z" fill="#1D1D1B"/>
<path d="M116.4 87.8312H105.749C105.107 87.8312 104.584 88.3537 104.584 88.9961V96.4753C104.584 97.1177 105.107 97.6403 105.749 97.6403H116.4C117.043 97.6403 117.565 97.1177 117.565 96.4753V88.9961C117.565 88.3537 117.043 87.8312 116.4 87.8312ZM115.235 95.3103H106.914V90.1611H115.235V95.3103Z" fill="white"/>
<path d="M40.2607 20.7052L39.3087 19.0343H38.8927V20.7052H37.498V15.4761H39.6449C39.9911 15.4761 40.314 15.5527 40.5969 15.7025C40.8832 15.8556 41.1128 16.0686 41.2759 16.3415C41.4389 16.6145 41.5188 16.924 41.5188 17.2669C41.5188 17.6097 41.429 17.9226 41.2559 18.2022C41.1128 18.4285 40.923 18.6149 40.6967 18.7514L41.8418 20.7052H40.2674H40.2607ZM39.575 17.7229C39.7481 17.7229 39.8812 17.6796 39.9778 17.5897C40.071 17.5032 40.1142 17.4 40.1142 17.2569C40.1142 17.1604 40.0943 17.0805 40.0543 17.0106C40.0144 16.944 39.9578 16.8907 39.8779 16.8508C39.7947 16.8109 39.6915 16.7876 39.575 16.7876H38.896V17.7195H39.575V17.7229Z" fill="white"/>
<path d="M43.8711 20.7052V15.4761H47.1397V16.7909H45.2657V17.4233H46.9566V18.7114H45.2657V19.3871H47.2163V20.7052H43.8711Z" fill="white"/>
<path d="M51.3195 20.8017C50.7104 20.8017 50.2145 20.6353 49.835 20.3091C49.4522 19.9763 49.2559 19.5203 49.2559 18.9478V18.7813H50.6571V18.9478C50.6571 19.041 50.6738 19.1175 50.707 19.1841C50.7403 19.2507 50.7836 19.3039 50.8369 19.3439C50.8968 19.3871 50.9667 19.4204 51.0466 19.4437C51.1298 19.467 51.2163 19.4803 51.3095 19.4803C51.4926 19.4803 51.6457 19.4404 51.7755 19.3538C51.8853 19.2806 51.9352 19.1941 51.9352 19.0742C51.9352 19.031 51.9253 18.9944 51.9053 18.9644C51.8787 18.9245 51.8487 18.8912 51.8188 18.8679C51.7955 18.8512 51.7422 18.8213 51.6324 18.7813C51.5392 18.7447 51.4593 18.7181 51.3927 18.7014C51.3228 18.6848 51.2197 18.6582 51.0832 18.6249L50.8302 18.5617C50.7737 18.5483 50.6871 18.5217 50.5739 18.4884C50.4574 18.4551 50.3675 18.4219 50.3043 18.3952C50.2444 18.3686 50.1645 18.332 50.068 18.2821C49.9615 18.2288 49.8783 18.1722 49.815 18.1156C49.7584 18.0657 49.6985 18.0025 49.6319 17.9292C49.5554 17.846 49.4988 17.7562 49.4589 17.663C49.4222 17.5797 49.3923 17.4799 49.3656 17.37C49.339 17.2602 49.3257 17.1371 49.3257 17.0139C49.3257 16.498 49.5054 16.0886 49.8616 15.799C50.2078 15.5194 50.6804 15.3763 51.2662 15.3763C51.852 15.3763 52.3347 15.5327 52.6742 15.8389C53.0203 16.1518 53.1934 16.5812 53.1934 17.1171V17.2835H51.8121V17.1171C51.8121 16.9706 51.7655 16.8674 51.6657 16.7942C51.5525 16.711 51.4127 16.6677 51.2363 16.6677C51.0799 16.6677 50.9434 16.701 50.8336 16.7643C50.747 16.8142 50.7104 16.8741 50.7104 16.964C50.7104 17.0006 50.7171 17.0305 50.7337 17.0572C50.7603 17.0971 50.787 17.1271 50.8169 17.147C50.8402 17.1637 50.8868 17.1903 50.99 17.2303C51.0799 17.2635 51.1597 17.2868 51.223 17.3035L51.5258 17.3767C51.679 17.4166 51.7921 17.4433 51.8687 17.4666C51.9452 17.4899 52.0551 17.5232 52.2015 17.5764C52.3546 17.6297 52.4712 17.6829 52.5577 17.7329C52.6376 17.7828 52.7341 17.846 52.8406 17.9259C52.9604 18.0158 53.0536 18.119 53.1169 18.2255C53.1768 18.3287 53.23 18.4485 53.2733 18.5883C53.3166 18.7314 53.3399 18.8878 53.3399 19.0543C53.3399 19.4271 53.2434 19.7533 53.0503 20.0262C52.8606 20.2925 52.611 20.4922 52.3081 20.6153C52.0152 20.7352 51.6823 20.7951 51.3129 20.7951L51.3195 20.8017Z" fill="white"/>
<path d="M56.4621 20.7052V16.7976H55.1074V15.4761H59.2215V16.7976H57.8601V20.7052H56.4621Z" fill="white"/>
<path d="M64.1829 20.7052L63.8401 19.7766H62.1226L61.7864 20.7052H60.3086L62.3556 15.4761H63.5805L65.6941 20.7052H64.1829ZM63.3808 18.5184L62.9781 17.42L62.5786 18.5184H63.3808Z" fill="white"/>
<path d="M69.6068 20.8117C68.981 20.8117 68.4585 20.612 68.0457 20.2193C67.6297 19.8232 67.4199 19.3139 67.4199 18.7015V15.4795H68.8146V18.6515C68.8146 18.9078 68.8845 19.1042 69.0343 19.2573C69.1807 19.4071 69.3671 19.4803 69.6068 19.4803C69.8464 19.4803 70.0361 19.4071 70.1826 19.2573C70.3324 19.1075 70.4022 18.9078 70.4022 18.6549V15.4828H71.7903V18.7048C71.7903 19.3172 71.5806 19.8298 71.1645 20.2226C70.7518 20.6154 70.2259 20.8151 69.6034 20.8151L69.6068 20.8117Z" fill="white"/>
<path d="M77.0361 20.7052L76.0841 19.0343H75.6681V20.7052H74.2734V15.4761H76.4203C76.7665 15.4761 77.0894 15.5527 77.3723 15.7025C77.6585 15.8556 77.8881 16.0686 78.0512 16.3415C78.2143 16.6145 78.2943 16.924 78.2943 17.2669C78.2943 17.6097 78.2044 17.9226 78.0313 18.2022C77.8882 18.4285 77.6984 18.6149 77.4721 18.7514L78.6172 20.7052H77.0428H77.0361ZM76.3504 17.7229C76.5235 17.7229 76.6566 17.6796 76.7532 17.5897C76.8464 17.5032 76.8896 17.4 76.8896 17.2569C76.8896 17.1604 76.8696 17.0805 76.8297 17.0106C76.7898 16.944 76.7332 16.8907 76.6533 16.8508C76.5701 16.8109 76.4669 16.7876 76.3504 16.7876H75.6714V17.7195H76.3504V17.7229Z" fill="white"/>
<path d="M83.9095 20.7052L83.5667 19.7766H81.8492L81.513 20.7052H80.0352L82.0822 15.4761H83.307L85.4207 20.7052H83.9095ZM83.1074 18.5184L82.7046 17.42L82.3051 18.5184H83.1074Z" fill="white"/>
<path d="M90.711 20.7052L88.7439 17.9958V20.7052H87.3691V15.4761H88.5808L90.4747 18.1123V15.4761H91.8427V20.7052H90.711Z" fill="white"/>
<path d="M95.3288 20.7052V16.7976H93.9707V15.4761H98.0881V16.7976H96.7234V20.7052H95.3288Z" fill="white"/>
<path d="M44.0123 73.462H43.2434C42.8274 68.3261 39.0795 64.1222 34.1699 63.0105C34.4861 62.5279 34.6725 61.9487 34.6725 61.3263C34.6725 59.6288 33.2912 58.2441 31.5903 58.2441C29.8895 58.2441 28.5115 59.6288 28.5115 61.3263C28.5115 61.9487 28.6979 62.5279 29.0141 63.0138C24.1045 64.1222 20.3566 68.3295 19.9406 73.462H18.8621C18.3362 73.462 17.9102 73.8914 17.9102 74.4173C17.9102 74.9432 18.3362 75.3693 18.8621 75.3693H44.0123C44.5382 75.3693 44.9676 74.9432 44.9676 74.4173C44.9676 73.8914 44.5382 73.462 44.0123 73.462ZM31.5903 60.1513C32.2394 60.1513 32.7686 60.6772 32.7686 61.3263C32.7686 61.9754 32.2394 62.5046 31.5903 62.5046C30.9413 62.5046 30.4154 61.9754 30.4154 61.3263C30.4154 60.6772 30.9446 60.1513 31.5903 60.1513ZM21.8511 73.462C22.3304 68.5125 26.5177 64.6282 31.5937 64.6282C36.6696 64.6282 40.8536 68.5125 41.3362 73.462H21.8511Z" fill="white"/>
<path d="M21.8504 73.6284C21.8038 73.6284 21.7572 73.6085 21.7272 73.5752C21.6973 73.5419 21.6807 73.4953 21.684 73.4487C22.18 68.3261 26.4405 64.4651 31.593 64.4651C36.7455 64.4651 41.0027 68.3261 41.5019 73.4487C41.5053 73.4953 41.4919 73.5419 41.4586 73.5752C41.4287 73.6085 41.3821 73.6284 41.3355 73.6284H21.8504Z" fill="#E73D1C"/>
<path d="M31.5947 64.6282C36.6707 64.6282 40.8546 68.5125 41.3373 73.462H21.8522C22.3315 68.5125 26.5188 64.6282 31.5947 64.6282ZM31.5947 64.2953C29.0684 64.2953 26.6452 65.2373 24.7746 66.9448C22.9173 68.6423 21.7623 70.9457 21.5193 73.4321C21.5093 73.5253 21.5426 73.6185 21.6025 73.6884C21.6658 73.7583 21.7557 73.7982 21.8489 73.7982H41.3339C41.4271 73.7982 41.517 73.7583 41.5802 73.6884C41.6435 73.6185 41.6734 73.5253 41.6634 73.4321C41.4205 70.9457 40.2655 68.6423 38.4082 66.9448C36.5375 65.2373 34.1177 64.2953 31.5914 64.2953H31.5947Z" fill="#1D1D1B"/>
<path d="M29.2833 66.6386C27.5725 67.3609 26.3708 68.5658 25.7118 70.2234C25.5187 70.7127 25.7551 71.2652 26.2444 71.4616C26.3609 71.5082 26.4774 71.5282 26.5972 71.5282C26.9767 71.5282 27.3328 71.3018 27.4826 70.9257C27.9519 69.7441 28.7841 68.9153 30.0256 68.3927C30.5116 68.1897 30.7379 67.6305 30.5315 67.1445C30.3285 66.6586 29.7693 66.4322 29.2833 66.6386Z" fill="white"/>
</svg>
