<svg width="135" height="126" viewBox="0 0 135 126" fill="none" xmlns="http://www.w3.org/2000/svg">
<path d="M97.2405 59.3328H106.757C107.544 59.3328 108.182 58.6954 108.182 57.9087V48.3918C108.182 47.6051 107.544 46.9677 106.757 46.9677H97.2405C96.4538 46.9677 95.8164 47.6051 95.8164 48.3918V57.9087C95.8164 58.6954 96.4538 59.3328 97.2405 59.3328ZM98.6646 49.8159H105.329V56.4806H98.6646V49.8159Z" fill="white"/>
<path d="M97.2405 74.5743H106.757C107.544 74.5743 108.182 73.9369 108.182 73.1502V63.6333C108.182 62.8466 107.544 62.2092 106.757 62.2092H97.2405C96.4538 62.2092 95.8164 62.8466 95.8164 63.6333V73.1502C95.8164 73.9369 96.4538 74.5743 97.2405 74.5743ZM98.6646 65.0574H105.329V71.7221H98.6646V65.0574Z" fill="white"/>
<path d="M97.2405 89.8159H106.757C107.544 89.8159 108.182 89.1785 108.182 88.3918V78.8749C108.182 78.0882 107.544 77.4508 106.757 77.4508H97.2405C96.4538 77.4508 95.8164 78.0882 95.8164 78.8749V88.3918C95.8164 89.1785 96.4538 89.8159 97.2405 89.8159ZM98.6646 80.299H105.329V86.9637H98.6646V80.299Z" fill="white"/>
<path d="M97.2405 105.057H106.757C107.544 105.057 108.182 104.42 108.182 103.633V94.1165C108.182 93.3298 107.544 92.6924 106.757 92.6924H97.2405C96.4538 92.6924 95.8164 93.3298 95.8164 94.1165V103.633C95.8164 104.42 96.4538 105.057 97.2405 105.057ZM98.6646 95.5406H105.329V102.205H98.6646V95.5406Z" fill="white"/>
<path d="M38.941 46.9637H29.4241C28.6374 46.9637 28 47.6011 28 48.3878V57.9047C28 58.6914 28.6374 59.3288 29.4241 59.3288H38.941C39.7277 59.3288 40.3651 58.6914 40.3651 57.9047V48.3878C40.3651 47.6011 39.7277 46.9637 38.941 46.9637ZM37.5169 56.4806H30.8522V49.8159H37.5169V56.4806Z" fill="white"/>
<path d="M38.941 62.2052H29.4241C28.6374 62.2052 28 62.8426 28 63.6293V73.1462C28 73.9329 28.6374 74.5703 29.4241 74.5703H38.941C39.7277 74.5703 40.3651 73.9329 40.3651 73.1462V63.6293C40.3651 62.8426 39.7277 62.2052 38.941 62.2052ZM37.5169 71.7221H30.8522V65.0574H37.5169V71.7221Z" fill="white"/>
<path d="M38.941 77.4468H29.4241C28.6374 77.4468 28 78.0842 28 78.8709V88.3878C28 89.1745 28.6374 89.8119 29.4241 89.8119H38.941C39.7277 89.8119 40.3651 89.1745 40.3651 88.3878V78.8709C40.3651 78.0842 39.7277 77.4468 38.941 77.4468ZM37.5169 86.9637H30.8522V80.299H37.5169V86.9637Z" fill="white"/>
<path d="M38.941 92.6883H29.4241C28.6374 92.6883 28 93.3257 28 94.1124V103.629C28 104.416 28.6374 105.053 29.4241 105.053H38.941C39.7277 105.053 40.3651 104.416 40.3651 103.629V94.1124C40.3651 93.3257 39.7277 92.6883 38.941 92.6883ZM37.5169 102.205H30.8522V95.5406H37.5169V102.205Z" fill="white"/>
<path d="M62.7124 44.4664H52.8284C52.0417 44.4664 51.4043 45.1079 51.4043 45.8946V55.7745C51.4043 56.5612 52.0417 57.1986 52.8284 57.1986H62.7124C63.4991 57.1986 64.1365 56.5612 64.1365 55.7745V45.8946C64.1365 45.1079 63.4991 44.4664 62.7124 44.4664ZM61.2843 54.3504H54.2565V47.3187H61.2843V54.3504Z" fill="white"/>
<path d="M82.2611 44.4664H72.3811C71.5944 44.4664 70.957 45.1079 70.957 45.8946V55.7745C70.957 56.5612 71.5944 57.1986 72.3811 57.1986H82.2611C83.0518 57.1986 83.6892 56.5612 83.6892 55.7745V45.8946C83.6892 45.1079 83.0518 44.4664 82.2611 44.4664ZM80.837 54.3504H73.8093V47.3187H80.837V54.3504Z" fill="white"/>
<path d="M62.7124 59.4458H52.8284C52.0417 59.4458 51.4043 60.0832 51.4043 60.8699V70.7539C51.4043 71.5406 52.0417 72.178 52.8284 72.178H62.7124C63.4991 72.178 64.1365 71.5406 64.1365 70.7539V60.8699C64.1365 60.0832 63.4991 59.4458 62.7124 59.4458ZM61.2843 69.3257H54.2565V62.298H61.2843V69.3257Z" fill="white"/>
<path d="M82.2611 59.4458H72.3811C71.5944 59.4458 70.957 60.0832 70.957 60.8699V70.7539C70.957 71.5406 71.5944 72.178 72.3811 72.178H82.2611C83.0518 72.178 83.6892 71.5406 83.6892 70.7539V60.8699C83.6892 60.0832 83.0518 59.4458 82.2611 59.4458ZM80.837 69.3257H73.8093V62.298H80.837V69.3257Z" fill="white"/>
<path d="M62.7124 74.4211H52.8284C52.0417 74.4211 51.4043 75.0625 51.4043 75.8492V85.7292C51.4043 86.5159 52.0417 87.1533 52.8284 87.1533H62.7124C63.4991 87.1533 64.1365 86.5159 64.1365 85.7292V75.8492C64.1365 75.0625 63.4991 74.4211 62.7124 74.4211ZM61.2843 84.3051H54.2565V77.2733H61.2843V84.3051Z" fill="white"/>
<path d="M82.2611 74.4211H72.3811C71.5944 74.4211 70.957 75.0625 70.957 75.8492V85.7292C70.957 86.5159 71.5944 87.1533 72.3811 87.1533H82.2611C83.0518 87.1533 83.6892 86.5159 83.6892 85.7292V75.8492C83.6892 75.0625 83.0518 74.4211 82.2611 74.4211ZM80.837 84.3051H73.8093V77.2733H80.837V84.3051Z" fill="white"/>
<path d="M77.5447 19.9702H71.6264V14.06C71.6264 13.5033 71.1786 13.0514 70.6178 13.0514H64.6793C64.1226 13.0514 63.6708 13.5033 63.6708 14.06V19.9702H57.7605C57.2038 19.9702 56.752 20.4221 56.752 20.9788V26.9254C56.752 27.4821 57.2038 27.9339 57.7605 27.9339H63.6708V33.8442C63.6708 34.4009 64.1226 34.8527 64.6793 34.8527H70.6178C71.1786 34.8527 71.6264 34.4009 71.6264 33.8442V27.9339H77.5447C78.1014 27.9339 78.5533 27.4821 78.5533 26.9254V20.9788C78.5533 20.4221 78.1014 19.9702 77.5447 19.9702ZM76.5361 25.9168H70.6178C70.0611 25.9168 69.6092 26.3686 69.6092 26.9254V32.8356H65.6879V26.9254C65.6879 26.3686 65.2361 25.9168 64.6793 25.9168H58.7691V21.9874H64.6793C65.2361 21.9874 65.6879 21.5355 65.6879 20.9788V15.0686H69.6092V20.9788C69.6092 21.5355 70.0611 21.9874 70.6178 21.9874H76.5361V25.9168Z" fill="white"/>
<path d="M121.475 111.464H115.411V39.6535C115.411 38.8669 114.774 38.2294 113.987 38.2294H91.4918V26.1306C91.4918 25.3439 90.8544 24.7065 90.0677 24.7065H85.7026V24.5855C85.7026 14.8911 77.8156 7 68.1172 7C58.4187 7 50.5317 14.8911 50.5317 24.5855C50.5317 24.6258 50.5317 24.6662 50.5317 24.7065H46.1666C45.3799 24.7065 44.7425 25.3439 44.7425 26.1306V38.2294H22.2513C21.4606 38.2294 20.8232 38.8669 20.8232 39.6535V111.464H13.5292C12.7506 111.464 12.1172 112.097 12.1172 112.876C12.1172 113.655 12.7506 114.288 13.5292 114.288H22.1142C22.1585 114.288 22.2029 114.3 22.2513 114.3H46.1706H90.0677H113.983C114.027 114.3 114.072 114.292 114.12 114.288H121.471C122.253 114.288 122.883 113.655 122.883 112.876C122.883 112.097 122.253 111.464 121.471 111.464H121.475ZM44.7465 111.452H23.6754V41.0776H44.7465V111.452ZM68.1172 9.824C76.2584 9.824 82.8786 16.4483 82.8786 24.5855C82.8786 25.001 82.8585 25.4125 82.8262 25.82C82.802 25.9208 82.7899 26.0217 82.7899 26.1306C82.7899 26.1467 82.7939 26.1629 82.7939 26.179C81.9951 33.5739 75.7178 39.351 68.1172 39.351C60.5166 39.351 54.2352 33.5698 53.4404 26.1709C53.4404 26.1588 53.4445 26.1467 53.4445 26.1306C53.4445 26.0257 53.4323 25.9249 53.4122 25.824C53.3759 25.4165 53.3557 25.005 53.3557 24.5855C53.3557 16.4483 59.976 9.824 68.1172 9.824ZM66.4913 110.617H59.1933V94.6772H66.4913V110.617ZM76.6416 110.617H69.3436V94.6772H76.6416V110.617ZM88.6436 39.6172C88.6436 39.6172 88.6396 39.6414 88.6396 39.6535V111.452H79.4939V93.2531C79.4939 92.4664 78.8564 91.825 78.0697 91.825H57.7692C56.9825 91.825 56.3451 92.4664 56.3451 93.2531V111.452H47.5988V39.6535C47.5988 39.6535 47.5947 39.6455 47.5947 39.6414V27.5547H50.7859C52.2019 35.8452 59.4313 42.175 68.1172 42.175C76.803 42.175 84.0324 35.8452 85.4485 27.5547H88.6436V39.6172ZM112.559 111.452H91.4918V41.0776H112.559V111.452Z" fill="white"/>
<path d="M82.826 25.82C82.8017 25.9208 82.7896 26.0217 82.7896 26.1306C82.7896 26.1467 82.7937 26.1629 82.7937 26.179C81.9949 33.5739 75.7175 39.351 68.1169 39.351C60.5163 39.351 54.2349 33.5698 53.4402 26.1709C53.4402 26.1588 53.4442 26.1467 53.4442 26.1306C53.4442 26.0257 53.4321 25.9249 53.4119 25.824C53.3756 25.4165 53.3555 25.005 53.3555 24.5855C53.3555 16.4483 59.9757 9.82401 68.1169 9.82401C76.2581 9.82401 82.8784 16.4483 82.8784 24.5855C82.8784 25.001 82.8582 25.4125 82.826 25.82Z" fill="#FFD405"/>
<path d="M68.1176 39.5527C60.4525 39.5527 54.0581 33.8079 53.2391 26.1911V26.1629V26.1185C53.2391 26.0418 53.2311 25.9571 53.2109 25.8603C53.1706 25.4125 53.1504 24.9889 53.1504 24.5814C53.1504 16.3313 59.8634 9.61826 68.1136 9.61826C76.3637 9.61826 83.0767 16.3313 83.0767 24.5814C83.0767 24.9687 83.0606 25.3802 83.0243 25.8321V25.8643C83.0001 25.9491 82.988 26.0378 82.988 26.1266C82.988 26.1427 82.992 26.1588 82.992 26.175C82.169 33.8079 75.7707 39.5487 68.1136 39.5487L68.1176 39.5527ZM68.1176 10.0257C60.0894 10.0257 53.5579 16.5572 53.5579 24.5855C53.5579 24.9889 53.578 25.3883 53.6143 25.8038C53.6345 25.9047 53.6466 26.0176 53.6466 26.1266V26.179C54.4373 33.5537 60.6622 39.1452 68.1176 39.1452C75.573 39.1452 81.7938 33.5618 82.5926 26.1548C82.5886 26.1588 82.5886 26.1427 82.5886 26.1266C82.5886 26.0096 82.6007 25.8966 82.6249 25.7837C82.6572 25.348 82.6774 24.9566 82.6774 24.5814C82.6774 16.5532 76.1458 10.0217 68.1176 10.0217V10.0257Z" fill="#1D1D1B"/>
<path d="M80.8369 62.0963H73.8091C73.6977 62.0963 73.6074 62.1866 73.6074 62.298V69.3257C73.6074 69.4371 73.6977 69.5274 73.8091 69.5274H80.8369C80.9483 69.5274 81.0386 69.4371 81.0386 69.3257V62.298C81.0386 62.1866 80.9483 62.0963 80.8369 62.0963Z" fill="#FFD405"/>
<path d="M80.8374 62.298V69.3258H73.8097V62.298H80.8374ZM80.8374 61.8946H73.8097C73.5878 61.8946 73.4062 62.0761 73.4062 62.298V69.3258C73.4062 69.5476 73.5878 69.7292 73.8097 69.7292H80.8374C81.0593 69.7292 81.2408 69.5476 81.2408 69.3258V62.298C81.2408 62.0761 81.0593 61.8946 80.8374 61.8946Z" fill="#1D1D1B"/>
<path d="M61.2822 77.0716H54.2544C54.143 77.0716 54.0527 77.1619 54.0527 77.2733V84.305C54.0527 84.4164 54.143 84.5068 54.2544 84.5068H61.2822C61.3936 84.5068 61.4839 84.4164 61.4839 84.305V77.2733C61.4839 77.1619 61.3936 77.0716 61.2822 77.0716Z" fill="#FFD405"/>
<path d="M61.2827 77.2733V84.3051H54.255V77.2733H61.2827ZM61.2827 76.8699H54.255C54.0331 76.8699 53.8516 77.0514 53.8516 77.2733V84.3051C53.8516 84.527 54.0331 84.7085 54.255 84.7085H61.2827C61.5046 84.7085 61.6862 84.527 61.6862 84.3051V77.2733C61.6862 77.0514 61.5046 76.8699 61.2827 76.8699Z" fill="#1D1D1B"/>
<path d="M61.2822 47.117H54.2544C54.143 47.117 54.0527 47.2073 54.0527 47.3187V54.3505C54.0527 54.4619 54.143 54.5522 54.2544 54.5522H61.2822C61.3936 54.5522 61.4839 54.4619 61.4839 54.3505V47.3187C61.4839 47.2073 61.3936 47.117 61.2822 47.117Z" fill="#FFD405"/>
<path d="M61.2827 47.3187V54.3504H54.255V47.3187H61.2827ZM61.2827 46.9153H54.255C54.0331 46.9153 53.8516 47.0968 53.8516 47.3187V54.3504C53.8516 54.5723 54.0331 54.7539 54.255 54.7539H61.2827C61.5046 54.7539 61.6862 54.5723 61.6862 54.3504V47.3187C61.6862 47.0968 61.5046 46.9153 61.2827 46.9153Z" fill="#1D1D1B"/>
<path d="M80.8369 77.0716H73.8091C73.6977 77.0716 73.6074 77.1619 73.6074 77.2733V84.305C73.6074 84.4164 73.6977 84.5068 73.8091 84.5068H80.8369C80.9483 84.5068 81.0386 84.4164 81.0386 84.305V77.2733C81.0386 77.1619 80.9483 77.0716 80.8369 77.0716Z" fill="#E73D1C"/>
<path d="M80.8374 77.2733V84.3051H73.8097V77.2733H80.8374ZM80.8374 76.8699H73.8097C73.5878 76.8699 73.4062 77.0514 73.4062 77.2733V84.3051C73.4062 84.527 73.5878 84.7085 73.8097 84.7085H80.8374C81.0593 84.7085 81.2408 84.527 81.2408 84.3051V77.2733C81.2408 77.0514 81.0593 76.8699 80.8374 76.8699Z" fill="#1D1D1B"/>
<path d="M61.2822 62.0963H54.2544C54.143 62.0963 54.0527 62.1866 54.0527 62.298V69.3257C54.0527 69.4371 54.143 69.5274 54.2544 69.5274H61.2822C61.3936 69.5274 61.4839 69.4371 61.4839 69.3257V62.298C61.4839 62.1866 61.3936 62.0963 61.2822 62.0963Z" fill="#E73D1C"/>
<path d="M61.2827 62.298V69.3258H54.255V62.298H61.2827ZM61.2827 61.8946H54.255C54.0331 61.8946 53.8516 62.0761 53.8516 62.298V69.3258C53.8516 69.5476 54.0331 69.7292 54.255 69.7292H61.2827C61.5046 69.7292 61.6862 69.5476 61.6862 69.3258V62.298C61.6862 62.0761 61.5046 61.8946 61.2827 61.8946Z" fill="#1D1D1B"/>
<path d="M80.8369 47.117H73.8091C73.6977 47.117 73.6074 47.2073 73.6074 47.3187V54.3505C73.6074 54.4619 73.6977 54.5522 73.8091 54.5522H80.8369C80.9483 54.5522 81.0386 54.4619 81.0386 54.3505V47.3187C81.0386 47.2073 80.9483 47.117 80.8369 47.117Z" fill="#E73D1C"/>
<path d="M80.8374 47.3187V54.3504H73.8097V47.3187H80.8374ZM80.8374 46.9153H73.8097C73.5878 46.9153 73.4062 47.0968 73.4062 47.3187V54.3504C73.4062 54.5723 73.5878 54.7539 73.8097 54.7539H80.8374C81.0593 54.7539 81.2408 54.5723 81.2408 54.3504V47.3187C81.2408 47.0968 81.0593 46.9153 80.8374 46.9153Z" fill="#1D1D1B"/>
<path d="M65.6869 33.0373C65.574 33.0373 65.4852 32.9486 65.4852 32.8356V26.9254C65.4852 26.4816 65.1221 26.1185 64.6784 26.1185H58.7681C58.6552 26.1185 58.5664 26.0297 58.5664 25.9168V21.9874C58.5664 21.8744 58.6552 21.7857 58.7681 21.7857H64.6784C65.1221 21.7857 65.4852 21.4226 65.4852 20.9788V15.0686C65.4852 14.9556 65.574 14.8669 65.6869 14.8669H69.6083C69.7212 14.8669 69.81 14.9556 69.81 15.0686V20.9788C69.81 21.4226 70.1731 21.7857 70.6168 21.7857H76.5351C76.6481 21.7857 76.7368 21.8744 76.7368 21.9874V25.9168C76.7368 26.0297 76.6481 26.1185 76.5351 26.1185H70.6168C70.1731 26.1185 69.81 26.4816 69.81 26.9254V32.8356C69.81 32.9486 69.7212 33.0373 69.6083 33.0373H65.6869Z" fill="#E73D1C"/>
<path d="M69.6088 15.0686V20.9788C69.6088 21.5355 70.0606 21.9874 70.6174 21.9874H76.5357V25.9168H70.6174C70.0606 25.9168 69.6088 26.3686 69.6088 26.9254V32.8356H65.6875V26.9254C65.6875 26.3686 65.2356 25.9168 64.6789 25.9168H58.7687V21.9874H64.6789C65.2356 21.9874 65.6875 21.5355 65.6875 20.9788V15.0686H69.6088ZM69.6088 14.6651H65.6875C65.4656 14.6651 65.284 14.8467 65.284 15.0686V20.9788C65.284 21.3137 65.0137 21.584 64.6789 21.584H58.7687C58.5468 21.584 58.3652 21.7655 58.3652 21.9874V25.9168C58.3652 26.1387 58.5468 26.3202 58.7687 26.3202H64.6789C65.0137 26.3202 65.284 26.5905 65.284 26.9254V32.8356C65.284 33.0575 65.4656 33.239 65.6875 33.239H69.6088C69.8307 33.239 70.0122 33.0575 70.0122 32.8356V26.9254C70.0122 26.5905 70.2825 26.3202 70.6174 26.3202H76.5357C76.7576 26.3202 76.9391 26.1387 76.9391 25.9168V21.9874C76.9391 21.7655 76.7576 21.584 76.5357 21.584H70.6174C70.2825 21.584 70.0122 21.3137 70.0122 20.9788V15.0686C70.0122 14.8467 69.8307 14.6651 69.6088 14.6651Z" fill="#1D1D1B"/>
</svg>
