<svg width="135" height="126" viewBox="0 0 135 126" fill="none" xmlns="http://www.w3.org/2000/svg">
<path d="M116.283 65.0176H109.333V53.0041C111.538 51.7241 113.031 49.3416 113.031 46.6147V40.6427C113.031 40.6427 113.027 40.6219 113.027 40.608C113.027 40.5732 113.02 40.5419 113.017 40.5106C113.013 40.4515 113.003 40.3958 112.989 40.3402C112.989 40.3262 112.989 40.3123 112.982 40.2984L108.975 26.8519V19.2139C108.975 18.5427 108.432 17.9966 107.758 17.9966H25.1728C24.498 17.9966 23.9554 18.5427 23.9554 19.2139V26.8519L19.9486 40.2984C19.9486 40.2984 19.9486 40.3262 19.9417 40.3402C19.9277 40.3958 19.9174 40.4515 19.9139 40.5106C19.9104 40.5419 19.9034 40.5732 19.9034 40.608C19.9034 40.6219 19.9 40.6323 19.9 40.6427V46.6147C19.9 49.3416 21.3921 51.7276 23.6007 53.0041V93.9522H18.7173C18.0461 93.9522 17.5 94.4983 17.5 95.1696C17.5 95.8408 18.0461 96.3869 18.7173 96.3869H80.0753V101.58C80.0753 102.251 80.6213 102.797 81.2926 102.797H98.0781L108.909 113.628C109.142 113.861 109.452 113.986 109.772 113.986C109.928 113.986 110.085 113.955 110.234 113.892C110.69 113.705 110.985 113.259 110.985 112.769V102.797H116.283C116.954 102.797 117.5 102.251 117.5 101.58V66.2349C117.5 65.5601 116.954 65.0176 116.283 65.0176ZM110.596 46.6147C110.596 49.3416 108.377 51.5641 105.647 51.5641H105.445C102.714 51.5641 100.495 49.3416 100.495 46.6147V41.8601H110.596V46.6147ZM110.182 39.4254H99.7963L97.685 28.2467H106.85L110.182 39.4254ZM26.3901 20.4313H106.54V25.812H26.3901V20.4313ZM87.4663 41.8601H97.5703V46.6147C97.5703 49.3416 95.3512 51.5641 92.6208 51.5641H92.4192C89.6888 51.5641 87.4663 49.3416 87.4663 46.6147V41.8601ZM86.8019 39.4254L85.0281 28.2467H95.2052L97.3198 39.4254H86.8019ZM84.5446 41.8601V46.6147C84.5446 49.3416 82.3221 51.5641 79.5918 51.5641H79.3901C76.6632 51.5641 74.4407 49.3416 74.4407 46.6147V41.8601H84.5446ZM74.4407 39.4254V28.2467H82.5656L84.336 39.4254H74.4407ZM60.9246 39.4254V28.2467H72.006V39.4254H60.9246ZM71.5155 41.8601V46.6147C71.5155 49.3416 69.2965 51.5641 66.5661 51.5641H66.3644C63.634 51.5641 61.415 49.3416 61.415 46.6147V41.8601H71.5155ZM48.5494 39.4254L49.9545 28.2467H58.4899V39.4254H48.5494ZM58.4899 41.8601V46.6147C58.4899 49.3416 56.2709 51.5641 53.5405 51.5641H53.3388C50.6084 51.5641 48.3859 49.3416 48.3859 46.6147V41.8601H58.4899ZM35.6107 39.4254L37.7254 28.2467H47.5024L46.0973 39.4254H35.6107ZM45.4643 41.8601V46.6147C45.4643 49.3416 43.2418 51.5641 40.5114 51.5641H40.3097C37.5828 51.5641 35.3603 49.3416 35.3603 46.6147V41.8601H45.4643ZM26.0806 28.2467H35.249L33.1343 39.4254H22.7485L26.0806 28.2467ZM22.3347 46.6147V41.8601H32.4352V46.6147C32.4352 49.3416 30.2162 51.5641 27.4858 51.5641H27.2841C24.5537 51.5641 22.3347 49.3416 22.3347 46.6147ZM48.939 93.9522H32.3099V62.169H48.939V93.9522ZM80.0753 93.9522H51.3736V60.9516C51.3736 60.2803 50.8276 59.7343 50.1563 59.7343H31.0926C30.4178 59.7343 29.8752 60.2803 29.8752 60.9516V93.9522H26.0354V53.884C26.4423 53.9536 26.8562 53.9988 27.2841 53.9988H27.4858C30.2301 53.9988 32.6265 52.4893 33.8995 50.2633C35.1725 52.4893 37.5654 53.9988 40.3097 53.9988H40.5114C43.2592 53.9988 45.6521 52.4893 46.9251 50.2633C48.1981 52.4893 50.5945 53.9988 53.3388 53.9988H53.5405C56.2848 53.9988 58.6777 52.4893 59.9507 50.2633C61.2237 52.4893 63.6201 53.9988 66.3644 53.9988H66.5661C69.3104 53.9988 71.7068 52.4893 72.9798 50.2633C74.2528 52.4893 76.6458 53.9988 79.3901 53.9988H79.5918C82.336 53.9988 84.7325 52.4893 86.0055 50.2633C87.2785 52.4893 89.6749 53.9988 92.4192 53.9988H92.6208C95.3651 53.9988 97.7581 52.4893 99.0311 50.2633C100.304 52.4893 102.701 53.9988 105.445 53.9988H105.647C106.074 53.9988 106.492 53.9536 106.899 53.884V65.0176H101.695V60.9516C101.695 60.2803 101.149 59.7343 100.478 59.7343H56.5491C55.8743 59.7343 55.3317 60.2803 55.3317 60.9516V86.2899C55.3317 86.9611 55.8743 87.5072 56.5491 87.5072H80.0753V93.9522ZM80.0753 66.2349V85.0725H57.7664V62.169H99.2607V65.0176H81.2926C80.6213 65.0176 80.0753 65.5601 80.0753 66.2349ZM115.065 100.362H109.768C109.097 100.362 108.551 100.905 108.551 101.58V109.83L99.4415 100.717C99.212 100.491 98.9024 100.362 98.5824 100.362H82.51V95.1765C82.51 95.1765 82.51 95.1765 82.51 95.1696C82.51 95.1661 82.51 95.1626 82.51 95.1591V86.2968C82.51 86.2968 82.51 86.2933 82.51 86.2899V67.4523H115.062V100.362H115.065Z" fill="white"/>
<path d="M108.549 110.004C108.503 110.004 108.458 109.986 108.427 109.952L99.3177 100.839C99.1229 100.648 98.8517 100.536 98.5804 100.536H82.5079C82.4105 100.536 82.334 100.46 82.334 100.362V86.2969C82.334 86.2969 82.334 86.2725 82.3375 86.2621V67.4523C82.3375 67.3549 82.414 67.2784 82.5114 67.2784H115.063C115.161 67.2784 115.237 67.3549 115.237 67.4523V100.362C115.237 100.46 115.161 100.536 115.063 100.536H109.766C109.192 100.536 108.723 101.006 108.723 101.58V109.83C108.723 109.9 108.681 109.962 108.615 109.99C108.594 110 108.57 110.004 108.549 110.004Z" fill="#FFD405"/>
<path d="M115.067 67.4523V100.362H109.77C109.099 100.362 108.553 100.905 108.553 101.58V109.83L99.4434 100.717C99.2139 100.491 98.9043 100.362 98.5843 100.362H82.5119V95.1766C82.5119 95.1766 82.5119 95.1766 82.5119 95.1696C82.5119 95.1661 82.5119 95.1626 82.5119 95.1592V86.2969C82.5119 86.2969 82.5119 86.2934 82.5119 86.2899V67.4523H115.064M115.064 67.1045H82.5119C82.3206 67.1045 82.1641 67.261 82.1641 67.4523V86.2482C82.1641 86.2482 82.1641 86.2795 82.1641 86.2969V95.1592V95.1661C82.1641 95.1661 82.1641 95.1731 82.1641 95.1766V100.362C82.1641 100.554 82.3206 100.71 82.5119 100.71H98.5843C98.8104 100.71 99.0365 100.804 99.2 100.964L108.306 110.073C108.372 110.14 108.462 110.174 108.553 110.174C108.598 110.174 108.643 110.167 108.685 110.146C108.814 110.094 108.9 109.966 108.9 109.826V101.576C108.9 101.096 109.29 100.707 109.77 100.707H115.067C115.259 100.707 115.415 100.55 115.415 100.359V67.4488C115.415 67.2575 115.259 67.101 115.067 67.101L115.064 67.1045Z" fill="#1D1D1B"/>
<path d="M110.675 87.1907H87.1353C86.464 87.1907 85.918 87.7368 85.918 88.4081V90.0811C85.918 92.5401 87.9144 94.5366 90.3734 94.5366H107.437C109.893 94.5366 111.893 92.5401 111.893 90.0811V88.4081C111.893 87.7368 111.347 87.1907 110.675 87.1907ZM109.458 90.0811C109.458 91.1976 108.55 92.1019 107.437 92.1019H90.3734C89.2569 92.1019 88.3527 91.1976 88.3527 90.0811V89.6254H109.458V90.0811Z" fill="white"/>
<path d="M90.3743 92.2758C89.1639 92.2758 88.1797 91.2915 88.1797 90.0811V89.6254C88.1797 89.5281 88.2562 89.4515 88.3536 89.4515H109.459C109.556 89.4515 109.633 89.5281 109.633 89.6254V90.0811C109.633 91.2915 108.648 92.2758 107.438 92.2758H90.3743Z" fill="#FFD405"/>
<path d="M109.459 89.6255V90.0811C109.459 91.1976 108.551 92.1019 107.438 92.1019H90.3744C89.2579 92.1019 88.3537 91.1976 88.3537 90.0811V89.6255H109.459ZM109.459 89.2776H88.3537C88.1624 89.2776 88.0059 89.4342 88.0059 89.6255V90.0811C88.0059 91.3854 89.0666 92.4497 90.3744 92.4497H107.438C108.746 92.4497 109.807 91.3854 109.807 90.0811V89.6255C109.807 89.4342 109.65 89.2776 109.459 89.2776Z" fill="#1D1D1B"/>
<path d="M102.459 71.5774H94.7407C89.7461 71.5774 85.6836 75.6398 85.6836 80.6344C85.6836 81.3057 86.2297 81.8518 86.9009 81.8518H110.295C110.97 81.8518 111.512 81.3057 111.512 80.6344C111.512 75.6398 107.45 71.5774 102.459 71.5774ZM88.2331 79.4171C88.8035 76.3459 91.506 74.0121 94.7407 74.0121H102.459C105.693 74.0121 108.392 76.3459 108.966 79.4171H88.2331Z" fill="white"/>
<path d="M88.233 79.591C88.1808 79.591 88.1321 79.5666 88.1008 79.5284C88.066 79.4901 88.0556 79.4379 88.0626 79.3858C88.6608 76.172 91.4677 73.8381 94.7406 73.8381H102.459C105.728 73.8381 108.535 76.172 109.137 79.3858C109.147 79.4379 109.133 79.4901 109.098 79.5284C109.064 79.5666 109.015 79.591 108.966 79.591H88.233Z" fill="#FFD405"/>
<path d="M102.459 74.0121C105.693 74.0121 108.392 76.3459 108.966 79.4171H88.233C88.8034 76.3459 91.5059 74.0121 94.7406 74.0121H102.459ZM102.459 73.6642H94.7406C91.3842 73.6642 88.5043 76.0572 87.8922 79.3545C87.8748 79.4553 87.8991 79.5597 87.9652 79.6397C88.0313 79.7197 88.1287 79.7649 88.233 79.7649H108.966C109.071 79.7649 109.168 79.7197 109.234 79.6397C109.3 79.5597 109.328 79.4553 109.307 79.3545C108.691 76.0572 105.811 73.6642 102.459 73.6642Z" fill="#1D1D1B"/>
<path d="M92.2996 78.1406C91.7778 78.1406 91.3535 77.7163 91.3535 77.1911C91.3535 76.6659 91.7778 76.245 92.2996 76.245C92.8213 76.245 93.2491 76.6694 93.2491 77.1911C93.2491 77.7128 92.8248 78.1406 92.2996 78.1406Z" fill="#E73D1C"/>
<path d="M92.2996 76.4189C92.7274 76.4189 93.0718 76.7667 93.0718 77.1945C93.0718 77.6224 92.724 77.9702 92.2996 77.9702C91.8753 77.9702 91.5275 77.6224 91.5275 77.1945C91.5275 76.7667 91.8753 76.4189 92.2996 76.4189ZM92.2996 76.0711C91.6805 76.0711 91.1797 76.5754 91.1797 77.1945C91.1797 77.8137 91.684 78.318 92.2996 78.318C92.9153 78.318 93.4196 77.8137 93.4196 77.1945C93.4196 76.5754 92.9153 76.0711 92.2996 76.0711Z" fill="#1D1D1B"/>
<path d="M105.641 78.1406C105.119 78.1406 104.691 77.7163 104.691 77.1911C104.691 76.6659 105.116 76.245 105.641 76.245C106.166 76.245 106.59 76.6694 106.59 77.1911C106.59 77.7128 106.166 78.1406 105.641 78.1406Z" fill="#E73D1C"/>
<path d="M105.639 76.4189C106.067 76.4189 106.412 76.7667 106.412 77.1945C106.412 77.6224 106.064 77.9702 105.639 77.9702C105.215 77.9702 104.867 77.6224 104.867 77.1945C104.867 76.7667 105.215 76.4189 105.639 76.4189ZM105.639 76.0711C105.02 76.0711 104.52 76.5754 104.52 77.1945C104.52 77.8137 105.024 78.318 105.639 78.318C106.255 78.318 106.759 77.8137 106.759 77.1945C106.759 76.5754 106.255 76.0711 105.639 76.0711Z" fill="#1D1D1B"/>
<path d="M102.955 76.5929C102.434 76.5929 102.006 76.1685 102.006 75.6468C102.006 75.1251 102.43 74.7007 102.955 74.7007C103.481 74.7007 103.901 75.1251 103.901 75.6468C103.901 76.1685 103.477 76.5929 102.955 76.5929Z" fill="#E73D1C"/>
<path d="M102.956 74.8712C103.384 74.8712 103.728 75.219 103.728 75.6468C103.728 76.0746 103.38 76.4189 102.956 76.4189C102.532 76.4189 102.184 76.0711 102.184 75.6468C102.184 75.2225 102.532 74.8712 102.956 74.8712ZM102.956 74.5233C102.337 74.5233 101.836 75.0277 101.836 75.6468C101.836 76.2659 102.34 76.7667 102.956 76.7667C103.572 76.7667 104.076 76.2624 104.076 75.6468C104.076 75.0312 103.572 74.5233 102.956 74.5233Z" fill="#1D1D1B"/>
<path d="M96.2078 76.5929C96.7303 76.5929 97.1538 76.1693 97.1538 75.6468C97.1538 75.1243 96.7303 74.7007 96.2078 74.7007C95.6853 74.7007 95.2617 75.1243 95.2617 75.6468C95.2617 76.1693 95.6853 76.5929 96.2078 76.5929Z" fill="#E73D1C"/>
<path d="M96.2117 74.8712C96.6396 74.8712 96.9839 75.219 96.9839 75.6468C96.9839 76.0746 96.6361 76.4189 96.2117 76.4189C95.7874 76.4189 95.4396 76.0711 95.4396 75.6468C95.4396 75.2225 95.7874 74.8712 96.2117 74.8712ZM96.2117 74.5233C95.5926 74.5233 95.0918 75.0277 95.0918 75.6468C95.0918 76.2659 95.5961 76.7667 96.2117 76.7667C96.8274 76.7667 97.3317 76.2624 97.3317 75.6468C97.3317 75.0312 96.8274 74.5233 96.2117 74.5233Z" fill="#1D1D1B"/>
<path d="M99.7015 78.1406C99.1798 78.1406 98.752 77.7163 98.752 77.1911C98.752 76.6659 99.1763 76.245 99.7015 76.245C100.227 76.245 100.648 76.6694 100.648 77.1911C100.648 77.7128 100.223 78.1406 99.7015 78.1406Z" fill="#E73D1C"/>
<path d="M99.7 76.4189C100.128 76.4189 100.472 76.7667 100.472 77.1945C100.472 77.6224 100.124 77.9702 99.7 77.9702C99.2757 77.9702 98.9279 77.6224 98.9279 77.1945C98.9279 76.7667 99.2757 76.4189 99.7 76.4189ZM99.7 76.0711C99.0809 76.0711 98.5801 76.5754 98.5801 77.1945C98.5801 77.8137 99.0844 78.318 99.7 78.318C100.316 78.318 100.82 77.8137 100.82 77.1945C100.82 76.5754 100.316 76.0711 99.7 76.0711Z" fill="#1D1D1B"/>
<path d="M87.1373 85.9282C86.3687 85.9282 85.7461 85.3056 85.7461 84.5369C85.7461 83.7682 86.3687 83.1457 87.1373 83.1457H110.677C111.446 83.1457 112.069 83.7682 112.069 84.5369C112.069 85.3056 111.446 85.9282 110.677 85.9282H87.1373Z" fill="#FFD405"/>
<path d="M110.677 83.3196C111.349 83.3196 111.895 83.8656 111.895 84.5369C111.895 85.2082 111.349 85.7543 110.677 85.7543H87.1374C86.4661 85.7543 85.9201 85.2082 85.9201 84.5369C85.9201 83.8656 86.4661 83.3196 87.1374 83.3196H110.677ZM110.677 82.9717H87.1374C86.2748 82.9717 85.5723 83.6743 85.5723 84.5369C85.5723 85.3995 86.2748 86.1021 87.1374 86.1021H110.677C111.54 86.1021 112.243 85.3995 112.243 84.5369C112.243 83.6743 111.54 82.9717 110.677 82.9717Z" fill="#1D1D1B"/>
<path d="M87.1374 86.1021C86.2748 86.1021 85.5723 85.3995 85.5723 84.5369C85.5723 83.6743 86.2748 82.9717 87.1374 82.9717H110.677C111.54 82.9717 112.243 83.6743 112.243 84.5369C112.243 85.3995 111.54 86.1021 110.677 86.1021H87.1374Z" fill="white"/>
<path d="M110.676 83.3196C111.347 83.3196 111.893 83.8656 111.893 84.5369C111.893 85.2082 111.347 85.7543 110.676 85.7543H87.1356C86.4644 85.7543 85.9183 85.2082 85.9183 84.5369C85.9183 83.8656 86.4644 83.3196 87.1356 83.3196H110.676ZM110.676 82.6239H87.1356C86.0818 82.6239 85.2227 83.483 85.2227 84.5369C85.2227 85.5908 86.0818 86.4499 87.1356 86.4499H110.676C111.73 86.4499 112.589 85.5908 112.589 84.5369C112.589 83.483 111.73 82.6239 110.676 82.6239Z" fill="white"/>
<path d="M87.1373 85.9282C86.3687 85.9282 85.7461 85.3056 85.7461 84.5369C85.7461 83.7682 86.3687 83.1457 87.1373 83.1457H110.677C111.446 83.1457 112.069 83.7682 112.069 84.5369C112.069 85.3056 111.446 85.9282 110.677 85.9282H87.1373Z" fill="#E73D1C"/>
<path d="M110.677 83.3196C111.349 83.3196 111.895 83.8656 111.895 84.5369C111.895 85.2082 111.349 85.7543 110.677 85.7543H87.1374C86.4661 85.7543 85.9201 85.2082 85.9201 84.5369C85.9201 83.8656 86.4661 83.3196 87.1374 83.3196H110.677ZM110.677 82.9717H87.1374C86.2748 82.9717 85.5723 83.6743 85.5723 84.5369C85.5723 85.3995 86.2748 86.1021 87.1374 86.1021H110.677C111.54 86.1021 112.243 85.3995 112.243 84.5369C112.243 83.6743 111.54 82.9717 110.677 82.9717Z" fill="#1D1D1B"/>
</svg>
