<svg width="136" height="126" viewBox="0 0 136 126" fill="none" xmlns="http://www.w3.org/2000/svg">
<path d="M117.276 46.2915L68.4544 11.2222C68.0436 10.9259 67.4915 10.9259 67.0808 11.2222L18.2591 46.2915C17.9494 46.5137 17.7676 46.8706 17.7676 47.2476V104.836C17.7676 105.486 18.2961 106.014 18.9459 106.014H37.8558C38.5055 106.014 39.0341 105.486 39.0341 104.836C39.0341 104.186 38.5055 103.658 37.8558 103.658H31.0688V57.7075H104.466V103.658H97.6794C97.0296 103.658 96.5011 104.186 96.5011 104.836C96.5011 105.486 97.0296 106.014 97.6794 106.014H116.589C117.239 106.014 117.768 105.486 117.768 104.836V47.2476C117.768 46.8672 117.586 46.5104 117.276 46.2915ZM115.411 103.661H106.823V56.5292C106.823 55.8795 106.294 55.3509 105.645 55.3509H29.8905C29.2408 55.3509 28.7122 55.8795 28.7122 56.5292V103.658H20.1242V47.8536L67.7676 13.6293L115.411 47.8536V103.661Z" fill="white"/>
<path d="M50.6016 37.5049V45.5274C50.6016 46.1771 51.1301 46.7057 51.7799 46.7057H84.2132C84.8629 46.7057 85.3915 46.1771 85.3915 45.5274V37.5049C85.3915 36.8551 84.8629 36.3266 84.2132 36.3266H51.7799C51.1301 36.3266 50.6016 36.8551 50.6016 37.5049ZM52.9581 38.6832H83.0349V44.3491H52.9581V38.6832Z" fill="white"/>
<path d="M86.6178 84.1585C86.6178 84.1585 86.6111 84.1316 86.6043 84.1148C86.5976 84.0777 86.5841 84.0407 86.5707 84.0037C86.5639 83.9868 86.5572 83.97 86.5505 83.9532C86.5336 83.9195 86.5168 83.8858 86.4966 83.8555C86.4865 83.8421 86.4798 83.8286 86.4697 83.8151C86.4394 83.7714 86.4091 83.731 86.372 83.6939C86.372 83.6939 86.3698 83.6928 86.3653 83.6906C86.3316 83.6535 86.2913 83.6232 86.2509 83.5929C86.2374 83.5828 86.2206 83.5761 86.2071 83.566C86.1768 83.5458 86.1431 83.529 86.1128 83.5155C86.0926 83.5054 86.0758 83.4987 86.0556 83.4919C86.0455 83.4852 86.032 83.4819 86.0219 83.4751L77.3968 80.5832L77.3766 69.339V69.3255C77.3733 69.2582 77.3665 69.1908 77.3497 69.1269C77.3497 69.1168 77.343 69.11 77.3396 69.0999C77.3261 69.0461 77.3059 68.9922 77.2824 68.9451C77.2723 68.9249 77.2622 68.9047 77.2487 68.8879C77.2251 68.8475 77.2016 68.8104 77.1746 68.7768C77.1578 68.7599 77.1443 68.7431 77.1275 68.7263C77.0972 68.6892 77.0602 68.6589 77.0198 68.6286C77.0097 68.6219 77.0029 68.6084 76.9895 68.6017C76.9895 68.5983 76.9794 68.5983 76.976 68.595C76.9255 68.5613 76.8716 68.531 76.811 68.5074C76.8043 68.5074 76.8009 68.5007 76.7942 68.4973L67.8224 65.1072C67.6305 65.0332 67.415 65.0298 67.2197 65.0971L58.2479 68.1035C58.2479 68.1035 58.2243 68.1136 58.2109 68.1203C58.194 68.127 58.1738 68.1337 58.157 68.1438C58.1233 68.1573 58.093 68.1742 58.0627 68.1944C58.0459 68.2044 58.0324 68.2112 58.019 68.2213C57.9752 68.2516 57.9382 68.2819 57.9011 68.3189C57.9011 68.3189 57.8978 68.3189 57.8978 68.3223C57.8607 68.3593 57.8271 68.3997 57.7968 68.4435C57.7867 68.4569 57.7799 68.4704 57.7698 68.4839C57.753 68.5142 57.7328 68.5478 57.7193 68.5815C57.7126 68.5983 57.7025 68.6152 57.6958 68.632C57.6823 68.669 57.6722 68.7061 57.6621 68.7431C57.6587 68.7599 57.6554 68.7734 57.652 68.7869C57.6419 68.8374 57.6352 68.8879 57.6352 68.9417V80.7549L49.5184 83.4751C49.5184 83.4751 49.4949 83.4852 49.4814 83.4919C49.4612 83.4987 49.4444 83.5054 49.4275 83.5155C49.3939 83.529 49.3636 83.5458 49.3333 83.566C49.3164 83.5761 49.303 83.5828 49.2895 83.5929C49.2457 83.6232 49.2087 83.6535 49.1717 83.6906C49.1717 83.6906 49.1683 83.6906 49.1683 83.6939C49.1313 83.731 49.0976 83.7714 49.0673 83.8151C49.0572 83.8286 49.0505 83.8421 49.0404 83.8555C49.0202 83.8858 49.0033 83.9195 48.9899 83.9532C48.9798 83.97 48.973 83.9868 48.9663 84.0037C48.9528 84.0407 48.9427 84.0777 48.9326 84.1148C48.9293 84.1316 48.9225 84.1451 48.9225 84.1585C48.9124 84.209 48.9057 84.2595 48.9023 84.3134C48.9023 84.3134 48.9057 84.3201 48.9057 84.3235C48.9057 84.3269 48.9023 84.3269 48.9023 84.3302V96.3084C48.9023 96.6754 49.1245 97.0019 49.4612 97.1433L58.9347 101.035C58.9347 101.035 58.9582 101.042 58.9683 101.045C59.002 101.059 59.039 101.069 59.0761 101.079C59.0929 101.082 59.1097 101.086 59.1266 101.089C59.1703 101.099 59.2175 101.102 59.2646 101.102C59.268 101.102 59.2747 101.102 59.2781 101.102C59.3319 101.102 59.3858 101.096 59.4363 101.086C59.4497 101.082 59.4632 101.079 59.4767 101.075C59.5171 101.065 59.5575 101.055 59.5945 101.042C59.6046 101.042 59.6113 101.035 59.6214 101.032L67.7685 97.6786L75.9155 101.032C75.9155 101.032 75.9357 101.038 75.9425 101.042C75.9829 101.055 76.0199 101.069 76.0603 101.075C76.0738 101.079 76.0872 101.082 76.1007 101.086C76.1546 101.096 76.2051 101.102 76.2589 101.102C76.2657 101.102 76.269 101.102 76.2758 101.102C76.3195 101.102 76.3666 101.099 76.4138 101.089C76.4306 101.086 76.4475 101.082 76.4643 101.079C76.5013 101.069 76.535 101.059 76.572 101.045C76.5821 101.045 76.5922 101.045 76.6023 101.035L86.0758 97.1433C86.4124 97.0019 86.6346 96.6754 86.6346 96.3084V84.3134C86.6346 84.2595 86.6279 84.209 86.6178 84.1585ZM75.5991 80.7347L73.7037 81.5158L68.9097 83.327V73.1162L75.5789 70.6351L75.5991 80.7347ZM58.3792 98.8602L50.7035 95.7058V85.6263L58.3792 88.4879V98.8602ZM59.2781 86.9023L52.4978 84.374L58.7562 82.2766L65.183 84.7039L59.2781 86.9023ZM60.1769 98.8602V88.4879L66.8494 86.0068L66.8663 96.1064L60.1769 98.8602ZM67.1087 83.4886L59.4329 80.3341V70.2547L67.1087 73.1162V83.4886ZM61.2306 69.0023L67.4857 66.905L73.9158 69.3322L68.0109 71.5306L61.2306 69.0023ZM75.3601 98.8602L68.6707 96.1064L68.6876 86.0068L75.3601 88.4879V98.8602ZM76.2589 86.9023L70.5257 84.7712L74.3737 83.1856L76.7807 82.2766L83.0392 84.374L76.2589 86.9023ZM84.8335 95.7058L77.1578 98.8602V88.4879L84.8335 85.6263V95.7058Z" fill="white"/>
<path d="M68.013 71.6989C67.9928 71.6989 67.9726 71.6955 67.9558 71.6888L61.1756 69.1605C61.1082 69.1369 61.0645 69.0696 61.0645 68.9989C61.0645 68.9282 61.1116 68.8642 61.1789 68.844L67.434 66.7467C67.4508 66.74 67.471 66.7366 67.4878 66.7366C67.508 66.7366 67.5282 66.74 67.5484 66.7467L73.9785 69.174C74.0425 69.1975 74.0863 69.2615 74.0863 69.3322C74.0863 69.4029 74.0425 69.4635 73.9752 69.4904L68.0702 71.6888C68.05 71.6955 68.0299 71.6989 68.013 71.6989Z" fill="#E73D1C"/>
<path d="M67.4882 66.9049L73.9183 69.3322L68.0134 71.5306L61.2331 69.0023L67.4882 66.9049ZM67.4882 66.5683C67.4512 66.5683 67.4175 66.575 67.3805 66.5851L61.1254 68.6825C60.9907 68.7262 60.8999 68.8542 60.8965 68.9956C60.8965 69.137 60.9807 69.2683 61.1153 69.3154L67.8955 71.8437C67.9326 71.8571 67.973 71.8639 68.0134 71.8639C68.0538 71.8639 68.0942 71.8571 68.1312 71.8437L74.0361 69.6453C74.1674 69.5948 74.255 69.4702 74.255 69.3322C74.255 69.1908 74.1674 69.0663 74.0361 69.0158L67.606 66.5885C67.569 66.575 67.5286 66.5683 67.4882 66.5683Z" fill="#1D1D1B"/>
<path d="M67.1077 83.6569C67.0875 83.6569 67.064 83.6536 67.0438 83.6435L59.368 80.489C59.3041 80.4621 59.2637 80.4015 59.2637 80.3341V70.2547C59.2637 70.2008 59.2906 70.147 59.3344 70.1167C59.3613 70.0965 59.395 70.0864 59.432 70.0864C59.4522 70.0864 59.4724 70.0897 59.4892 70.0965L67.165 72.958C67.2323 72.9816 67.2761 73.0456 67.2761 73.1163V83.4886C67.2761 83.5458 67.2491 83.5963 67.202 83.63C67.1751 83.6502 67.1414 83.6569 67.1077 83.6569Z" fill="#E73D1C"/>
<path d="M59.4323 70.2547L67.1081 73.1162V83.4886L59.4323 80.3341V70.2547ZM59.4323 69.918C59.365 69.918 59.2977 69.9382 59.2405 69.9786C59.1496 70.0426 59.0957 70.1436 59.0957 70.2547V80.3341C59.0957 80.4721 59.1765 80.5933 59.3044 80.6438L66.9802 83.7983C67.0206 83.8151 67.0643 83.8252 67.1081 83.8252C67.1754 83.8252 67.2394 83.805 67.2966 83.768C67.3909 83.704 67.4448 83.5997 67.4448 83.4886V73.1162C67.4448 72.9748 67.3572 72.8503 67.2259 72.7998L59.5502 69.9382C59.5132 69.9247 59.4727 69.918 59.4323 69.918Z" fill="#1D1D1B"/>
<path d="M68.9105 83.4953C68.8768 83.4953 68.8432 83.4852 68.8162 83.465C68.7691 83.4347 68.7422 83.3809 68.7422 83.327V73.1163C68.7422 73.0456 68.786 72.9816 68.8533 72.958L75.5224 70.4769C75.5426 70.4702 75.5628 70.4668 75.5796 70.4668C75.6133 70.4668 75.647 70.4769 75.6773 70.4971C75.721 70.5274 75.748 70.5813 75.748 70.6351L75.7682 80.7348C75.7682 80.8021 75.7278 80.8661 75.6638 80.8896L73.7684 81.6707L68.9711 83.4852C68.9509 83.492 68.9307 83.4953 68.9105 83.4953Z" fill="#E73D1C"/>
<path d="M75.58 70.6351L75.6002 80.7348L73.7048 81.5158L68.9109 83.327V73.1163L75.58 70.6351ZM75.58 70.2985C75.5396 70.2985 75.4992 70.3052 75.4622 70.3187L68.7931 72.7998C68.6618 72.8503 68.5742 72.9749 68.5742 73.1163V83.327C68.5742 83.4381 68.6281 83.5425 68.719 83.6031C68.7762 83.6435 68.8435 83.6637 68.9109 83.6637C68.9513 83.6637 68.9917 83.6569 69.0287 83.6435L73.8227 81.8323L75.7281 81.0478C75.8561 80.9973 75.9369 80.8728 75.9369 80.7348L75.9167 70.6351C75.9167 70.524 75.8628 70.423 75.7719 70.359C75.7147 70.3187 75.6473 70.2985 75.58 70.2985Z" fill="#1D1D1B"/>
<path d="M76.259 87.0706C76.2388 87.0706 76.2186 87.0672 76.2017 87.0605L70.4685 84.9295C70.4046 84.9059 70.3608 84.8453 70.3574 84.7746C70.3574 84.7039 70.3978 84.6433 70.4618 84.6164L74.3097 83.0307L76.7202 82.1184C76.7404 82.1117 76.7606 82.1083 76.7808 82.1083C76.7976 82.1083 76.8178 82.1083 76.8347 82.1184L83.0931 84.2158C83.1604 84.2393 83.2075 84.2999 83.2075 84.3706C83.2075 84.4413 83.1638 84.5053 83.0965 84.5322L76.3162 87.0605C76.296 87.0672 76.2758 87.0706 76.259 87.0706Z" fill="#FFD405"/>
<path d="M76.7813 82.2766L83.0397 84.374L76.2594 86.9023L70.5262 84.7712L74.3742 83.1856L76.7813 82.2766ZM76.7813 81.94C76.7409 81.94 76.7005 81.9467 76.6634 81.9602L74.2563 82.8691L70.3983 84.4581C70.2703 84.512 70.1862 84.6366 70.1896 84.7746C70.1896 84.9126 70.2805 85.0372 70.4084 85.0843L76.1416 87.2153C76.1786 87.2288 76.2191 87.2355 76.2594 87.2355C76.2998 87.2355 76.3402 87.2288 76.3773 87.2153L83.1575 84.6871C83.2922 84.6366 83.3797 84.5086 83.3763 84.3672C83.3763 84.2258 83.2821 84.0979 83.1474 84.0542L76.889 81.9568C76.8553 81.9467 76.8183 81.94 76.7813 81.94Z" fill="#1D1D1B"/>
<path d="M77.1586 99.0286C77.1249 99.0286 77.0946 99.0185 77.0643 99.0016C77.0172 98.9713 76.9902 98.9175 76.9902 98.8602V88.4879C76.9902 88.4172 77.034 88.3532 77.1013 88.3297L84.7771 85.4681C84.7973 85.4614 84.8175 85.458 84.8343 85.458C84.868 85.458 84.9016 85.4681 84.9319 85.4883C84.9757 85.5186 85.0026 85.5725 85.0026 85.6263V95.7058C85.0026 95.7731 84.9622 95.8371 84.8983 95.8606L77.2225 99.0151C77.2023 99.0218 77.1788 99.0286 77.1586 99.0286Z" fill="#FFD405"/>
<path d="M84.8347 85.6263V95.7058L77.1589 98.8602V88.4879L84.8347 85.6263ZM84.8347 85.2897C84.7943 85.2897 84.7539 85.2964 84.7168 85.3099L77.0411 88.1715C76.9098 88.222 76.8223 88.3465 76.8223 88.4879V98.8602C76.8223 98.9713 76.8795 99.0791 76.9704 99.1397C77.0276 99.1767 77.0916 99.1969 77.1589 99.1969C77.2027 99.1969 77.2465 99.1902 77.2869 99.17L84.9626 96.0155C85.0905 95.965 85.1713 95.8405 85.1713 95.7058V85.6263C85.1713 85.5152 85.1174 85.4142 85.0265 85.3503C84.9693 85.3099 84.902 85.2897 84.8347 85.2897Z" fill="#1D1D1B"/>
<path d="M75.3577 99.0286C75.3375 99.0286 75.3139 99.0252 75.2937 99.0151L68.6044 96.2613C68.5404 96.2343 68.5 96.1737 68.5 96.1064L68.5168 86.0068C68.5168 85.9529 68.5438 85.899 68.5875 85.8687C68.6145 85.8485 68.6481 85.8384 68.6852 85.8384C68.7054 85.8384 68.7256 85.8418 68.7424 85.8485L75.4149 88.3297C75.4822 88.3533 75.526 88.4172 75.526 88.4879V98.8603C75.526 98.9175 75.4991 98.968 75.4519 99.0017C75.425 99.0219 75.3913 99.0286 75.3577 99.0286Z" fill="#FFD405"/>
<path d="M68.6855 86.0068L75.358 88.4879V98.8602L68.6687 96.1064L68.6855 86.0068ZM68.6855 85.6701C68.6182 85.6701 68.5509 85.6903 68.4936 85.7307C68.4027 85.7947 68.3489 85.8957 68.3489 86.0068L68.332 96.1064C68.332 96.2444 68.4128 96.3656 68.5408 96.4195L75.2301 99.1733C75.2705 99.1902 75.3143 99.2003 75.358 99.2003C75.4254 99.2003 75.4893 99.1801 75.5465 99.143C75.6408 99.0791 75.6947 98.9747 75.6947 98.8636V88.4913C75.6947 88.3499 75.6072 88.2253 75.4759 88.1748L68.8034 85.6937C68.7663 85.6802 68.7259 85.6735 68.6855 85.6735V85.6701Z" fill="#1D1D1B"/>
<path d="M60.1742 99.0286C60.1405 99.0286 60.1102 99.0185 60.0799 99.0017C60.0328 98.9714 60.0059 98.9175 60.0059 98.8603V88.4879C60.0059 88.4172 60.0496 88.3533 60.117 88.3297L66.7895 85.8485C66.8097 85.8418 66.8299 85.8384 66.8467 85.8384C66.8804 85.8384 66.914 85.8485 66.9443 85.8687C66.9881 85.899 67.015 85.9529 67.015 86.0068L67.0318 96.1064C67.0318 96.1738 66.9914 96.2377 66.9275 96.2613L60.2382 99.0151C60.218 99.0252 60.1944 99.0286 60.1742 99.0286Z" fill="#FFD405"/>
<path d="M66.8471 86.0068L66.8639 96.1064L60.1745 98.8602V88.4879L66.8471 86.0068ZM66.8471 85.6701C66.8067 85.6701 66.7663 85.6768 66.7292 85.6903L60.0567 88.1715C59.9254 88.222 59.8379 88.3465 59.8379 88.4879V98.8602C59.8379 98.9713 59.8951 99.0791 59.986 99.1397C60.0433 99.1767 60.1072 99.1969 60.1745 99.1969C60.2183 99.1969 60.2621 99.1902 60.3025 99.17L66.9918 96.4161C67.1197 96.3656 67.2005 96.2411 67.2005 96.103L67.1837 86.0034C67.1837 85.8923 67.1298 85.7913 67.0389 85.7273C66.9817 85.6869 66.9144 85.6667 66.8471 85.6667V85.6701Z" fill="#1D1D1B"/>
<path d="M59.2747 87.0706C59.2545 87.0706 59.2343 87.0672 59.2175 87.0605L52.4373 84.5322C52.3699 84.5087 52.3262 84.4413 52.3262 84.3706C52.3262 84.2999 52.3733 84.236 52.4406 84.2158L58.699 82.1184C58.7159 82.1117 58.7327 82.1083 58.7529 82.1083C58.7731 82.1083 58.7933 82.1117 58.8135 82.1184L65.2403 84.5457C65.3042 84.5692 65.348 84.6332 65.348 84.7039C65.348 84.7746 65.3042 84.8352 65.2369 84.8621L59.332 87.0605C59.3118 87.0672 59.2916 87.0706 59.2747 87.0706Z" fill="#FFD405"/>
<path d="M58.7533 82.2766L65.18 84.7039L59.2751 86.9023L52.4949 84.374L58.7533 82.2766ZM58.7533 81.94C58.7162 81.94 58.6826 81.9467 58.6455 81.9568L52.3871 84.0542C52.2525 84.0979 52.1616 84.2258 52.1582 84.3672C52.1582 84.5086 52.2424 84.6399 52.377 84.6871L59.1573 87.2153C59.1943 87.2288 59.2347 87.2355 59.2751 87.2355C59.3155 87.2355 59.3559 87.2288 59.3929 87.2153L65.2979 85.017C65.4292 84.9665 65.5167 84.8419 65.5167 84.7039C65.5167 84.5659 65.4292 84.4379 65.2979 84.3874L58.8711 81.9602C58.8341 81.9467 58.7937 81.94 58.7533 81.94Z" fill="#1D1D1B"/>
<path d="M58.3773 99.0286C58.3571 99.0286 58.3335 99.0252 58.3133 99.0151L50.6376 95.8606C50.5736 95.8337 50.5332 95.7731 50.5332 95.7058V85.6263C50.5332 85.5725 50.5601 85.5186 50.6039 85.4883C50.6308 85.4681 50.6645 85.458 50.7015 85.458C50.7217 85.458 50.7419 85.4614 50.7588 85.4681L58.4345 88.3297C58.5018 88.3532 58.5456 88.4172 58.5456 88.4879V98.8602C58.5456 98.9175 58.5187 98.968 58.4715 99.0016C58.4446 99.0218 58.4109 99.0286 58.3773 99.0286Z" fill="#FFD405"/>
<path d="M50.7019 85.6263L58.3776 88.4879V98.8602L50.7019 95.7058V85.6263ZM50.7019 85.2897C50.6346 85.2897 50.5672 85.3099 50.51 85.3503C50.4191 85.4142 50.3652 85.5152 50.3652 85.6263V95.7058C50.3652 95.8438 50.446 95.965 50.574 96.0155L58.2497 99.17C58.2901 99.1868 58.3339 99.1969 58.3776 99.1969C58.4449 99.1969 58.5089 99.1767 58.5661 99.1397C58.6604 99.0757 58.7143 98.9713 58.7143 98.8602V88.4879C58.7143 88.3465 58.6267 88.222 58.4955 88.1715L50.8197 85.3099C50.7827 85.2964 50.7423 85.2897 50.7019 85.2897Z" fill="#1D1D1B"/>
</svg>
