<svg width="136" height="125" viewBox="0 0 136 125" fill="none" xmlns="http://www.w3.org/2000/svg">
<path d="M124.055 103.043H122.49V41.557C122.49 41.1976 122.32 40.861 122.035 40.6453C121.748 40.4297 121.375 40.3578 121.032 40.4558L95.3315 47.7723V41.557C95.3315 41.1976 95.1649 40.861 94.8773 40.6453C94.5898 40.4297 94.2205 40.3578 93.8741 40.4558L68.1734 47.7723V41.557C68.1734 41.1976 68.0068 40.861 67.7192 40.6453C67.4349 40.4297 67.0624 40.3578 66.7193 40.4558L41.0186 47.7723V18.4738C41.0186 17.8431 40.5055 17.3301 39.8749 17.3301H18.517C17.883 17.3301 17.3733 17.8431 17.3733 18.4738V103.043H12.341C11.7103 103.043 11.1973 103.556 11.1973 104.186C11.1973 104.817 11.7103 105.33 12.341 105.33H124.055C124.689 105.33 125.199 104.817 125.199 104.186C125.199 103.556 124.689 103.043 124.055 103.043ZM38.7312 103.043H19.6607V90.3541H38.7312V103.043ZM38.7312 88.0667H19.6607V84.3055H38.7312V88.0667ZM38.7312 82.0181H19.6607V33.6361H38.7312V82.0181ZM38.7312 31.3486H19.6607V27.3228H38.7312V31.3486ZM38.7312 25.0354H19.6607V19.6175H38.7312V25.0354ZM55.9162 103.043H49.7761V92.0631H55.9162V103.043ZM65.886 103.043H58.2036V90.9194C58.2036 90.2887 57.6905 89.7757 57.0599 89.7757H48.6324C48.0017 89.7757 47.4887 90.2887 47.4887 90.9194V103.043H41.0186V50.1512L65.886 43.0733V103.043ZM83.1919 103.043H77.0519V92.0304H83.1919V103.043ZM93.0441 103.043H85.4793V90.8867C85.4793 90.2528 84.9663 89.743 84.3356 89.743H75.9081C75.2775 89.743 74.7644 90.2528 74.7644 90.8867V103.043H68.1734V50.1512L93.0441 43.0733V103.043ZM110.837 103.043H104.697V92.0631H110.837V103.043ZM120.202 103.043H113.124V90.9194C113.124 90.2887 112.611 89.7757 111.981 89.7757H103.553C102.922 89.7757 102.409 90.2887 102.409 90.9194V103.043H95.3315V50.1512L120.202 43.0733V103.043Z" fill="white"/>
<path d="M60.1482 55.7194H45.548C44.9173 55.7194 44.4043 56.2324 44.4043 56.8631V64.2384C44.4043 64.869 44.9173 65.3821 45.548 65.3821H60.1482C60.7789 65.3821 61.2919 64.869 61.2919 64.2384V56.8631C61.2919 56.2324 60.7789 55.7194 60.1482 55.7194ZM59.0045 63.0946H46.6917V58.0068H59.0045V63.0946Z" fill="white"/>
<path d="M59.0055 57.8434H46.6927C46.6024 57.8434 46.5293 57.9165 46.5293 58.0068V63.0946C46.5293 63.1849 46.6024 63.258 46.6927 63.258H59.0055C59.0957 63.258 59.1689 63.1849 59.1689 63.0946V58.0068C59.1689 57.9165 59.0957 57.8434 59.0055 57.8434Z" fill="#FFD405"/>
<path d="M59.0048 58.0068V63.0947H46.692V58.0068H59.0048ZM59.0048 57.68H46.692C46.5123 57.68 46.3652 57.8271 46.3652 58.0068V63.0947C46.3652 63.2744 46.5123 63.4214 46.692 63.4214H59.0048C59.1845 63.4214 59.3316 63.2744 59.3316 63.0947V58.0068C59.3316 57.8271 59.1845 57.68 59.0048 57.68Z" fill="#1D1D1B"/>
<path d="M60.1482 70.2804H45.548C44.9173 70.2804 44.4043 70.7934 44.4043 71.4241V78.7994C44.4043 79.43 44.9173 79.9431 45.548 79.9431H60.1482C60.7789 79.9431 61.2919 79.43 61.2919 78.7994V71.4241C61.2919 70.7934 60.7789 70.2804 60.1482 70.2804ZM59.0045 77.6557H46.6917V72.5678H59.0045V77.6557Z" fill="white"/>
<path d="M59.0055 72.4044H46.6927C46.6024 72.4044 46.5293 72.4776 46.5293 72.5678V77.6557C46.5293 77.7459 46.6024 77.8191 46.6927 77.8191H59.0055C59.0957 77.8191 59.1689 77.7459 59.1689 77.6557V72.5678C59.1689 72.4776 59.0957 72.4044 59.0055 72.4044Z" fill="#E73D1C"/>
<path d="M59.0048 72.5678V77.6557H46.692V72.5678H59.0048ZM59.0048 72.241H46.692C46.5123 72.241 46.3652 72.3881 46.3652 72.5678V77.6557C46.3652 77.8354 46.5123 77.9824 46.692 77.9824H59.0048C59.1845 77.9824 59.3316 77.8354 59.3316 77.6557V72.5678C59.3316 72.3881 59.1845 72.241 59.0048 72.241Z" fill="#1D1D1B"/>
<path d="M87.9295 55.7194H73.3293C72.6986 55.7194 72.1855 56.2324 72.1855 56.8631V64.2384C72.1855 64.869 72.6986 65.3821 73.3293 65.3821H87.9295C88.5602 65.3821 89.0732 64.869 89.0732 64.2384V56.8631C89.0732 56.2324 88.5602 55.7194 87.9295 55.7194ZM86.7858 63.0946H74.473V58.0068H86.7858V63.0946Z" fill="white"/>
<path d="M86.7867 57.8434H74.4739C74.3837 57.8434 74.3105 57.9165 74.3105 58.0068V63.0946C74.3105 63.1849 74.3837 63.258 74.4739 63.258H86.7867C86.877 63.258 86.9501 63.1849 86.9501 63.0946V58.0068C86.9501 57.9165 86.877 57.8434 86.7867 57.8434Z" fill="#E73D1C"/>
<path d="M86.7861 58.0068V63.0947H74.4733V58.0068H86.7861ZM86.7861 57.68H74.4733C74.2935 57.68 74.1465 57.8271 74.1465 58.0068V63.0947C74.1465 63.2744 74.2935 63.4214 74.4733 63.4214H86.7861C86.9658 63.4214 87.1128 63.2744 87.1128 63.0947V58.0068C87.1128 57.8271 86.9658 57.68 86.7861 57.68Z" fill="#1D1D1B"/>
<path d="M87.9295 70.2804H73.3293C72.6986 70.2804 72.1855 70.7934 72.1855 71.4241V78.7994C72.1855 79.43 72.6986 79.9431 73.3293 79.9431H87.9295C88.5602 79.9431 89.0732 79.43 89.0732 78.7994V71.4241C89.0732 70.7934 88.5602 70.2804 87.9295 70.2804ZM86.7858 77.6557H74.473V72.5678H86.7858V77.6557Z" fill="white"/>
<path d="M86.7867 72.4044H74.4739C74.3837 72.4044 74.3105 72.4776 74.3105 72.5678V77.6557C74.3105 77.7459 74.3837 77.8191 74.4739 77.8191H86.7867C86.877 77.8191 86.9501 77.7459 86.9501 77.6557V72.5678C86.9501 72.4776 86.877 72.4044 86.7867 72.4044Z" fill="#FFD405"/>
<path d="M86.7861 72.5678V77.6557H74.4733V72.5678H86.7861ZM86.7861 72.241H74.4733C74.2935 72.241 74.1465 72.3881 74.1465 72.5678V77.6557C74.1465 77.8354 74.2935 77.9824 74.4733 77.9824H86.7861C86.9658 77.9824 87.1128 77.8354 87.1128 77.6557V72.5678C87.1128 72.3881 86.9658 72.241 86.7861 72.241Z" fill="#1D1D1B"/>
<path d="M115.241 55.7194H100.638C100.007 55.7194 99.4941 56.2324 99.4941 56.8631V64.2384C99.4941 64.869 100.007 65.3821 100.638 65.3821H115.241C115.872 65.3821 116.385 64.869 116.385 64.2384V56.8631C116.385 56.2324 115.872 55.7194 115.241 55.7194ZM114.098 63.0946H101.782V58.0068H114.098V63.0946Z" fill="white"/>
<path d="M114.099 57.8434H101.783C101.692 57.8434 101.619 57.9165 101.619 58.0068V63.0946C101.619 63.1849 101.692 63.258 101.783 63.258H114.099C114.189 63.258 114.262 63.1849 114.262 63.0946V58.0068C114.262 57.9165 114.189 57.8434 114.099 57.8434Z" fill="#FFD405"/>
<path d="M114.098 58.0068V63.0947H101.782V58.0068H114.098ZM114.098 57.68H101.782C101.602 57.68 101.455 57.8271 101.455 58.0068V63.0947C101.455 63.2744 101.602 63.4214 101.782 63.4214H114.098C114.278 63.4214 114.425 63.2744 114.425 63.0947V58.0068C114.425 57.8271 114.278 57.68 114.098 57.68Z" fill="#1D1D1B"/>
<path d="M115.241 70.2804H100.638C100.007 70.2804 99.4941 70.7934 99.4941 71.4241V78.7994C99.4941 79.43 100.007 79.9431 100.638 79.9431H115.241C115.872 79.9431 116.385 79.43 116.385 78.7994V71.4241C116.385 70.7934 115.872 70.2804 115.241 70.2804ZM114.098 77.6557H101.782V72.5678H114.098V77.6557Z" fill="white"/>
<path d="M114.099 72.4044H101.783C101.692 72.4044 101.619 72.4776 101.619 72.5678V77.6557C101.619 77.7459 101.692 77.8191 101.783 77.8191H114.099C114.189 77.8191 114.262 77.7459 114.262 77.6557V72.5678C114.262 72.4776 114.189 72.4044 114.099 72.4044Z" fill="#E73D1C"/>
<path d="M114.098 72.5678V77.6557H101.782V72.5678H114.098ZM114.098 72.241H101.782C101.602 72.241 101.455 72.3881 101.455 72.5678V77.6557C101.455 77.8354 101.602 77.9824 101.782 77.9824H114.098C114.278 77.9824 114.425 77.8354 114.425 77.6557V72.5678C114.425 72.3881 114.278 72.241 114.098 72.241Z" fill="#1D1D1B"/>
</svg>
