<svg width="135" height="125" viewBox="0 0 135 125" fill="none" xmlns="http://www.w3.org/2000/svg">
<path d="M97.1273 61.335H106.645C107.431 61.335 108.069 60.6975 108.069 59.9108V50.3935C108.069 49.6068 107.431 48.9693 106.645 48.9693H97.1273C96.3406 48.9693 95.7031 49.6068 95.7031 50.3935V59.9108C95.7031 60.6975 96.3406 61.335 97.1273 61.335ZM98.5514 51.8177H105.216V58.4826H98.5514V51.8177Z" fill="white"/>
<path d="M97.1273 76.5771H106.645C107.431 76.5771 108.069 75.9397 108.069 75.153V65.6357C108.069 64.849 107.431 64.2115 106.645 64.2115H97.1273C96.3406 64.2115 95.7031 64.849 95.7031 65.6357V75.153C95.7031 75.9397 96.3406 76.5771 97.1273 76.5771ZM98.5514 67.0598H105.216V73.7248H98.5514V67.0598Z" fill="white"/>
<path d="M97.1273 91.8193H106.645C107.431 91.8193 108.069 91.1818 108.069 90.3951V80.8778C108.069 80.0911 107.431 79.4537 106.645 79.4537H97.1273C96.3406 79.4537 95.7031 80.0911 95.7031 80.8778V90.3951C95.7031 91.1818 96.3406 91.8193 97.1273 91.8193ZM98.5514 82.302H105.216V88.9669H98.5514V82.302Z" fill="white"/>
<path d="M97.1273 107.061H106.645C107.431 107.061 108.069 106.424 108.069 105.637V96.12C108.069 95.3333 107.431 94.6959 106.645 94.6959H97.1273C96.3406 94.6959 95.7031 95.3333 95.7031 96.12V105.637C95.7031 106.424 96.3406 107.061 97.1273 107.061ZM98.5514 97.5442H105.216V104.209H98.5514V97.5442Z" fill="white"/>
<path d="M38.8243 48.9653H29.307C28.5203 48.9653 27.8828 49.6028 27.8828 50.3895V59.9068C27.8828 60.6935 28.5203 61.3309 29.307 61.3309H38.8243C39.611 61.3309 40.2484 60.6935 40.2484 59.9068V50.3895C40.2484 49.6028 39.611 48.9653 38.8243 48.9653ZM37.4001 58.4826H30.7352V51.8177H37.4001V58.4826Z" fill="white"/>
<path d="M38.8243 64.2075H29.307C28.5203 64.2075 27.8828 64.8449 27.8828 65.6317V75.1489C27.8828 75.9357 28.5203 76.5731 29.307 76.5731H38.8243C39.611 76.5731 40.2484 75.9357 40.2484 75.1489V65.6317C40.2484 64.8449 39.611 64.2075 38.8243 64.2075ZM37.4001 73.7248H30.7352V67.0599H37.4001V73.7248Z" fill="white"/>
<path d="M38.8243 79.4496H29.307C28.5203 79.4496 27.8828 80.0871 27.8828 80.8738V90.3911C27.8828 91.1778 28.5203 91.8153 29.307 91.8153H38.8243C39.611 91.8153 40.2484 91.1778 40.2484 90.3911V80.8738C40.2484 80.0871 39.611 79.4496 38.8243 79.4496ZM37.4001 88.9669H30.7352V82.302H37.4001V88.9669Z" fill="white"/>
<path d="M38.8243 94.6918H29.307C28.5203 94.6918 27.8828 95.3293 27.8828 96.116V105.633C27.8828 106.42 28.5203 107.057 29.307 107.057H38.8243C39.611 107.057 40.2484 106.42 40.2484 105.633V96.116C40.2484 95.3293 39.611 94.6918 38.8243 94.6918ZM37.4001 104.209H30.7352V97.5442H37.4001V104.209Z" fill="white"/>
<path d="M62.5957 46.468H52.7113C51.9246 46.468 51.2871 47.1095 51.2871 47.8962V57.7766C51.2871 58.5633 51.9246 59.2007 52.7113 59.2007H62.5957C63.3824 59.2007 64.0199 58.5633 64.0199 57.7766V47.8962C64.0199 47.1095 63.3824 46.468 62.5957 46.468ZM61.1675 56.3524H54.1395V49.3203H61.1675V56.3524Z" fill="white"/>
<path d="M82.1483 46.468H72.2679C71.4812 46.468 70.8438 47.1095 70.8438 47.8962V57.7766C70.8438 58.5633 71.4812 59.2007 72.2679 59.2007H82.1483C82.939 59.2007 83.5765 58.5633 83.5765 57.7766V47.8962C83.5765 47.1095 82.939 46.468 82.1483 46.468ZM80.7241 56.3524H73.6961V49.3203H80.7241V56.3524Z" fill="white"/>
<path d="M62.5957 61.4479H52.7113C51.9246 61.4479 51.2871 62.0853 51.2871 62.8721V72.7565C51.2871 73.5432 51.9246 74.1806 52.7113 74.1806H62.5957C63.3824 74.1806 64.0199 73.5432 64.0199 72.7565V62.8721C64.0199 62.0853 63.3824 61.4479 62.5957 61.4479ZM61.1675 71.3283H54.1395V64.3003H61.1675V71.3283Z" fill="white"/>
<path d="M82.1483 61.4479H72.2679C71.4812 61.4479 70.8438 62.0853 70.8438 62.8721V72.7565C70.8438 73.5432 71.4812 74.1806 72.2679 74.1806H82.1483C82.939 74.1806 83.5765 73.5432 83.5765 72.7565V62.8721C83.5765 62.0853 82.939 61.4479 82.1483 61.4479ZM80.7241 71.3283H73.6961V64.3003H80.7241V71.3283Z" fill="white"/>
<path d="M62.5957 76.4238H52.7113C51.9246 76.4238 51.2871 77.0653 51.2871 77.852V87.7324C51.2871 88.5191 51.9246 89.1566 52.7113 89.1566H62.5957C63.3824 89.1566 64.0199 88.5191 64.0199 87.7324V77.852C64.0199 77.0653 63.3824 76.4238 62.5957 76.4238ZM61.1675 86.3082H54.1395V79.2762H61.1675V86.3082Z" fill="white"/>
<path d="M82.1483 76.4238H72.2679C71.4812 76.4238 70.8438 77.0653 70.8438 77.852V87.7324C70.8438 88.5191 71.4812 89.1566 72.2679 89.1566H82.1483C82.939 89.1566 83.5765 88.5191 83.5765 87.7324V77.852C83.5765 77.0653 82.939 76.4238 82.1483 76.4238ZM80.7241 86.3082H73.6961V79.2762H80.7241V86.3082Z" fill="white"/>
<path d="M77.4303 21.9708H71.5118V16.0603C71.5118 15.5035 71.0639 15.0517 70.5031 15.0517H64.5644C64.0077 15.0517 63.5558 15.5035 63.5558 16.0603V21.9708H57.6453C57.0886 21.9708 56.6367 22.4226 56.6367 22.9794V28.9262C56.6367 29.4829 57.0886 29.9348 57.6453 29.9348H63.5558V35.8453C63.5558 36.402 64.0077 36.8539 64.5644 36.8539H70.5031C71.0639 36.8539 71.5118 36.402 71.5118 35.8453V29.9348H77.4303C77.9871 29.9348 78.4389 29.4829 78.4389 28.9262V22.9794C78.4389 22.4226 77.9871 21.9708 77.4303 21.9708ZM76.4217 27.9176H70.5031C69.9464 27.9176 69.4945 28.3694 69.4945 28.9262V34.8366H65.573V28.9262C65.573 28.3694 65.1212 27.9176 64.5644 27.9176H58.6539V23.988H64.5644C65.1212 23.988 65.573 23.5361 65.573 22.9794V17.0689H69.4945V22.9794C69.4945 23.5361 69.9464 23.988 70.5031 23.988H76.4217V27.9176Z" fill="white"/>
<path d="M121.362 113.468H115.298V41.6549C115.298 40.8682 114.661 40.2307 113.874 40.2307H91.3779V28.1314C91.3779 27.3447 90.7405 26.7072 89.9537 26.7072H85.5885V26.5862C85.5885 16.8914 77.7011 9 68.0023 9C58.3034 9 50.4161 16.8914 50.4161 26.5862C50.4161 26.6265 50.4161 26.6669 50.4161 26.7072H46.0508C45.2641 26.7072 44.6266 27.3447 44.6266 28.1314V40.2307H22.1346C21.3438 40.2307 20.7064 40.8682 20.7064 41.6549V113.468H13.4121C12.6334 113.468 12 114.102 12 114.88C12 115.659 12.6334 116.292 13.4121 116.292H21.9974C22.0418 116.292 22.0861 116.304 22.1346 116.304H46.0548H89.9537H113.87C113.914 116.304 113.959 116.296 114.007 116.292H121.358C122.141 116.292 122.77 115.659 122.77 114.88C122.77 114.102 122.141 113.468 121.358 113.468H121.362ZM44.6307 113.456H23.5587V43.079H44.6307V113.456ZM68.0023 11.8241C76.1438 11.8241 82.7643 18.4487 82.7643 26.5862C82.7643 27.0017 82.7442 27.4133 82.7119 27.8207C82.6877 27.9216 82.6756 28.0225 82.6756 28.1314C82.6756 28.1475 82.6796 28.1637 82.6796 28.1798C81.8808 35.575 75.6032 41.3523 68.0023 41.3523C60.4014 41.3523 54.1197 35.5709 53.3249 28.1717C53.3249 28.1596 53.329 28.1475 53.329 28.1314C53.329 28.0265 53.3169 27.9256 53.2967 27.8248C53.2604 27.4173 53.2402 27.0058 53.2402 26.5862C53.2402 18.4487 59.8607 11.8241 68.0023 11.8241ZM66.3764 112.621H59.0781V96.6808H66.3764V112.621ZM76.5271 112.621H69.2287V96.6808H76.5271V112.621ZM88.5296 41.6186C88.5296 41.6186 88.5255 41.6428 88.5255 41.6549V113.456H79.3794V95.2567C79.3794 94.4699 78.742 93.8285 77.9553 93.8285H57.6539C56.8672 93.8285 56.2297 94.4699 56.2297 95.2567V113.456H47.483V41.6549C47.483 41.6549 47.479 41.6468 47.479 41.6428V29.5555H50.6702C52.0863 37.8464 59.3161 44.1764 68.0023 44.1764C76.6885 44.1764 83.9182 37.8464 85.3343 29.5555H88.5296V41.6186ZM112.446 113.456H91.3779V43.079H112.446V113.456Z" fill="white"/>
<path d="M82.7139 27.8207C82.6897 27.9216 82.6776 28.0225 82.6776 28.1314C82.6776 28.1475 82.6816 28.1637 82.6816 28.1798C81.8828 35.575 75.6052 41.3523 68.0043 41.3523C60.4033 41.3523 54.1217 35.5709 53.3269 28.1717C53.3269 28.1596 53.3309 28.1475 53.3309 28.1314C53.3309 28.0265 53.3188 27.9256 53.2987 27.8248C53.2624 27.4173 53.2422 27.0058 53.2422 26.5862C53.2422 18.4487 59.8627 11.8241 68.0043 11.8241C76.1458 11.8241 82.7663 18.4487 82.7663 26.5862C82.7663 27.0017 82.7462 27.4133 82.7139 27.8207Z" fill="#FFD405"/>
<path d="M68.003 41.554C60.3375 41.554 53.9429 35.809 53.1239 28.1919V28.1637V28.1193C53.1239 28.0426 53.1158 27.9579 53.0957 27.8611C53.0553 27.4133 53.0352 26.9896 53.0352 26.5822C53.0352 18.3317 59.7485 11.6184 67.999 11.6184C76.2494 11.6184 82.9627 18.3317 82.9627 26.5822C82.9627 26.9695 82.9466 27.381 82.9103 27.8328V27.8651C82.8861 27.9498 82.874 28.0386 82.874 28.1274C82.874 28.1435 82.878 28.1596 82.878 28.1758C82.055 35.809 75.6563 41.55 67.999 41.55L68.003 41.554ZM68.003 12.0258C59.9744 12.0258 53.4426 18.5576 53.4426 26.5862C53.4426 26.9896 53.4628 27.389 53.4991 27.8046C53.5193 27.9055 53.5314 28.0184 53.5314 28.1274V28.1798C54.3221 35.5548 60.5473 41.1465 68.003 41.1465C75.4587 41.1465 81.6798 35.5629 82.4786 28.1556C82.4746 28.1596 82.4746 28.1435 82.4746 28.1274C82.4746 28.0104 82.4867 27.8974 82.5109 27.7844C82.5432 27.3487 82.5633 26.9574 82.5633 26.5822C82.5633 18.5536 76.0315 12.0218 68.003 12.0218V12.0258Z" fill="#1D1D1B"/>
<path d="M80.7225 64.3003V71.3283H73.6945V64.3003H80.7225ZM80.7225 63.8969H73.6945C73.4726 63.8969 73.291 64.0784 73.291 64.3003V71.3283C73.291 71.5502 73.4726 71.7318 73.6945 71.7318H80.7225C80.9444 71.7318 81.1259 71.5502 81.1259 71.3283V64.3003C81.1259 64.0784 80.9444 63.8969 80.7225 63.8969Z" fill="#1D1D1B"/>
<path d="M61.1678 79.2762V86.3082H54.1398V79.2762H61.1678ZM61.1678 78.8727H54.1398C53.9179 78.8727 53.7363 79.0543 53.7363 79.2762V86.3082C53.7363 86.5301 53.9179 86.7117 54.1398 86.7117H61.1678C61.3897 86.7117 61.5712 86.5301 61.5712 86.3082V79.2762C61.5712 79.0543 61.3897 78.8727 61.1678 78.8727Z" fill="#1D1D1B"/>
<path d="M61.1678 49.3203V56.3524H54.1398V49.3203H61.1678ZM61.1678 48.9169H54.1398C53.9179 48.9169 53.7363 49.0985 53.7363 49.3203V56.3524C53.7363 56.5743 53.9179 56.7558 54.1398 56.7558H61.1678C61.3897 56.7558 61.5712 56.5743 61.5712 56.3524V49.3203C61.5712 49.0985 61.3897 48.9169 61.1678 48.9169Z" fill="#1D1D1B"/>
<path d="M80.7225 79.2762V86.3082H73.6945V79.2762H80.7225ZM80.7225 78.8727H73.6945C73.4726 78.8727 73.291 79.0543 73.291 79.2762V86.3082C73.291 86.5301 73.4726 86.7117 73.6945 86.7117H80.7225C80.9444 86.7117 81.1259 86.5301 81.1259 86.3082V79.2762C81.1259 79.0543 80.9444 78.8727 80.7225 78.8727Z" fill="#1D1D1B"/>
<path d="M61.1678 64.3003V71.3283H54.1398V64.3003H61.1678ZM61.1678 63.8969H54.1398C53.9179 63.8969 53.7363 64.0784 53.7363 64.3003V71.3283C53.7363 71.5502 53.9179 71.7318 54.1398 71.7318H61.1678C61.3897 71.7318 61.5712 71.5502 61.5712 71.3283V64.3003C61.5712 64.0784 61.3897 63.8969 61.1678 63.8969Z" fill="#1D1D1B"/>
<path d="M80.7225 49.3203V56.3524H73.6945V49.3203H80.7225ZM80.7225 48.9169H73.6945C73.4726 48.9169 73.291 49.0985 73.291 49.3203V56.3524C73.291 56.5743 73.4726 56.7558 73.6945 56.7558H80.7225C80.9444 56.7558 81.1259 56.5743 81.1259 56.3524V49.3203C81.1259 49.0985 80.9444 48.9169 80.7225 48.9169Z" fill="#1D1D1B"/>
<path d="M65.572 35.0384C65.459 35.0384 65.3703 34.9496 65.3703 34.8367V28.9262C65.3703 28.4824 65.0072 28.1193 64.5634 28.1193H58.6529C58.5399 28.1193 58.4512 28.0305 58.4512 27.9176V23.988C58.4512 23.875 58.5399 23.7863 58.6529 23.7863H64.5634C65.0072 23.7863 65.3703 23.4232 65.3703 22.9794V17.0689C65.3703 16.9559 65.459 16.8672 65.572 16.8672H69.4935C69.6064 16.8672 69.6952 16.9559 69.6952 17.0689V22.9794C69.6952 23.4232 70.0583 23.7863 70.5021 23.7863H76.4206C76.5336 23.7863 76.6224 23.875 76.6224 23.988V27.9176C76.6224 28.0305 76.5336 28.1193 76.4206 28.1193H70.5021C70.0583 28.1193 69.6952 28.4824 69.6952 28.9262V34.8367C69.6952 34.9496 69.6064 35.0384 69.4935 35.0384H65.572Z" fill="#E73D1C"/>
<path d="M69.494 17.0689V22.9794C69.494 23.5361 69.9459 23.988 70.5026 23.988H76.4212V27.9176H70.5026C69.9459 27.9176 69.494 28.3694 69.494 28.9262V34.8367H65.5725V28.9262C65.5725 28.3694 65.1207 27.9176 64.5639 27.9176H58.6534V23.988H64.5639C65.1207 23.988 65.5725 23.5361 65.5725 22.9794V17.0689H69.494ZM69.494 16.6655H65.5725C65.3506 16.6655 65.1691 16.847 65.1691 17.0689V22.9794C65.1691 23.3142 64.8988 23.5846 64.5639 23.5846H58.6534C58.4316 23.5846 58.25 23.7661 58.25 23.988V27.9176C58.25 28.1395 58.4316 28.321 58.6534 28.321H64.5639C64.8988 28.321 65.1691 28.5913 65.1691 28.9262V34.8367C65.1691 35.0585 65.3506 35.2401 65.5725 35.2401H69.494C69.7159 35.2401 69.8975 35.0585 69.8975 34.8367V28.9262C69.8975 28.5913 70.1678 28.321 70.5026 28.321H76.4212C76.6431 28.321 76.8246 28.1395 76.8246 27.9176V23.988C76.8246 23.7661 76.6431 23.5846 76.4212 23.5846H70.5026C70.1678 23.5846 69.8975 23.3142 69.8975 22.9794V17.0689C69.8975 16.847 69.7159 16.6655 69.494 16.6655Z" fill="#1D1D1B"/>
</svg>
