<svg width="135" height="126" viewBox="0 0 135 126" fill="none" xmlns="http://www.w3.org/2000/svg">
<path d="M128.565 104.365H124.239V59.3125C124.239 58.6435 123.698 58.0993 123.026 58.0993H115.625V46.4801C115.625 46.0607 115.41 45.6725 115.057 45.4506C114.7 45.2288 114.256 45.208 113.878 45.3917L102.529 50.9483L102.651 29.3772C102.651 29.1484 102.588 28.9266 102.47 28.7325C102.221 28.3269 96.0092 18.791 67.2143 18.791C38.4194 18.791 32.3255 28.3373 32.0829 28.7429C31.9685 28.9301 31.9096 29.145 31.9061 29.3634L31.7883 50.9587L20.4187 45.3917C20.0443 45.208 19.5971 45.2288 19.2436 45.4506C18.8865 45.6725 18.6716 46.0607 18.6716 46.4801V58.0993H11.271C10.602 58.0993 10.0578 58.6435 10.0578 59.3125V104.365H6.43197C5.76297 104.365 5.21875 104.909 5.21875 105.578C5.21875 106.247 5.76297 106.791 6.43197 106.791H128.565C129.238 106.791 129.778 106.247 129.778 105.578C129.778 104.909 129.238 104.365 128.565 104.365ZM14.363 104.091H12.4842V60.5258H14.363V104.091ZM18.6716 104.091H16.7894V60.5258H18.6716V104.091ZM31.7779 104.365H21.0981V48.4248L31.7779 53.6555V104.365ZM39.0849 104.365H34.2043V94.437C35.5908 94.0765 37.2269 93.6813 39.0849 93.2792V104.365ZM39.0849 90.7973C37.2477 91.1855 35.6116 91.5738 34.2043 91.9343V81.1644C35.5874 80.6617 37.2235 80.1106 39.0849 79.5525V90.7973ZM39.0849 77.0117C37.4315 77.497 35.8023 78.0239 34.2043 78.5889V67.9784C35.5874 67.4758 37.2235 66.9246 39.0849 66.3631V77.0117ZM39.0849 63.8257C37.4315 64.311 35.8023 64.8379 34.2043 65.3994V53.5757C35.5874 53.0766 37.2235 52.5254 39.0849 51.9639V63.8257ZM49.4701 104.365H41.5113V92.7801C43.8927 92.3121 46.5583 91.858 49.4701 91.4663V104.365ZM49.4701 89.0191C46.5687 89.4039 43.9031 89.8475 41.5113 90.3086V78.8592C43.8893 78.211 46.5549 77.5802 49.4701 77.0325V89.0191ZM49.4701 74.5402C46.7871 75.0324 44.125 75.6321 41.5113 76.3288V65.6698C43.8893 65.0251 46.5549 64.3907 49.4701 63.8465V74.5402ZM49.4701 61.3542C46.7871 61.8464 44.125 62.4461 41.5113 63.1428V51.2706C43.8893 50.6224 46.5549 49.9916 49.4701 49.4473V61.3542ZM56.3819 104.365H51.8965V91.1613C53.342 90.9914 54.836 90.8389 56.3819 90.7107V104.365ZM65.9352 104.365H58.8084V90.5269C61.0927 90.3744 63.4741 90.2739 65.9352 90.2392V104.365ZM65.9352 87.8163C63.0858 87.8544 60.344 87.9827 57.7269 88.1733C57.6818 88.1664 57.6402 88.1594 57.5952 88.1594C57.4877 88.1594 57.3837 88.1768 57.2832 88.2045C55.4183 88.3466 53.6227 88.5234 51.8965 88.721V76.6096C56.1532 75.9163 60.8709 75.4276 65.9352 75.3305V87.8163ZM65.9352 72.8694C63.2453 72.9214 60.5346 73.0809 57.8066 73.3547C55.8377 73.5523 53.8654 73.8123 51.8965 74.1242V63.4236C56.1532 62.7304 60.8709 62.2416 65.9352 62.1411V72.8694ZM65.9352 47.9637V59.6834C63.2453 59.7354 60.5346 59.8949 57.8066 60.1653C55.8377 60.3628 53.8654 60.6228 51.8965 60.9383V49.021C56.1601 48.3312 60.8847 47.839 65.9594 47.7419C65.9456 47.8147 65.9352 47.8875 65.9352 47.9637ZM75.9321 104.365H68.3616V90.2288C70.8158 90.2358 73.3428 90.3155 75.9321 90.4784V104.365ZM82.0537 104.365H78.3586V90.6517C79.5787 90.7488 80.8093 90.8666 82.0537 91.0053V104.365ZM82.0537 88.565C77.3083 88.0485 72.7223 87.8197 68.3616 87.8024V75.3132C72.7188 75.3374 77.3048 75.6598 82.0537 76.3947V88.565ZM82.0537 73.9197C77.5544 73.2368 72.9892 72.8798 68.3616 72.8555V62.1272C72.7188 62.1515 77.3048 62.4738 82.0537 63.2087V73.9197ZM82.0537 60.7337C77.5544 60.0509 72.9892 59.6938 68.3616 59.6661V47.9637C68.3616 47.884 68.3547 47.8043 68.3374 47.7246C72.7015 47.7488 77.2944 48.0712 82.0537 48.8095V60.7337ZM92.4388 104.365H84.4801V91.2999C87.0937 91.6431 89.7489 92.0799 92.4388 92.6206V104.365ZM92.4388 90.1491C89.7489 89.6188 87.0937 89.1924 84.4801 88.8562V76.8037C87.0937 77.2821 89.7489 77.8887 92.4388 78.6374V90.1491ZM92.4388 76.1139C89.8148 75.3998 87.1596 74.8002 84.4801 74.3183V63.6177C87.0937 64.0961 89.7489 64.6992 92.4388 65.4514V76.1139ZM92.4388 62.9279C89.8148 62.2104 87.1596 61.6142 84.4801 61.1324V49.2186C87.0937 49.6934 89.7489 50.3001 92.4388 51.0523V62.9279ZM100.093 104.365H94.8653V93.1336C96.5984 93.5219 98.342 93.9517 100.093 94.43V104.365ZM100.093 91.917C98.342 91.449 96.595 91.0261 94.8653 90.6517V79.3549C96.5984 79.8922 98.342 80.4884 100.093 81.154V91.917ZM100.093 78.5646C98.3663 77.9268 96.6227 77.341 94.8653 76.8106V66.1655C96.5984 66.7028 98.342 67.3025 100.093 67.968V78.5646ZM100.093 65.3752C98.3663 64.7408 96.6227 64.155 94.8653 63.6247V51.7663C96.5984 52.3036 98.342 52.9033 100.093 53.5688V65.3752ZM100.103 50.976C86.7228 46.0503 72.5039 44.2964 57.8066 45.7661C55.3663 46.0122 52.9156 46.3484 50.4822 46.7713L50.4198 46.7817C46.9119 47.3953 43.4386 48.1856 40.0589 49.1423C40.052 49.1423 40.0485 49.1423 40.0416 49.1423C38.0623 49.7038 36.1143 50.3209 34.2147 50.9933L34.3325 29.7585C35.4418 28.3581 42.3294 21.214 67.2143 21.214C92.0991 21.214 99.0491 28.3685 100.221 29.7689L100.103 50.9725V50.976ZM113.199 104.365H102.519V53.6555L113.199 48.4248V104.365ZM117.507 104.091H115.625V60.5258H117.507V104.091ZM121.813 104.091H119.934V60.5258H121.813V104.091Z" fill="white"/>
<path d="M76.3869 28.6909C76.1685 28.3235 75.7734 28.0981 75.347 28.0981L60.3482 28.0635L59.797 25.9455C59.6584 25.4117 59.1765 25.0374 58.6254 25.0374H55.7171C55.0447 25.0374 54.5039 25.5816 54.5039 26.2506C54.5039 26.9196 55.0447 27.4638 55.7171 27.4638H57.686L60.3204 37.6132C60.4591 38.1505 60.9409 38.5214 61.4955 38.5214H71.0592C71.5063 38.5214 71.9188 38.2753 72.1303 37.8836L76.4146 29.8868C76.6157 29.5089 76.6053 29.0549 76.3869 28.6909ZM70.3347 36.095H62.4314L60.979 30.4899L73.3227 30.5211L70.3347 36.095Z" fill="white"/>
<path d="M62.4308 36.2683C62.3511 36.2683 62.2817 36.2163 62.2644 36.1366L60.812 30.5315C60.7982 30.4795 60.812 30.424 60.8432 30.3824C60.8744 30.3408 60.9264 30.3166 60.9819 30.3166L73.3255 30.3478C73.3879 30.3478 73.4434 30.379 73.4746 30.431C73.5058 30.483 73.5058 30.5488 73.478 30.6008L70.49 36.1747C70.4588 36.2302 70.3999 36.2648 70.3375 36.2648H62.4343L62.4308 36.2683Z" fill="#E73D1C"/>
<path d="M60.9784 30.4899L73.322 30.5211L70.334 36.095H62.4308L60.9784 30.4899ZM60.9784 30.1433C60.8709 30.1433 60.7704 30.1918 60.7046 30.2785C60.6387 30.3617 60.6144 30.4726 60.6422 30.5766L62.0946 36.1816C62.1327 36.3342 62.2713 36.4416 62.4308 36.4416H70.334C70.4623 36.4416 70.5802 36.3723 70.6391 36.2579L73.6271 30.684C73.686 30.5766 73.6825 30.4483 73.6201 30.3409C73.5577 30.2369 73.4468 30.171 73.322 30.171L60.9784 30.1398V30.1433Z" fill="#1D1D1B"/>
<path d="M70.7226 41.1489C70.7226 41.9288 70.0883 42.5632 69.3049 42.5632C68.5215 42.5632 67.8906 41.9288 67.8906 41.1489C67.8906 40.369 68.525 39.7312 69.3049 39.7312C70.0848 39.7312 70.7226 40.3655 70.7226 41.1489Z" fill="white"/>
<path d="M64.4199 41.1489C64.4199 41.9288 63.7856 42.5632 63.0056 42.5632C62.2257 42.5632 61.5879 41.9288 61.5879 41.1489C61.5879 40.369 62.2222 39.7312 63.0056 39.7312C63.789 39.7312 64.4199 40.3655 64.4199 41.1489Z" fill="white"/>
<path d="M67.2164 21.2175C42.3315 21.2175 35.4439 28.3616 34.3347 29.762L34.2168 50.9968C36.1164 50.3243 38.0644 49.7073 40.0437 49.1458C40.0506 49.1458 40.0541 49.1458 40.061 49.1458C43.4407 48.1891 46.914 47.3987 50.4219 46.7852L50.4843 46.7748C52.9177 46.3519 55.3684 46.0157 57.8087 45.7696C72.506 44.2998 86.7249 46.0538 100.105 50.9795L100.223 29.7759C99.0512 28.3755 91.8413 21.2209 67.2164 21.2209V21.2175ZM63.0082 42.5632C62.2248 42.5632 61.5905 41.9288 61.5905 41.1489C61.5905 40.369 62.2248 39.7312 63.0082 39.7312C63.7916 39.7312 64.4225 40.3655 64.4225 41.1489C64.4225 41.9323 63.7882 42.5632 63.0082 42.5632ZM69.3066 42.5632C68.5266 42.5632 67.8923 41.9288 67.8923 41.1489C67.8923 40.369 68.5266 39.7312 69.3066 39.7312C70.0865 39.7312 70.7243 40.3655 70.7243 41.1489C70.7243 41.9323 70.09 42.5632 69.3066 42.5632ZM76.416 29.8868L72.1316 37.8836C71.9202 38.2753 71.5077 38.5214 71.0605 38.5214H61.4969C60.9423 38.5214 60.4605 38.1505 60.3218 37.6133L57.6874 27.4638H55.7185C55.046 27.4638 54.5053 26.9196 54.5053 26.2506C54.5053 25.5816 55.046 25.0374 55.7185 25.0374H58.6268C59.1779 25.0374 59.6597 25.4117 59.7984 25.9455L60.3495 28.0635L75.3484 28.0981C75.7748 28.0981 76.1699 28.3235 76.3883 28.6909C76.6067 29.0549 76.6171 29.5089 76.416 29.8868Z" fill="#FFD405"/>
<path d="M34.043 51.2429L34.1643 29.7031L34.2024 29.6545C35.3428 28.216 42.2859 21.0441 67.2193 21.0441C92.1527 21.0441 99.1547 28.2229 100.358 29.6615L100.399 29.71L100.278 51.2256L100.046 51.1389C86.6898 46.2236 72.4882 44.4731 57.8255 45.9394C55.3922 46.1855 52.9311 46.5217 50.515 46.9446L50.4526 46.955C46.9482 47.5686 43.4679 48.3624 40.1091 49.3122L40.0744 49.3191C38.0813 49.8841 36.1297 50.5046 34.2752 51.1632L34.043 51.2464V51.2429ZM34.5075 29.8244L34.3896 50.7542C36.1886 50.1233 38.0709 49.5271 39.9947 48.9829L40.0293 48.9759C43.3917 48.0261 46.8788 47.2323 50.3902 46.6153L50.4526 46.6049C52.8791 46.182 55.3471 45.8458 57.7874 45.5997C72.4154 44.1369 86.5927 45.8631 99.9277 50.7334L100.046 29.8417C98.7422 28.32 91.4698 21.3977 67.2124 21.3977C42.9549 21.3977 35.738 28.3061 34.5075 29.8244ZM69.3061 42.7365C68.4291 42.7365 67.7185 42.0259 67.7185 41.1489C67.7185 40.2719 68.4291 39.5579 69.3061 39.5579C70.183 39.5579 70.8971 40.2719 70.8971 41.1489C70.8971 42.0259 70.183 42.7365 69.3061 42.7365ZM69.3061 39.9045C68.6232 39.9045 68.0651 40.4626 68.0651 41.1489C68.0651 41.8353 68.6232 42.3899 69.3061 42.3899C69.9889 42.3899 70.5505 41.8318 70.5505 41.1489C70.5505 40.4661 69.9924 39.9045 69.3061 39.9045ZM63.0077 42.7365C62.1307 42.7365 61.4167 42.0259 61.4167 41.1489C61.4167 40.2719 62.1307 39.5579 63.0077 39.5579C63.8847 39.5579 64.5953 40.2719 64.5953 41.1489C64.5953 42.0259 63.8847 42.7365 63.0077 42.7365ZM63.0077 39.9045C62.3214 39.9045 61.7633 40.4626 61.7633 41.1489C61.7633 41.8353 62.3214 42.3899 63.0077 42.3899C63.694 42.3899 64.2487 41.8318 64.2487 41.1489C64.2487 40.4661 63.6906 39.9045 63.0077 39.9045ZM71.06 38.6948H61.4964C60.862 38.6948 60.3109 38.2684 60.1549 37.6548L57.5552 27.6371H55.7215C54.9554 27.6371 54.3349 27.0166 54.3349 26.2506C54.3349 25.4845 54.9554 24.8641 55.7215 24.8641H58.6297C59.2606 24.8641 59.8117 25.2904 59.9677 25.9005L60.4842 27.8902L75.3479 27.9248C75.8332 27.9248 76.2873 28.1848 76.5368 28.6008C76.783 29.0133 76.7968 29.5367 76.568 29.9665L72.2836 37.9634C72.041 38.414 71.573 38.6913 71.06 38.6913V38.6948ZM55.718 25.2107C55.146 25.2107 54.6781 25.6786 54.6781 26.2506C54.6781 26.8225 55.146 27.2905 55.718 27.2905H57.8221L60.4911 37.5682C60.609 38.0257 61.025 38.3481 61.4999 38.3481H71.0635C71.4483 38.3481 71.7984 38.1401 71.9821 37.8004L76.2665 29.8036C76.4363 29.4812 76.4294 29.0895 76.2422 28.7776C76.055 28.4621 75.7153 28.268 75.3514 28.268L60.2173 28.2333L59.6315 25.9871C59.5136 25.5296 59.1011 25.2072 58.6263 25.2072H55.718V25.2107Z" fill="#1D1D1B"/>
</svg>
