<svg width="136" height="126" viewBox="0 0 136 126" fill="none" xmlns="http://www.w3.org/2000/svg">
<path d="M123.718 110.554H120.721V50.9852C120.721 50.5162 120.497 50.0803 120.119 49.8064L102.843 37.2999C102.403 36.9845 101.826 36.9347 101.341 37.1796C100.859 37.4203 100.548 37.9143 100.54 38.4539L100.374 48.6234L86.3687 37.3456C85.9411 37.0011 85.3476 36.9264 84.8495 37.1588C84.3472 37.3913 84.0193 37.8894 84.0069 38.4414L83.7578 48.3536L68.9477 37.3124C68.5035 36.9845 67.9141 36.9347 67.4202 37.1837C66.9304 37.4328 66.6232 37.9392 66.6274 38.4912L66.7187 49.6196L59.6747 49.5449V43.3518C59.6747 42.8786 59.4464 42.4345 59.0563 42.1647C58.6702 41.8907 58.1763 41.8285 57.728 41.9862L48.4385 45.3484L47.2762 23.3781C47.2347 22.606 46.5955 22 45.8234 22H30.3492C29.5896 22 28.9545 22.5894 28.9005 23.349L26.7421 53.1893L16.3982 56.9292C15.8213 57.1367 15.4394 57.6846 15.4394 58.2948V110.554H12.6501C11.8489 110.554 11.1973 111.201 11.1973 112.006C11.1973 112.812 11.8489 113.459 12.6501 113.459H16.6681C16.7428 113.468 16.8175 113.48 16.8922 113.48H119.268C119.343 113.48 119.413 113.468 119.488 113.459H123.718C124.519 113.459 125.171 112.808 125.171 112.006C125.171 111.205 124.519 110.554 123.718 110.554ZM31.7023 24.9056H44.4454L45.5827 46.3778L29.7348 52.1101L31.7023 24.9056ZM56.7692 110.554H18.345V59.3159L28.6432 55.5926C28.6432 55.5926 28.6639 55.5843 28.6722 55.5843L56.7692 45.4231V110.554ZM94.2137 110.554H80.7983V94.2949H94.2137V110.554ZM117.815 110.554H97.1193V92.8421C97.1193 92.041 96.4676 91.3893 95.6665 91.3893H79.3455C78.5444 91.3893 77.8927 92.041 77.8927 92.8421V110.554H59.6747V52.4504L68.1673 52.5418C68.5616 52.5335 68.9352 52.3923 69.2092 52.1184C69.4873 51.8444 69.6409 51.4667 69.6367 51.0765L69.5578 41.3926L84.2725 52.3591C84.7084 52.687 85.2895 52.741 85.7751 52.5003C86.2649 52.2637 86.5804 51.7739 86.5928 51.2343L86.8377 41.4549L100.868 52.7535C101.299 53.098 101.893 53.1727 102.395 52.9361C102.897 52.6995 103.225 52.1972 103.233 51.6452L103.4 41.293L117.815 51.724V110.554Z" fill="white"/>
<path d="M65.5348 69.4647H74.3304C75.1315 69.4647 75.7832 68.813 75.7832 68.0119V59.2163C75.7832 58.4152 75.1315 57.7635 74.3304 57.7635H65.5348C64.7337 57.7635 64.082 58.4152 64.082 59.2163V68.0119C64.082 68.813 64.7337 69.4647 65.5348 69.4647ZM66.9876 60.6691H72.8776V66.5591H66.9876V60.6691Z" fill="white"/>
<path d="M92.0648 57.7635H83.2692C82.4681 57.7635 81.8164 58.411 81.8164 59.2163V68.0119C81.8164 68.813 82.4681 69.4647 83.2692 69.4647H92.0648C92.87 69.4647 93.5176 68.813 93.5176 68.0119V59.2163C93.5176 58.411 92.87 57.7635 92.0648 57.7635ZM90.612 66.5591H84.722V60.6691H90.612V66.5591Z" fill="white"/>
<path d="M101.004 69.4647H109.799C110.6 69.4647 111.252 68.813 111.252 68.0119V59.2163C111.252 58.4152 110.6 57.7635 109.799 57.7635H101.004C100.202 57.7635 99.5508 58.4152 99.5508 59.2163V68.0119C99.5508 68.813 100.202 69.4647 101.004 69.4647ZM102.456 60.6691H108.346V66.5591H102.456V60.6691Z" fill="white"/>
<path d="M74.3304 73.8023H65.5348C64.7337 73.8023 64.082 74.4498 64.082 75.2551V84.0507C64.082 84.8518 64.7337 85.5034 65.5348 85.5034H74.3304C75.1315 85.5034 75.7832 84.8518 75.7832 84.0507V75.2551C75.7832 74.4498 75.1315 73.8023 74.3304 73.8023ZM72.8776 82.5979H66.9876V76.7079H72.8776V82.5979Z" fill="white"/>
<path d="M92.0648 73.8023H83.2692C82.4681 73.8023 81.8164 74.4498 81.8164 75.2551V84.0507C81.8164 84.8518 82.4681 85.5034 83.2692 85.5034H92.0648C92.87 85.5034 93.5176 84.8518 93.5176 84.0507V75.2551C93.5176 74.4498 92.87 73.8023 92.0648 73.8023ZM90.612 82.5979H84.722V76.7079H90.612V82.5979Z" fill="white"/>
<path d="M109.799 73.8023H101.004C100.198 73.8023 99.5508 74.4498 99.5508 75.2551V84.0507C99.5508 84.8518 100.198 85.5034 101.004 85.5034H109.799C110.6 85.5034 111.252 84.8518 111.252 84.0507V75.2551C111.252 74.4498 110.6 73.8023 109.799 73.8023ZM108.346 82.5979H102.456V76.7079H108.346V82.5979Z" fill="white"/>
<path d="M101.004 103.095H112.804C113.605 103.095 114.257 102.443 114.257 101.642V92.8463C114.257 92.0451 113.605 91.3935 112.804 91.3935H101.004C100.202 91.3935 99.5508 92.0451 99.5508 92.8463V101.642C99.5508 102.443 100.202 103.095 101.004 103.095ZM102.456 94.299H111.352V100.189H102.456V94.299Z" fill="white"/>
<path d="M62.5309 103.095H74.3317C75.1328 103.095 75.7845 102.443 75.7845 101.642V92.8463C75.7845 92.0451 75.1328 91.3935 74.3317 91.3935H62.5309C61.7298 91.3935 61.0781 92.0451 61.0781 92.8463V101.642C61.0781 102.443 61.7298 103.095 62.5309 103.095ZM63.9837 94.299H72.8789V100.189H63.9837V94.299Z" fill="white"/>
<circle cx="37.4637" cy="79.6529" r="18.1552" fill="#FFD405"/>
<path d="M45.087 69.8603C45.365 69.8603 45.6467 69.97 45.8515 70.1968C46.2283 70.6138 46.1734 71.2649 45.7747 71.6636L42.8703 74.5681C42.702 74.74 42.702 75.0143 42.8703 75.1863L43.0568 75.3691C43.141 75.4569 43.2544 75.4972 43.3641 75.4972C43.4738 75.4972 43.5872 75.4569 43.675 75.3691L46.6197 72.4245C46.8209 72.2233 47.0842 72.1209 47.3513 72.1209C47.6183 72.1209 47.9109 72.2343 48.1158 72.4611C48.4925 72.8781 48.4377 73.5292 48.039 73.9279L45.1345 76.8323C44.9626 77.0006 44.9626 77.2786 45.1345 77.4505C45.2187 77.5347 45.3321 77.5785 45.4455 77.5785C45.5589 77.5785 45.6686 77.5347 45.7527 77.4505L48.6974 74.5059C48.8986 74.301 49.1656 74.2023 49.429 74.2023C49.707 74.2023 49.9886 74.3157 50.1935 74.5424C50.5739 74.9558 50.5154 75.6106 50.1203 76.0056L46.8428 79.2832H46.8391C46.7916 79.3307 46.7477 79.3819 46.7001 79.4258C45.2735 80.8561 43.5177 81.6206 42.007 81.6206C41.5424 81.6206 41.0962 81.5474 40.6938 81.3975L38.6965 83.3984L44.4286 89.1304L45.7454 90.4472C46.21 90.9118 46.21 91.6617 45.7454 92.1262C45.5113 92.3603 45.2077 92.4774 44.9041 92.4774C44.6005 92.4774 44.2969 92.3603 44.0628 92.1262L42.7496 90.813L37.0139 85.0774L31.6257 90.4655L29.7528 92.3421C29.5187 92.5725 29.2151 92.6896 28.9115 92.6896C28.6079 92.6896 28.3006 92.5725 28.0702 92.3421C27.6056 91.8775 27.6056 91.124 28.0702 90.6594L29.9467 88.7829L35.3312 83.3984L32.7633 80.8268L32.617 80.6842C32.2037 80.8451 31.7464 80.9256 31.2636 80.9256C29.7748 80.9256 28.0519 80.172 26.6472 78.771C24.372 76.4958 23.8087 73.3719 25.3816 71.7953C25.9852 71.1918 26.8155 70.9028 27.7373 70.9028C29.2261 70.9028 30.9527 71.6563 32.3573 73.061C34.2009 74.9046 34.9215 77.3042 34.2887 78.9869L34.446 79.1478L37.0139 81.7157L38.9745 79.755C38.2576 78.0395 38.9782 75.5374 40.8913 73.6206C40.9389 73.5731 40.9901 73.5292 41.0413 73.4816H41.0376L44.3554 70.1602C44.5566 69.959 44.82 69.8603 45.087 69.8603ZM45.087 69.4945C44.7102 69.4945 44.3591 69.6408 44.0957 69.9005L40.7779 73.2183C40.7779 73.2183 40.756 73.2402 40.7487 73.2512H40.7413C40.7048 73.2914 40.6645 73.3244 40.6316 73.3609C38.7185 75.2777 37.9028 77.7724 38.5466 79.6636L37.0102 81.1999L34.7021 78.8918C35.2617 77.0481 34.4423 74.6339 32.6097 72.8013C31.1904 71.382 29.3688 70.537 27.73 70.537C26.6729 70.537 25.7693 70.8845 25.1146 71.5356C23.399 73.2548 23.966 76.6165 26.3802 79.0271C27.7995 80.4427 29.6212 81.2877 31.2563 81.2877C31.7025 81.2877 32.1232 81.2255 32.5183 81.1012L34.8081 83.3947L29.6833 88.5195L27.8068 90.396C27.5142 90.6887 27.3496 91.0801 27.3496 91.4971C27.3496 91.9141 27.5105 92.3018 27.8068 92.5981C28.0995 92.8907 28.4909 93.0517 28.9079 93.0517C29.3249 93.0517 29.709 92.8907 30.0052 92.5981L31.8818 90.7179L37.0102 85.5895L42.4862 91.0654L43.7994 92.3786C44.0957 92.6749 44.4871 92.8359 44.9004 92.8359C45.3138 92.8359 45.7052 92.6749 46.0015 92.3786C46.6087 91.7714 46.6087 90.7874 46.0015 90.1839L44.6846 88.867L39.2123 83.3947L40.7925 81.8145C41.1693 81.9279 41.5753 81.9827 42.007 81.9827C43.6714 81.9827 45.5223 81.1231 46.9599 79.6819C46.9891 79.6526 47.0294 79.6124 47.0696 79.5685C47.0806 79.5612 47.0915 79.5502 47.1025 79.5392L50.38 76.2617C50.9251 75.7167 50.9617 74.8351 50.4642 74.2937C50.2008 74.0047 49.824 73.8365 49.429 73.8365C49.0339 73.8365 48.6974 73.9828 48.4377 74.2498L45.4967 77.1908C45.4967 77.1908 45.4601 77.2128 45.4491 77.2128C45.4308 77.2128 45.4089 77.2054 45.3979 77.1908C45.3796 77.1725 45.376 77.1506 45.376 77.1396C45.376 77.1286 45.376 77.1103 45.3943 77.092L48.3023 74.184C48.8547 73.6316 48.8913 72.7683 48.3901 72.2123C48.1267 71.9197 47.7463 71.7514 47.3549 71.7514C46.9818 71.7514 46.6306 71.8977 46.3636 72.1611L43.419 75.1058C43.419 75.1058 43.3934 75.1277 43.3677 75.1277C43.3604 75.1277 43.3385 75.1277 43.3239 75.1131L43.13 74.9229C43.1044 74.8973 43.1044 74.8534 43.1336 74.8205L46.0344 71.9197C46.5867 71.3673 46.6233 70.5041 46.1222 69.9481C45.8588 69.6591 45.482 69.4908 45.087 69.4908V69.4945Z" fill="#1D1D1B"/>
<path d="M28.9098 92.8725C28.544 92.8725 28.1965 92.7298 27.9405 92.4701C27.6808 92.2104 27.5381 91.8665 27.5381 91.5007C27.5381 91.135 27.6808 90.7874 27.9405 90.5314L35.0735 83.3984L32.5714 80.8963C32.1691 81.039 31.7301 81.1085 31.2619 81.1085C29.678 81.1085 27.9039 80.2818 26.5175 78.8991C24.1764 76.558 23.6095 73.3134 25.2519 71.6637C25.8701 71.0455 26.7297 70.7163 27.7356 70.7163C29.3232 70.7163 31.101 71.543 32.4837 72.9293C34.3053 74.751 35.1028 77.1469 34.4955 78.9393L37.0085 81.456L38.7534 79.7112C38.073 77.9005 38.8851 75.3655 40.7543 73.4926C40.7872 73.4597 40.8201 73.4305 40.8567 73.3975L40.8787 73.3756C40.8787 73.3756 40.8933 73.3573 40.9006 73.35L44.2184 70.0322C44.4452 69.8054 44.7524 69.6774 45.078 69.6774C45.4218 69.6774 45.751 69.8237 45.9778 70.0725C46.4131 70.5553 46.3766 71.3088 45.8937 71.7917L42.9893 74.6961C42.8905 74.7949 42.8905 74.9558 42.9893 75.0582L43.1722 75.2375C43.2344 75.3033 43.3112 75.3143 43.3514 75.3143C43.4209 75.3143 43.4831 75.2887 43.5343 75.2411L46.479 72.2965C46.7094 72.066 47.0167 71.938 47.3386 71.938C47.6824 71.938 48.008 72.0843 48.2385 72.3404C48.6738 72.8232 48.6372 73.5768 48.1543 74.0596L45.2499 76.964C45.2024 77.0116 45.1731 77.0738 45.1731 77.1396C45.1731 77.2091 45.1987 77.275 45.2499 77.3225C45.2975 77.3701 45.3633 77.3957 45.4328 77.3957C45.5023 77.3957 45.5645 77.3701 45.612 77.3225L48.5567 74.3779C48.7835 74.1474 49.0871 74.0194 49.4163 74.0194C49.7455 74.0194 50.0857 74.1657 50.3162 74.4181C50.7478 74.8863 50.7112 75.6582 50.2357 76.1337L46.9582 79.4112C46.9582 79.4112 46.9399 79.4258 46.9326 79.4332L46.9253 79.4405C46.8887 79.4807 46.8521 79.521 46.8119 79.5575C45.4145 80.9585 43.6111 81.7999 41.9943 81.7999C41.5407 81.7999 41.1164 81.734 40.7287 81.606L38.9436 83.3947L45.8644 90.3156C46.1242 90.5753 46.2668 90.9191 46.2668 91.2849C46.2668 91.6507 46.1242 91.9946 45.8644 92.2543C45.6047 92.514 45.2572 92.6603 44.8951 92.6603C44.533 92.6603 44.1854 92.5177 43.9257 92.2543L37.0049 85.3334L31.7448 90.5936L29.8719 92.4701C29.6085 92.7298 29.2647 92.8725 28.9025 92.8725H28.9098Z" fill="#E73D1C"/>
</svg>
