<svg width="135" height="125" viewBox="0 0 135 125" fill="none" xmlns="http://www.w3.org/2000/svg">
<path d="M116.783 71.021H109.833V59.0075C112.038 57.7275 113.531 55.345 113.531 52.6181V46.6462C113.531 46.6462 113.527 46.6253 113.527 46.6114C113.527 46.5766 113.52 46.5453 113.517 46.514C113.513 46.4549 113.503 46.3992 113.489 46.3436C113.489 46.3297 113.489 46.3157 113.482 46.3018L109.475 32.8553V25.2173C109.475 24.5461 108.932 24 108.258 24H25.6728C24.998 24 24.4554 24.5461 24.4554 25.2173V32.8553L20.4486 46.3018C20.4486 46.3018 20.4486 46.3297 20.4417 46.3436C20.4277 46.3992 20.4173 46.4549 20.4138 46.514C20.4104 46.5453 20.4034 46.5766 20.4034 46.6114C20.4034 46.6253 20.3999 46.6357 20.3999 46.6462V52.6181C20.3999 55.345 21.892 57.731 24.1007 59.0075V99.9556H19.2173C18.5461 99.9556 18 100.502 18 101.173C18 101.844 18.5461 102.39 19.2173 102.39H80.5752V107.583C80.5752 108.254 81.1213 108.801 81.7926 108.801H98.5781L109.409 119.631C109.642 119.864 109.952 119.99 110.272 119.99C110.428 119.99 110.585 119.958 110.734 119.896C111.19 119.708 111.485 119.263 111.485 118.772V108.801H116.783C117.454 108.801 118 108.254 118 107.583V72.2383C118 71.5636 117.454 71.021 116.783 71.021ZM111.096 52.6181C111.096 55.345 108.877 57.5675 106.146 57.5675H105.945C103.214 57.5675 100.995 55.345 100.995 52.6181V47.8635H111.096V52.6181ZM110.682 45.4288H100.296L98.185 34.2501H107.35L110.682 45.4288ZM26.8901 26.4347H107.04V31.8154H26.8901V26.4347ZM87.9663 47.8635H98.0703V52.6181C98.0703 55.345 95.8512 57.5675 93.1209 57.5675H92.9191C90.1888 57.5675 87.9663 55.345 87.9663 52.6181V47.8635ZM87.3019 45.4288L85.5281 34.2501H95.7051L97.8198 45.4288H87.3019ZM85.0446 47.8635V52.6181C85.0446 55.345 82.8221 57.5675 80.0918 57.5675H79.89C77.1632 57.5675 74.9406 55.345 74.9406 52.6181V47.8635H85.0446ZM74.9406 45.4288V34.2501H83.0656L84.8359 45.4288H74.9406ZM61.4246 45.4288V34.2501H72.5059V45.4288H61.4246ZM72.0155 47.8635V52.6181C72.0155 55.345 69.7965 57.5675 67.0661 57.5675H66.8644C64.134 57.5675 61.915 55.345 61.915 52.6181V47.8635H72.0155ZM49.0494 45.4288L50.4545 34.2501H58.9899V45.4288H49.0494ZM58.9899 47.8635V52.6181C58.9899 55.345 56.7708 57.5675 54.0405 57.5675H53.8388C51.1084 57.5675 48.8859 55.345 48.8859 52.6181V47.8635H58.9899ZM36.1107 45.4288L38.2254 34.2501H48.0024L46.5973 45.4288H36.1107ZM45.9642 47.8635V52.6181C45.9642 55.345 43.7417 57.5675 41.0114 57.5675H40.8096C38.0828 57.5675 35.8602 55.345 35.8602 52.6181V47.8635H45.9642ZM26.5806 34.2501H35.7489L33.6342 45.4288H23.2485L26.5806 34.2501ZM22.8346 52.6181V47.8635H32.9351V52.6181C32.9351 55.345 30.7161 57.5675 27.9857 57.5675H27.784C25.0537 57.5675 22.8346 55.345 22.8346 52.6181ZM49.4389 99.9556H32.8099V68.1724H49.4389V99.9556ZM80.5752 99.9556H51.8736V66.955C51.8736 66.2837 51.3275 65.7377 50.6563 65.7377H31.5926C30.9178 65.7377 30.3752 66.2837 30.3752 66.955V99.9556H26.5354V59.8874C26.9423 59.957 27.3562 60.0022 27.784 60.0022H27.9857C30.73 60.0022 33.1264 58.4927 34.3994 56.2667C35.6724 58.4927 38.0654 60.0022 40.8096 60.0022H41.0114C43.7591 60.0022 46.1521 58.4927 47.4251 56.2667C48.6981 58.4927 51.0945 60.0022 53.8388 60.0022H54.0405C56.7847 60.0022 59.1777 58.4927 60.4507 56.2667C61.7237 58.4927 64.1201 60.0022 66.8644 60.0022H67.0661C69.8104 60.0022 72.2068 58.4927 73.4798 56.2667C74.7528 58.4927 77.1458 60.0022 79.89 60.0022H80.0918C82.836 60.0022 85.2324 58.4927 86.5054 56.2667C87.7784 58.4927 90.1749 60.0022 92.9191 60.0022H93.1209C95.8651 60.0022 98.2581 58.4927 99.5311 56.2667C100.804 58.4927 103.201 60.0022 105.945 60.0022H106.146C106.574 60.0022 106.992 59.957 107.399 59.8874V71.021H102.195V66.955C102.195 66.2837 101.649 65.7377 100.978 65.7377H57.0491C56.3743 65.7377 55.8317 66.2837 55.8317 66.955V92.2933C55.8317 92.9646 56.3743 93.5106 57.0491 93.5106H80.5752V99.9556ZM80.5752 72.2383V91.0759H58.2664V68.1724H99.7606V71.021H81.7926C81.1213 71.021 80.5752 71.5636 80.5752 72.2383ZM115.565 106.366H110.268C109.597 106.366 109.051 106.908 109.051 107.583V115.833L99.9415 106.721C99.7119 106.495 99.4024 106.366 99.0824 106.366H83.0099V101.18C83.0099 101.18 83.0099 101.18 83.0099 101.173C83.0099 101.169 83.0099 101.166 83.0099 101.163V92.3002C83.0099 92.3002 83.0099 92.2968 83.0099 92.2933V73.4557H115.562V106.366H115.565Z" fill="white"/>
<path d="M23.2492 45.6027C23.1935 45.6027 23.1413 45.5784 23.11 45.5332C23.0787 45.488 23.0683 45.4323 23.0822 45.3801L26.4143 34.2014C26.4351 34.1283 26.5047 34.0762 26.5812 34.0762H35.7496C35.8018 34.0762 35.8505 34.1005 35.8818 34.1388C35.9166 34.1805 35.927 34.2327 35.92 34.2814L33.8053 45.4601C33.7914 45.5436 33.7184 45.6027 33.6349 45.6027H23.2492Z" fill="#E73D1C"/>
<path d="M35.749 34.2501L33.6343 45.4288H23.2486L26.5806 34.2501H35.749ZM35.749 33.9023H26.5806C26.4276 33.9023 26.2919 34.0031 26.2467 34.1492L22.9147 45.328C22.8834 45.4323 22.9042 45.5471 22.9703 45.634C23.0364 45.721 23.1407 45.7732 23.2486 45.7732H33.6343C33.8012 45.7732 33.9439 45.6549 33.9752 45.4914L36.0899 34.3127C36.1107 34.2118 36.0829 34.1075 36.0168 34.0275C35.9507 33.9475 35.8533 33.9023 35.749 33.9023Z" fill="#1D1D1B"/>
<path d="M49.0487 45.6027C49 45.6027 48.9513 45.5819 48.9165 45.5436C48.8817 45.5053 48.8678 45.4566 48.8748 45.408L50.28 34.2292C50.2904 34.1423 50.3634 34.0762 50.4539 34.0762H58.9892C59.0866 34.0762 59.1631 34.1527 59.1631 34.2501V45.4288C59.1631 45.5262 59.0866 45.6027 58.9892 45.6027H49.0487Z" fill="#FFD405"/>
<path d="M58.9893 34.2501V45.4288H49.0488L50.4539 34.2501H58.9893ZM58.9893 33.9023H50.4539C50.28 33.9023 50.1305 34.0344 50.1096 34.2083L48.7044 45.3871C48.6905 45.4845 48.7218 45.5853 48.7879 45.6619C48.854 45.7384 48.9479 45.7801 49.0488 45.7801H58.9893C59.1806 45.7801 59.3371 45.6236 59.3371 45.4323V34.2501C59.3371 34.0588 59.1806 33.9023 58.9893 33.9023Z" fill="#1D1D1B"/>
<path d="M74.9415 45.6027C74.8441 45.6027 74.7676 45.5262 74.7676 45.4288V34.2501C74.7676 34.1527 74.8441 34.0762 74.9415 34.0762H83.0664C83.1534 34.0762 83.2264 34.1388 83.2368 34.2223L85.0072 45.401C85.0142 45.4497 85.0003 45.5019 84.969 45.5401C84.9342 45.5784 84.889 45.5992 84.8368 45.5992H74.9415V45.6027Z" fill="#E73D1C"/>
<path d="M83.0665 34.2501L84.8369 45.4288H74.9416V34.2501H83.0665ZM83.0665 33.9023H74.9416C74.7503 33.9023 74.5938 34.0588 74.5938 34.2501V45.4288C74.5938 45.6201 74.7503 45.7766 74.9416 45.7766H84.8369C84.9377 45.7766 85.0351 45.7314 85.1012 45.6549C85.1673 45.5784 85.1951 45.474 85.1812 45.3732L83.4108 34.1944C83.383 34.024 83.2369 33.9023 83.0665 33.9023Z" fill="#1D1D1B"/>
<path d="M100.297 45.6027C100.213 45.6027 100.14 45.5436 100.126 45.4601L98.0151 34.2814C98.0047 34.2292 98.0186 34.177 98.0534 34.1388C98.0847 34.1005 98.1368 34.0762 98.1855 34.0762H107.35C107.427 34.0762 107.497 34.1283 107.517 34.2014L110.849 45.3801C110.867 45.4323 110.856 45.488 110.822 45.5332C110.787 45.5784 110.738 45.6027 110.682 45.6027H100.297Z" fill="#FFD405"/>
<path d="M107.35 34.2501L110.683 45.4288H100.297L98.1856 34.2501H107.35ZM107.35 33.9023H98.1856C98.0812 33.9023 97.9838 33.9475 97.9177 34.0275C97.8517 34.1075 97.8238 34.2118 97.8447 34.3127L99.9559 45.4914C99.9872 45.6549 100.13 45.7732 100.297 45.7732H110.683C110.794 45.7732 110.895 45.721 110.961 45.634C111.027 45.5471 111.048 45.4323 111.016 45.328L107.684 34.1492C107.639 34.0031 107.504 33.9023 107.35 33.9023Z" fill="#1D1D1B"/>
<path d="M105.944 57.7414C103.119 57.7414 100.82 55.4424 100.82 52.6181V47.8635C100.82 47.7661 100.897 47.6896 100.994 47.6896H111.095C111.192 47.6896 111.269 47.7661 111.269 47.8635V52.6181C111.269 55.4424 108.97 57.7414 106.145 57.7414H105.944Z" fill="#FFD405"/>
<path d="M111.095 47.8635V52.6181C111.095 55.345 108.876 57.5675 106.145 57.5675H105.944C103.213 57.5675 100.994 55.345 100.994 52.6181V47.8635H111.095ZM111.095 47.5157H100.994C100.803 47.5157 100.646 47.6722 100.646 47.8635V52.6181C100.646 55.5398 103.022 57.9153 105.944 57.9153H106.145C109.067 57.9153 111.443 55.5398 111.443 52.6181V47.8635C111.443 47.6722 111.286 47.5157 111.095 47.5157Z" fill="#1D1D1B"/>
<path d="M79.8909 57.7414C77.0666 57.7414 74.7676 55.4424 74.7676 52.6181V47.8635C74.7676 47.7661 74.8441 47.6896 74.9415 47.6896H85.0455C85.1429 47.6896 85.2194 47.7661 85.2194 47.8635V52.6181C85.2194 55.4424 82.9203 57.7414 80.0926 57.7414H79.8909Z" fill="#E73D1C"/>
<path d="M85.0456 47.8635V52.6181C85.0456 55.345 82.823 57.5675 80.0927 57.5675H79.891C77.1641 57.5675 74.9416 55.345 74.9416 52.6181V47.8635H85.0456ZM85.0456 47.5157H74.9416C74.7503 47.5157 74.5938 47.6722 74.5938 47.8635V52.6181C74.5938 55.5398 76.9693 57.9153 79.891 57.9153H80.0927C83.0143 57.9153 85.3934 55.5398 85.3934 52.6181V47.8635C85.3934 47.6722 85.2369 47.5157 85.0456 47.5157Z" fill="#1D1D1B"/>
<path d="M53.8397 57.7414C51.0119 57.7414 48.7129 55.4424 48.7129 52.6181V47.8635C48.7129 47.7661 48.7894 47.6896 48.8868 47.6896H58.9908C59.0882 47.6896 59.1647 47.7661 59.1647 47.8635V52.6181C59.1647 55.4424 56.8657 57.7414 54.0414 57.7414H53.8397Z" fill="#FFD405"/>
<path d="M58.9909 47.8635V52.6181C58.9909 55.345 56.7718 57.5675 54.0415 57.5675H53.8397C51.1094 57.5675 48.8869 55.345 48.8869 52.6181V47.8635H58.9909ZM58.9909 47.5157H48.8869C48.6956 47.5157 48.5391 47.6722 48.5391 47.8635V52.6181C48.5391 55.5398 50.9181 57.9153 53.8397 57.9153H54.0415C56.9631 57.9153 59.3387 55.5398 59.3387 52.6181V47.8635C59.3387 47.6722 59.1822 47.5157 58.9909 47.5157Z" fill="#1D1D1B"/>
<path d="M27.7835 57.7414C24.9592 57.7414 22.6602 55.4424 22.6602 52.6181V47.8635C22.6602 47.7661 22.7367 47.6896 22.8341 47.6896H32.9346C33.032 47.6896 33.1085 47.7661 33.1085 47.8635V52.6181C33.1085 55.4424 30.8094 57.7414 27.9852 57.7414H27.7835Z" fill="#E73D1C"/>
<path d="M32.9347 47.8635V52.6181C32.9347 55.345 30.7156 57.5675 27.9853 57.5675H27.7835C25.0532 57.5675 22.8341 55.345 22.8341 52.6181V47.8635H32.9347ZM32.9347 47.5157H22.8341C22.6428 47.5157 22.4863 47.6722 22.4863 47.8635V52.6181C22.4863 55.5398 24.8619 57.9153 27.7835 57.9153H27.9853C30.9069 57.9153 33.2825 55.5398 33.2825 52.6181V47.8635C33.2825 47.6722 33.126 47.5157 32.9347 47.5157Z" fill="#1D1D1B"/>
<path d="M115.566 73.4557V106.366H110.269C109.597 106.366 109.051 106.908 109.051 107.583V115.833L99.9419 106.721C99.7124 106.495 99.4028 106.366 99.0828 106.366H83.0104V101.18C83.0104 101.18 83.0104 101.18 83.0104 101.173C83.0104 101.169 83.0104 101.166 83.0104 101.163V92.3002C83.0104 92.3002 83.0104 92.2968 83.0104 92.2933V73.4557H115.562H115.566ZM115.566 73.1079H83.0138C82.8225 73.1079 82.666 73.2644 82.666 73.4557V92.2515C82.666 92.2515 82.666 92.2828 82.666 92.3002V101.163V101.169C82.666 101.169 82.666 101.176 82.666 101.18V106.366C82.666 106.557 82.8225 106.714 83.0138 106.714H99.0863C99.3124 106.714 99.5385 106.808 99.7019 106.968L108.808 116.077C108.874 116.143 108.964 116.178 109.055 116.178C109.1 116.178 109.145 116.171 109.187 116.15C109.316 116.098 109.402 115.969 109.402 115.83V107.58C109.402 107.1 109.792 106.71 110.272 106.71H115.569C115.761 106.71 115.917 106.554 115.917 106.362V73.4522C115.917 73.2609 115.761 73.1044 115.569 73.1044L115.566 73.1079Z" stroke="#1D1D1B" stroke-miterlimit="10"/>
<path d="M111.643 94.4115V96.0845C111.643 98.1289 109.979 99.79 107.937 99.79H90.8735C88.8286 99.79 87.168 98.1293 87.168 96.0845V94.4115C87.168 94.1544 87.3783 93.9441 87.6353 93.9441H111.175C111.432 93.9441 111.643 94.1544 111.643 94.4115Z" fill="#FFD405" stroke="white" stroke-width="1.5"/>
<path d="M87.6354 91.9316C86.8667 91.9316 86.2441 91.309 86.2441 90.5403C86.2441 89.7716 86.8667 89.149 87.6354 89.149H111.175C111.944 89.149 112.567 89.7716 112.567 90.5403C112.567 91.309 111.944 91.9316 111.175 91.9316H87.6354Z" fill="#FFD405"/>
<path d="M111.176 89.3229C111.847 89.3229 112.393 89.869 112.393 90.5403C112.393 91.2116 111.847 91.7576 111.176 91.7576H87.6355C86.9642 91.7576 86.4181 91.2116 86.4181 90.5403C86.4181 89.869 86.9642 89.3229 87.6355 89.3229H111.176ZM111.176 88.9751H87.6355C86.7729 88.9751 86.0703 89.6777 86.0703 90.5403C86.0703 91.4029 86.7729 92.1055 87.6355 92.1055H111.176C112.038 92.1055 112.741 91.4029 112.741 90.5403C112.741 89.6777 112.038 88.9751 111.176 88.9751Z" fill="#1D1D1B"/>
<path d="M87.6355 92.1055C86.7729 92.1055 86.0703 91.4029 86.0703 90.5403C86.0703 89.6777 86.7729 88.9751 87.6355 88.9751H111.176C112.038 88.9751 112.741 89.6777 112.741 90.5403C112.741 91.4029 112.038 92.1055 111.176 92.1055H87.6355Z" fill="white"/>
<path d="M111.176 89.3229C111.847 89.3229 112.393 89.869 112.393 90.5403C112.393 91.2116 111.847 91.7576 111.176 91.7576H87.6356C86.9644 91.7576 86.4183 91.2116 86.4183 90.5403C86.4183 89.869 86.9644 89.3229 87.6356 89.3229H111.176ZM111.176 88.6273H87.6356C86.5818 88.6273 85.7227 89.4864 85.7227 90.5403C85.7227 91.5942 86.5818 92.4533 87.6356 92.4533H111.176C112.23 92.4533 113.089 91.5942 113.089 90.5403C113.089 89.4864 112.23 88.6273 111.176 88.6273Z" fill="#E73D1C"/>
<path d="M87.6354 91.9316C86.8667 91.9316 86.2441 91.309 86.2441 90.5403C86.2441 89.7716 86.8667 89.149 87.6354 89.149H111.175C111.944 89.149 112.567 89.7716 112.567 90.5403C112.567 91.309 111.944 91.9316 111.175 91.9316H87.6354Z" fill="#E73D1C"/>
<path d="M111.26 86.6378C111.26 86.8963 111.052 87.1052 110.793 87.1052H87.399C87.1419 87.1052 86.9316 86.8949 86.9316 86.6378C86.9316 82.0574 90.6583 78.3307 95.2387 78.3307H102.957C107.533 78.3307 111.26 82.0572 111.26 86.6378Z" fill="#FFD405" stroke="white" stroke-width="1.5"/>
</svg>
