<svg width="136" height="126" viewBox="0 0 136 126" fill="none" xmlns="http://www.w3.org/2000/svg">
<path d="M54.9105 38.6684H48.2023C47.5328 38.6684 46.9883 39.2095 46.9883 39.8824V46.5905C46.9883 47.26 47.5328 47.8045 48.2023 47.8045H54.9105C55.5834 47.8045 56.1245 47.26 56.1245 46.5905V39.8824C56.1245 39.2095 55.5834 38.6684 54.9105 38.6684ZM53.6965 45.3765H49.4163V41.0964H53.6965V45.3765Z" fill="white"/>
<path d="M53.6958 40.923H49.4156C49.3198 40.923 49.2422 41.0006 49.2422 41.0964V45.3766C49.2422 45.4724 49.3198 45.55 49.4156 45.55H53.6958C53.7916 45.55 53.8693 45.4724 53.8693 45.3766V41.0964C53.8693 41.0006 53.7916 40.923 53.6958 40.923Z" fill="#FFD405"/>
<path d="M53.6974 41.0964V45.3766H49.4172V41.0964H53.6974ZM53.6974 40.7495H49.4172C49.2264 40.7495 49.0703 40.9056 49.0703 41.0964V45.3766C49.0703 45.5673 49.2264 45.7234 49.4172 45.7234H53.6974C53.8882 45.7234 54.0442 45.5673 54.0442 45.3766V41.0964C54.0442 40.9056 53.8882 40.7495 53.6974 40.7495Z" fill="#1D1D1B"/>
<path d="M66.0745 38.6684H59.3663C58.6934 38.6684 58.1523 39.2095 58.1523 39.8824V46.5905C58.1523 47.26 58.6934 47.8045 59.3663 47.8045H66.0745C66.7439 47.8045 67.2885 47.26 67.2885 46.5905V39.8824C67.2885 39.2095 66.7439 38.6684 66.0745 38.6684ZM64.8605 45.3765H60.5803V41.0964H64.8605V45.3765Z" fill="white"/>
<path d="M64.856 40.923H60.5758C60.48 40.923 60.4023 41.0006 60.4023 41.0964V45.3766C60.4023 45.4724 60.48 45.55 60.5758 45.55H64.856C64.9517 45.55 65.0294 45.4724 65.0294 45.3766V41.0964C65.0294 41.0006 64.9517 40.923 64.856 40.923Z" fill="#E73D1C"/>
<path d="M64.8575 41.0964V45.3766H60.5773V41.0964H64.8575ZM64.8575 40.7495H60.5773C60.3866 40.7495 60.2305 40.9056 60.2305 41.0964V45.3766C60.2305 45.5673 60.3866 45.7234 60.5773 45.7234H64.8575C65.0483 45.7234 65.2044 45.5673 65.2044 45.3766V41.0964C65.2044 40.9056 65.0483 40.7495 64.8575 40.7495Z" fill="#1D1D1B"/>
<path d="M70.5265 47.697H77.2347C77.9041 47.697 78.4487 47.1524 78.4487 46.483V39.7748C78.4487 39.1054 77.9041 38.5608 77.2347 38.5608H70.5265C69.8571 38.5608 69.3125 39.1054 69.3125 39.7748V46.483C69.3125 47.1524 69.8571 47.697 70.5265 47.697Z" fill="white"/>
<path d="M76.0201 40.8154H71.7398C71.6441 40.8154 71.5664 40.893 71.5664 40.9888V45.269C71.5664 45.3648 71.6441 45.4424 71.7398 45.4424H76.0201C76.1158 45.4424 76.1935 45.3648 76.1935 45.269V40.9888C76.1935 40.893 76.1158 40.8154 76.0201 40.8154Z" fill="#FFD405"/>
<path d="M76.0216 40.9888V45.269H71.7414V40.9888H76.0216ZM76.0216 40.642H71.7414C71.5506 40.642 71.3945 40.7981 71.3945 40.9888V45.269C71.3945 45.4598 71.5506 45.6159 71.7414 45.6159H76.0216C76.2124 45.6159 76.3685 45.4598 76.3685 45.269V40.9888C76.3685 40.7981 76.2124 40.642 76.0216 40.642Z" fill="#1D1D1B"/>
<path d="M88.8914 38.5608H82.1866C81.5138 38.5608 80.9727 39.1054 80.9727 39.7748V46.483C80.9727 47.1524 81.5138 47.697 82.1866 47.697H88.8914C89.5643 47.697 90.1054 47.1524 90.1054 46.483V39.7748C90.1054 39.1054 89.5643 38.5608 88.8914 38.5608ZM87.6774 45.269H83.4006V40.9888H87.6774V45.269Z" fill="white"/>
<path d="M87.6767 40.8154H83.4C83.3042 40.8154 83.2266 40.893 83.2266 40.9888V45.269C83.2266 45.3648 83.3042 45.4424 83.4 45.4424H87.6767C87.7725 45.4424 87.8502 45.3648 87.8502 45.269V40.9888C87.8502 40.893 87.7725 40.8154 87.6767 40.8154Z" fill="#FFD405"/>
<path d="M87.6783 40.9888V45.269H83.4015V40.9888H87.6783ZM87.6783 40.642H83.4015C83.2108 40.642 83.0547 40.7981 83.0547 40.9888V45.269C83.0547 45.4598 83.2108 45.6159 83.4015 45.6159H87.6783C87.8691 45.6159 88.0252 45.4598 88.0252 45.269V40.9888C88.0252 40.7981 87.8691 40.642 87.6783 40.642Z" fill="#1D1D1B"/>
<path d="M54.9105 50.8152H48.2023C47.5328 50.8152 46.9883 51.3598 46.9883 52.0292V58.7374C46.9883 59.4068 47.5328 59.9514 48.2023 59.9514H54.9105C55.5834 59.9514 56.1245 59.4068 56.1245 58.7374V52.0292C56.1245 51.3598 55.5834 50.8152 54.9105 50.8152ZM53.6965 57.5234H49.4163V53.2432H53.6965V57.5234Z" fill="white"/>
<path d="M53.6958 53.0698H49.4156C49.3198 53.0698 49.2422 53.1474 49.2422 53.2432V57.5234C49.2422 57.6192 49.3198 57.6968 49.4156 57.6968H53.6958C53.7916 57.6968 53.8693 57.6192 53.8693 57.5234V53.2432C53.8693 53.1474 53.7916 53.0698 53.6958 53.0698Z" fill="#E73D1C"/>
<path d="M53.6974 53.2432V57.5234H49.4172V53.2432H53.6974ZM53.6974 52.8964H49.4172C49.2264 52.8964 49.0703 53.0524 49.0703 53.2432V57.5234C49.0703 57.7142 49.2264 57.8703 49.4172 57.8703H53.6974C53.8882 57.8703 54.0442 57.7142 54.0442 57.5234V53.2432C54.0442 53.0524 53.8882 52.8964 53.6974 52.8964Z" fill="#1D1D1B"/>
<path d="M59.3663 59.9514H66.0745C66.7439 59.9514 67.2885 59.4068 67.2885 58.7374V52.0292C67.2885 51.3598 66.7439 50.8152 66.0745 50.8152H59.3663C58.6969 50.8152 58.1523 51.3598 58.1523 52.0292V58.7374C58.1523 59.4068 58.6969 59.9514 59.3663 59.9514Z" fill="white"/>
<path d="M64.856 53.0698H60.5758C60.48 53.0698 60.4023 53.1474 60.4023 53.2432V57.5234C60.4023 57.6192 60.48 57.6968 60.5758 57.6968H64.856C64.9517 57.6968 65.0294 57.6192 65.0294 57.5234V53.2432C65.0294 53.1474 64.9517 53.0698 64.856 53.0698Z" fill="#FFD405"/>
<path d="M64.8575 53.2432V57.5234H60.5773V53.2432H64.8575ZM64.8575 52.8964H60.5773C60.3866 52.8964 60.2305 53.0524 60.2305 53.2432V57.5234C60.2305 57.7142 60.3866 57.8703 60.5773 57.8703H64.8575C65.0483 57.8703 65.2044 57.7142 65.2044 57.5234V53.2432C65.2044 53.0524 65.0483 52.8964 64.8575 52.8964Z" fill="#1D1D1B"/>
<path d="M77.2347 50.7077H70.5265C69.8571 50.7077 69.3125 51.2523 69.3125 51.9217V58.6299C69.3125 59.2993 69.8571 59.8439 70.5265 59.8439H77.2347C77.9041 59.8439 78.4487 59.2993 78.4487 58.6299V51.9217C78.4487 51.2523 77.9041 50.7077 77.2347 50.7077ZM76.0207 57.4159H71.7405V53.1357H76.0207V57.4159Z" fill="white"/>
<path d="M76.0201 52.9622H71.7398C71.6441 52.9622 71.5664 53.0399 71.5664 53.1356V57.4158C71.5664 57.5116 71.6441 57.5893 71.7398 57.5893H76.0201C76.1158 57.5893 76.1935 57.5116 76.1935 57.4158V53.1356C76.1935 53.0399 76.1158 52.9622 76.0201 52.9622Z" fill="#E73D1C"/>
<path d="M76.0216 53.1357V57.4159H71.7414V53.1357H76.0216ZM76.0216 52.7888H71.7414C71.5506 52.7888 71.3945 52.9449 71.3945 53.1357V57.4159C71.3945 57.6066 71.5506 57.7627 71.7414 57.7627H76.0216C76.2124 57.7627 76.3685 57.6066 76.3685 57.4159V53.1357C76.3685 52.9449 76.2124 52.7888 76.0216 52.7888Z" fill="#1D1D1B"/>
<path d="M88.8914 50.7077H82.1866C81.5138 50.7077 80.9727 51.2523 80.9727 51.9217V58.6299C80.9727 59.2993 81.5138 59.8439 82.1866 59.8439H88.8914C89.5643 59.8439 90.1054 59.2993 90.1054 58.6299V51.9217C90.1054 51.2523 89.5643 50.7077 88.8914 50.7077ZM87.6774 57.4159H83.4006V53.1357H87.6774V57.4159Z" fill="white"/>
<path d="M87.6767 52.9622H83.4C83.3042 52.9622 83.2266 53.0399 83.2266 53.1356V57.4158C83.2266 57.5116 83.3042 57.5893 83.4 57.5893H87.6767C87.7725 57.5893 87.8502 57.5116 87.8502 57.4158V53.1356C87.8502 53.0399 87.7725 52.9622 87.6767 52.9622Z" fill="#FFD405"/>
<path d="M87.6783 53.1357V57.4159H83.4015V53.1357H87.6783ZM87.6783 52.7888H83.4015C83.2108 52.7888 83.0547 52.9449 83.0547 53.1357V57.4159C83.0547 57.6066 83.2108 57.7627 83.4015 57.7627H87.6783C87.8691 57.7627 88.0252 57.6066 88.0252 57.4159V53.1357C88.0252 52.9449 87.8691 52.7888 87.6783 52.7888Z" fill="#1D1D1B"/>
<path d="M54.9105 62.9621H48.2023C47.5328 62.9621 46.9883 63.5066 46.9883 64.1761V70.8842C46.9883 71.5537 47.5328 72.0982 48.2023 72.0982H54.9105C55.5799 72.0982 56.1245 71.5537 56.1245 70.8842V64.1761C56.1245 63.5066 55.5799 62.9621 54.9105 62.9621Z" fill="white"/>
<path d="M53.6958 65.2166H49.4156C49.3198 65.2166 49.2422 65.2943 49.2422 65.3901V69.6703C49.2422 69.766 49.3198 69.8437 49.4156 69.8437H53.6958C53.7916 69.8437 53.8693 69.766 53.8693 69.6703V65.3901C53.8693 65.2943 53.7916 65.2166 53.6958 65.2166Z" fill="#FFD405"/>
<path d="M53.6974 65.3901V69.6703H49.4172V65.3901H53.6974ZM53.6974 65.0432H49.4172C49.2264 65.0432 49.0703 65.1993 49.0703 65.3901V69.6703C49.0703 69.8611 49.2264 70.0171 49.4172 70.0171H53.6974C53.8882 70.0171 54.0442 69.8611 54.0442 69.6703V65.3901C54.0442 65.1993 53.8882 65.0432 53.6974 65.0432Z" fill="#1D1D1B"/>
<path d="M66.0745 62.9621H59.3663C58.6934 62.9621 58.1523 63.5066 58.1523 64.1761V70.8842C58.1523 71.5571 58.6934 72.0982 59.3663 72.0982H66.0745C66.7439 72.0982 67.2885 71.5571 67.2885 70.8842V64.1761C67.2885 63.5066 66.7439 62.9621 66.0745 62.9621ZM64.8605 69.6702H60.5803V65.3901H64.8605V69.6702Z" fill="white"/>
<path d="M64.856 65.2166H60.5758C60.48 65.2166 60.4023 65.2943 60.4023 65.3901V69.6703C60.4023 69.766 60.48 69.8437 60.5758 69.8437H64.856C64.9517 69.8437 65.0294 69.766 65.0294 69.6703V65.3901C65.0294 65.2943 64.9517 65.2166 64.856 65.2166Z" fill="#FFD405"/>
<path d="M64.8575 65.3901V69.6703H60.5773V65.3901H64.8575ZM64.8575 65.0432H60.5773C60.3866 65.0432 60.2305 65.1993 60.2305 65.3901V69.6703C60.2305 69.8611 60.3866 70.0171 60.5773 70.0171H64.8575C65.0483 70.0171 65.2044 69.8611 65.2044 69.6703V65.3901C65.2044 65.1993 65.0483 65.0432 64.8575 65.0432Z" fill="#1D1D1B"/>
<path d="M77.2347 62.858H70.5265C69.8571 62.858 69.3125 63.3991 69.3125 64.072V70.7802C69.3125 71.4496 69.8571 71.9942 70.5265 71.9942H77.2347C77.9041 71.9942 78.4487 71.4496 78.4487 70.7802V64.072C78.4487 63.3991 77.9041 62.858 77.2347 62.858ZM76.0207 69.5662H71.7405V65.286H76.0207V69.5662Z" fill="white"/>
<path d="M76.0201 65.1126H71.7398C71.6441 65.1126 71.5664 65.1902 71.5664 65.286V69.5662C71.5664 69.662 71.6441 69.7396 71.7398 69.7396H76.0201C76.1158 69.7396 76.1935 69.662 76.1935 69.5662V65.286C76.1935 65.1902 76.1158 65.1126 76.0201 65.1126Z" fill="#FFD405"/>
<path d="M76.0216 65.286V69.5662H71.7414V65.286H76.0216ZM76.0216 64.9391H71.7414C71.5506 64.9391 71.3945 65.0952 71.3945 65.286V69.5662C71.3945 69.757 71.5506 69.9131 71.7414 69.9131H76.0216C76.2124 69.9131 76.3685 69.757 76.3685 69.5662V65.286C76.3685 65.0952 76.2124 64.9391 76.0216 64.9391Z" fill="#1D1D1B"/>
<path d="M82.1866 71.9942H88.8949C89.5643 71.9942 90.1089 71.4496 90.1089 70.7802V64.072C90.1089 63.4026 89.5643 62.858 88.8949 62.858H82.1866C81.5172 62.858 80.9727 63.4026 80.9727 64.072V70.7802C80.9727 71.4496 81.5172 71.9942 82.1866 71.9942Z" fill="white"/>
<path d="M87.6767 65.1126H83.4C83.3042 65.1126 83.2266 65.1902 83.2266 65.286V69.5662C83.2266 69.662 83.3042 69.7396 83.4 69.7396H87.6767C87.7725 69.7396 87.8502 69.662 87.8502 69.5662V65.286C87.8502 65.1902 87.7725 65.1126 87.6767 65.1126Z" fill="#E73D1C"/>
<path d="M87.6783 65.286V69.5662H83.4015V65.286H87.6783ZM87.6783 64.9391H83.4015C83.2108 64.9391 83.0547 65.0952 83.0547 65.286V69.5662C83.0547 69.757 83.2108 69.9131 83.4015 69.9131H87.6783C87.8691 69.9131 88.0252 69.757 88.0252 69.5662V65.286C88.0252 65.0952 87.8691 64.9391 87.6783 64.9391Z" fill="#1D1D1B"/>
<path d="M54.9105 75.1124H48.2023C47.5328 75.1124 46.9883 75.657 46.9883 76.3264V83.0346C46.9883 83.704 47.5328 84.2486 48.2023 84.2486H54.9105C55.5799 84.2486 56.1245 83.704 56.1245 83.0346V76.3264C56.1245 75.657 55.5799 75.1124 54.9105 75.1124ZM53.6965 81.8206H49.4163V77.5404H53.6965V81.8206Z" fill="white"/>
<path d="M82.1866 84.1411H88.8949C89.5643 84.1411 90.1089 83.5965 90.1089 82.9271V76.2189C90.1089 75.5495 89.5643 75.0049 88.8949 75.0049H82.1866C81.5172 75.0049 80.9727 75.5495 80.9727 76.2189V82.9271C80.9727 83.5965 81.5172 84.1411 82.1866 84.1411ZM83.4006 77.4329H87.6809V81.7131H83.4006V77.4329Z" fill="white"/>
<path d="M54.9105 87.2593H48.2023C47.5328 87.2593 46.9883 87.8039 46.9883 88.4733V95.1815C46.9883 95.8509 47.5328 96.3955 48.2023 96.3955H54.9105C55.5799 96.3955 56.1245 95.8509 56.1245 95.1815V88.4733C56.1245 87.8039 55.5799 87.2593 54.9105 87.2593ZM53.6965 93.9675H49.4163V89.6873H53.6965V93.9675Z" fill="white"/>
<path d="M82.1866 96.288H88.8949C89.5643 96.288 90.1089 95.7434 90.1089 95.074V88.3658C90.1089 87.6964 89.5643 87.1518 88.8949 87.1518H82.1866C81.5172 87.1518 80.9727 87.6964 80.9727 88.3658V95.074C80.9727 95.7434 81.5172 96.288 82.1866 96.288ZM83.4006 89.5798H87.6809V93.86H83.4006V89.5798Z" fill="white"/>
<path d="M54.9105 99.4062H48.2023C47.5328 99.4062 46.9883 99.9508 46.9883 100.62V107.328C46.9883 107.998 47.5328 108.542 48.2023 108.542H54.9105C55.5799 108.542 56.1245 107.998 56.1245 107.328V100.62C56.1245 99.9508 55.5799 99.4062 54.9105 99.4062ZM53.6965 106.114H49.4163V101.834H53.6965V106.114Z" fill="white"/>
<path d="M82.1866 108.438H88.8949C89.5643 108.438 90.1089 107.894 90.1089 107.224V100.516C90.1089 99.8467 89.5643 99.3021 88.8949 99.3021H82.1866C81.5172 99.3021 80.9727 99.8467 80.9727 100.516V107.224C80.9727 107.894 81.5172 108.438 82.1866 108.438ZM83.4006 101.73H87.6809V106.01H83.4006V101.73Z" fill="white"/>
<path d="M124.789 111.38H118.872V70.3883L120.52 71.7237C120.742 71.9006 121.012 71.9942 121.286 71.9942C121.463 71.9942 121.64 71.9526 121.806 71.8728C122.23 71.6716 122.497 71.245 122.497 70.7802V62.7332C122.497 62.362 122.33 62.0117 122.039 61.7828L94.7101 40.087C94.6892 40.0696 94.6684 40.0592 94.6442 40.0454V33.7187C94.6442 33.0493 94.1031 32.5047 93.4302 32.5047H82.9031V29.3692H87.0238C87.6932 29.3692 88.2378 28.8246 88.2378 28.1552V15.214C88.2378 14.5446 87.6932 14 87.0238 14H49.7854C49.116 14 48.5714 14.5446 48.5714 15.214V28.1552C48.5714 28.8246 49.116 29.3692 49.7854 29.3692H54.2598V32.5047H43.5697C42.9003 32.5047 42.3557 33.0493 42.3557 33.7187V40.0454C42.3349 40.0592 42.3107 40.0696 42.2898 40.087L14.9646 61.7828C14.6732 62.0117 14.5033 62.362 14.5033 62.7332V70.7802C14.5033 71.245 14.7738 71.6716 15.197 71.8728C15.3635 71.9526 15.5404 71.9942 15.7173 71.9942C15.9913 71.9942 16.2618 71.9006 16.4803 71.7237L18.1314 70.3883V111.38H12.214C11.5446 111.38 11 111.924 11 112.594C11 113.263 11.5446 113.808 12.214 113.808H124.789C125.459 113.808 126.003 113.263 126.003 112.594C126.003 111.924 125.459 111.38 124.789 111.38ZM42.3557 111.38H38.8699V63.7564C38.8699 63.0835 38.3253 62.5424 37.6559 62.5424C36.9864 62.5424 36.4419 63.0835 36.4419 63.7564V111.38H33.0496V71.0854C33.0496 70.4125 32.5085 69.8715 31.8356 69.8715C31.1627 69.8715 30.6216 70.4125 30.6216 71.0854V111.38H27.2328V74.2592C27.2328 73.5897 26.6883 73.0452 26.0189 73.0452C25.3494 73.0452 24.8049 73.5897 24.8049 74.2592V111.38H20.5594V68.4251L42.3557 50.8048V111.38ZM42.3557 47.6831H42.3523L16.9313 68.2378V63.3194L42.3557 43.1358V47.6831ZM50.9994 26.9412V16.428H85.8098V26.9412H50.9994ZM80.4751 29.3692V32.5047H56.6878V29.3692H80.4751ZM77.2528 110.963H70.1215V91.2065C70.1215 90.5371 69.577 89.9925 68.9075 89.9925C68.2381 89.9925 67.6935 90.5371 67.6935 91.2065V110.963H60.5795V84.1515H77.2528V110.963ZM77.2528 81.7235H60.5795V75.9553H77.2528V81.7235ZM92.2162 111.38H79.6808V74.7413C79.6808 74.0719 79.1363 73.5273 78.4668 73.5273H59.3655C58.6926 73.5273 58.1515 74.0719 58.1515 74.7413V111.38H44.7837V34.9327H92.2162V111.38ZM94.6442 43.1358L120.069 63.3194V68.2378L94.6511 47.6866C94.6511 47.6866 94.6476 47.6866 94.6442 47.6866V43.1393V43.1358ZM116.444 111.38H113.572V74.2592C113.572 73.5897 113.028 73.0452 112.358 73.0452C111.689 73.0452 111.144 73.5897 111.144 74.2592V111.38H107.752V71.0854C107.752 70.4125 107.211 69.8715 106.538 69.8715C105.865 69.8715 105.324 70.4125 105.324 71.0854V111.38H101.935V63.7564C101.935 63.0835 101.391 62.5424 100.721 62.5424C100.052 62.5424 99.5071 63.0835 99.5071 63.7564V111.38H94.6442V50.8048L116.444 68.4285V111.38Z" fill="white"/>
<path d="M85.8096 16.428V26.9412H50.9992V16.428H85.8096ZM85.8096 16.0811H50.9992C50.8084 16.0811 50.6523 16.2372 50.6523 16.428V26.9412C50.6523 27.1319 50.8084 27.288 50.9992 27.288H85.8096C86.0004 27.288 86.1564 27.1319 86.1564 26.9412V16.428C86.1564 16.2372 86.0004 16.0811 85.8096 16.0811Z" fill="#1D1D1B"/>
<path d="M56.6535 24.3744V22.269H55.0823V24.3744H53.6289V18.9288H55.0823V20.8955H56.6535V18.9288H58.0999V24.3744H56.6535Z" fill="white"/>
<path d="M63.3439 24.4854C62.5254 24.4854 61.8282 24.2114 61.2802 23.6738C60.7321 23.1327 60.4512 22.4529 60.4512 21.6516C60.4512 20.8504 60.7287 20.1705 61.2802 19.6295C61.8282 19.0918 62.5219 18.8178 63.3439 18.8178C63.8816 18.8178 64.3776 18.9427 64.8181 19.1855C65.2586 19.4317 65.6089 19.7751 65.8586 20.2052C66.1049 20.6353 66.2298 21.1209 66.2298 21.6516C66.2298 22.4598 65.9523 23.1396 65.4043 23.6773C64.8562 24.2114 64.166 24.4854 63.3439 24.4854ZM63.3474 20.2087C62.9381 20.2087 62.6017 20.344 62.3277 20.6215C62.0502 20.8989 61.9149 21.2354 61.9149 21.6551C61.9149 22.0748 62.0502 22.4112 62.3277 22.6887C62.6052 22.9662 62.9381 23.1015 63.3439 23.1015C63.6145 23.1015 63.8573 23.039 64.0758 22.9176C64.2943 22.7928 64.4574 22.6263 64.5822 22.4043C64.7036 22.1823 64.7695 21.9326 64.7695 21.6586C64.7695 21.2423 64.6377 20.9024 64.3637 20.6249C64.0932 20.3474 63.7602 20.2156 63.3509 20.2156L63.3474 20.2087Z" fill="white"/>
<path d="M69.4 24.3744V20.3023H67.9883V18.9288H72.2754V20.3023H70.8568V24.3744H69.4Z" fill="white"/>
<path d="M74.4883 24.3744V18.9288H77.8944V20.2954H75.9416V20.9545H77.7036V22.2968H75.9416V23.0009H77.9742V24.3744H74.4883Z" fill="white"/>
<path d="M80.3809 24.3744V18.9288H81.8377V23.0009H83.7904V24.3744H80.3809Z" fill="white"/>
</svg>
