<svg width="111" height="111" viewBox="0 0 111 111" fill="none" xmlns="http://www.w3.org/2000/svg">
<path d="M98.0735 26.1576C97.9835 24.7576 97.4135 23.5676 96.4335 22.7376C95.4835 21.9276 94.1935 21.5276 92.8835 21.6276C91.5535 21.7276 90.2135 21.7876 88.8635 21.7876C85.8135 21.7876 82.9435 21.4976 80.1135 20.9076C71.7635 19.1776 64.7135 15.3376 59.1835 9.53758C58.0735 8.35758 56.8935 7.77758 55.5635 7.76758C53.6035 7.76758 52.2535 9.12758 51.8135 9.56758C43.7035 17.7776 33.9335 21.7676 21.9535 21.7676C20.8335 21.7676 19.6335 21.7276 18.2635 21.6476C15.3535 21.4576 13.1635 23.3276 12.9235 26.2276V26.2976C12.8535 26.9776 12.8135 27.6376 12.7735 28.3176C12.2235 37.8876 12.9335 46.4976 14.9335 54.6376C18.9035 70.8276 27.6635 84.4576 40.9435 95.1376C44.6935 98.1576 48.8335 100.788 53.5935 103.168C53.9635 103.358 54.3735 103.458 54.7935 103.458H56.2035C56.7935 103.448 57.3635 103.258 57.7635 102.938L57.8235 102.898C73.9935 94.5976 85.7435 81.8076 92.7735 64.8676C95.7035 57.7576 97.4535 50.0876 98.1235 41.4276C98.4835 36.7776 98.4635 31.7776 98.0735 26.1576ZM95.9235 41.2776C95.2635 49.7076 93.5735 57.1576 90.7235 64.0476C83.8935 80.5176 72.4535 92.9476 56.7135 101.008L56.4535 101.188C56.3835 101.238 56.2935 101.268 56.1835 101.268H54.7735C54.6935 101.268 54.6235 101.248 54.5535 101.218C49.9335 98.8976 45.9335 96.3576 42.3035 93.4376C29.4035 83.0576 20.8935 69.8276 17.0435 54.1076C15.1035 46.1776 14.4135 37.7876 14.9435 28.4376C14.9835 27.7676 15.0335 27.1276 15.1035 26.4576V26.3176C15.2335 24.7576 16.2935 23.8176 17.8835 23.8176L18.1335 23.8276C19.5435 23.9176 20.7935 23.9576 21.9535 23.9576C34.5435 23.9576 44.8235 19.7676 53.3735 11.1276C53.8935 10.5876 54.6335 9.96758 55.5335 9.96758C55.9735 9.96758 56.6635 10.0876 57.5735 11.0476C63.4235 17.1876 70.8435 21.2276 79.6435 23.0676C82.6235 23.6876 85.6335 23.9776 88.8435 23.9776C90.2435 23.9776 91.6435 23.9276 93.0335 23.8176C93.7635 23.7576 94.4735 23.9676 94.9835 24.4076C95.5035 24.8476 95.8135 25.5076 95.8635 26.3176C96.2535 31.8376 96.2735 36.7276 95.9235 41.2776Z" fill="#272729"/>
<path d="M79.3934 48.9777C79.1134 48.5977 78.8834 48.2077 78.6934 47.8377L77.9834 46.1677C77.8234 45.6977 77.7134 45.2277 77.6434 44.7177C77.4634 43.5477 77.5234 42.3377 77.8134 41.1077C77.8734 40.8477 77.8834 40.6177 77.8934 40.4377V40.2177C78.1034 39.2277 77.9234 38.3177 77.3834 37.5477C76.9834 36.9777 76.3834 36.5077 75.6134 36.1677C72.5434 34.8577 70.5734 32.7877 69.5634 29.8077C69.0134 28.1777 67.7334 27.2377 66.0534 27.2377C65.7934 27.2377 65.5134 27.2577 65.2434 27.2977C64.5234 27.4077 63.8234 27.4777 63.1534 27.4777C60.8334 27.4777 58.8134 26.7877 56.9634 25.3777L56.7834 25.2577C56.0334 24.6577 55.2334 24.3477 54.4134 24.3477C53.9634 24.3477 53.5134 24.4377 53.0734 24.6277C52.5834 24.8177 52.1234 25.1277 51.6634 25.5577C50.2334 26.8677 48.6334 27.7077 46.9134 28.0677C46.5034 28.1677 46.0634 28.2177 45.6234 28.2677C45.3834 28.2877 45.1334 28.2977 44.8334 28.2977C44.5034 28.2977 44.2034 28.2877 43.8934 28.2677C43.7334 28.2477 43.5534 28.2377 43.4034 28.2377C41.3234 28.2377 39.8634 29.4077 39.2834 31.5277C39.0234 32.4677 38.6734 33.3177 38.2634 34.0677C37.3534 35.6777 36.0534 36.9077 34.2934 37.8177C34.1934 37.8777 34.0734 37.9377 33.9434 38.0477C32.1934 39.0477 31.5434 40.6777 32.1434 42.6177C32.1934 42.7677 32.2334 42.9377 32.2734 43.0977V43.1177L32.3134 43.2177C32.8134 45.1377 32.8634 46.8477 32.4734 48.4377C32.3534 48.9577 32.1634 49.4877 31.9134 50.0277L31.0834 51.6077V51.6477C30.3434 53.3677 30.8034 54.9977 32.4334 56.4677L32.4934 56.5277C32.6334 56.6577 32.7734 56.7777 32.9134 56.9077C33.5934 57.5477 34.0534 58.0477 34.4334 58.5077C35.4434 59.7577 35.9034 60.9677 35.9034 62.3077C35.9034 63.0477 35.9934 63.7277 36.1734 64.3277C36.4634 65.3477 37.0234 66.1677 37.8134 66.7777C37.9434 66.8877 38.1134 67.0077 38.3034 67.1177L32.6234 78.0577C32.4334 78.4577 32.4334 78.9277 32.6334 79.3377C32.8534 79.7377 33.2534 80.0077 33.7034 80.0577L40.7534 80.8577L45.5634 86.3677C45.7434 86.5777 45.9734 86.7277 46.2334 86.7977C46.3434 86.8377 46.4634 86.8477 46.5834 86.8477H46.7634C47.2134 86.7977 47.6034 86.5377 47.8134 86.1377L55.5034 72.1877L63.1534 86.1277C63.3634 86.5177 63.7534 86.7977 64.2034 86.8477H64.3534C64.7634 86.8477 65.1334 86.6777 65.4034 86.3677L70.2034 80.8377L77.2534 80.0577C77.7034 79.9977 78.1134 79.7277 78.3134 79.3377C78.5334 78.9177 78.5334 78.4377 78.3134 78.0477L72.2334 66.3277C74.4734 65.7377 75.7534 64.1077 75.8334 61.6877V61.1077C75.7434 58.7077 76.4934 56.7677 78.1134 55.1777C78.3634 54.9277 78.5334 54.6777 78.6834 54.4877C78.7234 54.4277 78.8434 54.2677 78.8934 54.1977C80.4634 52.7377 80.6334 50.8177 79.3934 48.9777ZM46.3634 83.0877L42.4934 78.6477C42.2634 78.3877 41.9534 78.2177 41.6134 78.1877L36.0234 77.5577L40.9834 68.0077C41.1034 68.0177 41.2334 68.0277 41.3834 68.0377C42.6034 68.1477 43.6434 68.5377 44.5634 69.2477C44.9234 69.5277 45.2634 69.8477 45.5934 70.2377C45.7034 70.3477 45.7934 70.4677 45.9034 70.5977L45.9434 70.6577C46.1734 70.9677 46.4334 71.2277 46.6434 71.4277C46.8334 71.6077 46.9534 71.7277 47.0234 71.8277C47.9134 72.9877 49.0134 73.5977 50.2434 73.5977C50.7334 73.5977 51.2234 73.4977 51.7534 73.3077L46.3634 83.0877ZM74.9434 77.5677L69.3534 78.1877C69.0134 78.2277 68.6934 78.3977 68.4734 78.6577L64.6234 83.0877L58.6334 72.1677C59.2434 72.2977 59.8534 72.4776 60.4534 72.7177C61.0634 72.9577 61.6634 73.0777 62.2234 73.0777C63.6934 73.0777 64.9234 72.2877 65.8234 70.7877C66.8034 69.0977 68.0334 67.9177 69.5534 67.1777L74.9434 77.5677ZM76.8234 52.0377C76.5534 52.2777 76.3734 52.5377 76.2234 52.7477L76.1934 52.7877C76.1334 52.8777 76.0534 52.9977 75.9934 53.0377C73.7734 55.2177 72.7034 57.9777 72.8134 61.2577H72.8034C72.8134 61.3777 72.8134 61.4877 72.8034 61.5977C72.7634 62.7777 72.3634 63.2477 71.2134 63.4577C70.8534 63.5277 70.5534 63.6077 70.2634 63.6777C69.7834 63.8077 69.2934 63.9877 68.8034 64.1977C66.4834 65.1777 64.5934 66.8777 63.1934 69.2477C62.7834 69.9477 62.4834 70.0477 62.2234 70.0477C62.0434 70.0477 61.8334 69.9977 61.5734 69.8977C59.9834 69.2577 58.3534 68.9477 56.7334 68.9477H56.4634C55.7334 68.9577 55.0034 69.0477 54.2834 69.1977C53.1634 69.4177 52.0234 69.8077 50.9134 70.3677C50.6434 70.4977 50.4434 70.5577 50.2634 70.5577C50.0834 70.5577 49.8234 70.4877 49.4334 69.9677C49.2234 69.7077 49.0134 69.4977 48.8134 69.2977L48.7534 69.2377C48.5934 69.0877 48.4434 68.9477 48.3734 68.8377C48.2234 68.6277 48.0534 68.4177 47.8834 68.2277C46.2234 66.3077 44.1234 65.2277 41.6334 65.0077L41.5334 64.9877C41.0034 64.9477 40.5834 64.8477 40.2434 64.7177C40.1134 64.6677 39.9834 64.6077 39.8734 64.5277C39.4834 64.2977 39.2234 63.9677 39.0834 63.4877C38.9834 63.1477 38.9434 62.7577 38.9434 62.3277C38.9434 60.2977 38.2434 58.4277 36.7934 56.6177C36.3334 56.0477 35.7834 55.4577 35.0334 54.7477C34.8434 54.5677 34.6534 54.3877 34.4434 54.2077C33.8634 53.6777 33.7834 53.3877 33.7834 53.2077C33.7834 53.0277 33.8734 52.7877 34.0434 52.4977C34.6934 51.4177 35.1534 50.2977 35.4234 49.1577C35.9334 47.1077 35.8834 44.8577 35.2634 42.4777C35.1834 42.1877 35.1234 41.9377 35.0434 41.7377C34.8734 41.1477 34.9234 40.9877 35.4834 40.6877H35.5034C35.5834 40.6177 35.6534 40.5677 35.7234 40.5177C39.0234 38.7977 41.2134 36.0277 42.2234 32.3377C42.4734 31.4277 42.7734 31.2877 43.3934 31.2877H43.6734C44.0534 31.3377 44.4334 31.3477 44.8634 31.3477C45.7834 31.3477 46.6934 31.2377 47.5634 31.0377C49.7934 30.5677 51.8734 29.4777 53.7234 27.7977C53.9034 27.6177 54.0834 27.4977 54.2334 27.4377C54.3034 27.4077 54.3534 27.3977 54.4034 27.3977C54.5734 27.3977 54.7834 27.5277 54.9334 27.6477L55.1334 27.8077C57.4834 29.5977 60.1834 30.4977 63.1634 30.4977C63.9934 30.4977 64.8534 30.4377 65.7134 30.2977C65.8434 30.2777 65.9634 30.2577 66.0634 30.2577C66.4834 30.2577 66.5634 30.4177 66.6834 30.7677C67.9534 34.5577 70.5634 37.3177 74.4134 38.9577C74.6834 39.0777 74.8534 39.2077 74.9134 39.2977C74.9134 39.2977 74.9234 39.3077 74.9234 39.3277C74.9334 39.3277 74.9434 39.3577 74.9334 39.3877C74.9534 39.4477 74.9434 39.5277 74.9134 39.6477V39.6677L74.8834 39.8177V39.8677C74.8734 40.0277 74.8634 40.1577 74.8634 40.2977V40.4477C74.4834 42.0177 74.4134 43.6077 74.6434 45.1677C74.9334 47.0777 75.6934 48.9477 76.8934 50.7077C77.3434 51.3677 77.2734 51.5977 76.8234 52.0377Z" fill="#272729"/>
<path d="M51.7534 73.3076L46.3634 83.0876L42.4934 78.6476C42.2634 78.3876 41.9534 78.2176 41.6134 78.1876L36.0234 77.5576L40.9834 68.0076C41.1034 68.0176 41.2334 68.0276 41.3834 68.0376C42.6034 68.1476 43.6434 68.5376 44.5634 69.2476C44.9234 69.5276 45.2634 69.8476 45.5934 70.2376C45.7034 70.3476 45.7934 70.4676 45.9034 70.5976L45.9434 70.6576C46.1734 70.9676 46.4334 71.2276 46.6434 71.4276C46.8334 71.6076 46.9534 71.7276 47.0234 71.8276C47.9134 72.9876 49.0134 73.5976 50.2434 73.5976C50.7334 73.5976 51.2234 73.4976 51.7534 73.3076Z" fill="#FFD500"/>
<path d="M74.9438 77.5675L69.3538 78.1875C69.0138 78.2275 68.6938 78.3975 68.4738 78.6575L64.6238 83.0875L58.6338 72.1675C59.2438 72.2975 59.8538 72.4775 60.4538 72.7175C61.0638 72.9575 61.6638 73.0775 62.2238 73.0775C63.6938 73.0775 64.9238 72.2875 65.8238 70.7875C66.8038 69.0975 68.0338 67.9175 69.5538 67.1775L74.9438 77.5675Z" fill="#FFD500"/>
<path d="M76.8237 52.0375C76.5637 52.2775 76.3737 52.5375 76.2337 52.7475L76.2037 52.7875C76.1337 52.8775 76.0637 52.9975 76.0037 53.0375C73.7837 55.2075 72.7137 57.9775 72.8237 61.2575H72.8137C72.8237 61.3775 72.8237 61.4875 72.8137 61.5975C72.7737 62.7775 72.3737 63.2475 71.2237 63.4675C70.8637 63.5375 70.5537 63.6075 70.2737 63.6875C69.7937 63.8175 69.3037 63.9975 68.8037 64.1975C66.4837 65.1775 64.6037 66.8875 63.2037 69.2575C62.7837 69.9575 62.4937 70.0575 62.2337 70.0575C62.0637 70.0575 61.8437 70.0075 61.5837 69.9075C59.9837 69.2775 58.3537 68.9575 56.7337 68.9575H56.4737C55.7437 68.9675 55.0037 69.0575 54.2837 69.2075C53.1637 69.4275 52.0337 69.8175 50.9137 70.3775C50.6537 70.5075 50.4437 70.5775 50.2637 70.5775C50.0737 70.5775 49.8237 70.4975 49.4337 69.9875C49.2237 69.7275 49.0137 69.5175 48.8137 69.3075L48.7637 69.2575C48.6037 69.1075 48.4537 68.9675 48.3837 68.8575C48.2337 68.6475 48.0637 68.4375 47.8937 68.2475C46.2437 66.3375 44.1437 65.2575 41.6437 65.0375L41.5437 65.0175C41.0137 64.9775 40.5937 64.8775 40.2537 64.7475C40.1237 64.6975 39.9937 64.6375 39.8837 64.5575C39.5037 64.3275 39.2337 63.9875 39.0937 63.5075C38.9937 63.1675 38.9537 62.7875 38.9537 62.3475C38.9537 60.3175 38.2537 58.4475 36.8137 56.6475C36.3537 56.0675 35.7937 55.4775 35.0537 54.7675C34.8637 54.5975 34.6737 54.4075 34.4637 54.2275C33.8837 53.6875 33.8037 53.4075 33.8037 53.2275C33.8037 53.0575 33.8937 52.8075 34.0537 52.5175C34.7137 51.4475 35.1737 50.3175 35.4437 49.1875C35.9437 47.1375 35.9037 44.8875 35.2837 42.4975C35.2037 42.2175 35.1437 41.9575 35.0637 41.7575C34.8937 41.1675 34.9437 41.0175 35.5037 40.7075H35.5237C35.6037 40.6375 35.6737 40.5875 35.7437 40.5475C39.0437 38.8175 41.2337 36.0575 42.2437 32.3675C42.4937 31.4575 42.7937 31.3175 43.4137 31.3175H43.6937C44.0637 31.3575 44.4537 31.3675 44.8737 31.3675C45.7937 31.3675 46.7137 31.2575 47.5737 31.0575C49.8037 30.5875 51.8837 29.4975 53.7337 27.8175C53.9237 27.6475 54.0937 27.5175 54.2437 27.4575C54.3137 27.4375 54.3637 27.4275 54.4037 27.4275C54.5737 27.4275 54.7837 27.5575 54.9437 27.6775L55.1437 27.8275C57.4937 29.6175 60.1937 30.5275 63.1737 30.5275C64.0037 30.5275 64.8537 30.4575 65.7237 30.3175C65.8537 30.2975 65.9737 30.2875 66.0737 30.2875C66.4937 30.2875 66.5737 30.4375 66.6937 30.7875C67.9637 34.5775 70.5637 37.3375 74.4137 38.9775C74.6837 39.0975 74.8537 39.2275 74.9137 39.3175C74.9237 39.3375 74.9837 39.4175 74.9137 39.6675V39.6875L74.8837 39.8375V39.8775C74.8737 40.0375 74.8637 40.1775 74.8637 40.3175V40.4575C74.4937 42.0275 74.4137 43.6275 74.6437 45.1775C74.9437 47.0875 75.6937 48.9575 76.8937 50.7275C77.3437 51.3875 77.2737 51.6075 76.8137 52.0475L76.8237 52.0375Z" fill="#FFD500"/>
<path d="M65.7239 45.4077L52.2239 58.0377L45.2539 51.5177L49.0539 47.9777L52.2039 50.9177L61.9039 41.8577L65.7239 45.4077Z" fill="#F5370D"/>
<path d="M61.9039 40.4976L52.2039 49.5476L49.0539 46.6176L43.7939 51.5176L52.2239 59.4076L67.1839 45.4076L61.9039 40.4976ZM49.0539 47.9776L52.2039 50.9176L61.9039 41.8576L65.7239 45.4076L52.2239 58.0376L45.2539 51.5176L49.0539 47.9776Z" fill="#272729"/>
</svg>
