<svg width="111" height="111" viewBox="0 0 111 111" fill="none" xmlns="http://www.w3.org/2000/svg">
<path d="M69.9146 10.029C66.7446 6.09904 62.2546 3.63904 57.2646 3.10904C52.0846 2.54904 47.0946 4.15904 43.2346 7.63904C38.9846 11.459 36.6346 17.019 36.6446 23.299V23.359C36.9646 29.769 40.7846 35.309 47.0946 38.569C47.5046 38.789 47.6846 38.979 47.8446 39.399C48.8246 41.929 49.8546 44.489 50.8446 46.969C51.3646 48.259 51.8846 49.559 52.3946 50.849C52.6546 51.479 53.3246 53.169 55.3146 53.169H55.3546C57.3346 53.149 57.9846 51.509 58.2646 50.819C58.7246 49.659 59.1846 48.509 59.6446 47.349C60.7046 44.709 61.7946 41.979 62.8446 39.269C62.9746 38.959 63.1146 38.809 63.4946 38.619C69.6846 35.479 73.2046 30.419 73.9446 23.569C74.4646 18.709 73.0346 13.899 69.9146 10.029ZM71.3246 23.279C70.6846 29.189 67.6446 33.549 62.3046 36.259C61.3446 36.749 60.7546 37.379 60.3946 38.319C59.3446 41.019 58.2546 43.739 57.2046 46.369C56.7446 47.529 56.2746 48.679 55.8146 49.839C55.5446 50.529 55.4746 50.529 55.3346 50.529C55.1946 50.529 55.1146 50.529 54.8546 49.869C54.3446 48.589 53.8246 47.299 53.3046 45.989C52.3146 43.519 51.2846 40.969 50.3146 38.439C49.9146 37.419 49.2946 36.739 48.3146 36.229C42.7846 33.379 39.5746 28.769 39.2846 23.259C39.2846 17.759 41.3146 12.909 45.0046 9.59904C48.3046 6.62904 52.5646 5.25904 56.9946 5.72904C61.2746 6.17904 65.1446 8.29904 67.8746 11.679C70.5446 14.999 71.7746 19.119 71.3246 23.279Z" fill="#272729"/>
<path d="M71.3252 23.2792C70.6852 29.1892 67.6452 33.5492 62.3052 36.2592C61.3452 36.7492 60.7552 37.3792 60.3952 38.3192C59.3452 41.0192 58.2552 43.7392 57.2052 46.3692C56.7452 47.5292 56.2752 48.6792 55.8152 49.8392C55.5452 50.5292 55.4752 50.5292 55.3352 50.5292C55.1952 50.5292 55.1152 50.5292 54.8552 49.8692C54.3452 48.5892 53.8252 47.2992 53.3052 45.9892C52.3152 43.5192 51.2852 40.9692 50.3152 38.4392C49.9152 37.4192 49.2952 36.7392 48.3152 36.2292C42.7852 33.3792 39.5752 28.7692 39.2852 23.2592C39.2852 17.7592 41.3152 12.9092 45.0052 9.59922C48.3052 6.62922 52.5652 5.25922 56.9952 5.72922C61.2752 6.17922 65.1452 8.29922 67.8752 11.6792C70.5452 14.9992 71.7752 19.1192 71.3252 23.2792Z" fill="#FFD500"/>
<path d="M55.3352 51.0292C54.8152 51.0292 54.6252 50.6592 54.3852 50.0492L52.4952 45.3092C51.6152 43.1092 50.7052 40.8492 49.8452 38.6092C49.4952 37.7092 48.9652 37.1192 48.0852 36.6592C42.3852 33.7192 39.0852 28.9692 38.7852 23.2692C38.7852 17.5992 40.8752 12.6192 44.6652 9.20915C48.0652 6.14915 52.4652 4.72915 57.0452 5.20915C61.4552 5.66915 65.4452 7.84915 68.2652 11.3392C71.0252 14.7692 72.2852 19.0192 71.8252 23.3092C71.1652 29.3892 68.0352 33.8892 62.5352 36.6792C61.6752 37.1192 61.1752 37.6492 60.8652 38.4692C59.9352 40.8692 58.9752 43.2692 58.0352 45.6192L57.6752 46.5292C57.4452 47.1192 57.2052 47.6992 56.9652 48.2892L56.2852 49.9992C56.0452 50.6192 55.8652 51.0092 55.3452 51.0092L55.3352 51.0292ZM55.2952 6.13915C51.6052 6.13915 48.1152 7.46915 45.3452 9.96915C41.7652 13.1792 39.7952 17.8992 39.7952 23.2592C40.0752 28.5592 43.1852 33.0192 48.5552 35.7892C49.6452 36.3592 50.3552 37.1392 50.7952 38.2592C51.6552 40.4992 52.5552 42.7492 53.4352 44.9492L55.3352 49.6892V49.7092C55.3352 49.7092 55.3552 49.6792 55.3652 49.6592L56.0552 47.9392C56.2952 47.3591 56.5252 46.7692 56.7552 46.1792L57.1152 45.2692C58.0552 42.9192 59.0152 40.5192 59.9452 38.1292C60.3452 37.0792 61.0152 36.3592 62.0952 35.8092C67.2852 33.1792 70.2252 28.9392 70.8452 23.2192C71.2752 19.1992 70.0952 15.2092 67.5052 11.9892C64.8552 8.70915 61.1152 6.65915 56.9652 6.21915C56.4152 6.15915 55.8652 6.12915 55.3152 6.12915L55.2952 6.13915Z" fill="#FFD500"/>
<path d="M55.3347 79.959C60.7647 79.959 65.1947 75.539 65.2147 70.099C65.2147 67.449 64.2047 64.959 62.3347 63.089C60.4747 61.219 57.9847 60.189 55.3447 60.189C52.7047 60.189 50.2147 61.229 48.3547 63.089C46.4947 64.949 45.4647 67.459 45.4747 70.099C45.4947 75.539 49.9247 79.959 55.3447 79.959H55.3347ZM48.2447 70.009C48.2547 66.129 51.4347 62.979 55.3347 62.979C59.2347 62.979 62.4247 66.139 62.4347 70.019C62.4347 71.939 61.7047 73.739 60.3747 75.079C59.0447 76.419 57.2547 77.159 55.3447 77.169C53.4347 77.169 51.6447 76.429 50.3147 75.079C48.9847 73.739 48.2447 71.939 48.2547 70.019H48.2447V70.009Z" fill="#272729"/>
<path d="M85.9752 75.9789C91.0752 75.9789 95.2352 71.8289 95.2452 66.7189C95.2452 64.2289 94.2952 61.8889 92.5452 60.1389C90.7952 58.3789 88.4652 57.4089 85.9752 57.4089C83.4852 57.4089 81.1552 58.3789 79.4052 60.1389C77.6552 61.8989 76.6952 64.2389 76.7052 66.7189C76.7252 71.8289 80.8852 75.9789 85.9752 75.9789ZM79.3152 66.6389C79.3152 62.9989 82.3052 60.0289 85.9752 60.0289C89.6452 60.0289 92.6351 62.9889 92.6452 66.6389C92.6452 68.4489 91.9552 70.1289 90.7052 71.3989C89.4552 72.6589 87.7752 73.3589 85.9752 73.3589C84.1752 73.3589 82.5052 72.6589 81.2452 71.3989C79.9952 70.1389 79.3052 68.4489 79.3152 66.6389Z" fill="#272729"/>
<path d="M103.425 88.9691C103.425 82.7491 98.9448 77.5091 92.8048 76.5091C92.0248 76.3791 91.2348 76.3691 90.5648 76.3691H81.3848C80.7148 76.3691 79.9148 76.3891 79.1448 76.5091C74.8848 77.1991 71.2948 79.9991 69.5848 83.9091C67.6548 82.1191 65.2548 80.9491 62.6048 80.5291C61.8048 80.3991 60.9848 80.3791 60.2148 80.3691H50.4448C49.6748 80.3691 48.8548 80.3891 48.0548 80.5291C45.0448 81.0191 42.3248 82.4891 40.2948 84.7091C38.7548 80.4291 34.9748 77.2591 30.4248 76.5191C29.6448 76.3891 28.8548 76.3791 28.1848 76.3791H19.0048C18.3348 76.3791 17.5348 76.3991 16.7548 76.5191C10.6148 77.5091 6.15477 82.7491 6.13477 88.9791V98.2791C6.13477 100.339 7.35477 101.579 9.40477 101.579H36.7648V103.699C36.7648 105.899 38.0648 107.209 40.2548 107.209H70.4448C72.6248 107.209 73.9248 105.899 73.9248 103.699V101.579H100.155C102.205 101.579 103.425 100.339 103.425 98.2791V88.9691ZM96.0348 98.9291H95.5348V93.6991C95.5348 92.7991 95.0148 92.1991 94.2448 92.1891C93.4548 92.1891 92.9448 92.7791 92.9348 93.6891V98.9091H79.0248V93.6891C79.0248 92.7791 78.5148 92.1891 77.7248 92.1891C76.9348 92.1891 76.4248 92.7891 76.4248 93.6991V98.9191H73.9248V93.7691C73.9248 91.0191 73.0948 88.3891 71.5548 86.1491C72.6348 82.4191 75.6748 79.7291 79.5648 79.0891C80.4048 78.9491 81.2748 78.9391 82.1848 78.9291C82.4248 78.9291 82.6748 78.9291 82.9248 78.9191L82.8448 79.8191C82.7748 80.5491 82.7148 81.2491 82.6448 81.9591C82.5948 82.5291 82.5348 83.0991 82.4848 83.6691C82.3548 85.0591 82.2148 86.4891 82.1048 87.9091C82.0748 88.3691 82.1948 88.9191 82.4348 89.3691C82.9848 90.4091 83.5848 91.4591 84.1548 92.4691C84.3348 92.7891 84.5248 93.1191 84.7048 93.4391C85.1448 94.2191 85.6848 94.3391 85.9748 94.3391C86.2648 94.3391 86.8048 94.2191 87.2548 93.4391C87.4348 93.1191 87.6248 92.7891 87.8048 92.4691C88.3748 91.4591 88.9748 90.4191 89.5248 89.3691C89.7648 88.9191 89.8948 88.3691 89.8548 87.9091C89.7448 86.4791 89.6048 85.0291 89.4748 83.6191C89.4248 83.0691 89.3648 82.5191 89.3148 81.9591C89.2448 81.2591 89.1848 80.5491 89.1248 79.8191L89.0448 78.9191C89.2948 78.9191 89.5448 78.9291 89.7848 78.9291C90.6948 78.9391 91.5648 78.9491 92.4048 79.0891C97.3548 79.8991 100.825 84.0091 100.845 89.0791V98.4191C100.845 98.9091 100.575 98.9091 100.475 98.9091H98.8548C97.9248 98.9091 96.9948 98.9091 96.0548 98.8991L96.0348 98.9291ZM65.5148 98.8391C65.5148 97.8891 64.9648 97.2391 64.1348 97.2291C63.2948 97.2291 62.7448 97.8491 62.7448 98.8191V104.379H47.9248V98.8191C47.9248 97.8491 47.3748 97.2291 46.5448 97.2291C45.7148 97.2291 45.1648 97.8591 45.1548 98.8291V104.389H44.4348C43.5148 104.389 42.5848 104.399 41.6648 104.399H39.9148C39.8048 104.399 39.5248 104.399 39.5148 103.869V93.9091C39.5148 91.9491 40.0248 90.0491 40.9648 88.4191C42.5448 85.6791 45.2948 83.8091 48.4948 83.2791C49.3848 83.1291 50.3048 83.1191 51.2848 83.1091C51.5448 83.1091 51.8048 83.1091 52.0748 83.0991C51.9748 84.2191 51.8748 85.2791 51.7748 86.3291C51.7148 86.9091 51.6648 87.4891 51.6048 88.0691C51.4648 89.5691 51.3048 91.1291 51.1948 92.6591C51.1548 93.1491 51.2848 93.7291 51.5448 94.2091C52.1548 95.3591 52.8148 96.5191 53.4448 97.6291C53.6148 97.9291 53.7948 98.2391 53.9648 98.5391C54.4348 99.3791 55.0148 99.4991 55.3148 99.4991C55.6148 99.4991 56.1948 99.3691 56.6648 98.5391C56.8348 98.2391 57.0048 97.9391 57.1748 97.6291C57.8148 96.5091 58.4648 95.3591 59.0748 94.2091C59.3348 93.7291 59.4648 93.1491 59.4248 92.6591C59.3048 91.1291 59.1548 89.5691 59.0148 88.0691C58.9548 87.4891 58.9048 86.9091 58.8448 86.3291C58.7948 85.8091 58.7548 85.2791 58.7048 84.7491C58.6548 84.2091 58.6048 83.6591 58.5548 83.0891H59.3448C60.3148 83.0891 61.2348 83.1191 62.1348 83.2591C64.7948 83.6891 67.1548 85.0591 68.7748 87.0991C69.3048 87.7591 69.7548 88.4991 70.1148 89.2791C70.7748 90.7091 71.1048 92.2591 71.1148 93.8991V103.849C71.1148 104.369 70.8248 104.369 70.7148 104.369H65.4748V98.8191L65.5148 98.8391ZM87.2248 88.0791C86.8748 88.8091 86.4748 89.5091 86.0348 90.2591C86.0148 90.2991 85.9848 90.3391 85.9648 90.3791C85.9348 90.3291 85.9048 90.2791 85.8848 90.2391C85.4548 89.4991 85.0548 88.8091 84.7148 88.0891C84.6548 87.9691 84.7048 87.6891 84.7348 87.4591C84.7548 87.3391 84.7648 87.2291 84.7748 87.1091C85.0148 84.5491 85.2648 81.9891 85.5048 79.4291L85.5448 79.0091H86.3748L86.4148 79.4391C86.6648 81.9991 86.9048 84.5491 87.1448 87.1091C87.1548 87.2291 87.1748 87.3491 87.1848 87.4591C87.2148 87.6891 87.2648 87.9691 87.2048 88.0891H87.2248V88.0791ZM56.6648 92.8091C56.2948 93.5791 55.8648 94.3191 55.4148 95.1091C55.3848 95.1591 55.3548 95.2091 55.3248 95.2591C55.2948 95.2091 55.2648 95.1591 55.2348 95.1091C54.7748 94.3191 54.3448 93.5791 53.9848 92.8091C53.9248 92.6891 53.9848 92.3891 54.0148 92.1391C54.0348 92.0191 54.0548 91.8891 54.0648 91.7691C54.2848 89.4191 54.5148 87.0291 54.7348 84.7191L54.8848 83.1391H55.7748L55.9648 85.1491C56.1748 87.3491 56.3848 89.5591 56.5948 91.7591C56.5948 91.8891 56.6248 92.0091 56.6448 92.1391C56.6848 92.3791 56.7248 92.6791 56.6648 92.7991V92.8091ZM31.8448 92.1991C31.4448 92.1991 31.0948 92.3591 30.8648 92.6491C30.6548 92.9091 30.5448 93.2691 30.5448 93.6991V98.9191H16.6448V93.6991C16.6448 92.7891 16.1348 92.1991 15.3448 92.1991C14.5548 92.1991 14.0448 92.8091 14.0448 93.7091V98.9291H13.5448C12.6148 98.9291 11.6848 98.9391 10.7548 98.9391H9.13477C9.03477 98.9391 8.77477 98.9391 8.76477 98.4491V89.1091C8.78477 84.0391 12.2448 79.9391 17.2048 79.1191C18.0448 78.9791 18.9148 78.9691 19.8248 78.9591H20.5648L20.4848 79.8591C20.4148 80.5791 20.3548 81.2891 20.2848 81.9891C20.2348 82.5391 20.1748 83.0891 20.1248 83.6491C19.9948 85.0591 19.8448 86.4991 19.7448 87.9391C19.7148 88.3991 19.8348 88.9391 20.0748 89.3991C20.6248 90.4491 21.2248 91.4891 21.7948 92.4991C21.9748 92.8191 22.1648 93.1491 22.3448 93.4691C22.7948 94.2491 23.3348 94.3691 23.6148 94.3691H23.6248C23.9048 94.3691 24.4548 94.2491 24.8948 93.4591C25.0548 93.1791 25.2048 92.9091 25.3648 92.6291C25.9648 91.5791 26.5848 90.4891 27.1648 89.3891C27.4048 88.9391 27.5248 88.3891 27.4948 87.9291C27.3848 86.5091 27.2448 85.0791 27.1148 83.6891C27.0548 83.1191 27.0048 82.5491 26.9548 81.9791C26.8948 81.3491 26.8348 80.7091 26.7848 80.0591C26.7548 79.6891 26.7148 79.3191 26.6848 78.9391C26.9348 78.9391 27.1848 78.9491 27.4248 78.9491C28.3348 78.9491 29.2048 78.9691 30.0448 79.1091C34.4548 79.8291 37.6948 83.1191 38.3548 87.4991C37.3348 89.4191 36.7948 91.5891 36.7948 93.7891V98.9391H36.1948C35.2548 98.9391 34.3148 98.9391 33.3748 98.9291H33.1948V93.7091C33.1948 92.7991 32.6848 92.2091 31.8948 92.1991H31.8448ZM24.8348 88.0991C24.4948 88.8191 24.0948 89.5091 23.6648 90.2391C23.6348 90.2891 23.6048 90.3391 23.5748 90.3991C23.5548 90.3591 23.5248 90.3191 23.5048 90.2791C23.0748 89.5391 22.6648 88.8291 22.3248 88.0991C22.2648 87.9791 22.3148 87.6991 22.3448 87.4691C22.3648 87.3591 22.3748 87.2391 22.3848 87.1191C22.6248 84.4991 22.8848 81.8391 23.1248 79.2691L23.1448 79.0191H23.9848L24.2448 81.7191C24.4148 83.5191 24.5848 85.3191 24.7548 87.1191C24.7548 87.2391 24.7848 87.3591 24.8048 87.4791C24.8348 87.7091 24.8848 87.9891 24.8248 88.0991H24.8348Z" fill="#272729"/>
<path d="M23.5943 75.9789C28.6943 75.9789 32.8443 71.8289 32.8643 66.7189C32.8643 64.2289 31.9143 61.8889 30.1643 60.1289C28.4143 58.3689 26.0843 57.3989 23.5943 57.3989C21.1043 57.3989 18.7743 58.3689 17.0243 60.1289C15.2743 61.8889 14.3143 64.2289 14.3243 66.7089C14.3443 71.8189 18.5043 75.9689 23.5943 75.9689V75.9789ZM16.9343 66.6689C16.9443 63.0289 19.9343 60.0589 23.5943 60.0589C27.2543 60.0589 30.2543 63.0189 30.2643 66.6689C30.2643 68.4789 29.5843 70.1589 28.3343 71.4289C27.0843 72.6889 25.4043 73.3889 23.6043 73.3889C21.8043 73.3889 20.1243 72.6889 18.8743 71.4289C17.6243 70.1689 16.9343 68.4789 16.9343 66.6689Z" fill="#272729"/>
<path d="M49.7144 25.9391L46.7344 23.1391L49.8544 20.2291L52.6144 22.8191L61.1444 14.8291L64.2644 17.7691L55.5344 25.9391L52.6344 28.6491L49.7144 25.9391Z" fill="#F5370D"/>
<path d="M61.1449 15.5189L63.5349 17.7689L55.1949 25.5789L52.6349 27.9689L50.0549 25.5689L47.4649 23.1389L49.8549 20.9189L52.4549 23.3589C52.4549 23.3589 52.5549 23.4189 52.6149 23.4189C52.6749 23.4189 52.7249 23.3989 52.7649 23.3589L61.1449 15.5189ZM61.1449 14.1489L60.4549 14.7889L52.6049 22.1389L50.5349 20.1989L49.8549 19.5589L49.1749 20.1989L46.7849 22.4189L46.0049 23.1489L46.7849 23.8789L49.3749 26.3089L51.9549 28.7089L52.6349 29.3389L53.3149 28.6989L55.8749 26.3089L64.2149 18.4989L64.9949 17.7689L64.2149 17.0389L61.8249 14.7889L61.1449 14.1489Z" fill="#272729"/>
<path d="M33.3246 25.479H8.75465C6.74465 25.479 5.77465 26.469 5.76465 28.509V43.539C5.76465 45.579 6.74465 46.569 8.75465 46.569H11.6446C13.9246 46.569 16.2846 46.569 18.6046 46.599C18.8446 46.599 19.1646 46.719 19.3446 46.869C21.3746 48.549 23.3746 50.289 25.2446 51.919C25.6046 52.239 26.3846 52.919 27.3946 52.919C27.8246 52.919 28.3046 52.789 28.8046 52.469C29.9446 51.719 30.2746 50.549 29.7946 48.989C29.5446 48.199 29.3146 47.409 29.0746 46.569H29.4546C30.7846 46.579 32.0847 46.579 33.3846 46.569C35.2846 46.569 36.2846 45.559 36.2846 43.659C36.2946 38.579 36.2946 33.509 36.2846 28.429C36.2846 26.479 35.2846 25.479 33.3246 25.479ZM34.1846 43.659C34.1846 44.379 34.1046 44.459 33.3746 44.459H26.2646L26.6646 45.809C26.7846 46.219 26.8946 46.619 27.0046 46.999C27.2646 47.899 27.5146 48.759 27.7746 49.619C28.0446 50.449 27.8646 50.559 27.6546 50.699C27.4446 50.839 27.3146 50.929 26.6346 50.339C24.7547 48.689 22.7346 46.939 20.6946 45.249C20.1346 44.789 19.3546 44.499 18.6346 44.489C16.9646 44.459 15.2646 44.459 13.5946 44.459H8.75465C7.93465 44.459 7.87465 44.439 7.87465 43.539V28.509C7.87465 27.609 7.93465 27.589 8.75465 27.589H33.3246C34.1246 27.589 34.1846 27.649 34.1846 28.429V43.659Z" fill="#272729"/>
<path d="M34.185 28.4291V43.6591C34.185 44.3791 34.105 44.4591 33.375 44.4591H26.265L26.665 45.8091C26.785 46.2191 26.895 46.6191 27.005 46.9991C27.265 47.8991 27.515 48.7591 27.775 49.6191C28.045 50.4491 27.865 50.5591 27.655 50.6991C27.445 50.8391 27.315 50.9291 26.635 50.3391C24.755 48.6891 22.735 46.9391 20.695 45.2491C20.135 44.7891 19.355 44.4991 18.635 44.4891C16.965 44.4591 15.265 44.4591 13.595 44.4591H8.755C7.935 44.4591 7.875 44.4391 7.875 43.5391V28.5091C7.875 27.6091 7.935 27.5891 8.755 27.5891H33.325C34.125 27.5891 34.185 27.6491 34.185 28.4291Z" fill="#FFD500"/>
<path d="M27.395 51.2991C27.055 51.2991 26.735 51.0791 26.315 50.7191C24.845 49.4291 22.625 47.4991 20.385 45.6391C19.915 45.2491 19.245 44.9991 18.635 44.9991C16.965 44.9691 15.265 44.9691 13.605 44.9691H8.755C7.635 44.9691 7.375 44.6991 7.375 43.5491V28.5191C7.375 27.3591 7.635 27.0991 8.755 27.0991H33.325C34.395 27.0991 34.685 27.3891 34.685 28.4391V43.6691C34.685 44.6691 34.375 44.9691 33.375 44.9691H26.935L27.485 46.8691C27.745 47.7691 27.995 48.6291 28.255 49.4891C28.535 50.3391 28.445 50.7891 27.935 51.1291C27.745 51.2591 27.565 51.3191 27.385 51.3191L27.395 51.2991ZM8.385 43.9491C8.485 43.9491 8.645 43.9491 8.755 43.9491H13.595C15.265 43.9491 16.975 43.9491 18.645 43.9791C19.475 43.9891 20.365 44.3191 21.015 44.8491C23.275 46.7191 25.495 48.6591 26.965 49.9491C27.185 50.1491 27.315 50.2291 27.385 50.2691L27.435 50.2391C27.435 50.2391 27.405 50.0791 27.305 49.7691C27.045 48.8991 26.795 48.0391 26.535 47.1291L25.605 43.9491H33.385C33.535 43.9491 33.625 43.9491 33.685 43.9491C33.685 43.8891 33.685 43.7991 33.685 43.6591V28.4291C33.685 28.3691 33.685 28.2091 33.685 28.0991C33.575 28.0991 33.405 28.0991 33.335 28.0991H8.755C8.645 28.0991 8.495 28.0991 8.385 28.0991C8.375 28.2191 8.375 28.4191 8.375 28.5091V43.5391C8.375 43.6291 8.375 43.8291 8.385 43.9491Z" fill="#FFD500"/>
<path d="M10.5645 38.559H15.5945V33.499H10.5645V38.559ZM13.7245 35.369V36.679H12.4345V35.369H13.7245Z" fill="#272729"/>
<path d="M14.924 34.259H11.334V37.849H14.924V34.259Z" fill="#F5370D"/>
<path d="M18.5146 38.559H23.5446V33.499H18.5146V38.559ZM21.6746 35.369V36.679H20.3846V35.369H21.6746Z" fill="#272729"/>
<path d="M22.8742 34.259H19.2842V37.849H22.8742V34.259Z" fill="#F5370D"/>
<path d="M26.4541 38.559H31.4841V33.499H26.4541V38.559ZM29.6141 35.369V36.679H28.3241V35.369H29.6141Z" fill="#272729"/>
<path d="M30.8244 34.259H27.2344V37.849H30.8244V34.259Z" fill="#F5370D"/>
<path d="M74.8747 28.429C74.8647 33.509 74.8647 38.579 74.8747 43.659C74.8747 45.559 75.8747 46.569 77.7747 46.569C79.0747 46.579 80.3747 46.579 81.7047 46.569H82.0847C81.8447 47.409 81.6147 48.199 81.3647 48.989C80.8847 50.549 81.2147 51.719 82.3547 52.469C82.8547 52.789 83.3347 52.919 83.7647 52.919C84.7747 52.919 85.5547 52.239 85.9147 51.919C87.7847 50.289 89.7847 48.549 91.8147 46.869C91.9947 46.719 92.3147 46.599 92.5547 46.599C94.8747 46.569 97.2347 46.569 99.5147 46.569H102.405C104.415 46.569 105.395 45.579 105.395 43.539V28.509C105.385 26.469 104.415 25.479 102.405 25.479H77.8347C75.8747 25.479 74.8747 26.479 74.8747 28.429ZM76.9747 28.429C76.9747 27.649 77.0347 27.589 77.8347 27.589H102.405C103.225 27.589 103.285 27.609 103.285 28.509V43.539C103.285 44.439 103.225 44.459 102.405 44.459H97.5647C95.8947 44.459 94.1947 44.459 92.5247 44.489C91.8047 44.489 91.0247 44.789 90.4647 45.249C88.4247 46.939 86.4047 48.689 84.5247 50.339C83.8447 50.929 83.7147 50.839 83.5047 50.699C83.2947 50.559 83.1147 50.449 83.3847 49.619C83.6447 48.759 83.8947 47.899 84.1547 46.999C84.2647 46.619 84.3747 46.219 84.4947 45.809L84.8947 44.459H77.7847C77.0547 44.459 76.9747 44.379 76.9747 43.659V28.429Z" fill="#272729"/>
<path d="M77.8346 27.5891H102.405C103.225 27.5891 103.285 27.6091 103.285 28.5091V43.5391C103.285 44.4391 103.225 44.4591 102.405 44.4591H97.5646C95.8946 44.4591 94.1946 44.4591 92.5246 44.4891C91.8046 44.4891 91.0246 44.7891 90.4646 45.2491C88.4246 46.9391 86.4046 48.6891 84.5246 50.3391C83.8446 50.9291 83.7146 50.8391 83.5046 50.6991C83.2946 50.5591 83.1146 50.4491 83.3846 49.6191C83.6446 48.7591 83.8946 47.8991 84.1546 46.9991C84.2646 46.6191 84.3746 46.2191 84.4946 45.8091L84.8946 44.4591H77.7846C77.0546 44.4591 76.9746 44.3791 76.9746 43.6591V28.4291C76.9746 27.6491 77.0346 27.5891 77.8346 27.5891Z" fill="#FFD500"/>
<path d="M83.7744 51.2991C83.6044 51.2991 83.4244 51.2391 83.2344 51.1191C82.7144 50.7791 82.6344 50.3291 82.9144 49.4691C83.1744 48.6191 83.4244 47.7591 83.6844 46.8691L84.2344 44.9691H77.7944C76.7944 44.9691 76.4844 44.6691 76.4844 43.6691V28.4391C76.4844 27.3891 76.7744 27.0991 77.8444 27.0991H102.414C103.534 27.0991 103.794 27.3691 103.794 28.5191V43.5491C103.794 44.6991 103.534 44.9691 102.414 44.9691H97.5644C95.9044 44.9691 94.2044 44.9691 92.5444 44.9991C91.9344 44.9991 91.2644 45.2591 90.7944 45.6491C88.6044 47.4591 86.4744 49.3191 84.8644 50.7291C84.4444 51.0991 84.1144 51.3191 83.7744 51.3191V51.2991ZM77.4944 43.9491C77.5544 43.9491 77.6444 43.9491 77.7944 43.9491H85.5744L84.6444 47.1291C84.3844 48.0291 84.1344 48.8891 83.8744 49.7591C83.7544 50.1391 83.7544 50.2691 83.7644 50.2891C83.8144 50.2591 83.9444 50.1891 84.2144 49.9591C85.8244 48.5391 87.9644 46.6791 90.1644 44.8591C90.8144 44.3191 91.7044 43.9991 92.5344 43.9791C94.2044 43.9491 95.9044 43.9491 97.5844 43.9491H102.424C102.534 43.9491 102.684 43.9491 102.794 43.9491C102.804 43.8291 102.804 43.6291 102.804 43.5391V28.5091C102.804 28.4191 102.804 28.2191 102.794 28.0991C102.694 28.0991 102.534 28.0991 102.424 28.0991H77.8544C77.7844 28.0991 77.6144 28.0991 77.5044 28.0991C77.5044 28.2091 77.5044 28.3691 77.5044 28.4291V43.6591C77.5044 43.7991 77.5044 43.8891 77.5044 43.9491H77.4944Z" fill="#FFD500"/>
<path d="M100.594 33.499H95.5645V38.559H100.594V33.499ZM98.7244 35.369V36.679H97.4344V35.369H98.7244Z" fill="#272729"/>
<path d="M96.2344 37.849H99.8244V34.259H96.2344V37.849Z" fill="#F5370D"/>
<path d="M92.655 33.499H87.625V38.559H92.655V33.499ZM90.785 35.369V36.679H89.495V35.369H90.785Z" fill="#272729"/>
<path d="M88.2949 37.849H91.8849V34.259H88.2949V37.849Z" fill="#F5370D"/>
<path d="M84.7048 33.499H79.6748V38.559H84.7048V33.499ZM82.8348 35.369V36.679H81.5448V35.369H82.8348Z" fill="#272729"/>
<path d="M80.3447 37.849H83.9347V34.259H80.3447V37.849Z" fill="#F5370D"/>
</svg>
