<svg width="110" height="111" viewBox="0 0 110 111" fill="none" xmlns="http://www.w3.org/2000/svg">
<path d="M59.2102 32.8571C59.2402 34.6371 59.2402 36.4371 59.2102 38.2171C59.2102 39.1771 58.7802 39.6971 57.8502 39.8871C57.3802 39.9771 56.8902 40.0271 56.3702 40.0871C56.0102 40.1271 55.6502 40.1671 55.2802 40.2171C54.2302 40.3771 53.2802 41.2071 52.8102 42.3871C52.3302 43.5971 52.4502 44.8771 53.1202 45.7371C53.3402 46.0171 53.5602 46.2871 53.7802 46.5571C54.0302 46.8671 54.2702 47.1471 54.5002 47.4471C55.1702 48.3171 55.1302 49.1171 54.3802 49.8971C53.0402 51.2571 51.8302 52.4771 50.6502 53.6171C49.7402 54.5071 48.8502 54.1771 48.2702 53.7471C48.1902 53.6771 48.1002 53.6171 48.0102 53.5571C47.7802 53.3871 47.5602 53.2271 47.4202 53.0671C46.1402 51.5371 44.5502 51.2771 42.6902 52.2971C42.0202 52.6571 41.0202 53.2071 40.9802 54.6571C40.9502 55.4471 40.8502 56.2671 40.6702 57.0871C40.4902 57.9671 39.9702 58.3871 39.0502 58.4171C38.4202 58.4371 37.7702 58.4371 37.1302 58.4271H35.4302C34.8402 58.4271 34.2802 58.4271 33.7102 58.4171C32.6402 58.3871 32.1302 57.9571 31.9302 56.9171C31.8702 56.5771 31.8402 56.2171 31.8002 55.8371C31.7602 55.3171 31.7102 54.7871 31.5802 54.2371C31.4002 53.4971 30.8302 52.8771 30.3602 52.5371C29.7002 52.0771 28.9602 51.8571 28.4502 51.7571C27.9402 51.6571 27.1202 51.6771 26.5202 52.0671C26.0102 52.3971 25.5602 52.7771 25.1202 53.1471C24.8602 53.3571 24.6302 53.5571 24.3802 53.7471C23.5602 54.3771 22.7402 54.3271 22.0102 53.6171C20.7802 52.4171 19.5302 51.1671 18.2902 49.8971C17.5302 49.1071 17.4902 48.3071 18.1602 47.4471L18.2502 47.3271C18.7002 46.7571 19.1102 46.2171 19.5702 45.7171C20.4002 44.8071 20.2702 43.8971 20.0802 43.1171C19.4502 40.3971 17.3602 40.0471 15.8402 40.0171C13.9202 39.9771 13.4502 39.4771 13.4502 37.4571V36.1671C13.4502 35.1071 13.4502 34.0271 13.4702 32.9571C13.4902 31.8271 13.9102 31.3271 15.0202 31.1271C15.4202 31.0471 15.8402 31.0071 16.2802 30.9671C16.6402 30.9371 17.0202 30.8971 17.3902 30.8371C18.4602 30.6871 19.4102 29.8471 19.8802 28.6571C20.3602 27.4571 20.2302 26.1871 19.5602 25.3271C19.3502 25.0671 19.1402 24.8071 18.9302 24.5471C18.6702 24.2371 18.4202 23.9371 18.1802 23.6271C17.5002 22.7371 17.5402 21.9571 18.3002 21.1771C19.6302 19.8071 20.8502 18.5871 22.0202 17.4571C22.7602 16.7371 23.5602 16.6971 24.3902 17.3271L24.5402 17.4371C25.0102 17.7871 25.4502 18.1271 25.8202 18.4971C26.9902 19.6571 28.1902 19.4571 29.2202 19.1171C30.9902 18.5171 31.8402 17.3371 31.8202 15.4971C31.8202 15.0071 31.8802 14.4671 32.0202 13.8971C32.2102 13.1271 32.7402 12.6871 33.5002 12.6671C35.4702 12.6171 37.3802 12.6171 39.1802 12.6671C39.9802 12.6871 40.5202 13.1471 40.6902 13.9771C40.8602 14.7771 40.9702 15.6371 41.0202 16.5471C41.0702 17.6871 41.6702 18.4471 42.7902 18.7971C42.8902 18.8271 43.0202 18.8871 43.1502 18.9471C43.4402 19.0871 43.7902 19.2571 44.2202 19.2971C44.6702 19.3471 45.5402 19.3671 46.2202 18.9471C46.7402 18.6371 47.1902 18.2471 47.6302 17.8771C47.8602 17.6771 48.0802 17.4971 48.3002 17.3271C49.1002 16.7071 49.9402 16.7471 50.6602 17.4571C52.0002 18.7571 53.2002 19.9471 54.3102 21.1071C54.3102 21.1071 54.3102 21.1171 54.3302 21.1171C54.3702 21.1671 54.4202 21.2071 54.4602 21.2571C55.1202 21.9371 55.1602 22.7571 54.5802 23.5571C54.3602 23.8471 54.1302 24.1271 53.8802 24.4271L53.7802 24.5471C52.0702 26.6371 52.0102 27.4071 53.4002 29.7471C53.7002 30.2571 54.3202 30.6771 54.9302 30.7871C55.4302 30.8771 55.9302 30.9271 56.4102 30.9771C56.8802 31.0271 57.3302 31.0771 57.7602 31.1571C58.7302 31.3471 59.2002 31.8771 59.2202 32.8571H59.2102Z" fill="#FFD500"/>
<path d="M36.3398 21.4771C28.5998 21.4771 22.2998 27.7771 22.2998 35.5171C22.2998 43.257 28.5998 49.5571 36.3398 49.5571C44.0798 49.5571 50.3798 43.257 50.3798 35.5171C50.3798 27.7771 44.0798 21.4771 36.3398 21.4771ZM36.3398 47.5271C29.7198 47.5271 24.3298 42.1371 24.3298 35.5171C24.3298 28.8971 29.7198 23.5071 36.3398 23.5071C42.9598 23.5071 48.3498 28.8971 48.3498 35.5171C48.3498 42.1371 42.9598 47.5271 36.3398 47.5271Z" fill="#272729"/>
<path d="M36.3401 47.5271C42.9701 47.5271 48.3501 42.1471 48.3501 35.5171C48.3501 28.8871 42.9701 23.5071 36.3401 23.5071C29.7101 23.5071 24.3301 28.8871 24.3301 35.5171C24.3301 42.1471 29.7101 47.5271 36.3401 47.5271Z" fill="#FFD500"/>
<path d="M43.5799 35.0672L37.7699 40.5372C37.3099 40.9072 36.7999 41.1072 36.2899 41.1072C36.2399 41.1072 36.1899 41.1072 36.0999 41.0972C35.2799 41.0972 34.5299 40.6572 34.0999 39.9072C34.0799 39.8772 34.0599 39.8372 34.0499 39.8072L29.3699 29.5972C29.2199 29.2572 29.2399 28.8972 29.4399 28.5972C29.6399 28.2972 29.9799 28.1072 30.3499 28.1072C30.6699 28.1072 30.9699 28.2572 31.1699 28.5272L36.9199 36.1972L42.4199 33.4172C42.5599 33.3472 42.7099 33.3172 42.8599 33.3172C43.2699 33.3172 43.6799 33.5672 43.8399 33.9672C43.9899 34.3472 43.8899 34.7872 43.5799 35.0672Z" fill="#F5370D"/>
<path d="M44.7697 33.5972C44.3497 32.5272 42.9997 32.0072 41.9697 32.5272L37.2197 34.9272L31.9697 27.9272C31.5797 27.4072 30.9897 27.1072 30.3397 27.1072C29.6497 27.1072 28.9797 27.4672 28.5997 28.0572C28.2197 28.6472 28.1697 29.3572 28.4597 30.0072L33.1397 40.2172C33.1797 40.3272 33.2397 40.4272 33.2697 40.4572C33.8397 41.4572 34.9197 42.0872 36.0597 42.0972C36.1397 42.0972 36.2097 42.1072 36.2897 42.1072C37.0397 42.1072 37.7697 41.8272 38.3997 41.3072L44.2697 35.7972C44.8697 35.2372 45.0697 34.3672 44.7697 33.5972ZM43.5797 35.0672L37.7697 40.5372C37.3097 40.9072 36.7997 41.1072 36.2897 41.1072C36.2397 41.1072 36.1897 41.1072 36.0997 41.0972C35.2797 41.0972 34.5297 40.6572 34.0997 39.9072C34.0797 39.8772 34.0597 39.8372 34.0497 39.8072L29.3697 29.5972C29.2197 29.2572 29.2397 28.8972 29.4397 28.5972C29.6397 28.2972 29.9797 28.1072 30.3497 28.1072C30.6697 28.1072 30.9697 28.2572 31.1697 28.5272L36.9197 36.1972L42.4197 33.4172C42.5597 33.3472 42.7097 33.3172 42.8597 33.3172C43.2697 33.3172 43.6797 33.5672 43.8397 33.9672C43.9897 34.3472 43.8897 34.7872 43.5797 35.0672Z" fill="#272729"/>
<path d="M48.7296 75.9071C48.7896 77.8971 50.4196 79.4971 52.4196 79.4971C54.4196 79.4971 56.1196 77.8371 56.1196 75.7971C56.1196 74.3471 55.2896 73.1071 54.0796 72.4971L55.4196 64.3071H55.5196C56.7096 64.3071 57.7696 63.7371 58.4496 62.8671L67.9696 67.1071C68.0296 69.0971 69.6596 70.6871 71.6596 70.6871C73.6596 70.6871 75.3596 69.0271 75.3596 66.9871C75.3596 65.9171 74.9096 64.9571 74.1796 64.2871L77.9996 55.3071L82.6496 57.2771L81.1696 45.2371L71.4796 52.5371L76.1296 54.5071L72.3696 63.3571C72.1396 63.3071 71.8996 63.2871 71.6596 63.2871C70.2996 63.2871 69.1196 64.0171 68.4796 65.1071L59.2096 60.9771C59.2096 60.8571 59.2296 60.7271 59.2296 60.5971C59.2296 58.5571 57.5696 56.8971 55.5296 56.8971C53.4896 56.8971 51.8296 58.5571 51.8296 60.5971C51.8296 61.8771 52.4796 63.0071 53.4696 63.6771L52.0896 72.1071C50.8696 72.2171 49.8196 72.9171 49.2296 73.9171L43.7196 71.5571C43.7196 71.4871 43.7296 71.4171 43.7296 71.3471C43.7296 69.3071 42.0696 67.6471 40.0296 67.6471C37.9896 67.6471 36.3296 69.3071 36.3296 71.3471C36.3296 72.3071 36.6996 73.1771 37.2896 73.8271L32.2396 82.1671C31.8696 82.0371 31.4696 81.9671 31.0496 81.9671C29.0096 81.9671 27.3496 83.6271 27.3496 85.6671C27.3496 87.7071 29.0096 89.3671 31.0496 89.3671C33.0896 89.3671 34.7496 87.7071 34.7496 85.6671C34.7496 84.7771 34.4396 83.9571 33.9096 83.3171L39.0096 74.8971C39.3296 74.9871 39.6696 75.0371 40.0196 75.0371C41.2696 75.0371 42.3696 74.4171 43.0396 73.4671L48.7096 75.8971H48.7296V75.9071Z" fill="#272729"/>
<path d="M83.5996 75.3271H63.8596C63.2996 75.3271 62.8496 75.7772 62.8496 76.3372C62.8496 76.8972 63.2996 77.3471 63.8596 77.3471H83.5996C84.1596 77.3471 84.6096 76.8972 84.6096 76.3372C84.6096 75.7772 84.1596 75.3271 83.5996 75.3271Z" fill="#272729"/>
<path d="M83.5996 81.3271H63.8596C63.2996 81.3271 62.8496 81.7772 62.8496 82.3372C62.8496 82.8972 63.2996 83.3471 63.8596 83.3471H83.5996C84.1596 83.3471 84.6096 82.8972 84.6096 82.3372C84.6096 81.7772 84.1596 81.3271 83.5996 81.3271Z" fill="#272729"/>
<path d="M83.6 87.3171H48.72C48.16 87.3171 47.71 87.7671 47.71 88.3271C47.71 88.8871 48.16 89.3371 48.72 89.3371H83.6C84.16 89.3371 84.61 88.8871 84.61 88.3271C84.61 87.7671 84.16 87.3171 83.6 87.3171Z" fill="#272729"/>
<path d="M75.37 92.6172H48.72C48.16 92.6172 47.71 93.0672 47.71 93.6272C47.71 94.1872 48.16 94.6372 48.72 94.6372H75.37C75.93 94.6372 76.38 94.1872 76.38 93.6272C76.38 93.0672 75.93 92.6172 75.37 92.6172Z" fill="#272729"/>
<path d="M81.0098 19.3771H55.4598C54.4098 18.2971 53.2998 17.1871 52.0698 15.9971C50.6298 14.5871 48.6598 14.4771 47.0498 15.7071C46.7898 15.9171 46.5398 16.1171 46.3098 16.3271C45.9098 16.6571 45.5398 16.9771 45.1498 17.2171C45.0798 17.2571 44.8298 17.3171 44.4198 17.2771C44.3398 17.2771 44.1498 17.1771 44.0098 17.1071C43.8198 17.0271 43.6198 16.9271 43.3898 16.8571C43.0598 16.7471 43.0398 16.6871 43.0298 16.4271C42.9798 15.4171 42.8498 14.4471 42.6598 13.5471C42.2998 11.8171 40.9498 10.6671 39.2198 10.6271C37.3898 10.6071 35.4398 10.6071 33.4398 10.6271C31.7498 10.6671 30.4398 11.7371 30.0398 13.4171C29.8598 14.1471 29.7798 14.8571 29.7798 15.5071C29.7898 16.4771 29.5098 16.8671 28.5598 17.1871C27.7498 17.4571 27.5598 17.3671 27.2398 17.0571C26.7698 16.5871 26.2598 16.1971 25.7598 15.8171L25.6098 15.6971C23.9798 14.4671 22.0598 14.5771 20.5998 15.9871C19.4198 17.1371 18.1798 18.3671 16.8298 19.7471C15.3698 21.2571 15.2698 23.1571 16.5598 24.8471C16.8198 25.1871 17.0898 25.5171 17.3498 25.8371C17.5598 26.0771 17.7598 26.3271 17.9598 26.5771C18.1798 26.8571 18.1898 27.3871 17.9898 27.9071C17.7898 28.4071 17.4298 28.7771 17.0898 28.8271C16.7598 28.8771 16.4298 28.9071 16.0798 28.9471C15.6098 28.9871 15.1298 29.0271 14.6498 29.1271C12.5798 29.5071 11.4698 30.8171 11.4298 32.9171C11.3998 34.0071 11.4098 35.1071 11.4098 36.1671C11.4098 36.5971 11.4198 37.0271 11.4198 37.4571C11.4198 40.5671 12.7698 41.9771 15.7998 42.0471C17.2998 42.0771 17.8398 42.4371 18.1098 43.5771C18.2498 44.1571 18.2098 44.1971 18.0698 44.3471C17.5598 44.9071 17.0898 45.5071 16.6498 46.0871L16.5598 46.2071C15.2598 47.8871 15.3598 49.7871 16.8398 51.3071C17.5898 52.0671 18.3398 52.8271 19.0898 53.5771V89.1971C19.0898 94.9271 23.7498 99.5971 29.4898 99.5971H81.0098C86.7498 99.5971 91.4098 94.9271 91.4098 89.1971V29.7671C91.4098 24.0371 86.7498 19.3771 81.0098 19.3771ZM18.2898 49.8971C17.5298 49.1071 17.4898 48.3071 18.1598 47.4471L18.2498 47.3271C18.6998 46.7571 19.1098 46.2171 19.5698 45.7171C20.3998 44.8071 20.2698 43.8971 20.0798 43.1171C19.4498 40.3971 17.3598 40.0471 15.8398 40.0171C13.9198 39.9771 13.4498 39.4771 13.4498 37.4571V36.1671C13.4498 35.1071 13.4498 34.0271 13.4698 32.9571C13.4898 31.8271 13.9098 31.3271 15.0198 31.1271C15.4198 31.0471 15.8398 31.0071 16.2798 30.9671C16.6398 30.9371 17.0198 30.8971 17.3898 30.8371C18.4598 30.6871 19.4098 29.8471 19.8798 28.6571C20.3598 27.4571 20.2298 26.1871 19.5598 25.3271C19.3498 25.0671 19.1398 24.8071 18.9298 24.5471C18.6698 24.2371 18.4198 23.9371 18.1798 23.6271C17.4998 22.7371 17.5398 21.9571 18.2998 21.1771C19.6298 19.8071 20.8498 18.5871 22.0198 17.4571C22.7598 16.7371 23.5598 16.6971 24.3898 17.3271L24.5398 17.4371C25.0098 17.7871 25.4498 18.1271 25.8198 18.4971C26.9898 19.6571 28.1898 19.4571 29.2198 19.1171C30.9898 18.5171 31.8398 17.3371 31.8198 15.4971C31.8198 15.0071 31.8798 14.4671 32.0198 13.8971C32.2098 13.1271 32.7398 12.6871 33.4998 12.6671C35.4698 12.6171 37.3798 12.6171 39.1798 12.6671C39.9798 12.6871 40.5198 13.1471 40.6898 13.9771C40.8598 14.7771 40.9698 15.6371 41.0198 16.5471C41.0698 17.6871 41.6698 18.4471 42.7898 18.7971C42.8898 18.8271 43.0198 18.8871 43.1498 18.9471C43.4398 19.0871 43.7898 19.2571 44.2198 19.2971C44.6698 19.3471 45.5398 19.3671 46.2198 18.9471C46.7398 18.6371 47.1898 18.2471 47.6298 17.8771C47.8598 17.6771 48.0798 17.4971 48.2998 17.3271C49.0998 16.7071 49.9398 16.7471 50.6598 17.4571C51.9998 18.7571 53.1998 19.9471 54.3098 21.1071C54.3098 21.1071 54.3098 21.1071 54.3298 21.1071C54.3698 21.1571 54.4198 21.1971 54.4598 21.2471C55.1198 21.9271 55.1598 22.7471 54.5798 23.5471C54.3598 23.8371 54.1298 24.1171 53.8798 24.4171L53.7798 24.5371C52.0698 26.6271 52.0098 27.3971 53.3998 29.7371C53.6998 30.2471 54.3198 30.6671 54.9298 30.7771C55.4298 30.8671 55.9298 30.9171 56.4098 30.9671C56.8798 31.0171 57.3298 31.0671 57.7598 31.1471C58.7298 31.3371 59.1998 31.8671 59.2198 32.8471C59.2498 34.6271 59.2498 36.4271 59.2198 38.2071C59.2098 39.1671 58.7898 39.6871 57.8598 39.8771C57.3898 39.9671 56.8998 40.0171 56.3798 40.0771C56.0198 40.1171 55.6598 40.1571 55.2898 40.2071C54.2398 40.3671 53.2898 41.1971 52.8198 42.3771C52.3398 43.5871 52.4598 44.8671 53.1298 45.7271C53.3498 46.0071 53.5698 46.2771 53.7898 46.5471C54.0398 46.8571 54.2798 47.1371 54.5098 47.4371C55.1798 48.3071 55.1398 49.1071 54.3898 49.8871C53.0498 51.2471 51.8398 52.4671 50.6598 53.6071C49.7498 54.4971 48.8598 54.1671 48.2798 53.7371C48.1998 53.6671 48.1098 53.6071 48.0198 53.5471C47.7898 53.3771 47.5698 53.2171 47.4298 53.0571C46.1498 51.5271 44.5598 51.2671 42.6998 52.2871C42.0298 52.6471 41.0298 53.1971 40.9898 54.6471C40.9598 55.4371 40.8598 56.2571 40.6798 57.0771C40.4998 57.9571 39.9798 58.3771 39.0598 58.4071C38.4298 58.4271 37.7798 58.4271 37.1398 58.4171H35.4398C34.8498 58.4171 34.2898 58.4171 33.7198 58.4071C32.6498 58.3771 32.1398 57.9471 31.9398 56.9071C31.8798 56.5671 31.8498 56.2071 31.8098 55.8271C31.7698 55.3071 31.7198 54.7771 31.5898 54.2271C31.4098 53.4871 30.8398 52.8671 30.3698 52.5271C29.7098 52.0671 28.9698 51.8471 28.4598 51.7471C27.9498 51.6471 27.1298 51.6671 26.5298 52.0571C26.0198 52.3871 25.5698 52.7671 25.1298 53.1371C24.8698 53.3471 24.6398 53.5471 24.3898 53.7371C23.5698 54.3671 22.7498 54.3171 22.0198 53.6071C20.7898 52.4071 19.5398 51.1571 18.2998 49.8871H18.2898V49.8971ZM89.3798 89.1971C89.3798 93.8071 85.6298 97.5671 81.0098 97.5671H29.4898C24.8698 97.5671 21.1198 93.8071 21.1198 89.1971V55.4871C22.4898 56.4771 24.1998 56.4371 25.6198 55.3371C25.8998 55.1271 26.1598 54.9071 26.4198 54.6971C26.8398 54.3471 27.2298 54.0271 27.6298 53.7571C27.6998 53.7271 27.8998 53.6971 28.0598 53.7271C28.4998 53.8171 28.8998 53.9771 29.1898 54.1771C29.4198 54.3471 29.5898 54.5971 29.6098 54.7071C29.7098 55.1071 29.7498 55.5471 29.7898 56.0071C29.8298 56.4171 29.8698 56.8371 29.9498 57.2671C30.3098 59.2571 31.6398 60.3771 33.6598 60.4371C34.2598 60.4571 34.8698 60.4371 35.4498 60.4371H39.1198C40.9798 60.3671 42.2698 59.2971 42.6498 57.5071C42.8598 56.5571 42.9798 55.6171 43.0098 54.7071C43.0098 54.4571 43.0098 54.4171 43.6598 54.0571C44.7898 53.4471 45.3098 53.6871 45.8698 54.3571C46.1598 54.7171 46.5198 54.9671 46.8298 55.1971C46.9098 55.2471 46.9798 55.2971 47.0598 55.3571C48.6998 56.5871 50.6198 56.4771 52.0698 55.0571C53.2598 53.9071 54.4798 52.6771 55.8298 51.2971C57.2998 49.7871 57.4098 47.8771 56.1098 46.1971C55.8598 45.8771 55.5998 45.5571 55.3498 45.2571C55.1398 44.9971 54.9298 44.7371 54.7198 44.4771C54.4898 44.1971 54.4798 43.6571 54.6898 43.1271C54.8898 42.6371 55.2498 42.2671 55.5798 42.2171C55.9098 42.1671 56.2298 42.1371 56.5798 42.0971C57.1298 42.0371 57.6898 41.9771 58.2498 41.8671C60.1198 41.4871 61.2098 40.1571 61.2398 38.2471C61.2698 36.4371 61.2698 34.6071 61.2398 32.8071C61.2098 30.8771 60.0398 29.5171 58.1298 29.1571C57.6198 29.0571 57.1098 29.0071 56.6198 28.9571C56.1598 28.9071 55.7198 28.8571 55.2998 28.7771C55.2498 28.7671 55.1698 28.7171 55.1298 28.6771C54.7898 28.1071 54.4298 27.4771 54.4598 27.1871C54.4798 26.9071 54.9098 26.3671 55.3498 25.8271L55.4598 25.6971C55.6998 25.3871 55.9598 25.0771 56.2098 24.7471C56.9798 23.6971 57.1898 22.4971 56.8598 21.3971H81.0198C85.6398 21.3971 89.3898 25.1571 89.3898 29.7671V89.1971H89.3798Z" fill="#272729"/>
</svg>
