<svg width="45" height="45" viewBox="0 0 45 45" fill="none" xmlns="http://www.w3.org/2000/svg">
<path d="M26.0601 8.7106C26.1024 8.55277 26.1753 8.4048 26.2747 8.27515C26.3741 8.1455 26.4981 8.03672 26.6396 7.95501C26.781 7.87329 26.9372 7.82026 27.0992 7.79893C27.2612 7.77761 27.4258 7.78841 27.5836 7.83072C29.8891 8.43225 31.9926 9.6375 33.6775 11.3223C35.3623 13.0071 36.5676 15.1106 37.1691 17.4161C37.2114 17.5739 37.2222 17.7385 37.2009 17.9005C37.1796 18.0625 37.1265 18.2187 37.0448 18.3602C36.9631 18.5017 36.8543 18.6256 36.7247 18.7251C36.595 18.8245 36.4471 18.8974 36.2892 18.9396C36.1842 18.9672 36.076 18.9813 35.9674 18.9816C35.6934 18.9816 35.427 18.891 35.2097 18.7241C34.9924 18.5571 34.8363 18.323 34.7657 18.0582C34.2751 16.1761 33.2915 14.4589 31.9162 13.0836C30.5409 11.7083 28.8237 10.7247 26.9416 10.2341C26.7836 10.192 26.6355 10.1192 26.5056 10.0199C26.3758 9.92054 26.2669 9.79657 26.185 9.65507C26.1031 9.51358 26.05 9.35733 26.0285 9.19527C26.0071 9.03321 26.0179 8.86851 26.0601 8.7106ZM25.6979 15.2087C27.8417 15.7807 29.219 17.1581 29.7911 19.3018C29.8617 19.5666 30.0177 19.8007 30.2351 19.9677C30.4524 20.1347 30.7187 20.2252 30.9928 20.2252C31.1014 20.225 31.2095 20.2108 31.3146 20.1833C31.4724 20.141 31.6204 20.0681 31.75 19.9687C31.8797 19.8693 31.9885 19.7453 32.0702 19.6038C32.1519 19.4623 32.2049 19.3062 32.2263 19.1442C32.2476 18.9822 32.2368 18.8176 32.1945 18.6598C31.3985 15.6812 29.3185 13.6012 26.34 12.8053C26.1822 12.7632 26.0176 12.7525 25.8557 12.7739C25.6937 12.7954 25.5376 12.8485 25.3962 12.9303C25.2548 13.0121 25.1309 13.1209 25.0316 13.2505C24.9322 13.3802 24.8594 13.5282 24.8173 13.686C24.7751 13.8438 24.7644 14.0083 24.7859 14.1703C24.8073 14.3322 24.8604 14.4883 24.9422 14.6297C25.024 14.7711 25.1328 14.895 25.2625 14.9943C25.3922 15.0937 25.5401 15.1665 25.6979 15.2087ZM38.4361 30.0314C38.1589 32.1379 37.1244 34.0714 35.5258 35.4709C33.9272 36.8704 31.8738 37.6401 29.7491 37.6363C17.4058 37.6363 7.3633 27.5938 7.3633 15.2506C7.35949 13.126 8.12921 11.0726 9.52871 9.47404C10.9282 7.87544 12.8618 6.84094 14.9683 6.56375C15.5009 6.49871 16.0404 6.60769 16.506 6.87441C16.9717 7.14114 17.3386 7.55131 17.552 8.04369L20.8352 15.3734V15.3921C20.9986 15.769 21.0661 16.1805 21.0316 16.5899C20.9971 16.9992 20.8619 17.3936 20.6378 17.7379C20.6098 17.7799 20.5803 17.8188 20.5492 17.8576L17.3126 21.6943C18.4769 24.0603 20.9518 26.5134 23.349 27.6809L27.1328 24.4614C27.1699 24.4302 27.2089 24.4011 27.2494 24.3744C27.5934 24.1449 27.9892 24.0048 28.401 23.9668C28.8127 23.9288 29.2275 23.9941 29.6077 24.1567L29.6279 24.166L36.9515 27.4477C37.4447 27.6603 37.8559 28.0269 38.1235 28.4926C38.3911 28.9583 38.5008 29.4982 38.4361 30.0314ZM35.9674 29.7205H35.9503L28.6438 26.4481L24.8584 29.6676C24.8217 29.6987 24.7833 29.7278 24.7434 29.7547C24.3855 29.9935 23.9717 30.1353 23.5426 30.1664C23.1134 30.1975 22.6835 30.1167 22.295 29.9319C19.3832 28.525 16.4809 25.6444 15.0724 22.7638C14.8859 22.3781 14.8022 21.9507 14.8295 21.5231C14.8567 21.0955 14.9939 20.6821 15.2279 20.3232C15.2542 20.281 15.2839 20.241 15.3165 20.2035L18.5562 16.3621L15.2916 9.05571C15.291 9.04951 15.291 9.04326 15.2916 9.03706C13.7841 9.23371 12.3999 9.97316 11.3984 11.1169C10.3968 12.2607 9.84654 13.7303 9.85061 15.2506C9.85637 20.5262 11.9547 25.5841 15.6851 29.3145C19.4156 33.045 24.4735 35.1432 29.7491 35.149C31.2685 35.1542 32.7378 34.6059 33.8822 33.6065C35.0267 32.6071 35.7679 31.2251 35.9674 29.7189V29.7205Z" fill="#FFD500"/>
</svg>
