<svg width="25" height="25" viewBox="0 0 25 25" fill="none" xmlns="http://www.w3.org/2000/svg">
<path d="M15.034 1.74103C15.068 1.61411 15.1266 1.49513 15.2065 1.39088C15.2865 1.28663 15.3862 1.19916 15.4999 1.13345C15.6137 1.06775 15.7393 1.02511 15.8695 1.00796C15.9998 0.99081 16.1321 0.999494 16.259 1.03351C18.1129 1.51721 19.8043 2.48634 21.1591 3.84111C22.5138 5.19587 23.483 6.88729 23.9667 8.74115C24.0007 8.86804 24.0094 9.00039 23.9922 9.13064C23.9751 9.26089 23.9324 9.38649 23.8667 9.50025C23.801 9.61401 23.7136 9.71372 23.6093 9.79366C23.5051 9.8736 23.3861 9.93222 23.2592 9.96617C23.1747 9.98836 23.0877 9.9997 23.0004 9.99992C22.78 9.99991 22.5658 9.92712 22.3911 9.79284C22.2164 9.65857 22.0909 9.47034 22.0341 9.25741C21.6396 7.74403 20.8487 6.36324 19.7428 5.25737C18.6369 4.15149 17.2562 3.36054 15.7428 2.96605C15.6158 2.93224 15.4966 2.87371 15.3923 2.79383C15.2879 2.71394 15.2003 2.61426 15.1344 2.50048C15.0686 2.3867 15.0258 2.26106 15.0086 2.13075C14.9914 2.00043 15 1.868 15.034 1.74103ZM14.7428 6.96612C16.4665 7.42612 17.5741 8.53364 18.0341 10.2574C18.0908 10.4704 18.2163 10.6586 18.391 10.7929C18.5658 10.9271 18.78 10.9999 19.0003 10.9999C19.0877 10.9997 19.1746 10.9884 19.2591 10.9662C19.386 10.9322 19.505 10.8736 19.6092 10.7937C19.7135 10.7137 19.801 10.614 19.8667 10.5003C19.9324 10.3865 19.975 10.2609 19.9922 10.1307C20.0093 10.0004 20.0006 9.86806 19.9666 9.74116C19.3266 7.34612 17.6541 5.67359 15.259 5.03358C15.1321 4.99968 14.9998 4.99111 14.8696 5.00835C14.7394 5.0256 14.6139 5.06831 14.5002 5.13407C14.3865 5.19983 14.2868 5.28733 14.207 5.3916C14.1271 5.49586 14.0685 5.61483 14.0346 5.74172C14.0007 5.86861 13.9922 6.00094 14.0094 6.13114C14.0266 6.26135 14.0694 6.38688 14.1351 6.50058C14.2009 6.61427 14.2884 6.7139 14.3926 6.79378C14.4969 6.87366 14.6159 6.93222 14.7428 6.96612ZM24.9854 18.8851C24.7626 20.5789 23.9307 22.1337 22.6453 23.259C21.3598 24.3843 19.7087 25.0032 18.0003 25.0002C8.07515 25.0002 1.1311e-05 16.925 1.1311e-05 6.99987C-0.00305122 5.29145 0.615881 3.64034 1.74121 2.35491C2.86653 1.06948 4.4213 0.237635 6.11512 0.0147473C6.54344 -0.0375524 6.97719 0.0500753 7.35162 0.26455C7.72605 0.479024 8.02107 0.808842 8.19265 1.20477L10.8327 7.09862V7.11362C10.9641 7.41669 11.0183 7.74758 10.9906 8.07673C10.9629 8.40588 10.8541 8.72305 10.6739 8.9999C10.6514 9.03365 10.6277 9.0649 10.6027 9.09615L8.00015 12.1812C8.93641 14.0837 10.9264 16.0563 12.854 16.995L15.8965 14.4062C15.9264 14.3811 15.9577 14.3578 15.9903 14.3362C16.2669 14.1517 16.5852 14.0391 16.9163 14.0086C17.2474 13.978 17.5809 14.0305 17.8866 14.1612L17.9028 14.1687L23.7917 16.8075C24.1883 16.9785 24.5189 17.2733 24.7341 17.6478C24.9493 18.0222 25.0375 18.4563 24.9854 18.8851ZM23.0004 18.6351H22.9867L17.1116 16.0038L14.0678 18.5926C14.0382 18.6176 14.0073 18.6409 13.9753 18.6626C13.6874 18.8546 13.3547 18.9686 13.0097 18.9936C12.6646 19.0186 12.3189 18.9536 12.0065 18.8051C9.66518 17.6738 7.33139 15.3575 6.19887 13.0412C6.0489 12.731 5.98161 12.3874 6.00351 12.0435C6.02541 11.6997 6.13576 11.3673 6.32387 11.0787C6.34507 11.0448 6.3689 11.0126 6.39512 10.9824L9.00017 7.89363L6.37512 2.01853C6.37463 2.01354 6.37463 2.00852 6.37512 2.00353C5.16292 2.16166 4.04993 2.75625 3.24458 3.67595C2.43924 4.59566 1.99677 5.7774 2.00005 6.99987C2.00468 11.242 3.6919 15.309 6.69153 18.3087C9.69116 21.3083 13.7582 22.9955 18.0003 23.0001C19.222 23.0043 20.4035 22.5634 21.3237 21.7598C22.2439 20.9562 22.84 19.845 23.0004 18.6338V18.6351Z" fill="#FFD500"/>
</svg>
