<svg width="208" height="59" viewBox="0 0 208 59" fill="none" xmlns="http://www.w3.org/2000/svg">
<path d="M15.1798 0.109375H0V31.1998H15.1798C22.2 31.1998 27.1889 26.0847 27.1889 18.8863V12.4229C27.1889 5.22876 22.2435 0.109375 15.1798 0.109375ZM19.5989 18.6296C19.5989 22.231 17.7765 24.0926 14.2664 24.0926H7.50293V7.1817H14.2664C17.7808 7.1817 19.5989 9.04765 19.5989 12.6838V18.6296Z" fill="white"/>
<path d="M90.0007 5.76747L75.9474 24.0703H89.9267V31.0947H66.1914V25.2838L80.1969 6.98533H67.057V0H90.0007V5.76747Z" fill="white"/>
<path d="M59.0382 16.1161L48.6797 26.4746L53.2992 31.0941L63.6577 20.7356L59.0382 16.1161Z" fill="white"/>
<path d="M55.47 12.544L48.6934 19.3205L44.0742 14.697L50.8464 7.9248L55.47 12.544Z" fill="white"/>
<path d="M47.0363 4.59744L36.9193 14.7144L32.3262 10.1213L42.4432 0L47.0363 4.59744Z" fill="white"/>
<path d="M12.0084 55.1951H13.7134V58.0136H11.4255C10.3251 58.0136 9.3769 57.8005 8.57658 57.3699C7.77627 56.9436 7.16299 56.3216 6.73239 55.5126C6.30178 54.7036 6.08866 53.7511 6.08866 52.6506V45.587H3.37891V44.9998L8.62878 39.415H9.15942V42.9338H13.6264V45.587H9.18552V52.3984C9.18552 53.29 9.42909 53.9816 9.91189 54.4644C10.3947 54.9472 11.095 55.1908 12.004 55.1908L12.0084 55.1951Z" fill="white"/>
<path d="M29.18 42.9386H31.581V58.0184H29.0669L28.7581 56.1742C27.3054 57.6443 25.4916 58.3794 23.3125 58.3794C21.1334 58.3794 19.1848 57.6269 17.6842 56.1177C16.1837 54.6084 15.4355 52.725 15.4355 50.4633C15.4355 48.2015 16.1837 46.3225 17.6842 44.8219C19.1805 43.3257 21.0595 42.5732 23.3125 42.5732C25.5656 42.5732 27.3619 43.317 28.8147 44.8089L29.1757 42.9386H29.18ZM20.0069 54.0081C20.9464 54.9476 22.1295 55.4174 23.5518 55.4174C24.974 55.4174 26.1484 54.9476 27.0705 54.0081C27.9926 53.0686 28.4537 51.8856 28.4537 50.4633C28.4537 49.041 27.9926 47.8623 27.0705 46.9315C26.1484 46.0007 24.9697 45.5353 23.5387 45.5353C22.6079 45.5353 21.7641 45.7484 21.0116 46.179C20.2592 46.6096 19.6676 47.1968 19.237 47.9536C18.8064 48.7061 18.5933 49.5499 18.5933 50.4807C18.5933 51.8943 19.063 53.073 20.0025 54.0125L20.0069 54.0081Z" fill="white"/>
<path d="M42.782 58.3794C40.5463 58.3794 38.6717 57.6226 37.1537 56.1046C35.6357 54.5866 34.8789 52.7076 34.8789 50.4633C34.8789 48.2189 35.6357 46.3443 37.1537 44.835C38.6717 43.3257 40.555 42.5732 42.8081 42.5732C44.6523 42.5732 46.2529 43.0952 47.61 44.1347C48.967 45.1786 49.8543 46.5661 50.2632 48.2972H47.1924C46.8009 47.4404 46.2138 46.7662 45.4352 46.2747C44.6523 45.7832 43.7693 45.5353 42.782 45.5353C41.9077 45.5353 41.1074 45.7484 40.3811 46.179C39.6547 46.6096 39.0849 47.1968 38.663 47.9536C38.2454 48.7061 38.0367 49.5499 38.0367 50.4807C38.0367 51.8769 38.4934 53.0512 39.4068 53.9994C40.3202 54.9476 41.4467 55.4217 42.7863 55.4217C43.7737 55.4217 44.6523 55.1695 45.4265 54.6693C46.2007 54.1647 46.7879 53.4514 47.2011 52.5206H50.3284C49.9022 54.2909 49.0018 55.7088 47.6361 56.7788C46.266 57.8488 44.6523 58.3837 42.7907 58.3837L42.782 58.3794Z" fill="white"/>
<path d="M60.0631 55.1951H61.7681V58.0136H59.4802C58.3798 58.0136 57.4316 57.8005 56.6313 57.3699C55.831 56.9436 55.2177 56.3216 54.7871 55.5126C54.3565 54.7036 54.1434 53.7511 54.1434 52.6506V45.587H51.4336V44.9998L56.6835 39.415H57.2141V42.9338H61.6811V45.587H57.2402V52.3984C57.2402 53.29 57.4838 53.9816 57.9666 54.4644C58.4494 54.9472 59.1496 55.1908 60.0587 55.1908L60.0631 55.1951Z" fill="white"/>
<path d="M64.7246 40.594V37.4102H67.9346V40.594H64.7246ZM64.7811 58.0182V42.9384H67.8824V58.0182H64.7811Z" fill="white"/>
<path d="M79.0769 58.3794C76.8413 58.3794 74.9666 57.6226 73.4486 56.1046C71.9306 54.5866 71.1738 52.7076 71.1738 50.4633C71.1738 48.2189 71.9306 46.3443 73.4486 44.835C74.9666 43.3257 76.85 42.5732 79.103 42.5732C80.9472 42.5732 82.5478 43.0952 83.9049 44.1347C85.2619 45.1786 86.1492 46.5661 86.5581 48.2972H83.4873C83.0959 47.4404 82.5087 46.7662 81.7301 46.2747C80.9472 45.7832 80.0643 45.5353 79.0769 45.5353C78.2027 45.5353 77.4023 45.7484 76.676 46.179C75.9496 46.6096 75.3798 47.1968 74.9579 47.9536C74.5404 48.7061 74.3316 49.5499 74.3316 50.4807C74.3316 51.8769 74.7883 53.0512 75.7017 53.9994C76.6151 54.9476 77.7416 55.4217 79.0813 55.4217C80.0686 55.4217 80.9472 55.1695 81.7214 54.6693C82.4956 54.1647 83.0828 53.4514 83.496 52.5206H86.6233C86.1971 54.2909 85.2967 55.7088 83.931 56.7788C82.5609 57.8488 80.9472 58.3837 79.0856 58.3837L79.0769 58.3794Z" fill="white"/>
<path d="M48.6808 19.3036L44.0834 14.7148L40.5037 18.2945L36.9197 14.7148L32.3223 19.3036L35.9106 22.8919L32.3223 26.476L36.9197 31.0691L40.5037 27.485L44.0834 31.0691L48.6808 26.476L45.0968 22.8919L48.6808 19.3036Z" fill="#FF0000"/>
<path d="M204.173 40.2058C204.389 40.2965 204.581 40.4155 204.751 40.5628C204.933 40.6988 205.086 40.8632 205.21 41.0558C205.335 41.2372 205.431 41.4412 205.499 41.6678C205.567 41.8945 205.601 42.1268 205.601 42.3648C205.601 43.1128 205.329 43.7418 204.785 44.2518C204.241 44.7505 203.561 44.9998 202.745 44.9998H197.951V35.8198H202.677C203.448 35.8198 204.077 36.0408 204.564 36.4828C205.063 36.9135 205.312 37.4745 205.312 38.1658C205.312 38.5965 205.21 38.9932 205.006 39.3558C204.802 39.7185 204.525 40.0018 204.173 40.2058ZM203.442 38.4718C203.442 38.1545 203.335 37.8995 203.119 37.7068C202.915 37.5142 202.643 37.4178 202.303 37.4178H199.804V39.5258H202.303C202.643 39.5258 202.915 39.4295 203.119 39.2368C203.335 39.0442 203.442 38.7892 203.442 38.4718ZM202.405 43.3508C202.779 43.3508 203.08 43.2432 203.306 43.0278C203.544 42.8125 203.663 42.5405 203.663 42.2118C203.663 41.8718 203.544 41.5942 203.306 41.3788C203.068 41.1635 202.762 41.0558 202.388 41.0558H199.804V43.3508H202.405Z" fill="white"/>
<path d="M193.352 34.3921V32.4541H195.307V34.3921H193.352ZM193.386 45.0001V35.8201H195.273V45.0001H193.386Z" fill="white"/>
<path d="M189.753 44.9998L186.999 41.0898H185.86V44.9998H183.973V35.8198H185.86V39.3728H187.016L189.515 35.8198H191.742L188.631 40.2228L192.082 44.9998H189.753Z" fill="white"/>
<path d="M180.23 35.8198H181.284V44.9998H179.482V39.1688L174.586 44.9998H173.498V35.8198H175.317V41.5998L180.23 35.8198Z" fill="white"/>
<path d="M168.96 35.8198H170.813V44.9998H168.96V41.1578H164.71V44.9998H162.84V35.8198H164.71V39.4238H168.96V35.8198Z" fill="white"/>
<path d="M159.624 43.2148H160.814V47.3118H159.097V44.9998H152.399V47.3118H150.682V43.2148H151.651C151.911 42.9995 152.11 42.6708 152.246 42.2288C152.393 41.7868 152.523 41.1182 152.637 40.2228C152.75 39.3162 152.897 37.8485 153.079 35.8198H159.624V43.2148ZM154.745 37.4858C154.62 39.3332 154.478 40.6592 154.32 41.4638C154.161 42.2685 153.929 42.8522 153.623 43.2148H157.771V37.4858H154.745Z" fill="white"/>
<path d="M147.051 34.3921V32.4541H149.006V34.3921H147.051ZM147.085 45.0001V35.8201H148.972V45.0001H147.085Z" fill="white"/>
<path d="M143.452 44.9998L140.698 41.0898H139.559V44.9998H137.672V35.8198H139.559V39.3728H140.715L143.214 35.8198H145.441L142.33 40.2228L145.781 44.9998H143.452Z" fill="white"/>
<path d="M133.136 35.8198H134.989V44.9998H123.344V35.8198H125.197V43.2658H128.274V35.8198H130.076V43.2658H133.136V35.8198Z" fill="white"/>
<path d="M203.573 13.8198H207.959V22.9998H206.123V19.6338H204.202L202.196 22.9998H200.139L202.332 19.3278C201.776 19.1012 201.34 18.7612 201.023 18.3078C200.705 17.8545 200.547 17.3275 200.547 16.7268C200.547 15.8995 200.836 15.2082 201.414 14.6528C201.992 14.0975 202.711 13.8198 203.573 13.8198ZM203.828 17.9848H206.123V15.4858H203.828C203.556 15.4858 203.312 15.5425 203.097 15.6558C202.893 15.7578 202.734 15.9052 202.621 16.0978C202.507 16.2792 202.451 16.4945 202.451 16.7438C202.451 17.1065 202.575 17.4068 202.825 17.6448C203.074 17.8715 203.408 17.9848 203.828 17.9848Z" fill="white"/>
<path d="M196.468 13.8198H198.321V22.9998H196.468V19.1578H192.218V22.9998H190.348V13.8198H192.218V17.4238H196.468V13.8198Z" fill="white"/>
<path d="M185.809 13.8198H187.662V22.9998H185.809V19.1578H181.559V22.9998H179.689V13.8198H181.559V17.4238H185.809V13.8198Z" fill="white"/>
<path d="M177.686 18.4271C177.686 18.5971 177.675 18.8068 177.652 19.0561H170.206C170.319 19.7928 170.625 20.3765 171.124 20.8071C171.634 21.2378 172.263 21.4531 173.011 21.4531C173.374 21.4531 173.714 21.4021 174.031 21.3001C174.348 21.1868 174.626 21.0338 174.864 20.8411C175.113 20.6371 175.317 20.3935 175.476 20.1101H177.465C177.102 21.0848 176.524 21.8498 175.731 22.4051C174.938 22.9491 174.031 23.2211 173.011 23.2211C171.662 23.2211 170.535 22.7621 169.628 21.8441C168.733 20.9261 168.285 19.7815 168.285 18.4101C168.285 17.0388 168.733 15.8941 169.628 14.9761C170.535 14.0581 171.662 13.5991 173.011 13.5991C173.929 13.5991 174.745 13.8201 175.459 14.2621C176.173 14.6928 176.723 15.2765 177.108 16.0131C177.493 16.7385 177.686 17.5431 177.686 18.4271ZM173.011 15.2991C172.308 15.2991 171.708 15.4975 171.209 15.8941C170.722 16.2908 170.399 16.8348 170.24 17.5261H175.799C175.686 17.0615 175.499 16.6648 175.238 16.3361C174.977 15.9961 174.654 15.7411 174.269 15.5711C173.895 15.3898 173.476 15.2991 173.011 15.2991Z" fill="white"/>
<path d="M165.901 21.2658H167.142V25.3118H165.425V22.9998H154.256V13.8198H156.109V21.2658H159.186V13.8198H160.988V21.2658H164.048V13.8198H165.901V21.2658Z" fill="white"/>
<path d="M150.513 13.8198H151.567V22.9998H149.765V17.1688L144.869 22.9998H143.781V13.8198H145.6V19.5998L150.513 13.8198Z" fill="white"/>
<path d="M139.243 13.8198H141.096V22.9998H139.243V19.1578H134.993V22.9998H133.123V13.8198H134.993V17.4238H139.243V13.8198Z" fill="white"/>
<path d="M129.413 16.7609C129.742 16.9422 130.025 17.1802 130.263 17.4749C130.501 17.7696 130.682 18.0982 130.807 18.4609C130.943 18.8236 131.011 19.2089 131.011 19.6169C131.011 20.6822 130.609 21.5492 129.804 22.2179C128.999 22.8752 128.002 23.2039 126.812 23.2039C126.053 23.2039 125.361 23.0566 124.738 22.7619C124.126 22.4672 123.633 22.0422 123.259 21.4869C122.885 20.9202 122.687 20.2742 122.664 19.5489H124.568C124.602 19.9342 124.721 20.2742 124.925 20.5689C125.129 20.8522 125.39 21.0676 125.707 21.2149C126.036 21.3622 126.404 21.4359 126.812 21.4359C127.469 21.4359 128.013 21.2602 128.444 20.9089C128.875 20.5576 129.09 20.0986 129.09 19.5319C129.09 18.9766 128.897 18.5232 128.512 18.1719C128.127 17.8206 127.628 17.6449 127.016 17.6449H125.758V15.9789H127.016C127.56 15.9789 128.002 15.8202 128.342 15.5029C128.682 15.1856 128.852 14.7776 128.852 14.2789C128.852 13.7689 128.659 13.3609 128.274 13.0549C127.889 12.7376 127.401 12.5789 126.812 12.5789C126.257 12.5789 125.781 12.7376 125.384 13.0549C124.999 13.3609 124.778 13.7632 124.721 14.2619H122.851C122.908 13.2532 123.31 12.4372 124.058 11.8139C124.817 11.1906 125.73 10.8789 126.795 10.8789C127.917 10.8789 128.852 11.1906 129.6 11.8139C130.359 12.4259 130.739 13.2362 130.739 14.2449C130.739 14.7662 130.62 15.2479 130.382 15.6899C130.155 16.1319 129.832 16.4889 129.413 16.7609Z" fill="white"/>
<path fill-rule="evenodd" clip-rule="evenodd" d="M109 45V13H110V45H109Z" fill="white"/>
</svg>
