<svg width="220" height="81" viewBox="0 0 220 81" fill="none" xmlns="http://www.w3.org/2000/svg">
<path d="M23.0369 12.4336H8V43.2312H23.0369C29.9909 43.2312 34.9328 38.1643 34.9328 31.0336V24.6311C34.9328 17.5048 30.034 12.4336 23.0369 12.4336ZM27.4144 30.7794C27.4144 34.3469 25.6091 36.191 22.1321 36.191H15.4323V19.4393H22.1321C25.6134 19.4393 27.4144 21.2877 27.4144 24.8896V30.7794Z" fill="white"/>
<path d="M97.1514 18.0383L83.2305 36.1687H97.0782V43.1271H73.5664V37.3708L87.44 19.2447H74.4238V12.3252H97.1514V18.0383Z" fill="white"/>
<path d="M66.4836 28.2896L56.2227 38.5505L60.7987 43.1265L71.0596 32.8656L66.4836 28.2896Z" fill="white"/>
<path d="M62.9486 24.751L56.2358 31.4637L51.6602 26.8837L58.3686 20.1753L62.9486 24.751Z" fill="white"/>
<path d="M54.595 16.8793L44.5733 26.901L40.0234 22.3512L50.0451 12.3252L54.595 16.8793Z" fill="white"/>
<path d="M19.8958 67.0008H21.5848V69.7928H19.3185C18.2284 69.7928 17.2892 69.5816 16.4964 69.1551C15.7036 68.7329 15.0961 68.1167 14.6696 67.3154C14.243 66.514 14.0319 65.5704 14.0319 64.4803V57.4832H11.3477V56.9016L16.5481 51.3694H17.0737V54.855H21.4986V57.4832H17.0996V64.2304C17.0996 65.1137 17.3409 65.7987 17.8191 66.277C18.2974 66.7552 18.991 66.9965 19.8915 66.9965L19.8958 67.0008Z" fill="white"/>
<path d="M36.9041 54.8597H39.2824V69.7975H36.7921L36.4862 67.9706C35.0471 69.4269 33.2504 70.1551 31.0919 70.1551C28.9333 70.1551 27.003 69.4097 25.5166 67.9146C24.0301 66.4196 23.2891 64.554 23.2891 62.3135C23.2891 60.0731 24.0301 58.2118 25.5166 56.7253C26.9987 55.2432 28.86 54.4978 31.0919 54.4978C33.3237 54.4978 35.1031 55.2346 36.5422 56.7124L36.8998 54.8597H36.9041ZM27.8174 65.825C28.748 66.7556 29.9199 67.221 31.3288 67.221C32.7377 67.221 33.901 66.7556 34.8144 65.825C35.7279 64.8943 36.1846 63.7224 36.1846 62.3135C36.1846 60.9046 35.7279 59.737 34.8144 58.815C33.901 57.8929 32.7334 57.4319 31.3159 57.4319C30.3939 57.4319 29.558 57.643 28.8126 58.0696C28.0673 58.4961 27.4813 59.0778 27.0547 59.8275C26.6282 60.5729 26.4171 61.4087 26.4171 62.3308C26.4171 63.731 26.8824 64.8987 27.813 65.8293L27.8174 65.825Z" fill="white"/>
<path d="M50.3794 70.1551C48.1648 70.1551 46.3078 69.4054 44.8042 67.9017C43.3005 66.398 42.5508 64.5367 42.5508 62.3135C42.5508 60.0903 43.3005 58.2333 44.8042 56.7383C46.3078 55.2432 48.1734 54.4978 50.4053 54.4978C52.2321 54.4978 53.8177 55.0148 55.1619 56.0446C56.5062 57.0786 57.3851 58.4531 57.7901 60.1679H54.7483C54.3605 59.3191 53.7789 58.6512 53.0076 58.1644C52.2321 57.6775 51.3575 57.4319 50.3794 57.4319C49.5134 57.4319 48.7206 57.643 48.0011 58.0696C47.2816 58.4961 46.7171 59.0778 46.2992 59.8275C45.8856 60.5729 45.6788 61.4087 45.6788 62.3308C45.6788 63.7138 46.1312 64.8771 47.036 65.8164C47.9408 66.7556 49.0567 67.2253 50.3837 67.2253C51.3618 67.2253 52.2321 66.9754 52.999 66.4799C53.7659 65.9801 54.3476 65.2735 54.7569 64.3515H57.8548C57.4325 66.105 56.5407 67.5096 55.1878 68.5695C53.8306 69.6294 52.2321 70.1594 50.388 70.1594L50.3794 70.1551Z" fill="white"/>
<path d="M67.4974 67.0008H69.1864V69.7928H66.92C65.83 69.7928 64.8907 69.5816 64.0979 69.1551C63.3052 68.7329 62.6977 68.1167 62.2711 67.3154C61.8446 66.514 61.6335 65.5704 61.6335 64.4803V57.4832H58.9492V56.9016L64.1496 51.3694H64.6753V54.855H69.1002V57.4832H64.7011V64.2304C64.7011 65.1137 64.9424 65.7987 65.4207 66.277C65.8989 66.7552 66.5926 66.9965 67.4931 66.9965L67.4974 67.0008Z" fill="white"/>
<path d="M72.1172 52.5372V49.3833H75.2969V52.5372H72.1172ZM72.1732 69.7972V54.8595H75.2452V69.7972H72.1732Z" fill="white"/>
<path d="M86.3326 70.1551C84.118 70.1551 82.261 69.4054 80.7573 67.9017C79.2536 66.398 78.5039 64.5367 78.5039 62.3135C78.5039 60.0903 79.2536 58.2333 80.7573 56.7383C82.261 55.2432 84.1266 54.4978 86.3584 54.4978C88.1852 54.4978 89.7708 55.0148 91.115 56.0446C92.4593 57.0786 93.3383 58.4531 93.7433 60.1679H90.7014C90.3137 59.3191 89.732 58.6512 88.9608 58.1644C88.1852 57.6775 87.3106 57.4319 86.3326 57.4319C85.4665 57.4319 84.6738 57.643 83.9542 58.0696C83.2347 58.4961 82.6703 59.0778 82.2524 59.8275C81.8387 60.5729 81.6319 61.4087 81.6319 62.3308C81.6319 63.7138 82.0843 64.8771 82.9891 65.8164C83.8939 66.7556 85.0098 67.2253 86.3369 67.2253C87.3149 67.2253 88.1852 66.9754 88.9522 66.4799C89.7191 65.9801 90.3007 65.2735 90.71 64.3515H93.8079C93.3857 66.105 92.4938 67.5096 91.1409 68.5695C89.7837 69.6294 88.1852 70.1594 86.3412 70.1594L86.3326 70.1551Z" fill="white"/>
<path d="M56.224 31.4469L51.6699 26.9014L48.1239 30.4473L44.5737 26.9014L40.0195 31.4469L43.5741 35.0015L40.0195 38.5517L44.5737 43.1015L48.1239 39.5513L51.6699 43.1015L56.224 38.5517L52.6738 35.0015L56.224 31.4469Z" fill="#FF0000"/>
<path d="M210.249 52.1526C210.463 52.2424 210.653 52.3602 210.822 52.5062C211.002 52.6409 211.153 52.8037 211.277 52.9945C211.4 53.1742 211.495 53.3762 211.563 53.6008C211.63 53.8253 211.664 54.0555 211.664 54.2912C211.664 55.0322 211.394 55.6552 210.856 56.1604C210.317 56.6544 209.643 56.9014 208.835 56.9014H204.086V47.8079H208.767C209.531 47.8079 210.154 48.0268 210.637 48.4646C211.131 48.8912 211.378 49.4469 211.378 50.1318C211.378 50.5584 211.277 50.9513 211.074 51.3106C210.872 51.6698 210.597 51.9505 210.249 52.1526ZM209.525 50.4349C209.525 50.1205 209.419 49.8679 209.205 49.6771C209.003 49.4862 208.734 49.3908 208.397 49.3908H205.921V51.479H208.397C208.734 51.479 209.003 51.3835 209.205 51.1927C209.419 51.0018 209.525 50.7492 209.525 50.4349ZM208.498 55.2679C208.868 55.2679 209.166 55.1613 209.39 54.948C209.626 54.7347 209.744 54.4652 209.744 54.1397C209.744 53.8029 209.626 53.5278 209.39 53.3145C209.155 53.1012 208.852 52.9945 208.481 52.9945H205.921V55.2679H208.498Z" fill="white"/>
<path d="M199.531 46.3936V44.4739H201.468V46.3936H199.531ZM199.565 56.9017V47.8082H201.434V56.9017H199.565Z" fill="white"/>
<path d="M195.968 56.9014L193.24 53.0282H192.111V56.9014H190.242V47.8079H192.111V51.3274H193.257L195.732 47.8079H197.938L194.856 52.1694L198.275 56.9014H195.968Z" fill="white"/>
<path d="M186.532 47.8079H187.576V56.9014H185.791V51.1253L180.941 56.9014H179.863V47.8079H181.665V53.5334L186.532 47.8079Z" fill="white"/>
<path d="M175.367 47.8079H177.203V56.9014H175.367V53.0956H171.157V56.9014H169.305V47.8079H171.157V51.3779H175.367V47.8079Z" fill="white"/>
<path d="M166.119 55.1332H167.298V59.1916H165.597V56.9014H158.963V59.1916H157.262V55.1332H158.222C158.48 54.9199 158.676 54.5943 158.811 54.1565C158.957 53.7187 159.086 53.0563 159.198 52.1694C159.311 51.2713 159.457 49.8174 159.636 47.8079H166.119V55.1332ZM161.286 49.4582C161.163 51.2881 161.023 52.6016 160.865 53.3987C160.708 54.1958 160.478 54.774 160.175 55.1332H164.284V49.4582H161.286Z" fill="white"/>
<path d="M153.664 46.3936V44.4739H155.601V46.3936H153.664ZM153.698 56.9017V47.8082H155.567V56.9017H153.698Z" fill="white"/>
<path d="M150.101 56.9014L147.372 53.0282H146.244V56.9014H144.375V47.8079H146.244V51.3274H147.389L149.865 47.8079H152.071L148.989 52.1694L152.408 56.9014H150.101Z" fill="white"/>
<path d="M139.883 47.8079H141.719V56.9014H130.184V47.8079H132.019V55.1837H135.067V47.8079H136.852V55.1837H139.883V47.8079Z" fill="white"/>
<path d="M116.469 25.2026V56.9012" stroke="white"/>
<path d="M207.994 28.62C209.003 28.62 209.818 28.9203 210.442 29.5208C211.065 30.1212 211.376 30.903 211.376 31.866C211.376 32.8177 211.065 33.5938 210.442 34.1943C209.818 34.7835 209.003 35.078 207.994 35.078H204.188V25.9009H206.04V28.62H207.994ZM207.773 33.4465C208.283 33.4465 208.697 33.3049 209.014 33.0217C209.331 32.7271 209.49 32.3419 209.49 31.866C209.49 31.5488 209.416 31.2712 209.269 31.0333C209.133 30.784 208.935 30.5914 208.674 30.4555C208.414 30.3195 208.113 30.2515 207.773 30.2515H206.04V33.4465H207.773Z" fill="white"/>
<path d="M195.258 25.9009H201.495V35.078H199.642V27.5324H196.804L196.396 31.5941C196.272 32.8857 195.938 33.7978 195.394 34.3303C194.861 34.8628 194.051 35.129 192.964 35.129H192.641V33.3956H193.082C193.978 33.3956 194.482 32.8347 194.595 31.7131L195.258 25.9009Z" fill="white"/>
<path d="M190.444 33.9394C189.515 34.8458 188.348 35.299 186.943 35.299C185.538 35.299 184.365 34.8458 183.425 33.9394C182.496 33.0217 182.031 31.8717 182.031 30.4894C182.031 29.5831 182.241 28.7616 182.66 28.0252C183.091 27.2888 183.68 26.7166 184.428 26.3087C185.187 25.8895 186.025 25.6799 186.943 25.6799C187.86 25.6799 188.693 25.8895 189.441 26.3087C190.2 26.7166 190.789 27.2888 191.208 28.0252C191.639 28.7616 191.854 29.5831 191.854 30.4894C191.854 31.8717 191.384 33.0217 190.444 33.9394ZM186.943 33.4975C187.521 33.4975 188.036 33.3729 188.489 33.1236C188.942 32.863 189.294 32.5062 189.543 32.053C189.804 31.5884 189.934 31.0673 189.934 30.4894C189.934 29.617 189.651 28.8976 189.084 28.3311C188.529 27.7646 187.815 27.4814 186.943 27.4814C186.07 27.4814 185.351 27.7646 184.784 28.3311C184.229 28.8976 183.952 29.617 183.952 30.4894C183.952 31.3618 184.229 32.0813 184.784 32.6478C185.351 33.2143 186.07 33.4975 186.943 33.4975Z" fill="white"/>
<path d="M175.921 25.6799C176.827 25.6799 177.643 25.8895 178.368 26.3087C179.093 26.7166 179.66 27.2888 180.067 28.0252C180.475 28.7616 180.679 29.5831 180.679 30.4894C180.679 31.8717 180.226 33.0217 179.32 33.9394C178.425 34.8458 177.292 35.299 175.921 35.299C174.742 35.299 173.728 34.9307 172.879 34.1943V38.375H170.992V25.9009H172.267L172.624 27.0225C173.507 26.1275 174.606 25.6799 175.921 25.6799ZM173.626 32.6478C174.193 33.2143 174.907 33.4975 175.768 33.4975C176.64 33.4975 177.36 33.2143 177.926 32.6478C178.493 32.07 178.776 31.3505 178.776 30.4894C178.776 29.6284 178.493 28.9146 177.926 28.3481C177.36 27.7703 176.646 27.4814 175.785 27.4814C175.218 27.4814 174.703 27.6117 174.238 27.8723C173.774 28.1328 173.411 28.4954 173.151 28.9599C172.901 29.4131 172.777 29.923 172.777 30.4894C172.777 31.3505 173.06 32.07 173.626 32.6478Z" fill="white"/>
<path d="M169.338 25.9009V27.6004H166.109V35.078H164.273V27.6004H161.027V25.9009H169.338Z" fill="white"/>
<path d="M157.544 25.9009H159.396V35.078H157.544V31.2372H153.295V35.078H151.426V25.9009H153.295V29.5038H157.544V25.9009Z" fill="white"/>
<path d="M148.002 33.9394C147.073 34.8458 145.906 35.299 144.501 35.299C143.096 35.299 141.924 34.8458 140.983 33.9394C140.054 33.0217 139.59 31.8717 139.59 30.4894C139.59 29.5831 139.799 28.7616 140.219 28.0252C140.649 27.2888 141.238 26.7166 141.986 26.3087C142.745 25.8895 143.584 25.6799 144.501 25.6799C145.419 25.6799 146.252 25.8895 147 26.3087C147.759 26.7166 148.348 27.2888 148.767 28.0252C149.198 28.7616 149.413 29.5831 149.413 30.4894C149.413 31.8717 148.943 33.0217 148.002 33.9394ZM144.501 33.4975C145.079 33.4975 145.595 33.3729 146.048 33.1236C146.501 32.863 146.852 32.5062 147.102 32.053C147.362 31.5884 147.492 31.0673 147.492 30.4894C147.492 29.617 147.209 28.8976 146.643 28.3311C146.087 27.7646 145.374 27.4814 144.501 27.4814C143.629 27.4814 142.909 27.7646 142.343 28.3311C141.788 28.8976 141.51 29.617 141.51 30.4894C141.51 31.3618 141.788 32.0813 142.343 32.6478C142.909 33.2143 143.629 33.4975 144.501 33.4975Z" fill="white"/>
<path d="M137.253 35.078L133.532 29.8606H132.138V35.078H130.184V23.1816H132.138V28.0421H133.515L136.914 23.1816H139.31L135.248 28.9259L139.684 35.078H137.253Z" fill="white"/>
</svg>
