<svg width="48" height="47" viewBox="0 0 48 47" fill="none" xmlns="http://www.w3.org/2000/svg">
<path d="M23.7725 42.9814C34.7473 42.9814 43.6387 34.0901 43.6387 23.1152C43.6387 12.1404 34.7473 3.24902 23.7725 3.24902C12.7976 3.24902 3.90625 12.1404 3.90625 23.1152C3.90625 34.0901 12.7976 42.9814 23.7725 42.9814ZM12.9963 22.6844L32.151 15.2991C33.04 14.9788 33.8161 15.5164 33.5293 16.8611V16.8586L30.2687 32.2239C30.0266 33.3128 29.3797 33.5773 28.4745 33.0645L23.508 29.4041L21.1116 31.7123C20.8472 31.9768 20.6237 32.2003 20.1109 32.2003L20.4635 27.1468L29.6678 18.8303C30.0688 18.4777 29.5784 18.2791 29.0507 18.6304L17.6748 25.7922L12.7715 24.2625C11.7075 23.9248 11.6839 23.1972 12.9963 22.6844Z" stroke="#DBDBDB" stroke-linecap="round" stroke-linejoin="bevel"/>
</svg>
