<svg width="48" height="47" viewBox="0 0 48 47" fill="none" xmlns="http://www.w3.org/2000/svg">
<path d="M36.6808 5.40918H10.3457C8.89889 5.41082 7.51184 5.98628 6.48881 7.00931C5.46578 8.03234 4.89032 9.4194 4.88867 10.8662V37.2013C4.89032 38.6481 5.46578 40.0352 6.48881 41.0582C7.51184 42.0812 8.89889 42.6567 10.3457 42.6583H21.3305V29.4908H16.9661V22.9411H21.3305V18.5035C21.3324 16.7674 22.023 15.1029 23.2506 13.8753C24.4783 12.6476 26.1427 11.9571 27.8789 11.9551H34.4993V18.5035H27.8789V22.9411H34.4993L33.4066 29.4895H27.8789V42.6583H36.6821C38.1287 42.6564 39.5154 42.0808 40.5382 41.0578C41.5609 40.0348 42.1362 38.6479 42.1378 37.2013V10.8662C42.1362 9.4194 41.5607 8.03234 40.5377 7.00931C39.5147 5.98628 38.1276 5.41082 36.6808 5.40918Z" stroke="#DBDBDB"/>
</svg>
