<svg width="111" height="111" viewBox="0 0 111 111" fill="none" xmlns="http://www.w3.org/2000/svg">
<path d="M98.0735 26.39C97.9835 24.99 97.4135 23.8 96.4335 22.97C95.4835 22.16 94.1935 21.76 92.8835 21.86C91.5535 21.96 90.2135 22.02 88.8635 22.02C85.8135 22.02 82.9435 21.73 80.1135 21.14C71.7635 19.41 64.7135 15.57 59.1835 9.77C58.0735 8.59 56.8935 8.01 55.5635 8C53.6035 8 52.2535 9.36 51.8135 9.8C43.7035 18.01 33.9335 22 21.9535 22C20.8335 22 19.6335 21.96 18.2635 21.88C15.3535 21.69 13.1635 23.56 12.9235 26.46V26.53C12.8535 27.21 12.8135 27.87 12.7735 28.55C12.2235 38.12 12.9335 46.73 14.9335 54.87C18.9035 71.06 27.6635 84.69 40.9435 95.37C44.6935 98.39 48.8335 101.02 53.5935 103.4C53.9635 103.59 54.3735 103.69 54.7935 103.69H56.2035C56.7935 103.68 57.3635 103.49 57.7635 103.17L57.8235 103.13C73.9935 94.83 85.7435 82.04 92.7735 65.1C95.7035 57.99 97.4535 50.32 98.1235 41.66C98.4835 37.01 98.4635 32.01 98.0735 26.39ZM95.9235 41.51C95.2635 49.94 93.5735 57.39 90.7235 64.28C83.8935 80.75 72.4535 93.18 56.7135 101.24L56.4535 101.42C56.3835 101.47 56.2935 101.5 56.1835 101.5H54.7735C54.6935 101.5 54.6235 101.48 54.5535 101.45C49.9335 99.13 45.9335 96.59 42.3035 93.67C29.4035 83.29 20.8935 70.06 17.0435 54.34C15.1035 46.41 14.4135 38.02 14.9435 28.67C14.9835 28 15.0335 27.36 15.1035 26.69V26.55C15.2335 24.99 16.2935 24.05 17.8835 24.05L18.1335 24.06C19.5435 24.15 20.7935 24.19 21.9535 24.19C34.5435 24.19 44.8235 20 53.3735 11.36C53.8935 10.82 54.6335 10.2 55.5335 10.2C55.9735 10.2 56.6635 10.32 57.5735 11.28C63.4235 17.42 70.8435 21.46 79.6435 23.3C82.6235 23.92 85.6335 24.21 88.8435 24.21C90.2435 24.21 91.6435 24.16 93.0335 24.05C93.7635 23.99 94.4735 24.2 94.9835 24.64C95.5035 25.08 95.8135 25.74 95.8635 26.55C96.2535 32.07 96.2735 36.96 95.9235 41.51Z" fill="#272729"/>
<path d="M79.3934 49.2101C79.1134 48.8301 78.8834 48.4401 78.6934 48.0701L77.9834 46.4001C77.8234 45.9301 77.7134 45.4601 77.6434 44.9501C77.4634 43.7801 77.5234 42.5701 77.8134 41.3401C77.8734 41.0801 77.8834 40.8501 77.8934 40.6701V40.4501C78.1034 39.4601 77.9234 38.5501 77.3834 37.7801C76.9834 37.2101 76.3834 36.7401 75.6134 36.4001C72.5434 35.0901 70.5734 33.0201 69.5634 30.0401C69.0134 28.4101 67.7334 27.4701 66.0534 27.4701C65.7934 27.4701 65.5134 27.4901 65.2434 27.5301C64.5234 27.6401 63.8234 27.7101 63.1534 27.7101C60.8334 27.7101 58.8134 27.0201 56.9634 25.6101L56.7834 25.4901C56.0334 24.8901 55.2334 24.5801 54.4134 24.5801C53.9634 24.5801 53.5134 24.6701 53.0734 24.8601C52.5834 25.0501 52.1234 25.3601 51.6634 25.7901C50.2334 27.1001 48.6334 27.9401 46.9134 28.3001C46.5034 28.4001 46.0634 28.4501 45.6234 28.5001C45.3834 28.5201 45.1334 28.5301 44.8334 28.5301C44.5034 28.5301 44.2034 28.5201 43.8934 28.5001C43.7334 28.4801 43.5534 28.4701 43.4034 28.4701C41.3234 28.4701 39.8634 29.6401 39.2834 31.7601C39.0234 32.7001 38.6734 33.5501 38.2634 34.3001C37.3534 35.9101 36.0534 37.1401 34.2934 38.0501C34.1934 38.1101 34.0734 38.1701 33.9434 38.2801C32.1934 39.2801 31.5434 40.9101 32.1434 42.8501C32.1934 43.0001 32.2334 43.1701 32.2734 43.3301V43.3501L32.3134 43.4501C32.8134 45.3701 32.8634 47.0801 32.4734 48.6701C32.3534 49.1901 32.1634 49.7201 31.9134 50.2601L31.0834 51.8401V51.8801C30.3434 53.6001 30.8034 55.2301 32.4334 56.7001L32.4934 56.7601C32.6334 56.8901 32.7734 57.0101 32.9134 57.1401C33.5934 57.7801 34.0534 58.2801 34.4334 58.7401C35.4434 59.9901 35.9034 61.2001 35.9034 62.5401C35.9034 63.2801 35.9934 63.9601 36.1734 64.5601C36.4634 65.5801 37.0234 66.4001 37.8134 67.0101C37.9434 67.1201 38.1134 67.2401 38.3034 67.3501L32.6234 78.2901C32.4334 78.6901 32.4334 79.1601 32.6334 79.5701C32.8534 79.9701 33.2534 80.2401 33.7034 80.2901L40.7534 81.0901L45.5634 86.6001C45.7434 86.8101 45.9734 86.9601 46.2334 87.0301C46.3434 87.0701 46.4634 87.0801 46.5834 87.0801H46.7634C47.2134 87.0301 47.6034 86.7701 47.8134 86.3701L55.5034 72.4201L63.1534 86.3601C63.3634 86.7501 63.7534 87.0301 64.2034 87.0801H64.3534C64.7634 87.0801 65.1334 86.9101 65.4034 86.6001L70.2034 81.0701L77.2534 80.2901C77.7034 80.2301 78.1134 79.9601 78.3134 79.5701C78.5334 79.1501 78.5334 78.6701 78.3134 78.2801L72.2334 66.5601C74.4734 65.9701 75.7534 64.3401 75.8334 61.9201V61.3401C75.7434 58.9401 76.4934 57.0001 78.1134 55.4101C78.3634 55.1601 78.5334 54.9101 78.6834 54.7201C78.7234 54.6601 78.8434 54.5001 78.8934 54.4301C80.4634 52.9701 80.6334 51.0501 79.3934 49.2101ZM46.3634 83.3201L42.4934 78.8801C42.2634 78.6201 41.9534 78.4501 41.6134 78.4201L36.0234 77.7901L40.9834 68.2401C41.1034 68.2501 41.2334 68.2601 41.3834 68.2701C42.6034 68.3801 43.6434 68.7701 44.5634 69.4801C44.9234 69.7601 45.2634 70.0801 45.5934 70.4701C45.7034 70.5801 45.7934 70.7001 45.9034 70.8301L45.9434 70.8901C46.1734 71.2001 46.4334 71.4601 46.6434 71.6601C46.8334 71.8401 46.9534 71.9601 47.0234 72.0601C47.9134 73.2201 49.0134 73.8301 50.2434 73.8301C50.7334 73.8301 51.2234 73.7301 51.7534 73.5401L46.3634 83.3201ZM74.9434 77.8001L69.3534 78.4201C69.0134 78.4601 68.6934 78.6301 68.4734 78.8901L64.6234 83.3201L58.6334 72.4001C59.2434 72.5301 59.8534 72.7101 60.4534 72.9501C61.0634 73.1901 61.6634 73.3101 62.2234 73.3101C63.6934 73.3101 64.9234 72.5201 65.8234 71.0201C66.8034 69.3301 68.0334 68.1501 69.5534 67.4101L74.9434 77.8001ZM76.8234 52.2701C76.5534 52.5101 76.3734 52.7701 76.2234 52.9801L76.1934 53.0201C76.1334 53.1101 76.0534 53.2301 75.9934 53.2701C73.7734 55.4501 72.7034 58.2101 72.8134 61.4901H72.8034C72.8134 61.6101 72.8134 61.7201 72.8034 61.8301C72.7634 63.0101 72.3634 63.4801 71.2134 63.6901C70.8534 63.7601 70.5534 63.8401 70.2634 63.9101C69.7834 64.0401 69.2934 64.2201 68.8034 64.4301C66.4834 65.4101 64.5934 67.1101 63.1934 69.4801C62.7834 70.1801 62.4834 70.2801 62.2234 70.2801C62.0434 70.2801 61.8334 70.2301 61.5734 70.1301C59.9834 69.4901 58.3534 69.1801 56.7334 69.1801H56.4634C55.7334 69.1901 55.0034 69.2801 54.2834 69.4301C53.1634 69.6501 52.0234 70.0401 50.9134 70.6001C50.6434 70.7301 50.4434 70.7901 50.2634 70.7901C50.0834 70.7901 49.8234 70.7201 49.4334 70.2001C49.2234 69.9401 49.0134 69.7301 48.8134 69.5301L48.7534 69.4701C48.5934 69.3201 48.4434 69.1801 48.3734 69.0701C48.2234 68.8601 48.0534 68.6501 47.8834 68.4601C46.2234 66.5401 44.1234 65.4601 41.6334 65.2401L41.5334 65.2201C41.0034 65.1801 40.5834 65.0801 40.2434 64.9501C40.1134 64.9001 39.9834 64.8401 39.8734 64.7601C39.4834 64.5301 39.2234 64.2001 39.0834 63.7201C38.9834 63.3801 38.9434 62.9901 38.9434 62.5601C38.9434 60.5301 38.2434 58.6601 36.7934 56.8501C36.3334 56.2801 35.7834 55.6901 35.0334 54.9801C34.8434 54.8001 34.6534 54.6201 34.4434 54.4401C33.8634 53.9101 33.7834 53.6201 33.7834 53.4401C33.7834 53.2601 33.8734 53.0201 34.0434 52.7301C34.6934 51.6501 35.1534 50.5301 35.4234 49.3901C35.9334 47.3401 35.8834 45.0901 35.2634 42.7101C35.1834 42.4201 35.1234 42.1701 35.0434 41.9701C34.8734 41.3801 34.9234 41.2201 35.4834 40.9201H35.5034C35.5834 40.8501 35.6534 40.8001 35.7234 40.7501C39.0234 39.0301 41.2134 36.2601 42.2234 32.5701C42.4734 31.6601 42.7734 31.5201 43.3934 31.5201H43.6734C44.0534 31.5701 44.4334 31.5801 44.8634 31.5801C45.7834 31.5801 46.6934 31.4701 47.5634 31.2701C49.7934 30.8001 51.8734 29.7101 53.7234 28.0301C53.9034 27.8501 54.0834 27.7301 54.2334 27.6701C54.3034 27.6401 54.3534 27.6301 54.4034 27.6301C54.5734 27.6301 54.7834 27.7601 54.9334 27.8801L55.1334 28.0401C57.4834 29.8301 60.1834 30.7301 63.1634 30.7301C63.9934 30.7301 64.8534 30.6701 65.7134 30.5301C65.8434 30.5101 65.9634 30.4901 66.0634 30.4901C66.4834 30.4901 66.5634 30.6501 66.6834 31.0001C67.9534 34.7901 70.5634 37.5501 74.4134 39.1901C74.6834 39.3101 74.8534 39.4401 74.9134 39.5301C74.9134 39.5301 74.9234 39.5401 74.9234 39.5601C74.9334 39.5601 74.9434 39.5901 74.9334 39.6201C74.9534 39.6801 74.9434 39.7601 74.9134 39.8801V39.9001L74.8834 40.0501V40.1001C74.8734 40.2601 74.8634 40.3901 74.8634 40.5301V40.6801C74.4834 42.2501 74.4134 43.8401 74.6434 45.4001C74.9334 47.3101 75.6934 49.1801 76.8934 50.9401C77.3434 51.6001 77.2734 51.8301 76.8234 52.2701Z" fill="#272729"/>
<path d="M51.7534 73.54L46.3634 83.32L42.4934 78.88C42.2634 78.62 41.9534 78.45 41.6134 78.42L36.0234 77.79L40.9834 68.24C41.1034 68.25 41.2334 68.26 41.3834 68.27C42.6034 68.38 43.6434 68.77 44.5634 69.48C44.9234 69.76 45.2634 70.08 45.5934 70.47C45.7034 70.58 45.7934 70.7 45.9034 70.83L45.9434 70.89C46.1734 71.2 46.4334 71.46 46.6434 71.66C46.8334 71.84 46.9534 71.96 47.0234 72.06C47.9134 73.22 49.0134 73.83 50.2434 73.83C50.7334 73.83 51.2234 73.73 51.7534 73.54Z" fill="#FFD500"/>
<path d="M74.9438 77.7999L69.3538 78.4199C69.0138 78.4599 68.6938 78.6299 68.4738 78.8899L64.6238 83.3199L58.6338 72.3999C59.2438 72.5299 59.8538 72.7099 60.4538 72.9499C61.0638 73.1899 61.6638 73.3099 62.2238 73.3099C63.6938 73.3099 64.9238 72.5199 65.8238 71.0199C66.8038 69.3299 68.0338 68.1499 69.5538 67.4099L74.9438 77.7999Z" fill="#FFD500"/>
<path d="M76.8237 52.2699C76.5637 52.5099 76.3737 52.7699 76.2337 52.9799L76.2037 53.0199C76.1337 53.1099 76.0637 53.2299 76.0037 53.2699C73.7837 55.4399 72.7137 58.2099 72.8237 61.4899H72.8137C72.8237 61.6099 72.8237 61.7199 72.8137 61.8299C72.7737 63.0099 72.3737 63.4799 71.2237 63.6999C70.8637 63.7699 70.5537 63.8399 70.2737 63.9199C69.7937 64.0499 69.3037 64.2299 68.8037 64.4299C66.4837 65.4099 64.6037 67.1199 63.2037 69.4899C62.7837 70.1899 62.4937 70.2899 62.2337 70.2899C62.0637 70.2899 61.8437 70.2399 61.5837 70.1399C59.9837 69.5099 58.3537 69.1899 56.7337 69.1899H56.4737C55.7437 69.1999 55.0037 69.2899 54.2837 69.4399C53.1637 69.6599 52.0337 70.0499 50.9137 70.6099C50.6537 70.7399 50.4437 70.8099 50.2637 70.8099C50.0737 70.8099 49.8237 70.7299 49.4337 70.2199C49.2237 69.9599 49.0137 69.7499 48.8137 69.5399L48.7637 69.4899C48.6037 69.3399 48.4537 69.1999 48.3837 69.0899C48.2337 68.8799 48.0637 68.6699 47.8937 68.4799C46.2437 66.5699 44.1437 65.4899 41.6437 65.2699L41.5437 65.2499C41.0137 65.2099 40.5937 65.1099 40.2537 64.9799C40.1237 64.9299 39.9937 64.8699 39.8837 64.7899C39.5037 64.5599 39.2337 64.2199 39.0937 63.7399C38.9937 63.3999 38.9537 63.0199 38.9537 62.5799C38.9537 60.5499 38.2537 58.6799 36.8137 56.8799C36.3537 56.2999 35.7937 55.7099 35.0537 54.9999C34.8637 54.8299 34.6737 54.6399 34.4637 54.4599C33.8837 53.9199 33.8037 53.6399 33.8037 53.4599C33.8037 53.2899 33.8937 53.0399 34.0537 52.7499C34.7137 51.6799 35.1737 50.5499 35.4437 49.4199C35.9437 47.3699 35.9037 45.1199 35.2837 42.7299C35.2037 42.4499 35.1437 42.1899 35.0637 41.9899C34.8937 41.3999 34.9437 41.2499 35.5037 40.9399H35.5237C35.6037 40.8699 35.6737 40.8199 35.7437 40.7799C39.0437 39.0499 41.2337 36.2899 42.2437 32.5999C42.4937 31.6899 42.7937 31.5499 43.4137 31.5499H43.6937C44.0637 31.5899 44.4537 31.5999 44.8737 31.5999C45.7937 31.5999 46.7137 31.4899 47.5737 31.2899C49.8037 30.8199 51.8837 29.7299 53.7337 28.0499C53.9237 27.8799 54.0937 27.7499 54.2437 27.6899C54.3137 27.6699 54.3637 27.6599 54.4037 27.6599C54.5737 27.6599 54.7837 27.7899 54.9437 27.9099L55.1437 28.0599C57.4937 29.8499 60.1937 30.7599 63.1737 30.7599C64.0037 30.7599 64.8537 30.6899 65.7237 30.5499C65.8537 30.5299 65.9737 30.5199 66.0737 30.5199C66.4937 30.5199 66.5737 30.6699 66.6937 31.0199C67.9637 34.8099 70.5637 37.5699 74.4137 39.2099C74.6837 39.3299 74.8537 39.4599 74.9137 39.5499C74.9237 39.5699 74.9837 39.6499 74.9137 39.8999V39.9199L74.8837 40.0699V40.1099C74.8737 40.2699 74.8637 40.4099 74.8637 40.5499V40.6899C74.4937 42.2599 74.4137 43.8599 74.6437 45.4099C74.9437 47.3199 75.6937 49.1899 76.8937 50.9599C77.3437 51.6199 77.2737 51.8399 76.8137 52.2799L76.8237 52.2699Z" fill="#FFD500"/>
<path d="M65.7239 45.6401L52.2239 58.2701L45.2539 51.7501L49.0539 48.2101L52.2039 51.1501L61.9039 42.0901L65.7239 45.6401Z" fill="#F5370D"/>
<path d="M61.9039 40.73L52.2039 49.78L49.0539 46.85L43.7939 51.75L52.2239 59.64L67.1839 45.64L61.9039 40.73ZM49.0539 48.21L52.2039 51.15L61.9039 42.09L65.7239 45.64L52.2239 58.27L45.2539 51.75L49.0539 48.21Z" fill="#272729"/>
</svg>
