<svg width="110" height="110" viewBox="0 0 110 110" fill="none" xmlns="http://www.w3.org/2000/svg">
<path d="M95.2586 21.801V11.6229C95.2586 10.4631 94.4674 9.48303 93.3345 9.23128L90.5562 8.63786C88.8658 8.26023 87.1035 7.88259 85.1794 7.47799C83.579 7.13632 81.9786 6.79466 80.3781 6.45299L78.0044 5.94049L75.9994 5.50891C69.5257 4.12426 62.8272 2.69466 56.1288 1.39093C55.6792 1.30102 55.2027 1.25606 54.6272 1.24707C54.0878 1.25606 53.6022 1.30102 53.1617 1.38194C45.9957 2.78457 38.5329 4.38501 31.9424 5.79663L31.2501 5.94049C28.8674 6.45299 26.4757 6.96549 24.084 7.47799C22.052 7.90957 20.2897 8.2872 18.6983 8.63786L15.929 9.23128C14.7961 9.47404 14.0049 10.4541 14.0049 11.6229V21.9808C14.0049 33.7414 14.0049 42.9394 14.0229 52.515C14.0229 53.9356 14.1937 55.4282 14.5354 56.9477C18.1858 73.3477 27.7075 85.4589 42.8397 92.9306L40.7538 96.8328L38.5959 100.879C38.2003 101.616 37.8586 102.47 38.2452 103.19C38.6588 103.927 39.5849 104.071 40.3402 104.116C40.6549 104.143 40.9606 104.152 41.2753 104.17L41.7338 104.197C42.8487 104.242 43.6849 104.304 44.4492 104.394C44.7189 104.421 45.0786 104.601 45.2314 104.79C45.9058 105.563 46.5441 106.399 47.0836 107.119C47.3623 107.487 47.6411 107.838 47.9108 108.207C48.2794 108.665 48.8459 109.268 49.5652 109.268C49.6101 109.268 49.6551 109.268 49.7001 109.268C50.4913 109.205 50.9678 108.512 51.3005 107.919C51.6332 107.299 51.9658 106.669 52.2895 106.049C52.4244 105.806 52.5503 105.554 52.6851 105.312C52.82 105.06 52.9549 104.808 53.0897 104.565C53.9529 102.947 54.8251 101.328 55.7062 99.674L56.4615 98.2624L56.5783 98.0376L58.1338 100.978C58.6733 101.985 59.2128 102.992 59.7522 104.008C60.4536 105.321 61.1549 106.642 61.8562 107.955C62.1439 108.503 62.6294 109.241 63.4386 109.295C63.4476 109.304 63.5106 109.304 63.5555 109.304C64.2928 109.304 64.8413 108.71 65.2459 108.198L65.4257 107.964C65.5606 107.784 65.7044 107.613 65.8483 107.433C66.4777 106.633 67.0441 105.914 67.5746 105.114C67.9522 104.538 68.3389 104.331 68.9862 104.331H69.0582C69.184 104.331 69.3099 104.331 69.4358 104.331C70.3619 104.331 71.297 104.251 72.1242 104.17C72.3579 104.152 72.5917 104.134 72.8255 104.107C73.6167 104.053 74.4889 103.9 74.8845 103.199C75.2621 102.497 74.9564 101.706 74.5608 100.96C74.4619 100.771 74.354 100.573 74.2371 100.393L72.4479 96.9677L71.234 94.6749C70.6406 93.56 70.0562 92.4451 69.4628 91.3302C82.8417 83.7685 91.3384 72.1968 94.7281 56.9387C95.0788 55.3832 95.2496 53.8907 95.2496 52.506C95.2766 42.9304 95.2766 33.6784 95.2766 21.9718V21.792H95.2586V21.801ZM67.9792 90.3052L67.4397 90.6019L67.2869 90.6918L67.3678 90.8446L67.6555 91.3841L67.7544 91.5819C68.8244 93.6229 69.9033 95.6819 71.0003 97.7229L72.7356 101.005L72.8255 101.176C72.9244 101.346 73.0233 101.526 73.1132 101.706C73.311 102.075 73.3829 102.29 73.4189 102.398C73.32 102.425 73.1132 102.479 72.6906 102.515C72.5647 102.524 72.4389 102.533 72.304 102.551C72.1871 102.56 72.0792 102.569 71.9713 102.578C71.0362 102.659 70.263 102.731 69.4628 102.731C69.3369 102.731 69.211 102.731 69.0851 102.731H68.9503C67.7634 102.731 66.9003 103.208 66.2259 104.224C65.7674 104.907 65.2459 105.572 64.7424 106.211L64.5625 106.435C64.3198 106.732 64.122 106.984 63.9601 107.218C63.7713 107.451 63.6454 107.577 63.5735 107.649C63.5106 107.586 63.4117 107.451 63.2678 107.182C62.3417 105.455 61.4066 103.711 60.4805 101.967L59.5454 100.204L57.7382 96.7968C57.6753 96.6799 57.6123 96.572 57.5404 96.4462L57.4505 96.2933L56.6862 94.9896L56.5244 94.7109L56.3715 94.9896L55.0318 97.4892C53.89 99.6201 52.7661 101.706 51.6691 103.792C51.3724 104.322 51.1027 104.808 50.8599 105.285C50.5003 105.986 50.1856 106.579 49.8709 107.128C49.754 107.344 49.6461 107.514 49.5562 107.613C49.4843 107.55 49.3584 107.433 49.1696 107.209C48.8998 106.858 48.6301 106.498 48.3604 106.148C47.7939 105.392 47.1286 104.52 46.4452 103.738C46.0316 103.244 45.2944 102.866 44.62 102.794C43.8018 102.695 42.9746 102.641 42.1744 102.596L41.8147 102.578C41.4011 102.578 40.9606 102.542 40.4481 102.506C40.1604 102.497 39.9266 102.461 39.7378 102.407C39.7198 102.407 39.7018 102.398 39.6928 102.389C39.7198 102.263 39.7917 102.039 40.0075 101.625L40.0794 101.481C41.599 98.631 43.1185 95.7898 44.647 92.9486L44.9527 92.3731L45.0426 92.2113L44.8808 92.1304L44.2963 91.8427C29.1821 84.6317 19.6963 72.7723 16.0998 56.606C15.7851 55.1764 15.6233 53.7918 15.6233 52.506C15.5963 42.9394 15.5963 33.6874 15.5963 21.9808V11.6229C15.5963 11.2273 15.8661 10.8947 16.2527 10.8047L19.022 10.2023C20.8022 9.81571 22.6095 9.42909 24.4077 9.05145L26.9882 8.494C28.5167 8.16132 30.0452 7.83764 31.5737 7.51395L34.1902 6.9565C40.1873 5.67974 46.9847 4.22317 53.4404 2.96439C53.818 2.89246 54.2047 2.84751 54.6183 2.83852C55.0318 2.83852 55.4185 2.88347 55.8141 2.96439C63.097 4.38501 70.3709 5.94948 77.402 7.45102L77.6718 7.50496C79.2003 7.82865 80.7288 8.16132 82.2573 8.48501L84.8378 9.04246C86.645 9.42009 88.4432 9.80672 90.2235 10.1933L92.9928 10.7958C93.3704 10.8857 93.6402 11.2183 93.6402 11.605V21.9629C93.6492 34.8653 93.6402 43.6767 93.6402 52.3082V52.4881C93.6312 53.7468 93.4693 55.1225 93.1457 56.5881C89.8009 71.6304 81.3312 82.9773 67.9792 90.2962V90.3052Z" fill="black"/>
<path d="M85.1078 20.5426C85.1078 20.4527 85.0988 20.3628 85.0898 20.2729C85.0898 20.174 85.0718 20.084 85.0718 19.9851L85.0448 19.7244C85.0269 19.5985 85.0179 19.4636 85.0089 19.3288C85.0089 19.3108 85.0089 19.2838 85.0089 19.2568C84.9999 19.113 84.9729 19.0141 84.9459 18.9062C84.9459 18.9062 84.9459 18.8612 84.928 18.8163V18.7803L84.91 18.7623C84.91 18.7623 84.883 18.6904 84.874 18.6544C84.856 18.6005 84.847 18.5645 84.8291 18.5196C84.8111 18.4746 84.7931 18.4386 84.7661 18.4117C84.7481 18.3577 84.7212 18.3128 84.7032 18.2678V18.2408L84.6582 18.1869C84.6492 18.1599 84.6223 18.115 84.5863 18.079C84.5593 18.034 84.4964 17.9531 84.4424 17.8812L84.4155 17.8452C84.0468 17.4226 83.5613 17.1439 83.0218 17.018C80.5762 16.5055 78.1576 16.02 75.8828 15.5615C71.0995 14.6084 65.1473 13.4305 59.5727 11.956C58.1071 11.5604 56.5966 11.3625 54.9692 11.3625C54.8613 11.3625 54.7534 11.3625 54.6455 11.3625C54.5376 11.3625 54.4297 11.3625 54.3218 11.3625C52.6854 11.3625 51.1749 11.5604 49.7003 11.956C44.0988 13.4305 37.9128 14.6623 33.3992 15.5615C31.2324 15.993 28.7238 16.5055 26.2602 17.018C25.7118 17.1349 25.2352 17.4136 24.8846 17.8452C24.8216 17.9172 24.7227 18.034 24.6418 18.1689C24.5789 18.2768 24.5069 18.3937 24.462 18.5286C24.417 18.6275 24.3811 18.7443 24.3451 18.8612L24.3271 18.9152C24.2911 19.077 24.2732 19.2029 24.2642 19.3378C24.2462 19.4636 24.2372 19.5895 24.2282 19.7154L24.2102 19.9941C24.1922 20.1829 24.1743 20.3718 24.1653 20.5516C24.1563 20.7584 24.1473 20.9562 24.1473 21.154V26.8634C24.1383 34.0204 24.1473 40.3233 24.1563 46.1496V50.4474C24.1563 51.904 24.1563 53.4055 24.4889 54.952C24.5249 55.0959 24.5609 55.2397 24.5878 55.3836C24.6238 55.5275 24.6598 55.6803 24.6957 55.8242L24.7767 56.1838C24.8126 56.3546 24.8576 56.5165 24.8936 56.6873C25.0374 57.2538 25.1993 57.8202 25.3611 58.3777L25.451 58.6744C25.5499 58.9891 25.6398 59.2948 25.7567 59.6095C25.8017 59.7533 25.8556 59.9062 25.9096 60.059C25.9635 60.2209 26.0175 60.3737 26.0714 60.5176C26.0804 60.5535 26.0984 60.5805 26.1074 60.6165C26.1164 60.6524 26.1343 60.6974 26.1433 60.7334C26.1883 60.8503 26.2243 60.9671 26.2692 61.084C26.3411 61.2818 26.4041 61.4796 26.485 61.6774C26.6828 62.2169 26.8986 62.7474 27.1144 63.2599C27.3392 63.7994 27.5729 64.3119 27.8067 64.8064L27.9596 65.1121C28.0585 65.3099 28.1574 65.5077 28.2563 65.7055C28.3552 65.9123 28.4541 66.1101 28.562 66.2989C28.8227 66.7935 29.0925 67.279 29.3622 67.7555C29.6589 68.259 29.9286 68.7176 30.1984 69.1402L30.2253 69.1941C30.5221 69.6527 30.8188 70.1112 31.1335 70.5698C31.4661 71.0283 31.7898 71.4779 32.1225 71.9095C32.3742 72.2331 32.626 72.5478 32.8868 72.8715C33.0396 73.0693 33.1925 73.2492 33.3543 73.429L33.5431 73.6448C33.642 73.7617 33.7499 73.8875 33.8578 74.0044C34.0196 74.1842 34.1905 74.3731 34.3613 74.5619L34.6131 74.8406C34.8199 75.0834 35.0626 75.3351 35.3953 75.6678C36.1955 76.495 37.0227 77.2592 37.8409 77.9606C37.9758 78.0774 38.2455 78.3292 38.5332 78.5989C38.794 78.8507 39.0098 79.0395 39.1806 79.1834C39.1626 79.2283 39.1536 79.2733 39.1357 79.3182C39.1267 79.3722 39.1087 79.4171 39.0997 79.4621C39.0817 79.516 39.0727 79.534 39.0637 79.561C39.0457 79.6329 39.0188 79.7139 39.0188 79.8038C39.0098 79.9386 39.0008 80.0735 39.0188 80.2174C39.0278 80.3792 39.0547 80.5141 39.0907 80.6399C39.1446 80.8288 39.2076 81.0086 39.2975 81.1704C39.4503 81.4581 39.6482 81.7189 39.8909 81.9617C39.9089 81.9796 39.9449 82.0156 39.9718 82.0516L40.0168 82.0875C40.0168 82.0875 40.0797 82.1595 40.1337 82.2134L40.2236 82.2943C40.3135 82.3663 40.4034 82.4472 40.4933 82.5461C40.6192 82.663 40.7271 82.7709 40.826 82.8698C40.9339 82.9687 41.0238 83.0586 41.1137 83.1575L41.1677 83.2114C41.1677 83.2114 41.2216 83.2654 41.2396 83.2924C41.2396 83.2924 41.2396 83.2924 41.2486 83.3013L41.3025 83.3733H41.3205C41.3205 83.3733 41.3565 83.4092 41.3745 83.4272C41.4014 83.4542 41.4284 83.4902 41.4554 83.5171L41.4824 83.5621L41.5183 83.607C41.5183 83.607 41.5813 83.688 41.6172 83.7149C42.3725 84.659 42.7321 85.5941 42.7321 86.6281V86.9877C42.7411 87.1136 42.7501 87.2215 42.7681 87.3294C42.7681 87.4643 42.7951 87.5722 42.8131 87.6711C42.8131 87.6711 42.8131 87.6981 42.8131 87.725L42.831 87.8239C42.84 87.8869 42.858 87.9408 42.885 87.9948C42.885 88.0128 42.894 88.0397 42.912 88.0847V88.1386L42.9299 88.1566L42.9569 88.2196C42.9569 88.2196 42.9659 88.2465 42.9749 88.2645C42.9839 88.3185 43.0109 88.3814 43.0558 88.4353C43.2356 88.8399 43.4874 89.1906 43.7931 89.4873C43.9549 89.6312 44.1168 89.7481 44.2696 89.847C44.8361 90.1886 45.5194 90.3864 46.3646 90.4494C47.5065 90.5573 48.4506 90.9888 49.2598 91.7711C49.3317 91.834 49.3767 91.879 49.4306 91.9419C49.4756 91.9959 49.5205 92.0318 49.5565 92.0768L49.5745 92.1038L49.6284 92.1667C49.6644 92.2027 49.7003 92.2476 49.7363 92.2836C49.7723 92.3285 49.7992 92.3645 49.8352 92.4005V92.4184L49.8712 92.4544V92.4724C50.033 92.6702 50.1949 92.832 50.3477 92.9849L50.4017 93.0388H50.4106L50.5275 93.1557L50.5905 93.2277C50.5905 93.2277 50.6354 93.2816 50.6534 93.2996C50.7253 93.3985 50.8063 93.4974 50.8782 93.5783C51.3997 94.1538 52.0471 94.4685 52.7394 94.4685C53.135 94.4685 53.5666 94.3606 54.0521 94.1268C55.167 93.5783 56.2999 93.2996 57.4238 93.2996C58.3409 93.2996 59.267 93.4794 60.1841 93.8481C60.5797 94.0099 60.9753 94.0908 61.344 94.0908C62.0363 94.0908 62.6657 93.8031 63.1782 93.2726L63.2231 93.2366C63.394 93.0658 63.5558 92.85 63.7087 92.5803C63.9065 92.2656 64.0953 91.9779 64.3111 91.6992C64.3381 91.6632 64.356 91.6452 64.374 91.6182C64.401 91.5913 64.428 91.5553 64.4549 91.5193C64.5898 91.3485 64.7157 91.2136 64.8416 91.0877C64.9225 90.9978 64.9944 90.9259 65.0753 90.854C65.1832 90.7461 65.2642 90.6742 65.3361 90.6292C65.417 90.5663 65.4979 90.5033 65.5699 90.4494L65.6238 90.4134C65.6238 90.4134 65.7137 90.3505 65.7587 90.3145C65.8126 90.2785 65.8576 90.2426 65.9025 90.2066C65.9565 90.1796 66.0194 90.1347 66.0913 90.0987L66.1902 90.0448C66.7837 89.7121 67.449 89.4693 68.1863 89.3255C68.9595 89.1726 69.535 88.8939 69.9666 88.4713C70.0025 88.4263 70.0205 88.4084 70.0295 88.3994L70.0475 88.3814H70.0745L70.1194 88.3185L70.1824 88.2825V88.2465C70.1824 88.2465 70.2363 88.1926 70.2543 88.1476C70.2723 88.1296 70.3082 88.1027 70.3262 88.0577C70.3802 87.9858 70.4161 87.9318 70.4611 87.8599L70.524 87.734L70.578 87.6261C70.6229 87.5272 70.6589 87.4373 70.6859 87.3384C70.7038 87.3114 70.7128 87.2575 70.7218 87.2035C70.7578 87.0867 70.7938 86.9518 70.8207 86.8079C70.8567 86.5831 70.8747 86.4033 70.8837 86.2055V85.8279C70.8207 83.9757 71.3872 82.5011 72.61 81.3143C72.7538 81.1704 72.8617 81.0266 72.9516 80.8917L72.9786 80.8467C73.0416 80.7568 73.1135 80.6489 73.1674 80.604C73.2753 80.5051 73.3652 80.3972 73.4641 80.2803C73.59 80.1274 73.6709 79.9836 73.7519 79.8487C73.9047 79.552 73.9946 79.2553 74.0216 78.9406C74.0216 78.8237 74.0216 78.7068 74.0216 78.5989C74.0126 78.482 73.9946 78.3652 73.9677 78.2303C73.9227 78.0685 73.8688 77.9246 73.8058 77.7627L73.7878 77.7088C73.7519 77.6459 73.7159 77.5829 73.671 77.511L73.617 77.4211L73.599 77.3851C73.572 77.3222 73.5361 77.2592 73.4911 77.1873L73.4552 77.1244C73.2933 76.8816 73.1495 76.6478 73.0326 76.4231L73.0955 76.3511C73.1495 76.2972 73.2124 76.2342 73.2753 76.1623C73.3113 76.1174 73.3563 76.0814 73.3922 76.0364C73.5001 75.9285 73.599 75.8296 73.6979 75.7217C73.8957 75.5149 74.0756 75.3351 74.2464 75.1643L74.4802 74.9305C74.4802 74.9305 74.5431 74.8676 74.5701 74.8406C74.615 74.7956 74.66 74.7507 74.6959 74.6967C74.7679 74.6338 74.8398 74.5529 74.8938 74.4989L74.9477 74.445L75.3703 73.9595L75.7929 73.4829L75.8109 73.4649V73.447L75.9367 73.3031C76.1615 73.0334 76.3863 72.7636 76.5931 72.4939C76.674 72.395 76.7459 72.2961 76.8269 72.1882C76.8988 72.1073 76.9887 71.9994 77.0606 71.8915C77.0966 71.8645 77.1326 71.8106 77.1685 71.7656L77.3663 71.4959C77.5821 71.2081 77.7979 70.9204 78.0047 70.6237C78.0587 70.5338 78.1126 70.4619 78.1666 70.381C78.2025 70.327 78.2475 70.2731 78.2834 70.2101L78.3374 70.1292C78.3913 70.0573 78.4363 69.9853 78.4902 69.9134C78.6791 69.6347 78.8679 69.356 79.0387 69.0862L79.2365 68.7715C79.4073 68.4928 79.5782 68.2141 79.74 67.9353C79.767 67.8814 79.794 67.8364 79.812 67.7825C80.0098 67.4678 80.2076 67.1081 80.3964 66.7485C80.4323 66.6766 80.4773 66.5956 80.5223 66.5237C80.5672 66.4428 80.6122 66.3709 80.6481 66.2899C80.774 66.0562 80.8909 65.8224 81.0078 65.5886C81.0797 65.4538 81.1427 65.3099 81.2146 65.175C81.2506 65.1031 81.2865 65.0222 81.3225 64.9503C81.3584 64.8783 81.3854 64.8064 81.4214 64.7345C81.6102 64.3389 81.79 63.9432 81.9698 63.5566C82.0328 63.4038 82.0867 63.2779 82.1407 63.152C82.2756 62.8283 82.4104 62.4957 82.5453 62.163L82.6622 61.8753C82.7071 61.7674 82.7431 61.6505 82.7791 61.5426C82.9589 61.093 83.1297 60.6255 83.2916 60.1579C83.3095 60.086 83.3185 60.05 83.3365 60.0051C83.3635 59.9332 83.3725 59.8882 83.3905 59.8343C83.5433 59.4117 83.6872 58.9531 83.8131 58.5125C83.84 58.4406 83.867 58.3507 83.894 58.2518L84.0019 57.8832C84.1098 57.4875 84.2267 57.0829 84.3345 56.6783C84.4874 56.0939 84.6312 55.4915 84.7571 54.916C84.8291 54.5834 84.883 54.2237 84.937 53.7652V53.6932C84.9729 53.5224 84.9909 53.3516 85.0089 53.1897C85.0089 53.0908 85.0089 53.0009 85.0089 52.92C85.0089 52.8571 85.0089 52.7941 85.0179 52.7312C85.0179 52.6772 85.0179 52.6143 85.0179 52.5603C85.0359 52.3176 85.0448 52.0838 85.0448 51.841C85.0718 51.3645 85.0718 50.879 85.0718 50.4114V44.1625C85.0898 38.3542 85.0898 32.5189 85.0898 26.8364V21.2349L85.1078 21.118C85.1078 20.9832 85.1078 20.8483 85.0898 20.7134V20.5156L85.1078 20.5426ZM72.1964 72.1342C72.2144 71.9994 72.2324 71.8555 72.2593 71.7117C72.2773 71.6397 72.2953 71.5498 72.3043 71.4689C72.3043 71.4149 72.3223 71.352 72.3492 71.2981C72.3762 71.1542 72.3852 71.0463 72.3942 70.9294V70.8305C72.3942 70.7766 72.3942 70.7226 72.4032 70.6687C72.547 70.0483 72.4392 69.4549 72.0975 68.9514C72.0166 68.8345 71.9356 68.7356 71.8547 68.6636C71.6299 68.4299 71.3242 68.2231 70.9376 68.0522C69.6249 67.4858 68.6089 66.7665 67.8266 65.8314C67.6648 65.6246 67.494 65.4088 67.3411 65.184C67.1793 64.9413 67.0444 64.6985 66.9185 64.4737C66.7387 64.1321 66.5769 63.7544 66.415 63.2869C66.0554 62.2169 65.2462 61.6325 64.1403 61.6325C63.9694 61.6325 63.7986 61.6505 63.6188 61.6774C63.0883 61.7584 62.5668 61.8033 62.0723 61.8033C60.337 61.8033 58.8174 61.2908 57.4328 60.2389L57.3159 60.1489C56.8214 59.7533 56.3089 59.5555 55.7694 59.5555C55.4817 59.5555 55.203 59.6095 54.9242 59.7264C54.6006 59.8612 54.3039 60.059 53.9981 60.3378C52.9282 61.3178 51.7324 61.9562 50.4466 62.2259C49.9251 62.3428 49.4036 62.4057 48.8821 62.4057C48.6394 62.4057 48.4056 62.4057 48.1808 62.3788C48.0729 62.3788 47.956 62.3698 47.8482 62.3698C46.4725 62.3698 45.5464 63.116 45.1688 64.5277C44.5663 66.7125 43.3435 68.259 41.4194 69.2481C41.3475 69.275 41.2846 69.329 41.2036 69.3829C41.1137 69.4369 41.0328 69.4818 40.9519 69.5358L40.8889 69.5807L40.817 69.6347C40.7451 69.6886 40.6821 69.7426 40.6192 69.7965C40.5203 69.8774 40.4484 69.9674 40.3854 70.0483C40.3315 70.1022 40.2775 70.1652 40.2416 70.2371C40.1607 70.345 40.0797 70.4889 40.0348 70.6237C39.9988 70.6777 39.9808 70.7586 39.9539 70.8485C39.819 71.2801 39.837 71.7926 40.0078 72.359C40.0078 72.386 40.0258 72.422 40.0348 72.4579C40.0438 72.4939 40.0528 72.5299 40.0617 72.5658L40.0707 72.6108C40.0887 72.6737 40.1067 72.7456 40.1247 72.8176C40.2146 73.2042 40.2955 73.5908 40.3585 73.9774C40.4034 74.391 40.4394 74.7237 40.4394 75.0744C40.4394 75.6318 40.3764 76.1713 40.2416 76.7198L40.2236 76.8007C40.2056 76.8726 40.1876 76.9356 40.1696 77.0075C40.0977 77.2323 40.0168 77.457 39.9179 77.6908C39.819 77.5919 39.7201 77.502 39.6302 77.4121C39.3425 77.1603 39.0907 76.9266 38.9558 76.8097L38.9378 76.7917L38.9019 76.7467L38.8479 76.6928H38.83C37.9578 75.9285 37.2205 75.2272 36.5372 74.5259C36.2585 74.2472 35.9887 73.9685 35.719 73.6807L35.4223 73.366L35.0716 72.9704C34.8378 72.7007 34.6041 72.431 34.3793 72.1612C33.3813 70.9564 32.4372 69.6527 31.565 68.304C28.9846 64.2579 27.1234 59.6454 26.0354 54.5924C25.7387 53.2167 25.7387 51.8051 25.7387 50.4294V49.9799C25.7118 42.2654 25.7118 34.434 25.7118 26.8544V21.145C25.7118 21.0371 25.7118 20.9292 25.7297 20.8213C25.7297 20.7584 25.7297 20.6954 25.7387 20.6415C25.7387 20.5875 25.7387 20.5246 25.7387 20.4707C25.7477 20.3987 25.7567 20.3178 25.7567 20.2369V20.129L25.7927 19.8862C25.7927 19.8233 25.8017 19.7604 25.8107 19.7064C25.8107 19.6255 25.8286 19.5356 25.8286 19.4367C25.8466 19.0411 26.1613 18.6904 26.5569 18.5915C28.6069 18.1509 30.6929 17.7373 32.5271 17.3687L33.678 17.1349C38.4793 16.1818 44.4585 14.995 50.078 13.5115C51.4446 13.1428 52.8383 12.972 54.3668 12.972H54.8253C56.3359 12.972 57.7385 13.1518 59.1142 13.5115C64.7157 14.995 70.7038 16.1818 75.5141 17.1349C76.2604 17.2878 77.0427 17.4496 77.8609 17.6115C79.3894 17.9172 81.0168 18.2498 82.6352 18.5915C82.878 18.6454 83.0398 18.7893 83.1387 18.8972C83.2016 18.9781 83.2646 19.068 83.2916 19.149C83.3365 19.2389 83.3635 19.3468 83.3725 19.4367C83.3725 19.4996 83.3725 19.5536 83.3815 19.6165C83.3815 19.6255 83.3815 19.6435 83.3815 19.6615C83.3815 19.6615 83.3815 19.6794 83.3815 19.6884C83.3905 19.7604 83.3995 19.8143 83.3995 19.8682L83.4174 20.129L83.4714 20.6595V20.8932C83.4714 20.9922 83.4714 21.0731 83.4714 21.154V26.8634C83.4714 28.6167 83.4714 30.388 83.4804 32.1682C83.4804 35.1893 83.4804 38.2283 83.4714 41.2764C83.4714 44.1895 83.4624 47.1027 83.4534 49.9978V50.4384C83.4534 51.8051 83.4534 53.2257 83.1477 54.6014C82.824 56.0669 82.4734 57.3796 82.0777 58.6204L81.9878 58.9081C81.8979 59.1959 81.808 59.4746 81.7091 59.7533C81.3405 60.8413 80.9089 61.9382 80.4324 63.0351C80.1356 63.7185 79.803 64.4198 79.4523 65.1211C79.0927 65.8224 78.724 66.4967 78.3554 67.1261C77.9148 67.8724 77.4473 68.6187 76.9617 69.329C76.4313 70.1022 75.9367 70.7766 75.4332 71.406C74.8758 72.1163 74.3183 72.7816 73.7699 73.375C73.6979 73.456 73.5451 73.6178 73.3473 73.8246C73.2124 73.9685 73.0506 74.1303 72.8887 74.3011C72.8348 74.3641 72.7808 74.418 72.7269 74.463L72.646 74.5439C72.646 74.5439 72.565 74.6338 72.5201 74.6698C72.4841 74.7147 72.4391 74.7507 72.4032 74.7957L72.3762 74.8226C72.3492 74.7417 72.3313 74.6608 72.3133 74.5799C72.2593 74.3731 72.2323 74.1753 72.2054 74.0044C72.1784 73.8426 72.1514 73.6717 72.1424 73.5099C72.1245 73.2851 72.1245 73.0603 72.1245 72.8356C72.1245 72.6018 72.1514 72.377 72.1784 72.1432L72.1964 72.1342Z" fill="black"/>
<path d="M45.8599 37.1043L45.8419 33.8584C45.824 30.1361 43.2794 27.5376 39.656 27.5376H39.602L31.9865 27.5736H31.8066V27.7534L31.8786 43.3442V43.524H32.0584L39.674 43.488C43.2615 43.47 45.8599 40.7817 45.8509 37.1043H45.8599ZM39.1705 31.4398C40.8518 31.4398 41.67 32.285 41.679 34.0113L41.697 36.9874C41.697 38.6867 40.8698 39.5499 39.2154 39.5589L36.0055 39.5768L35.9696 31.4578L39.1794 31.4398H39.1705Z" fill="black"/>
<path d="M77.3482 43.2632V43.0834L77.3302 39.5678V39.388H77.1504L70.5059 39.4149L77.2943 30.4956L77.3302 30.4507V30.3877L77.3212 27.4926L77.3123 27.3127H77.1324L65.6327 27.3667H65.4528V27.5465L65.4708 31.0531V31.2329H65.6506L71.8815 31.197L65.1112 40.1163L65.0752 40.1702V40.2331L65.0932 43.1463V43.3261L65.273 43.3171L77.1684 43.2632H77.3482Z" fill="black"/>
<path d="M61.7658 35.5217L61.6399 35.3958L61.514 35.5217L56.4699 40.6107L54.9324 39.0912L59.9585 34.0111L60.0844 33.8853L59.9585 33.7594L57.6298 31.4486L57.5039 31.3228L57.378 31.4486L53.9974 34.8653L52.334 36.5377L50.7875 35.0002L55.7327 30.019L55.8585 29.8931L55.7327 29.7673L53.4219 27.4745L53.287 27.3486L53.1612 27.4745L48.1171 32.5635L47.9912 32.6984L48.1171 32.8243L50.302 34.9912L48.1171 37.194L47.9912 37.3199L48.1171 37.4548L49.7895 39.1092L48.1351 40.7815L48.0092 40.9074L48.1351 41.0333L50.4548 43.335L50.5807 43.4609L50.7066 43.335L52.3609 41.6537L54.0513 43.3081L54.1772 43.4339L54.3031 43.3081L56.4699 41.1232L58.6728 43.2991L58.7987 43.4249L58.9245 43.2991L64.1035 38.0842L64.2294 37.9493L64.0945 37.8234L61.7658 35.5217Z" fill="black"/>
<path d="M38.3259 55.1855L38.146 55.1675C37.7235 55.1675 37.4267 55.0686 37.2199 54.8618C37.0131 54.655 36.9052 54.3493 36.8963 53.9537L36.8783 50.7258H39.0991V49.0265H36.8513V47.453V47.2732H36.3298L36.2759 47.3271L33.6504 50.1414L33.6055 50.1953V50.7438H34.9631L34.9811 54.0975C34.9811 54.673 35.098 55.1765 35.3318 55.6171C35.5745 56.0576 35.9072 56.3993 36.3388 56.6241C36.7704 56.8489 37.2739 56.9567 37.8493 56.9567H39.18V55.1765H38.3349L38.3259 55.1855Z" fill="black"/>
<path d="M48.1176 49.1615V48.9817H46.5801L46.5531 49.1255L46.4362 49.7549C45.7079 49.1255 44.8358 48.8198 43.7838 48.8198C42.6149 48.8198 41.6259 49.2244 40.8437 50.0157C40.0704 50.7889 39.6748 51.7869 39.6748 52.9738C39.6748 54.1606 40.0794 55.1407 40.8706 55.9319C41.6439 56.7051 42.6239 57.1007 43.7838 57.1007C44.8268 57.1007 45.6989 56.7861 46.4272 56.1657L46.5351 56.7591L46.5621 56.9119H48.1535V56.7321L48.1176 49.1615ZM41.9136 51.7869C42.1024 51.4363 42.3812 51.1575 42.7318 50.9597C43.0825 50.7619 43.4601 50.663 43.9097 50.654C44.566 50.654 45.0875 50.8429 45.5011 51.2475L45.5461 51.3104C45.9777 51.751 46.1934 52.2904 46.1934 52.9558C46.1934 53.6211 45.9866 54.1696 45.5641 54.6102C45.1325 55.0507 44.602 55.2665 43.9277 55.2665C43.2533 55.2665 42.7048 55.0597 42.2733 54.6192C41.8327 54.1786 41.6169 53.6481 41.6169 52.9738C41.6169 52.5332 41.7158 52.1466 41.9136 51.7869Z" fill="black"/>
<path d="M55.7866 53.7201H55.6697L55.6248 53.828C55.445 54.2595 55.1752 54.5922 54.8066 54.844L54.7706 54.871C54.411 55.1047 54.0244 55.2126 53.5928 55.2126C52.9634 55.2126 52.4509 54.9968 52.0193 54.5653C51.5967 54.1247 51.3809 53.5852 51.3719 52.9288C51.3719 52.4793 51.4619 52.0927 51.6597 51.751C51.8575 51.3913 52.1182 51.1216 52.4509 50.9238C52.7836 50.726 53.1432 50.6271 53.5658 50.6181C54.0244 50.6181 54.4379 50.735 54.8066 50.9598C55.1662 51.1846 55.445 51.4992 55.6248 51.8949L55.6697 51.9938H57.5489L57.495 51.769C57.2792 50.8519 56.8026 50.1146 56.0833 49.5841C55.373 49.0446 54.5279 48.7749 53.5658 48.7749C52.3969 48.7749 51.4079 49.1795 50.6077 49.9797C49.8165 50.771 49.4208 51.76 49.4298 52.9288C49.4298 54.0887 49.8344 55.0867 50.6437 55.878C51.4349 56.6602 52.4149 57.0558 53.5568 57.0558C54.5548 57.0558 55.409 56.7681 56.1283 56.2017C56.8476 55.6262 57.3151 54.8799 57.5309 53.9628L57.5849 53.7381H55.7866V53.7201Z" fill="black"/>
<path d="M62.5304 55.0778L62.2427 55.0598C61.8201 55.0598 61.5234 54.9609 61.3166 54.7541C61.1098 54.5473 61.0019 54.2416 60.9929 53.846L60.975 50.6182H63.1958V48.9188H60.948V47.3454V47.1655H60.4265L60.3725 47.2195L57.7471 50.0337L57.7021 50.0877V50.6361H59.0598L59.0778 53.9899C59.0778 54.5653 59.1947 55.0688 59.4285 55.5094C59.6622 55.95 59.9949 56.2736 60.4355 56.5164C60.8671 56.7412 61.3706 56.8581 61.946 56.8581H63.2767V55.0778H62.5304Z" fill="black"/>
<path d="M66.3155 49.0807V48.9009H66.1357H64.5802H64.4004V49.0807L64.4364 56.6513V56.8311H64.6162H66.1627H66.3425V56.6423L66.3155 49.0807Z" fill="black"/>
<path d="M66.1535 48.0824H66.3333V47.9026V46.3021V46.1223H66.1535H64.5441H64.3643V46.3021V47.9026V48.0824H64.5441H66.1535Z" fill="black"/>
<path d="M75.7384 53.846L75.7923 53.6212H73.8772L73.8322 53.7291C73.6524 54.1607 73.3827 54.4933 73.014 54.7451L72.9601 54.7811V54.7991C72.6004 55.0148 72.2228 55.1137 71.7822 55.1137C71.1528 55.1137 70.6403 54.898 70.2088 54.4664C69.7862 54.0258 69.5704 53.4863 69.5614 52.83C69.5614 52.3804 69.6513 51.9938 69.8491 51.6521C70.0469 51.2925 70.3077 51.0227 70.6403 50.8249C70.973 50.6271 71.3327 50.5282 71.7553 50.5192C72.2138 50.5192 72.6274 50.6361 72.996 50.8609C73.3557 51.0857 73.6344 51.4004 73.8142 51.796L73.8592 51.8949H75.7384L75.6844 51.6701C75.4686 50.753 74.9921 50.0157 74.2728 49.4852C73.5625 48.9458 72.7173 48.676 71.7553 48.676C70.5954 48.676 69.5974 49.0806 68.7971 49.8719C68.0059 50.6541 67.6103 51.6431 67.6193 52.821C67.6193 53.9808 68.0239 54.9789 68.8331 55.7701C69.6243 56.5523 70.6044 56.948 71.7463 56.948C72.7443 56.948 73.5985 56.6602 74.3178 56.0938C75.037 55.5183 75.5046 54.7721 75.7204 53.855L75.7384 53.846Z" fill="black"/>
<path d="M72.0432 79.2549C71.8544 79.4258 71.7195 79.6146 71.6206 79.7674L71.5936 79.8034C71.5487 79.8663 71.4947 79.9563 71.4498 79.9832C69.8493 81.5567 69.0761 83.5438 69.148 85.9174C69.148 86.0074 69.148 86.0793 69.148 86.1602C69.1121 87.0144 68.8333 87.347 68.0061 87.5089C67.7454 87.5538 67.5206 87.6078 67.3228 87.6707C66.9722 87.7696 66.6215 87.8955 66.2618 88.0394C64.5895 88.7497 63.2318 89.9815 62.2158 91.6898C61.9191 92.1933 61.7033 92.2652 61.5145 92.2652C61.3886 92.2652 61.2268 92.2293 61.0469 92.1573C59.8961 91.6988 58.7182 91.474 57.5493 91.474H57.3605C56.83 91.474 56.2996 91.5459 55.7781 91.6538C54.9689 91.8157 54.1507 92.0944 53.3415 92.499C53.1526 92.5979 52.9998 92.6429 52.8739 92.6429C52.739 92.6429 52.5592 92.5889 52.2715 92.2203C52.1186 92.0315 51.9748 91.8786 51.8219 91.7348L51.786 91.6988C51.6691 91.5909 51.5612 91.483 51.5072 91.4111C51.3993 91.2582 51.2825 91.1144 51.1476 90.9705C49.9518 89.5948 48.4412 88.8126 46.634 88.6508L46.5621 88.6328C46.1844 88.5968 45.8787 88.5339 45.627 88.435C45.5281 88.399 45.4382 88.3541 45.3572 88.3001C45.0785 88.1383 44.8897 87.8865 44.7908 87.5448C44.7189 87.3021 44.6919 87.0234 44.6919 86.7087C44.6919 85.2431 44.1884 83.8944 43.1454 82.5907C42.8127 82.1771 42.4081 81.7455 41.8776 81.233C41.7428 81.1071 41.5989 80.9723 41.4551 80.8464C41.0325 80.4598 40.9785 80.253 40.9785 80.1181C40.9785 79.9922 41.0415 79.8214 41.1583 79.6056C41.6349 78.8323 41.9676 78.0231 42.1654 77.2049C42.525 75.7214 42.498 74.094 42.0485 72.3766C41.9945 72.1699 41.9496 71.99 41.8866 71.8372C41.7608 71.4146 41.7967 71.2977 42.2013 71.0819H42.2193C42.2733 71.037 42.3272 70.992 42.3811 70.965C44.7638 69.7152 46.3463 67.7282 47.0746 65.0578C47.2544 64.4014 47.4702 64.3025 47.9197 64.3025H48.1265C48.3963 64.3385 48.675 64.3385 48.9807 64.3385C49.6461 64.3385 50.3114 64.2576 50.9318 64.1137C52.5412 63.7721 54.0428 62.9898 55.3825 61.776C55.5173 61.6501 55.6432 61.5602 55.7511 61.5153C55.7961 61.4973 55.841 61.4883 55.868 61.4883C55.9939 61.4883 56.1467 61.5872 56.2546 61.6681L56.3985 61.776C58.0978 63.0707 60.0489 63.7271 62.1978 63.7271C62.8002 63.7271 63.4116 63.6821 64.041 63.5742C64.1399 63.5563 64.2208 63.5473 64.2928 63.5473C64.5895 63.5473 64.6524 63.6552 64.7423 63.9069C65.6594 66.6402 67.5386 68.6363 70.3169 69.8231C70.5147 69.9131 70.6316 70.003 70.6765 70.0659C70.6765 70.0839 70.7215 70.1378 70.6765 70.3177V70.3356L70.6496 70.4435V70.4795C70.6496 70.5964 70.6316 70.6953 70.6316 70.7942V70.8931C70.3618 72.026 70.3079 73.1769 70.4697 74.3008C70.6855 75.6764 71.225 77.0251 72.0971 78.3109C72.4208 78.7874 72.3759 78.9492 72.0432 79.2639V79.2549Z" fill="#FFD500"/>
<path d="M63.6541 74.8401L54.5549 83.3638L49.8525 78.9671L52.415 76.5755L54.537 78.5625L61.0826 72.4485L63.6541 74.8401Z" fill="#F5370D"/>
<path d="M61.0829 71.5312L54.5463 77.6363L52.4244 75.6582L48.8818 78.958L54.5643 84.2808L64.6524 74.84L61.0919 71.5312H61.0829ZM52.4154 76.5753L54.5373 78.5534L61.0739 72.4484L63.6454 74.84L54.5463 83.3547L49.8439 78.958L52.4064 76.5753H52.4154Z" fill="#272729"/>
<path d="M56.5145 37.275L54.1858 34.9463L52.3696 36.7625L50.5533 34.9463L48.2246 37.275L50.0408 39.0912L48.2246 40.9075L50.5533 43.2362L52.3696 41.42L54.1858 43.2362L56.5145 40.9075L54.6983 39.0912L56.5145 37.275Z" fill="#FF0000"/>
</svg>
