<svg width="140" height="107" viewBox="0 0 140 107" fill="none" xmlns="http://www.w3.org/2000/svg">
<path d="M58.0602 45.9402H40.9102V71.2602H58.0602V45.9402Z" fill="#F5370D"/>
<path d="M56.8099 72.2502H42.1499C40.9199 72.2502 39.9199 71.2502 39.9199 70.0202V47.1802C39.9199 45.9502 40.9199 44.9502 42.1499 44.9502H56.8099C58.0399 44.9502 59.0399 45.9502 59.0399 47.1802V70.0102C59.0399 71.2402 58.0399 72.2402 56.8099 72.2402V72.2502ZM43.1399 70.2702H55.8199C56.5099 70.2702 57.0599 69.7102 57.0599 69.0302V48.1702C57.0599 47.4802 56.4999 46.9302 55.8199 46.9302H43.1399C42.4499 46.9302 41.8999 47.4902 41.8999 48.1702V69.0202C41.8999 69.7102 42.4599 70.2602 43.1399 70.2602V70.2702Z" fill="#272729"/>
<path d="M83.3104 90.4801C79.8204 90.4801 77.4804 87.8201 77.4804 83.8701C77.4804 82.9601 78.2204 82.2201 79.1304 82.2201C80.0404 82.2201 80.7904 82.9601 80.7904 83.8701C80.7904 84.6401 80.9704 87.1701 83.3104 87.1701C85.1204 87.1701 86.6004 85.7001 86.6204 83.9001L86.5404 82.7301C86.4004 80.3001 84.3804 78.4101 81.9504 78.4101H52.0504C51.1404 78.4101 50.4004 77.6701 50.4004 76.7601C50.4004 75.8501 51.1404 75.1101 52.0504 75.1101H81.9504C85.9704 75.1101 89.3304 78.1301 89.8004 82.0701H89.8204L89.8604 82.5401L89.9304 83.7901C89.9304 87.5301 86.9704 90.5001 83.3204 90.5001L83.3104 90.4801Z" fill="#FFD500"/>
<path d="M81.9504 75.6001C85.8604 75.6001 89.1104 78.6601 89.3404 82.5601H89.3504L89.4204 83.8101V83.8801C89.4204 87.2501 86.6804 89.9901 83.3104 89.9901C80.1204 89.9901 77.9804 87.5301 77.9804 83.8801C77.9804 83.2401 78.5004 82.7301 79.1304 82.7301C79.7604 82.7301 80.2904 83.2501 80.2904 83.8801C80.2904 85.7201 81.0804 87.6801 83.3104 87.6801C85.4004 87.6801 87.1004 85.9901 87.1204 83.9101L87.0404 82.7001C86.8804 80.0101 84.6404 77.9101 81.9504 77.9101H52.0504C51.4104 77.9101 50.9004 77.3901 50.9004 76.7601C50.9004 76.1301 51.4104 75.6101 52.0504 75.6101H81.9504M81.9504 74.6101H52.0504C50.8604 74.6101 49.9004 75.5801 49.9004 76.7601C49.9004 77.9401 50.8604 78.9101 52.0504 78.9101H81.9504C84.1204 78.9101 85.9104 80.6001 86.0404 82.7601L86.1204 83.9401C86.0904 85.4601 84.8304 86.6801 83.3104 86.6801C81.4904 86.6801 81.2904 84.7201 81.2904 83.8801C81.2904 82.6901 80.3204 81.7301 79.1304 81.7301C77.9404 81.7301 76.9804 82.7001 76.9804 83.8801C76.9804 88.0701 79.5804 90.9901 83.3104 90.9901C87.2304 90.9901 90.4204 87.8001 90.4204 83.8801V83.7501L90.3504 82.5001L90.3004 81.5601H90.2304C89.5404 77.5901 86.0704 74.6001 81.9504 74.6001V74.6101Z" fill="#272729"/>
<path d="M63.5008 69.9303C62.5808 69.9303 61.8408 69.1903 61.8408 68.2803V67.7803H61.9308C62.1408 67.1103 62.7708 66.6303 63.5008 66.6303H87.1608C91.4108 66.6303 92.4008 65.0003 92.7908 63.4003C93.0408 62.4103 93.0208 61.5403 92.7508 60.8003C92.4408 59.9903 91.7308 59.3403 90.8108 59.0303C90.3508 58.8803 90.0908 58.8503 89.9708 58.8403H89.8408C87.7908 58.8403 87.2008 60.2503 87.1708 60.9903C87.1508 61.8203 87.5608 62.2503 88.3908 62.2803H89.8808C90.8008 62.2803 91.5408 63.0203 91.5408 63.9303C91.5408 64.8403 90.8008 65.5803 89.8808 65.5803H88.3608C85.3008 65.4803 83.7908 63.1403 83.8608 60.8703C83.9408 58.2703 86.0708 55.5203 89.8408 55.5203H90.0708C90.5908 55.5403 91.1908 55.6603 91.8508 55.8803C93.7208 56.5103 95.1708 57.8703 95.8308 59.6203C96.3508 60.9803 96.4108 62.5203 95.9908 64.1903C95.0408 67.9903 92.0608 69.9203 87.1408 69.9203H63.4908L63.5008 69.9303Z" fill="#FFD500"/>
<path d="M89.8407 56.0203C89.9107 56.0203 89.9807 56.0203 90.0607 56.0203C90.5307 56.0403 91.0807 56.1503 91.7007 56.3503C93.4207 56.9303 94.7607 58.1803 95.3707 59.7903C95.8607 61.0703 95.9007 62.5103 95.5107 64.0603C94.6207 67.6103 91.8107 69.4103 87.1507 69.4103H63.5007C62.8607 69.4103 62.3407 68.8903 62.3407 68.2603H62.3507C62.3507 67.6203 62.8607 67.1103 63.5007 67.1103H87.1607C91.7807 67.1103 92.8607 65.1803 93.2807 63.5003C93.5507 62.4103 93.5307 61.4403 93.2207 60.6103C92.8507 59.6503 92.0307 58.9003 90.9707 58.5403C90.4707 58.3703 90.1607 58.3303 89.9907 58.3303C89.9407 58.3303 89.8907 58.3303 89.8407 58.3303C87.5707 58.3303 86.7107 59.8903 86.6707 60.9703C86.6607 61.3803 86.7407 62.7203 88.3707 62.7803H89.8807C90.5207 62.7803 91.0407 63.3003 91.0407 63.9303C91.0407 64.5603 90.5207 65.0803 89.8807 65.0803H88.3207C85.6307 64.9903 84.3007 62.9003 84.3607 60.8903C84.4407 58.4903 86.4007 56.0203 89.8407 56.0203ZM89.8407 55.0203C85.7507 55.0203 83.4507 58.0303 83.3607 60.8603C83.2907 63.3503 84.9207 65.9203 88.1807 66.0803C87.8707 66.1003 87.5307 66.1203 87.1607 66.1203H63.5007C62.6707 66.1203 61.9607 66.5903 61.6007 67.2703H61.3507V68.2703C61.3407 69.4603 62.3107 70.4203 63.5007 70.4203H87.1507C93.6007 70.4203 95.7807 67.1003 96.4807 64.3103C96.9207 62.5403 96.8607 60.9003 96.3007 59.4403C95.5907 57.5503 94.0207 56.0803 92.0107 55.4103C91.2907 55.1703 90.6507 55.0503 90.0907 55.0303C90.0007 55.0303 89.9207 55.0303 89.8407 55.0303V55.0203ZM88.3707 61.7803C88.1107 61.7703 87.6507 61.7503 87.6707 60.9903C87.6707 60.9303 87.7507 59.3303 89.8407 59.3303H89.9607C90.0207 59.3303 90.2407 59.3603 90.6507 59.4903C91.4307 59.7503 92.0207 60.2903 92.2907 60.9703C92.5207 61.6003 92.5307 62.3703 92.3107 63.2603C92.2507 63.5003 92.1807 63.8003 92.0307 64.1103C92.0307 64.0503 92.0307 63.9903 92.0307 63.9303C92.0307 62.7403 91.0607 61.7803 89.8707 61.7803H88.3607H88.3707Z" fill="#272729"/>
<path d="M75.0407 83.2502H33.7707V77.6402C33.7707 77.0002 33.2607 76.4902 32.6207 76.4902C31.9807 76.4902 31.4707 77.0102 31.4707 77.6402V84.4002C31.4707 85.0402 31.9807 85.5502 32.6207 85.5502H75.0407C75.6807 85.5502 76.2007 85.0302 76.2007 84.4002C76.2007 83.7702 75.6807 83.2502 75.0407 83.2502Z" fill="#272729"/>
<path d="M112.79 45.0302L81.2702 16.4802C81.0602 16.2902 80.7802 16.1802 80.4902 16.1802H53.8902C53.8902 16.1802 53.8302 16.1802 53.8002 16.1802C53.7602 16.1802 53.7202 16.1802 53.6802 16.2002C53.6502 16.2002 53.6202 16.2202 53.5902 16.2302C53.5502 16.2402 53.5102 16.2502 53.4702 16.2702C53.4402 16.2802 53.4202 16.3002 53.3902 16.3102C53.3502 16.3302 53.3202 16.3502 53.2802 16.3702C53.2502 16.3902 53.2302 16.4102 53.2002 16.4302C53.1902 16.4402 53.1702 16.4502 53.1502 16.4702L21.3802 45.0202C21.0302 45.3402 20.9102 45.8402 21.0802 46.2902C21.2502 46.7402 21.6802 47.0302 22.1502 47.0302H31.4702V69.8102C31.4702 70.4502 31.9902 70.9602 32.6202 70.9602C33.2502 70.9602 33.7802 70.4402 33.7802 69.8102V45.8802C33.7802 45.2402 33.2602 44.7302 32.6202 44.7302H25.1702L53.9302 18.8802L85.1302 46.7402C85.3402 46.9302 85.6202 47.0302 85.9002 47.0302H97.7602C98.4002 47.0302 98.9202 46.5102 98.9202 45.8802C98.9202 45.2502 98.4002 44.7302 97.7602 44.7302H86.3402L56.9502 18.4902H80.0502L109.02 44.7302H105.36C104.73 44.7302 104.21 45.2502 104.21 45.8802C104.21 46.5102 104.73 47.0302 105.36 47.0302H107.89C107.87 47.1202 107.85 47.2102 107.85 47.3002V76.9102L91.9902 80.1002C91.3602 80.2302 90.9602 80.8402 91.0802 81.4602C91.1902 82.0102 91.6702 82.3902 92.2202 82.3902C92.2902 82.3902 92.3702 82.3902 92.4402 82.3702L109.23 78.9902C109.77 78.8802 110.16 78.4102 110.16 77.8602V47.3102C110.16 47.2202 110.15 47.1302 110.12 47.0402H112.02C112.5 47.0402 112.93 46.7502 113.1 46.3002C113.27 45.8502 113.15 45.3502 112.79 45.0302Z" fill="#272729"/>
<path d="M77.35 61.9602V47.0402H79.06C79.7 47.0402 80.21 46.5202 80.21 45.8902C80.21 45.2602 79.7 44.7402 79.06 44.7402H76.19C75.56 44.7402 75.04 45.2602 75.04 45.8902V61.9602C75.04 62.6002 75.56 63.1102 76.19 63.1102C76.82 63.1102 77.35 62.5902 77.35 61.9602Z" fill="#272729"/>
<path d="M32.6201 75.2101C33.3301 75.2101 33.9101 74.6301 33.9101 73.9201C33.9101 73.2101 33.3301 72.6301 32.6201 72.6301C31.9101 72.6301 31.3301 73.2101 31.3301 73.9201C31.3301 74.6301 31.9101 75.2101 32.6201 75.2101Z" fill="#272729"/>
<path d="M103.021 45.8801C103.021 45.1501 102.431 44.5601 101.701 44.5601C100.971 44.5601 100.391 45.1501 100.391 45.8801C100.391 46.6101 100.981 47.2001 101.701 47.2001C102.421 47.2001 103.021 46.6101 103.021 45.8801Z" fill="#272729"/>
<path d="M37.0602 59.6202C36.1502 59.6202 35.4102 58.8802 35.4102 57.9702C35.4102 57.0602 36.1502 56.3202 37.0602 56.3202H59.6802C62.1102 56.3202 64.1302 54.4202 64.2702 52.0002L64.3502 50.7902C64.3302 49.0202 62.8502 47.5502 61.0402 47.5502C58.7002 47.5502 58.5202 50.0802 58.5202 50.8502C58.5202 51.7602 57.7702 52.5002 56.8602 52.5002C55.9502 52.5002 55.2102 51.7602 55.2102 50.8502C55.2102 46.9002 57.5502 44.2402 61.0402 44.2402C64.5302 44.2402 67.6502 47.2002 67.6502 50.8502L67.5802 52.1902C67.3302 56.3602 63.8602 59.6202 59.6802 59.6202H37.0602Z" fill="#FFD500"/>
<path d="M61.0402 44.7302C64.4102 44.7302 67.1502 47.4702 67.1502 50.8402V50.9102L67.0802 52.1602C66.8402 56.0602 63.5902 59.1202 59.6802 59.1202H37.0602C36.4302 59.1202 35.9102 58.6002 35.9102 57.9702C35.9102 57.3402 36.4202 56.8202 37.0602 56.8202H59.6802C62.3702 56.8202 64.6102 54.7202 64.7702 52.0302L64.8502 50.8202C64.8302 48.7402 63.1302 47.0502 61.0402 47.0502C58.8102 47.0502 58.0202 49.0202 58.0202 50.8502C58.0202 51.4902 57.5002 52.0002 56.8602 52.0002C56.2202 52.0002 55.7102 51.4802 55.7102 50.8502C55.7102 47.2002 57.8502 44.7402 61.0402 44.7402M61.0402 43.7402C57.3102 43.7402 54.7102 46.6602 54.7102 50.8502C54.7102 52.0402 55.6702 53.0002 56.8602 53.0002C58.0502 53.0002 59.0202 52.0302 59.0202 50.8502C59.0202 50.0102 59.2202 48.0502 61.0402 48.0502C62.5602 48.0502 63.8202 49.2802 63.8502 50.7902L63.7702 51.9602C63.6402 54.1302 61.8402 55.8202 59.6802 55.8202H37.0602C35.8702 55.8202 34.9102 56.7902 34.9102 57.9702C34.9102 59.1502 35.8702 60.1202 37.0602 60.1202H59.6802C64.1202 60.1202 67.8102 56.6502 68.0802 52.2202L68.1502 50.9702V50.9402V50.9102V50.8402C68.1502 46.9202 64.9602 43.7302 61.0402 43.7302V43.7402Z" fill="#272729"/>
</svg>
