<svg width="140" height="107" viewBox="0 0 140 107" fill="none" xmlns="http://www.w3.org/2000/svg">
<path d="M59.5305 70.7346C53.8505 70.7346 49.2305 75.3546 49.2305 81.0346C49.2305 86.7146 53.8505 91.3346 59.5305 91.3346C65.2105 91.3346 69.8305 86.7146 69.8305 81.0346C69.8305 75.3546 65.2105 70.7346 59.5305 70.7346ZM59.5305 88.6446C55.3405 88.6446 51.9205 85.2346 51.9205 81.0346C51.9205 76.8346 55.3405 73.4246 59.5305 73.4246C63.7205 73.4246 67.1405 76.8346 67.1405 81.0346C67.1405 85.2346 63.7305 88.6446 59.5305 88.6446Z" fill="#272729"/>
<path d="M112 70.7346C106.32 70.7346 101.7 75.3546 101.7 81.0346C101.7 86.7146 106.32 91.3346 112 91.3346C117.68 91.3346 122.3 86.7146 122.3 81.0346C122.3 75.3546 117.68 70.7346 112 70.7346ZM112 88.6446C107.81 88.6446 104.39 85.2346 104.39 81.0346C104.39 76.8346 107.81 73.4246 112 73.4246C116.19 73.4246 119.61 76.8346 119.61 81.0346C119.61 85.2346 116.2 88.6446 112 88.6446Z" fill="#272729"/>
<path d="M102.49 31.3248V44.4648H99.8004V31.3248C99.8004 28.8648 97.7904 26.8548 95.3204 26.8548H19.5004C18.7604 26.8548 18.1504 26.2448 18.1504 25.5048C18.1504 24.7648 18.7604 24.1648 19.5004 24.1648H95.3204C99.2704 24.1648 102.49 27.3748 102.49 31.3248Z" fill="#272729"/>
<path d="M135.8 58.0947L130.56 54.1547C129.14 53.0847 127.98 51.7547 127.13 50.2047L121.93 40.7647C120.43 38.0347 117.55 36.3347 114.44 36.3347H106.12C105.38 36.3347 104.77 36.9347 104.77 37.6847C104.77 38.4347 105.37 39.0347 106.12 39.0347H114.44C116.58 39.0347 118.55 40.1947 119.58 42.0747L124.78 51.5147C125.82 53.4047 127.23 55.0247 128.95 56.3247L133.65 59.8647V62.1647H122.88C122.14 62.1647 121.53 62.7647 121.53 63.5147C121.53 64.2647 122.13 64.8647 122.88 64.8647H133.65V67.5747H128.13C127.39 67.5747 126.78 68.1747 126.78 68.9247C126.78 69.6747 127.38 70.2747 128.13 70.2747H133.65V80.3447H125.17C124.43 80.3447 123.82 80.9447 123.82 81.6947C123.82 82.4447 124.42 83.0447 125.17 83.0447H135C135.74 83.0447 136.35 82.4447 136.35 81.6947V59.2247C136.35 58.8047 136.15 58.4047 135.81 58.1447L135.8 58.0947Z" fill="#272729"/>
<path d="M98.6301 80.2947H72.9701C72.2301 80.2947 71.6201 80.8947 71.6201 81.6447C71.6201 82.3947 72.2201 82.9947 72.9701 82.9947H98.6301C99.3701 82.9947 99.9801 82.3947 99.9801 81.6447C99.9801 80.8947 99.3801 80.2947 98.6301 80.2947Z" fill="#272729"/>
<path d="M46.8504 80.3946H37.9004V66.5146C37.9004 65.8246 37.3404 65.2646 36.6504 65.2646C35.9604 65.2646 35.4004 65.8246 35.4004 66.5146V81.6446C35.4004 82.3346 35.9604 82.8946 36.6504 82.8946H46.8504C47.5404 82.8946 48.1004 82.3346 48.1004 81.6446C48.1004 80.9546 47.5404 80.3946 46.8504 80.3946Z" fill="#272729"/>
<path d="M106.91 45.3047L111.8 45.2747C113.2 45.2747 114.53 46.0347 115.26 47.2347L119.31 53.8947C119.56 54.3147 120.01 54.5447 120.46 54.5447C120.7 54.5447 120.94 54.4747 121.16 54.3447C121.79 53.9647 122 53.1347 121.61 52.4947L117.56 45.8347C116.35 43.8447 114.15 42.6047 111.81 42.5847L106.91 42.6147C106.17 42.6147 105.57 43.2247 105.57 43.9647C105.57 44.7047 106.18 45.3047 106.92 45.3047H106.91Z" fill="#272729"/>
<path d="M44.78 33.8246C44.78 33.0846 44.18 32.4746 43.43 32.4746H3.35C2.61 32.4746 2 33.0746 2 33.8246C2 34.5746 2.6 35.1746 3.35 35.1746H43.43C44.17 35.1746 44.78 34.5746 44.78 33.8246Z" fill="#272729"/>
<path d="M44.7799 51.7746C44.7799 51.0346 44.1799 50.4246 43.4299 50.4246H11.9799C11.2399 50.4246 10.6299 51.0246 10.6299 51.7746C10.6299 52.5246 11.2299 53.1246 11.9799 53.1246H43.4299C44.1699 53.1246 44.7799 52.5246 44.7799 51.7746Z" fill="#272729"/>
<path d="M43.4302 41.5046H21.5502C20.8102 41.5046 20.2002 42.1046 20.2002 42.8546C20.2002 43.6046 20.8002 44.2046 21.5502 44.2046H43.4302C44.1702 44.2046 44.7802 43.6046 44.7802 42.8546C44.7802 42.1046 44.1802 41.5046 43.4302 41.5046Z" fill="#272729"/>
<path d="M44.7802 61.4645C44.7802 60.7245 44.1802 60.1145 43.4302 60.1145H30.2602C29.5202 60.1145 28.9102 60.7145 28.9102 61.4645C28.9102 62.2145 29.5102 62.8145 30.2602 62.8145H43.4302C44.1702 62.8145 44.7802 62.2145 44.7802 61.4645Z" fill="#272729"/>
<path d="M101.481 27.6447V58.0747C101.481 59.4847 100.351 60.6247 98.9307 60.6247H52.0207C50.6207 60.6247 49.4707 59.4947 49.4707 58.0747V27.6447C49.4707 26.2447 50.6207 25.0947 52.0207 25.0947H98.9307C100.341 25.0947 101.481 26.2447 101.481 27.6447Z" fill="#FFD500"/>
<path d="M98.9304 24.0247H52.0204C50.0304 24.0247 48.4004 25.6547 48.4004 27.6447V58.0747C48.4004 60.0647 50.0304 61.6947 52.0204 61.6947H98.9304C100.93 61.6947 102.55 60.0647 102.55 58.0747V27.6447C102.55 25.6547 100.93 24.0247 98.9304 24.0247ZM101.48 58.0647C101.48 59.4747 100.35 60.6147 98.9304 60.6147H52.0204C50.6204 60.6147 49.4704 59.4847 49.4704 58.0647V27.6447C49.4704 26.2447 50.6204 25.0947 52.0204 25.0947H98.9304C100.34 25.0947 101.48 26.2447 101.48 27.6447V58.0747V58.0647Z" fill="#272729"/>
<path d="M66.7 35.0247C66.69 31.3947 64.17 28.8247 60.62 28.8347L52.96 28.8647L53.03 44.5447L60.68 44.5147C64.22 44.5047 66.73 41.9047 66.72 38.2747L66.7 35.0247ZM60.21 40.9347L56.8 40.9547L56.76 32.4247L60.17 32.4047C61.94 32.4047 62.87 33.3347 62.88 35.1747V38.1747C62.9 39.9847 61.98 40.9347 60.22 40.9347H60.21Z" fill="#272729"/>
<path d="M86.4097 44.3447L98.3796 44.2947L98.3596 40.7547L91.3096 40.7847L98.3496 31.5247L98.3297 28.6147L86.7597 28.6647L86.7796 32.1847L93.4097 32.1547L86.3896 41.4147V44.3447H86.4097Z" fill="#272729"/>
<path d="M82.7801 36.8247L77.5801 42.0747L79.9201 44.3947L85.1201 39.1447L82.7801 36.8247Z" fill="#272729"/>
<path d="M74.3603 28.7148L69.2803 33.8448L71.6103 36.1548L76.6903 31.0248L74.3603 28.7148Z" fill="#272729"/>
<path d="M59.9303 50.4448H57.6803V48.6848H57.4103L54.7803 51.5148V51.8148H56.1503L56.1703 55.3748C56.1703 55.9348 56.2803 56.4048 56.5003 56.8148C56.7203 57.2248 57.0303 57.5348 57.4303 57.7448C57.8303 57.9648 58.3103 58.0648 58.8703 58.0648H60.0203V56.6348H59.1503C58.6903 56.6348 58.3403 56.5148 58.0903 56.2748C57.8403 56.0348 57.7203 55.6848 57.7203 55.2348L57.7003 51.7948H59.9403V50.4448H59.9303Z" fill="#272729"/>
<path d="M68.9803 50.3948H67.7703L67.6003 51.3448C66.8603 50.5948 65.9303 50.2248 64.8203 50.2348C63.6903 50.2348 62.7403 50.6248 61.9803 51.3848C61.2303 52.1448 60.8603 53.0948 60.8703 54.2448C60.8703 55.3748 61.2603 56.3348 62.0203 57.0948C62.7803 57.8448 63.7203 58.2248 64.8603 58.2148C65.9603 58.2048 66.8703 57.8248 67.6003 57.0948L67.7603 58.0148H69.0303L68.9903 50.4048L68.9803 50.3948ZM66.7303 55.9948C66.2703 56.4748 65.6803 56.7148 64.9603 56.7248C64.2403 56.7248 63.6403 56.4848 63.1603 56.0148C62.6903 55.5448 62.4403 54.9548 62.4403 54.2348C62.4403 53.7648 62.5503 53.3348 62.7603 52.9648C62.9603 52.5748 63.2603 52.2848 63.6503 52.0648C64.0203 51.8548 64.4503 51.7348 64.9203 51.7348C65.6403 51.7348 66.2403 51.9548 66.7103 52.4348C67.1703 52.8948 67.4103 53.4948 67.4203 54.2148C67.4203 54.9348 67.2003 55.5348 66.7203 56.0048L66.7303 55.9948Z" fill="#272729"/>
<path d="M73.4303 52.0148C73.8003 51.7948 74.2003 51.6848 74.6403 51.6848C75.1403 51.6848 75.5903 51.8048 75.9803 52.0548C76.3803 52.3048 76.6703 52.6448 76.8703 53.0748H78.4203C78.2103 52.1948 77.7603 51.4948 77.0703 50.9748C76.3803 50.4548 75.5703 50.1948 74.6403 50.1948C73.5003 50.1948 72.5503 50.5848 71.7903 51.3448C71.0303 52.1048 70.6503 53.0548 70.6603 54.1848C70.6603 55.3148 71.0503 56.2648 71.8203 57.0248C72.5903 57.7848 73.5403 58.1648 74.6603 58.1548C75.6003 58.1548 76.4103 57.8748 77.1003 57.3348C77.7903 56.7948 78.2403 56.0748 78.4503 55.1748H76.8703C76.6703 55.6548 76.3703 56.0148 75.9803 56.2748C75.5903 56.5248 75.1503 56.6648 74.6503 56.6648C73.9703 56.6648 73.4003 56.4248 72.9403 55.9548C72.4803 55.4748 72.2503 54.8848 72.2403 54.1848C72.2403 53.7148 72.3403 53.2948 72.5503 52.9048C72.7603 52.5248 73.0503 52.2248 73.4103 52.0048L73.4303 52.0148Z" fill="#272729"/>
<path d="M84.1695 50.3347H81.9195V48.5747H81.6495L79.0195 51.4047V51.7047H80.3895L80.4095 55.2647C80.4095 55.8247 80.5195 56.2947 80.7395 56.7047C80.9595 57.1147 81.2695 57.4247 81.6695 57.6347C82.0795 57.8547 82.5495 57.9547 83.1095 57.9547H84.2595V56.5247H83.3895C82.9295 56.5247 82.5795 56.4047 82.3295 56.1647C82.0795 55.9247 81.9595 55.5747 81.9595 55.1247L81.9395 51.6847H84.1795V50.3347H84.1695Z" fill="#272729"/>
<path d="M87.2895 50.3247H85.7295L85.7695 57.9347H87.3295L87.2995 50.3247H87.2895Z" fill="#272729"/>
<path d="M87.3104 47.5347H85.6904V49.1447H87.3104V47.5347Z" fill="#272729"/>
<path d="M91.7399 51.9247C92.1099 51.7047 92.5099 51.5947 92.9499 51.5947C93.4499 51.5947 93.8999 51.7147 94.2899 51.9647C94.6899 52.2147 94.9799 52.5547 95.1799 52.9847H96.7299C96.5199 52.1047 96.0699 51.4047 95.3799 50.8847C94.6899 50.3647 93.8799 50.1047 92.9499 50.1047C91.8099 50.1047 90.8599 50.4947 90.0999 51.2547C89.3399 52.0147 88.9599 52.9647 88.9699 54.0947C88.9699 55.2247 89.3599 56.1747 90.1299 56.9347C90.8999 57.6947 91.8499 58.0747 92.9699 58.0647C93.9099 58.0647 94.7199 57.7847 95.4099 57.2447C96.0999 56.7047 96.5499 55.9847 96.7599 55.0947H95.1799C94.9799 55.5747 94.6799 55.9347 94.2899 56.1947C93.8999 56.4447 93.4599 56.5847 92.9599 56.5847C92.2899 56.5847 91.7099 56.3447 91.2499 55.8747C90.7899 55.3947 90.5599 54.8047 90.5499 54.1047C90.5499 53.6347 90.6499 53.2147 90.8599 52.8247C91.0699 52.4447 91.3599 52.1447 91.7199 51.9247H91.7399Z" fill="#272729"/>
<path d="M80.9603 35.0248L78.6403 32.7048L75.2403 36.1448L73.4303 37.9448L71.6203 36.1648L69.3203 38.4848L71.1203 40.2848L69.3303 42.1048L71.6503 44.4048L73.4503 42.5948L75.2703 44.3848L77.5703 42.0648L75.7603 40.2748L80.9603 35.0348V35.0248ZM77.0403 42.0548L75.2603 43.8448L73.7103 42.3148L73.4403 42.0548L73.1803 42.3148L71.6403 43.8648L69.8503 42.0848L71.3803 40.5448L71.6503 40.2748L71.3803 40.0048L69.8303 38.4748L71.6103 36.6848L73.1603 38.2148L73.4303 38.4748L73.6903 38.2148L75.2303 36.6648L77.0203 38.4448L75.4903 39.9848L75.2203 40.2548L75.4903 40.5248L77.0403 42.0548Z" fill="#272729"/>
<path d="M77.0398 42.0548L75.2598 43.8448L73.7098 42.3148L73.4398 42.0548L73.1798 42.3148L71.6498 43.8648L69.8598 42.0848L71.3898 40.5548L71.6599 40.2848L71.3898 40.0148L69.8398 38.4848L71.6199 36.6948L73.1599 38.2248L73.4298 38.4848L73.6898 38.2248L75.2299 36.6748L77.0198 38.4548L75.4898 39.9948L75.2198 40.2648L75.4898 40.5348L77.0398 42.0548Z" fill="#F5370D"/>
</svg>
