<svg width="140" height="107" viewBox="0 0 140 107" fill="none" xmlns="http://www.w3.org/2000/svg">
<mask id="mask0_1280_17788" style="mask-type:luminance" maskUnits="userSpaceOnUse" x="37" y="3" width="90" height="99">
<path d="M126.088 3.0813H37.6191V101.181H126.088V3.0813Z" fill="white"/>
</mask>
<g mask="url(#mask0_1280_17788)">
<path d="M125.95 96.4198L124.558 92.1813C124.327 91.4736 123.835 90.9044 123.173 90.5659C122.904 90.4275 122.611 90.3351 122.304 90.2967L108.496 47.8582C109.265 47.5813 109.688 46.7351 109.427 45.9505L104.065 29.5659C103.942 29.189 103.665 28.8736 103.304 28.689C102.942 28.5044 102.535 28.4736 102.142 28.5967L100.888 29.0044C99.8191 22.0044 96.8653 15.3967 92.1114 9.35053C89.0038 5.41207 84.2038 3.0813 79.1884 3.0813C79.0499 3.0813 78.9038 3.0813 78.7576 3.0813C69.7961 3.32745 64.7191 7.6813 63.2345 16.3967V33.3659H59.3038V31.1428C59.3038 29.8967 58.4807 28.8044 57.3114 28.4428V24.1967C57.3114 21.2351 55.1653 18.6813 52.3191 18.2582C50.4807 17.9813 48.5884 18.5967 47.273 19.9121C46.1653 21.0198 45.5499 22.5044 45.5499 24.0736V33.3736H45.1038C41.1038 33.3813 37.8268 36.5198 37.6268 40.4582C37.6191 40.589 37.6191 40.7121 37.6191 40.8428V93.6967C37.6191 93.8274 37.6191 93.9505 37.6268 94.0813C37.8268 98.0275 41.1038 101.174 45.0961 101.174H83.073C87.1807 101.174 90.5345 97.8198 90.5345 93.6967V40.8351C90.5345 36.7198 87.1807 33.3736 83.073 33.3736H82.0884V29.9121C82.0884 29.2198 81.5268 28.6582 80.8345 28.6582H80.5422V19.9044H86.4499C87.0576 19.9044 87.5499 19.4121 87.5499 18.8044V14.2736C87.5499 13.6659 87.0576 13.1736 86.4499 13.1736H67.8653C67.2499 13.1736 66.7576 13.6659 66.7576 14.2736V18.8044C66.7576 19.4121 67.2576 19.9044 67.8653 19.9044H74.2038V28.6582H73.7576C73.0653 28.6582 72.4961 29.2198 72.4961 29.9121V33.3736H64.9345V16.6121C66.273 8.8813 70.8114 5.01207 78.7961 4.79668C83.4191 4.66591 87.8884 6.77361 90.7576 10.4121C95.3961 16.2967 98.2499 22.7351 99.2345 29.5428L98.0115 29.9505C97.6191 30.0736 97.3115 30.3428 97.1268 30.7121C96.9422 31.0736 96.9114 31.4813 97.0345 31.8659L102.396 48.2505C102.604 48.8813 103.188 49.2967 103.85 49.2967C103.958 49.2967 104.073 49.2813 104.181 49.2582L118.042 91.8351C117.904 91.9967 117.788 92.1736 117.696 92.3582C117.358 93.0274 117.304 93.7736 117.535 94.4813L118.927 98.7198C119.158 99.4275 119.65 99.9967 120.311 100.335C120.696 100.535 121.135 100.635 121.565 100.635C121.858 100.635 122.15 100.589 122.427 100.497L124.173 99.9198C124.873 99.689 125.45 99.1967 125.781 98.5351C126.119 97.8813 126.173 97.1274 125.95 96.4198ZM56.473 30.0428C57.0807 30.0428 57.5807 30.5428 57.5807 31.1505V33.3813H55.3576V31.1505C55.3576 30.5428 55.8653 30.0428 56.473 30.0428ZM47.2499 24.089C47.2499 22.9736 47.6884 21.9275 48.4807 21.1351C49.4114 20.1967 50.7499 19.7582 52.0576 19.9582C54.073 20.2582 55.5884 22.089 55.5884 24.2121V28.4736C54.4499 28.8505 53.6499 29.9351 53.6499 31.1505V33.3813H47.2499V24.089ZM88.8268 93.7044C88.8268 96.8813 86.2499 99.4659 83.073 99.4659H45.1038C41.9268 99.4659 39.3345 96.8813 39.3345 93.7044V88.6967H88.8268V93.7044ZM88.8268 86.9813H39.3345V81.2582H88.8268V86.9813ZM88.8268 79.5505H39.3345V55.8428H88.8268V79.5505ZM88.8268 54.1274H39.3345V48.4044H88.8268V54.1274ZM68.473 18.1967V14.889H85.8422V18.1967H68.473ZM80.3807 30.3736V33.3813H74.2114V30.3736H80.3807ZM75.9191 28.6582V19.9121H78.8345V28.6582H75.9191ZM83.0807 35.089C86.2499 35.089 88.8268 37.6659 88.8268 40.8351V46.689H39.3345V40.8351C39.3345 37.6736 41.9191 35.089 45.1038 35.089H53.6499V35.1582H59.2961V35.089H83.0807ZM103.973 47.5351L98.7268 31.5121L102.496 30.2813L107.742 46.3044L103.973 47.5351ZM105.811 48.7351L106.865 48.389L120.588 90.5505L119.535 90.8967L105.811 48.7351ZM123.642 98.2967L121.896 98.8659C121.627 98.9582 121.335 98.9351 121.088 98.8044C120.835 98.6736 120.642 98.4582 120.558 98.189L119.165 93.9428C119.073 93.6736 119.096 93.3813 119.227 93.1274C119.358 92.8813 119.573 92.689 119.85 92.6044L121.588 92.0274C121.696 91.989 121.811 91.9736 121.919 91.9736C122.088 91.9736 122.25 92.0121 122.404 92.089C122.658 92.2198 122.842 92.4428 122.935 92.7121L124.319 96.9505C124.504 97.5044 124.196 98.1121 123.642 98.2967Z" fill="#272729"/>
<path d="M39.335 55.843V79.5507H88.8273V55.843H39.335ZM64.0811 78.2199C58.4427 78.2199 53.858 73.6276 53.858 67.9892C53.858 62.3507 58.4427 57.7661 64.0811 57.7661C69.7196 57.7661 74.3042 62.3507 74.3042 67.9892C74.3042 73.6276 69.7196 78.2199 64.0811 78.2199Z" fill="#FFD500"/>
<path d="M64.0805 57.7661C58.442 57.7661 53.8574 62.3507 53.8574 67.9892C53.8574 73.6277 58.442 78.22 64.0805 78.22C69.719 78.22 74.3036 73.6277 74.3036 67.9892C74.3036 62.3507 69.719 57.7661 64.0805 57.7661ZM64.0805 76.5046C59.3882 76.5046 55.5651 72.6892 55.5651 67.9892C55.5651 65.8738 56.342 63.8661 57.7574 62.2969L69.7805 74.3123C68.2113 75.7277 66.1959 76.5046 64.0805 76.5046ZM70.9267 73.043L59.0267 61.143C60.4882 60.0661 62.2651 59.4738 64.0805 59.4738C68.7728 59.4738 72.5959 63.2969 72.5959 67.9892C72.5959 69.8046 72.0036 71.5815 70.9267 73.043Z" fill="#272729"/>
<path d="M69.7808 74.312C68.2116 75.7274 66.1962 76.5043 64.0808 76.5043C59.3885 76.5043 55.5654 72.6889 55.5654 67.9889C55.5654 65.8735 56.3424 63.8659 57.7577 62.2966L69.7808 74.312Z" fill="#F5370D"/>
<path d="M72.5966 67.989C72.5966 69.8044 72.0043 71.5813 70.9273 73.0429L59.0273 61.1429C60.4889 60.0659 62.2658 59.4736 64.0812 59.4736C68.7735 59.4736 72.5966 63.2967 72.5966 67.989Z" fill="#F5370D"/>
</g>
</svg>
