<svg width="140" height="107" viewBox="0 0 140 107" fill="none" xmlns="http://www.w3.org/2000/svg">
<path d="M77.7796 43.3703C78.5696 43.3703 79.2096 42.7303 79.2096 41.9403C79.2096 41.1503 78.5696 40.5103 77.7796 40.5103C76.9896 40.5103 76.3496 41.1503 76.3496 41.9403C76.3496 42.7303 76.9896 43.3703 77.7796 43.3703Z" fill="#272729"/>
<path d="M99.5701 52.3403C94.6301 52.3403 89.6201 53.9303 89.6201 56.9803V69.9103C89.6201 70.3803 89.8901 70.7803 90.2701 70.9803C91.7801 72.8703 95.6901 73.8403 99.5601 73.8403C103.43 73.8403 107.34 72.8603 108.86 70.9803C109.25 70.7803 109.51 70.3803 109.51 69.9103V56.9803C109.51 53.9303 104.51 52.3403 99.5701 52.3403ZM107.1 69.2003C107.1 69.8403 104.46 71.4303 99.5701 71.4303H99.5601C94.6701 71.4303 92.0301 69.8503 92.0301 69.2003V66.0103C93.0001 66.5503 94.2301 66.9803 95.6801 67.2603C96.9001 67.5003 98.2001 67.6203 99.5601 67.6203C100.92 67.6203 102.22 67.5003 103.44 67.2603C104.9 66.9703 106.13 66.5503 107.1 66.0103V69.2003ZM107.11 62.7103C107.11 63.2703 105.8 64.3503 102.99 64.9003C101.92 65.1103 100.77 65.2103 99.5701 65.2103C98.3701 65.2103 97.2201 65.1003 96.1501 64.9003C93.3401 64.3503 92.0301 63.2703 92.0301 62.7103V60.1103C92.6101 60.4103 93.2701 60.6703 94.0001 60.8803C94.0401 60.8803 94.0801 60.9103 94.1201 60.9103C95.7501 61.3803 97.6601 61.6103 99.5701 61.6103C101.48 61.6103 103.39 61.3703 105.02 60.9103C105.05 60.9103 105.08 60.8903 105.11 60.8803C105.84 60.6703 106.52 60.4103 107.11 60.1003V62.7103ZM99.5701 59.2203C94.6701 59.2203 92.0401 57.6403 92.0301 56.9903C92.0301 56.3403 94.6701 54.7603 99.5701 54.7603C104.47 54.7603 107.11 56.3403 107.11 56.9903C107.11 57.6403 104.47 59.2203 99.5701 59.2203Z" fill="#272729"/>
<path d="M107.1 66.0103V69.2003C107.1 69.8403 104.46 71.4303 99.5703 71.4303H99.5603C94.6703 71.4303 92.0303 69.8503 92.0303 69.2003V66.0103C93.0003 66.5503 94.2303 66.9803 95.6803 67.2603C96.9003 67.5003 98.2003 67.6203 99.5603 67.6203C100.92 67.6203 102.22 67.5003 103.44 67.2603C104.9 66.9703 106.13 66.5503 107.1 66.0103Z" fill="#FFD500"/>
<path d="M107.11 60.1001V62.7101C107.11 63.2701 105.8 64.3501 102.99 64.9001C101.92 65.1101 100.77 65.2101 99.5703 65.2101C98.3703 65.2101 97.2203 65.1001 96.1503 64.9001C93.3403 64.3501 92.0303 63.2701 92.0303 62.7101V60.1101C92.6103 60.4101 93.2703 60.6701 94.0003 60.8801C94.0403 60.8801 94.0803 60.9101 94.1203 60.9101C95.7503 61.3801 97.6603 61.6101 99.5703 61.6101C101.48 61.6101 103.39 61.3701 105.02 60.9101C105.05 60.9101 105.08 60.8901 105.11 60.8801C105.84 60.6701 106.52 60.4101 107.11 60.1001Z" fill="#FFD500"/>
<path d="M107.11 56.9903C107.11 57.6403 104.47 59.2203 99.5703 59.2203C94.6703 59.2203 92.0403 57.6403 92.0303 56.9903C92.0303 56.3403 94.6703 54.7603 99.5703 54.7603C104.47 54.7603 107.11 56.3403 107.11 56.9903Z" fill="#FFD500"/>
<path d="M107.83 79.3901C106.16 77.7401 103.77 77.5501 102.75 77.5501H102.69L86.31 77.6901C86.76 75.1301 85.2 72.5501 83.28 70.7601L68.5 57.4801C67.32 56.3801 65.97 55.5001 64.49 54.8601C60.65 53.2101 57.13 52.3801 53.72 52.3301H38.91C38.25 52.3301 37.71 52.8701 37.71 53.5301V53.5501C37.71 54.2101 38.25 54.7501 38.91 54.7501H53.71C56.79 54.8001 60 55.5601 63.55 57.0801C64.77 57.6101 65.88 58.3301 66.88 59.2701L81.66 72.5501C82.47 73.3001 84.99 75.9501 83.54 78.2801C82.01 80.7401 78.54 79.4101 77.91 79.0401L66.7 72.5501C66.12 72.2101 65.38 72.4101 65.05 72.9901C64.71 73.5701 64.91 74.3001 65.49 74.6401L76.7 81.1201C78.52 82.1901 83.28 83.2701 85.59 79.5601C85.61 79.5301 85.63 79.5001 85.65 79.4701V80.1101L102.72 79.9701H102.77C103.47 79.9701 105.11 80.0901 106.14 81.1101C106.79 81.7601 107.13 82.7201 107.13 83.9601C107.13 87.5501 102.1 87.8601 101.89 87.8801H101.8L77.92 90.6801C75.34 90.9801 72.79 90.7901 70.35 90.1101C66.5 89.0401 62.72 87.3101 59.12 84.9601L45.15 72.9001C44.05 71.9501 42.65 71.4301 41.2 71.4301H38.91C38.25 71.4301 37.71 71.9701 37.71 72.6301C37.71 73.2901 38.25 73.8301 38.91 73.8301H41.2C42.06 73.8301 42.9 74.1401 43.55 74.7001L57.6 86.8301L57.75 86.9401C61.57 89.4301 65.6 91.2801 69.7 92.4301C71.6 92.9601 73.56 93.2201 75.56 93.2201C76.43 93.2201 77.31 93.1701 78.2 93.0701L102.04 90.2801C104.65 90.1301 109.53 88.6301 109.53 83.9501C109.53 82.0401 108.95 80.5101 107.83 79.3901Z" fill="#272729"/>
<path d="M34.8601 40.5003L71.1301 52.1303L82.9601 58.5103C83.1401 58.6103 83.3401 58.6503 83.5301 58.6503C83.6501 58.6503 83.7601 58.6303 83.8701 58.6003C84.1801 58.5103 84.4401 58.3003 84.5901 58.0203L95.5301 37.7203C95.6801 37.4303 95.7201 37.1003 95.6201 36.7903C95.5201 36.4803 95.3101 36.2203 95.0201 36.0703L80.3701 28.4503C79.7801 28.1403 79.0501 28.3703 78.7401 28.9603C78.4301 29.5503 78.6601 30.2803 79.2501 30.5903L92.8201 37.6403L83.0301 55.8003L44.8101 35.2003L52.5101 20.9203L54.6001 17.0403L67.3101 24.1203C67.8901 24.4403 68.6301 24.2303 68.9501 23.6503C69.2701 23.0703 69.0601 22.3303 68.4801 22.0103L54.7001 14.3303C54.4201 14.1703 54.0901 14.1403 53.7801 14.2303C53.4701 14.3203 53.2101 14.5303 53.0601 14.8203L50.8801 18.8703L42.6301 16.2203C42.3301 16.1203 42.0001 16.1503 41.7101 16.3003C41.4201 16.4403 41.2101 16.7003 41.1101 17.0003L34.0601 38.9603C33.8601 39.5903 34.2001 40.2703 34.8401 40.4803L34.8601 40.5003ZM43.0501 18.9103L49.7201 21.0503L42.1301 35.1403C41.8101 35.7303 42.0301 36.4603 42.6201 36.7703L59.5101 45.8703L36.7501 38.5703L43.0601 18.9103H43.0501Z" fill="#272729"/>
<path d="M73.9202 28.0302C74.7102 28.0302 75.3502 27.3902 75.3502 26.6002C75.3502 25.8102 74.7102 25.1702 73.9202 25.1702C73.1302 25.1702 72.4902 25.8102 72.4902 26.6002C72.4902 27.3902 73.1302 28.0302 73.9202 28.0302Z" fill="#272729"/>
<path d="M59.3704 33.2301C60.1604 33.2301 60.8004 32.5901 60.8004 31.8001C60.8004 31.0101 60.1604 30.3701 59.3704 30.3701C58.5804 30.3701 57.9404 31.0101 57.9404 31.8001C57.9404 32.5901 58.5804 33.2301 59.3704 33.2301Z" fill="#272729"/>
<path d="M68.6001 30.8801C65.2701 30.8801 62.5801 33.5801 62.5801 36.9001C62.5801 40.2201 65.2801 42.9201 68.6001 42.9201C71.9201 42.9201 74.6201 40.2201 74.6201 36.9001C74.6201 33.5801 71.9201 30.8801 68.6001 30.8801ZM68.6001 39.9301C66.9301 39.9301 65.5701 38.5701 65.5701 36.9001C65.5701 35.2301 66.9301 33.8701 68.6001 33.8701C70.2701 33.8701 71.6301 35.2301 71.6301 36.9001C71.6301 38.5701 70.2801 39.9301 68.6001 39.9301Z" fill="#272729"/>
<path d="M72.9802 36.9003C72.9802 39.3103 71.0302 41.2703 68.6102 41.2703C66.1902 41.2703 64.2402 39.3103 64.2402 36.9003C64.2402 34.4903 66.2002 32.5303 68.6102 32.5303C71.0202 32.5303 72.9802 34.4903 72.9802 36.9003Z" fill="#F5370D"/>
<path d="M61.47 26.2502C61.78 25.6602 61.56 24.9302 60.97 24.6202L57.19 22.6002C56.61 22.2902 55.9 22.5002 55.57 23.0702L49.62 33.4602C49.46 33.7402 49.42 34.0702 49.5 34.3802C49.58 34.6902 49.79 34.9502 50.07 35.1102L53.86 37.2702C54.05 37.3802 54.26 37.4302 54.46 37.4302C54.88 37.4302 55.28 37.2102 55.51 36.8202C55.84 36.2402 55.64 35.5002 55.06 35.1702L52.32 33.6002L57.09 25.2702L59.83 26.7402C60.42 27.0502 61.15 26.8302 61.46 26.2402H61.47V26.2502Z" fill="#272729"/>
<path d="M76.0003 49.1501L79.8003 51.1201C79.9803 51.2101 80.1703 51.2501 80.3603 51.2501C80.7803 51.2501 81.1903 51.0301 81.4103 50.6301L87.2403 40.1701C87.4003 39.8901 87.4303 39.5601 87.3503 39.2501C87.2603 38.9401 87.0603 38.6801 86.7703 38.5301L82.9603 36.4101C82.3803 36.0901 81.6403 36.3001 81.3203 36.8801C81.0003 37.4601 81.2103 38.2001 81.7903 38.5201L84.5503 40.0501L79.8803 48.4301L77.1203 47.0001C76.5303 46.6901 75.8003 46.9201 75.4903 47.5201C75.1803 48.1101 75.4103 48.8401 76.0103 49.1501H76.0003Z" fill="#272729"/>
</svg>
