<svg width="35" height="35" viewBox="0 0 35 35" fill="none" xmlns="http://www.w3.org/2000/svg">
<path d="M34.75 17.5C34.75 27.0269 27.0269 34.75 17.5 34.75C7.97309 34.75 0.25 27.0269 0.25 17.5C0.25 7.97309 7.97309 0.25 17.5 0.25C27.0269 0.25 34.75 7.97309 34.75 17.5Z" fill="white" stroke="black" stroke-width="0.5"/>
<path d="M17.5 7.23151L20.5258 13.3607L20.5837 13.478L20.7131 13.4973L27.4625 14.5059L22.5761 19.2371L22.4812 19.329L22.5036 19.4592L23.6675 26.2095L17.6163 23.0288L17.5 22.9676L17.3837 23.0288L11.3325 26.2095L12.4964 19.4592L12.5188 19.329L12.4239 19.2371L7.53751 14.5059L14.2869 13.4973L14.4163 13.478L14.4742 13.3607L17.5 7.23151Z" fill="#FFCA28" stroke="#272729" stroke-width="0.5"/>
</svg>
