<svg width="230" height="230" viewBox="0 0 230 230" fill="none" xmlns="http://www.w3.org/2000/svg">
<g clip-path="url(#clip0_324_306)">
<path d="M230 115C230 178.511 178.511 230 115 230C108.361 230 101.859 229.433 95.5267 228.359C51.8727 220.923 16.6213 188.876 4.508 147.001C1.57933 136.85 0 126.101 0 115C0 51.4893 51.4893 0 115 0C178.511 0 230 51.4893 230 115Z" fill="white"/>
<path d="M205.82 115C205.82 127.267 203.413 139.15 198.675 150.343C194.106 161.153 187.558 170.875 179.217 179.216C170.876 187.557 161.154 194.105 150.344 198.674C139.151 203.412 127.252 205.804 115.001 205.804C102.75 205.804 90.851 203.397 79.6576 198.674C68.8476 194.105 59.1263 187.557 50.785 179.216C42.4436 170.875 35.8963 161.153 31.327 150.343C26.589 139.15 24.1816 127.251 24.1816 115C24.1816 102.749 26.589 90.85 31.327 79.6413C35.8963 68.8313 42.4436 59.11 50.785 50.7687C59.1263 42.4273 68.8323 35.88 79.6576 31.3107C90.851 26.5727 102.734 24.1807 115.001 24.1807C127.268 24.1807 139.151 26.5727 150.344 31.3107C161.154 35.88 170.876 42.4273 179.217 50.7687C187.558 59.11 194.106 68.816 198.675 79.6413C203.413 90.8347 205.82 102.733 205.82 115Z" fill="#FFD300"/>
<path d="M115 24.1806C127.266 24.1806 139.15 26.588 150.343 31.3106C161.153 35.88 170.874 42.4273 179.216 50.7686C187.557 59.11 194.104 68.8159 198.674 79.6413C203.412 90.8346 205.804 102.733 205.804 114.985C205.804 127.236 203.396 139.135 198.674 150.328C194.104 161.138 187.557 170.859 179.216 179.201C170.874 187.542 161.168 194.089 150.343 198.659C139.15 203.397 127.251 205.789 115 205.789C102.748 205.789 90.8495 203.381 79.6562 198.659C68.8462 194.089 59.1248 187.542 50.7835 179.201C42.4422 170.859 35.8948 161.153 31.3255 150.328C26.5875 139.135 24.1955 127.236 24.1955 114.985C24.1955 102.733 26.6028 90.8346 31.3255 79.6413C35.8948 68.8313 42.4422 59.11 50.7835 50.7686C59.1248 42.4273 68.8308 35.88 79.6562 31.3106C90.8495 26.5726 102.748 24.1806 115 24.1806ZM115 20.7C62.9275 20.7 20.7148 62.9126 20.7148 114.985C20.7148 167.057 62.9275 209.269 115 209.269C167.072 209.269 209.3 167.057 209.3 114.985C209.3 62.9126 167.072 20.7153 115 20.7153V20.7Z" fill="#272729"/>
<g opacity="0.1">
<path d="M71.8971 79.8867H49.9551V124.829H71.8971C82.0477 124.829 89.2544 117.438 89.2544 107.027V97.6887C89.2544 87.2927 82.1091 79.8867 71.8971 79.8867ZM78.2757 106.643C78.2757 111.857 75.6384 114.54 70.5631 114.54H60.7804V90.0987H70.5631C75.6384 90.0987 78.2757 92.7974 78.2757 98.0567V106.643Z" fill="#272729"/>
<path d="M180.027 88.0594L159.726 114.509H179.92V124.675H145.619V116.273L165.859 89.8227H146.876V79.7334H180.027V88.0594Z" fill="#272729"/>
<path d="M135.29 103.02L120.316 117.993L126.995 124.672L141.968 109.699L135.29 103.02Z" fill="#272729"/>
<path d="M123.455 91.1825L113.664 100.973L120.343 107.652L130.134 97.8614L123.455 91.1825Z" fill="#272729"/>
<path d="M111.297 79.744L96.6816 94.3594L103.317 100.995L117.933 86.3794L111.297 79.744Z" fill="#272729"/>
<path d="M67.3117 159.497H69.7804V163.576H66.4684C64.8737 163.576 63.509 163.269 62.359 162.641C61.209 162.027 60.3197 161.123 59.691 159.957C59.0624 158.792 58.7557 157.412 58.7557 155.817V145.605H54.8457V144.762L62.4357 136.697H63.2024V141.787H69.6577V145.621H63.2484V155.465C63.2484 156.753 63.601 157.749 64.291 158.455C64.9964 159.16 65.993 159.497 67.3117 159.497Z" fill="#272729"/>
<path d="M92.136 141.787H95.6013V163.576H91.9673L91.5226 160.908C89.422 163.039 86.8 164.097 83.6566 164.097C80.5133 164.097 77.692 163.009 75.53 160.831C73.368 158.654 72.2793 155.925 72.2793 152.659C72.2793 149.393 73.368 146.679 75.53 144.501C77.692 142.339 80.406 141.251 83.6566 141.251C86.9073 141.251 89.514 142.324 91.5993 144.486L92.1206 141.787H92.136ZM78.8726 157.78C80.2373 159.145 81.9393 159.819 83.994 159.819C86.0486 159.819 87.7506 159.145 89.0846 157.78C90.4186 156.415 91.078 154.713 91.078 152.659C91.078 150.604 90.4186 148.902 89.0846 147.553C87.7506 146.203 86.0486 145.529 83.9786 145.529C82.6293 145.529 81.418 145.835 80.3293 146.464C79.2406 147.077 78.382 147.936 77.7686 149.025C77.1553 150.113 76.8333 151.325 76.8333 152.674C76.8333 154.713 77.508 156.415 78.8726 157.78Z" fill="#272729"/>
<path d="M111.793 164.097C108.557 164.097 105.859 163.009 103.666 160.816C101.473 158.623 100.385 155.909 100.385 152.659C100.385 149.408 101.473 146.709 103.666 144.532C105.859 142.355 108.588 141.266 111.839 141.266C114.507 141.266 116.822 142.017 118.785 143.52C120.747 145.023 122.02 147.031 122.618 149.531H118.171C117.604 148.289 116.761 147.323 115.626 146.602C114.491 145.897 113.219 145.529 111.793 145.529C110.52 145.529 109.37 145.835 108.327 146.464C107.285 147.077 106.457 147.936 105.843 149.025C105.245 150.113 104.939 151.325 104.939 152.674C104.939 154.698 105.598 156.385 106.917 157.765C108.235 159.145 109.861 159.819 111.793 159.819C113.219 159.819 114.491 159.451 115.611 158.731C116.73 158.01 117.573 156.967 118.171 155.618H122.695C122.081 158.179 120.778 160.218 118.8 161.767C116.822 163.315 114.491 164.082 111.793 164.082V164.097Z" fill="#272729"/>
<path d="M136.773 159.497H139.241V163.576H135.929C134.335 163.576 132.97 163.269 131.82 162.641C130.67 162.027 129.781 161.123 129.152 159.957C128.523 158.792 128.217 157.412 128.217 155.817V145.605H124.307V144.762L131.897 136.697H132.663V141.787H139.119V145.621H132.709V155.465C132.709 156.753 133.062 157.749 133.752 158.455C134.457 159.16 135.454 159.497 136.773 159.497Z" fill="#272729"/>
<path d="M143.504 138.399V133.799H148.15V138.399H143.504ZM143.581 163.576V141.787H148.058V163.576H143.581Z" fill="#272729"/>
<path d="M164.25 164.097C161.014 164.097 158.316 163.009 156.123 160.816C153.93 158.623 152.842 155.909 152.842 152.659C152.842 149.408 153.93 146.709 156.123 144.532C158.316 142.355 161.045 141.266 164.296 141.266C166.964 141.266 169.279 142.017 171.242 143.52C173.204 145.023 174.477 147.031 175.075 149.531H170.628C170.061 148.289 169.218 147.323 168.083 146.602C166.948 145.897 165.676 145.529 164.25 145.529C162.977 145.529 161.827 145.835 160.784 146.464C159.742 147.077 158.914 147.936 158.3 149.025C157.702 150.113 157.396 151.325 157.396 152.674C157.396 154.698 158.055 156.385 159.374 157.765C160.692 159.145 162.318 159.819 164.25 159.819C165.676 159.819 166.948 159.451 168.068 158.731C169.187 158.01 170.03 156.967 170.628 155.618H175.152C174.538 158.179 173.235 160.218 171.257 161.767C169.279 163.315 166.948 164.082 164.25 164.082V164.097Z" fill="#272729"/>
<path d="M120.32 107.625L113.68 100.985L108.498 106.168L103.315 100.985L96.6758 107.625L101.858 112.807L96.6758 117.99L103.315 124.629L108.498 119.447L113.68 124.629L120.32 117.99L115.137 112.807L120.32 107.625Z" fill="#FF0000"/>
</g>
<path d="M182.084 194.672C196.938 194.672 208.979 182.631 208.979 167.777C208.979 152.924 196.938 140.883 182.084 140.883C167.231 140.883 155.189 152.924 155.189 167.777C155.189 182.631 167.231 194.672 182.084 194.672Z" fill="#272729"/>
<path d="M182.085 191.667C195.278 191.667 205.974 180.971 205.974 167.777C205.974 154.584 195.278 143.888 182.085 143.888C168.891 143.888 158.195 154.584 158.195 167.777C158.195 180.971 168.891 191.667 182.085 191.667Z" fill="#FFD300"/>
<path d="M198.092 160.755L189.091 151.769L182.084 158.777L175.061 151.769L166.061 160.755L173.083 167.777L166.061 174.8L175.061 183.785L182.084 176.778L189.091 183.785L198.092 174.8L191.085 167.777L198.092 160.755Z" fill="#FF0000"/>
<path d="M100.633 87.4C100.74 87.078 118.711 85.79 118.711 85.79C118.711 85.79 118.496 84.824 118.711 84.7167C118.926 84.6093 136.896 86.112 136.896 86.112C136.896 86.112 136.896 85.3607 137.326 85.146C137.755 84.9313 145.606 88.4733 147.124 90.3133C148.642 92.138 151.478 94.392 151.049 97.6273C150.62 100.863 148.657 101.169 148.657 101.169L147.676 103.101L148.212 101.384L147.446 101.599L145.054 109.664L146.572 101.813L146.02 101.921L145.36 103.638L145.575 101.921H145.038L142.968 109.664L143.95 101.921L142.968 102.887L143.398 101.813L142.094 101.706L141.542 102.35C141.849 106.812 141.343 109.143 139.15 112.991C138.568 116.211 137.694 117.392 135.884 119.232C138.552 119.799 140.024 120.167 141.987 121.701C142.294 122.161 142.34 122.421 142.309 122.881C143.689 125.457 144.241 126.945 144.594 129.766C145.069 132.541 145.422 134.044 146.449 136.436C147.185 137.141 147.63 137.264 148.412 137.509L147.001 137.187L147.875 138.261C147.016 137.709 146.48 137.54 145.912 136.329C144.67 133.86 144.333 132.618 143.75 130.441V130.41C143.03 127.267 142.57 125.933 141.68 123.955C141.282 124.369 141.067 124.415 140.699 124.277L140.806 124.813L140.377 124.169C139.518 124.231 139.104 124.093 138.522 123.418L138.736 124.169L138.077 123.203C137.034 122.912 136.467 122.743 135.578 121.701V122.667L135.363 121.486L134.704 120.949C133.983 121.701 133.431 122.069 132.312 122.667C132.312 122.667 138.736 125.135 139.273 125.779C139.81 126.423 140.362 128.248 140.684 129.981C141.006 131.698 141.665 136.436 141.665 136.436L142.324 141.174C142.984 141.833 143.444 142.033 144.287 142.355L142.876 141.925L143.536 142.891C142.907 142.508 142.554 142.263 141.91 141.067L139.074 128.279L137.878 128.386L138.092 129.137L137.54 128.171L136.022 127.527V128.386L135.593 127.313L133.201 125.488V126.454L132.649 124.844C131.76 124.384 131.284 123.893 130.472 122.912C130.012 121.992 129.981 121.363 130.472 120.014C130.748 118.496 131.238 117.867 132.327 116.901C132.496 115.905 132.695 115.322 133.523 114.111L132.664 112.087C132.695 112.409 130.717 118.297 129.935 119.6C129.138 120.934 125.473 125.304 125.473 125.304C127.267 128.049 128.141 129.613 128.954 132.618C128.877 133.277 128.785 133.569 128.524 134.013C128.524 134.013 129.613 137.77 129.828 138.751C130.042 139.717 129.398 139.825 129.398 139.825C129.398 139.825 130.38 142.401 130.487 142.723C130.594 143.045 130.165 143.689 130.165 143.689C130.165 143.689 131.254 149.715 131.146 150.573C131.039 151.432 130.61 151.432 130.61 151.432L129.414 152.613L130.395 151.11V150.788L129.199 151.861L130.395 150.251V148.319L129.521 143.796C128.954 143.765 128.785 143.443 128.54 142.723L128.11 143.689L128.54 142.186L128.432 140.147C127.712 140.039 127.512 139.625 127.451 138.429L127.022 139.503L127.236 137.893V134.673C126.24 134.351 125.856 134.044 125.488 133.277C124.814 132.112 124.568 131.391 124.292 130.057L124.185 128.662L123.756 129.628L123.97 128.233L123.756 126.515C123.204 126.883 122.836 126.991 122.008 126.837C123.265 129.229 124.032 130.563 124.722 133.078C124.722 133.078 125.488 134.795 125.488 135.332C125.488 135.869 124.829 136.62 124.829 136.62V138.767C124.829 138.767 125.596 141.235 125.703 141.772C125.81 142.309 125.274 142.738 125.274 142.738C125.274 142.738 125.81 144.992 125.933 145.636C126.04 146.28 125.504 146.709 125.504 146.709C125.826 149.914 126.086 151.831 125.718 153.701C125.35 154.299 125.151 154.56 124.844 154.667L123.863 155.526L124.844 154.238L125.166 153.809L123.756 154.775L125.166 153.272C125.58 151.401 125.166 149.531 124.844 146.709C124.246 146.694 124.078 146.387 123.97 145.529L123.418 146.495L123.955 144.885L124.062 142.738C123.418 142.569 123.311 142.125 123.296 141.128L122.744 142.201L123.296 140.484L123.403 137.586C122.514 137.141 122.222 136.789 121.762 136.083L121.44 136.62L121.655 135.439L121.333 133.615L121.011 134.366L121.226 132.863L121.011 131.253L120.459 132.327L120.888 130.609C120.628 129.061 120.766 128.156 121.103 126.531C121.103 126.531 120.444 125.887 120.444 124.921C120.444 123.955 120.873 122.989 121.532 121.808C122.192 120.627 123.71 119.125 124.139 118.695C124.568 118.266 125.228 116.656 125.228 116.656L124.461 114.939L122.284 120.213C122.284 120.213 119.784 124.292 118.696 125.595C117.607 126.883 113.467 129.567 113.467 129.567C113.774 129.674 117.822 137.525 117.929 140.208C117.883 140.852 117.27 141.174 117.27 141.174C117.27 141.174 118.466 146.878 118.466 147.307C118.466 147.737 117.929 148.381 117.929 148.381C117.929 148.381 118.696 151.815 118.696 152.245C118.696 152.674 118.036 152.996 118.036 152.996C118.282 156.446 118.542 158.363 118.144 161.813C118.036 162.533 117.96 162.871 117.714 163.315L115.966 165.14L117.162 163.423L115.859 164.174L117.484 162.564C117.883 158.807 117.622 156.676 117.178 152.981L117.147 152.781C116.902 152.628 116.764 152.521 116.825 151.708L116.288 152.781L116.718 151.064L116.61 148.273C116.074 148.013 115.997 147.553 115.844 146.771L115.414 147.951L115.844 145.912V141.833C114.985 141.695 114.663 141.327 114.326 140.331L113.896 138.506L113.467 139.365L113.574 137.862C113.375 137.402 113.314 136.973 113.252 136.145L112.93 137.003V135.501C112.608 134.642 112.547 134.121 112.501 133.139L111.949 134.105L112.271 132.603L111.949 130.349C111.366 130.855 110.983 130.993 110.201 130.993C111.796 134.995 112.578 137.295 113.682 141.527C113.59 142.523 113.375 142.799 112.915 143.137C113.145 145.743 113.283 147.369 113.452 149.377C113.252 149.822 113.099 149.945 112.792 150.129C112.792 150.129 113.452 154.1 113.222 154.545C113.007 154.974 112.455 154.867 112.455 154.867C112.501 158.777 112.67 161.966 111.474 164.757C110.937 165.401 110.6 165.615 110.6 165.615L109.296 166.903L110.6 165.186L109.296 165.937L110.937 164.435C111.535 162.533 111.78 161.414 111.704 159.375V154.744C111.397 154.529 111.32 154.192 111.274 153.456L110.615 154.529L111.274 152.812L111.596 150.021C111.213 149.546 111.167 149.147 111.167 148.411L110.293 149.592L111.167 147.767L111.596 143.351C110.768 143.275 110.462 143.091 110.293 142.385L109.864 139.917L109.204 140.883L109.634 139.38C109.48 138.813 109.327 138.23 109.204 137.663L108.652 139.012L109.204 136.804C108.944 136.022 108.913 135.485 108.99 134.443L108.223 135.623L108.99 133.691C108.99 133.691 108.668 130.793 108.668 130.149C108.668 129.505 108.453 129.183 108.668 128.754C108.882 128.325 109.971 125.641 111.934 123.694C113.896 121.762 116.074 120.152 116.074 120.152L114.433 117.361C113.237 118.864 111.596 119.83 110.615 120.259C108.33 122.943 103.424 125.641 99.299 126.178C96.907 126.607 93.4263 126.715 93.3036 126.5C93.1963 126.285 93.8556 125.749 93.8556 125.749C93.8556 125.749 84.3796 124.246 82.969 122.958C83.0763 122.743 83.6283 122.529 83.6283 122.529C83.6283 122.529 77.863 119.845 76.115 118.005C76.115 117.791 77.311 117.683 77.311 117.683C75.149 115.475 73.7536 114.187 71.101 111.872C71.101 111.872 69.2456 111.55 69.031 109.833C68.8163 108.115 70.6716 105.095 70.6716 105.095C70.6716 105.095 70.2423 105.417 70.1196 105.095C70.0123 104.773 75.1336 100.464 75.1336 100.464C75.1336 100.464 73.9376 100.142 74.045 99.7127C74.1523 99.2833 85.4836 93.6867 85.4836 93.6867C85.223 93.3953 84.763 92.7973 84.947 92.7207C85.1156 92.6287 95.7416 90.1293 101.047 88.8873C101.047 88.8873 100.526 87.8753 100.633 87.5533V87.4Z" fill="#272729"/>
<path d="M145.084 90.3748C142.554 88.7954 138.138 86.9094 138.138 86.9094C138.138 86.9094 138.46 88.1668 140.024 89.1174C141.604 90.0681 145.069 92.5828 146.02 93.2268C146.97 93.8554 147.599 94.4841 147.906 96.3854C148.228 98.2714 146.326 100.173 146.326 100.173C146.326 100.173 148.212 99.5441 148.856 98.9154C149.485 98.2868 149.807 96.7074 149.485 95.4501C149.163 94.1928 147.599 91.9848 145.069 90.4054L145.084 90.3748ZM99.3297 122.559C98.0724 123.51 94.9137 124.767 94.9137 124.767C94.9137 124.767 98.0724 121.931 99.3297 119.723C100.587 117.515 102.488 115.307 102.488 115.307C102.488 115.307 100.602 121.624 99.3297 122.559ZM86.7104 115.307C84.5024 117.193 78.8137 117.193 78.8137 117.193C78.8137 117.193 80.6997 116.564 83.5517 115.307C86.3884 114.049 90.4977 110.891 90.4977 110.891C90.4977 110.891 88.9184 113.421 86.7104 115.307ZM107.855 90.0681C106.598 89.7461 102.182 89.1174 102.182 89.1174C102.182 89.1174 109.128 91.6474 110.385 92.2761L115.752 96.0634C115.752 96.0634 113.544 92.9048 112.286 91.9541C111.029 91.0034 109.128 90.3748 107.87 90.0681H107.855ZM127.098 90.3901C124.89 88.8108 119.846 86.9248 119.846 86.9248C119.846 86.9248 122.682 89.1328 124.89 90.7121C127.098 92.2914 130.564 95.7568 130.564 95.7568C130.564 95.7568 129.306 91.9694 127.098 90.3901ZM93.9631 93.5488C91.4331 93.2268 87.0171 93.5488 87.0171 93.5488C87.0171 93.5488 90.1757 94.1774 93.0124 94.4994C95.8491 94.8214 95.5424 94.8214 98.0571 96.0788L103.102 98.6088C103.102 98.6088 100.572 96.0788 98.9924 95.1434C97.4131 94.1928 96.4624 93.8861 93.9477 93.5641L93.9631 93.5488ZM78.7831 101.752C76.5751 101.798 72.2051 104.405 72.2051 104.405C72.2051 104.405 77.2191 102.733 79.7491 102.672C82.2791 102.626 85.4377 102.871 85.4377 102.871C85.4377 102.871 80.9911 101.691 78.7831 101.737V101.752Z" fill="white"/>
</g>
<defs>
<clipPath id="clip0_324_306">
<rect width="230" height="230" fill="white"/>
</clipPath>
</defs>
</svg>
