<svg width="230" height="230" viewBox="0 0 230 230" fill="none" xmlns="http://www.w3.org/2000/svg">
<path d="M230 115C230 178.511 178.511 230 115 230C108.361 230 101.859 229.433 95.5267 228.359C51.8727 220.923 16.6213 188.876 4.508 147.001C1.57933 136.85 0 126.101 0 115C0 51.4893 51.4893 0 115 0C178.511 0 230 51.4893 230 115Z" fill="white"/>
<path d="M205.818 115C205.818 127.267 203.411 139.15 198.673 150.343C194.104 161.153 187.556 170.875 179.215 179.216C170.874 187.557 161.152 194.105 150.342 198.674C139.149 203.412 127.25 205.804 114.999 205.804C102.748 205.804 90.849 203.397 79.6557 198.674C68.8457 194.105 59.1244 187.557 50.783 179.216C42.4417 170.875 35.8944 161.153 31.325 150.343C26.587 139.15 24.1797 127.251 24.1797 115C24.1797 102.749 26.587 90.85 31.325 79.6413C35.8944 68.8313 42.4417 59.11 50.783 50.7687C59.1244 42.4273 68.8304 35.88 79.6557 31.3107C90.849 26.5727 102.732 24.1807 114.999 24.1807C127.266 24.1807 139.149 26.5727 150.342 31.3107C161.152 35.88 170.874 42.4273 179.215 50.7687C187.556 59.11 194.104 68.816 198.673 79.6413C203.411 90.8347 205.818 102.733 205.818 115Z" fill="#FFD300"/>
<path d="M115 24.1806C127.266 24.1806 139.15 26.588 150.343 31.3106C161.153 35.88 170.874 42.4273 179.216 50.7686C187.557 59.11 194.104 68.8159 198.674 79.6413C203.412 90.8346 205.804 102.733 205.804 114.985C205.804 127.236 203.396 139.135 198.674 150.328C194.104 161.138 187.557 170.859 179.216 179.201C170.874 187.542 161.168 194.089 150.343 198.659C139.15 203.397 127.251 205.789 115 205.789C102.748 205.789 90.8495 203.381 79.6562 198.659C68.8462 194.089 59.1248 187.542 50.7835 179.201C42.4422 170.859 35.8948 161.153 31.3255 150.328C26.5875 139.135 24.1955 127.236 24.1955 114.985C24.1955 102.733 26.6028 90.8346 31.3255 79.6413C35.8948 68.8313 42.4422 59.11 50.7835 50.7686C59.1248 42.4273 68.8308 35.88 79.6562 31.3106C90.8495 26.5726 102.748 24.1806 115 24.1806ZM115 20.7C62.9275 20.7 20.7148 62.9126 20.7148 114.985C20.7148 167.057 62.9275 209.269 115 209.269C167.072 209.269 209.3 167.057 209.3 114.985C209.3 62.9126 167.072 20.7153 115 20.7153V20.7Z" fill="#272729"/>
<g opacity="0.1">
<path d="M71.899 79.8867H49.957V124.829H71.899C82.0497 124.829 89.2564 117.438 89.2564 107.027V97.6887C89.2564 87.2927 82.111 79.8867 71.899 79.8867ZM78.2777 106.643C78.2777 111.857 75.6404 114.54 70.565 114.54H60.7824V90.0987H70.565C75.6404 90.0987 78.2777 92.7974 78.2777 98.0567V106.643Z" fill="#272729"/>
<path d="M180.029 88.0594L159.728 114.509H179.922V124.675H145.621V116.273L165.861 89.8227H146.878V79.7334H180.029V88.0594Z" fill="#272729"/>
<path d="M135.292 103.02L120.318 117.993L126.997 124.672L141.97 109.699L135.292 103.02Z" fill="#272729"/>
<path d="M123.459 91.1825L113.668 100.973L120.347 107.652L130.137 97.8614L123.459 91.1825Z" fill="#272729"/>
<path d="M111.299 79.7437L96.6836 94.3591L103.319 100.995L117.935 86.3792L111.299 79.7437Z" fill="#272729"/>
<path d="M67.3156 159.497H69.7843V163.576H66.4723C64.8776 163.576 63.5129 163.269 62.3629 162.641C61.2129 162.027 60.3236 161.123 59.6949 159.957C59.0663 158.792 58.7596 157.412 58.7596 155.817V145.605H54.8496V144.762L62.4396 136.697H63.2063V141.787H69.6616V145.621H63.2523V155.465C63.2523 156.753 63.6049 157.749 64.2949 158.455C65.0003 159.16 65.9969 159.497 67.3156 159.497Z" fill="#272729"/>
<path d="M92.1399 141.787H95.6052V163.576H91.9712L91.5265 160.908C89.4259 163.039 86.8039 164.097 83.6605 164.097C80.5172 164.097 77.6959 163.009 75.5339 160.831C73.3719 158.654 72.2832 155.925 72.2832 152.659C72.2832 149.393 73.3719 146.679 75.5339 144.501C77.6959 142.339 80.4099 141.251 83.6605 141.251C86.9112 141.251 89.5179 142.324 91.6032 144.486L92.1245 141.787H92.1399ZM78.8765 157.78C80.2412 159.145 81.9432 159.819 83.9979 159.819C86.0525 159.819 87.7545 159.145 89.0885 157.78C90.4225 156.415 91.0819 154.713 91.0819 152.659C91.0819 150.604 90.4225 148.902 89.0885 147.553C87.7545 146.203 86.0525 145.529 83.9825 145.529C82.6332 145.529 81.4219 145.835 80.3332 146.464C79.2445 147.077 78.3859 147.936 77.7725 149.025C77.1592 150.113 76.8372 151.325 76.8372 152.674C76.8372 154.713 77.5119 156.415 78.8765 157.78Z" fill="#272729"/>
<path d="M111.799 164.097C108.563 164.097 105.865 163.009 103.672 160.816C101.479 158.623 100.391 155.909 100.391 152.659C100.391 149.408 101.479 146.709 103.672 144.532C105.865 142.355 108.594 141.266 111.845 141.266C114.513 141.266 116.828 142.017 118.791 143.52C120.753 145.023 122.026 147.031 122.624 149.531H118.177C117.61 148.289 116.767 147.323 115.632 146.602C114.497 145.897 113.225 145.529 111.799 145.529C110.526 145.529 109.376 145.835 108.333 146.464C107.291 147.077 106.463 147.936 105.849 149.025C105.251 150.113 104.945 151.325 104.945 152.674C104.945 154.698 105.604 156.385 106.923 157.765C108.241 159.145 109.867 159.819 111.799 159.819C113.225 159.819 114.497 159.451 115.617 158.731C116.736 158.01 117.579 156.967 118.177 155.618H122.701C122.087 158.179 120.784 160.218 118.806 161.767C116.828 163.315 114.497 164.082 111.799 164.082V164.097Z" fill="#272729"/>
<path d="M136.777 159.497H139.245V163.576H135.933C134.339 163.576 132.974 163.269 131.824 162.641C130.674 162.027 129.785 161.123 129.156 159.957C128.527 158.792 128.221 157.412 128.221 155.817V145.605H124.311V144.762L131.901 136.697H132.667V141.787H139.123V145.621H132.713V155.465C132.713 156.753 133.066 157.749 133.756 158.455C134.461 159.16 135.458 159.497 136.777 159.497Z" fill="#272729"/>
<path d="M143.508 138.399V133.799H148.154V138.399H143.508ZM143.584 163.576V141.787H148.062V163.576H143.584Z" fill="#272729"/>
<path d="M164.254 164.097C161.018 164.097 158.32 163.009 156.127 160.816C153.934 158.623 152.846 155.909 152.846 152.659C152.846 149.408 153.934 146.709 156.127 144.532C158.32 142.355 161.049 141.266 164.3 141.266C166.968 141.266 169.283 142.017 171.246 143.52C173.208 145.023 174.481 147.031 175.079 149.531H170.632C170.065 148.289 169.222 147.323 168.087 146.602C166.952 145.897 165.68 145.529 164.254 145.529C162.981 145.529 161.831 145.835 160.788 146.464C159.746 147.077 158.918 147.936 158.304 149.025C157.706 150.113 157.4 151.325 157.4 152.674C157.4 154.698 158.059 156.385 159.378 157.765C160.696 159.145 162.322 159.819 164.254 159.819C165.68 159.819 166.952 159.451 168.072 158.731C169.191 158.01 170.034 156.967 170.632 155.618H175.156C174.542 158.179 173.239 160.218 171.261 161.767C169.283 163.315 166.952 164.082 164.254 164.082V164.097Z" fill="#272729"/>
<path d="M120.322 107.625L113.682 100.985L108.5 106.168L103.317 100.985L96.6777 107.625L101.86 112.807L96.6777 117.99L103.317 124.629L108.5 119.447L113.682 124.629L120.322 117.99L115.139 112.807L120.322 107.625Z" fill="#FF0000"/>
</g>
<path d="M182.082 194.672C196.936 194.672 208.977 182.631 208.977 167.777C208.977 152.924 196.936 140.883 182.082 140.883C167.229 140.883 155.188 152.924 155.188 167.777C155.188 182.631 167.229 194.672 182.082 194.672Z" fill="#272729"/>
<path d="M182.083 191.667C195.276 191.667 205.972 180.971 205.972 167.778C205.972 154.584 195.276 143.888 182.083 143.888C168.889 143.888 158.193 154.584 158.193 167.778C158.193 180.971 168.889 191.667 182.083 191.667Z" fill="#FFD300"/>
<path d="M198.09 160.755L189.089 151.769L182.082 158.777L175.059 151.769L166.059 160.755L173.081 167.777L166.059 174.8L175.059 183.785L182.082 176.778L189.089 183.785L198.09 174.8L191.083 167.777L198.09 160.755Z" fill="#FF0000"/>
<path d="M116.901 94.4073C116.901 94.4073 115.858 92.8739 114.999 92.8739C114.141 92.8739 113.098 94.4073 113.098 94.4073C113.098 94.4073 112.224 93.3953 111.534 93.3953C110.844 93.3953 110.323 93.9013 109.449 95.4346C108.575 96.9679 108.759 100.019 110.323 102.059C109.648 102.503 109.326 102.856 108.927 103.761L108.237 102.917C108.237 102.917 107.547 100.541 107.195 99.6819C106.842 98.8386 99.5586 95.2659 99.0373 95.0973C98.5159 94.9286 98.5159 95.4346 98.5159 95.4346C96.1239 93.1346 94.6979 92.0919 91.7539 91.3559C91.9533 88.7493 91.7539 87.3999 90.7113 85.2379C90.7113 85.2379 94.6979 81.1593 94.8666 80.1473C95.0353 79.1353 93.9926 78.7826 93.9926 78.7826C93.9926 78.7826 94.8666 77.5866 94.6826 77.2493C94.5139 76.9119 92.0759 74.7039 92.0759 74.7039C92.0759 74.7039 91.3859 74.3666 91.0333 74.5353C90.6806 74.7039 91.0333 75.3786 91.0333 75.3786C91.0333 75.3786 92.2906 76.3599 92.5973 77.2493C92.7506 77.6939 92.7659 78.4453 92.7659 78.4453C91.8306 79.1353 91.4626 79.6719 91.0333 80.8219C91.0333 80.8219 87.9973 85.7439 88.7793 90.3439C89.5613 94.9286 96.9366 96.9679 96.9366 96.9679C96.9366 96.9679 96.4153 97.9799 96.9366 98.1639C97.4579 98.3326 104.741 100.709 104.91 101.047C105.079 101.384 105.263 103.761 105.6 104.282C105.953 104.788 106.811 105.647 106.811 105.647C105.017 107.195 104.45 108.192 103.867 110.063C103.867 110.063 101.261 110.231 100.218 110.063C99.1753 109.894 96.3999 109.219 96.3999 109.219C95.1273 109.005 94.8359 109.265 94.4986 109.894C91.6313 109.48 89.9446 109.679 86.8626 110.569C85.7279 110.063 85.0839 110.032 83.9186 110.063C82.9986 109.342 82.6306 109.281 82.0173 109.219L81.3273 109.557C81.3273 109.557 79.0733 107.686 78.7206 107.349C78.3679 107.011 78.1993 107.349 78.1993 107.349C78.1993 107.349 76.8039 105.647 76.1139 105.647C75.4239 105.647 74.3813 106.153 74.3813 106.153C74.3813 106.153 74.0286 106.321 74.0286 106.659C74.0286 106.996 74.9026 106.996 74.9026 106.996H76.1139L76.9879 108.529C76.9879 108.529 79.9319 111.243 80.2846 111.243C80.6373 111.243 82.8913 112.608 83.9339 112.945C84.9766 113.283 90.5273 112.608 90.5273 112.608C90.5273 112.608 90.5273 113.283 91.0486 113.451C91.5699 113.62 94.1766 112.945 94.1766 112.945C94.1766 112.945 98.5159 112.439 98.8533 112.608C98.8533 113.451 102.671 112.608 102.671 112.608L101.797 115.843C101.797 115.843 94.1613 117.883 94.5139 119.079L94.4373 119.109C93.2719 119.493 89.3006 120.781 86.8933 121.808C86.1573 122.207 85.9426 122.483 85.6819 123.004C85.6819 123.004 82.7379 121.471 82.0326 121.471C81.3273 121.471 80.8213 121.808 80.8213 121.808C79.7479 120.934 79.1039 120.505 77.5246 120.275C77.5246 120.275 75.9606 118.741 74.3966 118.235C72.8326 117.729 71.9739 117.729 71.2686 117.729C70.5633 117.729 70.2259 118.741 70.5786 118.741H71.7899C72.8633 118.803 73.3539 118.987 74.0439 119.585C74.5039 120.995 74.9946 121.593 76.1293 122.467C77.2333 123.357 78.0306 123.663 79.7786 123.832L81.6799 125.365C83.8879 125.887 84.6699 125.549 86.0193 124.859C86.5713 125.35 86.8779 125.488 87.4146 125.365C90.0366 124.921 91.3399 123.863 93.6553 121.793C93.6553 121.793 94.3453 122.636 94.8666 122.636C95.3879 122.636 100.249 119.585 100.249 119.585C100.249 119.585 99.2059 123.326 98.8533 124.507C98.5006 125.703 98.5006 128.079 98.5006 128.079C96.8753 129.904 95.9706 130.947 94.8513 133.691C94.8513 133.691 90.5119 138.782 90.5119 139.135C90.5119 139.487 91.2019 140.668 91.2019 140.668C89.7146 143.29 88.9786 144.808 88.2579 147.629C88.1046 150.267 88.2273 151.723 89.1319 154.253C90.3586 156.216 91.0946 157.259 92.5973 159.007C93.8239 159.881 94.4833 160.157 95.5413 159.681L96.9366 160.693V162.733C96.9366 162.733 96.9366 163.576 97.6266 163.576C98.3166 163.576 98.5006 162.38 98.5006 162.38C98.7306 161.736 98.7306 161.261 98.5006 160.172C97.8106 159.037 97.0746 158.731 95.6639 158.301C94.8053 156.753 94.1306 155.955 92.2599 154.729C92.3979 152.858 92.1066 151.647 91.2173 149.285C92.4746 147.829 92.6433 146.663 92.6126 144.363C92.9959 144.455 93.0879 142.615 93.1339 141.312C95.4339 138.552 96.3539 136.804 97.9639 133.707L97.9946 133.661C97.9946 133.661 98.6846 143.351 101.291 147.599C103.898 151.846 108.927 154.223 114.999 154.223C121.071 154.223 126.101 151.846 128.707 147.599C131.314 143.351 132.004 133.661 132.004 133.661L132.035 133.707C133.66 136.804 134.565 138.552 136.865 141.312C136.911 142.615 137.003 144.471 137.386 144.363C137.355 146.663 137.524 147.829 138.781 149.285C137.892 151.631 137.616 152.858 137.739 154.729C135.868 155.955 135.193 156.753 134.335 158.301C132.924 158.731 132.188 159.037 131.498 160.172C131.268 161.261 131.268 161.736 131.498 162.38C131.498 162.38 131.667 163.576 132.372 163.576C133.077 163.576 133.062 162.733 133.062 162.733V160.693L134.457 159.681C135.515 160.157 136.175 159.881 137.401 159.007C138.904 157.259 139.64 156.201 140.867 154.253C141.756 151.723 141.894 150.267 141.741 147.629C141.02 144.793 140.284 143.29 138.797 140.668C138.797 140.668 139.487 139.472 139.487 139.135C139.487 138.797 135.147 133.691 135.147 133.691C134.028 130.947 133.123 129.904 131.498 128.079C131.498 128.079 131.498 125.703 131.145 124.507C130.67 122.866 130.21 121.225 129.75 119.585C129.75 119.585 134.611 122.636 135.132 122.636C135.653 122.636 136.343 121.793 136.343 121.793C138.659 123.863 139.977 124.921 142.584 125.365C143.105 125.488 143.412 125.335 143.979 124.859C145.329 125.549 146.111 125.902 148.319 125.365L150.22 123.832C151.968 123.679 152.75 123.357 153.869 122.467C154.989 121.578 155.495 120.995 155.955 119.585C156.645 118.971 157.135 118.787 158.209 118.741H159.42C159.773 118.741 159.42 117.729 158.73 117.729C158.04 117.729 157.166 117.729 155.602 118.235C154.038 118.741 152.474 120.275 152.474 120.275C150.895 120.505 150.251 120.919 149.177 121.808C149.177 121.808 148.656 121.471 147.966 121.471C147.276 121.471 144.317 123.004 144.317 123.004C144.056 122.483 143.841 122.207 143.105 121.808C140.698 120.796 136.711 119.493 135.561 119.109L135.485 119.079C135.837 117.883 128.201 115.843 128.201 115.843L127.327 112.608C127.327 112.608 131.145 113.451 131.145 112.608C131.498 112.439 135.837 112.945 135.837 112.945C135.837 112.945 138.444 113.62 138.965 113.451C139.487 113.283 139.487 112.608 139.487 112.608C139.487 112.608 145.037 113.283 146.08 112.945C147.123 112.608 149.377 111.243 149.729 111.243C150.082 111.243 153.026 108.529 153.026 108.529L153.9 106.996H155.111C155.111 106.996 155.985 106.996 155.985 106.659C155.985 106.321 155.633 106.153 155.633 106.153C155.633 106.153 154.59 105.647 153.9 105.647C153.21 105.647 151.815 107.349 151.815 107.349C151.815 107.349 151.646 107.011 151.293 107.349C150.941 107.686 148.687 109.557 148.687 109.557L147.997 109.219C147.368 109.296 147.015 109.342 146.095 110.063C144.93 110.032 144.286 110.063 143.151 110.569C140.069 109.679 138.383 109.48 135.515 109.894C135.178 109.265 134.871 109.005 133.614 109.219C133.614 109.219 130.839 109.894 129.796 110.063C128.753 110.231 126.147 110.063 126.147 110.063C125.564 108.177 124.981 107.195 123.203 105.647C123.203 105.647 124.077 104.803 124.414 104.282C124.767 103.776 124.935 101.399 125.104 101.047C125.273 100.709 132.556 98.3326 133.077 98.1639C133.599 97.9953 133.077 96.9679 133.077 96.9679C133.077 96.9679 140.453 94.9286 141.235 90.3439C142.017 85.7593 138.981 80.8219 138.981 80.8219C138.551 79.6719 138.183 79.1353 137.248 78.4453C137.248 78.4453 137.263 77.6939 137.417 77.2493C137.723 76.3599 138.981 75.3786 138.981 75.3786C138.981 75.3786 139.333 74.7039 138.981 74.5353C138.628 74.3666 137.938 74.7039 137.938 74.7039C137.938 74.7039 135.515 76.9119 135.331 77.2493C135.163 77.5866 136.021 78.7826 136.021 78.7826C136.021 78.7826 134.979 79.1199 135.147 80.1473C135.316 81.1593 139.303 85.2379 139.303 85.2379C138.26 87.3999 138.076 88.7493 138.26 91.3559C135.301 92.0919 133.875 93.1346 131.498 95.4346C131.498 95.4346 131.498 94.9286 130.977 95.0973C130.455 95.2659 123.172 98.8386 122.819 99.6819C122.467 100.525 121.777 102.917 121.777 102.917L121.087 103.761C120.688 102.856 120.366 102.503 119.691 102.059C121.255 100.019 121.424 96.9679 120.565 95.4346C119.691 93.9013 119.17 93.3953 118.48 93.3953C117.79 93.3953 116.916 94.4073 116.916 94.4073H116.901Z" fill="#272729"/>
<path d="M110.048 97.5812C110.385 95.6032 111.045 94.9438 111.045 94.9438C111.045 94.9438 110.707 97.2592 111.045 98.8999C111.382 100.556 111.704 100.878 113.023 101.215C114.341 101.553 116.871 101.215 117.975 100.556C119.079 99.8965 120.291 98.2405 120.291 98.2405C120.291 98.2405 119.953 99.5592 119.631 100.556C119.294 101.553 116.994 102.212 115.016 102.212C113.038 102.212 111.719 102.212 111.06 101.553C110.401 100.893 109.741 99.5745 110.063 97.5965L110.048 97.5812ZM121.931 106.49C120.935 105.493 119.294 104.834 119.294 104.834C119.294 104.834 120.95 106.153 121.931 107.809C122.928 109.465 123.909 110.783 124.906 113.083C125.903 115.399 127.221 118.358 127.881 121.992C128.54 125.626 128.877 127.267 128.877 130.579C128.877 133.891 128.54 138.491 127.881 141.143C127.221 143.796 124.247 148.396 121.947 149.73C119.631 151.049 114.694 151.708 111.382 151.049C108.085 150.389 105.111 147.752 104.451 146.096C103.792 144.44 102.136 141.143 101.814 138.843C101.477 136.528 100.817 133.569 100.817 131.913C100.817 130.257 101.814 125.319 102.136 122.007C102.473 118.711 102.795 116.733 102.795 116.733L101.799 120.689C100.802 121.026 99.4834 124.982 100.143 128.279C100.143 128.279 98.824 131.575 100.143 133.553C100.48 137.187 101.461 144.118 103.777 147.077C106.092 150.052 109.051 152.03 112.363 152.352C115.675 152.674 117.975 152.689 121.272 151.033C124.569 149.377 126.547 147.737 127.865 144.103C129.184 140.469 129.843 136.191 129.843 133.538C130.84 131.56 129.184 128.263 129.184 128.263C130.181 125.948 128.525 118.036 126.547 116.717C127.206 114.402 125.887 111.765 124.891 111.443C124.891 108.805 122.913 107.487 121.916 106.49H121.931Z" fill="white"/>
</svg>
