<svg width="230" height="230" viewBox="0 0 230 230" fill="none" xmlns="http://www.w3.org/2000/svg">
<path d="M230 115C230 178.511 178.511 230 115 230C108.361 230 101.859 229.433 95.5267 228.359C51.8727 220.923 16.6213 188.876 4.508 147.001C1.57933 136.85 0 126.101 0 115C0 51.4893 51.4893 0 115 0C178.511 0 230 51.4893 230 115Z" fill="white"/>
<path d="M205.818 115C205.818 127.267 203.411 139.15 198.673 150.343C194.104 161.153 187.556 170.875 179.215 179.216C170.874 187.557 161.152 194.105 150.342 198.674C139.149 203.412 127.25 205.804 114.999 205.804C102.748 205.804 90.849 203.397 79.6557 198.674C68.8457 194.105 59.1244 187.557 50.783 179.216C42.4417 170.875 35.8944 161.153 31.325 150.343C26.587 139.15 24.1797 127.251 24.1797 115C24.1797 102.749 26.587 90.85 31.325 79.6413C35.8944 68.8313 42.4417 59.11 50.783 50.7687C59.1244 42.4273 68.8304 35.88 79.6557 31.3107C90.849 26.5727 102.732 24.1807 114.999 24.1807C127.266 24.1807 139.149 26.5727 150.342 31.3107C161.152 35.88 170.874 42.4273 179.215 50.7687C187.556 59.11 194.104 68.816 198.673 79.6413C203.411 90.8347 205.818 102.733 205.818 115Z" fill="#FFD300"/>
<path d="M115 24.1806C127.266 24.1806 139.15 26.588 150.343 31.3106C161.153 35.88 170.874 42.4273 179.215 50.7686C187.557 59.11 194.104 68.8159 198.674 79.6413C203.412 90.8346 205.804 102.733 205.804 114.985C205.804 127.236 203.396 139.135 198.674 150.328C194.104 161.138 187.557 170.859 179.215 179.201C170.874 187.542 161.168 194.089 150.343 198.659C139.15 203.397 127.251 205.789 115 205.789C102.748 205.789 90.8495 203.381 79.6562 198.659C68.8462 194.089 59.1248 187.542 50.7835 179.201C42.4422 170.859 35.8948 161.153 31.3255 150.328C26.5875 139.135 24.1955 127.236 24.1955 114.985C24.1955 102.733 26.6028 90.8346 31.3255 79.6413C35.8948 68.8313 42.4422 59.11 50.7835 50.7686C59.1248 42.4273 68.8308 35.88 79.6562 31.3106C90.8495 26.5726 102.748 24.1806 115 24.1806ZM115 20.7C62.9275 20.7 20.7148 62.9126 20.7148 114.985C20.7148 167.057 62.9275 209.269 115 209.269C167.072 209.269 209.299 167.057 209.299 114.985C209.299 62.9126 167.072 20.7153 115 20.7153V20.7Z" fill="#272729"/>
<g opacity="0.1">
<path d="M71.899 79.8867H49.957V124.829H71.899C82.0497 124.829 89.2564 117.438 89.2564 107.027V97.6887C89.2564 87.2927 82.111 79.8867 71.899 79.8867ZM78.2777 106.643C78.2777 111.857 75.6404 114.54 70.565 114.54H60.7824V90.0987H70.565C75.6404 90.0987 78.2777 92.7974 78.2777 98.0567V106.643Z" fill="#272729"/>
<path d="M180.029 88.0594L159.728 114.509H179.922V124.675H145.621V116.273L165.861 89.8227H146.878V79.7334H180.029V88.0594Z" fill="#272729"/>
<path d="M135.292 103.02L120.318 117.993L126.997 124.672L141.97 109.699L135.292 103.02Z" fill="#272729"/>
<path d="M123.457 91.1825L113.666 100.973L120.345 107.652L130.135 97.8614L123.457 91.1825Z" fill="#272729"/>
<path d="M111.299 79.744L96.6836 94.3594L103.319 100.995L117.935 86.3794L111.299 79.744Z" fill="#272729"/>
<path d="M67.3156 159.497H69.7843V163.576H66.4723C64.8776 163.576 63.5129 163.269 62.3629 162.641C61.2129 162.027 60.3236 161.123 59.6949 159.957C59.0663 158.792 58.7596 157.412 58.7596 155.817V145.605H54.8496V144.762L62.4396 136.697H63.2063V141.787H69.6616V145.621H63.2523V155.465C63.2523 156.753 63.6049 157.749 64.2949 158.455C65.0003 159.16 65.9969 159.497 67.3156 159.497Z" fill="#272729"/>
<path d="M92.1418 141.787H95.6072V163.576H91.9732L91.5285 160.908C89.4278 163.039 86.8058 164.097 83.6625 164.097C80.5192 164.097 77.6978 163.009 75.5358 160.831C73.3738 158.654 72.2852 155.925 72.2852 152.659C72.2852 149.393 73.3738 146.679 75.5358 144.501C77.6978 142.339 80.4118 141.251 83.6625 141.251C86.9132 141.251 89.5198 142.324 91.6052 144.486L92.1265 141.787H92.1418ZM78.8785 157.78C80.2432 159.145 81.9452 159.819 83.9998 159.819C86.0545 159.819 87.7565 159.145 89.0905 157.78C90.4245 156.415 91.0838 154.713 91.0838 152.659C91.0838 150.604 90.4245 148.902 89.0905 147.553C87.7565 146.203 86.0545 145.529 83.9845 145.529C82.6352 145.529 81.4238 145.835 80.3352 146.464C79.2465 147.077 78.3878 147.936 77.7745 149.025C77.1612 150.113 76.8392 151.325 76.8392 152.674C76.8392 154.713 77.5138 156.415 78.8785 157.78Z" fill="#272729"/>
<path d="M111.799 164.097C108.563 164.097 105.865 163.009 103.672 160.816C101.479 158.623 100.391 155.909 100.391 152.659C100.391 149.408 101.479 146.709 103.672 144.532C105.865 142.355 108.594 141.266 111.845 141.266C114.513 141.266 116.828 142.017 118.791 143.52C120.753 145.023 122.026 147.031 122.624 149.531H118.177C117.61 148.289 116.767 147.323 115.632 146.602C114.497 145.897 113.225 145.529 111.799 145.529C110.526 145.529 109.376 145.835 108.333 146.464C107.291 147.077 106.463 147.936 105.849 149.025C105.251 150.113 104.945 151.325 104.945 152.674C104.945 154.698 105.604 156.385 106.923 157.765C108.241 159.145 109.867 159.819 111.799 159.819C113.225 159.819 114.497 159.451 115.617 158.731C116.736 158.01 117.579 156.967 118.177 155.618H122.701C122.087 158.179 120.784 160.218 118.806 161.767C116.828 163.315 114.497 164.082 111.799 164.082V164.097Z" fill="#272729"/>
<path d="M136.777 159.497H139.245V163.576H135.933C134.339 163.576 132.974 163.269 131.824 162.641C130.674 162.027 129.785 161.123 129.156 159.957C128.527 158.792 128.221 157.412 128.221 155.817V145.605H124.311V144.762L131.901 136.697H132.667V141.787H139.123V145.621H132.713V155.465C132.713 156.753 133.066 157.749 133.756 158.455C134.461 159.16 135.458 159.497 136.777 159.497Z" fill="#272729"/>
<path d="M143.508 138.399V133.799H148.154V138.399H143.508ZM143.584 163.576V141.787H148.062V163.576H143.584Z" fill="#272729"/>
<path d="M164.254 164.097C161.018 164.097 158.32 163.009 156.127 160.816C153.934 158.623 152.846 155.909 152.846 152.659C152.846 149.408 153.934 146.709 156.127 144.532C158.32 142.355 161.049 141.266 164.3 141.266C166.968 141.266 169.283 142.017 171.246 143.52C173.208 145.023 174.481 147.031 175.079 149.531H170.632C170.065 148.289 169.222 147.323 168.087 146.602C166.952 145.897 165.68 145.529 164.254 145.529C162.981 145.529 161.831 145.835 160.788 146.464C159.746 147.077 158.918 147.936 158.304 149.025C157.706 150.113 157.4 151.325 157.4 152.674C157.4 154.698 158.059 156.385 159.378 157.765C160.696 159.145 162.322 159.819 164.254 159.819C165.68 159.819 166.952 159.451 168.072 158.731C169.191 158.01 170.034 156.967 170.632 155.618H175.156C174.542 158.179 173.239 160.218 171.261 161.767C169.283 163.315 166.952 164.082 164.254 164.082V164.097Z" fill="#272729"/>
<path d="M120.322 107.625L113.682 100.986L108.5 106.168L103.317 100.986L96.6777 107.625L101.86 112.808L96.6777 117.99L103.317 124.63L108.5 119.447L113.682 124.63L120.322 117.99L115.139 112.808L120.322 107.625Z" fill="#FF0000"/>
</g>
<path d="M182.082 194.672C196.936 194.672 208.977 182.631 208.977 167.777C208.977 152.924 196.936 140.883 182.082 140.883C167.229 140.883 155.188 152.924 155.188 167.777C155.188 182.631 167.229 194.672 182.082 194.672Z" fill="#272729"/>
<path d="M182.083 191.667C195.276 191.667 205.972 180.971 205.972 167.778C205.972 154.584 195.276 143.888 182.083 143.888C168.889 143.888 158.193 154.584 158.193 167.778C158.193 180.971 168.889 191.667 182.083 191.667Z" fill="#FFD300"/>
<path d="M198.09 160.755L189.089 151.769L182.082 158.777L175.059 151.769L166.059 160.755L173.081 167.777L166.059 174.8L175.059 183.785L182.082 176.778L189.089 183.785L198.09 174.8L191.083 167.777L198.09 160.755Z" fill="#FF0000"/>
<path d="M154.681 131.254C155.432 131.453 156.184 131.622 156.935 131.744C156.935 131.744 154.865 131.652 154.834 131.898C154.896 132.281 155.172 132.634 155.172 133.002C154.926 132.848 154.712 132.649 154.558 132.404C154.497 132.327 154.451 132.235 154.436 132.128C154.344 131.99 154.206 131.806 154.098 131.637L141.004 126.715C140.835 126.715 140.666 126.684 140.513 126.623C140.298 126.5 140.13 126.332 139.976 126.132C139.869 126.73 139.762 127.328 139.762 127.328V125.872C139.654 125.734 139.547 125.596 139.44 125.442L139.286 126.209L139.378 125.35L139.041 124.89L138.351 126.01L138.964 124.783C138.765 124.461 138.566 124.185 138.351 123.863L136.787 125.274L138.198 123.618C138.029 123.357 137.845 123.096 137.676 122.836C137.124 123.296 136.082 124.032 136.082 124.032L137.569 122.682C137.4 122.406 137.216 122.115 137.032 121.839L135.438 122.36L136.956 121.716L136.281 120.643L135.177 121.517L136.22 120.566C135.959 120.137 135.729 119.754 135.545 119.462L134.441 120.168C134.932 120.352 135.315 120.52 135.315 120.52C134.993 120.444 134.656 120.352 134.334 120.244L133.276 120.919C134.012 121.256 134.579 121.548 134.579 121.548C134.073 121.41 133.567 121.241 133.061 121.057L131.512 122.054C131.819 122.222 132.11 122.391 132.386 122.575C132.018 122.498 131.65 122.376 131.298 122.207L130.623 122.636C130.991 122.912 131.282 123.127 131.282 123.127C131.022 122.989 130.776 122.851 130.516 122.698L128.584 123.94C128.476 128.294 128.062 132.756 127.48 136.068H127.526C131.466 137.341 136.695 139.227 136.864 140.208C136.864 140.239 136.864 140.27 136.864 140.285C137.048 140.622 137.094 140.975 137.017 141.343L139.501 141.803L137.002 141.558C136.971 141.895 136.925 142.217 136.864 142.539L138.704 143.014L136.848 142.631C136.756 143.198 136.634 143.75 136.511 144.302L137.876 145.192L136.48 144.425C136.388 144.839 136.281 145.284 136.174 145.728L137.952 146.894L136.204 146.035C136.082 146.51 135.974 146.986 135.852 147.461L137.768 148.688C137.768 148.688 136.542 148.105 135.79 147.691C135.729 147.906 135.683 148.12 135.622 148.335L136.496 149.454L135.622 148.504L135.591 148.611C135.407 149.301 135.208 149.976 135.024 150.666L137.354 151.678C137.354 151.678 135.806 151.202 134.932 150.972C134.472 152.552 134.134 153.656 134.134 153.656C134.134 153.671 134.134 153.686 134.134 153.702C134.288 154.008 134.364 154.33 134.349 154.652C134.349 155.327 135.284 156.492 136.342 158.01C136.342 158.041 136.342 158.056 136.342 158.087L136.388 158.133C136.802 158.486 137.17 158.884 137.492 159.329C137.538 159.36 137.538 159.39 137.538 159.421L137.584 159.544C137.584 159.544 137.584 159.59 137.584 159.62C137.584 159.666 137.584 159.697 137.584 159.743C137.584 159.758 137.584 159.789 137.584 159.804C137.584 159.866 137.554 159.912 137.508 159.958L137.554 160.034L137.738 160.203L138.044 160.479C138.167 160.571 138.244 160.694 138.244 160.816C138.244 160.816 138.244 160.847 138.244 160.862C138.244 160.893 138.244 160.908 138.244 160.939C138.213 160.985 138.182 161.031 138.136 161.062L138.213 161.23V161.307C138.535 161.614 138.811 161.936 139.026 162.288C139.041 162.319 139.056 162.365 139.056 162.396C139.056 162.426 139.056 162.472 139.026 162.503C139.026 162.534 138.995 162.564 138.964 162.58C138.918 162.61 138.857 162.626 138.796 162.641L138.934 163.055C138.934 163.055 138.995 163.162 138.995 163.208C139.118 163.484 139.194 163.776 139.225 164.067V164.312C139.47 164.665 139.746 165.002 140.022 165.355C140.206 165.6 140.528 165.984 140.758 166.26L140.804 166.321C140.804 166.321 140.835 166.382 140.866 166.398L140.942 166.49V166.52L140.988 166.597C140.697 166.474 140.421 166.321 140.16 166.137C139.731 165.907 139.317 165.646 138.934 165.324C138.32 165.8 137.646 166.198 136.94 166.52C137.293 165.984 137.952 165.524 138.29 164.987C138.443 164.742 138.489 164.45 138.397 164.19C138.397 164.159 138.397 164.144 138.397 164.113C138.167 163.638 137.937 163.162 137.738 162.672C137.615 162.687 137.492 162.672 137.385 162.641C137.278 162.61 137.201 162.549 137.124 162.472C137.063 162.38 137.032 162.288 137.002 162.181C136.986 162.074 136.986 161.966 137.002 161.874V161.215C136.787 161.338 136.526 161.384 136.281 161.077C136.036 160.786 136.128 160.295 136.128 159.973C136.082 159.896 136.082 159.804 136.082 159.728L135.913 159.774C135.775 159.804 135.591 159.682 135.591 159.605C135.422 159.145 135.468 158.7 135.346 158.24C134.012 156.354 132.555 154.744 132.356 154.238V154.192L131.65 155.496L132.524 153.272C132.463 153.042 132.417 152.812 132.402 152.582L132.141 153.058L132.402 152.506C132.371 151.831 132.402 150.911 132.494 149.853L129.795 150.574L132.524 149.546C132.586 148.964 132.647 148.35 132.724 147.722C131.942 148.044 130.194 148.596 130.194 148.596L132.754 147.461L132.678 146.204L130.378 146.418L132.724 145.943C132.831 145.207 132.938 144.486 133.03 143.842L130.822 145.038L133.061 143.628C133.153 143.106 133.214 142.631 133.291 142.232L131.681 143.091L133.322 142.064C133.398 141.665 133.46 141.266 133.536 140.868L132.662 140.684V140.745C132.555 141.159 132.31 142.064 132.31 142.018C132.279 141.558 132.325 141.082 132.448 140.638L131.19 140.362C130.93 141.159 130.638 141.91 130.638 141.91C130.654 141.374 130.73 140.822 130.884 140.285L128.982 139.871C128.829 140.193 128.645 140.515 128.446 140.822C128.446 140.469 128.492 140.116 128.63 139.794L127.802 139.626C127.633 139.856 127.464 140.101 127.28 140.331C127.388 140.086 127.51 139.84 127.648 139.595L126.422 139.319C126.284 139.84 126.084 140.331 125.824 140.806C125.701 141.021 125.563 141.236 125.425 141.45C125.379 141.512 125.348 141.573 125.302 141.634C125.302 141.665 125.302 141.68 125.302 141.711C125.287 141.711 125.272 141.742 125.256 141.757C125.164 141.895 125.072 142.033 124.98 142.171L124.873 142.324C124.873 142.324 124.827 142.37 124.812 142.401C124.658 142.6 124.52 142.8 124.367 142.999L124.321 143.076L124.183 143.244L123.815 143.72V143.75C123.815 143.75 123.784 143.812 123.754 143.827L123.677 143.919L123.232 144.456L123.125 144.594C122.941 144.778 122.757 144.977 122.573 145.192L122.481 145.284L122.328 145.437L121.96 145.82L121.776 146.004L121.668 146.127L121.316 146.464C121.316 146.464 121.193 146.572 121.147 146.633L121.009 146.756L120.886 146.863L120.518 147.2C120.518 147.2 120.518 147.231 120.518 147.246L120.365 147.369L120.181 147.522L120.089 147.614C121.745 149.071 124.26 151.11 125.992 151.969C125.992 151.969 125.318 151.662 124.367 151.172L124.29 151.141L124.122 151.049L123.677 150.819L123.524 150.742L122.88 150.405L122.788 150.359C122.588 150.252 122.389 150.144 122.19 150.037L122.036 149.96C121.53 149.7 121.116 149.424 120.656 149.148L120.518 149.071L119.905 148.672H119.859L119.292 148.274L119.108 148.412L118.862 148.58L118.694 148.688L118.602 148.734L118.479 148.81L118.295 148.918L118.004 149.102L117.62 149.301V149.332C117.666 149.424 117.697 149.531 117.743 149.623C118.249 150.773 118.494 151.969 118.479 153.165L116.685 149.669C116.578 149.7 116.455 149.73 116.348 149.746L116.148 149.792C115.964 149.807 115.796 149.807 115.612 149.792C115.458 149.776 115.29 149.746 115.106 149.715C114.937 149.746 114.784 149.776 114.615 149.792C114.37 149.807 114.124 149.792 113.894 149.746L112.039 153.242C112.039 152.03 112.284 150.819 112.821 149.654C112.852 149.577 112.913 149.516 112.913 149.439C112.499 149.255 112.085 149.025 111.702 148.78C111.625 148.734 111.548 148.688 111.487 148.626L111.288 148.488C111.073 148.35 110.874 148.197 110.644 148.028L110.582 147.982L110.49 148.044L110.368 148.136L109.754 148.565L109.662 148.611L109.095 148.979L108.926 149.086L108.267 149.485C108.037 149.623 107.807 149.761 107.592 149.884L107.408 149.991C107.224 150.098 107.04 150.19 106.872 150.282L106.734 150.359C106.519 150.482 106.32 150.589 106.12 150.696L105.952 150.788L105.522 151.003L105.354 151.08L105.277 151.11C104.311 151.601 103.652 151.908 103.652 151.908C105.522 150.988 108.175 148.78 109.831 147.338V147.308L109.325 146.848L109.156 146.71C108.942 146.51 108.727 146.296 108.512 146.081C108.451 146.035 108.405 145.974 108.344 145.912C108.175 145.744 108.006 145.575 107.853 145.406C107.792 145.345 107.73 145.268 107.669 145.207C107.47 144.977 107.255 144.747 107.056 144.517V144.471C106.856 144.256 106.688 144.026 106.504 143.812L106.335 143.612C106.182 143.413 106.028 143.214 105.875 143.014C105.844 142.968 105.798 142.922 105.768 142.876C105.599 142.646 105.43 142.416 105.262 142.171L105.154 142.018C105.032 141.834 104.909 141.665 104.786 141.481C104.74 141.42 104.694 141.358 104.664 141.297C104.526 141.082 104.388 140.868 104.265 140.653C103.989 140.132 103.79 139.61 103.652 139.058L101.904 139.426C102.057 139.672 102.164 139.917 102.272 140.162C102.272 140.193 102.026 139.84 101.766 139.457L100.938 139.626C101.076 139.948 101.152 140.3 101.122 140.653C100.922 140.346 100.738 140.04 100.585 139.702L98.6682 140.101C98.8215 140.638 98.8982 141.174 98.9289 141.726C98.9289 141.757 98.6375 140.975 98.3769 140.178L97.1195 140.454C97.2422 140.914 97.2882 141.374 97.2575 141.834C97.2575 141.88 97.0122 140.975 96.9049 140.561V140.5L96.0769 140.684C96.0769 140.684 96.1689 141.128 96.2915 141.88L97.9475 142.907L96.3222 142.048C96.3989 142.447 96.4755 142.922 96.5522 143.444L98.7602 144.87L96.5522 143.674C96.6595 144.318 96.7669 145.038 96.8589 145.774L99.2049 146.25L96.8895 146.035C96.9662 146.495 97.0275 146.97 97.0735 147.446L99.6802 148.473C99.6802 148.473 97.9322 147.936 97.1349 147.614C97.2115 148.243 97.2882 148.841 97.3342 149.439L100.064 150.466L97.3495 149.761C97.4415 150.819 97.4415 151.739 97.4415 152.414L97.7022 152.966L97.4415 152.49C97.4415 152.72 97.3955 152.966 97.3189 153.18L98.1929 155.404C98.1929 155.404 97.8555 154.76 97.4875 154.1C97.4875 154.116 97.4875 154.131 97.4875 154.146C97.2882 154.637 95.8315 156.262 94.4975 158.148C94.3595 158.608 94.4209 159.053 94.2522 159.513C94.2215 159.59 94.0682 159.682 93.9302 159.682L93.7615 159.636C93.7309 159.712 93.7155 159.804 93.7155 159.881C93.7615 160.249 93.7155 160.632 93.5775 160.985C93.3475 161.246 93.0715 161.246 92.8569 161.123V161.782C92.8875 161.89 92.8875 161.997 92.8569 162.089C92.8415 162.196 92.7955 162.288 92.7342 162.38C92.6729 162.457 92.5809 162.518 92.4735 162.549C92.3662 162.58 92.2435 162.595 92.1209 162.58C91.8755 163.208 91.6455 163.668 91.4615 164.021C91.4615 164.052 91.4615 164.067 91.4615 164.098C91.3695 164.358 91.4155 164.65 91.5689 164.895C91.9062 165.447 92.5655 165.892 92.9182 166.428C92.2129 166.106 91.5382 165.708 90.9249 165.232C90.5722 165.539 90.1582 165.8 89.6982 166.045C89.4529 166.214 89.1769 166.367 88.8702 166.505C88.9315 166.428 88.9775 166.336 89.0389 166.26C89.1155 166.168 89.2075 166.06 89.2995 165.938L89.3455 165.892C89.5449 165.662 89.7442 165.416 89.8669 165.248C90.1429 164.895 90.4189 164.558 90.6642 164.205V163.96C90.6949 163.668 90.7715 163.377 90.8942 163.101C90.9555 163.07 90.9555 163.024 90.9555 162.948L91.0935 162.534C91.0935 162.534 90.9709 162.503 90.9249 162.472C90.8942 162.457 90.8635 162.426 90.8482 162.396C90.8329 162.365 90.8175 162.319 90.8175 162.288C90.8175 162.258 90.8175 162.212 90.8482 162.181C91.0475 161.828 91.3235 161.506 91.6455 161.2C91.6915 161.123 91.7529 161.031 91.7529 160.954C91.7069 160.924 91.6762 160.878 91.6455 160.832C91.6455 160.801 91.6455 160.786 91.6455 160.755C91.6455 160.74 91.6455 160.724 91.6455 160.709C91.6455 160.586 91.7069 160.464 91.8295 160.372C91.9369 160.28 92.0442 160.188 92.1515 160.096L92.3355 159.927V159.85C92.3355 159.85 92.2742 159.758 92.2589 159.697V159.636C92.2589 159.636 92.2589 159.559 92.2589 159.528C92.2589 159.498 92.2589 159.467 92.2589 159.436C92.2589 159.406 92.2895 159.36 92.3049 159.329L92.3509 159.222C92.6729 158.777 93.0409 158.378 93.4549 158.026C93.4549 158.026 93.4549 157.995 93.4549 157.98C94.5435 156.416 95.5095 155.22 95.5095 154.545C95.5095 154.208 95.5709 153.886 95.7242 153.594V153.548C95.7242 153.548 95.3869 152.444 94.9269 150.865C94.1142 151.095 93.3169 151.325 92.5042 151.57L94.8349 150.558C94.6509 149.899 94.4362 149.163 94.2369 148.396L93.3629 149.347L94.2369 148.228C94.1755 148.013 94.1295 147.798 94.0682 147.584C93.3169 147.982 92.1055 148.58 92.1055 148.58L94.0069 147.369C93.8842 146.894 93.7615 146.418 93.6542 145.943L91.9062 146.802L93.5929 145.713C93.4855 145.268 93.3782 144.839 93.2862 144.41L91.8909 145.176L93.2555 144.287C93.1329 143.735 93.0255 143.168 92.9182 142.616L91.0782 142.999L92.9182 142.524C92.8569 142.14 92.7802 141.834 92.7802 141.542L90.2809 141.788L92.7649 141.328C92.6729 140.975 92.7342 140.592 92.9182 140.27V140.193C93.0715 139.212 98.3155 137.341 102.256 136.053L102.379 136.007L102.793 135.869C102.241 132.664 101.842 128.417 101.735 124.246L99.2662 122.667C99.0209 122.82 98.7602 122.958 98.4995 123.096C98.4689 123.096 98.7909 122.882 99.1589 122.606L98.4842 122.176C98.1469 122.33 97.7789 122.452 97.4109 122.544C97.6869 122.36 97.9782 122.192 98.2849 122.023L96.7362 121.026C96.2302 121.21 95.7242 121.364 95.2029 121.517C95.1722 121.517 95.7855 121.226 96.5215 120.888L95.4635 120.214C95.1415 120.306 94.8195 120.398 94.4975 120.49C94.7735 120.352 95.0495 120.244 95.3255 120.137L94.2215 119.432C94.0529 119.723 93.8229 120.106 93.5469 120.536L94.5895 121.486L93.4855 120.612L92.8262 121.686L94.3442 122.345L92.7495 121.824C92.5809 122.1 92.3969 122.376 92.2129 122.667L93.7002 124.016C93.7002 124.016 92.6575 123.265 92.1055 122.82C91.9369 123.081 91.7682 123.342 91.5995 123.602L93.0102 125.258C93.0102 125.258 91.9522 124.308 91.4462 123.848C91.2315 124.17 91.0322 124.476 90.8329 124.768L91.4462 125.994L90.7562 124.875L90.4189 125.335L90.5109 126.194L90.3422 125.427C90.2349 125.58 90.1275 125.718 90.0202 125.856V127.267C90.0202 127.267 89.9129 126.669 89.8055 126.071C89.6675 126.27 89.4835 126.439 89.2689 126.562C89.1155 126.623 88.9469 126.654 88.7782 126.654L75.6835 131.576C75.5915 131.744 75.4382 131.928 75.3462 132.066C75.3309 132.158 75.2849 132.25 75.2235 132.342C75.0855 132.572 74.8709 132.772 74.6102 132.94C74.6562 132.557 74.8862 132.204 74.9475 131.836C74.9782 131.637 72.9082 131.729 72.9082 131.729C73.6749 131.606 74.4262 131.453 75.1622 131.238C75.2082 131.223 75.2542 131.208 75.3002 131.208L75.6529 131.054L84.0095 127.466L87.1069 126.132L87.2449 126.071C87.4595 125.749 87.9195 125.044 88.5329 124.154L86.3249 124.001L88.6709 123.955C88.9469 123.556 89.2382 123.127 89.5449 122.698L88.6709 122.974L89.6369 122.59C89.7749 122.406 89.8822 122.207 90.0355 122.023C89.1769 122.1 87.8122 122.161 87.8122 122.161L90.1429 121.854C90.3882 121.517 90.6182 121.18 90.8635 120.842L88.3949 120.98L91.0169 120.643C91.2315 120.336 91.4462 120.03 91.6609 119.738L89.0389 119.953L91.7375 119.6L92.0749 119.14L91.0629 118.895L92.1209 119.079C92.4582 118.65 92.7495 118.266 92.9949 117.975L93.1635 117.791L93.2095 117.73C93.2095 117.73 93.3322 117.653 93.3322 117.607L93.3782 117.561L93.4702 117.469V117.438C93.4702 117.438 93.5315 117.392 93.5775 117.362C93.6695 117.3 93.7769 117.27 93.8842 117.239C93.9915 117.208 94.1142 117.208 94.2369 117.208C94.2829 117.208 94.3289 117.208 94.3749 117.208H94.4515C94.5742 117.208 94.7122 117.224 94.8195 117.254C94.9882 117.3 95.1415 117.346 95.2949 117.392L95.4329 117.438C95.6015 117.5 95.7855 117.576 95.9849 117.668L96.6135 117.96L96.7669 118.036C97.2115 118.251 97.6869 118.496 98.1469 118.772L98.2695 118.849C98.7602 119.11 99.2662 119.416 99.7415 119.708H99.7875L100.815 120.306L100.953 120.382L101.03 120.428C101.275 120.582 101.49 120.72 101.704 120.842C101.75 116.196 102.18 112.01 103.192 109.94C103.314 109.695 103.422 109.48 103.544 109.25V109.204L103.253 109.051L102.471 109.005H103.115L102.563 108.698H102.287C101.766 108.668 101.244 108.56 100.738 108.407C101.168 108.392 101.612 108.392 102.042 108.407L101.214 107.932C100.616 107.824 100.002 107.686 99.4195 107.518L100.8 107.671H100.769C100.57 107.533 100.37 107.395 100.171 107.272C99.6035 107.18 99.0362 107.027 98.4842 106.843L99.8489 107.042C99.5729 106.858 99.3122 106.659 99.0669 106.444C98.4535 106.536 97.8402 106.567 97.2269 106.552L96.2609 107.472L97.1349 106.552C96.5829 106.552 96.0155 106.521 95.4635 106.475L95.0495 107.564C95.0495 107.564 95.1722 106.996 95.2795 106.46L93.8689 106.352L92.4735 107.686C92.4735 107.686 93.1022 106.889 93.5622 106.383L92.2895 106.276L90.5415 107.61C90.5415 107.61 91.4462 106.736 91.9369 106.245L91.5229 106.214C91.1855 106.184 90.8482 106.153 90.5109 106.107L88.7629 106.935L90.1582 106.076C88.8242 105.892 88.6095 105.662 88.4102 105.386C88.3642 105.325 88.3335 105.264 88.3335 105.187V105.141C86.6469 103.914 82.2922 99.0229 82.0469 98.4862C82.0469 98.4402 82.0469 98.3789 82.0469 98.3329L81.9855 98.2715C81.8935 98.2102 81.8169 98.1182 81.7555 98.0262C81.5869 97.8422 81.4335 97.6429 81.2955 97.4282C81.2649 97.3822 81.3875 97.2595 81.4642 97.3055C81.8629 97.5815 82.1235 97.9035 82.5222 98.1642C82.7369 98.3022 83.1049 97.7349 83.2275 97.6582C83.3655 97.5815 83.4115 97.7195 83.4115 97.7195C83.4115 97.7502 83.4115 97.7809 83.4115 97.7962C83.4115 97.8269 83.3809 97.8422 83.3655 97.8575C83.2889 98.0415 83.1509 98.2102 83.0895 98.3942C83.7642 99.8355 87.6742 103.393 89.2075 104.742H92.0135L90.9402 103.332L92.3969 104.742H93.8842C93.4855 104.206 93.0102 103.332 93.0102 103.332L94.1142 104.742H95.7242L94.8962 103.332L96.0309 104.773H97.7175C97.3649 104.236 96.7822 103.332 96.7822 103.332L97.9475 104.865C98.3462 104.865 98.7449 104.957 99.1129 105.11L99.2509 105.187L99.3429 105.233C99.3429 105.233 99.4809 105.325 99.5575 105.386H100.018L100.11 105.432H100.186L100.263 105.478L103.268 106.628C103.207 106.475 103.161 106.322 103.13 106.153V106.076C103.13 105.923 103.13 105.77 103.13 105.616C103.13 105.586 103.13 105.54 103.13 105.509C103.13 105.356 103.146 105.202 103.176 105.049C103.514 103.47 104.986 101.614 107.7 99.6669C108.022 99.4369 108.344 99.2222 108.681 99.0229C108.712 98.6089 108.788 98.2102 108.926 97.8269C108.88 97.7655 108.85 97.6889 108.85 97.6122C108.85 97.5815 108.85 97.5662 108.85 97.5355C108.85 97.4742 108.85 97.4129 108.85 97.3669C108.85 97.3362 108.834 97.3515 108.85 97.2902C108.865 97.2289 108.926 97.1675 108.926 97.1062C108.926 97.0755 108.957 97.0449 108.972 97.0295C109.003 96.9682 109.049 96.8915 109.095 96.8302C109.386 96.4315 109.77 96.0789 110.23 95.7722L110.122 95.6955C109.708 95.3582 109.356 94.9595 109.601 94.6682L109.647 94.6222C109.647 94.6222 109.77 94.5149 109.831 94.4689C109.601 94.1929 109.34 93.9015 109.126 93.6562C108.926 93.4109 108.758 93.1809 108.574 92.9355L108.436 92.7515V92.6595L108.359 92.5675L108.098 92.1842C107.746 91.6935 107.424 91.1875 107.086 90.6662C106.933 90.4055 106.78 90.1602 106.626 89.8842L106.396 89.5009L106.182 89.1022C105.032 87.0169 104.081 84.8395 103.345 82.5702C102.594 80.3469 102.042 78.1082 101.597 75.8849C101.597 75.8849 101.597 73.1709 100.8 70.6562C100.002 68.1415 97.2269 66.5775 97.2269 66.5775C97.2269 66.5775 100.493 68.1415 101.275 69.2762C102.042 70.4109 101.934 73.5695 102.379 75.7929C102.609 76.8969 102.854 78.0162 103.146 79.1202C103.422 80.2395 103.744 81.3435 104.096 82.4475C104.464 83.5515 104.863 84.6555 105.323 85.7289C105.783 86.8022 106.274 87.8755 106.841 88.9182L107.056 89.3015L107.286 89.6849L107.73 90.4515C108.052 90.9575 108.374 91.4635 108.712 91.9542L109.126 92.3375L109.187 92.4295V92.5215L109.325 92.7055C109.509 92.9509 109.678 93.1655 109.877 93.4262C110.061 93.6869 110.291 93.9322 110.49 94.1775C110.797 94.1162 111.088 94.2082 111.364 94.4842L111.87 94.9749C112.238 94.8369 112.637 94.7142 113.051 94.6375H113.235C113.342 94.6222 113.45 94.6069 113.542 94.5915C113.71 94.5915 113.879 94.5915 114.032 94.5915H114.155C114.983 94.4995 115.826 94.4995 116.654 94.5915H117.084C117.62 94.6222 118.142 94.7295 118.648 94.8982L119.062 94.4842C119.123 94.4075 119.23 94.3309 119.338 94.2695C119.46 94.2082 119.583 94.1775 119.721 94.1622H119.92C120.135 93.9169 120.35 93.6409 120.534 93.4109C120.733 93.1809 120.902 92.9355 121.086 92.6902L121.224 92.5062V92.4142L121.285 92.3222L121.53 91.9542C121.883 91.4635 122.19 90.9575 122.512 90.4515C122.665 90.2062 122.803 89.9455 122.972 89.6849L123.186 89.3015L123.401 88.9182C123.984 87.8755 124.459 86.8175 124.934 85.7289C125.394 84.6402 125.793 83.5515 126.161 82.4475C126.529 81.3589 126.836 80.2395 127.127 79.1202C127.418 78.0009 127.664 76.8969 127.878 75.7929C128.338 73.5849 128.43 70.2882 128.998 69.2762C129.565 68.2642 132.724 66.5469 132.724 66.5469C132.724 66.5469 130.163 69.0615 129.611 70.6255C129.074 72.1895 128.89 75.6855 128.89 75.6855C128.446 77.9089 127.894 80.1475 127.142 82.3709C126.406 84.6249 125.471 86.8175 124.321 88.9029L124.106 89.3015L123.876 89.6849C123.723 89.9455 123.57 90.2062 123.401 90.4669C123.064 90.9729 122.757 91.4942 122.404 91.9849L122.128 92.3682L122.067 92.4602V92.5522L121.929 92.7362C121.745 92.9815 121.592 93.1809 121.377 93.4569C121.162 93.7329 120.917 93.9935 120.672 94.2695C120.733 94.3155 120.794 94.3769 120.84 94.4229C121.147 94.6989 120.81 95.0975 120.38 95.4502C120.641 95.6189 120.871 95.7875 121.086 95.9715L121.193 96.0789L121.3 96.1862C121.3 96.1862 121.438 96.3242 121.5 96.4009L121.561 96.4775C121.561 96.4775 121.668 96.6309 121.73 96.6922C121.745 96.7229 121.76 96.7535 121.776 96.7689C121.806 96.8149 121.837 96.8762 121.868 96.9375C121.868 96.9682 121.868 96.9989 121.868 97.0295C121.883 97.0755 121.914 97.1215 121.914 97.1829V97.2595C121.914 97.2595 121.914 97.3515 121.914 97.3975V97.4589C121.914 97.4589 121.914 97.5049 121.914 97.5202C121.975 97.6582 122.021 97.7809 122.082 97.9189C122.082 97.9649 122.113 98.0109 122.128 98.0569C122.159 98.1949 122.236 98.3329 122.236 98.4709C122.834 98.7929 123.401 99.1302 123.922 99.5135C125.594 100.648 126.943 101.998 127.863 103.485C128.246 103.884 128.43 104.359 128.415 104.834V105.325C128.415 105.432 128.415 105.54 128.415 105.632C128.415 105.678 128.415 105.724 128.415 105.77L129.596 105.31L129.672 105.264H129.734L129.826 105.218H130.286C130.286 105.218 130.424 105.11 130.5 105.064L130.592 105.018L130.73 104.942C131.098 104.788 131.497 104.696 131.911 104.696L133.046 103.255L132.11 104.696H133.797L134.901 103.286L134.027 104.666H135.698L136.802 103.255C136.802 103.255 136.281 104.114 135.928 104.666H137.416L138.857 103.255C138.857 103.255 138.182 104.114 137.768 104.666H140.574C142.108 103.316 146.018 99.7589 146.646 98.3175C146.585 98.1335 146.447 97.9649 146.37 97.7655C146.34 97.7502 146.324 97.7195 146.324 97.6889C146.324 97.6582 146.324 97.6429 146.324 97.6122C146.324 97.5509 146.355 97.4589 146.508 97.5509C146.662 97.6429 146.999 98.1949 147.229 98.0569C147.628 97.7809 147.888 97.4435 148.287 97.1982C148.364 97.1522 148.456 97.2749 148.456 97.3209C148.333 97.5355 148.18 97.7349 148.011 97.9189C147.965 98.0109 147.888 98.0875 147.827 98.1642C147.812 98.1795 147.781 98.2102 147.766 98.2255C147.781 98.2715 147.781 98.3329 147.766 98.3789C147.505 98.9155 143.166 103.807 141.479 105.034V105.08C141.479 105.08 141.448 105.218 141.402 105.279C141.203 105.555 140.988 105.785 139.654 105.969L141.05 106.843L139.302 106.015C139.01 106.046 138.688 106.122 138.29 106.122L137.876 106.153L139.286 107.518L137.538 106.184L136.266 106.291C136.634 106.72 137.002 107.15 137.354 107.594L136.005 106.322L134.594 106.429L134.824 107.533L134.41 106.444H134.38C133.812 106.475 133.26 106.521 132.724 106.521L133.552 107.441L132.586 106.521C131.972 106.536 131.344 106.521 130.73 106.414C130.5 106.628 130.24 106.828 129.948 107.012L131.313 106.812C130.776 106.996 130.209 107.134 129.626 107.242L128.998 107.64L130.378 107.487C129.795 107.656 129.197 107.778 128.584 107.901L127.756 108.376C128.185 108.361 128.63 108.361 129.059 108.376C128.568 108.53 128.047 108.637 127.51 108.668H127.25L126.682 108.974H127.326L126.682 109.005V109.051C126.682 109.051 126.728 109.158 126.774 109.204C126.882 109.419 127.004 109.649 127.127 109.894C128.108 111.918 128.553 115.951 128.614 120.474L128.844 120.321H128.89L128.982 120.26C129.289 120.06 129.626 119.861 129.948 119.662L130.102 119.57C130.332 119.432 130.546 119.294 130.776 119.171L131.466 118.772L131.635 118.68C131.865 118.558 132.08 118.435 132.31 118.328L132.969 117.99L133.122 117.914L133.736 117.638C133.935 117.561 134.104 117.484 134.288 117.423L134.41 117.377C134.564 117.316 134.732 117.27 134.886 117.239C135.008 117.208 135.131 117.193 135.254 117.193H135.33C135.33 117.193 135.422 117.193 135.468 117.193C135.591 117.193 135.698 117.193 135.821 117.224C135.928 117.254 136.036 117.285 136.128 117.346C136.174 117.362 136.204 117.392 136.235 117.423L136.281 117.454L136.373 117.546L136.434 117.607L136.542 117.714L136.618 117.791L136.741 117.929L136.787 117.99C136.925 118.159 137.063 118.328 137.216 118.527C137.354 118.696 137.492 118.88 137.63 119.064L138.688 118.88L137.676 119.125C137.784 119.263 137.891 119.416 138.014 119.585L140.697 119.938L138.075 119.723C138.29 120.03 138.504 120.306 138.719 120.628L141.341 120.965L138.872 120.827L139.578 121.839L141.908 122.146C141.908 122.146 140.574 122.084 139.7 122.008L140.099 122.575L141.05 122.958L140.176 122.682C140.482 123.112 140.774 123.541 141.05 123.94L143.38 123.986L141.188 124.139L142.46 126.056L154.405 131.192C154.405 131.192 154.497 131.192 154.543 131.223L154.681 131.254Z" fill="#272729"/>
<path d="M116.089 109.281C114.433 109.281 111.305 108.744 111.305 108.744C111.305 108.744 112.961 110.369 114.003 111.719C116.073 116.043 115.874 147.338 115.874 147.338C115.874 147.338 116.288 118.205 116.288 115.506C116.288 112.807 116.288 112.531 117.944 110.109C118.573 109.572 120.014 108.759 120.014 108.759C120.014 108.759 117.729 109.296 116.073 109.296L116.089 109.281Z" fill="white"/>
<path d="M102.945 122.529L103.237 118.741C103.237 118.741 103.237 119.017 103.329 121.133C103.421 123.265 103.497 124.323 103.559 126.454C103.62 128.585 103.85 130.701 104.157 133.599C104.479 136.497 105.537 141.45 105.537 141.45C105.537 141.45 104.647 138.077 104.034 135.746C103.421 133.415 103.221 131.56 103.053 128.371C102.884 125.181 102.792 124.384 102.945 122.498V122.529ZM128.092 121.394C127.877 119.201 127.249 116.963 127.249 116.963V120.183C127.249 122.682 127.402 125.181 127.065 128.049C126.727 130.901 126.605 133.308 125.991 135.194C125.378 137.08 123.477 141.128 122.373 142.692C121.269 144.256 119.689 146.265 118.677 146.985C117.665 147.706 115.657 148.764 115.657 148.764C115.657 148.764 117.328 148.764 119.352 147.338C121.361 145.912 121.79 144.517 123.047 143.045C124.305 141.588 125.991 137.739 125.991 137.739C125.991 137.739 127.525 132.495 127.739 129.827C127.954 127.159 128.291 123.587 128.077 121.394H128.092ZM112.391 118.389C110.735 117.085 106.61 117.346 106.61 117.346C106.61 117.346 108.051 117.607 109.508 118.128C110.949 118.649 111.164 118.665 112.605 119.968C114.047 121.256 114.675 122.329 114.675 122.329C114.675 122.329 114.062 119.707 112.406 118.404L112.391 118.389Z" fill="white"/>
</svg>
