<svg width="230" height="230" viewBox="0 0 230 230" fill="none" xmlns="http://www.w3.org/2000/svg">
<path d="M230 115C230 178.511 178.511 230 115 230C108.361 230 101.859 229.433 95.5267 228.359C51.8727 220.923 16.6213 188.876 4.508 147.001C1.57933 136.85 0 126.101 0 115C0 51.4893 51.4893 0 115 0C178.511 0 230 51.4893 230 115Z" fill="white"/>
<path d="M205.818 115C205.818 127.267 203.411 139.15 198.673 150.343C194.104 161.153 187.556 170.875 179.215 179.216C170.874 187.557 161.152 194.105 150.342 198.674C139.149 203.412 127.25 205.804 114.999 205.804C102.748 205.804 90.849 203.397 79.6557 198.674C68.8457 194.105 59.1244 187.557 50.783 179.216C42.4417 170.875 35.8944 161.153 31.325 150.343C26.587 139.15 24.1797 127.251 24.1797 115C24.1797 102.749 26.587 90.85 31.325 79.6413C35.8944 68.8313 42.4417 59.11 50.783 50.7687C59.1244 42.4273 68.8304 35.88 79.6557 31.3107C90.849 26.5727 102.732 24.1807 114.999 24.1807C127.266 24.1807 139.149 26.5727 150.342 31.3107C161.152 35.88 170.874 42.4273 179.215 50.7687C187.556 59.11 194.104 68.816 198.673 79.6413C203.411 90.8347 205.818 102.733 205.818 115Z" fill="#FFD300"/>
<path d="M115 24.1806C127.266 24.1806 139.15 26.588 150.343 31.3106C161.153 35.88 170.874 42.4273 179.216 50.7686C187.557 59.11 194.104 68.8159 198.674 79.6413C203.412 90.8346 205.804 102.733 205.804 114.985C205.804 127.236 203.396 139.135 198.674 150.328C194.104 161.138 187.557 170.859 179.216 179.201C170.874 187.542 161.168 194.089 150.343 198.659C139.15 203.397 127.251 205.789 115 205.789C102.748 205.789 90.8495 203.381 79.6562 198.659C68.8462 194.089 59.1248 187.542 50.7835 179.201C42.4422 170.859 35.8948 161.153 31.3255 150.328C26.5875 139.135 24.1955 127.236 24.1955 114.985C24.1955 102.733 26.6028 90.8346 31.3255 79.6413C35.8948 68.8313 42.4422 59.11 50.7835 50.7686C59.1248 42.4273 68.8308 35.88 79.6562 31.3106C90.8495 26.5726 102.748 24.1806 115 24.1806ZM115 20.7C62.9275 20.7 20.7148 62.9126 20.7148 114.985C20.7148 167.057 62.9275 209.269 115 209.269C167.072 209.269 209.3 167.057 209.3 114.985C209.3 62.9126 167.072 20.7153 115 20.7153V20.7Z" fill="#272729"/>
<g opacity="0.1">
<path d="M71.899 79.8867H49.957V124.829H71.899C82.0497 124.829 89.2564 117.438 89.2564 107.027V97.6887C89.2564 87.2927 82.111 79.8867 71.899 79.8867ZM78.2777 106.643C78.2777 111.857 75.6404 114.54 70.565 114.54H60.7824V90.0987H70.565C75.6404 90.0987 78.2777 92.7974 78.2777 98.0567V106.643Z" fill="#272729"/>
<path d="M180.029 88.0594L159.728 114.509H179.922V124.675H145.621V116.273L165.861 89.8227H146.878V79.7334H180.029V88.0594Z" fill="#272729"/>
<path d="M135.292 103.02L120.318 117.993L126.997 124.672L141.97 109.699L135.292 103.02Z" fill="#272729"/>
<path d="M123.459 91.1827L113.668 100.973L120.347 107.652L130.137 97.8615L123.459 91.1827Z" fill="#272729"/>
<path d="M111.299 79.7437L96.6836 94.3591L103.319 100.995L117.935 86.3792L111.299 79.7437Z" fill="#272729"/>
<path d="M67.3137 159.497H69.7823V163.576H66.4703C64.8757 163.576 63.511 163.269 62.361 162.641C61.211 162.027 60.3217 161.123 59.693 159.957C59.0643 158.792 58.7577 157.412 58.7577 155.817V145.605H54.8477V144.762L62.4377 136.697H63.2043V141.787H69.6597V145.621H63.2503V155.465C63.2503 156.753 63.603 157.749 64.293 158.455C64.9983 159.16 65.995 159.497 67.3137 159.497Z" fill="#272729"/>
<path d="M92.1379 141.787H95.6032V163.576H91.9692L91.5246 160.908C89.4239 163.039 86.8019 164.097 83.6586 164.097C80.5153 164.097 77.6939 163.009 75.5319 160.831C73.3699 158.654 72.2812 155.925 72.2812 152.659C72.2812 149.393 73.3699 146.679 75.5319 144.501C77.6939 142.339 80.4079 141.251 83.6586 141.251C86.9093 141.251 89.5159 142.324 91.6013 144.486L92.1226 141.787H92.1379ZM78.8746 157.78C80.2392 159.145 81.9412 159.819 83.9959 159.819C86.0506 159.819 87.7526 159.145 89.0866 157.78C90.4206 156.415 91.0799 154.713 91.0799 152.659C91.0799 150.604 90.4206 148.902 89.0866 147.553C87.7526 146.203 86.0506 145.529 83.9806 145.529C82.6313 145.529 81.4199 145.835 80.3313 146.464C79.2426 147.077 78.3839 147.936 77.7706 149.025C77.1573 150.113 76.8353 151.325 76.8353 152.674C76.8353 154.713 77.5099 156.415 78.8746 157.78Z" fill="#272729"/>
<path d="M111.797 164.097C108.561 164.097 105.863 163.009 103.67 160.816C101.477 158.623 100.389 155.909 100.389 152.659C100.389 149.408 101.477 146.709 103.67 144.532C105.863 142.355 108.592 141.266 111.843 141.266C114.511 141.266 116.826 142.017 118.789 143.52C120.751 145.023 122.024 147.031 122.622 149.531H118.175C117.608 148.289 116.765 147.323 115.63 146.602C114.495 145.897 113.223 145.529 111.797 145.529C110.524 145.529 109.374 145.835 108.331 146.464C107.289 147.077 106.461 147.936 105.847 149.025C105.249 150.113 104.943 151.325 104.943 152.674C104.943 154.698 105.602 156.385 106.921 157.765C108.239 159.145 109.865 159.819 111.797 159.819C113.223 159.819 114.495 159.451 115.615 158.731C116.734 158.01 117.577 156.967 118.175 155.618H122.699C122.085 158.179 120.782 160.218 118.804 161.767C116.826 163.315 114.495 164.082 111.797 164.082V164.097Z" fill="#272729"/>
<path d="M136.775 159.497H139.243V163.576H135.931C134.337 163.576 132.972 163.269 131.822 162.641C130.672 162.027 129.783 161.123 129.154 159.957C128.525 158.792 128.219 157.412 128.219 155.817V145.605H124.309V144.762L131.899 136.697H132.665V141.787H139.121V145.621H132.711V155.465C132.711 156.753 133.064 157.749 133.754 158.455C134.459 159.16 135.456 159.497 136.775 159.497Z" fill="#272729"/>
<path d="M143.506 138.399V133.799H148.152V138.399H143.506ZM143.583 163.576V141.787H148.06V163.576H143.583Z" fill="#272729"/>
<path d="M164.252 164.097C161.016 164.097 158.318 163.009 156.125 160.816C153.932 158.623 152.844 155.909 152.844 152.659C152.844 149.408 153.932 146.709 156.125 144.532C158.318 142.355 161.047 141.266 164.298 141.266C166.966 141.266 169.281 142.017 171.244 143.52C173.206 145.023 174.479 147.031 175.077 149.531H170.63C170.063 148.289 169.22 147.323 168.085 146.602C166.95 145.897 165.678 145.529 164.252 145.529C162.979 145.529 161.829 145.835 160.786 146.464C159.744 147.077 158.916 147.936 158.302 149.025C157.704 150.113 157.398 151.325 157.398 152.674C157.398 154.698 158.057 156.385 159.376 157.765C160.694 159.145 162.32 159.819 164.252 159.819C165.678 159.819 166.95 159.451 168.07 158.731C169.189 158.01 170.032 156.967 170.63 155.618H175.154C174.54 158.179 173.237 160.218 171.259 161.767C169.281 163.315 166.95 164.082 164.252 164.082V164.097Z" fill="#272729"/>
<path d="M120.322 107.625L113.682 100.985L108.5 106.168L103.317 100.985L96.6777 107.625L101.86 112.807L96.6777 117.99L103.317 124.629L108.5 119.447L113.682 124.629L120.322 117.99L115.139 112.807L120.322 107.625Z" fill="#FF0000"/>
</g>
<path d="M182.082 194.672C196.936 194.672 208.977 182.631 208.977 167.777C208.977 152.924 196.936 140.883 182.082 140.883C167.229 140.883 155.188 152.924 155.188 167.777C155.188 182.631 167.229 194.672 182.082 194.672Z" fill="#272729"/>
<path d="M182.081 191.667C195.274 191.667 205.97 180.971 205.97 167.777C205.97 154.584 195.274 143.888 182.081 143.888C168.887 143.888 158.191 154.584 158.191 167.777C158.191 180.971 168.887 191.667 182.081 191.667Z" fill="#FFD300"/>
<path d="M198.09 160.755L189.089 151.769L182.082 158.777L175.059 151.769L166.059 160.755L173.081 167.777L166.059 174.8L175.059 183.785L182.082 176.778L189.089 183.785L198.09 174.8L191.083 167.777L198.09 160.755Z" fill="#FF0000"/>
<path d="M94.4231 129.613L105.708 114.187C105.141 113.16 99.1611 112.393 97.5511 111.274C97.3978 115.445 96.9225 117.76 95.2818 121.808C94.6685 124.875 93.8405 126.469 91.2951 129.045C90.3138 130.901 89.6391 131.759 88.1671 132.909C88.1671 132.909 87.5998 133.569 86.0818 133.569C84.5638 133.569 85.1311 132.434 85.1311 132.434C85.1311 132.434 85.6065 133.369 86.7411 132.434C87.8758 131.499 88.9645 129.812 90.5285 128.386L91.8625 125.749C92.8438 123.832 93.3345 123.065 94.2391 121.609C94.3925 118.895 94.5765 117.285 95.2818 114.172C95.2818 114.172 96.2325 108.897 96.8918 108.621C97.5511 108.345 100.02 109.281 100.02 109.281L103.899 110.967C103.899 110.967 105.325 111.243 106.644 111.243C106.521 110.262 106.429 109.725 106.352 108.79C106.352 108.79 104.558 108.223 103.132 106.812C101.706 105.401 102.32 98.6547 101.614 98.072C100.909 97.474 98.8545 95.2967 98.4865 93.748C98.1185 92.1993 97.3518 91.586 97.3518 91.586C97.3518 91.586 96.7845 91.2027 96.4011 90.3593C96.0178 89.516 96.2171 88.4733 96.2171 88.4733C96.1558 87.7067 96.3245 87.262 96.7845 86.4953C97.2751 85.9893 97.7045 85.9893 98.4558 86.02H98.4865C98.4865 86.02 97.9191 86.112 97.6278 86.8633C97.3365 87.6147 97.6278 88.9333 97.6278 88.9333C98.6551 90.4053 99.1611 91.2487 99.7131 92.8893C101.308 94.208 102.136 94.9747 102.565 97.0293C102.565 97.0293 103.424 97.5047 103.991 98.0567C104.558 98.624 104.282 100.786 104.282 100.786C104.773 103.025 104.574 103.669 104.574 105.294C105.77 105.171 106.337 105.202 107.042 105.478C107.334 103.423 107.748 102.534 108.944 101.43C108.944 101.43 107.717 101.997 107.042 101.154C106.383 100.311 107.042 98.9 107.042 98.9C107.042 98.9 106.092 98.9 106.092 96.646C106.092 94.392 108.56 92.138 109.312 92.138C110.063 92.138 111.106 91.954 111.106 91.954L108.928 90.6353C108.928 90.6353 106.843 89.4087 106.368 88.9487C105.892 88.4733 105.417 87.63 104.942 86.8787C104.466 86.1273 102.565 83.9653 102.565 83.9653L99.7131 81.8033C99.7131 81.8033 97.1525 80.1167 96.4011 79.7333C95.6498 79.35 95.9258 78.4147 96.7845 78.706C97.6431 78.982 100.296 80.3927 100.296 80.3927C100.296 80.3927 103.04 82.8307 103.991 83.398C104.942 83.9653 105.8 85.56 106.076 86.0353C106.368 86.5107 107.027 87.63 107.027 87.63L108.545 88.9487L110.722 90.3593L111.857 91.586H112.516C112.516 91.586 112.9 90.3593 114.786 90.3593C116.672 90.3593 116.396 91.586 116.396 91.586H117.147C117.147 91.586 118.573 89.424 119.324 88.5807C120.076 87.7373 121.41 86.0353 121.41 86.0353C121.41 86.0353 121.885 85.008 121.793 84.2413C121.701 83.49 122.744 81.8033 122.744 81.8033C122.744 81.8033 125.212 78.798 126.255 78.0467C127.298 77.2953 128.248 76.2527 128.816 75.7927C129.383 75.3173 129.95 76.0687 129.475 76.544C129 77.0193 126.623 79.5493 126.623 79.5493C126.623 79.5493 124.154 81.6193 123.679 83.4133C123.204 85.2073 121.778 86.802 121.41 87.6453C121.026 88.4887 117.806 91.6013 117.806 91.6013V92.4447C117.806 92.4447 118.374 91.8773 119.6 92.1687C120.827 92.4447 123.204 94.898 123.204 97.06C123.112 98.0873 122.452 98.6547 122.452 98.6547C122.452 100.571 122.345 101.537 120.367 101.476C121.64 102.871 122.054 103.715 122.161 105.34C122.805 105.202 123.204 105.141 124.062 105.524C124.062 105.524 124.446 103.362 124.446 102.043C124.446 100.725 125.396 97.7193 125.396 97.7193C126.531 95.45 127.344 94.5607 129 93.3953C129.92 91.3867 130.012 90.8347 131.269 89.2553C131.269 89.2553 131.836 87.6607 131.56 87.1853C131.269 86.71 130.426 86.0507 130.426 86.0507C131.392 85.9127 131.852 86.066 132.511 86.894V86.9247C132.71 88.366 132.833 89.1787 132.128 90.666C130.64 93.886 129.782 95.6647 127.098 97.7193C127.482 99.5133 126.347 105.815 125.672 106.843C125.013 107.87 122.36 108.821 122.36 108.821C122.483 109.909 122.483 110.431 122.452 111.274C124.246 111.811 125.105 111.458 126.531 110.799C127.957 110.139 131.744 107.977 132.787 108.637C133.83 109.296 134.305 114.663 134.305 114.663C135.102 117.515 135.424 119.079 135.532 121.808C136.743 123.939 137.418 125.043 138.752 128.018C138.752 128.018 141.88 132.633 142.646 132.909C143.398 133.185 144.916 132.909 144.916 132.909C144.318 133.691 143.796 133.891 142.646 133.937C140.362 132.986 139.181 132.081 137.433 129.321C135.24 126.009 134.305 124.031 133.262 120.198C132.036 116.901 132.036 111.826 131.56 111.642C131.085 111.458 128.816 112.209 128.816 112.209C128.816 112.209 123.694 113.712 124.078 114.663C124.461 115.598 134.796 127.742 135.547 129.061C136.298 130.379 135.547 132.817 135.93 133.201C136.314 133.584 140.009 136.497 141.803 139.411C143.612 142.324 144.18 151.355 144.548 153.809C144.931 156.247 144.931 157.949 143.796 158.7C142.662 159.451 140.76 157.673 140.76 157.673C140.76 157.673 139.718 156.921 137.908 154.192C136.114 151.463 130.702 142.247 129.567 138.107C128.432 133.967 127.666 131.897 127.098 131.897C126.531 131.897 127.666 135.378 127.666 135.378C128.678 138.583 129.138 140.315 129.567 143.183C129.567 143.183 131.177 149.009 133.262 151.555C133.922 152.214 134.305 153.809 134.305 153.809C134.78 154.177 135.21 154.238 136.206 154.192C135.792 154.667 135.501 154.882 134.596 154.943C132.296 154.391 131.698 153.011 130.717 150.435C128.064 144.394 127.834 142.615 126.93 138.767C125.258 134.136 124.645 131.437 124.093 126.439C123.357 124.369 123.158 123.188 122.866 121.072C122.345 120.198 122.054 119.937 121.44 120.597C121.44 120.597 122.866 122.191 122.866 123.326V123.372C122.866 124.522 122.866 127.006 122.483 128.033C123.894 130.042 124.078 131.177 124.093 133.201C124.047 136.129 123.817 137.433 122.483 138.092C123.326 140.07 123.342 141.189 122.866 143.167C122.391 144.731 121.946 145.299 120.965 145.989C120.965 145.989 121.532 148.243 120.965 150.037C120.398 151.831 115.844 156.247 115.092 156.247C114.341 156.247 109.22 151.831 108.652 150.037C108.085 148.243 108.652 145.989 108.652 145.989C107.717 145.268 107.318 144.486 106.95 143.167C106.567 141.849 106.291 140.791 106.95 138.092C106.95 138.092 105.724 134.795 105.908 132.925C106.092 131.039 106.95 128.693 106.95 128.033V126.055C106.95 126.055 106.291 125.779 106.092 126.439C105.908 127.098 106.092 129.076 105.908 129.827C105.724 130.579 104.819 135.577 103.439 138.767C102.933 141.695 102.565 143.275 101.538 145.728C101.584 146.295 99.4218 152.352 98.6858 152.689C98.0265 153.824 97.2598 155.695 96.0331 156.078C94.8065 156.461 93.6565 154.943 93.6565 154.943C93.6565 154.943 94.8831 155.603 95.6498 154.943C96.0331 154.131 98.0418 149.684 98.6858 150.052C99.9891 146.863 101.154 141.542 102.948 134.335C103.531 132.572 103.531 131.591 103.424 129.827L98.8698 140.545C96.2018 147.721 94.4078 151.601 89.2865 157.565C89.2865 157.565 88.1518 159.252 86.6338 159.068C85.1158 158.884 85.4991 156.523 85.4991 156.523C85.4991 156.523 84.8398 144.486 87.8758 140.162C90.9118 135.838 94.0398 132.925 94.0398 132.925L94.4231 129.628V129.613Z" fill="#272729"/>
<path d="M128.279 121.685L123.955 115.813C123.955 115.813 128.892 123.847 130.134 125.074C131.376 126.316 133.845 129.705 133.845 130.333C133.845 130.962 134.151 132.802 134.151 134.044C134.151 135.286 134.765 135.286 135.394 135.899C136.007 136.513 138.797 138.675 139.411 139.303C140.024 139.917 140.959 140.852 141.266 143.321C141.573 145.789 142.815 150.42 142.815 151.969C142.815 153.517 143.735 157.228 143.735 157.228V153.824C143.735 152.904 142.815 146.403 142.493 145.483C142.186 144.563 141.573 141.465 141.251 140.545C140.929 139.625 140.331 138.383 139.089 137.77C137.847 137.157 135.378 134.688 135.378 134.688C135.378 134.688 134.765 133.446 134.765 132.526C134.765 131.606 135.071 130.364 134.765 129.751C134.458 129.137 133.216 127.589 133.216 127.589L128.279 121.716V121.685ZM110.983 129.72C109.741 129.413 107.579 128.478 107.579 128.478C107.579 128.478 108.821 129.72 110.047 130.333C111.289 130.947 112.823 131.253 114.371 131.253C115.92 131.253 118.082 130.947 119.002 130.333C119.922 129.72 121.471 128.478 121.471 128.478L118.696 129.398C117.776 129.705 116.534 130.011 115.292 130.011C114.05 130.011 112.21 130.011 110.968 129.705L110.983 129.72ZM111.29 138.981C110.048 138.675 107.886 138.061 107.886 138.061C107.886 138.061 108.499 138.981 109.127 139.303C109.741 139.61 111.903 140.223 112.531 140.223C113.16 140.223 114.08 140.53 115.936 140.223C117.791 139.917 119.017 139.61 119.646 139.303C120.259 138.997 121.501 138.061 121.501 138.061C121.501 138.061 119.34 138.368 118.42 138.675C117.5 138.981 115.338 139.288 114.402 139.288C113.467 139.288 112.547 139.288 111.32 138.981H111.29ZM112.531 146.709C110.983 146.403 109.449 145.789 109.449 145.789C109.449 145.789 110.369 147.031 111.305 147.645C112.225 148.258 113.467 148.258 115.016 148.258C116.564 148.258 117.791 147.951 118.726 147.338C119.646 146.725 120.275 145.789 120.275 145.789C120.275 145.789 117.806 146.709 116.258 147.031C114.709 147.338 114.096 147.031 112.547 146.725L112.531 146.709ZM119.324 121.992C119.938 121.685 121.18 120.75 121.18 120.75C121.18 120.75 118.711 121.363 117.775 121.67C116.855 121.977 114.371 121.977 114.371 121.977C114.371 121.977 111.903 121.977 110.661 121.67C109.419 121.363 107.257 120.428 107.257 120.428C107.257 120.428 109.725 122.59 111.581 122.897C113.436 123.203 114.356 123.203 115.598 123.203C116.84 123.203 118.68 122.283 119.309 121.961L119.324 121.992ZM87.8142 157.213C89.0562 157.213 90.8962 153.809 90.8962 153.809C90.8962 153.809 88.7342 155.357 88.1208 155.357C87.5075 155.357 87.8142 151.033 87.8142 148.672C87.8142 146.311 89.0562 142.999 89.3628 142.063C89.6695 141.143 91.5248 139.595 92.4448 138.353C93.3648 137.111 96.1555 134.949 96.1555 134.335C96.1555 133.722 96.4622 131.867 96.7688 130.931C97.0755 130.011 97.3822 128.463 97.3822 128.463C97.3822 128.463 96.1402 129.076 95.8335 129.705C95.5268 130.318 95.2202 133.109 95.2202 133.722C95.2202 134.335 89.9608 138.981 89.0408 140.821C88.1208 142.677 87.1855 144.839 87.1855 146.081C87.1855 147.323 86.5722 152.26 86.8788 153.809C87.1855 155.357 86.5722 157.213 87.7988 157.213H87.8142ZM118.742 94.9746L118.389 92.8433L120.367 93.4566C121.026 93.6559 121.731 94.1773 121.885 95.0819C122.038 96.0019 121.977 97.5659 121.977 97.5659C121.977 97.5659 120.965 97.1059 120.306 96.8913C119.646 96.6919 118.895 95.8639 118.742 94.9593V94.9746ZM110.37 95.1279V92.9659L108.514 93.8859C107.901 94.1926 107.272 94.8059 107.272 95.7413C107.272 96.6766 107.579 98.2099 107.579 98.2099C107.579 98.2099 108.499 97.5966 109.127 97.2899C109.741 96.9833 110.37 96.0479 110.37 95.1279Z" fill="white"/>
</svg>
