<svg width="230" height="230" viewBox="0 0 230 230" fill="none" xmlns="http://www.w3.org/2000/svg">
<path d="M230 115C230 178.511 178.511 230 115 230C108.361 230 101.859 229.433 95.5267 228.359C51.8727 220.923 16.6213 188.876 4.508 147.001C1.57933 136.85 0 126.101 0 115C0 51.4893 51.4893 0 115 0C178.511 0 230 51.4893 230 115Z" fill="white"/>
<path d="M205.818 115C205.818 127.267 203.411 139.15 198.673 150.343C194.104 161.153 187.556 170.875 179.215 179.216C170.874 187.557 161.152 194.105 150.342 198.674C139.149 203.412 127.25 205.804 114.999 205.804C102.748 205.804 90.849 203.397 79.6557 198.674C68.8457 194.105 59.1244 187.557 50.783 179.216C42.4417 170.875 35.8944 161.153 31.325 150.343C26.587 139.15 24.1797 127.251 24.1797 115C24.1797 102.749 26.587 90.85 31.325 79.6413C35.8944 68.8313 42.4417 59.11 50.783 50.7687C59.1244 42.4273 68.8304 35.88 79.6557 31.3107C90.849 26.5727 102.732 24.1807 114.999 24.1807C127.266 24.1807 139.149 26.5727 150.342 31.3107C161.152 35.88 170.874 42.4273 179.215 50.7687C187.556 59.11 194.104 68.816 198.673 79.6413C203.411 90.8347 205.818 102.733 205.818 115Z" fill="#FFD300"/>
<path d="M115 24.1806C127.266 24.1806 139.15 26.588 150.343 31.3106C161.153 35.88 170.874 42.4273 179.216 50.7686C187.557 59.11 194.104 68.8159 198.674 79.6413C203.412 90.8346 205.804 102.733 205.804 114.985C205.804 127.236 203.396 139.135 198.674 150.328C194.104 161.138 187.557 170.859 179.216 179.201C170.874 187.542 161.168 194.089 150.343 198.659C139.15 203.397 127.251 205.789 115 205.789C102.748 205.789 90.8495 203.381 79.6562 198.659C68.8462 194.089 59.1248 187.542 50.7835 179.201C42.4422 170.859 35.8948 161.153 31.3255 150.328C26.5875 139.135 24.1955 127.236 24.1955 114.985C24.1955 102.733 26.6028 90.8346 31.3255 79.6413C35.8948 68.8313 42.4422 59.11 50.7835 50.7686C59.1248 42.4273 68.8308 35.88 79.6562 31.3106C90.8495 26.5726 102.748 24.1806 115 24.1806ZM115 20.7C62.9275 20.7 20.7148 62.9126 20.7148 114.985C20.7148 167.057 62.9275 209.269 115 209.269C167.072 209.269 209.3 167.057 209.3 114.985C209.3 62.9126 167.072 20.7153 115 20.7153V20.7Z" fill="#272729"/>
<g opacity="0.1">
<path d="M71.899 79.8867H49.957V124.829H71.899C82.0497 124.829 89.2564 117.438 89.2564 107.027V97.6887C89.2564 87.2927 82.111 79.8867 71.899 79.8867ZM78.2777 106.643C78.2777 111.857 75.6404 114.54 70.565 114.54H60.7824V90.0987H70.565C75.6404 90.0987 78.2777 92.7974 78.2777 98.0567V106.643Z" fill="#272729"/>
<path d="M180.029 88.0594L159.728 114.509H179.922V124.675H145.621V116.273L165.861 89.8227H146.878V79.7334H180.029V88.0594Z" fill="#272729"/>
<path d="M135.292 103.02L120.318 117.993L126.997 124.672L141.97 109.699L135.292 103.02Z" fill="#272729"/>
<path d="M123.459 91.1827L113.668 100.973L120.347 107.652L130.137 97.8615L123.459 91.1827Z" fill="#272729"/>
<path d="M111.299 79.7437L96.6836 94.3591L103.319 100.995L117.935 86.3792L111.299 79.7437Z" fill="#272729"/>
<path d="M67.3137 159.497H69.7823V163.576H66.4703C64.8757 163.576 63.511 163.269 62.361 162.641C61.211 162.027 60.3217 161.123 59.693 159.957C59.0643 158.792 58.7577 157.412 58.7577 155.817V145.605H54.8477V144.762L62.4377 136.697H63.2043V141.787H69.6597V145.621H63.2503V155.465C63.2503 156.753 63.603 157.749 64.293 158.455C64.9983 159.16 65.995 159.497 67.3137 159.497Z" fill="#272729"/>
<path d="M92.1379 141.787H95.6032V163.576H91.9692L91.5246 160.908C89.4239 163.039 86.8019 164.097 83.6586 164.097C80.5153 164.097 77.6939 163.009 75.5319 160.831C73.3699 158.654 72.2812 155.925 72.2812 152.659C72.2812 149.393 73.3699 146.679 75.5319 144.501C77.6939 142.339 80.4079 141.251 83.6586 141.251C86.9093 141.251 89.5159 142.324 91.6013 144.486L92.1226 141.787H92.1379ZM78.8746 157.78C80.2392 159.145 81.9412 159.819 83.9959 159.819C86.0506 159.819 87.7526 159.145 89.0866 157.78C90.4206 156.415 91.0799 154.713 91.0799 152.659C91.0799 150.604 90.4206 148.902 89.0866 147.553C87.7526 146.203 86.0506 145.529 83.9806 145.529C82.6313 145.529 81.4199 145.835 80.3313 146.464C79.2426 147.077 78.3839 147.936 77.7706 149.025C77.1573 150.113 76.8353 151.325 76.8353 152.674C76.8353 154.713 77.5099 156.415 78.8746 157.78Z" fill="#272729"/>
<path d="M111.797 164.097C108.561 164.097 105.863 163.009 103.67 160.816C101.477 158.623 100.389 155.909 100.389 152.659C100.389 149.408 101.477 146.709 103.67 144.532C105.863 142.355 108.592 141.266 111.843 141.266C114.511 141.266 116.826 142.017 118.789 143.52C120.751 145.023 122.024 147.031 122.622 149.531H118.175C117.608 148.289 116.765 147.323 115.63 146.602C114.495 145.897 113.223 145.529 111.797 145.529C110.524 145.529 109.374 145.835 108.331 146.464C107.289 147.077 106.461 147.936 105.847 149.025C105.249 150.113 104.943 151.325 104.943 152.674C104.943 154.698 105.602 156.385 106.921 157.765C108.239 159.145 109.865 159.819 111.797 159.819C113.223 159.819 114.495 159.451 115.615 158.731C116.734 158.01 117.577 156.967 118.175 155.618H122.699C122.085 158.179 120.782 160.218 118.804 161.767C116.826 163.315 114.495 164.082 111.797 164.082V164.097Z" fill="#272729"/>
<path d="M136.775 159.497H139.243V163.576H135.931C134.337 163.576 132.972 163.269 131.822 162.641C130.672 162.027 129.783 161.123 129.154 159.957C128.525 158.792 128.219 157.412 128.219 155.817V145.605H124.309V144.762L131.899 136.697H132.665V141.787H139.121V145.621H132.711V155.465C132.711 156.753 133.064 157.749 133.754 158.455C134.459 159.16 135.456 159.497 136.775 159.497Z" fill="#272729"/>
<path d="M143.506 138.399V133.799H148.152V138.399H143.506ZM143.583 163.576V141.787H148.06V163.576H143.583Z" fill="#272729"/>
<path d="M164.252 164.097C161.016 164.097 158.318 163.009 156.125 160.816C153.932 158.623 152.844 155.909 152.844 152.659C152.844 149.408 153.932 146.709 156.125 144.532C158.318 142.355 161.047 141.266 164.298 141.266C166.966 141.266 169.281 142.017 171.244 143.52C173.206 145.023 174.479 147.031 175.077 149.531H170.63C170.063 148.289 169.22 147.323 168.085 146.602C166.95 145.897 165.678 145.529 164.252 145.529C162.979 145.529 161.829 145.835 160.786 146.464C159.744 147.077 158.916 147.936 158.302 149.025C157.704 150.113 157.398 151.325 157.398 152.674C157.398 154.698 158.057 156.385 159.376 157.765C160.694 159.145 162.32 159.819 164.252 159.819C165.678 159.819 166.95 159.451 168.07 158.731C169.189 158.01 170.032 156.967 170.63 155.618H175.154C174.54 158.179 173.237 160.218 171.259 161.767C169.281 163.315 166.95 164.082 164.252 164.082V164.097Z" fill="#272729"/>
<path d="M120.322 107.625L113.682 100.985L108.5 106.168L103.317 100.985L96.6777 107.625L101.86 112.807L96.6777 117.99L103.317 124.629L108.5 119.447L113.682 124.629L120.322 117.99L115.139 112.807L120.322 107.625Z" fill="#FF0000"/>
</g>
<path d="M182.082 194.672C196.936 194.672 208.977 182.631 208.977 167.777C208.977 152.924 196.936 140.883 182.082 140.883C167.229 140.883 155.188 152.924 155.188 167.777C155.188 182.631 167.229 194.672 182.082 194.672Z" fill="#272729"/>
<path d="M182.081 191.667C195.274 191.667 205.97 180.971 205.97 167.777C205.97 154.584 195.274 143.888 182.081 143.888C168.887 143.888 158.191 154.584 158.191 167.777C158.191 180.971 168.887 191.667 182.081 191.667Z" fill="#FFD300"/>
<path d="M198.09 160.755L189.089 151.769L182.082 158.777L175.059 151.769L166.059 160.755L173.081 167.777L166.059 174.8L175.059 183.785L182.082 176.778L189.089 183.785L198.09 174.8L191.083 167.777L198.09 160.755Z" fill="#FF0000"/>
<path d="M148.32 156.707C148.412 145.713 137.954 120.367 129 105.187C133.385 105.769 137.648 107.073 141.604 109.051L141.374 112.976L142.432 109.419L142.6 109.587C147.936 110.538 153.41 110.492 158.746 109.434C153.349 109.787 147.921 109.388 142.616 108.269C137.954 106.122 133.048 104.573 128.003 103.653C126.117 100.295 123.802 97.1979 121.134 94.4379C121.885 93.6865 123.066 91.9232 124.108 90.3745C125.151 88.8259 129.092 88.0439 128.785 84.7779C128.647 87.6452 124.752 88.8259 123.771 89.8072C122.33 91.6012 120.98 93.1805 120.367 93.8399C120.014 93.5792 119.631 93.3645 119.232 93.2265C119.37 92.9045 119.432 92.5519 119.416 92.1992C119.34 91.2025 118.803 90.4359 118.205 90.4665C117.607 90.4972 117.224 91.4479 117.224 92.3679C116.84 92.2452 116.426 92.1839 116.028 92.1532C116.028 91.5705 116.166 90.9879 116.411 90.4665C116.549 90.2672 116.733 90.0832 116.932 89.9452C117.04 89.8225 117.147 89.6999 117.285 89.5925L117.515 89.3625C119.769 85.5139 135.9 81.0672 136.988 74.2439C132.894 83.1832 117.944 84.0112 116.902 88.7339C116.472 88.4119 115.936 88.2432 115.399 88.2585C114.878 88.2585 114.372 88.4119 113.942 88.7032C112.792 83.7352 98.4252 82.4932 94.4845 73.5692C95.4505 80.3159 111.09 85.2685 113.16 89.1479C113.344 89.2705 113.482 89.4239 113.605 89.6079L114.08 90.0832C114.341 90.6199 114.448 91.2025 114.402 91.8005C114.019 91.8465 113.636 91.9232 113.252 92.0459C113.344 91.0492 112.869 90.2212 112.271 90.1905C111.673 90.1752 111.121 90.8805 111.029 91.8925C111.029 92.2605 111.075 92.6132 111.213 92.9505C110.753 93.0885 110.308 93.3186 109.925 93.6252C109.327 93.0272 108.008 91.4172 106.567 89.6232C105.632 88.6879 101.706 87.5839 101.645 84.6859C101.308 87.9212 105.11 88.7492 106.076 90.1752C107.027 91.6012 108.438 93.4719 109.066 94.3305C106.383 97.1059 104.068 100.203 102.136 103.546C97.0758 104.573 92.1538 106.214 87.4925 108.422C82.1872 109.649 76.7285 110.139 71.2852 109.879C76.6365 110.829 82.1105 110.799 87.4465 109.756L87.6458 109.557L88.5812 113.099L88.4125 109.173C92.3992 107.149 96.6618 105.769 101.078 105.079C91.8778 120.443 80.9145 145.958 80.8225 156.952C80.9758 158.961 82.9078 159.451 85.8518 158.945L86.7105 158.761C88.1978 158.393 89.6392 157.918 91.0498 157.351L91.2798 157.121L91.8472 156.891C93.5952 156.155 95.3278 155.357 97.0298 154.529L97.9192 154.085C99.5292 153.272 101.108 152.413 102.672 151.524L103.362 151.11C104.482 150.435 105.601 149.776 106.659 149.101C107.272 148.718 107.84 148.304 108.376 147.829L108.928 147.277C109.664 146.556 110.308 145.759 110.891 144.915C111.274 145.375 111.765 145.743 112.317 145.989C112.869 146.234 113.467 146.341 114.08 146.326C114.678 146.326 115.276 146.219 115.828 145.973C116.38 145.728 116.871 145.36 117.27 144.9C117.822 145.728 118.45 146.495 119.156 147.2L119.692 147.737C120.229 148.197 120.796 148.611 121.394 148.979C133.247 156.078 147.814 162.395 148.335 156.722L148.32 156.707Z" fill="#272729"/>
<path d="M87.1091 138.521C88.0598 135.669 94.0858 123.633 94.0858 123.633C94.0858 123.633 91.5558 132.511 90.2831 135.041C89.0104 137.571 85.5298 147.721 85.5298 147.721C85.5298 147.721 83.3064 155.005 84.9011 155.327C86.4804 155.649 91.2338 154.054 93.1351 153.103C95.0364 152.153 101.691 148.672 103.592 147.399C105.494 146.127 110.247 142.017 110.247 142.017C110.247 142.017 107.395 145.498 106.444 146.771C105.494 148.043 98.5171 151.524 97.2598 152.475C95.9871 153.425 87.7531 156.599 85.8518 157.228C83.9504 157.857 82.3711 157.857 82.3711 156.277C82.3711 154.698 82.9998 152.475 83.3218 150.573C83.6438 148.672 86.1738 141.389 87.1244 138.537L87.1091 138.521ZM116.258 141.373C115.629 142.646 114.356 143.903 113.406 143.903C112.455 143.903 115.307 141.373 115.307 139.15C115.307 136.927 115.936 127.742 115.936 127.742L116.258 119.186C116.258 119.186 115.307 109.051 115.307 105.555C115.307 102.059 113.406 101.752 114.034 99.222C114.663 96.692 114.663 95.0973 114.663 95.0973C114.663 95.0973 114.985 95.726 115.614 97.9493C116.242 100.173 116.564 113.16 116.886 115.061C117.208 116.963 116.886 129.321 116.886 129.321C116.886 129.321 116.886 140.101 116.258 141.358V141.373ZM128.616 107.778C126.715 104.604 123.541 100.495 123.541 100.495C123.541 100.495 125.442 104.926 127.344 107.778C129.245 110.63 131.775 115.383 132.726 117.607L136.528 126.485C137.479 128.708 138.752 132.511 139.702 135.363C140.653 138.215 141.926 142.968 142.554 145.191C143.183 147.415 144.134 151.846 144.134 151.846C144.134 151.846 144.762 154.069 143.505 154.698C142.248 155.327 139.702 154.698 139.702 154.698L132.726 152.797L138.752 155.327C138.752 155.327 142.554 157.55 144.778 157.228C147.001 156.906 146.05 154.054 146.05 154.054C146.05 154.054 145.1 149.623 144.778 148.028C144.456 146.433 143.198 142.324 142.554 140.101C141.926 137.877 139.702 131.545 139.702 131.545C139.702 131.545 135.271 120.765 134.627 119.508C133.998 118.235 130.502 110.952 128.601 107.778H128.616Z" fill="white"/>
</svg>
