<svg width="231" height="230" viewBox="0 0 231 230" fill="none" xmlns="http://www.w3.org/2000/svg">
<path d="M230.08 115C230.08 178.511 178.591 230 115.08 230C108.441 230 101.939 229.433 95.6067 228.359C51.9527 220.923 16.7014 188.876 4.58808 147.001C1.65941 136.85 0.0800781 126.101 0.0800781 115C0.0800781 51.4893 51.5694 0 115.08 0C178.591 0 230.08 51.4893 230.08 115Z" fill="white"/>
<path d="M205.898 115C205.898 127.267 203.491 139.15 198.753 150.343C194.184 161.153 187.636 170.875 179.295 179.216C170.954 187.557 161.232 194.105 150.422 198.674C139.229 203.412 127.33 205.804 115.079 205.804C102.828 205.804 90.9291 203.397 79.7358 198.674C68.9258 194.105 59.2044 187.557 50.8631 179.216C42.5218 170.875 35.9744 161.153 31.4051 150.343C26.6671 139.15 24.2598 127.251 24.2598 115C24.2598 102.749 26.6671 90.85 31.4051 79.6413C35.9744 68.8313 42.5218 59.11 50.8631 50.7687C59.2044 42.4273 68.9104 35.88 79.7358 31.3107C90.9291 26.5727 102.812 24.1807 115.079 24.1807C127.346 24.1807 139.229 26.5727 150.422 31.3107C161.232 35.88 170.954 42.4273 179.295 50.7687C187.636 59.11 194.184 68.816 198.753 79.6413C203.491 90.8347 205.898 102.733 205.898 115Z" fill="#FFD300"/>
<path d="M115.08 24.1806C127.346 24.1806 139.23 26.588 150.423 31.3106C161.233 35.88 170.954 42.4273 179.296 50.7686C187.637 59.11 194.184 68.8159 198.754 79.6413C203.492 90.8346 205.884 102.733 205.884 114.985C205.884 127.236 203.476 139.135 198.754 150.328C194.184 161.138 187.637 170.859 179.296 179.201C170.954 187.542 161.248 194.089 150.423 198.659C139.23 203.397 127.331 205.789 115.08 205.789C102.828 205.789 90.9296 203.381 79.7363 198.659C68.9263 194.089 59.2049 187.542 50.8636 179.201C42.5223 170.859 35.9749 161.153 31.4056 150.328C26.6676 139.135 24.2756 127.236 24.2756 114.985C24.2756 102.733 26.6829 90.8346 31.4056 79.6413C35.9749 68.8313 42.5223 59.11 50.8636 50.7686C59.2049 42.4273 68.9109 35.88 79.7363 31.3106C90.9296 26.5726 102.828 24.1806 115.08 24.1806ZM115.08 20.7C63.0076 20.7 20.7949 62.9126 20.7949 114.985C20.7949 167.057 63.0076 209.269 115.08 209.269C167.152 209.269 209.38 167.057 209.38 114.985C209.38 62.9126 167.152 20.7153 115.08 20.7153V20.7Z" fill="#272729"/>
<g opacity="0.1">
<path d="M71.9791 79.8867H50.0371V124.829H71.9791C82.1298 124.829 89.3364 117.438 89.3364 107.027V97.6887C89.3364 87.2927 82.1911 79.8867 71.9791 79.8867ZM78.3578 106.643C78.3578 111.857 75.7204 114.54 70.6451 114.54H60.8624V90.0987H70.6451C75.7204 90.0987 78.3578 92.7974 78.3578 98.0567V106.643Z" fill="#272729"/>
<path d="M180.109 88.0594L159.808 114.509H180.002V124.675H145.701V116.273L165.941 89.8227H146.959V79.7334H180.109V88.0594Z" fill="#272729"/>
<path d="M135.372 103.02L120.398 117.993L127.077 124.672L142.051 109.699L135.372 103.02Z" fill="#272729"/>
<path d="M123.539 91.1825L113.748 100.973L120.427 107.652L130.218 97.8614L123.539 91.1825Z" fill="#272729"/>
<path d="M111.379 79.7437L96.7637 94.3591L103.399 100.995L118.015 86.3792L111.379 79.7437Z" fill="#272729"/>
<path d="M67.3937 159.497H69.8624V163.576H66.5504C64.9557 163.576 63.5911 163.269 62.4411 162.641C61.2911 162.027 60.4017 161.123 59.7731 159.957C59.1444 158.792 58.8377 157.412 58.8377 155.817V145.605H54.9277V144.762L62.5177 136.697H63.2844V141.787H69.7397V145.621H63.3304V155.465C63.3304 156.753 63.6831 157.749 64.3731 158.455C65.0784 159.16 66.0751 159.497 67.3937 159.497Z" fill="#272729"/>
<path d="M92.218 141.787H95.6833V163.576H92.0493L91.6047 160.908C89.504 163.039 86.882 164.097 83.7387 164.097C80.5953 164.097 77.774 163.009 75.612 160.831C73.45 158.654 72.3613 155.925 72.3613 152.659C72.3613 149.393 73.45 146.679 75.612 144.501C77.774 142.339 80.488 141.251 83.7387 141.251C86.9893 141.251 89.596 142.324 91.6813 144.486L92.2027 141.787H92.218ZM78.9547 157.78C80.3193 159.145 82.0213 159.819 84.076 159.819C86.1307 159.819 87.8327 159.145 89.1667 157.78C90.5007 156.415 91.16 154.713 91.16 152.659C91.16 150.604 90.5007 148.902 89.1667 147.553C87.8327 146.203 86.1307 145.529 84.0607 145.529C82.7113 145.529 81.5 145.835 80.4113 146.464C79.3227 147.077 78.464 147.936 77.8507 149.025C77.2373 150.113 76.9153 151.325 76.9153 152.674C76.9153 154.713 77.59 156.415 78.9547 157.78Z" fill="#272729"/>
<path d="M111.877 164.097C108.641 164.097 105.943 163.009 103.75 160.816C101.557 158.623 100.469 155.909 100.469 152.659C100.469 149.408 101.557 146.709 103.75 144.532C105.943 142.355 108.672 141.266 111.923 141.266C114.591 141.266 116.906 142.017 118.869 143.52C120.831 145.023 122.104 147.031 122.702 149.531H118.255C117.688 148.289 116.845 147.323 115.71 146.602C114.575 145.897 113.303 145.529 111.877 145.529C110.604 145.529 109.454 145.835 108.411 146.464C107.369 147.077 106.541 147.936 105.927 149.025C105.329 150.113 105.023 151.325 105.023 152.674C105.023 154.698 105.682 156.385 107.001 157.765C108.319 159.145 109.945 159.819 111.877 159.819C113.303 159.819 114.575 159.451 115.695 158.731C116.814 158.01 117.657 156.967 118.255 155.618H122.779C122.165 158.179 120.862 160.218 118.884 161.767C116.906 163.315 114.575 164.082 111.877 164.082V164.097Z" fill="#272729"/>
<path d="M136.855 159.497H139.323V163.576H136.011C134.417 163.576 133.052 163.269 131.902 162.641C130.752 162.027 129.863 161.123 129.234 159.957C128.605 158.792 128.299 157.412 128.299 155.817V145.605H124.389V144.762L131.979 136.697H132.745V141.787H139.201V145.621H132.791V155.465C132.791 156.753 133.144 157.749 133.834 158.455C134.539 159.16 135.536 159.497 136.855 159.497Z" fill="#272729"/>
<path d="M143.586 138.399V133.799H148.232V138.399H143.586ZM143.663 163.576V141.787H148.14V163.576H143.663Z" fill="#272729"/>
<path d="M164.332 164.097C161.096 164.097 158.398 163.009 156.205 160.816C154.012 158.623 152.924 155.909 152.924 152.659C152.924 149.408 154.012 146.709 156.205 144.532C158.398 142.355 161.127 141.266 164.378 141.266C167.046 141.266 169.361 142.017 171.324 143.52C173.286 145.023 174.559 147.031 175.157 149.531H170.71C170.143 148.289 169.3 147.323 168.165 146.602C167.03 145.897 165.758 145.529 164.332 145.529C163.059 145.529 161.909 145.835 160.866 146.464C159.824 147.077 158.996 147.936 158.382 149.025C157.784 150.113 157.478 151.325 157.478 152.674C157.478 154.698 158.137 156.385 159.456 157.765C160.774 159.145 162.4 159.819 164.332 159.819C165.758 159.819 167.03 159.451 168.15 158.731C169.269 158.01 170.112 156.967 170.71 155.618H175.234C174.621 158.179 173.317 160.218 171.339 161.767C169.361 163.315 167.03 164.082 164.332 164.082V164.097Z" fill="#272729"/>
<path d="M120.402 107.625L113.762 100.985L108.58 106.168L103.397 100.985L96.7578 107.625L101.94 112.807L96.7578 117.99L103.397 124.629L108.58 119.447L113.762 124.629L120.402 117.99L115.219 112.807L120.402 107.625Z" fill="#FF0000"/>
</g>
<path d="M182.162 194.672C197.016 194.672 209.057 182.631 209.057 167.777C209.057 152.924 197.016 140.883 182.162 140.883C167.309 140.883 155.268 152.924 155.268 167.777C155.268 182.631 167.309 194.672 182.162 194.672Z" fill="#272729"/>
<path d="M182.161 191.667C195.355 191.667 206.05 180.971 206.05 167.778C206.05 154.584 195.355 143.888 182.161 143.888C168.967 143.888 158.271 154.584 158.271 167.778C158.271 180.971 168.967 191.667 182.161 191.667Z" fill="#FFD300"/>
<path d="M198.17 160.755L189.169 151.769L182.162 158.777L175.139 151.769L166.139 160.755L173.161 167.777L166.139 174.8L175.139 183.785L182.162 176.778L189.169 183.785L198.17 174.8L191.163 167.777L198.17 160.755Z" fill="#FF0000"/>
<path d="M168.911 128.662C167.493 127.541 163.479 127.373 162.735 128.112C162.67 128.205 162.604 128.288 162.528 128.372C162.529 128.382 162.491 128.424 162.443 128.477C162.48 128.415 162.555 128.311 162.668 128.165C162.687 128.144 162.716 128.133 162.735 128.112C163.842 126.434 161.469 124.05 160.862 122.138C159.064 116.451 156.566 111.391 152.358 106.967C151.522 106.078 151.422 105.272 151.543 104.094C151.654 102.917 151.997 101.588 151.628 100.415C150.809 97.8733 149.193 96.2025 146.376 96.3344C143.558 96.4563 142.27 98.3035 141.579 100.891C141.487 101.247 141.491 101.727 141.379 102.083C139.556 102.085 138.104 101.077 136.666 100.158C132.413 97.4183 128.191 95.7085 123.12 96.014C114.864 96.5 107.656 98.6955 100.479 102.732C96.0784 105.206 92.8248 108.594 90.0333 112.81C87.6601 116.384 86.6174 120.331 86.251 124.585C86.0139 127.431 85.4522 129.201 82.6352 130.525C76.9728 133.203 76.5582 132.723 71.3118 130.344C66.3737 128.12 64.7127 123.968 60.0307 123.253C55.7124 122.599 50.5049 125.365 48.1529 126.775C47.6766 127.059 47.4966 127.659 47.732 128.158C48.0013 128.735 48.714 128.969 49.2677 128.631C51.1629 127.494 53.9109 125.994 57.9675 126.421C58.7526 126.501 59.8963 126.944 61.0071 127.529C62.1694 128.141 63.1761 129.242 63.6631 129.568C65.4663 130.779 67.2518 134.023 72.9079 135.791C78.564 137.558 81.7713 135.835 84.3291 134.535C85.8135 133.789 87.1846 133.179 88.7619 132.689C89.3831 132.498 90.1547 132.709 90.7311 133.02C93.0896 134.323 95.3591 135.25 98.0235 135.667C98.7701 135.78 99.4952 135.863 100.163 136.2C102.763 137.521 105.686 137.914 108.604 137.787C110.242 137.715 111.909 138.021 113.481 138.613C114.869 139.134 116.114 140.002 117.412 140.718C116.94 139.1 115.798 138.296 114.63 137.163C116.637 136.862 117.871 137.11 119.583 138.296C120.112 138.669 120.783 139.056 121.513 139.24C122.243 139.423 123.177 139.476 123.962 139.547C123.722 138.968 123.473 138.39 123.233 137.811C123.99 138.134 124.748 138.466 125.505 138.788C125.043 137.169 123.507 136.486 122.869 134.946C124.407 134.869 125.868 134.855 127.433 134.716C128.987 134.558 130.516 134.3 132.114 134.03C133.325 133.818 134.264 133.781 135.187 134.806C135.399 135.026 135.789 135.216 136.143 135.299C138.07 135.782 139.517 136.49 140.895 138.003C140.991 138.108 141.456 138.205 141.626 138.206C141.512 137.321 141.25 136.293 141.167 135.456C141.151 135.337 141.416 135.213 141.5 135.289C141.98 135.675 142.472 136.311 143.004 136.735C143.244 136.923 143.6 137.036 143.886 137.151C144.011 136.855 144.215 136.514 144.259 136.211C144.304 135.909 144.135 135.727 144.071 135.46C144.723 135.677 145.385 135.894 146.047 136.121C145.779 135.164 145.621 134.23 145.273 133.277C145.169 132.992 144.88 132.836 144.571 132.661C144.261 132.477 143.739 132.243 143.39 132.07C144.425 131.737 145.558 131.39 146.634 131.466C148.482 131.583 150.337 131.83 152.07 132.253C153.804 132.687 155.147 133.7 156.915 133.822C157.95 133.9 158.855 133.564 159.822 133.295L159.842 133.294C161.139 134.981 161.929 136.753 162.404 138.822C162.492 139.188 162.54 139.536 162.628 139.892C162.48 137.346 161.762 135.23 160.431 133.044C160.572 133.077 160.71 132.819 160.854 132.902C161.482 133.251 161.829 133.574 162.371 134.188C162.922 134.791 163.593 135.788 164.109 136.503C163.55 134.939 162.622 133.804 161.432 132.643C161.553 132.677 161.692 132.449 161.806 132.524C162.707 133.109 163.391 133.976 164.103 134.781C164.02 134.535 163.926 134.259 163.736 134.069C163.167 133.497 162.599 132.955 162.02 132.393C162.328 132.147 162.522 131.827 162.664 131.459C163.287 131.708 163.889 131.928 164.487 132.269C165.538 132.857 166.507 133.619 167.503 134.309C166.108 132.858 164.592 131.773 162.766 130.914L162.894 130.467C164.768 130.693 166.425 131.4 168.165 132.143C168.089 132.027 167.993 131.912 167.88 131.847C166.249 130.888 164.625 130.249 162.758 129.953C162.72 129.594 162.662 129.237 162.584 128.89C162.97 128.801 163.366 128.711 163.766 128.7C165.266 128.655 166.79 128.708 168.274 128.734C168.494 128.733 168.786 128.768 168.906 128.762C169.026 128.756 168.897 128.582 168.9 128.642L168.911 128.662ZM162.434 128.487C162.321 128.643 162.378 128.58 162.434 128.487V128.487Z" fill="#272729"/>
<path d="M162.529 128.382C162.614 128.298 162.67 128.205 162.735 128.112C162.716 128.133 162.687 128.144 162.678 128.164C162.097 128.955 162.529 128.382 162.528 128.372L162.529 128.382Z" fill="#272729"/>
<path d="M150.281 115.222C150.408 115.145 150.569 115.177 150.694 115.261C150.818 115.335 150.904 115.461 150.999 115.566C151.276 115.893 151.6 116.167 151.962 116.389C152.2 116.537 152.496 116.662 152.74 116.53C152.974 116.408 153.039 116.104 152.976 115.847C152.914 115.6 152.733 115.389 152.563 115.197C152.128 114.718 151.635 114.263 151.016 114.104C150.61 113.994 150.171 114.026 149.765 114.126C149.409 114.215 149.066 114.362 148.82 114.635C148.573 114.907 148.472 115.293 148.461 115.654C148.442 116.286 148.685 116.924 149.119 117.393C149.553 117.852 150.187 118.13 150.819 118.139C150.989 118.14 151.197 118.099 151.259 117.936C151.321 117.773 151.182 117.6 151.056 117.486C150.741 117.191 150.406 116.898 150.196 116.518C149.977 116.138 149.917 115.741 150.138 115.359L150.281 115.222Z" fill="white"/>
<path d="M146.315 97.9296C146.266 97.9321 146.201 98.0355 146.271 98.042C146.865 98.1122 147.365 98.2972 147.779 98.5568C146.158 97.9776 144.577 99.1987 143.716 100.584C143.373 101.132 143.133 101.735 142.934 102.365C142.886 102.588 142.847 102.81 142.818 103.032C142.768 103.435 142.683 103.94 142.63 104.463C142.835 103.582 143.062 102.719 143.39 101.872C144.116 99.9928 145.936 97.9487 148.144 98.8488C149.045 99.6344 149.478 100.884 149.723 102.174C149.858 102.868 149.831 103.52 149.743 104.155C149.685 104.589 149.607 105.023 149.518 105.458C149.8 104.883 150.02 104.291 150.125 103.585C150.155 103.383 150.185 103.182 150.195 102.981C150.182 102.341 150.1 101.704 149.94 101.101C149.841 100.726 149.723 100.371 149.576 100.048C148.989 98.7361 148.007 97.9145 146.306 97.9401L146.315 97.9296Z" fill="white"/>
<path d="M106.086 103.711C107.943 102.596 109.372 101.363 111.411 100.489C114.812 99.036 118.428 98.0728 122.185 98.1139C126.523 98.1557 130.664 99.6592 134.456 101.601C132.755 101.827 130.539 101.167 128.85 101.012C127.17 100.857 125.895 100.4 124.252 100.192C121.007 99.7752 117.36 100.109 114.343 101.042C111.326 101.975 108.974 102.794 106.076 103.701L106.086 103.711Z" fill="white"/>
</svg>
