<svg width="230" height="230" viewBox="0 0 230 230" fill="none" xmlns="http://www.w3.org/2000/svg">
<path d="M230 115C230 178.511 178.511 230 115 230C108.361 230 101.859 229.433 95.5267 228.359C51.8727 220.923 16.6213 188.876 4.508 147.001C1.57933 136.85 0 126.101 0 115C0 51.4893 51.4893 0 115 0C178.511 0 230 51.4893 230 115Z" fill="#F4F4F4"/>
<path d="M205.818 115C205.818 127.267 203.411 139.15 198.673 150.343C194.104 161.153 187.556 170.875 179.215 179.216C170.874 187.557 161.152 194.105 150.342 198.674C139.149 203.412 127.25 205.804 114.999 205.804C102.748 205.804 90.849 203.397 79.6557 198.674C68.8457 194.105 59.1244 187.557 50.783 179.216C42.4417 170.875 35.8944 161.153 31.325 150.343C26.587 139.15 24.1797 127.251 24.1797 115C24.1797 102.749 26.587 90.85 31.325 79.6413C35.8944 68.8313 42.4417 59.11 50.783 50.7687C59.1244 42.4273 68.8304 35.88 79.6557 31.3107C90.849 26.5727 102.732 24.1807 114.999 24.1807C127.266 24.1807 139.149 26.5727 150.342 31.3107C161.152 35.88 170.874 42.4273 179.215 50.7687C187.556 59.11 194.104 68.816 198.673 79.6413C203.411 90.8347 205.818 102.733 205.818 115Z" fill="#FFD300"/>
<path d="M115 24.1806C127.266 24.1806 139.15 26.588 150.343 31.3106C161.153 35.88 170.874 42.4273 179.215 50.7686C187.557 59.11 194.104 68.8159 198.674 79.6413C203.412 90.8346 205.804 102.733 205.804 114.985C205.804 127.236 203.396 139.135 198.674 150.328C194.104 161.138 187.557 170.859 179.215 179.201C170.874 187.542 161.168 194.089 150.343 198.659C139.15 203.397 127.251 205.789 115 205.789C102.748 205.789 90.8495 203.381 79.6562 198.659C68.8462 194.089 59.1248 187.542 50.7835 179.201C42.4422 170.859 35.8948 161.153 31.3255 150.328C26.5875 139.135 24.1955 127.236 24.1955 114.985C24.1955 102.733 26.6028 90.8346 31.3255 79.6413C35.8948 68.8313 42.4422 59.11 50.7835 50.7686C59.1248 42.4273 68.8308 35.88 79.6562 31.3106C90.8495 26.5726 102.748 24.1806 115 24.1806ZM115 20.7C62.9275 20.7 20.7148 62.9126 20.7148 114.985C20.7148 167.057 62.9275 209.269 115 209.269C167.072 209.269 209.299 167.057 209.299 114.985C209.299 62.9126 167.072 20.7153 115 20.7153V20.7Z" fill="#272729"/>
<g opacity="0.1">
<path d="M71.899 79.8867H49.957V124.829H71.899C82.0497 124.829 89.2564 117.438 89.2564 107.027V97.6887C89.2564 87.2927 82.111 79.8867 71.899 79.8867ZM78.2777 106.643C78.2777 111.857 75.6404 114.54 70.565 114.54H60.7824V90.0987H70.565C75.6404 90.0987 78.2777 92.7974 78.2777 98.0567V106.643Z" fill="#272729"/>
<path d="M180.029 88.0593L159.728 114.509H179.922V124.675H145.621V116.273L165.861 89.8226H146.878V79.7333H180.029V88.0593Z" fill="#272729"/>
<path d="M135.29 103.02L120.316 117.993L126.995 124.672L141.968 109.699L135.29 103.02Z" fill="#272729"/>
<path d="M123.455 91.1825L113.664 100.973L120.343 107.652L130.134 97.8614L123.455 91.1825Z" fill="#272729"/>
<path d="M111.299 79.7437L96.6836 94.3591L103.319 100.995L117.935 86.3792L111.299 79.7437Z" fill="#272729"/>
<path d="M67.3137 159.497H69.7823V163.576H66.4703C64.8757 163.576 63.511 163.269 62.361 162.641C61.211 162.027 60.3217 161.123 59.693 159.957C59.0643 158.792 58.7577 157.412 58.7577 155.817V145.605H54.8477V144.762L62.4377 136.697H63.2043V141.787H69.6597V145.621H63.2503V155.465C63.2503 156.753 63.603 157.749 64.293 158.455C64.9983 159.16 65.995 159.497 67.3137 159.497Z" fill="#272729"/>
<path d="M92.1379 141.788H95.6032V163.576H91.9692L91.5246 160.908C89.4239 163.04 86.8019 164.098 83.6586 164.098C80.5153 164.098 77.6939 163.009 75.5319 160.832C73.3699 158.654 72.2812 155.925 72.2812 152.659C72.2812 149.393 73.3699 146.679 75.5319 144.502C77.6939 142.34 80.4079 141.251 83.6586 141.251C86.9093 141.251 89.5159 142.324 91.6013 144.486L92.1226 141.788H92.1379ZM78.8746 157.78C80.2392 159.145 81.9412 159.82 83.9959 159.82C86.0506 159.82 87.7526 159.145 89.0866 157.78C90.4206 156.416 91.0799 154.714 91.0799 152.659C91.0799 150.604 90.4206 148.902 89.0866 147.553C87.7526 146.204 86.0506 145.529 83.9806 145.529C82.6313 145.529 81.4199 145.836 80.3313 146.464C79.2426 147.078 78.3839 147.936 77.7706 149.025C77.1573 150.114 76.8353 151.325 76.8353 152.674C76.8353 154.714 77.5099 156.416 78.8746 157.78Z" fill="#272729"/>
<path d="M111.795 164.097C108.559 164.097 105.861 163.009 103.668 160.816C101.475 158.623 100.387 155.909 100.387 152.659C100.387 149.408 101.475 146.709 103.668 144.532C105.861 142.355 108.59 141.266 111.841 141.266C114.509 141.266 116.824 142.017 118.787 143.52C120.749 145.023 122.022 147.031 122.62 149.531H118.173C117.606 148.289 116.763 147.323 115.628 146.602C114.493 145.897 113.221 145.529 111.795 145.529C110.522 145.529 109.372 145.835 108.329 146.464C107.287 147.077 106.459 147.936 105.845 149.025C105.247 150.113 104.941 151.325 104.941 152.674C104.941 154.698 105.6 156.385 106.919 157.765C108.237 159.145 109.863 159.819 111.795 159.819C113.221 159.819 114.493 159.451 115.613 158.731C116.732 158.01 117.575 156.967 118.173 155.618H122.697C122.083 158.179 120.78 160.218 118.802 161.767C116.824 163.315 114.493 164.082 111.795 164.082V164.097Z" fill="#272729"/>
<path d="M136.775 159.497H139.243V163.576H135.931C134.337 163.576 132.972 163.269 131.822 162.641C130.672 162.027 129.783 161.123 129.154 159.957C128.525 158.792 128.219 157.412 128.219 155.817V145.605H124.309V144.762L131.899 136.697H132.665V141.787H139.121V145.621H132.711V155.465C132.711 156.753 133.064 157.749 133.754 158.455C134.459 159.16 135.456 159.497 136.775 159.497Z" fill="#272729"/>
<path d="M143.504 138.399V133.799H148.15V138.399H143.504ZM143.581 163.576V141.787H148.058V163.576H143.581Z" fill="#272729"/>
<path d="M164.252 164.097C161.016 164.097 158.318 163.009 156.125 160.816C153.932 158.623 152.844 155.909 152.844 152.659C152.844 149.408 153.932 146.709 156.125 144.532C158.318 142.355 161.047 141.266 164.298 141.266C166.966 141.266 169.281 142.017 171.244 143.52C173.206 145.023 174.479 147.031 175.077 149.531H170.63C170.063 148.289 169.22 147.323 168.085 146.602C166.95 145.897 165.678 145.529 164.252 145.529C162.979 145.529 161.829 145.835 160.786 146.464C159.744 147.077 158.916 147.936 158.302 149.025C157.704 150.113 157.398 151.325 157.398 152.674C157.398 154.698 158.057 156.385 159.376 157.765C160.694 159.145 162.32 159.819 164.252 159.819C165.678 159.819 166.95 159.451 168.07 158.731C169.189 158.01 170.032 156.967 170.63 155.618H175.154C174.54 158.179 173.237 160.218 171.259 161.767C169.281 163.315 166.95 164.082 164.252 164.082V164.097Z" fill="#272729"/>
<path d="M120.324 107.625L113.684 100.985L108.502 106.168L103.319 100.985L96.6797 107.625L101.862 112.807L96.6797 117.99L103.319 124.629L108.502 119.447L113.684 124.629L120.324 117.99L115.141 112.807L120.324 107.625Z" fill="#FF0000"/>
</g>
<path d="M182.086 194.672C196.94 194.672 208.981 182.631 208.981 167.777C208.981 152.924 196.94 140.882 182.086 140.882C167.233 140.882 155.191 152.924 155.191 167.777C155.191 182.631 167.233 194.672 182.086 194.672Z" fill="#272729"/>
<path d="M182.089 191.666C195.282 191.666 205.978 180.971 205.978 167.777C205.978 154.583 195.282 143.888 182.089 143.888C168.895 143.888 158.199 154.583 158.199 167.777C158.199 180.971 168.895 191.666 182.089 191.666Z" fill="#FFD300"/>
<path d="M198.094 160.755L189.093 151.769L182.086 158.777L175.063 151.769L166.062 160.755L173.085 167.777L166.062 174.8L175.063 183.785L182.086 176.778L189.093 183.785L198.094 174.8L191.087 167.777L198.094 160.755Z" fill="#FF0000"/>
<path d="M114.036 154.668C112.257 155.48 110.172 155.358 108.133 155.864C108.531 156.324 108.761 156.63 109.037 156.906C110.448 158.24 112.211 158.9 114.036 159.283C115.861 158.9 117.624 158.24 119.035 156.906C119.311 156.646 119.541 156.324 119.939 155.864C117.915 155.373 115.815 155.48 114.036 154.683V154.668Z" fill="#272729"/>
<path d="M93.3514 77.3569C93.9801 77.3569 94.6088 77.2802 95.2221 77.3569C98.2428 77.7862 100.466 78.2462 100.604 82.5089C100.665 84.0729 100.573 85.6522 100.604 87.2315C100.65 90.9729 102.291 93.2422 105.511 93.7175C106.783 93.9169 108.148 93.8095 109.436 93.6715C110.586 93.5489 111.429 93.8249 112.257 94.9135C111.491 94.9595 110.908 95.0362 110.341 95.0055C109.313 94.9442 109.191 95.4502 109.344 96.3089C109.773 98.7469 111.353 100.081 114.036 100.265C116.735 100.096 118.299 98.7469 118.728 96.3089C118.881 95.4655 118.759 94.9442 117.731 95.0055C117.164 95.0362 116.581 94.9595 115.815 94.9135C116.643 93.8249 117.501 93.5335 118.636 93.6715C119.939 93.8095 121.289 93.9169 122.561 93.7175C125.781 93.2422 127.422 90.9729 127.468 87.2315C127.483 85.6522 127.407 84.0729 127.468 82.5089C127.606 78.2462 129.829 77.7862 132.85 77.3569C133.448 77.2649 134.092 77.3569 134.721 77.3569C135.804 77.3569 136.423 76.7589 136.576 75.5629C133.417 75.2562 130.489 75.7929 128.127 78.0009C127.453 78.6295 127.008 79.7795 126.916 80.7302C126.686 83.0762 126.686 85.4529 126.655 87.8142C126.625 91.1569 124.417 93.1502 121.105 92.7362C119.694 92.5675 118.283 92.3835 116.857 92.2762C116.474 92.2455 116.091 92.4295 115.707 92.5215C115.677 92.5215 115.646 92.5522 115.615 92.5829C114.987 92.9355 114.465 93.2422 114.036 93.5182C113.607 93.2422 113.085 92.9509 112.457 92.5829C112.426 92.5522 112.395 92.5369 112.365 92.5215C111.981 92.4295 111.598 92.2455 111.215 92.2762C109.804 92.3989 108.378 92.5675 106.967 92.7362C103.671 93.1349 101.447 91.1569 101.417 87.8142C101.386 85.4529 101.386 83.0762 101.156 80.7302C101.064 79.7795 100.619 78.6449 99.9448 78.0009C97.5834 75.7929 94.6548 75.2409 91.4961 75.5629C91.6596 76.7691 92.2781 77.3671 93.3514 77.3569Z" fill="#272729"/>
<path d="M82.4594 97.7962C84.3761 98.3789 86.3848 98.7009 88.3014 99.2835C88.8688 99.4522 89.5894 100.05 89.8654 100.572C90.5248 101.829 90.9081 103.24 91.5214 104.512C92.3188 106.168 92.9168 108.116 94.8488 108.821C97.2408 109.71 99.7094 110.416 102.163 111.136C102.868 111.336 103.635 111.29 104.662 111.397C104.033 109.864 103.512 108.606 103.006 107.364C102.316 107.472 101.657 107.732 101.059 107.64C98.9428 107.303 96.8268 106.858 94.7261 106.429C94.2048 106.322 93.6988 106.046 92.9474 105.77C93.5608 105.494 93.8521 105.371 94.2661 105.187C93.5454 103.5 92.8401 101.844 92.1348 100.219C91.5368 98.8389 90.5401 97.9495 88.9608 97.8269C88.3014 97.7809 87.2434 97.7042 86.5841 97.5969C84.7134 97.2902 82.8274 97.0449 81.5088 95.3429C81.3554 95.1282 80.6194 95.1742 80.2974 95.3429C80.1134 95.4502 80.0521 96.2782 80.2361 96.4315C80.8954 96.9835 81.6161 97.5509 82.4134 97.7962H82.4594Z" fill="#272729"/>
<path d="M92.0589 123.204C90.6176 123.986 89.1303 124.706 87.8423 125.688C84.3156 128.402 81.8929 132.097 78.9336 135.9C79.6083 135.9 80.0529 135.992 80.4209 135.884C80.9576 135.716 81.4329 135.286 81.9696 135.164C83.3956 134.842 84.4843 134.244 84.6836 132.618C84.7143 132.419 84.8829 132.235 84.9903 132.036C86.3243 129.904 88.3176 128.816 90.7249 128.356C91.0009 128.31 91.4149 128.141 91.4916 127.926C92.0283 126.408 92.4883 124.875 93.0403 123.173C92.8256 123.173 92.3503 123.035 92.0589 123.204Z" fill="#272729"/>
<path d="M81.7417 135.715C81.3583 135.991 80.9903 136.267 80.7603 136.436C81.2817 137.601 81.895 138.429 82.0023 139.334C82.447 142.891 82.7383 146.464 81.9103 150.037C81.4197 152.137 81.1283 154.269 80.6377 156.369C80.4537 157.136 80.1317 158.025 79.5643 158.531C78.675 159.313 77.9543 160.08 77.8317 161.307C77.801 161.598 77.5557 161.889 77.4023 162.165C77.4637 162.273 77.525 162.395 77.571 162.503C77.847 162.334 78.169 162.227 78.3683 161.997C79.227 161.015 80.0857 160.019 80.883 158.976C81.1743 158.608 81.4657 158.102 81.4503 157.657C81.3583 154.943 81.9257 152.337 82.769 149.791C84.195 145.513 84.5477 141.143 83.9803 136.681C83.781 135.087 82.999 134.749 81.6957 135.7L81.7417 135.715Z" fill="#272729"/>
<path d="M156.691 121.486C156.43 121.44 156.17 121.364 155.909 121.364C155.51 121.364 155.096 121.333 154.698 121.425C150.512 122.268 147.399 120.352 144.67 117.484C144.056 116.856 143.428 116.227 142.876 115.537C142.492 115.046 142.186 114.924 141.588 115.246C141.312 115.384 140.76 115.307 140.499 115.108C139.886 114.663 139.395 114.034 138.797 113.559C137.402 112.486 135.761 112.026 134.044 112.164C130.41 112.455 126.76 112.869 123.157 113.344C121.792 113.528 120.627 114.188 119.646 115.338C118.174 117.055 116.18 117.73 114.034 117.76C111.887 117.73 109.894 117.055 108.422 115.338C107.425 114.172 106.275 113.528 104.91 113.344C101.292 112.854 97.6576 112.455 94.0236 112.164C92.3216 112.026 90.6656 112.486 89.2703 113.559C88.6723 114.019 88.1816 114.648 87.5683 115.108C87.3076 115.307 86.7403 115.384 86.4796 115.246C85.8816 114.939 85.575 115.046 85.1916 115.537C84.6396 116.227 84.0109 116.856 83.3976 117.484C80.6683 120.352 77.5556 122.253 73.3696 121.425C72.9709 121.348 72.5723 121.364 72.1583 121.364C71.8976 121.364 71.6369 121.44 71.3763 121.486C71.3303 121.624 71.2843 121.747 71.2383 121.885C71.7903 122.192 72.2963 122.636 72.8943 122.79C73.7376 123.02 74.627 123.066 75.501 123.127C78.4603 123.357 81.0516 122.468 83.2903 120.536C84.9923 119.064 86.6483 117.546 88.3963 116.12C88.795 115.782 89.5616 115.537 90.0829 115.583C91.7543 115.721 93.3949 116.058 95.0663 116.258C96.3236 116.396 97.581 116.457 99.1296 116.549C98.3783 117.27 97.7649 117.73 97.3049 118.312C96.7069 119.064 96.0169 119.846 95.7103 120.735C95.1889 122.207 95.8483 122.882 97.4123 122.498C98.8076 122.161 100.126 122.391 101.384 122.851C102.702 123.342 103.914 124.124 105.232 124.66C107.686 125.657 110.17 126.163 112.73 125.795C113.604 125.672 114.509 125.672 115.383 125.795C117.928 126.163 120.428 125.657 122.881 124.66C124.2 124.124 125.411 123.342 126.73 122.851C127.987 122.391 129.306 122.161 130.701 122.498C132.25 122.882 132.924 122.192 132.403 120.735C132.096 119.846 131.406 119.064 130.808 118.312C130.348 117.73 129.75 117.27 128.984 116.549C130.532 116.442 131.79 116.396 133.047 116.258C134.718 116.058 136.359 115.736 138.03 115.583C138.552 115.537 139.303 115.782 139.717 116.12C141.45 117.546 143.106 119.064 144.823 120.536C147.062 122.468 149.653 123.357 152.612 123.127C153.486 123.066 154.376 123.02 155.219 122.79C155.817 122.636 156.323 122.192 156.875 121.885C156.829 121.747 156.783 121.624 156.737 121.486H156.691Z" fill="#272729"/>
<path d="M130.548 123.265C128.723 123.219 126.96 123.694 125.288 124.568C122.406 126.071 119.385 127.159 116.058 126.929C115.368 126.883 114.693 126.776 114.018 126.638C113.344 126.776 112.669 126.883 111.979 126.929C108.667 127.144 105.631 126.055 102.748 124.568C101.077 123.694 99.3137 123.219 97.4891 123.265C96.0631 123.295 94.5144 123.464 93.5024 124.706C92.4137 126.025 92.2604 127.635 92.3371 129.275C92.3831 130.333 92.6897 130.609 93.7324 130.594C96.3237 130.548 98.9304 130.379 101.46 131.192C103.929 131.989 106.398 132.771 108.866 133.553C110.599 134.105 112.316 134.136 114.003 133.768C115.69 134.151 117.407 134.105 119.14 133.553C121.608 132.771 124.077 131.989 126.546 131.192C129.076 130.379 131.682 130.533 134.274 130.594C135.316 130.625 135.623 130.333 135.669 129.275C135.761 127.619 135.592 126.025 134.504 124.706C133.492 123.464 131.943 123.295 130.517 123.265H130.548Z" fill="#272729"/>
<path d="M134.396 132.097C130.64 132.097 126.929 132.266 123.372 133.615C122.068 134.106 120.826 134.734 119.492 135.072C118.465 135.332 117.33 135.332 116.257 135.256C115.521 135.194 114.77 135.118 114.034 135.01C113.298 135.118 112.546 135.194 111.81 135.256C110.737 135.332 109.602 135.332 108.575 135.072C107.241 134.734 105.984 134.09 104.696 133.615C101.138 132.266 97.4278 132.097 93.6712 132.097C92.6745 132.097 92.3525 132.496 92.3525 133.37C92.3525 134.428 92.3065 135.486 92.3678 136.528C92.4905 138.966 93.0578 139.472 95.4652 139.595C96.8912 139.672 98.3938 139.58 99.7125 140.04C104.006 141.527 108.406 141.91 112.899 141.696C113.282 141.68 113.666 141.634 114.034 141.604C114.417 141.634 114.785 141.68 115.168 141.696C119.661 141.926 124.062 141.527 128.355 140.04C129.674 139.58 131.177 139.672 132.603 139.595C135.01 139.472 135.577 138.966 135.7 136.528C135.761 135.486 135.7 134.428 135.715 133.37C135.715 132.48 135.393 132.097 134.396 132.097Z" fill="#272729"/>
<path d="M133.003 140.791C131.899 140.745 130.78 140.898 129.707 141.128C125.137 142.11 120.583 143.03 115.891 142.892C115.263 142.876 114.649 142.815 114.036 142.738C113.423 142.815 112.809 142.876 112.181 142.892C107.489 143.03 102.919 142.11 98.3652 141.128C97.2765 140.898 96.1725 140.745 95.0685 140.791C94.4859 140.822 93.9492 141.021 93.9339 141.91C93.9032 144.348 96.5559 147.982 98.9479 148.412C102.919 149.102 106.906 149.684 110.954 149.148C111.981 149.01 113.024 148.887 114.051 148.764C115.094 148.887 116.121 149.01 117.149 149.148C121.197 149.7 125.183 149.102 129.155 148.412C131.547 147.982 134.199 144.333 134.169 141.91C134.169 141.021 133.617 140.822 133.034 140.791H133.003Z" fill="#272729"/>
<path d="M127.02 149.285C124.843 149.515 122.681 150.052 120.504 150.052C118.342 150.052 116.18 149.653 114.033 149.362C111.886 149.653 109.709 150.067 107.562 150.052C105.385 150.052 103.223 149.515 101.046 149.285C100.632 149.239 100.049 149.377 99.8191 149.653C99.6351 149.868 99.7731 150.573 100.018 150.819C101.184 151.969 102.349 153.149 103.668 154.1C104.327 154.56 105.339 154.775 106.167 154.698C108.666 154.499 111.166 154.115 113.665 153.793C113.803 153.778 113.926 153.747 114.064 153.732C114.202 153.747 114.324 153.778 114.462 153.793C116.962 154.115 119.446 154.499 121.96 154.698C122.788 154.759 123.8 154.56 124.46 154.1C125.778 153.149 126.944 151.969 128.109 150.819C128.354 150.573 128.477 149.868 128.308 149.653C128.078 149.377 127.496 149.239 127.082 149.285H127.02Z" fill="#272729"/>
<path d="M123.128 109.388C125.75 105.938 124.554 102.396 120.92 100.495C120.629 100.342 120.353 100.158 120.062 99.9891C119.004 99.3911 118.114 99.1304 116.918 100.02C116.136 100.587 115.063 100.848 114.02 101.032C112.978 100.848 111.904 100.587 111.122 100.02C109.911 99.1304 109.037 99.3911 107.979 99.9891C107.688 100.158 107.427 100.342 107.12 100.495C103.486 102.396 102.29 105.938 104.912 109.388C106.17 111.029 107.626 112.102 109.85 111.688C110.954 111.474 112.088 111.366 113.208 111.198C113.514 111.152 113.775 111.106 114.02 111.06C114.266 111.106 114.526 111.152 114.833 111.198C115.952 111.366 117.087 111.474 118.191 111.688C120.399 112.102 121.871 111.029 123.128 109.388Z" fill="#272729"/>
<path d="M133.767 105.171C134.181 105.355 134.472 105.478 135.086 105.754C134.334 106.045 133.844 106.306 133.307 106.413C131.206 106.858 129.09 107.287 126.974 107.625C126.361 107.717 125.702 107.456 125.027 107.349C124.521 108.591 124 109.848 123.371 111.381C124.398 111.289 125.18 111.335 125.87 111.121C128.324 110.4 130.792 109.695 133.184 108.805C135.116 108.085 135.714 106.153 136.512 104.497C137.125 103.209 137.508 101.813 138.168 100.556C138.444 100.019 139.164 99.4367 139.732 99.268C141.648 98.6853 143.657 98.3633 145.574 97.7807C146.371 97.5353 147.092 96.968 147.751 96.416C147.935 96.2627 147.874 95.4347 147.69 95.3273C147.383 95.1433 146.647 95.1127 146.478 95.3273C145.175 97.0293 143.289 97.2747 141.403 97.5813C140.759 97.6887 139.686 97.7653 139.026 97.8113C137.462 97.934 136.466 98.8233 135.852 100.203C135.147 101.844 134.442 103.485 133.721 105.171H133.767Z" fill="#272729"/>
<path d="M146.067 135.164C146.603 135.286 147.079 135.716 147.615 135.884C147.983 136.007 148.428 135.9 149.103 135.9C146.143 132.112 143.721 128.402 140.194 125.688C138.906 124.706 137.419 123.97 135.977 123.204C135.671 123.035 135.211 123.173 134.996 123.173C135.548 124.875 136.008 126.424 136.545 127.926C136.621 128.141 137.02 128.31 137.311 128.356C139.719 128.8 141.712 129.904 143.046 132.036C143.169 132.22 143.337 132.404 143.353 132.618C143.552 134.228 144.625 134.842 146.067 135.164Z" fill="#272729"/>
<path d="M148.47 158.531C147.903 158.041 147.581 157.151 147.397 156.369C146.906 154.269 146.615 152.137 146.124 150.037C145.296 146.464 145.587 142.891 146.032 139.334C146.139 138.445 146.768 137.601 147.274 136.436C147.044 136.267 146.676 135.991 146.293 135.715C144.989 134.78 144.207 135.102 144.008 136.697C143.441 141.159 143.793 145.529 145.219 149.807C146.063 152.352 146.645 154.943 146.538 157.673C146.538 158.102 146.829 158.623 147.105 158.991C147.903 160.034 148.761 161.015 149.62 162.012C149.819 162.242 150.157 162.349 150.417 162.518C150.479 162.411 150.54 162.288 150.586 162.181C150.433 161.889 150.187 161.613 150.157 161.322C150.049 160.08 149.313 159.329 148.424 158.547L148.47 158.531Z" fill="#272729"/>
<path d="M119.386 113.145C119.294 113.375 119.233 113.636 119.126 113.866C119.064 114.004 119.003 114.142 118.926 114.264C117.669 115.951 115.89 116.38 114.035 116.549C112.164 116.365 110.386 115.951 109.144 114.264C109.052 114.142 108.99 114.004 108.944 113.866C108.852 113.636 108.776 113.375 108.684 113.145C109.067 113.053 109.435 112.946 109.818 112.884C110.002 112.854 110.186 112.9 110.37 112.93C110.37 112.946 110.37 112.992 110.37 113.007C111.597 112.823 112.824 112.67 114.05 112.455H114.066C115.277 112.654 116.504 112.823 117.73 113.007C117.73 112.992 117.73 112.946 117.746 112.93C117.93 112.915 118.114 112.869 118.298 112.884C118.666 112.946 119.049 113.053 119.417 113.145H119.386Z" fill="#272729"/>
<path d="M118.925 156.14C118.925 156.14 118.311 156.86 118.051 157.106C116.977 158.118 115.797 158.746 114.141 158.777C114.585 157.75 115.751 156.569 116.625 156.354C117.499 156.14 118.925 156.14 118.925 156.14Z" fill="white"/>
<path d="M129.919 121.747C130.502 121.808 131.299 121.854 131.468 121.548C131.637 121.241 131.361 120.413 131.054 119.892C130.594 119.14 129.812 118.527 129.03 117.929C128.631 117.622 128.233 117.3 127.328 117.147C128.8 118.358 130.119 119.938 129.935 121.732L129.919 121.747Z" fill="white"/>
<path d="M130.609 124.231C131.621 125.964 132.204 127.865 132.388 129.797C132.465 129.797 132.541 129.797 132.618 129.797C133.415 129.812 133.645 129.598 133.691 128.785C133.753 127.512 133.63 126.286 132.802 125.274C132.219 124.568 131.422 124.308 130.609 124.216V124.231Z" fill="white"/>
<path d="M131.882 139.242C133.83 139.104 134.29 138.598 134.397 136.513C134.443 135.578 134.397 134.627 134.397 133.676C134.397 132.879 134.106 132.526 133.216 132.526H132.94C132.986 134.796 132.603 137.08 131.852 139.242H131.882Z" fill="white"/>
<path d="M126.379 148.228C126.992 148.136 127.606 148.028 128.219 147.921C130.258 147.553 132.512 144.456 132.482 142.386C132.482 141.634 132.006 141.466 131.516 141.435C131.347 141.435 131.194 141.435 131.025 141.435C130.151 143.551 128.909 145.514 127.36 147.154C127.038 147.507 126.716 147.86 126.379 148.212V148.228Z" fill="white"/>
<path d="M120.672 154.024C121.025 154.054 121.377 154.1 121.715 154.131C122.374 154.177 123.187 154.024 123.708 153.656C124.766 152.889 125.686 151.954 126.621 151.034C126.821 150.834 126.913 150.267 126.775 150.098C126.591 149.868 126.131 149.761 125.793 149.807C125.64 149.822 125.471 149.853 125.318 149.868C123.892 151.402 122.374 152.904 120.672 154.039V154.024Z" fill="white"/>
<path d="M121.947 108.744C121.227 109.68 120.429 110.385 119.387 110.584C120.153 109.526 120.751 108.33 121.104 106.966C121.549 105.064 121.211 103.24 120.337 101.706C123.128 103.255 124.017 106.03 121.947 108.744Z" fill="white"/>
</svg>
