<svg width="230" height="230" viewBox="0 0 230 230" fill="none" xmlns="http://www.w3.org/2000/svg">
<path d="M230 115C230 178.511 178.511 230 115 230C108.361 230 101.859 229.433 95.5267 228.359C51.8727 220.923 16.6213 188.876 4.508 147.001C1.57933 136.85 0 126.101 0 115C0 51.4893 51.4893 0 115 0C178.511 0 230 51.4893 230 115Z" fill="white"/>
<path d="M205.818 115C205.818 127.267 203.411 139.15 198.673 150.343C194.104 161.153 187.556 170.875 179.215 179.216C170.874 187.557 161.152 194.105 150.342 198.674C139.149 203.412 127.25 205.804 114.999 205.804C102.748 205.804 90.849 203.397 79.6557 198.674C68.8457 194.105 59.1244 187.557 50.783 179.216C42.4417 170.875 35.8944 161.153 31.325 150.343C26.587 139.15 24.1797 127.251 24.1797 115C24.1797 102.749 26.587 90.85 31.325 79.6413C35.8944 68.8313 42.4417 59.11 50.783 50.7687C59.1244 42.4273 68.8304 35.88 79.6557 31.3107C90.849 26.5727 102.732 24.1807 114.999 24.1807C127.266 24.1807 139.149 26.5727 150.342 31.3107C161.152 35.88 170.874 42.4273 179.215 50.7687C187.556 59.11 194.104 68.816 198.673 79.6413C203.411 90.8347 205.818 102.733 205.818 115Z" fill="#FFD300"/>
<path d="M115 24.1806C127.266 24.1806 139.15 26.588 150.343 31.3106C161.153 35.88 170.874 42.4273 179.216 50.7686C187.557 59.11 194.104 68.8159 198.674 79.6413C203.412 90.8346 205.804 102.733 205.804 114.985C205.804 127.236 203.396 139.135 198.674 150.328C194.104 161.138 187.557 170.859 179.216 179.201C170.874 187.542 161.168 194.089 150.343 198.659C139.15 203.397 127.251 205.789 115 205.789C102.748 205.789 90.8495 203.381 79.6562 198.659C68.8462 194.089 59.1248 187.542 50.7835 179.201C42.4422 170.859 35.8948 161.153 31.3255 150.328C26.5875 139.135 24.1955 127.236 24.1955 114.985C24.1955 102.733 26.6028 90.8346 31.3255 79.6413C35.8948 68.8313 42.4422 59.11 50.7835 50.7686C59.1248 42.4273 68.8308 35.88 79.6562 31.3106C90.8495 26.5726 102.748 24.1806 115 24.1806ZM115 20.7C62.9275 20.7 20.7148 62.9126 20.7148 114.985C20.7148 167.057 62.9275 209.269 115 209.269C167.072 209.269 209.3 167.057 209.3 114.985C209.3 62.9126 167.072 20.7153 115 20.7153V20.7Z" fill="#272729"/>
<g opacity="0.1">
<path d="M71.8971 79.8866H49.9551V124.829H71.8971C82.0477 124.829 89.2544 117.438 89.2544 107.027V97.6886C89.2544 87.2926 82.1091 79.8866 71.8971 79.8866ZM78.2757 106.643C78.2757 111.857 75.6384 114.54 70.5631 114.54H60.7804V90.0986H70.5631C75.6384 90.0986 78.2757 92.7973 78.2757 98.0566V106.643Z" fill="#272729"/>
<path d="M180.029 88.0593L159.728 114.509H179.922V124.675H145.621V116.273L165.861 89.8226H146.878V79.7333H180.029V88.0593Z" fill="#272729"/>
<path d="M135.29 103.02L120.316 117.993L126.995 124.672L141.968 109.699L135.29 103.02Z" fill="#272729"/>
<path d="M123.455 91.1825L113.664 100.973L120.343 107.652L130.134 97.8614L123.455 91.1825Z" fill="#272729"/>
<path d="M111.297 79.7437L96.6816 94.3591L103.317 100.995L117.933 86.3792L111.297 79.7437Z" fill="#272729"/>
<path d="M67.3137 159.497H69.7823V163.576H66.4703C64.8757 163.576 63.511 163.269 62.361 162.641C61.211 162.027 60.3217 161.123 59.693 159.957C59.0643 158.792 58.7577 157.412 58.7577 155.817V145.605H54.8477V144.762L62.4377 136.697H63.2043V141.787H69.6597V145.621H63.2503V155.465C63.2503 156.753 63.603 157.749 64.293 158.455C64.9983 159.16 65.995 159.497 67.3137 159.497Z" fill="#272729"/>
<path d="M92.1379 141.787H95.6032V163.576H91.9692L91.5246 160.908C89.4239 163.039 86.8019 164.097 83.6586 164.097C80.5153 164.097 77.6939 163.008 75.5319 160.831C73.3699 158.654 72.2812 155.924 72.2812 152.658C72.2812 149.392 73.3699 146.678 75.5319 144.501C77.6939 142.339 80.4079 141.25 83.6586 141.25C86.9093 141.25 89.5159 142.324 91.6013 144.486L92.1226 141.787H92.1379ZM78.8746 157.78C80.2392 159.144 81.9412 159.819 83.9959 159.819C86.0506 159.819 87.7526 159.144 89.0866 157.78C90.4206 156.415 91.0799 154.713 91.0799 152.658C91.0799 150.604 90.4206 148.902 89.0866 147.552C87.7526 146.203 86.0506 145.528 83.9806 145.528C82.6313 145.528 81.4199 145.835 80.3313 146.464C79.2426 147.077 78.3839 147.936 77.7706 149.024C77.1573 150.113 76.8353 151.324 76.8353 152.674C76.8353 154.713 77.5099 156.415 78.8746 157.78Z" fill="#272729"/>
<path d="M111.797 164.097C108.561 164.097 105.863 163.009 103.67 160.816C101.477 158.623 100.389 155.909 100.389 152.659C100.389 149.408 101.477 146.709 103.67 144.532C105.863 142.355 108.592 141.266 111.843 141.266C114.511 141.266 116.826 142.017 118.789 143.52C120.751 145.023 122.024 147.031 122.622 149.531H118.175C117.608 148.289 116.765 147.323 115.63 146.602C114.495 145.897 113.223 145.529 111.797 145.529C110.524 145.529 109.374 145.835 108.331 146.464C107.289 147.077 106.461 147.936 105.847 149.025C105.249 150.113 104.943 151.325 104.943 152.674C104.943 154.698 105.602 156.385 106.921 157.765C108.239 159.145 109.865 159.819 111.797 159.819C113.223 159.819 114.495 159.451 115.615 158.731C116.734 158.01 117.577 156.967 118.175 155.618H122.699C122.085 158.179 120.782 160.218 118.804 161.767C116.826 163.315 114.495 164.082 111.797 164.082V164.097Z" fill="#272729"/>
<path d="M136.775 159.497H139.243V163.576H135.931C134.337 163.576 132.972 163.269 131.822 162.641C130.672 162.027 129.783 161.123 129.154 159.957C128.525 158.792 128.219 157.412 128.219 155.817V145.605H124.309V144.762L131.899 136.697H132.665V141.787H139.121V145.621H132.711V155.465C132.711 156.753 133.064 157.749 133.754 158.455C134.459 159.16 135.456 159.497 136.775 159.497Z" fill="#272729"/>
<path d="M143.506 138.399V133.799H148.152V138.399H143.506ZM143.583 163.576V141.787H148.06V163.576H143.583Z" fill="#272729"/>
<path d="M164.252 164.097C161.016 164.097 158.318 163.009 156.125 160.816C153.932 158.623 152.844 155.909 152.844 152.659C152.844 149.408 153.932 146.709 156.125 144.532C158.318 142.355 161.047 141.266 164.298 141.266C166.966 141.266 169.281 142.017 171.244 143.52C173.206 145.023 174.479 147.031 175.077 149.531H170.63C170.063 148.289 169.22 147.323 168.085 146.602C166.95 145.897 165.678 145.529 164.252 145.529C162.979 145.529 161.829 145.835 160.786 146.464C159.744 147.077 158.916 147.936 158.302 149.025C157.704 150.113 157.398 151.325 157.398 152.674C157.398 154.698 158.057 156.385 159.376 157.765C160.694 159.145 162.32 159.819 164.252 159.819C165.678 159.819 166.95 159.451 168.07 158.731C169.189 158.01 170.032 156.967 170.63 155.618H175.154C174.54 158.179 173.237 160.218 171.259 161.767C169.281 163.315 166.95 164.082 164.252 164.082V164.097Z" fill="#272729"/>
<path d="M120.32 107.625L113.68 100.985L108.498 106.168L103.315 100.985L96.6758 107.625L101.858 112.807L96.6758 117.99L103.315 124.629L108.498 119.447L113.68 124.629L120.32 117.99L115.137 112.807L120.32 107.625Z" fill="#FF0000"/>
</g>
<path d="M123.082 75.9306C123.082 80.4232 119.463 84.0726 115.001 84.0726C110.539 84.0726 106.921 80.4232 106.921 75.9306C106.921 71.4379 110.539 67.7886 115.001 67.7886C119.463 67.7886 123.082 71.4379 123.082 75.9306ZM143.46 115.92C143.46 120.014 142.586 124.062 140.884 127.788C139.182 131.514 136.683 134.811 133.57 137.479C128.663 141.68 122.3 144.225 115.354 144.225C99.8367 144.225 87.248 131.545 87.248 115.92C87.248 100.295 99.8367 87.6146 115.354 87.6146C130.871 87.6146 143.46 100.28 143.46 115.92Z" fill="#272729"/>
<path d="M113.237 82.6466H116.749V88.3046H113.237V82.6466ZM123.081 157.305C123.081 161.797 119.463 165.447 115.001 165.447C110.539 165.447 106.92 161.797 106.92 157.305C106.92 152.812 110.539 149.163 115.001 149.163C119.463 149.163 123.081 152.812 123.081 157.305ZM78.8141 145.268C78.8141 149.761 82.4327 153.41 86.8947 153.41C91.3567 153.41 94.9754 149.761 94.9754 145.268C94.9754 140.775 91.3567 137.126 86.8947 137.126C82.4327 137.126 78.8141 140.775 78.8141 145.268ZM151.172 145.268C151.172 149.761 147.553 153.41 143.091 153.41C138.629 153.41 135.011 149.761 135.011 145.268C135.011 143.811 135.394 142.385 136.13 141.128C136.866 139.871 137.924 138.843 139.197 138.138C140.393 137.479 141.727 137.126 143.091 137.126C147.553 137.126 151.172 140.775 151.172 145.268ZM66.1641 116.257C66.1641 120.75 69.7827 124.399 74.2447 124.399C78.7067 124.399 82.3254 120.75 82.3254 116.257C82.3254 111.765 78.7067 108.115 74.2447 108.115C69.7827 108.115 66.1641 111.765 66.1641 116.257ZM163.822 116.257C163.822 120.75 160.203 124.399 155.741 124.399C151.279 124.399 147.661 120.75 147.661 116.257C147.661 111.765 151.279 108.115 155.741 108.115C160.203 108.115 163.822 111.765 163.822 116.257ZM78.8141 87.9519C78.8141 92.4446 82.4327 96.0939 86.8947 96.0939C91.3567 96.0939 94.9754 92.4446 94.9754 87.9519C94.9754 83.4593 91.3567 79.8099 86.8947 79.8099C82.4327 79.8099 78.8141 83.4593 78.8141 87.9519ZM151.172 87.9519C151.172 92.4446 147.553 96.0939 143.091 96.0939C138.629 96.0939 135.011 92.4446 135.011 87.9519C135.011 83.4593 138.629 79.8099 143.091 79.8099C147.553 79.8099 151.172 83.4593 151.172 87.9519Z" fill="#272729"/>
<path d="M90.6198 93.6407L93.1038 91.1414L97.0751 95.1434L94.5911 97.6427L90.6198 93.6407ZM139.364 138.307L136.88 140.806L133.553 137.463L132.909 136.804L135.393 134.305L136.083 135.01L139.196 138.153L139.364 138.322V138.307ZM81.6191 117.453V113.911H87.2465V117.453H81.6191ZM148.365 114.494V118.036H142.738V114.494H148.365ZM92.9045 140.101L89.6845 138.675L94.3918 133.599L96.8758 136.099L92.9045 140.101ZM137.095 91.8467L139.579 94.346L135.608 98.348L133.124 95.8487L137.095 91.8467ZM116.763 150.021H113.252V143.643H116.763V150.021Z" fill="#272729"/>
<path d="M148.243 91.0185C146.465 89.4851 144.609 90.4971 143.199 88.0744C141.803 85.6518 143.567 84.4098 143.168 82.2478C144.548 81.4505 146.802 82.7691 148.213 85.1918C149.608 87.6145 149.623 90.2211 148.243 91.0185ZM159.483 121.317C158.762 118.787 156.585 119.048 156.585 116.257C156.585 113.466 158.026 113.006 159.483 111.197C161.077 111.197 162.381 113.466 162.381 116.257C162.381 119.048 161.093 121.317 159.483 121.317ZM142.003 151.508C142.846 148.81 141.558 147.859 143.536 145.881C145.514 143.903 146.465 145.559 149.163 144.348C150.298 145.482 149.608 147.997 147.63 149.975C145.652 151.953 143.137 152.643 142.003 151.508ZM110.293 161.107C111.735 160.018 112.563 158.209 115.353 158.209C118.144 158.209 118.604 159.65 120.413 161.107C120.413 162.702 118.144 164.005 115.353 164.005C112.563 164.005 110.293 162.717 110.293 161.107ZM81.2368 144.348C83.1688 145.559 84.8861 143.903 86.8641 145.881C88.8421 147.859 87.5081 149.53 88.3975 151.508C87.2628 152.643 84.7481 151.953 82.7701 149.975C80.7921 147.997 80.1021 145.482 81.2368 144.348ZM70.5035 111.197C71.2241 113.006 73.4015 113.466 73.4015 116.257C73.4015 119.048 70.8715 119.508 70.5035 121.317C68.9088 121.317 67.6055 119.048 67.6055 116.257C67.6055 113.466 68.8935 111.197 70.5035 111.197ZM87.6615 82.1405C87.6615 83.6738 88.1061 85.7898 86.1281 87.7678C84.1501 89.7458 82.4328 88.4118 80.5008 89.3011C79.3661 88.1665 80.0561 85.6518 82.0341 83.6738C84.0121 81.6958 86.5268 81.0058 87.6615 82.1405ZM120.413 72.1431C118.236 72.5111 118.144 75.0411 115.353 75.0411C112.563 75.0411 112.823 72.5111 110.293 72.1431C110.293 70.5484 112.563 69.2451 115.353 69.2451C118.144 69.2451 120.413 70.5331 120.413 72.1431ZM95.3741 107.287C95.0061 108.376 95.0061 109.096 95.3741 110.538C95.7421 111.979 97.1835 112.347 97.1835 112.347C97.1835 112.347 96.8155 109.449 97.1835 108.728C97.5515 108.008 97.9041 107.103 99.7135 106.827C101.523 106.551 102.243 107.272 103.332 108.008C104.421 108.744 105.862 111.258 105.862 111.258C105.862 111.258 106.583 108.667 106.23 107.226C105.862 105.784 103.332 103.668 101.523 103.668C99.7135 103.668 98.2721 104.036 97.1835 104.757C96.0948 105.478 95.7421 106.198 95.3741 107.287ZM117.071 113.068C117.439 116.686 118.88 117.407 119.969 118.496C121.057 119.584 124.676 121.026 124.676 121.026C124.676 121.026 123.327 118.419 122.238 116.978C121.149 115.536 119.616 113.712 120.705 111.197C121.793 108.682 123.419 107.394 125.857 106.858C128.295 106.321 129.828 106.49 131.285 108.299C132.726 110.108 135.9 112.7 135.9 112.7L134.811 107.992C134.811 107.992 133.37 103.653 129.031 102.212C124.691 100.77 121.073 103.3 119.631 105.11C118.19 106.919 116.733 109.449 117.101 113.068H117.071ZM96.8155 123.924C96.8155 125.012 98.2568 126.822 98.2568 126.822V124.292C98.2568 123.571 98.6248 123.203 98.9775 122.85C99.3301 122.498 100.787 122.482 101.507 122.85C102.228 123.218 104.037 124.66 104.037 124.66C104.037 124.66 103.669 123.218 103.317 122.13C102.964 121.041 101.507 120.688 100.419 120.688C99.3301 120.688 98.9775 121.056 98.2415 121.409C97.5055 121.762 96.8001 122.85 96.8001 123.939L96.8155 123.924Z" fill="white"/>
<path d="M182.084 194.672C196.938 194.672 208.979 182.631 208.979 167.777C208.979 152.924 196.938 140.883 182.084 140.883C167.231 140.883 155.189 152.924 155.189 167.777C155.189 182.631 167.231 194.672 182.084 194.672Z" fill="#272729"/>
<path d="M182.085 191.667C195.278 191.667 205.974 180.971 205.974 167.777C205.974 154.584 195.278 143.888 182.085 143.888C168.891 143.888 158.195 154.584 158.195 167.777C158.195 180.971 168.891 191.667 182.085 191.667Z" fill="#FFD300"/>
<path d="M198.092 160.755L189.091 151.769L182.084 158.777L175.061 151.769L166.061 160.755L173.083 167.777L166.061 174.8L175.061 183.785L182.084 176.778L189.091 183.785L198.092 174.8L191.085 167.777L198.092 160.755Z" fill="#FF0000"/>
</svg>
