<svg width="230" height="230" viewBox="0 0 230 230" fill="none" xmlns="http://www.w3.org/2000/svg">
<path d="M230 115C230 178.511 178.511 230 115 230C108.361 230 101.859 229.433 95.5267 228.359C51.8727 220.923 16.6213 188.876 4.508 147.001C1.57933 136.85 0 126.101 0 115C0 51.4893 51.4893 0 115 0C178.511 0 230 51.4893 230 115Z" fill="white"/>
<path d="M205.818 115C205.818 127.267 203.411 139.15 198.673 150.343C194.104 161.153 187.556 170.875 179.215 179.216C170.874 187.557 161.152 194.105 150.342 198.674C139.149 203.412 127.25 205.804 114.999 205.804C102.748 205.804 90.849 203.397 79.6557 198.674C68.8457 194.105 59.1244 187.557 50.783 179.216C42.4417 170.875 35.8944 161.153 31.325 150.343C26.587 139.15 24.1797 127.251 24.1797 115C24.1797 102.749 26.587 90.85 31.325 79.6413C35.8944 68.8313 42.4417 59.11 50.783 50.7687C59.1244 42.4273 68.8304 35.88 79.6557 31.3107C90.849 26.5727 102.732 24.1807 114.999 24.1807C127.266 24.1807 139.149 26.5727 150.342 31.3107C161.152 35.88 170.874 42.4273 179.215 50.7687C187.556 59.11 194.104 68.816 198.673 79.6413C203.411 90.8347 205.818 102.733 205.818 115Z" fill="#FFD300"/>
<path d="M115 24.1807C127.266 24.1807 139.15 26.5881 150.343 31.3107C161.153 35.8801 170.874 42.4274 179.216 50.7687C187.557 59.1101 194.104 68.8161 198.674 79.6414C203.412 90.8347 205.804 102.733 205.804 114.985C205.804 127.236 203.396 139.135 198.674 150.328C194.104 161.138 187.557 170.859 179.216 179.201C170.874 187.542 161.168 194.089 150.343 198.659C139.15 203.397 127.251 205.789 115 205.789C102.748 205.789 90.8495 203.381 79.6562 198.659C68.8462 194.089 59.1248 187.542 50.7835 179.201C42.4422 170.859 35.8948 161.153 31.3255 150.328C26.5875 139.135 24.1955 127.236 24.1955 114.985C24.1955 102.733 26.6028 90.8347 31.3255 79.6414C35.8948 68.8314 42.4422 59.1101 50.7835 50.7687C59.1248 42.4274 68.8308 35.8801 79.6562 31.3107C90.8495 26.5727 102.748 24.1807 115 24.1807ZM115 20.7001C62.9275 20.7001 20.7148 62.9127 20.7148 114.985C20.7148 167.057 62.9275 209.269 115 209.269C167.072 209.269 209.3 167.057 209.3 114.985C209.3 62.9127 167.072 20.7154 115 20.7154V20.7001Z" fill="#272729"/>
<g opacity="0.1">
<path d="M71.8971 79.8868H49.9551V124.829H71.8971C82.0477 124.829 89.2544 117.438 89.2544 107.027V97.6888C89.2544 87.2928 82.1091 79.8868 71.8971 79.8868ZM78.2757 106.644C78.2757 111.857 75.6384 114.54 70.5631 114.54H60.7804V90.0988H70.5631C75.6384 90.0988 78.2757 92.7975 78.2757 98.0568V106.644Z" fill="#272729"/>
<path d="M180.027 88.0594L159.726 114.509H179.92V124.675H145.619V116.273L165.859 89.8227H146.876V79.7334H180.027V88.0594Z" fill="#272729"/>
<path d="M135.29 103.02L120.316 117.993L126.995 124.672L141.968 109.699L135.29 103.02Z" fill="#272729"/>
<path d="M123.455 91.1825L113.664 100.973L120.343 107.652L130.134 97.8614L123.455 91.1825Z" fill="#272729"/>
<path d="M111.295 79.7437L96.6797 94.3591L103.315 100.995L117.931 86.3792L111.295 79.7437Z" fill="#272729"/>
<path d="M67.3137 159.497H69.7823V163.576H66.4703C64.8757 163.576 63.511 163.269 62.361 162.641C61.211 162.027 60.3217 161.123 59.693 159.957C59.0643 158.792 58.7577 157.412 58.7577 155.817V145.605H54.8477V144.762L62.4377 136.697H63.2043V141.787H69.6597V145.621H63.2503V155.465C63.2503 156.753 63.603 157.749 64.293 158.455C64.9983 159.16 65.995 159.497 67.3137 159.497Z" fill="#272729"/>
<path d="M92.1379 141.787H95.6032V163.576H91.9692L91.5246 160.908C89.4239 163.039 86.8019 164.097 83.6586 164.097C80.5153 164.097 77.6939 163.009 75.5319 160.831C73.3699 158.654 72.2812 155.925 72.2812 152.659C72.2812 149.393 73.3699 146.679 75.5319 144.501C77.6939 142.339 80.4079 141.251 83.6586 141.251C86.9093 141.251 89.5159 142.324 91.6013 144.486L92.1226 141.787H92.1379ZM78.8746 157.78C80.2392 159.145 81.9412 159.819 83.9959 159.819C86.0506 159.819 87.7526 159.145 89.0866 157.78C90.4206 156.415 91.0799 154.713 91.0799 152.659C91.0799 150.604 90.4206 148.902 89.0866 147.553C87.7526 146.203 86.0506 145.529 83.9806 145.529C82.6313 145.529 81.4199 145.835 80.3313 146.464C79.2426 147.077 78.3839 147.936 77.7706 149.025C77.1573 150.113 76.8353 151.325 76.8353 152.674C76.8353 154.713 77.5099 156.415 78.8746 157.78Z" fill="#272729"/>
<path d="M111.795 164.097C108.559 164.097 105.861 163.009 103.668 160.816C101.475 158.623 100.387 155.909 100.387 152.659C100.387 149.408 101.475 146.709 103.668 144.532C105.861 142.355 108.59 141.266 111.841 141.266C114.509 141.266 116.824 142.017 118.787 143.52C120.749 145.023 122.022 147.031 122.62 149.531H118.173C117.606 148.289 116.763 147.323 115.628 146.602C114.493 145.897 113.221 145.529 111.795 145.529C110.522 145.529 109.372 145.835 108.329 146.464C107.287 147.077 106.459 147.936 105.845 149.025C105.247 150.113 104.941 151.325 104.941 152.674C104.941 154.698 105.6 156.385 106.919 157.765C108.237 159.145 109.863 159.819 111.795 159.819C113.221 159.819 114.493 159.451 115.613 158.731C116.732 158.01 117.575 156.967 118.173 155.618H122.697C122.083 158.179 120.78 160.218 118.802 161.767C116.824 163.315 114.493 164.082 111.795 164.082V164.097Z" fill="#272729"/>
<path d="M136.775 159.497H139.243V163.576H135.931C134.337 163.576 132.972 163.269 131.822 162.641C130.672 162.027 129.783 161.123 129.154 159.957C128.525 158.792 128.219 157.412 128.219 155.817V145.605H124.309V144.762L131.899 136.697H132.665V141.787H139.121V145.621H132.711V155.465C132.711 156.753 133.064 157.749 133.754 158.455C134.459 159.16 135.456 159.497 136.775 159.497Z" fill="#272729"/>
<path d="M143.506 138.399V133.799H148.152V138.399H143.506ZM143.583 163.576V141.787H148.06V163.576H143.583Z" fill="#272729"/>
<path d="M164.252 164.097C161.016 164.097 158.318 163.009 156.125 160.816C153.932 158.623 152.844 155.909 152.844 152.659C152.844 149.408 153.932 146.709 156.125 144.532C158.318 142.355 161.047 141.266 164.298 141.266C166.966 141.266 169.281 142.017 171.244 143.52C173.206 145.023 174.479 147.031 175.077 149.531H170.63C170.063 148.289 169.22 147.323 168.085 146.602C166.95 145.897 165.678 145.529 164.252 145.529C162.979 145.529 161.829 145.835 160.786 146.464C159.744 147.077 158.916 147.936 158.302 149.025C157.704 150.113 157.398 151.325 157.398 152.674C157.398 154.698 158.057 156.385 159.376 157.765C160.694 159.145 162.32 159.819 164.252 159.819C165.678 159.819 166.95 159.451 168.07 158.731C169.189 158.01 170.032 156.967 170.63 155.618H175.154C174.54 158.179 173.237 160.218 171.259 161.767C169.281 163.315 166.95 164.082 164.252 164.082V164.097Z" fill="#272729"/>
<path d="M120.32 107.625L113.68 100.985L108.498 106.168L103.315 100.985L96.6758 107.625L101.858 112.807L96.6758 117.99L103.315 124.629L108.498 119.447L113.68 124.629L120.32 117.99L115.137 112.807L120.32 107.625Z" fill="#FF0000"/>
</g>
<path d="M182.082 194.672C196.936 194.672 208.977 182.631 208.977 167.777C208.977 152.924 196.936 140.883 182.082 140.883C167.229 140.883 155.188 152.924 155.188 167.777C155.188 182.631 167.229 194.672 182.082 194.672Z" fill="#272729"/>
<path d="M182.083 191.667C195.276 191.667 205.972 180.971 205.972 167.777C205.972 154.584 195.276 143.888 182.083 143.888C168.889 143.888 158.193 154.584 158.193 167.777C158.193 180.971 168.889 191.667 182.083 191.667Z" fill="#FFD300"/>
<path d="M198.09 160.755L189.089 151.769L182.082 158.777L175.059 151.769L166.059 160.755L173.081 167.777L166.059 174.8L175.059 183.785L182.082 176.778L189.089 183.785L198.09 174.8L191.083 167.777L198.09 160.755Z" fill="#FF0000"/>
<path d="M76.4375 148.089H77.5415C77.8328 148.104 78.1241 148.089 78.4155 148.012C78.9828 147.966 79.5195 147.89 80.0408 147.813C81.2215 147.813 82.4328 147.675 83.5981 147.522C84.9321 147.292 86.2815 147.138 87.6308 147.062C88.4128 147.062 89.1795 147.062 90.0228 146.985H90.2068C92.0161 147.062 93.8101 147.276 95.5888 147.629H95.6655C95.7728 147.629 95.8801 147.629 95.9875 147.629L97.2908 147.828C98.4561 148.028 99.6368 148.089 100.802 148.028C101.446 147.997 102.075 147.92 102.688 147.782H102.979C104.605 147.782 106.153 147.092 107.794 147.092C108.576 147.138 109.343 147.108 110.125 147.031C110.953 146.893 111.673 146.356 112.455 146.31C113.513 146.172 114.51 145.774 115.369 145.145C115.737 144.992 116.105 144.854 116.457 144.685C116.534 144.716 116.626 144.731 116.703 144.746L117.347 145.084C117.347 145.084 117.423 145.176 117.469 145.222C117.945 145.682 120.122 145.927 121.195 146.004C121.502 146.004 121.824 146.004 122.131 145.958C123.557 146.05 125.013 145.958 126.439 145.958C127.651 145.912 128.862 145.958 130.058 146.111C130.564 146.234 131.085 146.31 131.607 146.326C131.852 146.418 132.128 146.464 132.389 146.418H132.573C132.573 146.418 132.634 146.418 132.665 146.418C132.695 146.418 132.711 146.387 132.726 146.356C132.726 146.341 132.726 146.326 132.726 146.295H133.401C133.401 146.295 133.431 146.356 133.462 146.372C133.493 146.387 133.523 146.402 133.554 146.402C134.811 146.525 136.069 146.402 137.28 146.08C137.617 146.264 137.939 146.525 138.323 146.372C138.323 146.418 138.353 146.448 138.399 146.464C138.43 146.479 138.476 146.494 138.507 146.494C138.553 146.494 138.583 146.464 138.614 146.448C138.645 146.418 138.66 146.387 138.66 146.341V146.433C138.66 146.433 138.691 146.402 138.691 146.372C138.691 146.356 138.691 146.326 138.691 146.31C138.691 146.157 138.645 146.019 138.583 145.896C138.537 145.758 138.507 145.62 138.476 145.467C138.476 145.467 138.476 145.436 138.476 145.421H138.645C139.135 145.666 139.657 145.835 140.193 145.927C140.408 145.973 140.623 145.973 140.837 145.927C140.929 145.927 140.975 145.82 141.037 145.774C141.558 145.85 142.064 145.912 142.585 145.927C142.677 145.958 142.769 145.958 142.846 145.927C142.938 145.896 143.015 145.85 143.061 145.774C143.091 145.774 143.137 145.743 143.153 145.712C143.183 145.682 143.199 145.651 143.199 145.605V145.528C143.199 145.528 143.199 145.482 143.199 145.452C143.045 145.007 142.785 144.608 142.417 144.286C142.079 144.041 142.018 143.765 141.788 143.504C141.665 143.32 141.512 143.167 141.313 143.075L140.96 142.768C140.347 142.385 139.657 142.14 138.936 142.078C138.936 142.032 138.921 142.002 138.89 141.971C138.859 141.94 138.829 141.925 138.783 141.925H138.277C137.571 141.848 136.851 141.833 136.13 141.864C135.164 141.864 134.198 141.818 133.232 141.726C132.358 141.634 131.515 141.419 130.625 141.388C129.598 141.358 128.586 141.235 127.574 141.036C126.669 140.852 125.765 140.622 124.86 140.346C124.523 140.254 124.185 140.192 123.848 140.131C123.618 140.07 123.388 139.962 123.204 139.809C123.158 139.717 123.097 139.64 123.051 139.548C123.235 139.211 123.373 138.874 123.495 138.506V138.414C123.664 138.214 123.802 138 123.894 137.754C124.262 136.865 124.553 135.945 124.783 135.01C125.105 133.768 125.243 132.48 125.213 131.192C125.351 130.916 125.412 130.609 125.427 130.302C125.427 129.781 125.351 129.244 125.182 128.754V127.205C125.412 127.021 125.596 126.806 125.749 126.561C125.933 126.285 126.087 125.978 126.179 125.656L126.332 125.411C126.332 125.411 126.393 125.35 126.424 125.319C126.455 125.242 126.485 125.166 126.516 125.089C126.639 124.844 126.823 124.598 126.945 124.307L127.068 124.138H127.252C127.405 124.154 127.528 124.23 127.635 124.338C127.758 124.491 127.743 124.614 127.911 124.736C128.387 125.058 128.908 125.304 129.46 125.457C129.843 125.656 130.273 125.733 130.702 125.702C131.116 125.626 131.561 125.641 131.975 125.595L132.22 125.84C132.22 125.84 132.266 125.871 132.281 125.871C132.297 125.871 132.327 125.871 132.358 125.871C132.389 125.871 132.404 125.871 132.419 125.84C132.435 125.825 132.45 125.81 132.465 125.779C132.511 125.84 132.557 125.902 132.619 125.948C133.094 126.392 133.293 125.825 133.646 125.457C133.723 125.564 133.339 125.641 133.493 125.84C134.075 126.116 134.183 125.396 134.566 125.227C134.827 125.319 134.489 125.534 134.566 125.656C135.011 125.733 135.271 125.426 135.501 125.166C135.762 125.166 136.023 125.135 136.283 125.074C136.544 124.997 136.805 124.89 137.065 124.767C137.648 124.568 138.215 124.322 138.752 124.016C139.565 123.418 140.285 122.712 140.899 121.915C141.021 121.792 141.129 121.685 141.236 121.578L141.405 121.7C141.405 121.7 141.405 121.716 141.405 121.731C141.405 121.746 141.405 121.746 141.405 121.762C141.512 121.9 141.665 122.022 141.819 122.114L141.941 122.252C142.279 122.544 142.647 122.774 143.045 122.958C143.643 123.264 144.303 123.464 144.962 123.571L145.238 123.878C145.422 124.568 145.775 126.454 146.633 126.132C146.633 126.162 146.633 126.193 146.633 126.239C146.603 126.607 146.587 127.021 146.833 127.174C147.078 127.343 147.446 127.052 147.676 126.837C148.105 126.546 148.427 126.101 148.581 125.61C148.795 125.181 148.933 124.706 148.979 124.215C149.025 124.016 149.041 123.801 149.025 123.586C148.995 123.418 148.933 123.249 148.826 123.096C148.826 123.05 148.78 123.004 148.749 122.942C148.765 122.942 148.795 122.927 148.795 122.896C148.795 122.881 148.826 122.866 148.826 122.835C148.826 122.804 148.826 122.789 148.826 122.774C148.826 122.758 148.826 122.728 148.811 122.712C147.829 121.286 146.679 119.983 145.407 118.818C144.839 118.327 144.165 117.974 143.567 117.484C143.045 116.993 142.493 116.564 141.895 116.165C141.88 116.165 141.849 116.15 141.834 116.15C141.819 116.15 141.788 116.15 141.773 116.165C141.757 116.18 141.727 116.196 141.727 116.211C141.727 116.226 141.711 116.257 141.696 116.272H141.527C141.42 116.272 141.313 116.272 141.221 116.272C141.144 116.272 141.067 116.288 141.006 116.318H140.853C140.853 116.318 140.853 116.272 140.853 116.257C140.853 116.242 140.853 116.211 140.837 116.196C140.822 116.18 140.822 116.165 140.807 116.15C140.807 116.15 140.776 116.134 140.761 116.119C140.73 116.119 140.715 116.119 140.684 116.119C139.902 116.318 139.059 116.119 138.261 116.318C137.863 116.395 137.479 116.502 137.096 116.64C137.219 116.41 137.326 116.165 137.418 115.981C137.587 115.69 137.74 115.383 137.863 115.061C138.215 114.601 138.445 114.08 138.537 113.512C138.706 113.052 138.89 112.592 139.089 112.117C139.289 111.642 139.611 111.166 139.871 110.676C140.592 110.507 140.469 109.556 140.776 108.882C140.991 108.437 141.251 108.008 141.558 107.624C141.911 107.134 142.202 106.674 142.463 106.229L143.643 105.738L143.873 105.662L145.422 105.14C146.664 104.711 147.891 104.358 149.163 103.975C150.329 103.714 151.479 103.331 152.567 102.84C153.089 102.733 153.579 102.564 154.039 102.319C154.76 101.905 155.343 101.276 155.68 100.51C155.818 100.402 155.971 100.295 156.125 100.203H156.201C155.573 102.089 154.821 103.944 153.947 105.738C155.082 103.975 155.956 102.058 156.539 100.05L157.183 99.7431C156.615 101.89 155.91 103.975 155.051 106.03C155.22 105.784 155.358 105.524 155.465 105.248C156.385 103.438 157.091 101.537 157.581 99.5745L157.903 99.4211C159.13 98.8538 160.418 98.3478 161.614 97.6885C161.645 97.6731 161.66 97.6425 161.675 97.6118C161.675 97.5811 161.675 97.5351 161.675 97.5045C161.675 97.4738 161.645 97.4431 161.614 97.4278C161.583 97.4125 161.553 97.3971 161.507 97.4125C161.629 97.3205 161.737 97.2285 161.844 97.1365C161.967 97.0291 162.074 96.9065 162.166 96.7838H162.243C162.243 96.7838 162.289 96.7378 162.304 96.7071C162.319 96.6765 162.304 96.6458 162.304 96.5998C162.457 96.2778 162.565 95.9251 162.595 95.5725C162.672 95.3425 162.718 95.0971 162.749 94.8518C162.764 94.5911 162.764 94.3305 162.749 94.0698C162.856 93.2111 162.749 92.3371 162.427 91.5245C162.289 91.1565 162.059 90.8191 161.783 90.5278C161.507 90.2365 161.169 90.0065 160.801 89.8531C160.755 89.7765 160.709 89.6998 160.648 89.6385C160.648 89.6231 160.633 89.5925 160.617 89.5925C160.602 89.5925 160.587 89.5618 160.556 89.5618H160.51C160.28 89.4545 160.035 89.3471 159.789 89.2705C160.035 88.6878 160.203 88.0438 160.449 87.4458C160.019 87.9518 159.697 88.5345 159.513 89.1785C159.007 89.0558 158.578 88.7491 158.103 88.5958C157.995 88.5958 157.903 88.5191 157.811 88.5038C158.302 87.7218 158.701 86.8938 158.992 86.0351C158.609 86.4338 158.317 86.8938 158.118 87.4151C157.919 87.7525 157.704 88.0745 157.505 88.3965L156.799 88.1511C156.876 87.9978 156.922 87.8138 156.937 87.6451C156.845 87.6758 156.769 87.7371 156.707 87.8138C156.646 87.8905 156.6 87.9825 156.585 88.0745C156.094 87.8751 155.603 87.6758 155.113 87.4611C154.147 87.0165 153.135 86.7405 152.184 86.2345C152.153 86.2345 152.107 86.2191 152.077 86.2345C152.046 86.2345 152.015 86.2651 152 86.2958L151.678 86.1425C151.31 85.9125 150.973 85.6518 150.651 85.3605C150.666 85.3605 150.697 85.3298 150.712 85.3145C150.712 85.2991 150.743 85.2838 150.743 85.2531C150.743 85.2225 150.743 85.2071 150.743 85.1918C150.743 85.1765 150.743 85.1458 150.712 85.1305C150.697 85.0998 150.666 85.0845 150.651 85.0691L149.623 84.6551C149.087 84.2871 148.519 83.9805 147.937 83.7045L147.293 83.4285C146.833 81.5731 146.465 79.6871 146.219 77.7858C145.974 77.8931 146.127 78.3378 146.143 78.5218C146.235 80.1165 146.48 81.7111 146.879 83.2598C146.71 83.1985 146.541 83.1525 146.357 83.1065C145.989 82.1251 145.713 81.1131 145.529 80.0858C145.299 80.3158 145.483 80.7145 145.529 80.9598C145.652 81.6651 145.821 82.3705 146.066 83.0451L145.683 82.9991L145.192 82.8305C144.839 81.1898 144.655 79.5031 144.609 77.8165C144.395 79.4571 144.487 81.1285 144.916 82.7385C144.471 82.6005 144.027 82.4931 143.597 82.4011C142.386 82.1098 141.113 82.1865 139.902 81.9258C140.009 80.9138 139.979 79.9018 139.841 78.8898C139.473 78.0925 138.89 77.4178 138.139 76.9731C137.786 76.6971 137.372 76.4978 136.927 76.3751C136.483 76.2525 136.038 76.2371 135.593 76.2985C134.965 76.4365 134.413 76.7738 133.968 77.2338C133.799 77.3411 133.646 77.4638 133.493 77.5865C133.217 77.5098 132.925 77.5098 132.634 77.5865C132.312 77.5865 132.005 77.5865 131.683 77.6478C131.147 77.7398 130.671 78.4298 130.395 78.8438C129.905 79.6565 129.491 80.5151 129.153 81.4045L129.107 81.4965C128.939 81.7725 128.785 82.0485 128.663 82.3551C128.663 82.4318 128.586 82.5085 128.555 82.6005L128.157 83.2751C128.034 83.5205 127.942 83.7811 127.865 84.0571C127.114 84.4865 126.393 84.9465 125.703 85.4525C125.397 85.6518 125.105 85.8971 124.86 86.1578C123.971 86.6178 123.081 87.0778 122.177 87.5378H122.115L121.962 87.6298L121.671 87.7831C120.981 88.0745 120.337 88.4425 119.754 88.8871C119.386 89.0711 118.972 89.2398 118.65 89.4238C117.791 89.8685 116.963 90.3898 116.212 90.9725L115.752 91.1411C114.878 91.3711 114.004 91.5858 113.115 91.8005H112.287C111.167 91.8005 110.033 91.9385 108.913 91.9998C107.61 92.0765 106.307 92.0458 105.034 92.1225C104.252 92.1685 103.485 92.1685 102.703 92.2758C101.921 92.3831 101.216 92.2758 100.465 92.3218C98.9621 92.3525 97.4595 92.5211 96.0028 92.8278C95.2821 92.9045 94.5768 93.0118 93.8715 93.1805C93.5648 93.2111 93.2735 93.3031 92.9821 93.4258C92.7061 93.5178 92.4301 93.6098 92.1541 93.7018C90.6055 94.3151 89.2715 95.1738 87.8148 95.8945C86.2201 96.6611 84.7175 97.5658 83.2761 98.6085C82.5095 99.1451 81.7735 99.7431 81.0988 100.402C80.6848 100.755 80.3168 101.138 79.9795 101.552C79.8568 101.506 79.7801 101.66 79.8261 101.752L79.7341 101.89C79.4428 102.166 79.1668 102.457 78.9061 102.733C78.5688 103.101 78.3081 103.53 78.1241 104.006C77.8481 104.343 77.6028 104.696 77.3421 105.048C76.8055 105.677 76.3608 106.382 76.0388 107.149C76.0388 107.18 76.0388 107.226 76.0388 107.256C76.0388 107.287 76.0848 107.318 76.1155 107.333C75.9621 107.594 75.8241 107.854 75.6861 108.115C75.0728 109.081 74.5055 110.078 73.9535 111.09C73.8155 111.335 73.6928 111.596 73.5855 111.872C72.9415 113.19 72.6195 114.632 72.6195 116.104C72.6195 116.119 72.6195 116.134 72.6195 116.165C72.4661 116.84 72.3282 117.514 72.1902 118.204C72.0982 118.756 72.0061 119.308 71.9295 119.86C71.7608 120.489 71.6228 121.133 71.5308 121.792C71.4695 122.13 71.4081 122.482 71.3315 122.82C71.2395 123.326 71.1935 123.862 71.1321 124.368C71.1015 124.675 71.0555 124.966 70.9788 125.258C70.9788 125.288 70.9788 125.319 70.9788 125.35C70.9788 125.365 70.9635 125.38 70.9481 125.411C70.9481 125.426 70.9481 125.457 70.9481 125.472C70.9481 125.488 70.9481 125.518 70.9788 125.534C70.9788 125.549 71.0095 125.564 71.0248 125.58C70.9021 126.101 70.7948 126.607 70.7028 127.128C70.6568 127.328 70.4881 127.68 70.7795 127.818C70.8255 127.788 70.8715 127.742 70.9022 127.68V128.524C70.8715 128.784 70.8715 129.045 70.9022 129.306V131.79C70.9022 132.219 70.9481 132.648 70.9788 133.078V133.599C70.9481 134.182 70.9481 134.749 70.9788 135.332C70.8255 136.206 70.6415 137.095 70.5035 137.969V138.076C70.2888 138.889 70.0895 139.686 69.9055 140.499C69.7215 141.312 69.6142 141.925 69.5068 142.646C69.2768 143.412 69.0775 144.194 68.9088 144.976C68.7401 145.697 68.6635 146.448 68.6635 147.184C68.6328 147.568 68.6328 147.706 68.6328 148.104C71.1935 148.104 76.3301 148.166 76.3608 148.058L76.4375 148.089Z" fill="#272729"/>
<path d="M135.717 80.4232C135.947 80.9905 135.871 82.5392 135.717 83.1065C135.564 83.6738 135.104 84.2412 134.889 84.2412C134.675 84.2412 134.659 82.8918 134.659 82.8918C134.659 82.8918 134.659 81.8952 134.506 81.3278C134.353 80.7605 134.123 79.8405 133.678 79.7025C133.218 79.5645 132.39 79.7792 132.007 80.4078C131.623 81.0518 131.47 82.2478 131.255 83.1065C131.041 83.9652 130.427 84.9465 130.044 85.0232C129.661 85.0998 129.891 84.3792 129.891 83.9652C129.891 83.5512 130.136 82.4012 130.427 81.3432C130.703 80.2852 131.102 79.4265 131.869 78.7978C132.62 78.1538 133.632 78.2305 134.521 78.5832C135.411 78.9358 135.503 79.8558 135.733 80.4232H135.717Z" fill="white"/>
<path d="M136.669 78.706C137.083 78.7366 137.481 79.5186 137.742 80.0093C138.003 80.4846 138.217 81.3893 138.217 81.3893C138.217 81.3893 138.524 82.6006 138.708 82.5546C138.907 82.5086 139.153 81.8953 139.153 81.3586C139.153 80.822 138.861 79.396 138.539 78.9206C138.217 78.4606 137.926 77.6479 137.098 77.5099C136.27 77.3719 135.396 77.5253 134.905 78.2613C134.737 78.5066 134.645 78.5526 134.553 78.8286L135.35 80.0093C135.519 79.3499 136.239 78.6753 136.653 78.706H136.669Z" fill="white"/>
<path d="M126.47 143.06C126.286 144.087 127.375 144.93 127.375 144.93C127.375 144.93 130.687 145.252 131.469 145.39C132.251 145.513 132.91 145.13 133.508 145.268C134.106 145.39 134.045 145.39 134.535 145.39H136.575C136.575 145.39 137.357 145.59 137.602 145.39C137.847 145.191 137.127 144.547 137.602 144.424C138.077 144.302 138.691 144.424 139.043 144.547C139.411 144.67 139.519 144.93 139.825 144.93C140.132 144.93 141.451 145.13 141.819 144.93C142.187 144.731 141.221 144.225 140.791 143.642C140.377 143.06 139.825 143.06 139.166 142.677C138.507 142.293 137.065 141.895 134.827 142.293C132.603 142.677 130.319 141.45 129.107 141.45C127.896 141.45 126.639 142.033 126.455 143.06H126.47Z" fill="white"/>
<path d="M146.832 90.9265C147.446 91.1258 148.55 91.1258 148.611 90.9265C148.672 90.7271 147.921 90.4051 147.446 90.1598C146.97 89.8991 146.832 89.3931 146.832 88.9945C146.832 88.5958 146.832 88.2891 147.108 88.1511C147.384 88.0285 147.66 88.2738 147.936 88.5958C148.212 88.9178 148.826 89.2398 149.24 89.2398C149.654 89.2398 149.792 89.2398 149.93 88.9791C150.068 88.7185 149.868 88.2738 149.592 87.9518C149.316 87.6298 148.565 87.3078 147.952 87.1851C147.338 87.0625 146.725 86.9245 146.234 87.1851C145.759 87.4458 145.483 87.8291 145.345 88.2738C145.207 88.7185 145.284 89.2398 145.406 89.6845C145.529 90.1291 146.234 90.7118 146.848 90.9111L146.832 90.9265Z" fill="white"/>
<path d="M141.835 121.164C142.325 121.67 143.245 122.36 144.089 122.804C144.947 123.249 145.438 123.126 145.791 123.494C146.143 123.862 146.097 124.184 146.159 124.568C146.22 124.951 146.343 125.58 146.588 125.702C146.833 125.825 147.201 125.442 147.324 125.702C147.447 125.963 147.017 126.653 147.324 126.653C147.631 126.653 147.937 126.086 148.121 125.702C148.305 125.334 148.443 124.951 148.551 124.568C148.673 124.123 148.612 123.74 148.551 123.372C148.489 122.988 147.937 122.298 147.631 121.915C147.324 121.532 145.929 120.014 145.561 119.569C145.193 119.124 143.613 117.928 142.632 117.407C141.651 116.901 141.175 117.729 140.685 118.864C140.194 119.998 141.359 120.642 141.85 121.148L141.835 121.164Z" fill="white"/>
<path d="M110.998 94.7752C112.685 94.7752 113.942 94.8979 115.705 94.1772C117.469 93.4566 118.143 93.0579 119.401 92.1379C120.658 91.2179 122.59 89.7459 123.679 89.0866C124.767 88.4272 127.113 86.3726 127.113 86.3726C127.113 86.3726 123.587 87.6146 122.575 88.1512C121.563 88.6726 117.867 91.4632 117.867 91.4632C117.867 91.4632 115.353 92.8432 113.083 93.0426C110.814 93.2419 107.962 93.0426 104.941 93.0426C101.921 93.0426 94.8672 94.3919 94.8672 94.3919H103.255C106.95 94.3919 109.296 94.7752 110.983 94.7752H110.998Z" fill="white"/>
<path d="M146.511 157.335C146.511 157.335 146.465 157.305 146.434 157.289V157.243C146.434 157.09 146.158 157.013 146.051 156.967C145.514 156.799 144.977 156.661 144.456 156.492C143.551 156.247 142.647 156.063 141.711 155.971L141.113 155.771C139.963 155.327 138.783 154.959 137.587 154.667C136.621 154.437 135.655 154.223 134.689 154.008L134.489 153.947L134.275 153.901L134.137 153.87C133.339 153.717 132.527 153.64 131.729 153.609L130.656 153.533C129.552 153.395 128.448 153.318 127.344 153.303C126.669 153.287 125.979 153.333 125.32 153.441C121.579 153.471 117.853 153.701 114.142 154.131C110.217 154.591 106.337 155.296 102.412 155.71C100.511 155.909 98.6093 156.032 96.7079 156.185C95.3739 156.293 94.0093 156.308 92.6599 156.415C92.0619 156.415 91.4793 156.415 90.8966 156.461C90.6666 156.415 90.4213 156.415 90.1913 156.461C89.4553 156.538 88.7499 156.615 88.0139 156.615H87.5539C87.0633 156.615 86.6033 156.507 86.1126 156.492C85.7446 156.431 85.3766 156.385 84.9933 156.369C84.3953 156.247 83.7973 156.155 83.1839 156.139C82.7086 156.032 82.2026 155.879 81.7119 155.771L80.5619 155.388L79.7646 155.097C79.4733 154.959 79.1819 154.836 78.8906 154.698C78.4459 154.361 77.9706 154.069 77.4646 153.824C76.8053 153.318 76.1766 152.781 75.5786 152.183C75.3639 151.846 75.1186 151.539 74.9193 151.187V151.156C74.8886 150.987 74.8579 150.803 74.8119 150.635C74.6893 149.945 74.5973 149.255 74.5359 148.565C74.5359 148.227 74.6126 147.905 74.6893 147.583H68.7246C68.7246 148.304 68.7859 149.025 68.9086 149.745V150.006C68.9086 150.696 69.0313 151.371 69.2766 152.015C69.6753 153.134 70.2119 154.192 70.8406 155.204C71.0706 155.557 71.3313 155.879 71.6226 156.17C71.7453 156.308 71.8679 156.446 72.0213 156.553C72.3126 156.829 72.6193 157.09 72.9259 157.366C73.2939 157.719 73.7079 158.041 74.1373 158.317C74.4746 158.608 74.8426 158.869 75.2106 159.114C76.5293 159.881 77.9553 160.433 79.4426 160.77C80.8533 161.138 82.2793 161.429 83.7359 161.613C83.9813 161.675 84.2266 161.721 84.4566 161.751C85.5146 161.889 86.5879 161.951 87.6459 161.935C88.8113 161.935 89.9919 162.043 91.1726 162.027C92.3379 162.027 93.4419 161.797 94.5766 161.705C96.6313 161.521 98.6553 161.107 100.695 160.785C101.139 160.785 101.584 160.785 102.013 160.693C102.611 160.601 103.286 160.509 103.93 160.448C105.126 160.31 106.322 160.065 107.487 159.727L108.085 159.651C109.603 159.543 111.106 159.359 112.609 159.083C113.651 158.93 114.679 158.654 115.737 158.531C116.703 158.424 117.669 158.24 118.635 158.087C120.705 157.78 122.744 157.335 124.829 157.09C125.504 157.013 126.179 156.875 126.838 156.783H126.976C127.344 156.783 127.712 156.753 128.065 156.707L128.555 156.645H129.107C129.414 156.676 129.721 156.676 130.027 156.645C130.963 156.645 131.883 156.691 132.818 156.768C133.569 156.875 134.321 156.998 135.087 157.075C135.854 157.167 136.728 157.274 137.541 157.381C138.614 157.673 139.703 157.857 140.807 157.933C142.171 157.995 143.597 158.148 144.977 158.071C144.977 158.087 145.008 158.102 145.023 158.117C145.039 158.117 145.069 158.117 145.085 158.117C145.284 158.102 145.499 158.056 145.683 158.01H145.775C145.775 158.01 145.882 157.964 145.928 157.933C146.066 157.887 146.173 157.811 146.265 157.703C146.373 157.657 146.465 157.565 146.526 157.458C146.557 157.458 146.572 157.427 146.587 157.397C146.603 157.366 146.603 157.351 146.603 157.32C146.603 157.289 146.603 157.259 146.572 157.243L146.511 157.335Z" fill="#272729"/>
<path d="M143.458 156.968C142.17 156.722 140.974 156.906 139.226 156.6C137.462 156.308 136.435 156.063 135.04 155.818C133.644 155.572 132.418 155.45 131.114 155.296C129.826 155.143 128.385 155.143 126.928 155.296C125.487 155.45 123.31 155.741 121.7 155.925C120.09 156.124 118.081 156.753 116.732 156.86C115.382 156.952 113.098 157.136 110.982 157.382C108.866 157.627 104.496 158.179 103.146 158.424C101.797 158.67 98.0096 159.13 96.8749 159.176C95.7403 159.222 91.8456 159.728 90.3429 159.728C88.8403 159.728 83.4736 159.314 81.7256 158.93C79.9623 158.532 76.1136 156.906 74.6723 155.68C73.2309 154.453 71.7896 152.168 71.5443 150.589C71.3296 149.316 71.4676 148.074 71.5136 147.63H69.1829C69.1676 148.044 69.1369 149.132 69.2596 150.221C69.4129 151.601 69.8269 152.337 70.2869 153.134C70.7469 153.916 71.3143 154.806 72.2956 155.695C73.2769 156.584 73.9056 157.412 74.9789 158.01C76.0676 158.608 76.2669 158.746 77.4629 159.191C78.6589 159.636 81.0816 160.218 82.9983 160.525C84.9149 160.816 85.6816 160.97 86.8163 160.97C87.9509 160.97 90.6343 161.169 92.3976 160.97C94.1609 160.77 96.1696 160.525 98.0249 160.28C99.8803 160.034 102.058 159.682 103.76 159.544C105.462 159.39 106.351 159.099 107.532 158.946C108.728 158.792 109.034 158.608 111.718 158.21C114.401 157.811 114.309 157.964 115.95 157.765C117.606 157.566 119.415 157.32 121.071 156.983C122.727 156.646 123.601 156.339 124.95 156.201C126.3 156.048 128.416 155.956 129.857 155.956C131.298 155.956 133.844 156.201 135.331 156.492C136.834 156.784 137.554 157.136 139.318 157.336C141.081 157.535 142.369 157.535 143.09 157.535C143.81 157.535 144.286 157.734 144.746 157.535C145.206 157.336 144.7 157.244 143.396 156.998L143.458 156.968Z" fill="white"/>
</svg>
