<svg width="230" height="230" viewBox="0 0 230 230" fill="none" xmlns="http://www.w3.org/2000/svg">
<path d="M230 115C230 178.511 178.511 230 115 230C108.361 230 101.859 229.433 95.5267 228.359C51.8727 220.923 16.6213 188.876 4.508 147.001C1.57933 136.85 0 126.101 0 115C0 51.4893 51.4893 0 115 0C178.511 0 230 51.4893 230 115Z" fill="white"/>
<path d="M205.818 115C205.818 127.267 203.411 139.15 198.673 150.343C194.104 161.153 187.556 170.875 179.215 179.216C170.874 187.557 161.152 194.105 150.342 198.674C139.149 203.412 127.25 205.804 114.999 205.804C102.748 205.804 90.849 203.397 79.6557 198.674C68.8457 194.105 59.1244 187.557 50.783 179.216C42.4417 170.875 35.8944 161.153 31.325 150.343C26.587 139.15 24.1797 127.251 24.1797 115C24.1797 102.749 26.587 90.85 31.325 79.6413C35.8944 68.8313 42.4417 59.11 50.783 50.7687C59.1244 42.4273 68.8304 35.88 79.6557 31.3107C90.849 26.5727 102.732 24.1807 114.999 24.1807C127.266 24.1807 139.149 26.5727 150.342 31.3107C161.152 35.88 170.874 42.4273 179.215 50.7687C187.556 59.11 194.104 68.816 198.673 79.6413C203.411 90.8347 205.818 102.733 205.818 115Z" fill="#FFD300"/>
<path d="M115 24.1806C127.266 24.1806 139.15 26.588 150.343 31.3106C161.153 35.88 170.874 42.4273 179.216 50.7686C187.557 59.11 194.104 68.8159 198.674 79.6413C203.412 90.8346 205.804 102.733 205.804 114.985C205.804 127.236 203.396 139.135 198.674 150.328C194.104 161.138 187.557 170.859 179.216 179.201C170.874 187.542 161.168 194.089 150.343 198.659C139.15 203.397 127.251 205.789 115 205.789C102.748 205.789 90.8495 203.381 79.6562 198.659C68.8462 194.089 59.1248 187.542 50.7835 179.201C42.4422 170.859 35.8948 161.153 31.3255 150.328C26.5875 139.135 24.1955 127.236 24.1955 114.985C24.1955 102.733 26.6028 90.8346 31.3255 79.6413C35.8948 68.8313 42.4422 59.11 50.7835 50.7686C59.1248 42.4273 68.8308 35.88 79.6562 31.3106C90.8495 26.5726 102.748 24.1806 115 24.1806ZM115 20.7C62.9275 20.7 20.7148 62.9126 20.7148 114.985C20.7148 167.057 62.9275 209.269 115 209.269C167.072 209.269 209.3 167.057 209.3 114.985C209.3 62.9126 167.072 20.7153 115 20.7153V20.7Z" fill="#272729"/>
<g opacity="0.1">
<path d="M71.899 79.8867H49.957V124.829H71.899C82.0497 124.829 89.2564 117.438 89.2564 107.027V97.6887C89.2564 87.2927 82.111 79.8867 71.899 79.8867ZM78.2777 106.643C78.2777 111.857 75.6404 114.54 70.565 114.54H60.7824V90.0987H70.565C75.6404 90.0987 78.2777 92.7974 78.2777 98.0567V106.643Z" fill="#272729"/>
<path d="M180.029 88.0594L159.728 114.509H179.922V124.675H145.621V116.273L165.861 89.8227H146.878V79.7334H180.029V88.0594Z" fill="#272729"/>
<path d="M135.291 103.02L120.318 117.993L126.997 124.672L141.97 109.699L135.291 103.02Z" fill="#272729"/>
<path d="M123.459 91.1825L113.668 100.973L120.347 107.652L130.137 97.8614L123.459 91.1825Z" fill="#272729"/>
<path d="M111.299 79.7437L96.6836 94.3591L103.319 100.995L117.935 86.3792L111.299 79.7437Z" fill="#272729"/>
<path d="M67.3156 159.497H69.7843V163.576H66.4723C64.8776 163.576 63.5129 163.269 62.3629 162.641C61.2129 162.027 60.3236 161.123 59.6949 159.957C59.0663 158.792 58.7596 157.412 58.7596 155.817V145.605H54.8496V144.762L62.4396 136.697H63.2063V141.787H69.6616V145.621H63.2523V155.465C63.2523 156.753 63.6049 157.749 64.2949 158.455C65.0003 159.16 65.9969 159.497 67.3156 159.497Z" fill="#272729"/>
<path d="M92.1399 141.787H95.6052V163.576H91.9712L91.5265 160.908C89.4259 163.039 86.8039 164.097 83.6605 164.097C80.5172 164.097 77.6959 163.009 75.5339 160.831C73.3719 158.654 72.2832 155.925 72.2832 152.659C72.2832 149.393 73.3719 146.679 75.5339 144.501C77.6959 142.339 80.4099 141.251 83.6605 141.251C86.9112 141.251 89.5179 142.324 91.6032 144.486L92.1245 141.787H92.1399ZM78.8765 157.78C80.2412 159.145 81.9432 159.819 83.9979 159.819C86.0525 159.819 87.7545 159.145 89.0885 157.78C90.4225 156.415 91.0819 154.713 91.0819 152.659C91.0819 150.604 90.4225 148.902 89.0885 147.553C87.7545 146.203 86.0525 145.529 83.9825 145.529C82.6332 145.529 81.4219 145.835 80.3332 146.464C79.2445 147.077 78.3859 147.936 77.7725 149.025C77.1592 150.113 76.8372 151.325 76.8372 152.674C76.8372 154.713 77.5119 156.415 78.8765 157.78Z" fill="#272729"/>
<path d="M111.799 164.097C108.563 164.097 105.865 163.009 103.672 160.816C101.479 158.623 100.391 155.909 100.391 152.659C100.391 149.408 101.479 146.709 103.672 144.532C105.865 142.355 108.594 141.266 111.845 141.266C114.513 141.266 116.828 142.017 118.791 143.52C120.753 145.023 122.026 147.031 122.624 149.531H118.177C117.61 148.289 116.767 147.323 115.632 146.602C114.497 145.897 113.225 145.529 111.799 145.529C110.526 145.529 109.376 145.835 108.333 146.464C107.291 147.077 106.463 147.936 105.849 149.025C105.251 150.113 104.945 151.325 104.945 152.674C104.945 154.698 105.604 156.385 106.923 157.765C108.241 159.145 109.867 159.819 111.799 159.819C113.225 159.819 114.497 159.451 115.617 158.731C116.736 158.01 117.579 156.967 118.177 155.618H122.701C122.087 158.179 120.784 160.218 118.806 161.767C116.828 163.315 114.497 164.082 111.799 164.082V164.097Z" fill="#272729"/>
<path d="M136.777 159.497H139.245V163.576H135.933C134.339 163.576 132.974 163.269 131.824 162.641C130.674 162.027 129.785 161.123 129.156 159.957C128.527 158.792 128.221 157.412 128.221 155.817V145.605H124.311V144.762L131.901 136.697H132.667V141.787H139.123V145.621H132.713V155.465C132.713 156.753 133.066 157.749 133.756 158.455C134.461 159.16 135.458 159.497 136.777 159.497Z" fill="#272729"/>
<path d="M143.508 138.399V133.799H148.154V138.399H143.508ZM143.584 163.576V141.787H148.062V163.576H143.584Z" fill="#272729"/>
<path d="M164.254 164.097C161.018 164.097 158.32 163.009 156.127 160.816C153.934 158.623 152.846 155.909 152.846 152.659C152.846 149.408 153.934 146.709 156.127 144.532C158.32 142.355 161.049 141.266 164.3 141.266C166.968 141.266 169.283 142.017 171.246 143.52C173.208 145.023 174.481 147.031 175.079 149.531H170.632C170.065 148.289 169.222 147.323 168.087 146.602C166.952 145.897 165.68 145.529 164.254 145.529C162.981 145.529 161.831 145.835 160.788 146.464C159.746 147.077 158.918 147.936 158.304 149.025C157.706 150.113 157.4 151.325 157.4 152.674C157.4 154.698 158.059 156.385 159.378 157.765C160.696 159.129 162.322 159.819 164.254 159.819C165.68 159.819 166.952 159.451 168.072 158.731C169.191 158.01 170.034 156.967 170.632 155.618H175.156C174.542 158.179 173.239 160.218 171.261 161.767C169.283 163.315 166.952 164.082 164.254 164.082V164.097Z" fill="#272729"/>
<path d="M120.321 107.625L113.682 100.985L108.499 106.168L103.317 100.985L96.6775 107.625L101.86 112.807L96.6775 117.99L103.317 124.629L108.499 119.447L113.682 124.629L120.321 117.99L115.139 112.807L120.321 107.625Z" fill="#FF0000"/>
</g>
<path d="M182.082 194.672C196.936 194.672 208.977 182.631 208.977 167.777C208.977 152.924 196.936 140.883 182.082 140.883C167.229 140.883 155.188 152.924 155.188 167.777C155.188 182.631 167.229 194.672 182.082 194.672Z" fill="#272729"/>
<path d="M182.083 191.667C195.276 191.667 205.972 180.971 205.972 167.778C205.972 154.584 195.276 143.888 182.083 143.888C168.889 143.888 158.193 154.584 158.193 167.778C158.193 180.971 168.889 191.667 182.083 191.667Z" fill="#FFD300"/>
<path d="M198.09 160.755L189.089 151.769L182.082 158.777L175.059 151.769L166.059 160.755L173.081 167.777L166.059 174.8L175.059 183.785L182.082 176.778L189.089 183.785L198.09 174.8L191.083 167.777L198.09 160.755Z" fill="#FF0000"/>
<path fill-rule="evenodd" clip-rule="evenodd" d="M106.06 120.566C103.162 119.155 98.424 119.63 96.354 117.407C97.3353 113.313 97.6113 109.081 97.1667 104.895C96.9673 104.65 96.7527 104.435 96.5073 104.236C96.216 103.132 95.8327 102.074 95.342 101.046C95.802 99.9271 96.0933 98.7465 96.2007 97.5505C99.5433 99.1911 104.266 99.4211 107.21 101.506C106.627 101.859 106.106 102.273 105.631 102.764C105.692 102.963 105.738 102.84 105.922 102.84C104.818 105.125 104.067 110.308 105.815 112.439C106.259 112.439 106.735 112.868 107.333 112.945C107.915 112.96 108.498 112.884 109.065 112.715C109.035 112.884 109.035 113.037 109.065 113.206C109.096 113.359 109.173 113.512 109.28 113.65C108.881 113.957 108.406 114.156 107.9 114.233C107.685 114.448 108.084 114.356 108.053 114.601C106.137 115.26 105.6 117.974 106.06 120.55V120.581V120.566ZM116.824 100.97C119.523 98.0871 124.629 97.5965 127.711 95.0818C127.511 97.0905 127.818 99.1298 128.631 100.985C128.324 102.15 127.711 102.948 127.496 104.266C127.297 104.481 127.082 104.68 126.852 104.849C126.438 109.066 126.76 113.328 127.772 117.438C127.634 117.775 127.266 117.836 126.852 118.097C126.53 118.358 126.193 118.603 125.84 118.833C125.135 119.017 124.414 119.17 123.678 119.278C121.531 119.768 119.17 120.06 117.529 120.918C117.652 120.673 117.698 120.351 117.821 120.121C117.683 117.085 116.947 114.172 114.386 113.359C114.907 113.282 114.892 112.654 115.245 112.424C115.674 112.424 116.962 112.669 117.483 112.347C117.744 112.24 117.483 112.592 117.698 112.577C117.974 112.301 118.143 111.948 118.419 111.642C118.802 109.372 118.741 107.042 118.25 104.803C117.867 103.362 117.33 101.997 116.057 101.614C116.257 101.399 116.379 101.031 116.824 100.985V100.97ZM152.336 117.039C151.922 116.625 151.063 116.671 150.235 116.686C149.499 117.146 148.472 116.794 147.46 117.054C147.184 117.131 146.939 117.392 146.678 117.499C146.157 117.637 145.651 117.806 145.16 118.02C145.037 118.128 145.068 118.404 144.945 118.526C144.117 118.864 143.719 119.615 143.151 120.213C143.151 119.784 142.231 119.768 141.848 119.845C141.465 119.922 141.235 120.244 140.989 120.351C139.655 120.888 138.367 121.547 137.156 122.344C136.037 123.188 135.04 124 134.181 124.798C134.151 124.844 134.105 124.89 134.059 124.92L134.181 124.798C134.258 124.675 134.319 124.552 134.35 124.399C133.829 124.66 133.43 125.61 132.694 125.794C132.234 125.794 131.774 125.794 131.314 125.733C128.861 125.871 126.193 126.929 123.371 126.714C122.114 126.638 120.734 126.362 119.661 126.362C119.415 126.009 119.078 125.733 118.664 125.595C118.265 125.457 117.821 125.442 117.407 125.58C117.269 125.196 117.177 124.813 117.115 124.414C118.817 124.016 120.826 124.414 122.39 124.246C123.586 124 124.736 123.556 125.779 122.927C127.036 121.93 128.063 120.688 128.799 119.262C128.891 118.94 128.447 118.971 128.646 118.756C129.428 116.257 129.735 113.62 129.535 110.998C129.459 109.51 129.029 108.084 128.937 106.704C128.784 104.542 129.704 103.147 129.781 101.169C129.781 100.97 129.459 101.046 129.489 100.801C129.275 99.6205 128.493 98.7771 128.569 97.5351C128.646 97.1058 128.769 96.6918 128.937 96.2931C129.121 95.4958 129.121 94.7291 129.213 93.9011C129.75 93.2265 130.379 92.6438 131.069 92.1378C131.023 92.2145 130.992 92.3065 130.992 92.3985C130.992 92.4905 131.023 92.5825 131.069 92.6591C131.467 92.5058 131.483 91.9691 131.636 91.5705C132.633 91.2025 132.464 89.9758 132.633 88.8565C132.955 87.1085 133.369 85.3758 133.905 83.6891C134.365 82.0331 134.825 80.2851 135.408 78.7365C136.205 76.5131 137.677 74.4891 138.705 72.3118C139.211 71.2385 140.069 69.9811 139.272 69.3218C137.8 69.1071 137.34 70.2571 136.757 71.1925C135.454 73.5231 134.365 75.9611 133.461 78.4758C132.127 82.2171 131.299 86.1118 130.977 90.0678C130.501 90.5278 129.934 90.8651 129.321 91.0951C129.351 90.5278 129.29 89.9758 129.167 89.4238C129.535 88.9331 130.026 87.6758 129.52 87.0165C129.183 87.0165 129.091 87.2925 128.738 87.3231C128.232 87.8905 128.631 88.5345 128.6 89.1478C128.539 89.9298 127.833 90.7118 128.109 91.7698C123.356 93.9471 118.971 96.8758 115.122 100.418C115.015 99.0991 114.202 98.5471 113.665 97.6118C113.328 97.6118 112.975 97.6425 112.653 97.7651C112.546 98.0565 112.515 98.3938 112.577 98.7005C112.73 98.7005 112.883 98.7618 113.006 98.8538C113.129 98.9458 113.236 99.0685 113.297 99.2065C113.359 99.3445 113.374 99.5131 113.359 99.6665C113.328 99.8198 113.267 99.9578 113.175 100.08C112.607 99.8351 112.009 99.3598 111.319 99.4978C110.798 99.6051 110.66 100.218 110.231 100.157C110.169 99.7891 109.955 99.2218 110.154 98.8538C110.415 98.8385 110.66 98.7618 110.875 98.6238C110.813 98.3171 110.982 98.2558 110.936 97.9645C109.633 97.2285 108.391 98.7618 108.268 100.157C104.925 97.4125 99.62 96.6611 96.0167 94.1771C96.354 93.0118 95.7253 91.8771 95.7867 90.8345C95.7867 90.1138 96.4307 89.4085 96.0627 88.7951C95.8327 89.2245 95.618 89.6691 95.4187 90.1138C95.112 89.8838 95.1733 89.2858 94.6213 89.3165C93.7013 90.1751 95.1273 91.0185 95.2807 91.5705C95.48 92.2605 95.158 92.8891 95.2807 93.8245C94.468 93.5791 93.4253 92.5825 92.8273 92.8278C92.582 91.9385 92.4593 91.0185 92.4593 90.0985C92.168 84.7471 90.466 79.9631 89.132 75.4858C88.7793 74.9491 88.4727 74.3971 88.212 73.8145C88.3193 73.6765 88.488 73.6151 88.5033 73.3851C87.9667 73.1858 87.7213 71.6065 86.9087 71.5605C86.5253 71.5605 86.2187 71.9591 85.9887 72.0665C85.9887 75.6085 87.3687 78.1691 88.4113 80.8678C89.4387 83.6431 90.2973 86.4798 90.9873 89.3778C91.248 90.4358 91.8 91.4631 91.9073 92.5058C92.03 93.5485 92.214 93.5178 92.7813 94.2538C93.0267 94.5605 93.1647 94.9591 93.364 95.1891C93.824 95.7258 94.6827 96.2165 94.8207 96.7071C94.8207 96.9525 94.8053 97.1978 94.744 97.4278C94.6673 99.1605 94.9127 100.295 94.1153 101.215C94.238 103.132 95.1733 104.619 95.0353 106.75C94.928 108.146 94.5293 109.556 94.4833 111.044C94.2533 113.65 94.5907 116.288 95.4647 118.756C95.4033 118.94 95.1733 118.956 95.25 119.262C96.032 120.627 97.0747 121.838 98.3013 122.82C99.3593 123.464 100.54 123.908 101.782 124.108C103.254 124.261 105.293 123.801 106.704 124.307C106.581 124.644 106.627 125.135 106.413 125.396C105.063 124.982 104.941 126.193 104.036 126.285C102.963 126.392 101.859 126.5 100.709 126.592C97.4887 126.837 94.2993 125.488 91.3707 125.764C90.8033 125.411 90.3127 124.936 89.914 124.399C89.5 124.445 90.19 124.92 89.9907 124.982C89.0707 123.985 88.0433 123.08 86.9393 122.298C85.6973 121.547 84.394 120.918 83.0293 120.428C82.462 120.152 81.3733 119.492 80.852 120.29C80.438 119.538 79.7787 118.956 78.9967 118.618C79.0427 118.358 78.92 118.266 78.8433 118.112C78.3373 117.882 77.8007 117.714 77.2487 117.606C76.9727 117.499 76.8193 117.254 76.528 117.162C76.2367 117.085 75.838 117.223 75.378 117.162C75.2093 117.162 74.9487 116.947 74.7187 116.947C74.4887 116.947 74.3353 117.116 74.2127 117.1C74.1053 117.085 73.906 116.84 73.7067 116.809C72.986 116.686 72.25 116.809 71.606 117.177C71.4987 115.812 67.8953 116.778 69.1527 118.112C69.4747 118.434 70.3027 118.266 70.9007 118.312C71.238 118.312 71.8207 118.71 71.8207 118.235C72.1887 117.775 71.2227 117.852 71.4527 117.514C72.1887 117.867 73.032 117.974 73.8293 117.79C74.7493 118.082 75.6847 118.879 76.804 118.511C77.2947 118.756 77.8007 118.94 78.322 119.078C78.7053 119.646 79.3953 119.906 79.564 120.673C80.1927 120.78 80.3307 121.409 80.6527 121.838C80.6527 123.77 83.5507 124.828 85.084 125.38C87.0007 126.086 89.086 126.316 90.0213 127.757C90.0827 128.002 89.73 127.849 89.7913 128.125C90.466 128.048 90.2667 128.83 90.604 129.06C90.926 129.106 91.0027 128.938 91.3247 128.984C95.112 130.793 100.141 128.907 104.634 128.922C104.925 129.367 106.06 129.428 106.489 129.275C105.677 129.72 104.527 129.842 104.036 130.594C104.251 130.885 103.745 131.682 104.113 132.188C101.567 133.476 99.9267 136.068 97.55 137.616C96.8753 138.061 96.1087 138.383 95.4493 138.874C94.5753 139.625 93.7627 140.422 92.996 141.281C92.1833 142.109 91.0793 142.968 91.064 144.271C91.064 144.578 91.4473 144.501 91.4933 144.777C90.4507 145.835 89.3007 146.74 88.1813 147.782C87.062 148.825 86.326 150.205 85.1607 151.064C84.486 151.539 83.8267 152.045 83.2133 152.597C82.5233 153.425 81.7567 154.192 80.9133 154.866C80.8213 155.219 80.7753 155.587 80.7753 155.955C80.4687 156.016 80.1773 156.124 79.9013 156.246C79.8247 156.507 79.8093 156.783 79.84 157.044C79.5487 157.442 79.0887 157.304 78.7513 157.55C78.1227 158.01 78.0613 159.16 77.31 159.528C77.31 159.804 77.2487 160.064 77.126 160.31C77.0033 160.555 76.8347 160.77 76.6047 160.938C76.39 161.107 76.1293 161.214 75.8687 161.26C75.608 161.306 75.332 161.291 75.0713 161.214C74.9487 161.72 74.3353 161.751 73.998 162.012C73.5533 162.441 73.2007 162.962 72.9553 163.53C73.124 163.99 73.8753 163.775 74.2587 163.668C74.1053 164.235 74.1053 164.848 74.2587 165.416C74.4273 164.756 74.78 164.25 74.9793 163.545C75.1173 163.652 75.4393 163.775 75.6233 163.606C76.022 163.192 76.2827 162.656 76.344 162.073C77.0953 161.843 77.2027 161.138 77.7853 160.54C78.7053 159.604 80.3 159.098 80.4533 157.611C80.8213 157.565 80.9287 157.274 81.0973 157.028C81.266 157.09 81.5113 157.258 81.6647 157.105C82.1707 156.921 82.3087 156.216 82.7533 155.94C83.0753 155.771 83.4127 155.618 83.7653 155.495C84.716 154.974 85.5747 154.268 86.28 153.44C87.2767 152.321 88.5033 151.57 89.454 150.512C90.2667 149.377 90.9873 148.181 91.616 146.939C92.3367 146.709 92.3213 145.758 92.6127 145.068C94.2227 145.068 94.928 143.704 95.6333 142.784C95.94 142.416 96.4307 142.109 96.7833 141.695C97.136 141.281 97.366 140.76 97.7033 140.376C98.7307 139.303 99.9267 138.368 100.877 137.31C101.583 136.436 102.38 135.623 103.254 134.887C103.929 134.335 104.649 133.844 105.416 133.43C105.523 133.43 105.845 133.568 105.999 133.584C107.501 133.645 108.069 132.418 108.881 131.897C109.403 131.989 109.74 132.296 110.323 132.326C110.093 133.415 110.752 134.197 110.997 135.132C110.353 135.424 109.786 135.24 109.035 135.439C108.498 135.684 107.992 135.976 107.517 136.328C106.995 136.589 106.52 136.896 106.075 137.264C103.699 139.364 102.227 142.278 101.92 145.436C101.567 152.336 103.867 156.338 107.839 158.884C108.084 159.298 108.437 159.65 108.851 159.896C108.851 159.696 108.713 159.65 108.927 159.742C110.691 160.478 111.013 162.87 113.497 162.64C115.352 162.456 116.41 161.245 117.759 160.218C120.841 157.872 123.586 154.33 123.494 149.484C123.785 148.074 123.862 146.617 123.693 145.176C123.525 143.305 122.911 141.496 121.93 139.901C120.949 138.306 119.599 136.957 118.005 135.976C117.882 135.792 118.081 135.623 117.851 135.47C116.533 135.102 115.168 134.964 113.803 135.056C114.187 134.074 114.401 133.047 114.432 132.004C114.693 131.943 114.938 131.851 115.153 131.698C115.965 132.71 117.008 134.212 118.925 133.645C120.32 134.657 121.654 135.746 122.911 136.896C124.123 138.214 125.503 139.395 126.699 140.729C126.975 141.036 127.143 141.48 127.435 141.818C127.726 142.17 128.355 142.615 128.661 143.044C129.443 144.026 130.149 145.206 131.774 145.206C131.774 145.559 131.866 145.927 132.035 146.249C132.188 146.571 132.418 146.862 132.709 147.077C133.369 148.273 134.105 149.438 134.902 150.558C135.822 151.616 137.095 152.352 138.091 153.456C139.042 154.606 140.299 155.464 141.725 155.909C142.093 156.277 142.216 156.921 142.814 157.074C142.952 157.274 143.197 156.967 143.381 156.998C143.381 157.427 143.765 157.442 143.964 157.657C143.964 158.715 144.884 158.884 145.421 159.405C145.543 159.528 145.528 159.742 145.635 159.85C145.942 160.11 146.356 160.294 146.647 160.57C147.169 161.092 147.46 161.751 148.104 162.088C148.334 162.625 148.365 163.346 148.917 163.545C149.116 163.821 149.438 163.346 149.561 163.545C149.729 164.158 149.975 164.741 150.297 165.293V163.545C150.818 163.775 151.462 163.729 151.523 163.315C151.523 163.116 150.787 162.272 150.358 161.935C149.929 161.582 149.239 161.552 149.269 161.138C148.855 161.26 148.395 161.214 147.997 161.03C147.598 160.846 147.276 160.524 147.092 160.126C147.031 159.926 147.092 159.681 147.015 159.466C146.939 159.267 146.463 159.006 146.218 158.669C145.973 158.332 145.881 157.734 145.559 157.519C145.237 157.289 144.731 157.458 144.47 156.936C144.501 156.691 144.47 156.446 144.393 156.216C144.194 156.001 143.688 156.108 143.519 155.863C143.581 155.418 143.397 155.204 143.366 154.851C141.756 153.747 140.897 151.907 139.011 151.125C137.156 148.733 134.779 146.939 132.694 144.823C133.967 143.826 131.774 142.017 131.161 141.404C130.394 140.545 129.566 139.748 128.692 139.012C127.818 138.368 126.837 137.969 126.009 137.279C124.092 135.531 122.068 133.89 119.983 132.357C120.397 131.836 119.799 131.1 120.044 130.747C119.477 130.072 118.296 129.98 117.575 129.444C118.449 129.98 119.001 129.26 119.538 129.137C121.516 128.692 124.322 129.735 126.959 129.904C127.987 129.996 129.029 129.996 130.072 129.904C131.452 129.735 132.357 128.907 133.537 129.152C133.875 128.907 133.66 128.125 134.319 128.217C134.381 127.926 133.997 128.094 134.105 127.772C136.129 125.595 141.158 125.488 143.059 123.111C143.213 122.927 143.32 122.728 143.381 122.498C143.443 122.268 143.458 122.038 143.412 121.808C143.795 121.455 143.857 120.796 144.485 120.704C144.915 119.462 146.049 118.925 147.261 118.496C148.38 118.986 149.193 117.898 150.235 117.76C150.68 117.698 151.079 117.867 151.462 117.821C151.845 117.775 152.106 117.53 152.551 117.53C152.689 117.76 151.799 117.806 152.183 118.266C153.072 118.404 153.992 118.327 154.851 118.036C155.847 116.456 152.597 115.613 152.305 116.993L152.336 117.039Z" fill="#272729"/>
<path d="M106.259 105.248C106.612 104.174 107.333 103.116 107.333 103.116C107.333 103.116 106.98 104.542 106.98 105.079V108.1C106.98 109.173 106.627 110.231 108.406 110.599C110.185 110.967 111.611 110.599 113.389 110.599C115.168 110.599 115.889 110.246 116.241 109.526C116.594 108.82 117.315 105.968 117.315 105.968V108.82C117.315 110.599 115.889 111.32 115.183 111.32H109.479C109.479 111.32 108.053 111.32 106.98 110.967C105.907 110.614 105.907 108.836 105.907 108.836C105.907 108.836 105.907 106.336 106.259 105.278V105.248ZM119.078 138.383C118.005 137.31 114.371 135.884 114.095 135.884C114.095 135.884 115.873 136.957 117.299 138.015C118.725 139.088 119.431 140.146 120.151 141.572C120.857 142.998 121.225 144.777 121.577 147.982C121.93 151.186 120.872 151.907 120.151 152.965C119.446 154.038 118.725 155.817 117.299 157.243C115.873 158.669 114.8 159.374 113.742 159.742C112.669 160.095 111.611 158.316 110.89 157.611C110.185 156.906 107.685 155.112 106.259 153.686C104.833 152.26 103.407 148.702 103.407 148.702C103.407 148.702 103.055 150.481 104.113 152.628C105.186 154.759 106.612 155.832 107.317 156.553C108.023 157.258 110.875 159.405 111.243 159.758C111.595 160.11 112.316 161.889 113.742 161.536C115.168 161.184 116.241 159.758 116.594 159.405C116.947 159.052 120.151 155.848 121.577 153.348C123.003 150.849 123.003 150.144 122.651 148.365C122.298 146.586 121.945 144.44 121.577 142.661C121.225 140.882 120.151 139.456 119.078 138.383ZM129.581 126.438C129.581 126.438 132.219 126.254 132.541 126.438C132.847 126.622 131.605 127.036 131.115 127.159C130.624 127.297 128.125 127.972 126.837 128.048C125.549 128.125 122.865 127.803 123.034 127.496C123.218 127.19 125.288 127.159 125.288 127.159L129.581 126.438ZM138.705 151.524C138.705 151.524 140.514 153.471 140.56 153.824C140.621 154.176 139.502 153.471 139.103 153.18C138.689 152.888 136.589 151.37 135.715 150.42C134.841 149.469 133.399 147.184 133.752 147.123C134.105 147.062 135.439 148.656 135.439 148.656L138.705 151.539V151.524ZM85.682 151.524C85.682 151.524 83.8726 153.471 83.8266 153.824C83.7653 154.176 84.8846 153.471 85.2833 153.18C85.6973 152.888 87.798 151.37 88.672 150.42C89.546 149.469 90.9873 147.184 90.6346 147.123C90.282 147.062 88.948 148.656 88.948 148.656L85.682 151.539V151.524ZM94.238 126.438C94.238 126.438 91.6006 126.254 91.294 126.438C90.9873 126.622 92.2293 127.036 92.72 127.159C93.2106 127.297 95.71 127.972 96.998 128.048C98.286 128.125 100.969 127.803 100.801 127.496C100.617 127.19 98.5466 127.159 98.5466 127.159L94.2533 126.438H94.238ZM139.149 121.992C139.149 121.992 141.649 120.566 142.001 120.566C142.354 120.566 142.001 121.271 141.649 121.639C141.296 122.007 138.797 123.418 137.723 124.138C136.65 124.844 134.166 125.917 134.166 125.564C134.166 125.212 135.945 124.138 135.945 124.138L139.149 122.007V121.992ZM84.67 121.992C84.67 121.992 82.1706 120.566 81.818 120.566C81.4653 120.566 81.818 121.271 82.1706 121.639C82.5233 122.007 85.0226 123.418 86.096 124.138C87.1693 124.844 89.6533 125.917 89.6533 125.564C89.6533 125.212 87.8746 124.138 87.8746 124.138L84.67 122.007V121.992ZM135.807 74.4584C136.205 74.1518 138.291 69.7818 138.643 69.8278C138.996 69.8738 138.889 70.5791 138.889 70.5791L135.853 76.6204L132.97 81.6038C132.97 81.6038 135.408 74.7651 135.807 74.4584ZM89.1473 77.8164C88.7946 77.4638 87.3686 72.8331 87.016 72.8331C86.6633 72.8331 86.6633 73.5384 86.6633 73.5384L88.7946 79.9478L90.926 85.2838C90.926 85.2838 89.5 78.1538 89.1473 77.8011V77.8164Z" fill="white"/>
</svg>
